G04 #@! TF.GenerationSoftware,KiCad,Pcbnew,5.1.8-db9833491~88~ubuntu18.04.1*
G04 #@! TF.CreationDate,2020-12-10T12:47:45+05:30*
G04 #@! TF.ProjectId,Permitme_main _sub_V1,5065726d-6974-46d6-955f-6d61696e205f,rev?*
G04 #@! TF.SameCoordinates,Original*
G04 #@! TF.FileFunction,Soldermask,Top*
G04 #@! TF.FilePolarity,Negative*
%FSLAX46Y46*%
G04 Gerber Fmt 4.6, Leading zero omitted, Abs format (unit mm)*
G04 Created by KiCad (PCBNEW 5.1.8-db9833491~88~ubuntu18.04.1) date 2020-12-10 12:47:45*
%MOMM*%
%LPD*%
G01*
G04 APERTURE LIST*
%ADD10R,2.000000X2.000000*%
%ADD11O,2.000000X2.000000*%
%ADD12C,2.000000*%
%ADD13R,1.800000X1.800000*%
%ADD14C,1.800000*%
%ADD15C,3.200000*%
%ADD16O,3.500000X2.000000*%
%ADD17C,1.900000*%
%ADD18O,2.000000X4.000000*%
%ADD19C,1.600000*%
%ADD20R,1.600000X1.600000*%
%ADD21C,5.000000*%
%ADD22O,2.600000X1.800000*%
%ADD23C,3.000000*%
%ADD24R,2.600000X1.800000*%
%ADD25C,2.500000*%
%ADD26R,3.500000X3.500000*%
G04 APERTURE END LIST*
D10*
X51330000Y-94710000D03*
D11*
X51330000Y-92170000D03*
X51330000Y-89630000D03*
D12*
X50420000Y-68510000D03*
D10*
X47880000Y-68510000D03*
D13*
X122080000Y-68260000D03*
D14*
X124620000Y-68260000D03*
D10*
X128130000Y-35350000D03*
D12*
X128130000Y-30270000D03*
X128130000Y-32810000D03*
D15*
X39650000Y-166060000D03*
D10*
X82520000Y-68530000D03*
D12*
X90120000Y-68530000D03*
X92380000Y-76950000D03*
X92380000Y-79490000D03*
D10*
X92380000Y-74410000D03*
D16*
X39100000Y-110610000D03*
X39100000Y-124310000D03*
D17*
X41950000Y-118760000D03*
X41950000Y-116160000D03*
X41950000Y-120860000D03*
X41950000Y-114060000D03*
X44750000Y-120860000D03*
X44750000Y-114060000D03*
D18*
X38300000Y-117460000D03*
D15*
X91700000Y-157670000D03*
D19*
X39150000Y-104510000D03*
D20*
X42650000Y-104510000D03*
D15*
X132820000Y-157670000D03*
X132810000Y-84580000D03*
X132890000Y-166060000D03*
D10*
X44380000Y-151260000D03*
D12*
X44380000Y-148490000D03*
X44380000Y-145720000D03*
X44380000Y-142950000D03*
X44380000Y-140180000D03*
X41540000Y-149875000D03*
X41540000Y-147105000D03*
X41540000Y-144335000D03*
X41540000Y-141565000D03*
D21*
X44080000Y-133220000D03*
X44080000Y-158220000D03*
D11*
X100690000Y-73030000D03*
D10*
X100690000Y-70490000D03*
D15*
X91730000Y-84580000D03*
D20*
X39230000Y-55980000D03*
D19*
X42730000Y-55980000D03*
D22*
X42730000Y-39380000D03*
X42720000Y-36840000D03*
X42720000Y-34300000D03*
D23*
X124240000Y-26500000D03*
X124239480Y-57500700D03*
X49240900Y-57500700D03*
X49240900Y-26500000D03*
D24*
X42730000Y-31750000D03*
D10*
X133330000Y-39560000D03*
D11*
X133330000Y-42100000D03*
X133330000Y-44640000D03*
X133330000Y-47180000D03*
D10*
X96040000Y-134416000D03*
D11*
X96040000Y-136956000D03*
X96040000Y-139496000D03*
X96040000Y-142036000D03*
X96040000Y-144576000D03*
D25*
X45932000Y-97200000D03*
X45952000Y-87010000D03*
D23*
X80390000Y-154660000D03*
X55390000Y-154660000D03*
X50640000Y-117660000D03*
X85140000Y-117660000D03*
D10*
X77650000Y-103970000D03*
D12*
X75110000Y-103970000D03*
X72580000Y-103960000D03*
X70020000Y-103940000D03*
X67480000Y-103940000D03*
X64960000Y-103970000D03*
X62420000Y-103960000D03*
X59880000Y-103960000D03*
D10*
X97060000Y-70490000D03*
D11*
X97060000Y-73030000D03*
D15*
X39640000Y-22860000D03*
D10*
X69160000Y-30940000D03*
D12*
X71700000Y-30940000D03*
X74230000Y-30940000D03*
X76780000Y-30940000D03*
X79320000Y-30935000D03*
X81860000Y-30910000D03*
X84410000Y-30910000D03*
X86940000Y-30910000D03*
X89485000Y-30910000D03*
X92010000Y-30910000D03*
X94560000Y-30910000D03*
X97085000Y-30910000D03*
X99610000Y-30910000D03*
X102135000Y-30910000D03*
X104660000Y-30910000D03*
X71675000Y-58915000D03*
X74205000Y-58915000D03*
X69135000Y-58915000D03*
X76755000Y-58915000D03*
X79295000Y-58910000D03*
X81835000Y-58885000D03*
X84385000Y-58885000D03*
X86915000Y-58885000D03*
X89460000Y-58885000D03*
X91985000Y-58885000D03*
X94535000Y-58885000D03*
X97060000Y-58885000D03*
X99585000Y-58885000D03*
X102110000Y-58885000D03*
X104635000Y-58885000D03*
D23*
X61520000Y-32210000D03*
X61520000Y-57710000D03*
X113370000Y-57710000D03*
X113370000Y-32160000D03*
D12*
X128120000Y-42090000D03*
X128120000Y-39550000D03*
D10*
X128120000Y-44630000D03*
X128120000Y-53830000D03*
D12*
X128120000Y-48750000D03*
X128120000Y-51290000D03*
D26*
X46740000Y-77040000D03*
X40740000Y-77040000D03*
X43740000Y-81740000D03*
D15*
X132880000Y-22860000D03*
D10*
X40930000Y-67460000D03*
D12*
X40930000Y-70000000D03*
M02*
