G04 #@! TF.GenerationSoftware,KiCad,Pcbnew,5.1.8-db9833491~88~ubuntu18.04.1*
G04 #@! TF.CreationDate,2020-12-10T12:47:45+05:30*
G04 #@! TF.ProjectId,Permitme_main _sub_V1,5065726d-6974-46d6-955f-6d61696e205f,rev?*
G04 #@! TF.SameCoordinates,Original*
G04 #@! TF.FileFunction,Paste,Bot*
G04 #@! TF.FilePolarity,Positive*
%FSLAX46Y46*%
G04 Gerber Fmt 4.6, Leading zero omitted, Abs format (unit mm)*
G04 Created by KiCad (PCBNEW 5.1.8-db9833491~88~ubuntu18.04.1) date 2020-12-10 12:47:45*
%MOMM*%
%LPD*%
G01*
G04 APERTURE LIST*
%ADD10R,2.000000X3.800000*%
%ADD11R,2.000000X1.500000*%
G04 APERTURE END LIST*
G36*
G01*
X117295000Y-42715000D02*
X117295000Y-41465000D01*
G75*
G02*
X117545000Y-41215000I250000J0D01*
G01*
X118295000Y-41215000D01*
G75*
G02*
X118545000Y-41465000I0J-250000D01*
G01*
X118545000Y-42715000D01*
G75*
G02*
X118295000Y-42965000I-250000J0D01*
G01*
X117545000Y-42965000D01*
G75*
G02*
X117295000Y-42715000I0J250000D01*
G01*
G37*
G36*
G01*
X120095000Y-42715000D02*
X120095000Y-41465000D01*
G75*
G02*
X120345000Y-41215000I250000J0D01*
G01*
X121095000Y-41215000D01*
G75*
G02*
X121345000Y-41465000I0J-250000D01*
G01*
X121345000Y-42715000D01*
G75*
G02*
X121095000Y-42965000I-250000J0D01*
G01*
X120345000Y-42965000D01*
G75*
G02*
X120095000Y-42715000I0J250000D01*
G01*
G37*
G36*
G01*
X94875000Y-76335000D02*
X94875000Y-77585000D01*
G75*
G02*
X94625000Y-77835000I-250000J0D01*
G01*
X93875000Y-77835000D01*
G75*
G02*
X93625000Y-77585000I0J250000D01*
G01*
X93625000Y-76335000D01*
G75*
G02*
X93875000Y-76085000I250000J0D01*
G01*
X94625000Y-76085000D01*
G75*
G02*
X94875000Y-76335000I0J-250000D01*
G01*
G37*
G36*
G01*
X97675000Y-76335000D02*
X97675000Y-77585000D01*
G75*
G02*
X97425000Y-77835000I-250000J0D01*
G01*
X96675000Y-77835000D01*
G75*
G02*
X96425000Y-77585000I0J250000D01*
G01*
X96425000Y-76335000D01*
G75*
G02*
X96675000Y-76085000I250000J0D01*
G01*
X97425000Y-76085000D01*
G75*
G02*
X97675000Y-76335000I0J-250000D01*
G01*
G37*
G36*
G01*
X115615000Y-64965000D02*
X115615000Y-63715000D01*
G75*
G02*
X115865000Y-63465000I250000J0D01*
G01*
X116615000Y-63465000D01*
G75*
G02*
X116865000Y-63715000I0J-250000D01*
G01*
X116865000Y-64965000D01*
G75*
G02*
X116615000Y-65215000I-250000J0D01*
G01*
X115865000Y-65215000D01*
G75*
G02*
X115615000Y-64965000I0J250000D01*
G01*
G37*
G36*
G01*
X118415000Y-64965000D02*
X118415000Y-63715000D01*
G75*
G02*
X118665000Y-63465000I250000J0D01*
G01*
X119415000Y-63465000D01*
G75*
G02*
X119665000Y-63715000I0J-250000D01*
G01*
X119665000Y-64965000D01*
G75*
G02*
X119415000Y-65215000I-250000J0D01*
G01*
X118665000Y-65215000D01*
G75*
G02*
X118415000Y-64965000I0J250000D01*
G01*
G37*
G36*
G01*
X55495000Y-51405000D02*
X55495000Y-50155000D01*
G75*
G02*
X55745000Y-49905000I250000J0D01*
G01*
X56495000Y-49905000D01*
G75*
G02*
X56745000Y-50155000I0J-250000D01*
G01*
X56745000Y-51405000D01*
G75*
G02*
X56495000Y-51655000I-250000J0D01*
G01*
X55745000Y-51655000D01*
G75*
G02*
X55495000Y-51405000I0J250000D01*
G01*
G37*
G36*
G01*
X52695000Y-51405000D02*
X52695000Y-50155000D01*
G75*
G02*
X52945000Y-49905000I250000J0D01*
G01*
X53695000Y-49905000D01*
G75*
G02*
X53945000Y-50155000I0J-250000D01*
G01*
X53945000Y-51405000D01*
G75*
G02*
X53695000Y-51655000I-250000J0D01*
G01*
X52945000Y-51655000D01*
G75*
G02*
X52695000Y-51405000I0J250000D01*
G01*
G37*
G36*
G01*
X107035000Y-71115000D02*
X107035000Y-69865000D01*
G75*
G02*
X107285000Y-69615000I250000J0D01*
G01*
X108035000Y-69615000D01*
G75*
G02*
X108285000Y-69865000I0J-250000D01*
G01*
X108285000Y-71115000D01*
G75*
G02*
X108035000Y-71365000I-250000J0D01*
G01*
X107285000Y-71365000D01*
G75*
G02*
X107035000Y-71115000I0J250000D01*
G01*
G37*
G36*
G01*
X104235000Y-71115000D02*
X104235000Y-69865000D01*
G75*
G02*
X104485000Y-69615000I250000J0D01*
G01*
X105235000Y-69615000D01*
G75*
G02*
X105485000Y-69865000I0J-250000D01*
G01*
X105485000Y-71115000D01*
G75*
G02*
X105235000Y-71365000I-250000J0D01*
G01*
X104485000Y-71365000D01*
G75*
G02*
X104235000Y-71115000I0J250000D01*
G01*
G37*
D10*
X54760000Y-92180000D03*
D11*
X48460000Y-92180000D03*
X48460000Y-89880000D03*
X48460000Y-94480000D03*
G36*
G01*
X56185000Y-67885000D02*
X56185000Y-69135000D01*
G75*
G02*
X55935000Y-69385000I-250000J0D01*
G01*
X55185000Y-69385000D01*
G75*
G02*
X54935000Y-69135000I0J250000D01*
G01*
X54935000Y-67885000D01*
G75*
G02*
X55185000Y-67635000I250000J0D01*
G01*
X55935000Y-67635000D01*
G75*
G02*
X56185000Y-67885000I0J-250000D01*
G01*
G37*
G36*
G01*
X58985000Y-67885000D02*
X58985000Y-69135000D01*
G75*
G02*
X58735000Y-69385000I-250000J0D01*
G01*
X57985000Y-69385000D01*
G75*
G02*
X57735000Y-69135000I0J250000D01*
G01*
X57735000Y-67885000D01*
G75*
G02*
X57985000Y-67635000I250000J0D01*
G01*
X58735000Y-67635000D01*
G75*
G02*
X58985000Y-67885000I0J-250000D01*
G01*
G37*
G36*
G01*
X117215000Y-49915000D02*
X117215000Y-48665000D01*
G75*
G02*
X117465000Y-48415000I250000J0D01*
G01*
X118215000Y-48415000D01*
G75*
G02*
X118465000Y-48665000I0J-250000D01*
G01*
X118465000Y-49915000D01*
G75*
G02*
X118215000Y-50165000I-250000J0D01*
G01*
X117465000Y-50165000D01*
G75*
G02*
X117215000Y-49915000I0J250000D01*
G01*
G37*
G36*
G01*
X120015000Y-49915000D02*
X120015000Y-48665000D01*
G75*
G02*
X120265000Y-48415000I250000J0D01*
G01*
X121015000Y-48415000D01*
G75*
G02*
X121265000Y-48665000I0J-250000D01*
G01*
X121265000Y-49915000D01*
G75*
G02*
X121015000Y-50165000I-250000J0D01*
G01*
X120265000Y-50165000D01*
G75*
G02*
X120015000Y-49915000I0J250000D01*
G01*
G37*
G36*
G01*
X41555000Y-65495000D02*
X40305000Y-65495000D01*
G75*
G02*
X40055000Y-65245000I0J250000D01*
G01*
X40055000Y-64495000D01*
G75*
G02*
X40305000Y-64245000I250000J0D01*
G01*
X41555000Y-64245000D01*
G75*
G02*
X41805000Y-64495000I0J-250000D01*
G01*
X41805000Y-65245000D01*
G75*
G02*
X41555000Y-65495000I-250000J0D01*
G01*
G37*
G36*
G01*
X41555000Y-62695000D02*
X40305000Y-62695000D01*
G75*
G02*
X40055000Y-62445000I0J250000D01*
G01*
X40055000Y-61695000D01*
G75*
G02*
X40305000Y-61445000I250000J0D01*
G01*
X41555000Y-61445000D01*
G75*
G02*
X41805000Y-61695000I0J-250000D01*
G01*
X41805000Y-62445000D01*
G75*
G02*
X41555000Y-62695000I-250000J0D01*
G01*
G37*
G36*
G01*
X120055000Y-35505000D02*
X120055000Y-34255000D01*
G75*
G02*
X120305000Y-34005000I250000J0D01*
G01*
X121055000Y-34005000D01*
G75*
G02*
X121305000Y-34255000I0J-250000D01*
G01*
X121305000Y-35505000D01*
G75*
G02*
X121055000Y-35755000I-250000J0D01*
G01*
X120305000Y-35755000D01*
G75*
G02*
X120055000Y-35505000I0J250000D01*
G01*
G37*
G36*
G01*
X117255000Y-35505000D02*
X117255000Y-34255000D01*
G75*
G02*
X117505000Y-34005000I250000J0D01*
G01*
X118255000Y-34005000D01*
G75*
G02*
X118505000Y-34255000I0J-250000D01*
G01*
X118505000Y-35505000D01*
G75*
G02*
X118255000Y-35755000I-250000J0D01*
G01*
X117505000Y-35755000D01*
G75*
G02*
X117255000Y-35505000I0J250000D01*
G01*
G37*
M02*
