M48
; DRILL file {KiCad 5.1.8-db9833491~88~ubuntu18.04.1} date Thu Dec 10 12:47:43 2020
; FORMAT={-:-/ absolute / inch / decimal}
; #@! TF.CreationDate,2020-12-10T12:47:43+05:30
; #@! TF.GenerationSoftware,Kicad,Pcbnew,5.1.8-db9833491~88~ubuntu18.04.1
; #@! TF.FileFunction,Plated,1,2,PTH
FMAT,2
INCH
T1C0.0315
T2C0.0354
T3C0.0394
T4C0.0472
T5C0.0984
T6C0.1181
%
G90
G05
T1
X1.5413Y-4.1146
X1.6791Y-4.1146
X1.5445Y-2.2039
X1.6823Y-2.2039
T2
X4.8063Y-2.6874
X4.9063Y-2.6874
T3
X3.8213Y-2.7752
X3.8213Y-2.8752
X1.6354Y-5.5734
X1.6354Y-5.6825
X1.6354Y-5.7915
X1.6354Y-5.9006
X1.7472Y-5.5189
X1.7472Y-5.628
X1.7472Y-5.737
X1.7472Y-5.8461
X1.7472Y-5.9551
X2.0209Y-3.5287
X2.0209Y-3.6287
X2.0209Y-3.7287
X3.7811Y-5.292
X3.7811Y-5.392
X3.7811Y-5.492
X3.7811Y-5.592
X3.7811Y-5.692
X2.7219Y-2.3195
X2.7228Y-1.2181
X2.8219Y-2.3195
X2.8228Y-1.2181
X2.9215Y-2.3195
X2.9224Y-1.2181
X3.0219Y-2.3195
X3.0228Y-1.2181
X3.1219Y-2.3193
X3.1228Y-1.2179
X3.2219Y-2.3183
X3.2228Y-1.2169
X3.3222Y-2.3183
X3.3232Y-1.2169
X3.4219Y-2.3183
X3.4228Y-1.2169
X3.522Y-2.3183
X3.523Y-1.2169
X3.6215Y-2.3183
X3.6224Y-1.2169
X3.7219Y-2.3183
X3.7228Y-1.2169
X3.8213Y-2.3183
X3.8222Y-1.2169
X3.9207Y-2.3183
X3.9217Y-1.2169
X4.0201Y-2.3183
X4.0211Y-1.2169
X4.1195Y-2.3183
X4.1205Y-1.2169
X1.6516Y-4.4906
X1.6516Y-4.5732
X1.6516Y-4.6756
X1.6516Y-4.7583
X1.7618Y-4.4906
X1.7618Y-4.7583
X1.6114Y-2.6559
X1.6114Y-2.7559
X5.0445Y-1.1917
X5.0445Y-1.2917
X5.0445Y-1.3917
X3.637Y-2.9295
X3.637Y-3.0295
X3.637Y-3.1295
X1.885Y-2.6972
X1.985Y-2.6972
X5.0441Y-1.5571
X5.0441Y-1.6571
X5.0441Y-1.7571
X3.9642Y-2.7752
X3.9642Y-2.8752
X5.2492Y-1.5575
X5.2492Y-1.6575
X5.2492Y-1.7575
X5.2492Y-1.8575
X2.3575Y-4.0929
X2.4575Y-4.0929
X2.5575Y-4.0933
X2.6567Y-4.0921
X2.7567Y-4.0921
X2.8575Y-4.0929
X2.9571Y-4.0933
X3.0571Y-4.0933
X3.2488Y-2.698
X3.548Y-2.698
X5.0441Y-1.9193
X5.0441Y-2.0193
X5.0441Y-2.1193
T4
X1.6819Y-1.3504
X1.6819Y-1.4504
X1.6823Y-1.25
X1.6823Y-1.5504
T5
X1.8083Y-3.8268
X1.8091Y-3.4256
T6
X2.422Y-1.2681
X2.422Y-2.272
X4.4634Y-1.2661
X4.4634Y-2.272
X1.9937Y-4.6323
X2.1807Y-6.089
X3.165Y-6.089
X3.352Y-4.6323
X1.9386Y-1.0433
X1.9386Y-2.2638
X4.8913Y-2.2638
X4.8913Y-1.0433
X1.7354Y-5.2449
X1.7354Y-6.2291
T3
G00X1.5079Y-4.585
M15
G01X1.5079Y-4.6638
M16
G05
G00X1.5689Y-4.3547
M15
G01X1.5098Y-4.3547
M16
G05
G00X1.5689Y-4.8941
M15
G01X1.5098Y-4.8941
M16
G05
G00X1.6039Y-2.9937
M15
G01X1.6039Y-3.0724
M16
G05
G00X1.6827Y-3.2181
M15
G01X1.7614Y-3.2181
M16
G05
G00X1.8402Y-2.9937
M15
G01X1.8402Y-3.0724
M16
G05
T0
M30
