G04 #@! TF.GenerationSoftware,KiCad,Pcbnew,5.1.8-db9833491~88~ubuntu18.04.1*
G04 #@! TF.CreationDate,2020-12-10T12:47:45+05:30*
G04 #@! TF.ProjectId,Permitme_main _sub_V1,5065726d-6974-46d6-955f-6d61696e205f,rev?*
G04 #@! TF.SameCoordinates,Original*
G04 #@! TF.FileFunction,Legend,Bot*
G04 #@! TF.FilePolarity,Positive*
%FSLAX46Y46*%
G04 Gerber Fmt 4.6, Leading zero omitted, Abs format (unit mm)*
G04 Created by KiCad (PCBNEW 5.1.8-db9833491~88~ubuntu18.04.1) date 2020-12-10 12:47:45*
%MOMM*%
%LPD*%
G01*
G04 APERTURE LIST*
%ADD10C,0.120000*%
%ADD11C,0.150000*%
G04 APERTURE END LIST*
D10*
X118717936Y-43000000D02*
X119922064Y-43000000D01*
X118717936Y-41180000D02*
X119922064Y-41180000D01*
X126430000Y-34750000D02*
X126430000Y-30900000D01*
X127017736Y-30507617D02*
G75*
G03*
X126430000Y-30900000I1112264J-2302383D01*
G01*
X129228807Y-30453600D02*
G75*
G02*
X130730000Y-32810000I-1098807J-2356400D01*
G01*
X129228807Y-35166400D02*
G75*
G03*
X130730000Y-32810000I-1098807J2356400D01*
G01*
X127007955Y-35132631D02*
G75*
G02*
X126430000Y-34750000I1122045J2322631D01*
G01*
X96252064Y-77870000D02*
X95047936Y-77870000D01*
X96252064Y-76050000D02*
X95047936Y-76050000D01*
X117037936Y-65250000D02*
X118242064Y-65250000D01*
X117037936Y-63430000D02*
X118242064Y-63430000D01*
X54117936Y-49870000D02*
X55322064Y-49870000D01*
X54117936Y-51690000D02*
X55322064Y-51690000D01*
X105657936Y-69580000D02*
X106862064Y-69580000D01*
X105657936Y-71400000D02*
X106862064Y-71400000D01*
X53520000Y-88770000D02*
X53520000Y-90030000D01*
X53520000Y-95590000D02*
X53520000Y-94330000D01*
X49760000Y-88770000D02*
X53520000Y-88770000D01*
X47510000Y-95590000D02*
X53520000Y-95590000D01*
D11*
X116379999Y-48709999D02*
X115871999Y-48709999D01*
X67880000Y-29610000D02*
X67882000Y-32200000D01*
X67882000Y-32200000D02*
X105981998Y-32200000D01*
X105981998Y-32200000D02*
X105981998Y-29660000D01*
X115871999Y-41090001D02*
X116379999Y-41090001D01*
X116379999Y-41090001D02*
X116379999Y-48709999D01*
X58995000Y-58600000D02*
X58995000Y-31035000D01*
X60520000Y-29610000D02*
X114433126Y-29610001D01*
X115860000Y-58700000D02*
X115860000Y-31110000D01*
X60440000Y-60130000D02*
X114353126Y-60130001D01*
X105981998Y-60130000D02*
X105981998Y-57590000D01*
X67880000Y-57540000D02*
X67882000Y-60130000D01*
X67882000Y-57540000D02*
X105981998Y-57540000D01*
X60494999Y-29608126D02*
G75*
G03*
X58995000Y-31035000I1J-1501874D01*
G01*
X115860000Y-31110000D02*
G75*
G03*
X114433126Y-29610001I-1501874J-1D01*
G01*
X58993126Y-58630001D02*
G75*
G03*
X60420000Y-60130000I1501874J1D01*
G01*
X114353126Y-60130001D02*
G75*
G03*
X115853125Y-58703127I-1J1501874D01*
G01*
D10*
X126420000Y-44030000D02*
X126420000Y-40180000D01*
X126997955Y-44412631D02*
G75*
G02*
X126420000Y-44030000I1122045J2322631D01*
G01*
X129218807Y-44446400D02*
G75*
G03*
X130720000Y-42090000I-1098807J2356400D01*
G01*
X129218807Y-39733600D02*
G75*
G02*
X130720000Y-42090000I-1098807J-2356400D01*
G01*
X127007736Y-39787617D02*
G75*
G03*
X126420000Y-40180000I1112264J-2302383D01*
G01*
X126420000Y-53230000D02*
X126420000Y-49380000D01*
X127007736Y-48987617D02*
G75*
G03*
X126420000Y-49380000I1112264J-2302383D01*
G01*
X129218807Y-48933600D02*
G75*
G02*
X130720000Y-51290000I-1098807J-2356400D01*
G01*
X129218807Y-53646400D02*
G75*
G03*
X130720000Y-51290000I-1098807J2356400D01*
G01*
X126997955Y-53612631D02*
G75*
G02*
X126420000Y-53230000I1122045J2322631D01*
G01*
X57562064Y-69420000D02*
X56357936Y-69420000D01*
X57562064Y-67600000D02*
X56357936Y-67600000D01*
X118637936Y-50200000D02*
X119842064Y-50200000D01*
X118637936Y-48380000D02*
X119842064Y-48380000D01*
X41840000Y-64072064D02*
X41840000Y-62867936D01*
X40020000Y-64072064D02*
X40020000Y-62867936D01*
X118677936Y-33970000D02*
X119882064Y-33970000D01*
X118677936Y-35790000D02*
X119882064Y-35790000D01*
D11*
X119962857Y-44362380D02*
X120296190Y-43886190D01*
X120534285Y-44362380D02*
X120534285Y-43362380D01*
X120153333Y-43362380D01*
X120058095Y-43410000D01*
X120010476Y-43457619D01*
X119962857Y-43552857D01*
X119962857Y-43695714D01*
X120010476Y-43790952D01*
X120058095Y-43838571D01*
X120153333Y-43886190D01*
X120534285Y-43886190D01*
X119010476Y-44362380D02*
X119581904Y-44362380D01*
X119296190Y-44362380D02*
X119296190Y-43362380D01*
X119391428Y-43505238D01*
X119486666Y-43600476D01*
X119581904Y-43648095D01*
X118153333Y-43695714D02*
X118153333Y-44362380D01*
X118391428Y-43314761D02*
X118629523Y-44029047D01*
X118010476Y-44029047D01*
X132237619Y-32714761D02*
X132190000Y-32619523D01*
X132094761Y-32524285D01*
X131951904Y-32381428D01*
X131904285Y-32286190D01*
X131904285Y-32190952D01*
X132142380Y-32238571D02*
X132094761Y-32143333D01*
X131999523Y-32048095D01*
X131809047Y-32000476D01*
X131475714Y-32000476D01*
X131285238Y-32048095D01*
X131190000Y-32143333D01*
X131142380Y-32238571D01*
X131142380Y-32429047D01*
X131190000Y-32524285D01*
X131285238Y-32619523D01*
X131475714Y-32667142D01*
X131809047Y-32667142D01*
X131999523Y-32619523D01*
X132094761Y-32524285D01*
X132142380Y-32429047D01*
X132142380Y-32238571D01*
X131475714Y-33524285D02*
X132142380Y-33524285D01*
X131094761Y-33286190D02*
X131809047Y-33048095D01*
X131809047Y-33667142D01*
X96292857Y-75592380D02*
X96626190Y-75116190D01*
X96864285Y-75592380D02*
X96864285Y-74592380D01*
X96483333Y-74592380D01*
X96388095Y-74640000D01*
X96340476Y-74687619D01*
X96292857Y-74782857D01*
X96292857Y-74925714D01*
X96340476Y-75020952D01*
X96388095Y-75068571D01*
X96483333Y-75116190D01*
X96864285Y-75116190D01*
X95340476Y-75592380D02*
X95911904Y-75592380D01*
X95626190Y-75592380D02*
X95626190Y-74592380D01*
X95721428Y-74735238D01*
X95816666Y-74830476D01*
X95911904Y-74878095D01*
X94959523Y-74687619D02*
X94911904Y-74640000D01*
X94816666Y-74592380D01*
X94578571Y-74592380D01*
X94483333Y-74640000D01*
X94435714Y-74687619D01*
X94388095Y-74782857D01*
X94388095Y-74878095D01*
X94435714Y-75020952D01*
X95007142Y-75592380D01*
X94388095Y-75592380D01*
X117806666Y-66612380D02*
X118140000Y-66136190D01*
X118378095Y-66612380D02*
X118378095Y-65612380D01*
X117997142Y-65612380D01*
X117901904Y-65660000D01*
X117854285Y-65707619D01*
X117806666Y-65802857D01*
X117806666Y-65945714D01*
X117854285Y-66040952D01*
X117901904Y-66088571D01*
X117997142Y-66136190D01*
X118378095Y-66136190D01*
X117473333Y-65612380D02*
X116806666Y-65612380D01*
X117235238Y-66612380D01*
X54886666Y-53052380D02*
X55220000Y-52576190D01*
X55458095Y-53052380D02*
X55458095Y-52052380D01*
X55077142Y-52052380D01*
X54981904Y-52100000D01*
X54934285Y-52147619D01*
X54886666Y-52242857D01*
X54886666Y-52385714D01*
X54934285Y-52480952D01*
X54981904Y-52528571D01*
X55077142Y-52576190D01*
X55458095Y-52576190D01*
X54553333Y-52052380D02*
X53934285Y-52052380D01*
X54267619Y-52433333D01*
X54124761Y-52433333D01*
X54029523Y-52480952D01*
X53981904Y-52528571D01*
X53934285Y-52623809D01*
X53934285Y-52861904D01*
X53981904Y-52957142D01*
X54029523Y-53004761D01*
X54124761Y-53052380D01*
X54410476Y-53052380D01*
X54505714Y-53004761D01*
X54553333Y-52957142D01*
X106426666Y-72762380D02*
X106760000Y-72286190D01*
X106998095Y-72762380D02*
X106998095Y-71762380D01*
X106617142Y-71762380D01*
X106521904Y-71810000D01*
X106474285Y-71857619D01*
X106426666Y-71952857D01*
X106426666Y-72095714D01*
X106474285Y-72190952D01*
X106521904Y-72238571D01*
X106617142Y-72286190D01*
X106998095Y-72286190D01*
X105950476Y-72762380D02*
X105760000Y-72762380D01*
X105664761Y-72714761D01*
X105617142Y-72667142D01*
X105521904Y-72524285D01*
X105474285Y-72333809D01*
X105474285Y-71952857D01*
X105521904Y-71857619D01*
X105569523Y-71810000D01*
X105664761Y-71762380D01*
X105855238Y-71762380D01*
X105950476Y-71810000D01*
X105998095Y-71857619D01*
X106045714Y-71952857D01*
X106045714Y-72190952D01*
X105998095Y-72286190D01*
X105950476Y-72333809D01*
X105855238Y-72381428D01*
X105664761Y-72381428D01*
X105569523Y-72333809D01*
X105521904Y-72286190D01*
X105474285Y-72190952D01*
X58571904Y-91462380D02*
X58571904Y-92271904D01*
X58524285Y-92367142D01*
X58476666Y-92414761D01*
X58381428Y-92462380D01*
X58190952Y-92462380D01*
X58095714Y-92414761D01*
X58048095Y-92367142D01*
X58000476Y-92271904D01*
X58000476Y-91462380D01*
X57619523Y-91462380D02*
X57000476Y-91462380D01*
X57333809Y-91843333D01*
X57190952Y-91843333D01*
X57095714Y-91890952D01*
X57048095Y-91938571D01*
X57000476Y-92033809D01*
X57000476Y-92271904D01*
X57048095Y-92367142D01*
X57095714Y-92414761D01*
X57190952Y-92462380D01*
X57476666Y-92462380D01*
X57571904Y-92414761D01*
X57619523Y-92367142D01*
X116602380Y-45496666D02*
X117316666Y-45496666D01*
X117459523Y-45449047D01*
X117554761Y-45353809D01*
X117602380Y-45210952D01*
X117602380Y-45115714D01*
X116697619Y-45925238D02*
X116650000Y-45972857D01*
X116602380Y-46068095D01*
X116602380Y-46306190D01*
X116650000Y-46401428D01*
X116697619Y-46449047D01*
X116792857Y-46496666D01*
X116888095Y-46496666D01*
X117030952Y-46449047D01*
X117602380Y-45877619D01*
X117602380Y-46496666D01*
X132227619Y-41994761D02*
X132180000Y-41899523D01*
X132084761Y-41804285D01*
X131941904Y-41661428D01*
X131894285Y-41566190D01*
X131894285Y-41470952D01*
X132132380Y-41518571D02*
X132084761Y-41423333D01*
X131989523Y-41328095D01*
X131799047Y-41280476D01*
X131465714Y-41280476D01*
X131275238Y-41328095D01*
X131180000Y-41423333D01*
X131132380Y-41518571D01*
X131132380Y-41709047D01*
X131180000Y-41804285D01*
X131275238Y-41899523D01*
X131465714Y-41947142D01*
X131799047Y-41947142D01*
X131989523Y-41899523D01*
X132084761Y-41804285D01*
X132132380Y-41709047D01*
X132132380Y-41518571D01*
X131132380Y-42280476D02*
X131132380Y-42899523D01*
X131513333Y-42566190D01*
X131513333Y-42709047D01*
X131560952Y-42804285D01*
X131608571Y-42851904D01*
X131703809Y-42899523D01*
X131941904Y-42899523D01*
X132037142Y-42851904D01*
X132084761Y-42804285D01*
X132132380Y-42709047D01*
X132132380Y-42423333D01*
X132084761Y-42328095D01*
X132037142Y-42280476D01*
X132227619Y-51194761D02*
X132180000Y-51099523D01*
X132084761Y-51004285D01*
X131941904Y-50861428D01*
X131894285Y-50766190D01*
X131894285Y-50670952D01*
X132132380Y-50718571D02*
X132084761Y-50623333D01*
X131989523Y-50528095D01*
X131799047Y-50480476D01*
X131465714Y-50480476D01*
X131275238Y-50528095D01*
X131180000Y-50623333D01*
X131132380Y-50718571D01*
X131132380Y-50909047D01*
X131180000Y-51004285D01*
X131275238Y-51099523D01*
X131465714Y-51147142D01*
X131799047Y-51147142D01*
X131989523Y-51099523D01*
X132084761Y-51004285D01*
X132132380Y-50909047D01*
X132132380Y-50718571D01*
X131227619Y-51528095D02*
X131180000Y-51575714D01*
X131132380Y-51670952D01*
X131132380Y-51909047D01*
X131180000Y-52004285D01*
X131227619Y-52051904D01*
X131322857Y-52099523D01*
X131418095Y-52099523D01*
X131560952Y-52051904D01*
X132132380Y-51480476D01*
X132132380Y-52099523D01*
X57126666Y-67142380D02*
X57460000Y-66666190D01*
X57698095Y-67142380D02*
X57698095Y-66142380D01*
X57317142Y-66142380D01*
X57221904Y-66190000D01*
X57174285Y-66237619D01*
X57126666Y-66332857D01*
X57126666Y-66475714D01*
X57174285Y-66570952D01*
X57221904Y-66618571D01*
X57317142Y-66666190D01*
X57698095Y-66666190D01*
X56221904Y-66142380D02*
X56698095Y-66142380D01*
X56745714Y-66618571D01*
X56698095Y-66570952D01*
X56602857Y-66523333D01*
X56364761Y-66523333D01*
X56269523Y-66570952D01*
X56221904Y-66618571D01*
X56174285Y-66713809D01*
X56174285Y-66951904D01*
X56221904Y-67047142D01*
X56269523Y-67094761D01*
X56364761Y-67142380D01*
X56602857Y-67142380D01*
X56698095Y-67094761D01*
X56745714Y-67047142D01*
X119882857Y-51562380D02*
X120216190Y-51086190D01*
X120454285Y-51562380D02*
X120454285Y-50562380D01*
X120073333Y-50562380D01*
X119978095Y-50610000D01*
X119930476Y-50657619D01*
X119882857Y-50752857D01*
X119882857Y-50895714D01*
X119930476Y-50990952D01*
X119978095Y-51038571D01*
X120073333Y-51086190D01*
X120454285Y-51086190D01*
X118930476Y-51562380D02*
X119501904Y-51562380D01*
X119216190Y-51562380D02*
X119216190Y-50562380D01*
X119311428Y-50705238D01*
X119406666Y-50800476D01*
X119501904Y-50848095D01*
X118597142Y-50562380D02*
X117978095Y-50562380D01*
X118311428Y-50943333D01*
X118168571Y-50943333D01*
X118073333Y-50990952D01*
X118025714Y-51038571D01*
X117978095Y-51133809D01*
X117978095Y-51371904D01*
X118025714Y-51467142D01*
X118073333Y-51514761D01*
X118168571Y-51562380D01*
X118454285Y-51562380D01*
X118549523Y-51514761D01*
X118597142Y-51467142D01*
X42916666Y-63922380D02*
X43250000Y-63446190D01*
X43488095Y-63922380D02*
X43488095Y-62922380D01*
X43107142Y-62922380D01*
X43011904Y-62970000D01*
X42964285Y-63017619D01*
X42916666Y-63112857D01*
X42916666Y-63255714D01*
X42964285Y-63350952D01*
X43011904Y-63398571D01*
X43107142Y-63446190D01*
X43488095Y-63446190D01*
X42059523Y-63255714D02*
X42059523Y-63922380D01*
X42297619Y-62874761D02*
X42535714Y-63589047D01*
X41916666Y-63589047D01*
X119922857Y-37152380D02*
X120256190Y-36676190D01*
X120494285Y-37152380D02*
X120494285Y-36152380D01*
X120113333Y-36152380D01*
X120018095Y-36200000D01*
X119970476Y-36247619D01*
X119922857Y-36342857D01*
X119922857Y-36485714D01*
X119970476Y-36580952D01*
X120018095Y-36628571D01*
X120113333Y-36676190D01*
X120494285Y-36676190D01*
X118970476Y-37152380D02*
X119541904Y-37152380D01*
X119256190Y-37152380D02*
X119256190Y-36152380D01*
X119351428Y-36295238D01*
X119446666Y-36390476D01*
X119541904Y-36438095D01*
X118065714Y-36152380D02*
X118541904Y-36152380D01*
X118589523Y-36628571D01*
X118541904Y-36580952D01*
X118446666Y-36533333D01*
X118208571Y-36533333D01*
X118113333Y-36580952D01*
X118065714Y-36628571D01*
X118018095Y-36723809D01*
X118018095Y-36961904D01*
X118065714Y-37057142D01*
X118113333Y-37104761D01*
X118208571Y-37152380D01*
X118446666Y-37152380D01*
X118541904Y-37104761D01*
X118589523Y-37057142D01*
M02*
