G04 #@! TF.GenerationSoftware,KiCad,Pcbnew,5.1.8-db9833491~88~ubuntu18.04.1*
G04 #@! TF.CreationDate,2020-12-10T12:47:45+05:30*
G04 #@! TF.ProjectId,Permitme_main _sub_V1,5065726d-6974-46d6-955f-6d61696e205f,rev?*
G04 #@! TF.SameCoordinates,Original*
G04 #@! TF.FileFunction,Legend,Top*
G04 #@! TF.FilePolarity,Positive*
%FSLAX46Y46*%
G04 Gerber Fmt 4.6, Leading zero omitted, Abs format (unit mm)*
G04 Created by KiCad (PCBNEW 5.1.8-db9833491~88~ubuntu18.04.1) date 2020-12-10 12:47:45*
%MOMM*%
%LPD*%
G01*
G04 APERTURE LIST*
%ADD10C,0.100000*%
%ADD11C,0.120000*%
%ADD12C,0.200000*%
%ADD13C,0.150000*%
G04 APERTURE END LIST*
D10*
X136260000Y-161150000D02*
X136260000Y-81150000D01*
X88260000Y-161150000D02*
X136260000Y-161150000D01*
X136260000Y-81150000D02*
X88260000Y-81150000D01*
X88260000Y-81150000D02*
X88260000Y-161150000D01*
D11*
X48710000Y-90319000D02*
X50220000Y-90319000D01*
X48710000Y-94020000D02*
X50220000Y-94020000D01*
X50220000Y-97290000D02*
X50220000Y-87050000D01*
X48710000Y-87050000D02*
X53351000Y-87050000D01*
X48710000Y-97290000D02*
X53351000Y-97290000D01*
X53351000Y-97290000D02*
X53351000Y-87050000D01*
X48710000Y-97290000D02*
X48710000Y-87050000D01*
X46590000Y-66965000D02*
X46590000Y-70055000D01*
X51650000Y-68510000D02*
G75*
G03*
X51650000Y-68510000I-2500000J0D01*
G01*
X52140000Y-68509538D02*
G75*
G02*
X46590000Y-70054830I-2990000J-462D01*
G01*
X52140000Y-68510462D02*
G75*
G03*
X46590000Y-66965170I-2990000J462D01*
G01*
X125850000Y-68260000D02*
G75*
G03*
X125850000Y-68260000I-2500000J0D01*
G01*
X120790000Y-66715000D02*
X120790000Y-69805000D01*
X126340000Y-68260462D02*
G75*
G03*
X120790000Y-66715170I-2990000J462D01*
G01*
X126340000Y-68259538D02*
G75*
G02*
X120790000Y-69804830I-2990000J-462D01*
G01*
X92420000Y-68530000D02*
G75*
G03*
X92420000Y-68530000I-6100000J0D01*
G01*
X90680000Y-75010000D02*
X90680000Y-78860000D01*
X91257955Y-74627369D02*
G75*
G03*
X90680000Y-75010000I1122045J-2322631D01*
G01*
X93478807Y-74593600D02*
G75*
G02*
X94980000Y-76950000I-1098807J-2356400D01*
G01*
X93478807Y-79306400D02*
G75*
G03*
X94980000Y-76950000I-1098807J2356400D01*
G01*
X91267736Y-79252383D02*
G75*
G02*
X90680000Y-78860000I1112264J2302383D01*
G01*
X46350000Y-125560000D02*
X33350000Y-125560000D01*
X46350000Y-109360000D02*
X33350000Y-109360000D01*
X46350000Y-109360000D02*
X46350000Y-125560000D01*
X33350000Y-109360000D02*
X33350000Y-125560000D01*
X45020000Y-104510000D02*
G75*
G03*
X45020000Y-104510000I-4120000J0D01*
G01*
X40900000Y-108590000D02*
X40900000Y-100430000D01*
X40860000Y-108590000D02*
X40860000Y-100430000D01*
X40820000Y-108590000D02*
X40820000Y-100430000D01*
X40780000Y-108589000D02*
X40780000Y-100431000D01*
X40740000Y-108587000D02*
X40740000Y-100433000D01*
X40700000Y-108586000D02*
X40700000Y-100434000D01*
X40660000Y-108584000D02*
X40660000Y-100436000D01*
X40620000Y-108581000D02*
X40620000Y-100439000D01*
X40580000Y-108578000D02*
X40580000Y-100442000D01*
X40540000Y-108575000D02*
X40540000Y-100445000D01*
X40500000Y-108571000D02*
X40500000Y-100449000D01*
X40460000Y-108567000D02*
X40460000Y-100453000D01*
X40420000Y-108562000D02*
X40420000Y-100458000D01*
X40380000Y-108558000D02*
X40380000Y-100462000D01*
X40340000Y-108552000D02*
X40340000Y-100468000D01*
X40300000Y-108547000D02*
X40300000Y-100473000D01*
X40260000Y-108540000D02*
X40260000Y-100480000D01*
X40220000Y-108534000D02*
X40220000Y-100486000D01*
X40179000Y-108527000D02*
X40179000Y-105550000D01*
X40179000Y-103470000D02*
X40179000Y-100493000D01*
X40139000Y-108520000D02*
X40139000Y-105550000D01*
X40139000Y-103470000D02*
X40139000Y-100500000D01*
X40099000Y-108512000D02*
X40099000Y-105550000D01*
X40099000Y-103470000D02*
X40099000Y-100508000D01*
X40059000Y-108504000D02*
X40059000Y-105550000D01*
X40059000Y-103470000D02*
X40059000Y-100516000D01*
X40019000Y-108495000D02*
X40019000Y-105550000D01*
X40019000Y-103470000D02*
X40019000Y-100525000D01*
X39979000Y-108486000D02*
X39979000Y-105550000D01*
X39979000Y-103470000D02*
X39979000Y-100534000D01*
X39939000Y-108477000D02*
X39939000Y-105550000D01*
X39939000Y-103470000D02*
X39939000Y-100543000D01*
X39899000Y-108467000D02*
X39899000Y-105550000D01*
X39899000Y-103470000D02*
X39899000Y-100553000D01*
X39859000Y-108457000D02*
X39859000Y-105550000D01*
X39859000Y-103470000D02*
X39859000Y-100563000D01*
X39819000Y-108446000D02*
X39819000Y-105550000D01*
X39819000Y-103470000D02*
X39819000Y-100574000D01*
X39779000Y-108435000D02*
X39779000Y-105550000D01*
X39779000Y-103470000D02*
X39779000Y-100585000D01*
X39739000Y-108424000D02*
X39739000Y-105550000D01*
X39739000Y-103470000D02*
X39739000Y-100596000D01*
X39699000Y-108412000D02*
X39699000Y-105550000D01*
X39699000Y-103470000D02*
X39699000Y-100608000D01*
X39659000Y-108399000D02*
X39659000Y-105550000D01*
X39659000Y-103470000D02*
X39659000Y-100621000D01*
X39619000Y-108387000D02*
X39619000Y-105550000D01*
X39619000Y-103470000D02*
X39619000Y-100633000D01*
X39579000Y-108373000D02*
X39579000Y-105550000D01*
X39579000Y-103470000D02*
X39579000Y-100647000D01*
X39539000Y-108360000D02*
X39539000Y-105550000D01*
X39539000Y-103470000D02*
X39539000Y-100660000D01*
X39499000Y-108345000D02*
X39499000Y-105550000D01*
X39499000Y-103470000D02*
X39499000Y-100675000D01*
X39459000Y-108331000D02*
X39459000Y-105550000D01*
X39459000Y-103470000D02*
X39459000Y-100689000D01*
X39419000Y-108315000D02*
X39419000Y-105550000D01*
X39419000Y-103470000D02*
X39419000Y-100705000D01*
X39379000Y-108300000D02*
X39379000Y-105550000D01*
X39379000Y-103470000D02*
X39379000Y-100720000D01*
X39339000Y-108284000D02*
X39339000Y-105550000D01*
X39339000Y-103470000D02*
X39339000Y-100736000D01*
X39299000Y-108267000D02*
X39299000Y-105550000D01*
X39299000Y-103470000D02*
X39299000Y-100753000D01*
X39259000Y-108250000D02*
X39259000Y-105550000D01*
X39259000Y-103470000D02*
X39259000Y-100770000D01*
X39219000Y-108232000D02*
X39219000Y-105550000D01*
X39219000Y-103470000D02*
X39219000Y-100788000D01*
X39179000Y-108214000D02*
X39179000Y-105550000D01*
X39179000Y-103470000D02*
X39179000Y-100806000D01*
X39139000Y-108196000D02*
X39139000Y-105550000D01*
X39139000Y-103470000D02*
X39139000Y-100824000D01*
X39099000Y-108176000D02*
X39099000Y-105550000D01*
X39099000Y-103470000D02*
X39099000Y-100844000D01*
X39059000Y-108157000D02*
X39059000Y-105550000D01*
X39059000Y-103470000D02*
X39059000Y-100863000D01*
X39019000Y-108137000D02*
X39019000Y-105550000D01*
X39019000Y-103470000D02*
X39019000Y-100883000D01*
X38979000Y-108116000D02*
X38979000Y-105550000D01*
X38979000Y-103470000D02*
X38979000Y-100904000D01*
X38939000Y-108094000D02*
X38939000Y-105550000D01*
X38939000Y-103470000D02*
X38939000Y-100926000D01*
X38899000Y-108072000D02*
X38899000Y-105550000D01*
X38899000Y-103470000D02*
X38899000Y-100948000D01*
X38859000Y-108050000D02*
X38859000Y-105550000D01*
X38859000Y-103470000D02*
X38859000Y-100970000D01*
X38819000Y-108027000D02*
X38819000Y-105550000D01*
X38819000Y-103470000D02*
X38819000Y-100993000D01*
X38779000Y-108003000D02*
X38779000Y-105550000D01*
X38779000Y-103470000D02*
X38779000Y-101017000D01*
X38739000Y-107979000D02*
X38739000Y-105550000D01*
X38739000Y-103470000D02*
X38739000Y-101041000D01*
X38699000Y-107954000D02*
X38699000Y-105550000D01*
X38699000Y-103470000D02*
X38699000Y-101066000D01*
X38659000Y-107928000D02*
X38659000Y-105550000D01*
X38659000Y-103470000D02*
X38659000Y-101092000D01*
X38619000Y-107902000D02*
X38619000Y-105550000D01*
X38619000Y-103470000D02*
X38619000Y-101118000D01*
X38579000Y-107875000D02*
X38579000Y-105550000D01*
X38579000Y-103470000D02*
X38579000Y-101145000D01*
X38539000Y-107848000D02*
X38539000Y-105550000D01*
X38539000Y-103470000D02*
X38539000Y-101172000D01*
X38499000Y-107819000D02*
X38499000Y-105550000D01*
X38499000Y-103470000D02*
X38499000Y-101201000D01*
X38459000Y-107790000D02*
X38459000Y-105550000D01*
X38459000Y-103470000D02*
X38459000Y-101230000D01*
X38419000Y-107760000D02*
X38419000Y-105550000D01*
X38419000Y-103470000D02*
X38419000Y-101260000D01*
X38379000Y-107730000D02*
X38379000Y-105550000D01*
X38379000Y-103470000D02*
X38379000Y-101290000D01*
X38339000Y-107699000D02*
X38339000Y-105550000D01*
X38339000Y-103470000D02*
X38339000Y-101321000D01*
X38299000Y-107666000D02*
X38299000Y-105550000D01*
X38299000Y-103470000D02*
X38299000Y-101354000D01*
X38259000Y-107634000D02*
X38259000Y-105550000D01*
X38259000Y-103470000D02*
X38259000Y-101386000D01*
X38219000Y-107600000D02*
X38219000Y-105550000D01*
X38219000Y-103470000D02*
X38219000Y-101420000D01*
X38179000Y-107565000D02*
X38179000Y-105550000D01*
X38179000Y-103470000D02*
X38179000Y-101455000D01*
X38139000Y-107529000D02*
X38139000Y-105550000D01*
X38139000Y-103470000D02*
X38139000Y-101491000D01*
X38099000Y-107493000D02*
X38099000Y-101527000D01*
X38059000Y-107455000D02*
X38059000Y-101565000D01*
X38019000Y-107417000D02*
X38019000Y-101603000D01*
X37979000Y-107377000D02*
X37979000Y-101643000D01*
X37939000Y-107336000D02*
X37939000Y-101684000D01*
X37899000Y-107294000D02*
X37899000Y-101726000D01*
X37859000Y-107251000D02*
X37859000Y-101769000D01*
X37819000Y-107207000D02*
X37819000Y-101813000D01*
X37779000Y-107161000D02*
X37779000Y-101859000D01*
X37739000Y-107114000D02*
X37739000Y-101906000D01*
X37699000Y-107066000D02*
X37699000Y-101954000D01*
X37659000Y-107015000D02*
X37659000Y-102005000D01*
X37619000Y-106964000D02*
X37619000Y-102056000D01*
X37579000Y-106910000D02*
X37579000Y-102110000D01*
X37539000Y-106855000D02*
X37539000Y-102165000D01*
X37499000Y-106797000D02*
X37499000Y-102223000D01*
X37459000Y-106738000D02*
X37459000Y-102282000D01*
X37419000Y-106676000D02*
X37419000Y-102344000D01*
X37379000Y-106612000D02*
X37379000Y-102408000D01*
X37339000Y-106544000D02*
X37339000Y-102476000D01*
X37299000Y-106474000D02*
X37299000Y-102546000D01*
X37259000Y-106400000D02*
X37259000Y-102620000D01*
X37219000Y-106323000D02*
X37219000Y-102697000D01*
X37179000Y-106241000D02*
X37179000Y-102779000D01*
X37139000Y-106155000D02*
X37139000Y-102865000D01*
X37099000Y-106062000D02*
X37099000Y-102958000D01*
X37059000Y-105963000D02*
X37059000Y-103057000D01*
X37019000Y-105856000D02*
X37019000Y-103164000D01*
X36979000Y-105739000D02*
X36979000Y-103281000D01*
X36939000Y-105608000D02*
X36939000Y-103412000D01*
X36899000Y-105458000D02*
X36899000Y-103562000D01*
X36859000Y-105278000D02*
X36859000Y-103742000D01*
X36819000Y-105043000D02*
X36819000Y-103977000D01*
X45309698Y-106825000D02*
X44509698Y-106825000D01*
X44909698Y-107225000D02*
X44909698Y-106425000D01*
X36660000Y-130235000D02*
X47140000Y-130235000D01*
X47140000Y-130235000D02*
X47140000Y-161205000D01*
X47140000Y-161205000D02*
X36660000Y-161205000D01*
X48034338Y-151010000D02*
X48034338Y-151510000D01*
X48034338Y-151510000D02*
X47601325Y-151260000D01*
X47601325Y-151260000D02*
X48034338Y-151010000D01*
X99360000Y-69160000D02*
X100690000Y-69160000D01*
X99360000Y-70490000D02*
X99360000Y-69160000D01*
X99360000Y-71760000D02*
X102020000Y-71760000D01*
X102020000Y-71760000D02*
X102020000Y-74360000D01*
X99360000Y-71760000D02*
X99360000Y-74360000D01*
X99360000Y-74360000D02*
X102020000Y-74360000D01*
X36970302Y-53265000D02*
X36970302Y-54065000D01*
X36570302Y-53665000D02*
X37370302Y-53665000D01*
X45061000Y-55447000D02*
X45061000Y-56513000D01*
X45021000Y-55212000D02*
X45021000Y-56748000D01*
X44981000Y-55032000D02*
X44981000Y-56928000D01*
X44941000Y-54882000D02*
X44941000Y-57078000D01*
X44901000Y-54751000D02*
X44901000Y-57209000D01*
X44861000Y-54634000D02*
X44861000Y-57326000D01*
X44821000Y-54527000D02*
X44821000Y-57433000D01*
X44781000Y-54428000D02*
X44781000Y-57532000D01*
X44741000Y-54335000D02*
X44741000Y-57625000D01*
X44701000Y-54249000D02*
X44701000Y-57711000D01*
X44661000Y-54167000D02*
X44661000Y-57793000D01*
X44621000Y-54090000D02*
X44621000Y-57870000D01*
X44581000Y-54016000D02*
X44581000Y-57944000D01*
X44541000Y-53946000D02*
X44541000Y-58014000D01*
X44501000Y-53878000D02*
X44501000Y-58082000D01*
X44461000Y-53814000D02*
X44461000Y-58146000D01*
X44421000Y-53752000D02*
X44421000Y-58208000D01*
X44381000Y-53693000D02*
X44381000Y-58267000D01*
X44341000Y-53635000D02*
X44341000Y-58325000D01*
X44301000Y-53580000D02*
X44301000Y-58380000D01*
X44261000Y-53526000D02*
X44261000Y-58434000D01*
X44221000Y-53475000D02*
X44221000Y-58485000D01*
X44181000Y-53424000D02*
X44181000Y-58536000D01*
X44141000Y-53376000D02*
X44141000Y-58584000D01*
X44101000Y-53329000D02*
X44101000Y-58631000D01*
X44061000Y-53283000D02*
X44061000Y-58677000D01*
X44021000Y-53239000D02*
X44021000Y-58721000D01*
X43981000Y-53196000D02*
X43981000Y-58764000D01*
X43941000Y-53154000D02*
X43941000Y-58806000D01*
X43901000Y-53113000D02*
X43901000Y-58847000D01*
X43861000Y-53073000D02*
X43861000Y-58887000D01*
X43821000Y-53035000D02*
X43821000Y-58925000D01*
X43781000Y-52997000D02*
X43781000Y-58963000D01*
X43741000Y-57020000D02*
X43741000Y-58999000D01*
X43741000Y-52961000D02*
X43741000Y-54940000D01*
X43701000Y-57020000D02*
X43701000Y-59035000D01*
X43701000Y-52925000D02*
X43701000Y-54940000D01*
X43661000Y-57020000D02*
X43661000Y-59070000D01*
X43661000Y-52890000D02*
X43661000Y-54940000D01*
X43621000Y-57020000D02*
X43621000Y-59104000D01*
X43621000Y-52856000D02*
X43621000Y-54940000D01*
X43581000Y-57020000D02*
X43581000Y-59136000D01*
X43581000Y-52824000D02*
X43581000Y-54940000D01*
X43541000Y-57020000D02*
X43541000Y-59169000D01*
X43541000Y-52791000D02*
X43541000Y-54940000D01*
X43501000Y-57020000D02*
X43501000Y-59200000D01*
X43501000Y-52760000D02*
X43501000Y-54940000D01*
X43461000Y-57020000D02*
X43461000Y-59230000D01*
X43461000Y-52730000D02*
X43461000Y-54940000D01*
X43421000Y-57020000D02*
X43421000Y-59260000D01*
X43421000Y-52700000D02*
X43421000Y-54940000D01*
X43381000Y-57020000D02*
X43381000Y-59289000D01*
X43381000Y-52671000D02*
X43381000Y-54940000D01*
X43341000Y-57020000D02*
X43341000Y-59318000D01*
X43341000Y-52642000D02*
X43341000Y-54940000D01*
X43301000Y-57020000D02*
X43301000Y-59345000D01*
X43301000Y-52615000D02*
X43301000Y-54940000D01*
X43261000Y-57020000D02*
X43261000Y-59372000D01*
X43261000Y-52588000D02*
X43261000Y-54940000D01*
X43221000Y-57020000D02*
X43221000Y-59398000D01*
X43221000Y-52562000D02*
X43221000Y-54940000D01*
X43181000Y-57020000D02*
X43181000Y-59424000D01*
X43181000Y-52536000D02*
X43181000Y-54940000D01*
X43141000Y-57020000D02*
X43141000Y-59449000D01*
X43141000Y-52511000D02*
X43141000Y-54940000D01*
X43101000Y-57020000D02*
X43101000Y-59473000D01*
X43101000Y-52487000D02*
X43101000Y-54940000D01*
X43061000Y-57020000D02*
X43061000Y-59497000D01*
X43061000Y-52463000D02*
X43061000Y-54940000D01*
X43021000Y-57020000D02*
X43021000Y-59520000D01*
X43021000Y-52440000D02*
X43021000Y-54940000D01*
X42981000Y-57020000D02*
X42981000Y-59542000D01*
X42981000Y-52418000D02*
X42981000Y-54940000D01*
X42941000Y-57020000D02*
X42941000Y-59564000D01*
X42941000Y-52396000D02*
X42941000Y-54940000D01*
X42901000Y-57020000D02*
X42901000Y-59586000D01*
X42901000Y-52374000D02*
X42901000Y-54940000D01*
X42861000Y-57020000D02*
X42861000Y-59607000D01*
X42861000Y-52353000D02*
X42861000Y-54940000D01*
X42821000Y-57020000D02*
X42821000Y-59627000D01*
X42821000Y-52333000D02*
X42821000Y-54940000D01*
X42781000Y-57020000D02*
X42781000Y-59646000D01*
X42781000Y-52314000D02*
X42781000Y-54940000D01*
X42741000Y-57020000D02*
X42741000Y-59666000D01*
X42741000Y-52294000D02*
X42741000Y-54940000D01*
X42701000Y-57020000D02*
X42701000Y-59684000D01*
X42701000Y-52276000D02*
X42701000Y-54940000D01*
X42661000Y-57020000D02*
X42661000Y-59702000D01*
X42661000Y-52258000D02*
X42661000Y-54940000D01*
X42621000Y-57020000D02*
X42621000Y-59720000D01*
X42621000Y-52240000D02*
X42621000Y-54940000D01*
X42581000Y-57020000D02*
X42581000Y-59737000D01*
X42581000Y-52223000D02*
X42581000Y-54940000D01*
X42541000Y-57020000D02*
X42541000Y-59754000D01*
X42541000Y-52206000D02*
X42541000Y-54940000D01*
X42501000Y-57020000D02*
X42501000Y-59770000D01*
X42501000Y-52190000D02*
X42501000Y-54940000D01*
X42461000Y-57020000D02*
X42461000Y-59785000D01*
X42461000Y-52175000D02*
X42461000Y-54940000D01*
X42421000Y-57020000D02*
X42421000Y-59801000D01*
X42421000Y-52159000D02*
X42421000Y-54940000D01*
X42381000Y-57020000D02*
X42381000Y-59815000D01*
X42381000Y-52145000D02*
X42381000Y-54940000D01*
X42341000Y-57020000D02*
X42341000Y-59830000D01*
X42341000Y-52130000D02*
X42341000Y-54940000D01*
X42301000Y-57020000D02*
X42301000Y-59843000D01*
X42301000Y-52117000D02*
X42301000Y-54940000D01*
X42261000Y-57020000D02*
X42261000Y-59857000D01*
X42261000Y-52103000D02*
X42261000Y-54940000D01*
X42221000Y-57020000D02*
X42221000Y-59869000D01*
X42221000Y-52091000D02*
X42221000Y-54940000D01*
X42181000Y-57020000D02*
X42181000Y-59882000D01*
X42181000Y-52078000D02*
X42181000Y-54940000D01*
X42141000Y-57020000D02*
X42141000Y-59894000D01*
X42141000Y-52066000D02*
X42141000Y-54940000D01*
X42101000Y-57020000D02*
X42101000Y-59905000D01*
X42101000Y-52055000D02*
X42101000Y-54940000D01*
X42061000Y-57020000D02*
X42061000Y-59916000D01*
X42061000Y-52044000D02*
X42061000Y-54940000D01*
X42021000Y-57020000D02*
X42021000Y-59927000D01*
X42021000Y-52033000D02*
X42021000Y-54940000D01*
X41981000Y-57020000D02*
X41981000Y-59937000D01*
X41981000Y-52023000D02*
X41981000Y-54940000D01*
X41941000Y-57020000D02*
X41941000Y-59947000D01*
X41941000Y-52013000D02*
X41941000Y-54940000D01*
X41901000Y-57020000D02*
X41901000Y-59956000D01*
X41901000Y-52004000D02*
X41901000Y-54940000D01*
X41861000Y-57020000D02*
X41861000Y-59965000D01*
X41861000Y-51995000D02*
X41861000Y-54940000D01*
X41821000Y-57020000D02*
X41821000Y-59974000D01*
X41821000Y-51986000D02*
X41821000Y-54940000D01*
X41781000Y-57020000D02*
X41781000Y-59982000D01*
X41781000Y-51978000D02*
X41781000Y-54940000D01*
X41741000Y-57020000D02*
X41741000Y-59990000D01*
X41741000Y-51970000D02*
X41741000Y-54940000D01*
X41701000Y-57020000D02*
X41701000Y-59997000D01*
X41701000Y-51963000D02*
X41701000Y-54940000D01*
X41660000Y-51956000D02*
X41660000Y-60004000D01*
X41620000Y-51950000D02*
X41620000Y-60010000D01*
X41580000Y-51943000D02*
X41580000Y-60017000D01*
X41540000Y-51938000D02*
X41540000Y-60022000D01*
X41500000Y-51932000D02*
X41500000Y-60028000D01*
X41460000Y-51928000D02*
X41460000Y-60032000D01*
X41420000Y-51923000D02*
X41420000Y-60037000D01*
X41380000Y-51919000D02*
X41380000Y-60041000D01*
X41340000Y-51915000D02*
X41340000Y-60045000D01*
X41300000Y-51912000D02*
X41300000Y-60048000D01*
X41260000Y-51909000D02*
X41260000Y-60051000D01*
X41220000Y-51906000D02*
X41220000Y-60054000D01*
X41180000Y-51904000D02*
X41180000Y-60056000D01*
X41140000Y-51903000D02*
X41140000Y-60057000D01*
X41100000Y-51901000D02*
X41100000Y-60059000D01*
X41060000Y-51900000D02*
X41060000Y-60060000D01*
X41020000Y-51900000D02*
X41020000Y-60060000D01*
X40980000Y-51900000D02*
X40980000Y-60060000D01*
X45100000Y-55980000D02*
G75*
G03*
X45100000Y-55980000I-4120000J0D01*
G01*
X46600000Y-60140000D02*
X126880000Y-60140000D01*
X126880000Y-60140000D02*
X126880000Y-23860000D01*
X126880000Y-23860000D02*
X47400000Y-23860000D01*
X46600000Y-23860000D02*
X46600000Y-60140000D01*
X46610000Y-23860000D02*
X47400000Y-23860000D01*
X53240000Y-23500000D02*
X56240000Y-23500000D01*
X54940000Y-34500000D02*
X118440000Y-34500000D01*
X54440280Y-48999320D02*
X54440280Y-35000000D01*
X118440660Y-49500000D02*
X54940000Y-49500000D01*
X118940000Y-35000000D02*
X118940000Y-49000000D01*
X49740000Y-29500000D02*
X122740000Y-29500000D01*
X122740000Y-29500000D02*
X122740000Y-54500000D01*
X122740000Y-54500000D02*
X49740000Y-54500000D01*
X49740000Y-54500000D02*
X49740000Y-29500000D01*
X54940660Y-34498460D02*
G75*
G03*
X54440280Y-34998840I0J-500380D01*
G01*
X54440280Y-48999320D02*
G75*
G03*
X54940660Y-49499700I500380J0D01*
G01*
X118440660Y-49499700D02*
G75*
G03*
X118941040Y-48999320I0J500380D01*
G01*
X118940000Y-35000000D02*
G75*
G03*
X118440000Y-34500000I-500000J0D01*
G01*
X132000000Y-48510000D02*
X134660000Y-48510000D01*
X132000000Y-40830000D02*
X132000000Y-48510000D01*
X134660000Y-40830000D02*
X134660000Y-48510000D01*
X132000000Y-40830000D02*
X134660000Y-40830000D01*
X132000000Y-39560000D02*
X132000000Y-38230000D01*
X132000000Y-38230000D02*
X133330000Y-38230000D01*
X94710000Y-145906000D02*
X97370000Y-145906000D01*
X94710000Y-135686000D02*
X94710000Y-145906000D01*
X97370000Y-135686000D02*
X97370000Y-145906000D01*
X94710000Y-135686000D02*
X97370000Y-135686000D01*
X94710000Y-134416000D02*
X94710000Y-133086000D01*
X94710000Y-133086000D02*
X96040000Y-133086000D01*
X48430000Y-100110000D02*
X48430000Y-84110000D01*
X36880000Y-99290000D02*
X44200000Y-99290000D01*
X36840000Y-84950000D02*
X44210000Y-84950000D01*
X44060000Y-94930000D02*
X36820000Y-94940000D01*
X44200000Y-99290000D02*
X44940000Y-98460000D01*
X46890000Y-94150000D02*
X36810000Y-94139875D01*
X36850000Y-100130000D02*
X48408044Y-100131956D01*
X44910000Y-95930000D02*
X44060000Y-94930000D01*
X46890000Y-94150000D02*
X46890000Y-90130000D01*
X46890000Y-90130000D02*
X36860000Y-90120000D01*
X36840000Y-84110000D02*
X48430000Y-84110000D01*
X44970000Y-88260000D02*
X44050000Y-89290000D01*
X44210000Y-84950000D02*
X44940000Y-85740000D01*
X44050000Y-89290000D02*
X36842000Y-89280005D01*
X36840000Y-84950000D02*
G75*
G02*
X36840000Y-84110000I0J420000D01*
G01*
X36840000Y-90120000D02*
G75*
G02*
X36842000Y-89280005I2000J419995D01*
G01*
X36820000Y-94940000D02*
G75*
G02*
X36810000Y-94139875I0J400125D01*
G01*
X36840000Y-100130000D02*
G75*
G02*
X36840000Y-99290000I0J420000D01*
G01*
D12*
X68671997Y-142943921D02*
G75*
G03*
X68671997Y-142943921I-999997J0D01*
G01*
D13*
X87690000Y-102160000D02*
X48090000Y-102160000D01*
X87690000Y-102160000D02*
X87690000Y-161160000D01*
X87690000Y-161160000D02*
X48090000Y-161160000D01*
X48090000Y-102160000D02*
X48090000Y-161160000D01*
D12*
X72327572Y-138359381D02*
G75*
G02*
X72312910Y-147251101I-4300648J-4438781D01*
G01*
X74360543Y-135820354D02*
G75*
G02*
X74361318Y-149791075I-6490810J-6985721D01*
G01*
X76275624Y-133790298D02*
G75*
G02*
X76281330Y-151795085I-7524316J-9004779D01*
G01*
X62989861Y-147639737D02*
G75*
G02*
X63004522Y-138748019I4300647J4438780D01*
G01*
X60956889Y-150178765D02*
G75*
G02*
X60956114Y-136208044I6490810J6985721D01*
G01*
X59695706Y-152208822D02*
G75*
G02*
X59690000Y-134204035I7524316J9004779D01*
G01*
D11*
X95730000Y-74360000D02*
X98390000Y-74360000D01*
X95730000Y-71760000D02*
X95730000Y-74360000D01*
X98390000Y-71760000D02*
X98390000Y-74360000D01*
X95730000Y-71760000D02*
X98390000Y-71760000D01*
X95730000Y-70490000D02*
X95730000Y-69160000D01*
X95730000Y-69160000D02*
X97060000Y-69160000D01*
X47840000Y-73290000D02*
X47840000Y-72240000D01*
X46790000Y-72240000D02*
X47840000Y-72240000D01*
X41740000Y-81640000D02*
X32940000Y-81640000D01*
X32940000Y-81640000D02*
X32940000Y-72440000D01*
X47640000Y-78940000D02*
X47640000Y-81640000D01*
X47640000Y-81640000D02*
X45740000Y-81640000D01*
X32940000Y-72440000D02*
X47640000Y-72440000D01*
X47640000Y-72440000D02*
X47640000Y-75040000D01*
X43430000Y-68730000D02*
G75*
G03*
X43430000Y-68730000I-2500000J0D01*
G01*
X42475000Y-66170000D02*
X39385000Y-66170000D01*
X40929538Y-71720000D02*
G75*
G03*
X42474830Y-66170000I462J2990000D01*
G01*
X40930462Y-71720000D02*
G75*
G02*
X39385170Y-66170000I-462J2990000D01*
G01*
D13*
X54092380Y-92931904D02*
X54901904Y-92931904D01*
X54997142Y-92884285D01*
X55044761Y-92836666D01*
X55092380Y-92741428D01*
X55092380Y-92550952D01*
X55044761Y-92455714D01*
X54997142Y-92408095D01*
X54901904Y-92360476D01*
X54092380Y-92360476D01*
X55092380Y-91360476D02*
X55092380Y-91931904D01*
X55092380Y-91646190D02*
X54092380Y-91646190D01*
X54235238Y-91741428D01*
X54330476Y-91836666D01*
X54378095Y-91931904D01*
X48411904Y-65002380D02*
X48411904Y-64002380D01*
X48650000Y-64002380D01*
X48792857Y-64050000D01*
X48888095Y-64145238D01*
X48935714Y-64240476D01*
X48983333Y-64430952D01*
X48983333Y-64573809D01*
X48935714Y-64764285D01*
X48888095Y-64859523D01*
X48792857Y-64954761D01*
X48650000Y-65002380D01*
X48411904Y-65002380D01*
X49840476Y-64335714D02*
X49840476Y-65002380D01*
X49602380Y-63954761D02*
X49364285Y-64669047D01*
X49983333Y-64669047D01*
X122611904Y-64752380D02*
X122611904Y-63752380D01*
X122850000Y-63752380D01*
X122992857Y-63800000D01*
X123088095Y-63895238D01*
X123135714Y-63990476D01*
X123183333Y-64180952D01*
X123183333Y-64323809D01*
X123135714Y-64514285D01*
X123088095Y-64609523D01*
X122992857Y-64704761D01*
X122850000Y-64752380D01*
X122611904Y-64752380D01*
X124088095Y-63752380D02*
X123611904Y-63752380D01*
X123564285Y-64228571D01*
X123611904Y-64180952D01*
X123707142Y-64133333D01*
X123945238Y-64133333D01*
X124040476Y-64180952D01*
X124088095Y-64228571D01*
X124135714Y-64323809D01*
X124135714Y-64561904D01*
X124088095Y-64657142D01*
X124040476Y-64704761D01*
X123945238Y-64752380D01*
X123707142Y-64752380D01*
X123611904Y-64704761D01*
X123564285Y-64657142D01*
X43220476Y-168692380D02*
X43220476Y-167692380D01*
X43553809Y-168406666D01*
X43887142Y-167692380D01*
X43887142Y-168692380D01*
X44268095Y-167692380D02*
X44887142Y-167692380D01*
X44553809Y-168073333D01*
X44696666Y-168073333D01*
X44791904Y-168120952D01*
X44839523Y-168168571D01*
X44887142Y-168263809D01*
X44887142Y-168501904D01*
X44839523Y-168597142D01*
X44791904Y-168644761D01*
X44696666Y-168692380D01*
X44410952Y-168692380D01*
X44315714Y-168644761D01*
X44268095Y-168597142D01*
X85439047Y-61258571D02*
X85581904Y-61306190D01*
X85629523Y-61353809D01*
X85677142Y-61449047D01*
X85677142Y-61591904D01*
X85629523Y-61687142D01*
X85581904Y-61734761D01*
X85486666Y-61782380D01*
X85105714Y-61782380D01*
X85105714Y-60782380D01*
X85439047Y-60782380D01*
X85534285Y-60830000D01*
X85581904Y-60877619D01*
X85629523Y-60972857D01*
X85629523Y-61068095D01*
X85581904Y-61163333D01*
X85534285Y-61210952D01*
X85439047Y-61258571D01*
X85105714Y-61258571D01*
X86010476Y-60782380D02*
X86677142Y-60782380D01*
X86010476Y-61782380D01*
X86677142Y-61782380D01*
X87581904Y-61782380D02*
X87010476Y-61782380D01*
X87296190Y-61782380D02*
X87296190Y-60782380D01*
X87200952Y-60925238D01*
X87105714Y-61020476D01*
X87010476Y-61068095D01*
X82129047Y-66061428D02*
X82890952Y-66061428D01*
X82510000Y-66442380D02*
X82510000Y-65680476D01*
X96487619Y-77045238D02*
X96440000Y-77140476D01*
X96344761Y-77235714D01*
X96201904Y-77378571D01*
X96154285Y-77473809D01*
X96154285Y-77569047D01*
X96392380Y-77521428D02*
X96344761Y-77616666D01*
X96249523Y-77711904D01*
X96059047Y-77759523D01*
X95725714Y-77759523D01*
X95535238Y-77711904D01*
X95440000Y-77616666D01*
X95392380Y-77521428D01*
X95392380Y-77330952D01*
X95440000Y-77235714D01*
X95535238Y-77140476D01*
X95725714Y-77092857D01*
X96059047Y-77092857D01*
X96249523Y-77140476D01*
X96344761Y-77235714D01*
X96392380Y-77330952D01*
X96392380Y-77521428D01*
X96392380Y-76140476D02*
X96392380Y-76711904D01*
X96392380Y-76426190D02*
X95392380Y-76426190D01*
X95535238Y-76521428D01*
X95630476Y-76616666D01*
X95678095Y-76711904D01*
X42322380Y-127678095D02*
X41322380Y-127678095D01*
X41322380Y-127297142D01*
X41370000Y-127201904D01*
X41417619Y-127154285D01*
X41512857Y-127106666D01*
X41655714Y-127106666D01*
X41750952Y-127154285D01*
X41798571Y-127201904D01*
X41846190Y-127297142D01*
X41846190Y-127678095D01*
X42322380Y-126154285D02*
X42322380Y-126725714D01*
X42322380Y-126440000D02*
X41322380Y-126440000D01*
X41465238Y-126535238D01*
X41560476Y-126630476D01*
X41608095Y-126725714D01*
X95160476Y-160802380D02*
X95160476Y-159802380D01*
X95493809Y-160516666D01*
X95827142Y-159802380D01*
X95827142Y-160802380D01*
X96208095Y-159802380D02*
X96827142Y-159802380D01*
X96493809Y-160183333D01*
X96636666Y-160183333D01*
X96731904Y-160230952D01*
X96779523Y-160278571D01*
X96827142Y-160373809D01*
X96827142Y-160611904D01*
X96779523Y-160707142D01*
X96731904Y-160754761D01*
X96636666Y-160802380D01*
X96350952Y-160802380D01*
X96255714Y-160754761D01*
X96208095Y-160707142D01*
X45073333Y-101537142D02*
X45025714Y-101584761D01*
X44882857Y-101632380D01*
X44787619Y-101632380D01*
X44644761Y-101584761D01*
X44549523Y-101489523D01*
X44501904Y-101394285D01*
X44454285Y-101203809D01*
X44454285Y-101060952D01*
X44501904Y-100870476D01*
X44549523Y-100775238D01*
X44644761Y-100680000D01*
X44787619Y-100632380D01*
X44882857Y-100632380D01*
X45025714Y-100680000D01*
X45073333Y-100727619D01*
X45454285Y-100727619D02*
X45501904Y-100680000D01*
X45597142Y-100632380D01*
X45835238Y-100632380D01*
X45930476Y-100680000D01*
X45978095Y-100727619D01*
X46025714Y-100822857D01*
X46025714Y-100918095D01*
X45978095Y-101060952D01*
X45406666Y-101632380D01*
X46025714Y-101632380D01*
X128230476Y-160912380D02*
X128230476Y-159912380D01*
X128563809Y-160626666D01*
X128897142Y-159912380D01*
X128897142Y-160912380D01*
X129278095Y-159912380D02*
X129897142Y-159912380D01*
X129563809Y-160293333D01*
X129706666Y-160293333D01*
X129801904Y-160340952D01*
X129849523Y-160388571D01*
X129897142Y-160483809D01*
X129897142Y-160721904D01*
X129849523Y-160817142D01*
X129801904Y-160864761D01*
X129706666Y-160912380D01*
X129420952Y-160912380D01*
X129325714Y-160864761D01*
X129278095Y-160817142D01*
X128060476Y-82462380D02*
X128060476Y-81462380D01*
X128393809Y-82176666D01*
X128727142Y-81462380D01*
X128727142Y-82462380D01*
X129108095Y-81462380D02*
X129727142Y-81462380D01*
X129393809Y-81843333D01*
X129536666Y-81843333D01*
X129631904Y-81890952D01*
X129679523Y-81938571D01*
X129727142Y-82033809D01*
X129727142Y-82271904D01*
X129679523Y-82367142D01*
X129631904Y-82414761D01*
X129536666Y-82462380D01*
X129250952Y-82462380D01*
X129155714Y-82414761D01*
X129108095Y-82367142D01*
X127950476Y-168612380D02*
X127950476Y-167612380D01*
X128283809Y-168326666D01*
X128617142Y-167612380D01*
X128617142Y-168612380D01*
X128998095Y-167612380D02*
X129617142Y-167612380D01*
X129283809Y-167993333D01*
X129426666Y-167993333D01*
X129521904Y-168040952D01*
X129569523Y-168088571D01*
X129617142Y-168183809D01*
X129617142Y-168421904D01*
X129569523Y-168517142D01*
X129521904Y-168564761D01*
X129426666Y-168612380D01*
X129140952Y-168612380D01*
X129045714Y-168564761D01*
X128998095Y-168517142D01*
X43442380Y-162943333D02*
X44156666Y-162943333D01*
X44299523Y-162990952D01*
X44394761Y-163086190D01*
X44442380Y-163229047D01*
X44442380Y-163324285D01*
X43870952Y-162324285D02*
X43823333Y-162419523D01*
X43775714Y-162467142D01*
X43680476Y-162514761D01*
X43632857Y-162514761D01*
X43537619Y-162467142D01*
X43490000Y-162419523D01*
X43442380Y-162324285D01*
X43442380Y-162133809D01*
X43490000Y-162038571D01*
X43537619Y-161990952D01*
X43632857Y-161943333D01*
X43680476Y-161943333D01*
X43775714Y-161990952D01*
X43823333Y-162038571D01*
X43870952Y-162133809D01*
X43870952Y-162324285D01*
X43918571Y-162419523D01*
X43966190Y-162467142D01*
X44061428Y-162514761D01*
X44251904Y-162514761D01*
X44347142Y-162467142D01*
X44394761Y-162419523D01*
X44442380Y-162324285D01*
X44442380Y-162133809D01*
X44394761Y-162038571D01*
X44347142Y-161990952D01*
X44251904Y-161943333D01*
X44061428Y-161943333D01*
X43966190Y-161990952D01*
X43918571Y-162038571D01*
X43870952Y-162133809D01*
X99856666Y-67612380D02*
X99856666Y-68326666D01*
X99809047Y-68469523D01*
X99713809Y-68564761D01*
X99570952Y-68612380D01*
X99475714Y-68612380D01*
X100332857Y-68612380D02*
X100332857Y-67612380D01*
X100713809Y-67612380D01*
X100809047Y-67660000D01*
X100856666Y-67707619D01*
X100904285Y-67802857D01*
X100904285Y-67945714D01*
X100856666Y-68040952D01*
X100809047Y-68088571D01*
X100713809Y-68136190D01*
X100332857Y-68136190D01*
X101285238Y-67707619D02*
X101332857Y-67660000D01*
X101428095Y-67612380D01*
X101666190Y-67612380D01*
X101761428Y-67660000D01*
X101809047Y-67707619D01*
X101856666Y-67802857D01*
X101856666Y-67898095D01*
X101809047Y-68040952D01*
X101237619Y-68612380D01*
X101856666Y-68612380D01*
X94860476Y-82332380D02*
X94860476Y-81332380D01*
X95193809Y-82046666D01*
X95527142Y-81332380D01*
X95527142Y-82332380D01*
X95908095Y-81332380D02*
X96527142Y-81332380D01*
X96193809Y-81713333D01*
X96336666Y-81713333D01*
X96431904Y-81760952D01*
X96479523Y-81808571D01*
X96527142Y-81903809D01*
X96527142Y-82141904D01*
X96479523Y-82237142D01*
X96431904Y-82284761D01*
X96336666Y-82332380D01*
X96050952Y-82332380D01*
X95955714Y-82284761D01*
X95908095Y-82237142D01*
X40813333Y-51087142D02*
X40765714Y-51134761D01*
X40622857Y-51182380D01*
X40527619Y-51182380D01*
X40384761Y-51134761D01*
X40289523Y-51039523D01*
X40241904Y-50944285D01*
X40194285Y-50753809D01*
X40194285Y-50610952D01*
X40241904Y-50420476D01*
X40289523Y-50325238D01*
X40384761Y-50230000D01*
X40527619Y-50182380D01*
X40622857Y-50182380D01*
X40765714Y-50230000D01*
X40813333Y-50277619D01*
X41765714Y-51182380D02*
X41194285Y-51182380D01*
X41480000Y-51182380D02*
X41480000Y-50182380D01*
X41384761Y-50325238D01*
X41289523Y-50420476D01*
X41194285Y-50468095D01*
X42386666Y-28442380D02*
X42386666Y-29156666D01*
X42339047Y-29299523D01*
X42243809Y-29394761D01*
X42100952Y-29442380D01*
X42005714Y-29442380D01*
X43291428Y-28442380D02*
X43100952Y-28442380D01*
X43005714Y-28490000D01*
X42958095Y-28537619D01*
X42862857Y-28680476D01*
X42815238Y-28870952D01*
X42815238Y-29251904D01*
X42862857Y-29347142D01*
X42910476Y-29394761D01*
X43005714Y-29442380D01*
X43196190Y-29442380D01*
X43291428Y-29394761D01*
X43339047Y-29347142D01*
X43386666Y-29251904D01*
X43386666Y-29013809D01*
X43339047Y-28918571D01*
X43291428Y-28870952D01*
X43196190Y-28823333D01*
X43005714Y-28823333D01*
X42910476Y-28870952D01*
X42862857Y-28918571D01*
X42815238Y-29013809D01*
X132996666Y-36682380D02*
X132996666Y-37396666D01*
X132949047Y-37539523D01*
X132853809Y-37634761D01*
X132710952Y-37682380D01*
X132615714Y-37682380D01*
X133520476Y-37682380D02*
X133710952Y-37682380D01*
X133806190Y-37634761D01*
X133853809Y-37587142D01*
X133949047Y-37444285D01*
X133996666Y-37253809D01*
X133996666Y-36872857D01*
X133949047Y-36777619D01*
X133901428Y-36730000D01*
X133806190Y-36682380D01*
X133615714Y-36682380D01*
X133520476Y-36730000D01*
X133472857Y-36777619D01*
X133425238Y-36872857D01*
X133425238Y-37110952D01*
X133472857Y-37206190D01*
X133520476Y-37253809D01*
X133615714Y-37301428D01*
X133806190Y-37301428D01*
X133901428Y-37253809D01*
X133949047Y-37206190D01*
X133996666Y-37110952D01*
X95230476Y-131538380D02*
X95230476Y-132252666D01*
X95182857Y-132395523D01*
X95087619Y-132490761D01*
X94944761Y-132538380D01*
X94849523Y-132538380D01*
X96230476Y-132538380D02*
X95659047Y-132538380D01*
X95944761Y-132538380D02*
X95944761Y-131538380D01*
X95849523Y-131681238D01*
X95754285Y-131776476D01*
X95659047Y-131824095D01*
X97182857Y-132538380D02*
X96611428Y-132538380D01*
X96897142Y-132538380D02*
X96897142Y-131538380D01*
X96801904Y-131681238D01*
X96706666Y-131776476D01*
X96611428Y-131824095D01*
X48242380Y-93293333D02*
X47766190Y-93626666D01*
X48242380Y-93864761D02*
X47242380Y-93864761D01*
X47242380Y-93483809D01*
X47290000Y-93388571D01*
X47337619Y-93340952D01*
X47432857Y-93293333D01*
X47575714Y-93293333D01*
X47670952Y-93340952D01*
X47718571Y-93388571D01*
X47766190Y-93483809D01*
X47766190Y-93864761D01*
X47718571Y-92864761D02*
X47718571Y-92531428D01*
X48242380Y-92388571D02*
X48242380Y-92864761D01*
X47242380Y-92864761D01*
X47242380Y-92388571D01*
X47718571Y-91626666D02*
X47718571Y-91960000D01*
X48242380Y-91960000D02*
X47242380Y-91960000D01*
X47242380Y-91483809D01*
X47242380Y-90960000D02*
X47480476Y-90960000D01*
X47385238Y-91198095D02*
X47480476Y-90960000D01*
X47385238Y-90721904D01*
X47670952Y-91102857D02*
X47480476Y-90960000D01*
X47670952Y-90817142D01*
X47242380Y-90198095D02*
X47480476Y-90198095D01*
X47385238Y-90436190D02*
X47480476Y-90198095D01*
X47385238Y-89960000D01*
X47670952Y-90340952D02*
X47480476Y-90198095D01*
X47670952Y-90055238D01*
X67356666Y-128112380D02*
X67356666Y-128826666D01*
X67309047Y-128969523D01*
X67213809Y-129064761D01*
X67070952Y-129112380D01*
X66975714Y-129112380D01*
X68261428Y-128445714D02*
X68261428Y-129112380D01*
X68023333Y-128064761D02*
X67785238Y-128779047D01*
X68404285Y-128779047D01*
X96226666Y-67612380D02*
X96226666Y-68326666D01*
X96179047Y-68469523D01*
X96083809Y-68564761D01*
X95940952Y-68612380D01*
X95845714Y-68612380D01*
X96702857Y-68612380D02*
X96702857Y-67612380D01*
X97083809Y-67612380D01*
X97179047Y-67660000D01*
X97226666Y-67707619D01*
X97274285Y-67802857D01*
X97274285Y-67945714D01*
X97226666Y-68040952D01*
X97179047Y-68088571D01*
X97083809Y-68136190D01*
X96702857Y-68136190D01*
X97607619Y-67612380D02*
X98226666Y-67612380D01*
X97893333Y-67993333D01*
X98036190Y-67993333D01*
X98131428Y-68040952D01*
X98179047Y-68088571D01*
X98226666Y-68183809D01*
X98226666Y-68421904D01*
X98179047Y-68517142D01*
X98131428Y-68564761D01*
X98036190Y-68612380D01*
X97750476Y-68612380D01*
X97655238Y-68564761D01*
X97607619Y-68517142D01*
X42910476Y-21172380D02*
X42910476Y-20172380D01*
X43243809Y-20886666D01*
X43577142Y-20172380D01*
X43577142Y-21172380D01*
X43958095Y-20172380D02*
X44577142Y-20172380D01*
X44243809Y-20553333D01*
X44386666Y-20553333D01*
X44481904Y-20600952D01*
X44529523Y-20648571D01*
X44577142Y-20743809D01*
X44577142Y-20981904D01*
X44529523Y-21077142D01*
X44481904Y-21124761D01*
X44386666Y-21172380D01*
X44100952Y-21172380D01*
X44005714Y-21124761D01*
X43958095Y-21077142D01*
X37956666Y-82242380D02*
X37956666Y-82956666D01*
X37909047Y-83099523D01*
X37813809Y-83194761D01*
X37670952Y-83242380D01*
X37575714Y-83242380D01*
X38956666Y-83242380D02*
X38385238Y-83242380D01*
X38670952Y-83242380D02*
X38670952Y-82242380D01*
X38575714Y-82385238D01*
X38480476Y-82480476D01*
X38385238Y-82528095D01*
X127820476Y-21202380D02*
X127820476Y-20202380D01*
X128153809Y-20916666D01*
X128487142Y-20202380D01*
X128487142Y-21202380D01*
X128868095Y-20202380D02*
X129487142Y-20202380D01*
X129153809Y-20583333D01*
X129296666Y-20583333D01*
X129391904Y-20630952D01*
X129439523Y-20678571D01*
X129487142Y-20773809D01*
X129487142Y-21011904D01*
X129439523Y-21107142D01*
X129391904Y-21154761D01*
X129296666Y-21202380D01*
X129010952Y-21202380D01*
X128915714Y-21154761D01*
X128868095Y-21107142D01*
X40271904Y-64952380D02*
X40271904Y-63952380D01*
X40510000Y-63952380D01*
X40652857Y-64000000D01*
X40748095Y-64095238D01*
X40795714Y-64190476D01*
X40843333Y-64380952D01*
X40843333Y-64523809D01*
X40795714Y-64714285D01*
X40748095Y-64809523D01*
X40652857Y-64904761D01*
X40510000Y-64952380D01*
X40271904Y-64952380D01*
X41176666Y-63952380D02*
X41795714Y-63952380D01*
X41462380Y-64333333D01*
X41605238Y-64333333D01*
X41700476Y-64380952D01*
X41748095Y-64428571D01*
X41795714Y-64523809D01*
X41795714Y-64761904D01*
X41748095Y-64857142D01*
X41700476Y-64904761D01*
X41605238Y-64952380D01*
X41319523Y-64952380D01*
X41224285Y-64904761D01*
X41176666Y-64857142D01*
M02*
