  0
SECTION
  2
HEADER
  9
$ANGBASE
  50
0.0
  9
$ANGDIR
  70
  1
  9
$MEASUREMENT
  70
0
  0
ENDSEC
  0
SECTION
  2
TABLES
  0
TABLE
  2
LTYPE
  70
4
  0
LTYPE
  5
40F
  2
CONTINUOUS
  70
0
  3
Solid line
  72
65
  73
0
  40
0.0
  0
LTYPE
  5
410
  2
DASHDOT
 70
0
  3
Dash Dot ____ _ ____ _
 72
65
 73
4
 40
2.0
 49
1.25
 49
-0.25
 49
0.25
 49
-0.25
  0
LTYPE
  5
411
  2
DASHED
 70
0
  3
Dashed __ __ __ __ __
 72
65
 73
2
 40
0.75
 49
0.5
 49
-0.25
  0
LTYPE
  5
43B
  2
DOTTED
 70
0
  3
Dotted .  .  .  .
 72
65
 73
2
 40
0.2
 49
0.0
 49
-0.2
  0
ENDTAB
  0
TABLE
  2
STYLE
  70
4
  0
STYLE
  2
KICAD
  70
0
  40
0
  41
1
  42
1
  50
0
  71
0
  3
isocp.shx
  0
STYLE
  2
KICADB
  70
0
  40
0
  41
1
  42
1
  50
0
  71
0
  3
isocp.shx
  0
STYLE
  2
KICADI
  70
0
  40
0
  41
1
  42
1
  50
15
  71
0
  3
isocp.shx
  0
STYLE
  2
KICADBI
  70
0
  40
0
  41
1
  42
1
  50
15
  71
0
  3
isocp.shx
  0
ENDTAB
  0
TABLE
  2
LAYER
  70
30
  0
LAYER
  2
BLACK
  70
0
  62
7
  6
CONTINUOUS
  0
LAYER
  2
GRAY1
  70
0
  62
251
  6
CONTINUOUS
  0
LAYER
  2
GRAY2
  70
0
  62
8
  6
CONTINUOUS
  0
LAYER
  2
GRAY3
  70
0
  62
9
  6
CONTINUOUS
  0
LAYER
  2
WHITE
  70
0
  62
7
  6
CONTINUOUS
  0
LAYER
  2
LYELLOW
  70
0
  62
51
  6
CONTINUOUS
  0
LAYER
  2
BLUE1
  70
0
  62
178
  6
CONTINUOUS
  0
LAYER
  2
GREEN1
  70
0
  62
98
  6
CONTINUOUS
  0
LAYER
  2
CYAN1
  70
0
  62
138
  6
CONTINUOUS
  0
LAYER
  2
RED1
  70
0
  62
18
  6
CONTINUOUS
  0
LAYER
  2
MAGENTA1
  70
0
  62
228
  6
CONTINUOUS
  0
LAYER
  2
BROWN1
  70
0
  62
58
  6
CONTINUOUS
  0
LAYER
  2
BLUE2
  70
0
  62
5
  6
CONTINUOUS
  0
LAYER
  2
GREEN2
  70
0
  62
3
  6
CONTINUOUS
  0
LAYER
  2
CYAN2
  70
0
  62
4
  6
CONTINUOUS
  0
LAYER
  2
RED2
  70
0
  62
1
  6
CONTINUOUS
  0
LAYER
  2
MAGENTA2
  70
0
  62
6
  6
CONTINUOUS
  0
LAYER
  2
BROWN2
  70
0
  62
54
  6
CONTINUOUS
  0
LAYER
  2
BLUE3
  70
0
  62
171
  6
CONTINUOUS
  0
LAYER
  2
GREEN3
  70
0
  62
91
  6
CONTINUOUS
  0
LAYER
  2
CYAN3
  70
0
  62
131
  6
CONTINUOUS
  0
LAYER
  2
RED3
  70
0
  62
11
  6
CONTINUOUS
  0
LAYER
  2
MAGENTA3
  70
0
  62
221
  6
CONTINUOUS
  0
LAYER
  2
YELLOW3
  70
0
  62
2
  6
CONTINUOUS
  0
LAYER
  2
BLUE4
  70
0
  62
5
  6
CONTINUOUS
  0
LAYER
  2
GREEN4
  70
0
  62
3
  6
CONTINUOUS
  0
LAYER
  2
CYAN4
  70
0
  62
4
  6
CONTINUOUS
  0
LAYER
  2
RED4
  70
0
  62
1
  6
CONTINUOUS
  0
LAYER
  2
MAGENTA4
  70
0
  62
6
  6
CONTINUOUS
  0
LAYER
  2
YELLOW4
  70
0
  62
2
  6
CONTINUOUS
  0
ENDTAB
  0
ENDSEC
  0
SECTION
  2
ENTITIES
0
LINE
8
BLACK
6
CONTINUOUS
10
80.4216
20
-38.19
11
80.4282
21
-38.19
0
LINE
8
BLACK
6
CONTINUOUS
10
80.4282
20
-38.19
11
80.4345
21
-38.1923
0
LINE
8
BLACK
6
CONTINUOUS
10
80.4345
20
-38.1923
11
80.441
21
-38.1934
0
LINE
8
BLACK
6
CONTINUOUS
10
80.441
20
-38.1934
11
80.4468
21
-38.1968
0
LINE
8
BLACK
6
CONTINUOUS
10
80.4468
20
-38.1968
11
80.4531
21
-38.199
0
LINE
8
BLACK
6
CONTINUOUS
10
80.4531
20
-38.199
11
80.4582
21
-38.2033
0
LINE
8
BLACK
6
CONTINUOUS
10
80.4582
20
-38.2033
11
80.464
21
-38.2067
0
LINE
8
BLACK
6
CONTINUOUS
10
80.464
20
-38.2067
11
80.4682
21
-38.2118
0
LINE
8
BLACK
6
CONTINUOUS
10
80.4682
20
-38.2118
11
80.4733
21
-38.216
0
LINE
8
BLACK
6
CONTINUOUS
10
80.4733
20
-38.216
11
80.4767
21
-38.2218
0
LINE
8
BLACK
6
CONTINUOUS
10
80.4767
20
-38.2218
11
80.481
21
-38.2269
0
LINE
8
BLACK
6
CONTINUOUS
10
80.481
20
-38.2269
11
80.4832
21
-38.2332
0
LINE
8
BLACK
6
CONTINUOUS
10
80.4832
20
-38.2332
11
80.4866
21
-38.239
0
LINE
8
BLACK
6
CONTINUOUS
10
80.4866
20
-38.239
11
80.4877
21
-38.2455
0
LINE
8
BLACK
6
CONTINUOUS
10
80.4877
20
-38.2455
11
80.49
21
-38.2518
0
LINE
8
BLACK
6
CONTINUOUS
10
80.49
20
-38.2518
11
80.49
21
-38.2584
0
LINE
8
BLACK
6
CONTINUOUS
10
80.49
20
-38.2584
11
80.49
21
-38.2584
0
LINE
8
BLACK
6
CONTINUOUS
10
80.49
20
-38.2584
11
80.49
21
-46.0216
0
LINE
8
BLACK
6
CONTINUOUS
10
80.49
20
-46.0216
11
80.49
21
-46.0216
0
LINE
8
BLACK
6
CONTINUOUS
10
80.49
20
-46.0216
11
80.49
21
-46.0282
0
LINE
8
BLACK
6
CONTINUOUS
10
80.49
20
-46.0282
11
80.4877
21
-46.0345
0
LINE
8
BLACK
6
CONTINUOUS
10
80.4877
20
-46.0345
11
80.4866
21
-46.041
0
LINE
8
BLACK
6
CONTINUOUS
10
80.4866
20
-46.041
11
80.4832
21
-46.0468
0
LINE
8
BLACK
6
CONTINUOUS
10
80.4832
20
-46.0468
11
80.481
21
-46.0531
0
LINE
8
BLACK
6
CONTINUOUS
10
80.481
20
-46.0531
11
80.4767
21
-46.0582
0
LINE
8
BLACK
6
CONTINUOUS
10
80.4767
20
-46.0582
11
80.4733
21
-46.064
0
LINE
8
BLACK
6
CONTINUOUS
10
80.4733
20
-46.064
11
80.4682
21
-46.0682
0
LINE
8
BLACK
6
CONTINUOUS
10
80.4682
20
-46.0682
11
80.464
21
-46.0733
0
LINE
8
BLACK
6
CONTINUOUS
10
80.464
20
-46.0733
11
80.4582
21
-46.0767
0
LINE
8
BLACK
6
CONTINUOUS
10
80.4582
20
-46.0767
11
80.4531
21
-46.081
0
LINE
8
BLACK
6
CONTINUOUS
10
80.4531
20
-46.081
11
80.4468
21
-46.0832
0
LINE
8
BLACK
6
CONTINUOUS
10
80.4468
20
-46.0832
11
80.441
21
-46.0866
0
LINE
8
BLACK
6
CONTINUOUS
10
80.441
20
-46.0866
11
80.4345
21
-46.0877
0
LINE
8
BLACK
6
CONTINUOUS
10
80.4345
20
-46.0877
11
80.4282
21
-46.09
0
LINE
8
BLACK
6
CONTINUOUS
10
80.4282
20
-46.09
11
80.4216
21
-46.09
0
LINE
8
BLACK
6
CONTINUOUS
10
80.4216
20
-46.09
11
80.4216
21
-46.09
0
LINE
8
BLACK
6
CONTINUOUS
10
80.4216
20
-46.09
11
78.965
21
-46.09
0
LINE
8
BLACK
6
CONTINUOUS
10
78.965
20
-46.09
11
78.965
21
-47.5466
0
LINE
8
BLACK
6
CONTINUOUS
10
78.965
20
-47.5466
11
78.9616
21
-47.566
0
LINE
8
BLACK
6
CONTINUOUS
10
78.9616
20
-47.566
11
78.9483
21
-47.589
0
LINE
8
BLACK
6
CONTINUOUS
10
78.9483
20
-47.589
11
78.9281
21
-47.606
0
LINE
8
BLACK
6
CONTINUOUS
10
78.9281
20
-47.606
11
78.9032
21
-47.615
0
LINE
8
BLACK
6
CONTINUOUS
10
78.9032
20
-47.615
11
78.8768
21
-47.615
0
LINE
8
BLACK
6
CONTINUOUS
10
78.8768
20
-47.615
11
78.8519
21
-47.606
0
LINE
8
BLACK
6
CONTINUOUS
10
78.8519
20
-47.606
11
78.8317
21
-47.589
0
LINE
8
BLACK
6
CONTINUOUS
10
78.8317
20
-47.589
11
78.8184
21
-47.566
0
LINE
8
BLACK
6
CONTINUOUS
10
78.8184
20
-47.566
11
78.815
21
-47.5466
0
LINE
8
BLACK
6
CONTINUOUS
10
78.815
20
-47.5466
11
78.815
21
-46.0084
0
LINE
8
BLACK
6
CONTINUOUS
10
78.815
20
-46.0084
11
78.815
21
-46.0084
0
LINE
8
BLACK
6
CONTINUOUS
10
78.815
20
-46.0084
11
78.815
21
-46.0018
0
LINE
8
BLACK
6
CONTINUOUS
10
78.815
20
-46.0018
11
78.8173
21
-45.9955
0
LINE
8
BLACK
6
CONTINUOUS
10
78.8173
20
-45.9955
11
78.8184
21
-45.989
0
LINE
8
BLACK
6
CONTINUOUS
10
78.8184
20
-45.989
11
78.8218
21
-45.9832
0
LINE
8
BLACK
6
CONTINUOUS
10
78.8218
20
-45.9832
11
78.824
21
-45.9769
0
LINE
8
BLACK
6
CONTINUOUS
10
78.824
20
-45.9769
11
78.8283
21
-45.9718
0
LINE
8
BLACK
6
CONTINUOUS
10
78.8283
20
-45.9718
11
78.8317
21
-45.966
0
LINE
8
BLACK
6
CONTINUOUS
10
78.8317
20
-45.966
11
78.8368
21
-45.9618
0
LINE
8
BLACK
6
CONTINUOUS
10
78.8368
20
-45.9618
11
78.841
21
-45.9567
0
LINE
8
BLACK
6
CONTINUOUS
10
78.841
20
-45.9567
11
78.8468
21
-45.9533
0
LINE
8
BLACK
6
CONTINUOUS
10
78.8468
20
-45.9533
11
78.8519
21
-45.949
0
LINE
8
BLACK
6
CONTINUOUS
10
78.8519
20
-45.949
11
78.8582
21
-45.9468
0
LINE
8
BLACK
6
CONTINUOUS
10
78.8582
20
-45.9468
11
78.864
21
-45.9434
0
LINE
8
BLACK
6
CONTINUOUS
10
78.864
20
-45.9434
11
78.8705
21
-45.9423
0
LINE
8
BLACK
6
CONTINUOUS
10
78.8705
20
-45.9423
11
78.8768
21
-45.94
0
LINE
8
BLACK
6
CONTINUOUS
10
78.8768
20
-45.94
11
78.8834
21
-45.94
0
LINE
8
BLACK
6
CONTINUOUS
10
78.8834
20
-45.94
11
78.8834
21
-45.94
0
LINE
8
BLACK
6
CONTINUOUS
10
78.8834
20
-45.94
11
80.34
21
-45.94
0
LINE
8
BLACK
6
CONTINUOUS
10
80.34
20
-45.94
11
80.34
21
-38.34
0
LINE
8
BLACK
6
CONTINUOUS
10
80.34
20
-38.34
11
78.8034
21
-38.34
0
LINE
8
BLACK
6
CONTINUOUS
10
78.8034
20
-38.34
11
78.784
21
-38.3366
0
LINE
8
BLACK
6
CONTINUOUS
10
78.784
20
-38.3366
11
78.761
21
-38.3233
0
LINE
8
BLACK
6
CONTINUOUS
10
78.761
20
-38.3233
11
78.744
21
-38.3031
0
LINE
8
BLACK
6
CONTINUOUS
10
78.744
20
-38.3031
11
78.735
21
-38.2782
0
LINE
8
BLACK
6
CONTINUOUS
10
78.735
20
-38.2782
11
78.735
21
-38.2518
0
LINE
8
BLACK
6
CONTINUOUS
10
78.735
20
-38.2518
11
78.744
21
-38.2269
0
LINE
8
BLACK
6
CONTINUOUS
10
78.744
20
-38.2269
11
78.761
21
-38.2067
0
LINE
8
BLACK
6
CONTINUOUS
10
78.761
20
-38.2067
11
78.784
21
-38.1934
0
LINE
8
BLACK
6
CONTINUOUS
10
78.784
20
-38.1934
11
78.8034
21
-38.19
0
LINE
8
BLACK
6
CONTINUOUS
10
78.8034
20
-38.19
11
80.4216
21
-38.19
0
LINE
8
BLACK
6
CONTINUOUS
10
80.4216
20
-38.19
11
80.4216
21
-38.19
0
LINE
8
BLACK
6
CONTINUOUS
10
68.896
20
-38.1934
11
68.919
21
-38.2067
0
LINE
8
BLACK
6
CONTINUOUS
10
68.919
20
-38.2067
11
68.936
21
-38.2269
0
LINE
8
BLACK
6
CONTINUOUS
10
68.936
20
-38.2269
11
68.945
21
-38.2518
0
LINE
8
BLACK
6
CONTINUOUS
10
68.945
20
-38.2518
11
68.945
21
-38.2782
0
LINE
8
BLACK
6
CONTINUOUS
10
68.945
20
-38.2782
11
68.936
21
-38.3031
0
LINE
8
BLACK
6
CONTINUOUS
10
68.936
20
-38.3031
11
68.919
21
-38.3233
0
LINE
8
BLACK
6
CONTINUOUS
10
68.919
20
-38.3233
11
68.896
21
-38.3366
0
LINE
8
BLACK
6
CONTINUOUS
10
68.896
20
-38.3366
11
68.8766
21
-38.34
0
LINE
8
BLACK
6
CONTINUOUS
10
68.8766
20
-38.34
11
67.34
21
-38.34
0
LINE
8
BLACK
6
CONTINUOUS
10
67.34
20
-38.34
11
67.34
21
-45.94
0
LINE
8
BLACK
6
CONTINUOUS
10
67.34
20
-45.94
11
68.8766
21
-45.94
0
LINE
8
BLACK
6
CONTINUOUS
10
68.8766
20
-45.94
11
68.896
21
-45.9434
0
LINE
8
BLACK
6
CONTINUOUS
10
68.896
20
-45.9434
11
68.919
21
-45.9567
0
LINE
8
BLACK
6
CONTINUOUS
10
68.919
20
-45.9567
11
68.936
21
-45.9769
0
LINE
8
BLACK
6
CONTINUOUS
10
68.936
20
-45.9769
11
68.945
21
-46.0018
0
LINE
8
BLACK
6
CONTINUOUS
10
68.945
20
-46.0018
11
68.945
21
-46.0282
0
LINE
8
BLACK
6
CONTINUOUS
10
68.945
20
-46.0282
11
68.936
21
-46.0531
0
LINE
8
BLACK
6
CONTINUOUS
10
68.936
20
-46.0531
11
68.919
21
-46.0733
0
LINE
8
BLACK
6
CONTINUOUS
10
68.919
20
-46.0733
11
68.896
21
-46.0866
0
LINE
8
BLACK
6
CONTINUOUS
10
68.896
20
-46.0866
11
68.8766
21
-46.09
0
LINE
8
BLACK
6
CONTINUOUS
10
68.8766
20
-46.09
11
67.2584
21
-46.09
0
LINE
8
BLACK
6
CONTINUOUS
10
67.2584
20
-46.09
11
67.2584
21
-46.09
0
LINE
8
BLACK
6
CONTINUOUS
10
67.2584
20
-46.09
11
67.2518
21
-46.09
0
LINE
8
BLACK
6
CONTINUOUS
10
67.2518
20
-46.09
11
67.2455
21
-46.0877
0
LINE
8
BLACK
6
CONTINUOUS
10
67.2455
20
-46.0877
11
67.239
21
-46.0866
0
LINE
8
BLACK
6
CONTINUOUS
10
67.239
20
-46.0866
11
67.2332
21
-46.0832
0
LINE
8
BLACK
6
CONTINUOUS
10
67.2332
20
-46.0832
11
67.2269
21
-46.081
0
LINE
8
BLACK
6
CONTINUOUS
10
67.2269
20
-46.081
11
67.2218
21
-46.0767
0
LINE
8
BLACK
6
CONTINUOUS
10
67.2218
20
-46.0767
11
67.216
21
-46.0733
0
LINE
8
BLACK
6
CONTINUOUS
10
67.216
20
-46.0733
11
67.2118
21
-46.0682
0
LINE
8
BLACK
6
CONTINUOUS
10
67.2118
20
-46.0682
11
67.2067
21
-46.064
0
LINE
8
BLACK
6
CONTINUOUS
10
67.2067
20
-46.064
11
67.2033
21
-46.0582
0
LINE
8
BLACK
6
CONTINUOUS
10
67.2033
20
-46.0582
11
67.199
21
-46.0531
0
LINE
8
BLACK
6
CONTINUOUS
10
67.199
20
-46.0531
11
67.1968
21
-46.0468
0
LINE
8
BLACK
6
CONTINUOUS
10
67.1968
20
-46.0468
11
67.1934
21
-46.041
0
LINE
8
BLACK
6
CONTINUOUS
10
67.1934
20
-46.041
11
67.1923
21
-46.0345
0
LINE
8
BLACK
6
CONTINUOUS
10
67.1923
20
-46.0345
11
67.19
21
-46.0282
0
LINE
8
BLACK
6
CONTINUOUS
10
67.19
20
-46.0282
11
67.19
21
-46.0216
0
LINE
8
BLACK
6
CONTINUOUS
10
67.19
20
-46.0216
11
67.19
21
-46.0216
0
LINE
8
BLACK
6
CONTINUOUS
10
67.19
20
-46.0216
11
67.19
21
-38.2584
0
LINE
8
BLACK
6
CONTINUOUS
10
67.19
20
-38.2584
11
67.19
21
-38.2518
0
LINE
8
BLACK
6
CONTINUOUS
10
67.19
20
-38.2518
11
67.1923
21
-38.2455
0
LINE
8
BLACK
6
CONTINUOUS
10
67.1923
20
-38.2455
11
67.1934
21
-38.239
0
LINE
8
BLACK
6
CONTINUOUS
10
67.1934
20
-38.239
11
67.1968
21
-38.2332
0
LINE
8
BLACK
6
CONTINUOUS
10
67.1968
20
-38.2332
11
67.199
21
-38.2269
0
LINE
8
BLACK
6
CONTINUOUS
10
67.199
20
-38.2269
11
67.2033
21
-38.2218
0
LINE
8
BLACK
6
CONTINUOUS
10
67.2033
20
-38.2218
11
67.2067
21
-38.216
0
LINE
8
BLACK
6
CONTINUOUS
10
67.2067
20
-38.216
11
67.2118
21
-38.2118
0
LINE
8
BLACK
6
CONTINUOUS
10
67.2118
20
-38.2118
11
67.216
21
-38.2067
0
LINE
8
BLACK
6
CONTINUOUS
10
67.216
20
-38.2067
11
67.2218
21
-38.2033
0
LINE
8
BLACK
6
CONTINUOUS
10
67.2218
20
-38.2033
11
67.2269
21
-38.199
0
LINE
8
BLACK
6
CONTINUOUS
10
67.2269
20
-38.199
11
67.2332
21
-38.1968
0
LINE
8
BLACK
6
CONTINUOUS
10
67.2332
20
-38.1968
11
67.239
21
-38.1934
0
LINE
8
BLACK
6
CONTINUOUS
10
67.239
20
-38.1934
11
67.2455
21
-38.1923
0
LINE
8
BLACK
6
CONTINUOUS
10
67.2455
20
-38.1923
11
67.2518
21
-38.19
0
LINE
8
BLACK
6
CONTINUOUS
10
67.2518
20
-38.19
11
67.2584
21
-38.19
0
LINE
8
BLACK
6
CONTINUOUS
10
67.2584
20
-38.19
11
67.2584
21
-38.19
0
LINE
8
BLACK
6
CONTINUOUS
10
67.2584
20
-38.19
11
68.8766
21
-38.19
0
LINE
8
BLACK
6
CONTINUOUS
10
68.8766
20
-38.19
11
68.896
21
-38.1934
0
LINE
8
BLACK
6
CONTINUOUS
10
110.087
20
-43.7881
11
110.091
21
-43.7879
0
LINE
8
BLACK
6
CONTINUOUS
10
110.091
20
-43.7879
11
110.1
21
-43.7904
0
LINE
8
BLACK
6
CONTINUOUS
10
110.1
20
-43.7904
11
110.109
21
-43.7919
0
LINE
8
BLACK
6
CONTINUOUS
10
110.109
20
-43.7919
11
110.112
21
-43.7941
0
LINE
8
BLACK
6
CONTINUOUS
10
110.112
20
-43.7941
11
110.116
21
-43.7953
0
LINE
8
BLACK
6
CONTINUOUS
10
110.116
20
-43.7953
11
110.212
21
-43.8429
0
LINE
8
BLACK
6
CONTINUOUS
10
110.212
20
-43.8429
11
110.221
21
-43.8501
0
LINE
8
BLACK
6
CONTINUOUS
10
110.221
20
-43.8501
11
110.231
21
-43.857
0
LINE
8
BLACK
6
CONTINUOUS
10
110.231
20
-43.857
11
110.279
21
-43.9046
0
LINE
8
BLACK
6
CONTINUOUS
10
110.279
20
-43.9046
11
110.294
21
-43.9259
0
LINE
8
BLACK
6
CONTINUOUS
10
110.294
20
-43.9259
11
110.3
21
-43.9511
0
LINE
8
BLACK
6
CONTINUOUS
10
110.3
20
-43.9511
11
110.298
21
-43.977
0
LINE
8
BLACK
6
CONTINUOUS
10
110.298
20
-43.977
11
110.287
21
-44.0006
0
LINE
8
BLACK
6
CONTINUOUS
10
110.287
20
-44.0006
11
110.269
21
-44.0191
0
LINE
8
BLACK
6
CONTINUOUS
10
110.269
20
-44.0191
11
110.245
21
-44.0301
0
LINE
8
BLACK
6
CONTINUOUS
10
110.245
20
-44.0301
11
110.219
21
-44.0323
0
LINE
8
BLACK
6
CONTINUOUS
10
110.219
20
-44.0323
11
110.194
21
-44.0256
0
LINE
8
BLACK
6
CONTINUOUS
10
110.194
20
-44.0256
11
110.173
21
-44.0107
0
LINE
8
BLACK
6
CONTINUOUS
10
110.173
20
-44.0107
11
110.134
21
-43.9716
0
LINE
8
BLACK
6
CONTINUOUS
10
110.134
20
-43.9716
11
110.065
21
-43.9374
0
LINE
8
BLACK
6
CONTINUOUS
10
110.065
20
-43.9374
11
109.862
21
-43.9374
0
LINE
8
BLACK
6
CONTINUOUS
10
109.862
20
-43.9374
11
109.794
21
-43.9716
0
LINE
8
BLACK
6
CONTINUOUS
10
109.794
20
-43.9716
11
109.764
21
-44.002
0
LINE
8
BLACK
6
CONTINUOUS
10
109.764
20
-44.002
11
109.729
21
-44.0706
0
LINE
8
BLACK
6
CONTINUOUS
10
109.729
20
-44.0706
11
109.729
21
-44.1359
0
LINE
8
BLACK
6
CONTINUOUS
10
109.729
20
-44.1359
11
109.767
21
-44.2504
0
LINE
8
BLACK
6
CONTINUOUS
10
109.767
20
-44.2504
11
110.326
21
-44.8093
0
LINE
8
BLACK
6
CONTINUOUS
10
110.326
20
-44.8093
11
110.332
21
-44.8174
0
LINE
8
BLACK
6
CONTINUOUS
10
110.332
20
-44.8174
11
110.338
21
-44.8249
0
LINE
8
BLACK
6
CONTINUOUS
10
110.338
20
-44.8249
11
110.339
21
-44.828
0
LINE
8
BLACK
6
CONTINUOUS
10
110.339
20
-44.828
11
110.341
21
-44.8307
0
LINE
8
BLACK
6
CONTINUOUS
10
110.341
20
-44.8307
11
110.344
21
-44.8401
0
LINE
8
BLACK
6
CONTINUOUS
10
110.344
20
-44.8401
11
110.347
21
-44.8494
0
LINE
8
BLACK
6
CONTINUOUS
10
110.347
20
-44.8494
11
110.347
21
-44.8527
0
LINE
8
BLACK
6
CONTINUOUS
10
110.347
20
-44.8527
11
110.348
21
-44.8558
0
LINE
8
BLACK
6
CONTINUOUS
10
110.348
20
-44.8558
11
110.347
21
-44.8656
0
LINE
8
BLACK
6
CONTINUOUS
10
110.347
20
-44.8656
11
110.347
21
-44.8754
0
LINE
8
BLACK
6
CONTINUOUS
10
110.347
20
-44.8754
11
110.346
21
-44.8785
0
LINE
8
BLACK
6
CONTINUOUS
10
110.346
20
-44.8785
11
110.346
21
-44.8818
0
LINE
8
BLACK
6
CONTINUOUS
10
110.346
20
-44.8818
11
110.342
21
-44.8907
0
LINE
8
BLACK
6
CONTINUOUS
10
110.342
20
-44.8907
11
110.338
21
-44.8999
0
LINE
8
BLACK
6
CONTINUOUS
10
110.338
20
-44.8999
11
110.336
21
-44.9024
0
LINE
8
BLACK
6
CONTINUOUS
10
110.336
20
-44.9024
11
110.335
21
-44.9054
0
LINE
8
BLACK
6
CONTINUOUS
10
110.335
20
-44.9054
11
110.328
21
-44.9123
0
LINE
8
BLACK
6
CONTINUOUS
10
110.328
20
-44.9123
11
110.322
21
-44.9198
0
LINE
8
BLACK
6
CONTINUOUS
10
110.322
20
-44.9198
11
110.319
21
-44.9215
0
LINE
8
BLACK
6
CONTINUOUS
10
110.319
20
-44.9215
11
110.316
21
-44.9238
0
LINE
8
BLACK
6
CONTINUOUS
10
110.316
20
-44.9238
11
110.307
21
-44.928
0
LINE
8
BLACK
6
CONTINUOUS
10
110.307
20
-44.928
11
110.299
21
-44.9329
0
LINE
8
BLACK
6
CONTINUOUS
10
110.299
20
-44.9329
11
110.296
21
-44.9334
0
LINE
8
BLACK
6
CONTINUOUS
10
110.296
20
-44.9334
11
110.293
21
-44.9348
0
LINE
8
BLACK
6
CONTINUOUS
10
110.293
20
-44.9348
11
110.283
21
-44.9357
0
LINE
8
BLACK
6
CONTINUOUS
10
110.283
20
-44.9357
11
110.273
21
-44.9374
0
LINE
8
BLACK
6
CONTINUOUS
10
110.273
20
-44.9374
11
109.654
21
-44.9374
0
LINE
8
BLACK
6
CONTINUOUS
10
109.654
20
-44.9374
11
109.629
21
-44.9329
0
LINE
8
BLACK
6
CONTINUOUS
10
109.629
20
-44.9329
11
109.606
21
-44.9198
0
LINE
8
BLACK
6
CONTINUOUS
10
109.606
20
-44.9198
11
109.589
21
-44.8999
0
LINE
8
BLACK
6
CONTINUOUS
10
109.589
20
-44.8999
11
109.58
21
-44.8754
0
LINE
8
BLACK
6
CONTINUOUS
10
109.58
20
-44.8754
11
109.58
21
-44.8494
0
LINE
8
BLACK
6
CONTINUOUS
10
109.58
20
-44.8494
11
109.589
21
-44.8249
0
LINE
8
BLACK
6
CONTINUOUS
10
109.589
20
-44.8249
11
109.606
21
-44.8049
0
LINE
8
BLACK
6
CONTINUOUS
10
109.606
20
-44.8049
11
109.629
21
-44.7919
0
LINE
8
BLACK
6
CONTINUOUS
10
109.629
20
-44.7919
11
109.654
21
-44.7874
0
LINE
8
BLACK
6
CONTINUOUS
10
109.654
20
-44.7874
11
110.092
21
-44.7874
0
LINE
8
BLACK
6
CONTINUOUS
10
110.092
20
-44.7874
11
109.649
21
-44.344
0
LINE
8
BLACK
6
CONTINUOUS
10
109.649
20
-44.344
11
109.646
21
-44.3404
0
LINE
8
BLACK
6
CONTINUOUS
10
109.646
20
-44.3404
11
109.643
21
-44.3376
0
LINE
8
BLACK
6
CONTINUOUS
10
109.643
20
-44.3376
11
109.639
21
-44.3298
0
LINE
8
BLACK
6
CONTINUOUS
10
109.639
20
-44.3298
11
109.634
21
-44.3226
0
LINE
8
BLACK
6
CONTINUOUS
10
109.634
20
-44.3226
11
109.633
21
-44.3185
0
LINE
8
BLACK
6
CONTINUOUS
10
109.633
20
-44.3185
11
109.631
21
-44.3147
0
LINE
8
BLACK
6
CONTINUOUS
10
109.631
20
-44.3147
11
109.583
21
-44.1718
0
LINE
8
BLACK
6
CONTINUOUS
10
109.583
20
-44.1718
11
109.581
21
-44.1599
0
LINE
8
BLACK
6
CONTINUOUS
10
109.581
20
-44.1599
11
109.579
21
-44.1481
0
LINE
8
BLACK
6
CONTINUOUS
10
109.579
20
-44.1481
11
109.579
21
-44.0529
0
LINE
8
BLACK
6
CONTINUOUS
10
109.579
20
-44.0529
11
109.58
21
-44.0486
0
LINE
8
BLACK
6
CONTINUOUS
10
109.58
20
-44.0486
11
109.58
21
-44.0443
0
LINE
8
BLACK
6
CONTINUOUS
10
109.58
20
-44.0443
11
109.582
21
-44.0359
0
LINE
8
BLACK
6
CONTINUOUS
10
109.582
20
-44.0359
11
109.584
21
-44.0272
0
LINE
8
BLACK
6
CONTINUOUS
10
109.584
20
-44.0272
11
109.586
21
-44.0235
0
LINE
8
BLACK
6
CONTINUOUS
10
109.586
20
-44.0235
11
109.587
21
-44.0193
0
LINE
8
BLACK
6
CONTINUOUS
10
109.587
20
-44.0193
11
109.635
21
-43.9241
0
LINE
8
BLACK
6
CONTINUOUS
10
109.635
20
-43.9241
11
109.642
21
-43.9144
0
LINE
8
BLACK
6
CONTINUOUS
10
109.642
20
-43.9144
11
109.649
21
-43.9046
0
LINE
8
BLACK
6
CONTINUOUS
10
109.649
20
-43.9046
11
109.696
21
-43.857
0
LINE
8
BLACK
6
CONTINUOUS
10
109.696
20
-43.857
11
109.706
21
-43.8501
0
LINE
8
BLACK
6
CONTINUOUS
10
109.706
20
-43.8501
11
109.716
21
-43.8429
0
LINE
8
BLACK
6
CONTINUOUS
10
109.716
20
-43.8429
11
109.811
21
-43.7953
0
LINE
8
BLACK
6
CONTINUOUS
10
109.811
20
-43.7953
11
109.815
21
-43.7941
0
LINE
8
BLACK
6
CONTINUOUS
10
109.815
20
-43.7941
11
109.819
21
-43.7919
0
LINE
8
BLACK
6
CONTINUOUS
10
109.819
20
-43.7919
11
109.828
21
-43.7904
0
LINE
8
BLACK
6
CONTINUOUS
10
109.828
20
-43.7904
11
109.836
21
-43.7879
0
LINE
8
BLACK
6
CONTINUOUS
10
109.836
20
-43.7879
11
109.841
21
-43.7881
0
LINE
8
BLACK
6
CONTINUOUS
10
109.841
20
-43.7881
11
109.845
21
-43.7874
0
LINE
8
BLACK
6
CONTINUOUS
10
109.845
20
-43.7874
11
110.083
21
-43.7874
0
LINE
8
BLACK
6
CONTINUOUS
10
110.083
20
-43.7874
11
110.087
21
-43.7881
0
LINE
8
BLACK
6
CONTINUOUS
10
111.185
20
-43.7885
11
111.191
21
-43.7885
0
LINE
8
BLACK
6
CONTINUOUS
10
111.191
20
-43.7885
11
111.197
21
-43.7908
0
LINE
8
BLACK
6
CONTINUOUS
10
111.197
20
-43.7908
11
111.204
21
-43.7919
0
LINE
8
BLACK
6
CONTINUOUS
10
111.204
20
-43.7919
11
111.209
21
-43.7952
0
LINE
8
BLACK
6
CONTINUOUS
10
111.209
20
-43.7952
11
111.216
21
-43.7974
0
LINE
8
BLACK
6
CONTINUOUS
10
111.216
20
-43.7974
11
111.221
21
-43.8016
0
LINE
8
BLACK
6
CONTINUOUS
10
111.221
20
-43.8016
11
111.226
21
-43.8049
0
LINE
8
BLACK
6
CONTINUOUS
10
111.226
20
-43.8049
11
111.231
21
-43.81
0
LINE
8
BLACK
6
CONTINUOUS
10
111.231
20
-43.81
11
111.236
21
-43.8142
0
LINE
8
BLACK
6
CONTINUOUS
10
111.236
20
-43.8142
11
111.239
21
-43.8199
0
LINE
8
BLACK
6
CONTINUOUS
10
111.239
20
-43.8199
11
111.243
21
-43.8249
0
LINE
8
BLACK
6
CONTINUOUS
10
111.243
20
-43.8249
11
111.245
21
-43.831
0
LINE
8
BLACK
6
CONTINUOUS
10
111.245
20
-43.831
11
111.249
21
-43.8367
0
LINE
8
BLACK
6
CONTINUOUS
10
111.249
20
-43.8367
11
111.25
21
-43.8432
0
LINE
8
BLACK
6
CONTINUOUS
10
111.25
20
-43.8432
11
111.252
21
-43.8494
0
LINE
8
BLACK
6
CONTINUOUS
10
111.252
20
-43.8494
11
111.252
21
-43.8559
0
LINE
8
BLACK
6
CONTINUOUS
10
111.252
20
-43.8559
11
111.253
21
-43.8624
0
LINE
8
BLACK
6
CONTINUOUS
10
111.253
20
-43.8624
11
111.253
21
-44.8624
0
LINE
8
BLACK
6
CONTINUOUS
10
111.253
20
-44.8624
11
111.249
21
-44.888
0
LINE
8
BLACK
6
CONTINUOUS
10
111.249
20
-44.888
11
111.236
21
-44.9106
0
LINE
8
BLACK
6
CONTINUOUS
10
111.236
20
-44.9106
11
111.216
21
-44.9273
0
LINE
8
BLACK
6
CONTINUOUS
10
111.216
20
-44.9273
11
111.191
21
-44.9362
0
LINE
8
BLACK
6
CONTINUOUS
10
111.191
20
-44.9362
11
111.165
21
-44.9362
0
LINE
8
BLACK
6
CONTINUOUS
10
111.165
20
-44.9362
11
111.141
21
-44.9273
0
LINE
8
BLACK
6
CONTINUOUS
10
111.141
20
-44.9273
11
111.121
21
-44.9106
0
LINE
8
BLACK
6
CONTINUOUS
10
111.121
20
-44.9106
11
111.108
21
-44.888
0
LINE
8
BLACK
6
CONTINUOUS
10
111.108
20
-44.888
11
111.103
21
-44.8624
0
LINE
8
BLACK
6
CONTINUOUS
10
111.103
20
-44.8624
11
111.103
21
-44.4612
0
LINE
8
BLACK
6
CONTINUOUS
10
111.103
20
-44.4612
11
110.979
21
-44.4612
0
LINE
8
BLACK
6
CONTINUOUS
10
110.979
20
-44.4612
11
110.668
21
-44.9054
0
LINE
8
BLACK
6
CONTINUOUS
10
110.668
20
-44.9054
11
110.65
21
-44.9238
0
LINE
8
BLACK
6
CONTINUOUS
10
110.65
20
-44.9238
11
110.626
21
-44.9348
0
LINE
8
BLACK
6
CONTINUOUS
10
110.626
20
-44.9348
11
110.6
21
-44.9371
0
LINE
8
BLACK
6
CONTINUOUS
10
110.6
20
-44.9371
11
110.575
21
-44.9304
0
LINE
8
BLACK
6
CONTINUOUS
10
110.575
20
-44.9304
11
110.554
21
-44.9154
0
LINE
8
BLACK
6
CONTINUOUS
10
110.554
20
-44.9154
11
110.539
21
-44.8941
0
LINE
8
BLACK
6
CONTINUOUS
10
110.539
20
-44.8941
11
110.532
21
-44.8689
0
LINE
8
BLACK
6
CONTINUOUS
10
110.532
20
-44.8689
11
110.534
21
-44.843
0
LINE
8
BLACK
6
CONTINUOUS
10
110.534
20
-44.843
11
110.545
21
-44.8194
0
LINE
8
BLACK
6
CONTINUOUS
10
110.545
20
-44.8194
11
110.796
21
-44.461
0
LINE
8
BLACK
6
CONTINUOUS
10
110.796
20
-44.461
11
110.793
21
-44.4604
0
LINE
8
BLACK
6
CONTINUOUS
10
110.793
20
-44.4604
11
110.789
21
-44.4607
0
LINE
8
BLACK
6
CONTINUOUS
10
110.789
20
-44.4607
11
110.78
21
-44.4582
0
LINE
8
BLACK
6
CONTINUOUS
10
110.78
20
-44.4582
11
110.771
21
-44.4567
0
LINE
8
BLACK
6
CONTINUOUS
10
110.771
20
-44.4567
11
110.768
21
-44.4545
0
LINE
8
BLACK
6
CONTINUOUS
10
110.768
20
-44.4545
11
110.764
21
-44.4533
0
LINE
8
BLACK
6
CONTINUOUS
10
110.764
20
-44.4533
11
110.668
21
-44.4057
0
LINE
8
BLACK
6
CONTINUOUS
10
110.668
20
-44.4057
11
110.659
21
-44.3985
0
LINE
8
BLACK
6
CONTINUOUS
10
110.659
20
-44.3985
11
110.649
21
-44.3916
0
LINE
8
BLACK
6
CONTINUOUS
10
110.649
20
-44.3916
11
110.601
21
-44.344
0
LINE
8
BLACK
6
CONTINUOUS
10
110.601
20
-44.344
11
110.594
21
-44.3342
0
LINE
8
BLACK
6
CONTINUOUS
10
110.594
20
-44.3342
11
110.587
21
-44.3245
0
LINE
8
BLACK
6
CONTINUOUS
10
110.587
20
-44.3245
11
110.54
21
-44.2293
0
LINE
8
BLACK
6
CONTINUOUS
10
110.54
20
-44.2293
11
110.538
21
-44.2251
0
LINE
8
BLACK
6
CONTINUOUS
10
110.538
20
-44.2251
11
110.536
21
-44.2214
0
LINE
8
BLACK
6
CONTINUOUS
10
110.536
20
-44.2214
11
110.535
21
-44.2127
0
LINE
8
BLACK
6
CONTINUOUS
10
110.535
20
-44.2127
11
110.532
21
-44.2043
0
LINE
8
BLACK
6
CONTINUOUS
10
110.532
20
-44.2043
11
110.532
21
-44.2
0
LINE
8
BLACK
6
CONTINUOUS
10
110.532
20
-44.2
11
110.532
21
-44.1957
0
LINE
8
BLACK
6
CONTINUOUS
10
110.532
20
-44.1957
11
110.532
21
-44.0529
0
LINE
8
BLACK
6
CONTINUOUS
10
110.532
20
-44.0529
11
110.532
21
-44.0486
0
LINE
8
BLACK
6
CONTINUOUS
10
110.532
20
-44.0486
11
110.532
21
-44.0443
0
LINE
8
BLACK
6
CONTINUOUS
10
110.532
20
-44.0443
11
110.535
21
-44.0359
0
LINE
8
BLACK
6
CONTINUOUS
10
110.535
20
-44.0359
11
110.536
21
-44.0272
0
LINE
8
BLACK
6
CONTINUOUS
10
110.536
20
-44.0272
11
110.538
21
-44.0235
0
LINE
8
BLACK
6
CONTINUOUS
10
110.538
20
-44.0235
11
110.54
21
-44.0193
0
LINE
8
BLACK
6
CONTINUOUS
10
110.54
20
-44.0193
11
110.587
21
-43.9241
0
LINE
8
BLACK
6
CONTINUOUS
10
110.587
20
-43.9241
11
110.594
21
-43.9144
0
LINE
8
BLACK
6
CONTINUOUS
10
110.594
20
-43.9144
11
110.601
21
-43.9046
0
LINE
8
BLACK
6
CONTINUOUS
10
110.601
20
-43.9046
11
110.649
21
-43.857
0
LINE
8
BLACK
6
CONTINUOUS
10
110.649
20
-43.857
11
110.659
21
-43.8501
0
LINE
8
BLACK
6
CONTINUOUS
10
110.659
20
-43.8501
11
110.668
21
-43.8429
0
LINE
8
BLACK
6
CONTINUOUS
10
110.668
20
-43.8429
11
110.764
21
-43.7953
0
LINE
8
BLACK
6
CONTINUOUS
10
110.764
20
-43.7953
11
110.768
21
-43.7941
0
LINE
8
BLACK
6
CONTINUOUS
10
110.768
20
-43.7941
11
110.771
21
-43.7919
0
LINE
8
BLACK
6
CONTINUOUS
10
110.771
20
-43.7919
11
110.78
21
-43.7904
0
LINE
8
BLACK
6
CONTINUOUS
10
110.78
20
-43.7904
11
110.789
21
-43.7879
0
LINE
8
BLACK
6
CONTINUOUS
10
110.789
20
-43.7879
11
110.793
21
-43.7881
0
LINE
8
BLACK
6
CONTINUOUS
10
110.793
20
-43.7881
11
110.797
21
-43.7874
0
LINE
8
BLACK
6
CONTINUOUS
10
110.797
20
-43.7874
11
111.178
21
-43.7874
0
LINE
8
BLACK
6
CONTINUOUS
10
111.178
20
-43.7874
11
111.185
21
-43.7885
0
LINE
8
BLACK
6
CONTINUOUS
10
110.815
20
-43.9374
11
110.746
21
-43.9716
0
LINE
8
BLACK
6
CONTINUOUS
10
110.746
20
-43.9716
11
110.716
21
-44.002
0
LINE
8
BLACK
6
CONTINUOUS
10
110.716
20
-44.002
11
110.682
21
-44.0706
0
LINE
8
BLACK
6
CONTINUOUS
10
110.682
20
-44.0706
11
110.682
21
-44.178
0
LINE
8
BLACK
6
CONTINUOUS
10
110.682
20
-44.178
11
110.716
21
-44.2465
0
LINE
8
BLACK
6
CONTINUOUS
10
110.716
20
-44.2465
11
110.746
21
-44.2769
0
LINE
8
BLACK
6
CONTINUOUS
10
110.746
20
-44.2769
11
110.815
21
-44.3112
0
LINE
8
BLACK
6
CONTINUOUS
10
110.815
20
-44.3112
11
111.103
21
-44.3112
0
LINE
8
BLACK
6
CONTINUOUS
10
111.103
20
-44.3112
11
111.103
21
-43.9374
0
LINE
8
BLACK
6
CONTINUOUS
10
111.103
20
-43.9374
11
110.815
21
-43.9374
0
LINE
8
BLACK
6
CONTINUOUS
10
111.063
20
-43.4427
11
111.081
21
-43.4533
0
LINE
8
BLACK
6
CONTINUOUS
10
111.081
20
-43.4533
11
111.095
21
-43.4695
0
LINE
8
BLACK
6
CONTINUOUS
10
111.095
20
-43.4695
11
111.102
21
-43.4894
0
LINE
8
BLACK
6
CONTINUOUS
10
111.102
20
-43.4894
11
111.102
21
-43.5106
0
LINE
8
BLACK
6
CONTINUOUS
10
111.102
20
-43.5106
11
111.095
21
-43.5305
0
LINE
8
BLACK
6
CONTINUOUS
10
111.095
20
-43.5305
11
111.081
21
-43.5467
0
LINE
8
BLACK
6
CONTINUOUS
10
111.081
20
-43.5467
11
111.063
21
-43.5573
0
LINE
8
BLACK
6
CONTINUOUS
10
111.063
20
-43.5573
11
111.047
21
-43.56
0
LINE
8
BLACK
6
CONTINUOUS
10
111.047
20
-43.56
11
109.833
21
-43.56
0
LINE
8
BLACK
6
CONTINUOUS
10
109.833
20
-43.56
11
109.817
21
-43.5573
0
LINE
8
BLACK
6
CONTINUOUS
10
109.817
20
-43.5573
11
109.799
21
-43.5467
0
LINE
8
BLACK
6
CONTINUOUS
10
109.799
20
-43.5467
11
109.785
21
-43.5305
0
LINE
8
BLACK
6
CONTINUOUS
10
109.785
20
-43.5305
11
109.778
21
-43.5106
0
LINE
8
BLACK
6
CONTINUOUS
10
109.778
20
-43.5106
11
109.778
21
-43.4894
0
LINE
8
BLACK
6
CONTINUOUS
10
109.778
20
-43.4894
11
109.785
21
-43.4695
0
LINE
8
BLACK
6
CONTINUOUS
10
109.785
20
-43.4695
11
109.799
21
-43.4533
0
LINE
8
BLACK
6
CONTINUOUS
10
109.799
20
-43.4533
11
109.817
21
-43.4427
0
LINE
8
BLACK
6
CONTINUOUS
10
109.817
20
-43.4427
11
109.833
21
-43.44
0
LINE
8
BLACK
6
CONTINUOUS
10
109.833
20
-43.44
11
111.047
21
-43.44
0
LINE
8
BLACK
6
CONTINUOUS
10
111.047
20
-43.44
11
111.063
21
-43.4427
0
LINE
8
BLACK
6
CONTINUOUS
10
81.0995
20
-42.3062
11
81.1228
21
-42.3179
0
LINE
8
BLACK
6
CONTINUOUS
10
81.1228
20
-42.3179
11
81.1407
21
-42.3368
0
LINE
8
BLACK
6
CONTINUOUS
10
81.1407
20
-42.3368
11
81.151
21
-42.3607
0
LINE
8
BLACK
6
CONTINUOUS
10
81.151
20
-42.3607
11
81.1526
21
-42.3867
0
LINE
8
BLACK
6
CONTINUOUS
10
81.1526
20
-42.3867
11
81.1452
21
-42.4116
0
LINE
8
BLACK
6
CONTINUOUS
10
81.1452
20
-42.4116
11
81.0976
21
-42.5069
0
LINE
8
BLACK
6
CONTINUOUS
10
81.0976
20
-42.5069
11
81.0904
21
-42.5165
0
LINE
8
BLACK
6
CONTINUOUS
10
81.0904
20
-42.5165
11
81.0835
21
-42.5264
0
LINE
8
BLACK
6
CONTINUOUS
10
81.0835
20
-42.5264
11
81.0211
21
-42.5888
0
LINE
8
BLACK
6
CONTINUOUS
10
81.0211
20
-42.5888
11
81.7174
21
-42.5888
0
LINE
8
BLACK
6
CONTINUOUS
10
81.7174
20
-42.5888
11
81.7174
21
-42.3781
0
LINE
8
BLACK
6
CONTINUOUS
10
81.7174
20
-42.3781
11
81.7219
21
-42.3524
0
LINE
8
BLACK
6
CONTINUOUS
10
81.7219
20
-42.3524
11
81.7349
21
-42.3299
0
LINE
8
BLACK
6
CONTINUOUS
10
81.7349
20
-42.3299
11
81.7549
21
-42.3131
0
LINE
8
BLACK
6
CONTINUOUS
10
81.7549
20
-42.3131
11
81.7794
21
-42.3042
0
LINE
8
BLACK
6
CONTINUOUS
10
81.7794
20
-42.3042
11
81.8054
21
-42.3042
0
LINE
8
BLACK
6
CONTINUOUS
10
81.8054
20
-42.3042
11
81.8299
21
-42.3131
0
LINE
8
BLACK
6
CONTINUOUS
10
81.8299
20
-42.3131
11
81.8498
21
-42.3299
0
LINE
8
BLACK
6
CONTINUOUS
10
81.8498
20
-42.3299
11
81.8629
21
-42.3524
0
LINE
8
BLACK
6
CONTINUOUS
10
81.8629
20
-42.3524
11
81.8674
21
-42.3781
0
LINE
8
BLACK
6
CONTINUOUS
10
81.8674
20
-42.3781
11
81.8674
21
-42.9495
0
LINE
8
BLACK
6
CONTINUOUS
10
81.8674
20
-42.9495
11
81.8629
21
-42.9752
0
LINE
8
BLACK
6
CONTINUOUS
10
81.8629
20
-42.9752
11
81.8498
21
-42.9977
0
LINE
8
BLACK
6
CONTINUOUS
10
81.8498
20
-42.9977
11
81.8299
21
-43.0145
0
LINE
8
BLACK
6
CONTINUOUS
10
81.8299
20
-43.0145
11
81.8054
21
-43.0234
0
LINE
8
BLACK
6
CONTINUOUS
10
81.8054
20
-43.0234
11
81.7794
21
-43.0234
0
LINE
8
BLACK
6
CONTINUOUS
10
81.7794
20
-43.0234
11
81.7549
21
-43.0145
0
LINE
8
BLACK
6
CONTINUOUS
10
81.7549
20
-43.0145
11
81.7349
21
-42.9977
0
LINE
8
BLACK
6
CONTINUOUS
10
81.7349
20
-42.9977
11
81.7219
21
-42.9752
0
LINE
8
BLACK
6
CONTINUOUS
10
81.7219
20
-42.9752
11
81.7174
21
-42.9495
0
LINE
8
BLACK
6
CONTINUOUS
10
81.7174
20
-42.9495
11
81.7174
21
-42.7388
0
LINE
8
BLACK
6
CONTINUOUS
10
81.7174
20
-42.7388
11
80.7924
21
-42.7388
0
LINE
8
BLACK
6
CONTINUOUS
10
80.7924
20
-42.7388
11
80.7883
21
-42.7381
0
LINE
8
BLACK
6
CONTINUOUS
10
80.7883
20
-42.7381
11
80.7841
21
-42.7384
0
LINE
8
BLACK
6
CONTINUOUS
10
80.7841
20
-42.7384
11
80.7755
21
-42.7358
0
LINE
8
BLACK
6
CONTINUOUS
10
80.7755
20
-42.7358
11
80.7667
21
-42.7343
0
LINE
8
BLACK
6
CONTINUOUS
10
80.7667
20
-42.7343
11
80.7631
21
-42.7322
0
LINE
8
BLACK
6
CONTINUOUS
10
80.7631
20
-42.7322
11
80.7591
21
-42.731
0
LINE
8
BLACK
6
CONTINUOUS
10
80.7591
20
-42.731
11
80.7519
21
-42.7257
0
LINE
8
BLACK
6
CONTINUOUS
10
80.7519
20
-42.7257
11
80.7442
21
-42.7213
0
LINE
8
BLACK
6
CONTINUOUS
10
80.7442
20
-42.7213
11
80.7415
21
-42.7181
0
LINE
8
BLACK
6
CONTINUOUS
10
80.7415
20
-42.7181
11
80.7381
21
-42.7156
0
LINE
8
BLACK
6
CONTINUOUS
10
80.7381
20
-42.7156
11
80.7332
21
-42.7082
0
LINE
8
BLACK
6
CONTINUOUS
10
80.7332
20
-42.7082
11
80.7274
21
-42.7013
0
LINE
8
BLACK
6
CONTINUOUS
10
80.7274
20
-42.7013
11
80.726
21
-42.6974
0
LINE
8
BLACK
6
CONTINUOUS
10
80.726
20
-42.6974
11
80.7237
21
-42.6939
0
LINE
8
BLACK
6
CONTINUOUS
10
80.7237
20
-42.6939
11
80.7216
21
-42.6852
0
LINE
8
BLACK
6
CONTINUOUS
10
80.7216
20
-42.6852
11
80.7185
21
-42.6768
0
LINE
8
BLACK
6
CONTINUOUS
10
80.7185
20
-42.6768
11
80.7185
21
-42.6727
0
LINE
8
BLACK
6
CONTINUOUS
10
80.7185
20
-42.6727
11
80.7175
21
-42.6686
0
LINE
8
BLACK
6
CONTINUOUS
10
80.7175
20
-42.6686
11
80.7185
21
-42.6597
0
LINE
8
BLACK
6
CONTINUOUS
10
80.7185
20
-42.6597
11
80.7185
21
-42.6508
0
LINE
8
BLACK
6
CONTINUOUS
10
80.7185
20
-42.6508
11
80.7199
21
-42.6469
0
LINE
8
BLACK
6
CONTINUOUS
10
80.7199
20
-42.6469
11
80.7204
21
-42.6427
0
LINE
8
BLACK
6
CONTINUOUS
10
80.7204
20
-42.6427
11
80.7244
21
-42.6347
0
LINE
8
BLACK
6
CONTINUOUS
10
80.7244
20
-42.6347
11
80.7274
21
-42.6263
0
LINE
8
BLACK
6
CONTINUOUS
10
80.7274
20
-42.6263
11
80.7301
21
-42.6231
0
LINE
8
BLACK
6
CONTINUOUS
10
80.7301
20
-42.6231
11
80.7319
21
-42.6194
0
LINE
8
BLACK
6
CONTINUOUS
10
80.7319
20
-42.6194
11
80.7384
21
-42.6132
0
LINE
8
BLACK
6
CONTINUOUS
10
80.7384
20
-42.6132
11
80.7442
21
-42.6064
0
LINE
8
BLACK
6
CONTINUOUS
10
80.7442
20
-42.6064
11
80.7478
21
-42.6043
0
LINE
8
BLACK
6
CONTINUOUS
10
80.7478
20
-42.6043
11
80.7508
21
-42.6014
0
LINE
8
BLACK
6
CONTINUOUS
10
80.7508
20
-42.6014
11
80.8875
21
-42.5103
0
LINE
8
BLACK
6
CONTINUOUS
10
80.8875
20
-42.5103
11
80.9688
21
-42.4289
0
LINE
8
BLACK
6
CONTINUOUS
10
80.9688
20
-42.4289
11
81.011
21
-42.3446
0
LINE
8
BLACK
6
CONTINUOUS
10
81.011
20
-42.3446
11
81.0265
21
-42.3236
0
LINE
8
BLACK
6
CONTINUOUS
10
81.0265
20
-42.3236
11
81.0483
21
-42.3093
0
LINE
8
BLACK
6
CONTINUOUS
10
81.0483
20
-42.3093
11
81.0736
21
-42.3032
0
LINE
8
BLACK
6
CONTINUOUS
10
81.0736
20
-42.3032
11
81.0995
21
-42.3062
0
LINE
8
BLACK
6
CONTINUOUS
10
81.6062
20
-41.3038
11
81.6105
21
-41.3036
0
LINE
8
BLACK
6
CONTINUOUS
10
81.6105
20
-41.3036
11
81.6189
21
-41.3061
0
LINE
8
BLACK
6
CONTINUOUS
10
81.6189
20
-41.3061
11
81.6276
21
-41.3076
0
LINE
8
BLACK
6
CONTINUOUS
10
81.6276
20
-41.3076
11
81.6313
21
-41.3098
0
LINE
8
BLACK
6
CONTINUOUS
10
81.6313
20
-41.3098
11
81.6354
21
-41.311
0
LINE
8
BLACK
6
CONTINUOUS
10
81.6354
20
-41.311
11
81.7307
21
-41.3586
0
LINE
8
BLACK
6
CONTINUOUS
10
81.7307
20
-41.3586
11
81.7403
21
-41.3658
0
LINE
8
BLACK
6
CONTINUOUS
10
81.7403
20
-41.3658
11
81.7502
21
-41.3727
0
LINE
8
BLACK
6
CONTINUOUS
10
81.7502
20
-41.3727
11
81.7978
21
-41.4203
0
LINE
8
BLACK
6
CONTINUOUS
10
81.7978
20
-41.4203
11
81.8047
21
-41.4301
0
LINE
8
BLACK
6
CONTINUOUS
10
81.8047
20
-41.4301
11
81.8118
21
-41.4398
0
LINE
8
BLACK
6
CONTINUOUS
10
81.8118
20
-41.4398
11
81.8595
21
-41.535
0
LINE
8
BLACK
6
CONTINUOUS
10
81.8595
20
-41.535
11
81.8607
21
-41.5392
0
LINE
8
BLACK
6
CONTINUOUS
10
81.8607
20
-41.5392
11
81.8629
21
-41.5429
0
LINE
8
BLACK
6
CONTINUOUS
10
81.8629
20
-41.5429
11
81.8644
21
-41.5516
0
LINE
8
BLACK
6
CONTINUOUS
10
81.8644
20
-41.5516
11
81.8669
21
-41.56
0
LINE
8
BLACK
6
CONTINUOUS
10
81.8669
20
-41.56
11
81.8666
21
-41.5643
0
LINE
8
BLACK
6
CONTINUOUS
10
81.8666
20
-41.5643
11
81.8674
21
-41.5686
0
LINE
8
BLACK
6
CONTINUOUS
10
81.8674
20
-41.5686
11
81.8674
21
-41.759
0
LINE
8
BLACK
6
CONTINUOUS
10
81.8674
20
-41.759
11
81.8666
21
-41.7633
0
LINE
8
BLACK
6
CONTINUOUS
10
81.8666
20
-41.7633
11
81.8669
21
-41.7676
0
LINE
8
BLACK
6
CONTINUOUS
10
81.8669
20
-41.7676
11
81.8644
21
-41.776
0
LINE
8
BLACK
6
CONTINUOUS
10
81.8644
20
-41.776
11
81.8629
21
-41.7847
0
LINE
8
BLACK
6
CONTINUOUS
10
81.8629
20
-41.7847
11
81.8607
21
-41.7884
0
LINE
8
BLACK
6
CONTINUOUS
10
81.8607
20
-41.7884
11
81.8595
21
-41.7926
0
LINE
8
BLACK
6
CONTINUOUS
10
81.8595
20
-41.7926
11
81.8118
21
-41.8878
0
LINE
8
BLACK
6
CONTINUOUS
10
81.8118
20
-41.8878
11
81.8047
21
-41.8975
0
LINE
8
BLACK
6
CONTINUOUS
10
81.8047
20
-41.8975
11
81.7978
21
-41.9073
0
LINE
8
BLACK
6
CONTINUOUS
10
81.7978
20
-41.9073
11
81.7502
21
-41.9549
0
LINE
8
BLACK
6
CONTINUOUS
10
81.7502
20
-41.9549
11
81.7403
21
-41.9618
0
LINE
8
BLACK
6
CONTINUOUS
10
81.7403
20
-41.9618
11
81.7307
21
-41.969
0
LINE
8
BLACK
6
CONTINUOUS
10
81.7307
20
-41.969
11
81.6354
21
-42.0166
0
LINE
8
BLACK
6
CONTINUOUS
10
81.6354
20
-42.0166
11
81.6313
21
-42.0178
0
LINE
8
BLACK
6
CONTINUOUS
10
81.6313
20
-42.0178
11
81.6276
21
-42.02
0
LINE
8
BLACK
6
CONTINUOUS
10
81.6276
20
-42.02
11
81.6189
21
-42.0215
0
LINE
8
BLACK
6
CONTINUOUS
10
81.6189
20
-42.0215
11
81.6105
21
-42.024
0
LINE
8
BLACK
6
CONTINUOUS
10
81.6105
20
-42.024
11
81.6062
21
-42.0238
0
LINE
8
BLACK
6
CONTINUOUS
10
81.6062
20
-42.0238
11
81.6019
21
-42.0245
0
LINE
8
BLACK
6
CONTINUOUS
10
81.6019
20
-42.0245
11
80.7924
21
-42.0245
0
LINE
8
BLACK
6
CONTINUOUS
10
80.7924
20
-42.0245
11
80.7667
21
-42.02
0
LINE
8
BLACK
6
CONTINUOUS
10
80.7667
20
-42.02
11
80.7442
21
-42.007
0
LINE
8
BLACK
6
CONTINUOUS
10
80.7442
20
-42.007
11
80.7274
21
-41.987
0
LINE
8
BLACK
6
CONTINUOUS
10
80.7274
20
-41.987
11
80.7185
21
-41.9625
0
LINE
8
BLACK
6
CONTINUOUS
10
80.7185
20
-41.9625
11
80.7185
21
-41.9365
0
LINE
8
BLACK
6
CONTINUOUS
10
80.7185
20
-41.9365
11
80.7274
21
-41.912
0
LINE
8
BLACK
6
CONTINUOUS
10
80.7274
20
-41.912
11
80.7442
21
-41.8921
0
LINE
8
BLACK
6
CONTINUOUS
10
80.7442
20
-41.8921
11
80.7667
21
-41.879
0
LINE
8
BLACK
6
CONTINUOUS
10
80.7667
20
-41.879
11
80.7924
21
-41.8745
0
LINE
8
BLACK
6
CONTINUOUS
10
80.7924
20
-41.8745
11
81.5842
21
-41.8745
0
LINE
8
BLACK
6
CONTINUOUS
10
81.5842
20
-41.8745
11
81.6527
21
-41.8403
0
LINE
8
BLACK
6
CONTINUOUS
10
81.6527
20
-41.8403
11
81.6831
21
-41.8099
0
LINE
8
BLACK
6
CONTINUOUS
10
81.6831
20
-41.8099
11
81.7174
21
-41.7413
0
LINE
8
BLACK
6
CONTINUOUS
10
81.7174
20
-41.7413
11
81.7174
21
-41.5863
0
LINE
8
BLACK
6
CONTINUOUS
10
81.7174
20
-41.5863
11
81.6831
21
-41.5178
0
LINE
8
BLACK
6
CONTINUOUS
10
81.6831
20
-41.5178
11
81.6527
21
-41.4874
0
LINE
8
BLACK
6
CONTINUOUS
10
81.6527
20
-41.4874
11
81.5842
21
-41.4531
0
LINE
8
BLACK
6
CONTINUOUS
10
81.5842
20
-41.4531
11
80.7924
21
-41.4531
0
LINE
8
BLACK
6
CONTINUOUS
10
80.7924
20
-41.4531
11
80.7667
21
-41.4486
0
LINE
8
BLACK
6
CONTINUOUS
10
80.7667
20
-41.4486
11
80.7442
21
-41.4355
0
LINE
8
BLACK
6
CONTINUOUS
10
80.7442
20
-41.4355
11
80.7274
21
-41.4156
0
LINE
8
BLACK
6
CONTINUOUS
10
80.7274
20
-41.4156
11
80.7185
21
-41.3911
0
LINE
8
BLACK
6
CONTINUOUS
10
80.7185
20
-41.3911
11
80.7185
21
-41.3651
0
LINE
8
BLACK
6
CONTINUOUS
10
80.7185
20
-41.3651
11
80.7274
21
-41.3406
0
LINE
8
BLACK
6
CONTINUOUS
10
80.7274
20
-41.3406
11
80.7442
21
-41.3206
0
LINE
8
BLACK
6
CONTINUOUS
10
80.7442
20
-41.3206
11
80.7667
21
-41.3076
0
LINE
8
BLACK
6
CONTINUOUS
10
80.7667
20
-41.3076
11
80.7924
21
-41.3031
0
LINE
8
BLACK
6
CONTINUOUS
10
80.7924
20
-41.3031
11
81.6019
21
-41.3031
0
LINE
8
BLACK
6
CONTINUOUS
10
81.6019
20
-41.3031
11
81.6062
21
-41.3038
0
LINE
8
BLACK
6
CONTINUOUS
10
111.063
20
-41.6227
11
111.081
21
-41.6333
0
LINE
8
BLACK
6
CONTINUOUS
10
111.081
20
-41.6333
11
111.095
21
-41.6495
0
LINE
8
BLACK
6
CONTINUOUS
10
111.095
20
-41.6495
11
111.102
21
-41.6694
0
LINE
8
BLACK
6
CONTINUOUS
10
111.102
20
-41.6694
11
111.102
21
-41.6906
0
LINE
8
BLACK
6
CONTINUOUS
10
111.102
20
-41.6906
11
111.095
21
-41.7105
0
LINE
8
BLACK
6
CONTINUOUS
10
111.095
20
-41.7105
11
111.081
21
-41.7267
0
LINE
8
BLACK
6
CONTINUOUS
10
111.081
20
-41.7267
11
111.063
21
-41.7373
0
LINE
8
BLACK
6
CONTINUOUS
10
111.063
20
-41.7373
11
111.047
21
-41.74
0
LINE
8
BLACK
6
CONTINUOUS
10
111.047
20
-41.74
11
109.833
21
-41.74
0
LINE
8
BLACK
6
CONTINUOUS
10
109.833
20
-41.74
11
109.817
21
-41.7373
0
LINE
8
BLACK
6
CONTINUOUS
10
109.817
20
-41.7373
11
109.799
21
-41.7267
0
LINE
8
BLACK
6
CONTINUOUS
10
109.799
20
-41.7267
11
109.785
21
-41.7105
0
LINE
8
BLACK
6
CONTINUOUS
10
109.785
20
-41.7105
11
109.778
21
-41.6906
0
LINE
8
BLACK
6
CONTINUOUS
10
109.778
20
-41.6906
11
109.778
21
-41.6694
0
LINE
8
BLACK
6
CONTINUOUS
10
109.778
20
-41.6694
11
109.785
21
-41.6495
0
LINE
8
BLACK
6
CONTINUOUS
10
109.785
20
-41.6495
11
109.799
21
-41.6333
0
LINE
8
BLACK
6
CONTINUOUS
10
109.799
20
-41.6333
11
109.817
21
-41.6227
0
LINE
8
BLACK
6
CONTINUOUS
10
109.817
20
-41.6227
11
109.833
21
-41.62
0
LINE
8
BLACK
6
CONTINUOUS
10
109.833
20
-41.62
11
111.047
21
-41.62
0
LINE
8
BLACK
6
CONTINUOUS
10
111.047
20
-41.62
11
111.063
21
-41.6227
0
LINE
8
BLACK
6
CONTINUOUS
10
109.664
20
-40.2685
11
109.673
21
-40.2685
0
LINE
8
BLACK
6
CONTINUOUS
10
109.673
20
-40.2685
11
109.677
21
-40.2699
0
LINE
8
BLACK
6
CONTINUOUS
10
109.677
20
-40.2699
11
109.681
21
-40.2704
0
LINE
8
BLACK
6
CONTINUOUS
10
109.681
20
-40.2704
11
109.689
21
-40.2744
0
LINE
8
BLACK
6
CONTINUOUS
10
109.689
20
-40.2744
11
109.697
21
-40.2774
0
LINE
8
BLACK
6
CONTINUOUS
10
109.697
20
-40.2774
11
109.701
21
-40.2801
0
LINE
8
BLACK
6
CONTINUOUS
10
109.701
20
-40.2801
11
109.704
21
-40.2819
0
LINE
8
BLACK
6
CONTINUOUS
10
109.704
20
-40.2819
11
109.711
21
-40.2884
0
LINE
8
BLACK
6
CONTINUOUS
10
109.711
20
-40.2884
11
109.717
21
-40.2942
0
LINE
8
BLACK
6
CONTINUOUS
10
109.717
20
-40.2942
11
109.72
21
-40.2978
0
LINE
8
BLACK
6
CONTINUOUS
10
109.72
20
-40.2978
11
109.722
21
-40.3008
0
LINE
8
BLACK
6
CONTINUOUS
10
109.722
20
-40.3008
11
109.814
21
-40.4375
0
LINE
8
BLACK
6
CONTINUOUS
10
109.814
20
-40.4375
11
109.895
21
-40.5188
0
LINE
8
BLACK
6
CONTINUOUS
10
109.895
20
-40.5188
11
109.979
21
-40.561
0
LINE
8
BLACK
6
CONTINUOUS
10
109.979
20
-40.561
11
110
21
-40.5765
0
LINE
8
BLACK
6
CONTINUOUS
10
110
20
-40.5765
11
110.015
21
-40.5983
0
LINE
8
BLACK
6
CONTINUOUS
10
110.015
20
-40.5983
11
110.021
21
-40.6236
0
LINE
8
BLACK
6
CONTINUOUS
10
110.021
20
-40.6236
11
110.018
21
-40.6495
0
LINE
8
BLACK
6
CONTINUOUS
10
110.018
20
-40.6495
11
110.006
21
-40.6728
0
LINE
8
BLACK
6
CONTINUOUS
10
110.006
20
-40.6728
11
109.987
21
-40.6907
0
LINE
8
BLACK
6
CONTINUOUS
10
109.987
20
-40.6907
11
109.963
21
-40.701
0
LINE
8
BLACK
6
CONTINUOUS
10
109.963
20
-40.701
11
109.937
21
-40.7026
0
LINE
8
BLACK
6
CONTINUOUS
10
109.937
20
-40.7026
11
109.912
21
-40.6952
0
LINE
8
BLACK
6
CONTINUOUS
10
109.912
20
-40.6952
11
109.817
21
-40.6476
0
LINE
8
BLACK
6
CONTINUOUS
10
109.817
20
-40.6476
11
109.807
21
-40.6404
0
LINE
8
BLACK
6
CONTINUOUS
10
109.807
20
-40.6404
11
109.797
21
-40.6335
0
LINE
8
BLACK
6
CONTINUOUS
10
109.797
20
-40.6335
11
109.735
21
-40.5711
0
LINE
8
BLACK
6
CONTINUOUS
10
109.735
20
-40.5711
11
109.735
21
-41.2674
0
LINE
8
BLACK
6
CONTINUOUS
10
109.735
20
-41.2674
11
109.946
21
-41.2674
0
LINE
8
BLACK
6
CONTINUOUS
10
109.946
20
-41.2674
11
109.971
21
-41.2719
0
LINE
8
BLACK
6
CONTINUOUS
10
109.971
20
-41.2719
11
109.994
21
-41.2849
0
LINE
8
BLACK
6
CONTINUOUS
10
109.994
20
-41.2849
11
110.011
21
-41.3049
0
LINE
8
BLACK
6
CONTINUOUS
10
110.011
20
-41.3049
11
110.02
21
-41.3294
0
LINE
8
BLACK
6
CONTINUOUS
10
110.02
20
-41.3294
11
110.02
21
-41.3554
0
LINE
8
BLACK
6
CONTINUOUS
10
110.02
20
-41.3554
11
110.011
21
-41.3799
0
LINE
8
BLACK
6
CONTINUOUS
10
110.011
20
-41.3799
11
109.994
21
-41.3998
0
LINE
8
BLACK
6
CONTINUOUS
10
109.994
20
-41.3998
11
109.971
21
-41.4129
0
LINE
8
BLACK
6
CONTINUOUS
10
109.971
20
-41.4129
11
109.946
21
-41.4174
0
LINE
8
BLACK
6
CONTINUOUS
10
109.946
20
-41.4174
11
109.374
21
-41.4174
0
LINE
8
BLACK
6
CONTINUOUS
10
109.374
20
-41.4174
11
109.349
21
-41.4129
0
LINE
8
BLACK
6
CONTINUOUS
10
109.349
20
-41.4129
11
109.326
21
-41.3998
0
LINE
8
BLACK
6
CONTINUOUS
10
109.326
20
-41.3998
11
109.309
21
-41.3799
0
LINE
8
BLACK
6
CONTINUOUS
10
109.309
20
-41.3799
11
109.3
21
-41.3554
0
LINE
8
BLACK
6
CONTINUOUS
10
109.3
20
-41.3554
11
109.3
21
-41.3294
0
LINE
8
BLACK
6
CONTINUOUS
10
109.3
20
-41.3294
11
109.309
21
-41.3049
0
LINE
8
BLACK
6
CONTINUOUS
10
109.309
20
-41.3049
11
109.326
21
-41.2849
0
LINE
8
BLACK
6
CONTINUOUS
10
109.326
20
-41.2849
11
109.349
21
-41.2719
0
LINE
8
BLACK
6
CONTINUOUS
10
109.349
20
-41.2719
11
109.374
21
-41.2674
0
LINE
8
BLACK
6
CONTINUOUS
10
109.374
20
-41.2674
11
109.585
21
-41.2674
0
LINE
8
BLACK
6
CONTINUOUS
10
109.585
20
-41.2674
11
109.585
21
-40.3424
0
LINE
8
BLACK
6
CONTINUOUS
10
109.585
20
-40.3424
11
109.586
21
-40.3383
0
LINE
8
BLACK
6
CONTINUOUS
10
109.586
20
-40.3383
11
109.585
21
-40.3341
0
LINE
8
BLACK
6
CONTINUOUS
10
109.585
20
-40.3341
11
109.588
21
-40.3255
0
LINE
8
BLACK
6
CONTINUOUS
10
109.588
20
-40.3255
11
109.59
21
-40.3167
0
LINE
8
BLACK
6
CONTINUOUS
10
109.59
20
-40.3167
11
109.592
21
-40.3131
0
LINE
8
BLACK
6
CONTINUOUS
10
109.592
20
-40.3131
11
109.593
21
-40.3091
0
LINE
8
BLACK
6
CONTINUOUS
10
109.593
20
-40.3091
11
109.598
21
-40.3019
0
LINE
8
BLACK
6
CONTINUOUS
10
109.598
20
-40.3019
11
109.603
21
-40.2942
0
LINE
8
BLACK
6
CONTINUOUS
10
109.603
20
-40.2942
11
109.606
21
-40.2915
0
LINE
8
BLACK
6
CONTINUOUS
10
109.606
20
-40.2915
11
109.608
21
-40.2881
0
LINE
8
BLACK
6
CONTINUOUS
10
109.608
20
-40.2881
11
109.616
21
-40.2832
0
LINE
8
BLACK
6
CONTINUOUS
10
109.616
20
-40.2832
11
109.622
21
-40.2774
0
LINE
8
BLACK
6
CONTINUOUS
10
109.622
20
-40.2774
11
109.626
21
-40.276
0
LINE
8
BLACK
6
CONTINUOUS
10
109.626
20
-40.276
11
109.63
21
-40.2737
0
LINE
8
BLACK
6
CONTINUOUS
10
109.63
20
-40.2737
11
109.639
21
-40.2716
0
LINE
8
BLACK
6
CONTINUOUS
10
109.639
20
-40.2716
11
109.647
21
-40.2685
0
LINE
8
BLACK
6
CONTINUOUS
10
109.647
20
-40.2685
11
109.651
21
-40.2685
0
LINE
8
BLACK
6
CONTINUOUS
10
109.651
20
-40.2685
11
109.655
21
-40.2675
0
LINE
8
BLACK
6
CONTINUOUS
10
109.655
20
-40.2675
11
109.664
21
-40.2685
0
LINE
8
BLACK
6
CONTINUOUS
10
110.905
20
-40.2685
11
110.911
21
-40.2685
0
LINE
8
BLACK
6
CONTINUOUS
10
110.911
20
-40.2685
11
110.917
21
-40.2708
0
LINE
8
BLACK
6
CONTINUOUS
10
110.917
20
-40.2708
11
110.924
21
-40.2719
0
LINE
8
BLACK
6
CONTINUOUS
10
110.924
20
-40.2719
11
110.929
21
-40.2752
0
LINE
8
BLACK
6
CONTINUOUS
10
110.929
20
-40.2752
11
110.936
21
-40.2774
0
LINE
8
BLACK
6
CONTINUOUS
10
110.936
20
-40.2774
11
110.941
21
-40.2816
0
LINE
8
BLACK
6
CONTINUOUS
10
110.941
20
-40.2816
11
110.946
21
-40.2849
0
LINE
8
BLACK
6
CONTINUOUS
10
110.946
20
-40.2849
11
110.951
21
-40.29
0
LINE
8
BLACK
6
CONTINUOUS
10
110.951
20
-40.29
11
110.956
21
-40.2942
0
LINE
8
BLACK
6
CONTINUOUS
10
110.956
20
-40.2942
11
110.959
21
-40.2999
0
LINE
8
BLACK
6
CONTINUOUS
10
110.959
20
-40.2999
11
110.963
21
-40.3049
0
LINE
8
BLACK
6
CONTINUOUS
10
110.963
20
-40.3049
11
110.965
21
-40.311
0
LINE
8
BLACK
6
CONTINUOUS
10
110.965
20
-40.311
11
110.969
21
-40.3167
0
LINE
8
BLACK
6
CONTINUOUS
10
110.969
20
-40.3167
11
110.97
21
-40.3232
0
LINE
8
BLACK
6
CONTINUOUS
10
110.97
20
-40.3232
11
110.972
21
-40.3294
0
LINE
8
BLACK
6
CONTINUOUS
10
110.972
20
-40.3294
11
110.972
21
-40.3359
0
LINE
8
BLACK
6
CONTINUOUS
10
110.972
20
-40.3359
11
110.973
21
-40.3424
0
LINE
8
BLACK
6
CONTINUOUS
10
110.973
20
-40.3424
11
110.973
21
-41.3424
0
LINE
8
BLACK
6
CONTINUOUS
10
110.973
20
-41.3424
11
110.969
21
-41.368
0
LINE
8
BLACK
6
CONTINUOUS
10
110.969
20
-41.368
11
110.956
21
-41.3906
0
LINE
8
BLACK
6
CONTINUOUS
10
110.956
20
-41.3906
11
110.936
21
-41.4073
0
LINE
8
BLACK
6
CONTINUOUS
10
110.936
20
-41.4073
11
110.911
21
-41.4162
0
LINE
8
BLACK
6
CONTINUOUS
10
110.911
20
-41.4162
11
110.885
21
-41.4162
0
LINE
8
BLACK
6
CONTINUOUS
10
110.885
20
-41.4162
11
110.861
21
-41.4073
0
LINE
8
BLACK
6
CONTINUOUS
10
110.861
20
-41.4073
11
110.841
21
-41.3906
0
LINE
8
BLACK
6
CONTINUOUS
10
110.841
20
-41.3906
11
110.828
21
-41.368
0
LINE
8
BLACK
6
CONTINUOUS
10
110.828
20
-41.368
11
110.823
21
-41.3424
0
LINE
8
BLACK
6
CONTINUOUS
10
110.823
20
-41.3424
11
110.823
21
-40.9412
0
LINE
8
BLACK
6
CONTINUOUS
10
110.823
20
-40.9412
11
110.699
21
-40.9412
0
LINE
8
BLACK
6
CONTINUOUS
10
110.699
20
-40.9412
11
110.388
21
-41.3854
0
LINE
8
BLACK
6
CONTINUOUS
10
110.388
20
-41.3854
11
110.37
21
-41.4038
0
LINE
8
BLACK
6
CONTINUOUS
10
110.37
20
-41.4038
11
110.346
21
-41.4148
0
LINE
8
BLACK
6
CONTINUOUS
10
110.346
20
-41.4148
11
110.32
21
-41.4171
0
LINE
8
BLACK
6
CONTINUOUS
10
110.32
20
-41.4171
11
110.295
21
-41.4104
0
LINE
8
BLACK
6
CONTINUOUS
10
110.295
20
-41.4104
11
110.274
21
-41.3954
0
LINE
8
BLACK
6
CONTINUOUS
10
110.274
20
-41.3954
11
110.259
21
-41.3741
0
LINE
8
BLACK
6
CONTINUOUS
10
110.259
20
-41.3741
11
110.252
21
-41.3489
0
LINE
8
BLACK
6
CONTINUOUS
10
110.252
20
-41.3489
11
110.254
21
-41.323
0
LINE
8
BLACK
6
CONTINUOUS
10
110.254
20
-41.323
11
110.265
21
-41.2994
0
LINE
8
BLACK
6
CONTINUOUS
10
110.265
20
-41.2994
11
110.516
21
-40.941
0
LINE
8
BLACK
6
CONTINUOUS
10
110.516
20
-40.941
11
110.513
21
-40.9404
0
LINE
8
BLACK
6
CONTINUOUS
10
110.513
20
-40.9404
11
110.509
21
-40.9407
0
LINE
8
BLACK
6
CONTINUOUS
10
110.509
20
-40.9407
11
110.5
21
-40.9382
0
LINE
8
BLACK
6
CONTINUOUS
10
110.5
20
-40.9382
11
110.491
21
-40.9367
0
LINE
8
BLACK
6
CONTINUOUS
10
110.491
20
-40.9367
11
110.488
21
-40.9345
0
LINE
8
BLACK
6
CONTINUOUS
10
110.488
20
-40.9345
11
110.484
21
-40.9333
0
LINE
8
BLACK
6
CONTINUOUS
10
110.484
20
-40.9333
11
110.388
21
-40.8857
0
LINE
8
BLACK
6
CONTINUOUS
10
110.388
20
-40.8857
11
110.379
21
-40.8785
0
LINE
8
BLACK
6
CONTINUOUS
10
110.379
20
-40.8785
11
110.369
21
-40.8716
0
LINE
8
BLACK
6
CONTINUOUS
10
110.369
20
-40.8716
11
110.321
21
-40.824
0
LINE
8
BLACK
6
CONTINUOUS
10
110.321
20
-40.824
11
110.314
21
-40.8142
0
LINE
8
BLACK
6
CONTINUOUS
10
110.314
20
-40.8142
11
110.307
21
-40.8045
0
LINE
8
BLACK
6
CONTINUOUS
10
110.307
20
-40.8045
11
110.26
21
-40.7093
0
LINE
8
BLACK
6
CONTINUOUS
10
110.26
20
-40.7093
11
110.258
21
-40.7051
0
LINE
8
BLACK
6
CONTINUOUS
10
110.258
20
-40.7051
11
110.256
21
-40.7014
0
LINE
8
BLACK
6
CONTINUOUS
10
110.256
20
-40.7014
11
110.255
21
-40.6927
0
LINE
8
BLACK
6
CONTINUOUS
10
110.255
20
-40.6927
11
110.252
21
-40.6843
0
LINE
8
BLACK
6
CONTINUOUS
10
110.252
20
-40.6843
11
110.252
21
-40.68
0
LINE
8
BLACK
6
CONTINUOUS
10
110.252
20
-40.68
11
110.252
21
-40.6757
0
LINE
8
BLACK
6
CONTINUOUS
10
110.252
20
-40.6757
11
110.252
21
-40.5329
0
LINE
8
BLACK
6
CONTINUOUS
10
110.252
20
-40.5329
11
110.252
21
-40.5286
0
LINE
8
BLACK
6
CONTINUOUS
10
110.252
20
-40.5286
11
110.252
21
-40.5243
0
LINE
8
BLACK
6
CONTINUOUS
10
110.252
20
-40.5243
11
110.255
21
-40.5159
0
LINE
8
BLACK
6
CONTINUOUS
10
110.255
20
-40.5159
11
110.256
21
-40.5072
0
LINE
8
BLACK
6
CONTINUOUS
10
110.256
20
-40.5072
11
110.258
21
-40.5035
0
LINE
8
BLACK
6
CONTINUOUS
10
110.258
20
-40.5035
11
110.26
21
-40.4993
0
LINE
8
BLACK
6
CONTINUOUS
10
110.26
20
-40.4993
11
110.307
21
-40.4041
0
LINE
8
BLACK
6
CONTINUOUS
10
110.307
20
-40.4041
11
110.314
21
-40.3944
0
LINE
8
BLACK
6
CONTINUOUS
10
110.314
20
-40.3944
11
110.321
21
-40.3846
0
LINE
8
BLACK
6
CONTINUOUS
10
110.321
20
-40.3846
11
110.369
21
-40.337
0
LINE
8
BLACK
6
CONTINUOUS
10
110.369
20
-40.337
11
110.379
21
-40.3301
0
LINE
8
BLACK
6
CONTINUOUS
10
110.379
20
-40.3301
11
110.388
21
-40.3229
0
LINE
8
BLACK
6
CONTINUOUS
10
110.388
20
-40.3229
11
110.484
21
-40.2753
0
LINE
8
BLACK
6
CONTINUOUS
10
110.484
20
-40.2753
11
110.488
21
-40.2741
0
LINE
8
BLACK
6
CONTINUOUS
10
110.488
20
-40.2741
11
110.491
21
-40.2719
0
LINE
8
BLACK
6
CONTINUOUS
10
110.491
20
-40.2719
11
110.5
21
-40.2704
0
LINE
8
BLACK
6
CONTINUOUS
10
110.5
20
-40.2704
11
110.509
21
-40.2679
0
LINE
8
BLACK
6
CONTINUOUS
10
110.509
20
-40.2679
11
110.513
21
-40.2681
0
LINE
8
BLACK
6
CONTINUOUS
10
110.513
20
-40.2681
11
110.517
21
-40.2674
0
LINE
8
BLACK
6
CONTINUOUS
10
110.517
20
-40.2674
11
110.898
21
-40.2674
0
LINE
8
BLACK
6
CONTINUOUS
10
110.898
20
-40.2674
11
110.905
21
-40.2685
0
LINE
8
BLACK
6
CONTINUOUS
10
110.535
20
-40.4174
11
110.466
21
-40.4516
0
LINE
8
BLACK
6
CONTINUOUS
10
110.466
20
-40.4516
11
110.436
21
-40.482
0
LINE
8
BLACK
6
CONTINUOUS
10
110.436
20
-40.482
11
110.402
21
-40.5506
0
LINE
8
BLACK
6
CONTINUOUS
10
110.402
20
-40.5506
11
110.402
21
-40.658
0
LINE
8
BLACK
6
CONTINUOUS
10
110.402
20
-40.658
11
110.436
21
-40.7265
0
LINE
8
BLACK
6
CONTINUOUS
10
110.436
20
-40.7265
11
110.466
21
-40.7569
0
LINE
8
BLACK
6
CONTINUOUS
10
110.466
20
-40.7569
11
110.535
21
-40.7912
0
LINE
8
BLACK
6
CONTINUOUS
10
110.535
20
-40.7912
11
110.823
21
-40.7912
0
LINE
8
BLACK
6
CONTINUOUS
10
110.823
20
-40.7912
11
110.823
21
-40.4174
0
LINE
8
BLACK
6
CONTINUOUS
10
110.823
20
-40.4174
11
110.535
21
-40.4174
0
LINE
8
BLACK
6
CONTINUOUS
10
111.013
20
-39.9327
11
111.031
21
-39.9433
0
LINE
8
BLACK
6
CONTINUOUS
10
111.031
20
-39.9433
11
111.045
21
-39.9595
0
LINE
8
BLACK
6
CONTINUOUS
10
111.045
20
-39.9595
11
111.052
21
-39.9794
0
LINE
8
BLACK
6
CONTINUOUS
10
111.052
20
-39.9794
11
111.052
21
-40.0006
0
LINE
8
BLACK
6
CONTINUOUS
10
111.052
20
-40.0006
11
111.045
21
-40.0205
0
LINE
8
BLACK
6
CONTINUOUS
10
111.045
20
-40.0205
11
111.031
21
-40.0367
0
LINE
8
BLACK
6
CONTINUOUS
10
111.031
20
-40.0367
11
111.013
21
-40.0473
0
LINE
8
BLACK
6
CONTINUOUS
10
111.013
20
-40.0473
11
110.997
21
-40.05
0
LINE
8
BLACK
6
CONTINUOUS
10
110.997
20
-40.05
11
109.783
21
-40.05
0
LINE
8
BLACK
6
CONTINUOUS
10
109.783
20
-40.05
11
109.767
21
-40.0473
0
LINE
8
BLACK
6
CONTINUOUS
10
109.767
20
-40.0473
11
109.749
21
-40.0367
0
LINE
8
BLACK
6
CONTINUOUS
10
109.749
20
-40.0367
11
109.735
21
-40.0205
0
LINE
8
BLACK
6
CONTINUOUS
10
109.735
20
-40.0205
11
109.728
21
-40.0006
0
LINE
8
BLACK
6
CONTINUOUS
10
109.728
20
-40.0006
11
109.728
21
-39.9794
0
LINE
8
BLACK
6
CONTINUOUS
10
109.728
20
-39.9794
11
109.735
21
-39.9595
0
LINE
8
BLACK
6
CONTINUOUS
10
109.735
20
-39.9595
11
109.749
21
-39.9433
0
LINE
8
BLACK
6
CONTINUOUS
10
109.749
20
-39.9433
11
109.767
21
-39.9327
0
LINE
8
BLACK
6
CONTINUOUS
10
109.767
20
-39.9327
11
109.783
21
-39.93
0
LINE
8
BLACK
6
CONTINUOUS
10
109.783
20
-39.93
11
110.997
21
-39.93
0
LINE
8
BLACK
6
CONTINUOUS
10
110.997
20
-39.93
11
111.013
21
-39.9327
0
LINE
8
BLACK
6
CONTINUOUS
10
111.013
20
-38.1127
11
111.031
21
-38.1233
0
LINE
8
BLACK
6
CONTINUOUS
10
111.031
20
-38.1233
11
111.045
21
-38.1395
0
LINE
8
BLACK
6
CONTINUOUS
10
111.045
20
-38.1395
11
111.052
21
-38.1594
0
LINE
8
BLACK
6
CONTINUOUS
10
111.052
20
-38.1594
11
111.052
21
-38.1806
0
LINE
8
BLACK
6
CONTINUOUS
10
111.052
20
-38.1806
11
111.045
21
-38.2005
0
LINE
8
BLACK
6
CONTINUOUS
10
111.045
20
-38.2005
11
111.031
21
-38.2167
0
LINE
8
BLACK
6
CONTINUOUS
10
111.031
20
-38.2167
11
111.013
21
-38.2273
0
LINE
8
BLACK
6
CONTINUOUS
10
111.013
20
-38.2273
11
110.997
21
-38.23
0
LINE
8
BLACK
6
CONTINUOUS
10
110.997
20
-38.23
11
109.783
21
-38.23
0
LINE
8
BLACK
6
CONTINUOUS
10
109.783
20
-38.23
11
109.767
21
-38.2273
0
LINE
8
BLACK
6
CONTINUOUS
10
109.767
20
-38.2273
11
109.749
21
-38.2167
0
LINE
8
BLACK
6
CONTINUOUS
10
109.749
20
-38.2167
11
109.735
21
-38.2005
0
LINE
8
BLACK
6
CONTINUOUS
10
109.735
20
-38.2005
11
109.728
21
-38.1806
0
LINE
8
BLACK
6
CONTINUOUS
10
109.728
20
-38.1806
11
109.728
21
-38.1594
0
LINE
8
BLACK
6
CONTINUOUS
10
109.728
20
-38.1594
11
109.735
21
-38.1395
0
LINE
8
BLACK
6
CONTINUOUS
10
109.735
20
-38.1395
11
109.749
21
-38.1233
0
LINE
8
BLACK
6
CONTINUOUS
10
109.749
20
-38.1233
11
109.767
21
-38.1127
0
LINE
8
BLACK
6
CONTINUOUS
10
109.767
20
-38.1127
11
109.783
21
-38.11
0
LINE
8
BLACK
6
CONTINUOUS
10
109.783
20
-38.11
11
110.997
21
-38.11
0
LINE
8
BLACK
6
CONTINUOUS
10
110.997
20
-38.11
11
111.013
21
-38.1127
  0
ENDSEC
  0
EOF
