  0
SECTION
  2
HEADER
  9
$ANGBASE
  50
0.0
  9
$ANGDIR
  70
  1
  9
$MEASUREMENT
  70
0
  0
ENDSEC
  0
SECTION
  2
TABLES
  0
TABLE
  2
LTYPE
  70
4
  0
LTYPE
  5
40F
  2
CONTINUOUS
  70
0
  3
Solid line
  72
65
  73
0
  40
0.0
  0
LTYPE
  5
410
  2
DASHDOT
 70
0
  3
Dash Dot ____ _ ____ _
 72
65
 73
4
 40
2.0
 49
1.25
 49
-0.25
 49
0.25
 49
-0.25
  0
LTYPE
  5
411
  2
DASHED
 70
0
  3
Dashed __ __ __ __ __
 72
65
 73
2
 40
0.75
 49
0.5
 49
-0.25
  0
LTYPE
  5
43B
  2
DOTTED
 70
0
  3
Dotted .  .  .  .
 72
65
 73
2
 40
0.2
 49
0.0
 49
-0.2
  0
ENDTAB
  0
TABLE
  2
STYLE
  70
4
  0
STYLE
  2
KICAD
  70
0
  40
0
  41
1
  42
1
  50
0
  71
0
  3
isocp.shx
  0
STYLE
  2
KICADB
  70
0
  40
0
  41
1
  42
1
  50
0
  71
0
  3
isocp.shx
  0
STYLE
  2
KICADI
  70
0
  40
0
  41
1
  42
1
  50
15
  71
0
  3
isocp.shx
  0
STYLE
  2
KICADBI
  70
0
  40
0
  41
1
  42
1
  50
15
  71
0
  3
isocp.shx
  0
ENDTAB
  0
TABLE
  2
LAYER
  70
30
  0
LAYER
  2
BLACK
  70
0
  62
7
  6
CONTINUOUS
  0
LAYER
  2
GRAY1
  70
0
  62
251
  6
CONTINUOUS
  0
LAYER
  2
GRAY2
  70
0
  62
8
  6
CONTINUOUS
  0
LAYER
  2
GRAY3
  70
0
  62
9
  6
CONTINUOUS
  0
LAYER
  2
WHITE
  70
0
  62
7
  6
CONTINUOUS
  0
LAYER
  2
LYELLOW
  70
0
  62
51
  6
CONTINUOUS
  0
LAYER
  2
BLUE1
  70
0
  62
178
  6
CONTINUOUS
  0
LAYER
  2
GREEN1
  70
0
  62
98
  6
CONTINUOUS
  0
LAYER
  2
CYAN1
  70
0
  62
138
  6
CONTINUOUS
  0
LAYER
  2
RED1
  70
0
  62
18
  6
CONTINUOUS
  0
LAYER
  2
MAGENTA1
  70
0
  62
228
  6
CONTINUOUS
  0
LAYER
  2
BROWN1
  70
0
  62
58
  6
CONTINUOUS
  0
LAYER
  2
BLUE2
  70
0
  62
5
  6
CONTINUOUS
  0
LAYER
  2
GREEN2
  70
0
  62
3
  6
CONTINUOUS
  0
LAYER
  2
CYAN2
  70
0
  62
4
  6
CONTINUOUS
  0
LAYER
  2
RED2
  70
0
  62
1
  6
CONTINUOUS
  0
LAYER
  2
MAGENTA2
  70
0
  62
6
  6
CONTINUOUS
  0
LAYER
  2
BROWN2
  70
0
  62
54
  6
CONTINUOUS
  0
LAYER
  2
BLUE3
  70
0
  62
171
  6
CONTINUOUS
  0
LAYER
  2
GREEN3
  70
0
  62
91
  6
CONTINUOUS
  0
LAYER
  2
CYAN3
  70
0
  62
131
  6
CONTINUOUS
  0
LAYER
  2
RED3
  70
0
  62
11
  6
CONTINUOUS
  0
LAYER
  2
MAGENTA3
  70
0
  62
221
  6
CONTINUOUS
  0
LAYER
  2
YELLOW3
  70
0
  62
2
  6
CONTINUOUS
  0
LAYER
  2
BLUE4
  70
0
  62
5
  6
CONTINUOUS
  0
LAYER
  2
GREEN4
  70
0
  62
3
  6
CONTINUOUS
  0
LAYER
  2
CYAN4
  70
0
  62
4
  6
CONTINUOUS
  0
LAYER
  2
RED4
  70
0
  62
1
  6
CONTINUOUS
  0
LAYER
  2
MAGENTA4
  70
0
  62
6
  6
CONTINUOUS
  0
LAYER
  2
YELLOW4
  70
0
  62
2
  6
CONTINUOUS
  0
ENDTAB
  0
ENDSEC
  0
SECTION
  2
ENTITIES
0
LINE
8
BLACK
6
CONTINUOUS
10
69.695
20
-47.54
11
69.095
21
-47.54
0
LINE
8
BLACK
6
CONTINUOUS
10
69.095
20
-47.54
11
69.095
21
-46.04
0
LINE
8
BLACK
6
CONTINUOUS
10
69.095
20
-46.04
11
69.695
21
-46.04
0
LINE
8
BLACK
6
CONTINUOUS
10
69.695
20
-46.04
11
69.695
21
-47.54
0
LINE
8
BLACK
6
CONTINUOUS
10
70.965
20
-47.54
11
70.365
21
-47.54
0
LINE
8
BLACK
6
CONTINUOUS
10
70.365
20
-47.54
11
70.365
21
-46.04
0
LINE
8
BLACK
6
CONTINUOUS
10
70.365
20
-46.04
11
70.965
21
-46.04
0
LINE
8
BLACK
6
CONTINUOUS
10
70.965
20
-46.04
11
70.965
21
-47.54
0
LINE
8
BLACK
6
CONTINUOUS
10
72.235
20
-47.54
11
71.635
21
-47.54
0
LINE
8
BLACK
6
CONTINUOUS
10
71.635
20
-47.54
11
71.635
21
-46.04
0
LINE
8
BLACK
6
CONTINUOUS
10
71.635
20
-46.04
11
72.235
21
-46.04
0
LINE
8
BLACK
6
CONTINUOUS
10
72.235
20
-46.04
11
72.235
21
-47.54
0
LINE
8
BLACK
6
CONTINUOUS
10
78.585
20
-47.54
11
77.985
21
-47.54
0
LINE
8
BLACK
6
CONTINUOUS
10
77.985
20
-47.54
11
77.985
21
-46.04
0
LINE
8
BLACK
6
CONTINUOUS
10
77.985
20
-46.04
11
78.585
21
-46.04
0
LINE
8
BLACK
6
CONTINUOUS
10
78.585
20
-46.04
11
78.585
21
-47.54
0
LINE
8
BLACK
6
CONTINUOUS
10
77.315
20
-47.54
11
76.715
21
-47.54
0
LINE
8
BLACK
6
CONTINUOUS
10
76.715
20
-47.54
11
76.715
21
-46.04
0
LINE
8
BLACK
6
CONTINUOUS
10
76.715
20
-46.04
11
77.315
21
-46.04
0
LINE
8
BLACK
6
CONTINUOUS
10
77.315
20
-46.04
11
77.315
21
-47.54
0
LINE
8
BLACK
6
CONTINUOUS
10
76.045
20
-47.54
11
75.445
21
-47.54
0
LINE
8
BLACK
6
CONTINUOUS
10
75.445
20
-47.54
11
75.445
21
-46.04
0
LINE
8
BLACK
6
CONTINUOUS
10
75.445
20
-46.04
11
76.045
21
-46.04
0
LINE
8
BLACK
6
CONTINUOUS
10
76.045
20
-46.04
11
76.045
21
-47.54
0
LINE
8
BLACK
6
CONTINUOUS
10
74.775
20
-47.54
11
74.175
21
-47.54
0
LINE
8
BLACK
6
CONTINUOUS
10
74.175
20
-47.54
11
74.175
21
-46.04
0
LINE
8
BLACK
6
CONTINUOUS
10
74.175
20
-46.04
11
74.775
21
-46.04
0
LINE
8
BLACK
6
CONTINUOUS
10
74.775
20
-46.04
11
74.775
21
-47.54
0
LINE
8
BLACK
6
CONTINUOUS
10
73.505
20
-47.54
11
72.905
21
-47.54
0
LINE
8
BLACK
6
CONTINUOUS
10
72.905
20
-47.54
11
72.905
21
-46.04
0
LINE
8
BLACK
6
CONTINUOUS
10
72.905
20
-46.04
11
73.505
21
-46.04
0
LINE
8
BLACK
6
CONTINUOUS
10
73.505
20
-46.04
11
73.505
21
-47.54
0
LINE
8
BLACK
6
CONTINUOUS
10
112.301
20
-41.7301
11
112.376
21
-41.7735
0
LINE
8
BLACK
6
CONTINUOUS
10
112.376
20
-41.7735
11
112.432
21
-41.84
0
LINE
8
BLACK
6
CONTINUOUS
10
112.432
20
-41.84
11
112.465
21
-41.965
0
LINE
8
BLACK
6
CONTINUOUS
10
112.465
20
-41.965
11
112.465
21
-43.215
0
LINE
8
BLACK
6
CONTINUOUS
10
112.465
20
-43.215
11
112.45
21
-43.3005
0
LINE
8
BLACK
6
CONTINUOUS
10
112.45
20
-43.3005
11
112.407
21
-43.3757
0
LINE
8
BLACK
6
CONTINUOUS
10
112.407
20
-43.3757
11
112.34
21
-43.4315
0
LINE
8
BLACK
6
CONTINUOUS
10
112.34
20
-43.4315
11
112.215
21
-43.465
0
LINE
8
BLACK
6
CONTINUOUS
10
112.215
20
-43.465
11
111.465
21
-43.465
0
LINE
8
BLACK
6
CONTINUOUS
10
111.465
20
-43.465
11
111.379
21
-43.4499
0
LINE
8
BLACK
6
CONTINUOUS
10
111.379
20
-43.4499
11
111.304
21
-43.4065
0
LINE
8
BLACK
6
CONTINUOUS
10
111.304
20
-43.4065
11
111.248
21
-43.34
0
LINE
8
BLACK
6
CONTINUOUS
10
111.248
20
-43.34
11
111.215
21
-43.215
0
LINE
8
BLACK
6
CONTINUOUS
10
111.215
20
-43.215
11
111.215
21
-41.965
0
LINE
8
BLACK
6
CONTINUOUS
10
111.215
20
-41.965
11
111.23
21
-41.8795
0
LINE
8
BLACK
6
CONTINUOUS
10
111.23
20
-41.8795
11
111.273
21
-41.8043
0
LINE
8
BLACK
6
CONTINUOUS
10
111.273
20
-41.8043
11
111.34
21
-41.7485
0
LINE
8
BLACK
6
CONTINUOUS
10
111.34
20
-41.7485
11
111.465
21
-41.715
0
LINE
8
BLACK
6
CONTINUOUS
10
111.465
20
-41.715
11
112.215
21
-41.715
0
LINE
8
BLACK
6
CONTINUOUS
10
112.215
20
-41.715
11
112.301
21
-41.7301
0
LINE
8
BLACK
6
CONTINUOUS
10
109.501
20
-41.7301
11
109.576
21
-41.7735
0
LINE
8
BLACK
6
CONTINUOUS
10
109.576
20
-41.7735
11
109.632
21
-41.84
0
LINE
8
BLACK
6
CONTINUOUS
10
109.632
20
-41.84
11
109.665
21
-41.965
0
LINE
8
BLACK
6
CONTINUOUS
10
109.665
20
-41.965
11
109.665
21
-43.215
0
LINE
8
BLACK
6
CONTINUOUS
10
109.665
20
-43.215
11
109.65
21
-43.3005
0
LINE
8
BLACK
6
CONTINUOUS
10
109.65
20
-43.3005
11
109.607
21
-43.3757
0
LINE
8
BLACK
6
CONTINUOUS
10
109.607
20
-43.3757
11
109.54
21
-43.4315
0
LINE
8
BLACK
6
CONTINUOUS
10
109.54
20
-43.4315
11
109.415
21
-43.465
0
LINE
8
BLACK
6
CONTINUOUS
10
109.415
20
-43.465
11
108.665
21
-43.465
0
LINE
8
BLACK
6
CONTINUOUS
10
108.665
20
-43.465
11
108.579
21
-43.4499
0
LINE
8
BLACK
6
CONTINUOUS
10
108.579
20
-43.4499
11
108.504
21
-43.4065
0
LINE
8
BLACK
6
CONTINUOUS
10
108.504
20
-43.4065
11
108.448
21
-43.34
0
LINE
8
BLACK
6
CONTINUOUS
10
108.448
20
-43.34
11
108.415
21
-43.215
0
LINE
8
BLACK
6
CONTINUOUS
10
108.415
20
-43.215
11
108.415
21
-41.965
0
LINE
8
BLACK
6
CONTINUOUS
10
108.415
20
-41.965
11
108.43
21
-41.8795
0
LINE
8
BLACK
6
CONTINUOUS
10
108.43
20
-41.8795
11
108.473
21
-41.8043
0
LINE
8
BLACK
6
CONTINUOUS
10
108.473
20
-41.8043
11
108.54
21
-41.7485
0
LINE
8
BLACK
6
CONTINUOUS
10
108.54
20
-41.7485
11
108.665
21
-41.715
0
LINE
8
BLACK
6
CONTINUOUS
10
108.665
20
-41.715
11
109.415
21
-41.715
0
LINE
8
BLACK
6
CONTINUOUS
10
109.415
20
-41.715
11
109.501
21
-41.7301
0
LINE
8
BLACK
6
CONTINUOUS
10
112.251
20
-38.2201
11
112.326
21
-38.2635
0
LINE
8
BLACK
6
CONTINUOUS
10
112.326
20
-38.2635
11
112.382
21
-38.33
0
LINE
8
BLACK
6
CONTINUOUS
10
112.382
20
-38.33
11
112.415
21
-38.455
0
LINE
8
BLACK
6
CONTINUOUS
10
112.415
20
-38.455
11
112.415
21
-39.705
0
LINE
8
BLACK
6
CONTINUOUS
10
112.415
20
-39.705
11
112.4
21
-39.7905
0
LINE
8
BLACK
6
CONTINUOUS
10
112.4
20
-39.7905
11
112.357
21
-39.8657
0
LINE
8
BLACK
6
CONTINUOUS
10
112.357
20
-39.8657
11
112.29
21
-39.9215
0
LINE
8
BLACK
6
CONTINUOUS
10
112.29
20
-39.9215
11
112.165
21
-39.955
0
LINE
8
BLACK
6
CONTINUOUS
10
112.165
20
-39.955
11
111.415
21
-39.955
0
LINE
8
BLACK
6
CONTINUOUS
10
111.415
20
-39.955
11
111.329
21
-39.9399
0
LINE
8
BLACK
6
CONTINUOUS
10
111.329
20
-39.9399
11
111.254
21
-39.8965
0
LINE
8
BLACK
6
CONTINUOUS
10
111.254
20
-39.8965
11
111.198
21
-39.83
0
LINE
8
BLACK
6
CONTINUOUS
10
111.198
20
-39.83
11
111.165
21
-39.705
0
LINE
8
BLACK
6
CONTINUOUS
10
111.165
20
-39.705
11
111.165
21
-38.455
0
LINE
8
BLACK
6
CONTINUOUS
10
111.165
20
-38.455
11
111.18
21
-38.3695
0
LINE
8
BLACK
6
CONTINUOUS
10
111.18
20
-38.3695
11
111.223
21
-38.2943
0
LINE
8
BLACK
6
CONTINUOUS
10
111.223
20
-38.2943
11
111.29
21
-38.2385
0
LINE
8
BLACK
6
CONTINUOUS
10
111.29
20
-38.2385
11
111.415
21
-38.205
0
LINE
8
BLACK
6
CONTINUOUS
10
111.415
20
-38.205
11
112.165
21
-38.205
0
LINE
8
BLACK
6
CONTINUOUS
10
112.165
20
-38.205
11
112.251
21
-38.2201
0
LINE
8
BLACK
6
CONTINUOUS
10
109.451
20
-38.2201
11
109.526
21
-38.2635
0
LINE
8
BLACK
6
CONTINUOUS
10
109.526
20
-38.2635
11
109.582
21
-38.33
0
LINE
8
BLACK
6
CONTINUOUS
10
109.582
20
-38.33
11
109.615
21
-38.455
0
LINE
8
BLACK
6
CONTINUOUS
10
109.615
20
-38.455
11
109.615
21
-39.705
0
LINE
8
BLACK
6
CONTINUOUS
10
109.615
20
-39.705
11
109.6
21
-39.7905
0
LINE
8
BLACK
6
CONTINUOUS
10
109.6
20
-39.7905
11
109.557
21
-39.8657
0
LINE
8
BLACK
6
CONTINUOUS
10
109.557
20
-39.8657
11
109.49
21
-39.9215
0
LINE
8
BLACK
6
CONTINUOUS
10
109.49
20
-39.9215
11
109.365
21
-39.955
0
LINE
8
BLACK
6
CONTINUOUS
10
109.365
20
-39.955
11
108.615
21
-39.955
0
LINE
8
BLACK
6
CONTINUOUS
10
108.615
20
-39.955
11
108.529
21
-39.9399
0
LINE
8
BLACK
6
CONTINUOUS
10
108.529
20
-39.9399
11
108.454
21
-39.8965
0
LINE
8
BLACK
6
CONTINUOUS
10
108.454
20
-39.8965
11
108.398
21
-39.83
0
LINE
8
BLACK
6
CONTINUOUS
10
108.398
20
-39.83
11
108.365
21
-39.705
0
LINE
8
BLACK
6
CONTINUOUS
10
108.365
20
-39.705
11
108.365
21
-38.455
0
LINE
8
BLACK
6
CONTINUOUS
10
108.365
20
-38.455
11
108.38
21
-38.3695
0
LINE
8
BLACK
6
CONTINUOUS
10
108.38
20
-38.3695
11
108.423
21
-38.2943
0
LINE
8
BLACK
6
CONTINUOUS
10
108.423
20
-38.2943
11
108.49
21
-38.2385
0
LINE
8
BLACK
6
CONTINUOUS
10
108.49
20
-38.2385
11
108.615
21
-38.205
0
LINE
8
BLACK
6
CONTINUOUS
10
108.615
20
-38.205
11
109.365
21
-38.205
0
LINE
8
BLACK
6
CONTINUOUS
10
109.365
20
-38.205
11
109.451
21
-38.2201
0
LINE
8
BLACK
6
CONTINUOUS
10
69.695
20
-38.24
11
69.095
21
-38.24
0
LINE
8
BLACK
6
CONTINUOUS
10
69.095
20
-38.24
11
69.095
21
-36.74
0
LINE
8
BLACK
6
CONTINUOUS
10
69.095
20
-36.74
11
69.695
21
-36.74
0
LINE
8
BLACK
6
CONTINUOUS
10
69.695
20
-36.74
11
69.695
21
-38.24
0
LINE
8
BLACK
6
CONTINUOUS
10
70.965
20
-38.24
11
70.365
21
-38.24
0
LINE
8
BLACK
6
CONTINUOUS
10
70.365
20
-38.24
11
70.365
21
-36.74
0
LINE
8
BLACK
6
CONTINUOUS
10
70.365
20
-36.74
11
70.965
21
-36.74
0
LINE
8
BLACK
6
CONTINUOUS
10
70.965
20
-36.74
11
70.965
21
-38.24
0
LINE
8
BLACK
6
CONTINUOUS
10
72.235
20
-38.24
11
71.635
21
-38.24
0
LINE
8
BLACK
6
CONTINUOUS
10
71.635
20
-38.24
11
71.635
21
-36.74
0
LINE
8
BLACK
6
CONTINUOUS
10
71.635
20
-36.74
11
72.235
21
-36.74
0
LINE
8
BLACK
6
CONTINUOUS
10
72.235
20
-36.74
11
72.235
21
-38.24
0
LINE
8
BLACK
6
CONTINUOUS
10
73.505
20
-38.24
11
72.905
21
-38.24
0
LINE
8
BLACK
6
CONTINUOUS
10
72.905
20
-38.24
11
72.905
21
-36.74
0
LINE
8
BLACK
6
CONTINUOUS
10
72.905
20
-36.74
11
73.505
21
-36.74
0
LINE
8
BLACK
6
CONTINUOUS
10
73.505
20
-36.74
11
73.505
21
-38.24
0
LINE
8
BLACK
6
CONTINUOUS
10
74.775
20
-38.24
11
74.175
21
-38.24
0
LINE
8
BLACK
6
CONTINUOUS
10
74.175
20
-38.24
11
74.175
21
-36.74
0
LINE
8
BLACK
6
CONTINUOUS
10
74.175
20
-36.74
11
74.775
21
-36.74
0
LINE
8
BLACK
6
CONTINUOUS
10
74.775
20
-36.74
11
74.775
21
-38.24
0
LINE
8
BLACK
6
CONTINUOUS
10
76.045
20
-38.24
11
75.445
21
-38.24
0
LINE
8
BLACK
6
CONTINUOUS
10
75.445
20
-38.24
11
75.445
21
-36.74
0
LINE
8
BLACK
6
CONTINUOUS
10
75.445
20
-36.74
11
76.045
21
-36.74
0
LINE
8
BLACK
6
CONTINUOUS
10
76.045
20
-36.74
11
76.045
21
-38.24
0
LINE
8
BLACK
6
CONTINUOUS
10
77.315
20
-38.24
11
76.715
21
-38.24
0
LINE
8
BLACK
6
CONTINUOUS
10
76.715
20
-38.24
11
76.715
21
-36.74
0
LINE
8
BLACK
6
CONTINUOUS
10
76.715
20
-36.74
11
77.315
21
-36.74
0
LINE
8
BLACK
6
CONTINUOUS
10
77.315
20
-36.74
11
77.315
21
-38.24
0
LINE
8
BLACK
6
CONTINUOUS
10
78.585
20
-38.24
11
77.985
21
-38.24
0
LINE
8
BLACK
6
CONTINUOUS
10
77.985
20
-38.24
11
77.985
21
-36.74
0
LINE
8
BLACK
6
CONTINUOUS
10
77.985
20
-36.74
11
78.585
21
-36.74
0
LINE
8
BLACK
6
CONTINUOUS
10
78.585
20
-36.74
11
78.585
21
-38.24
  0
ENDSEC
  0
EOF
