  0
SECTION
  2
HEADER
  9
$ANGBASE
  50
0.0
  9
$ANGDIR
  70
  1
  9
$MEASUREMENT
  70
0
  0
ENDSEC
  0
SECTION
  2
TABLES
  0
TABLE
  2
LTYPE
  70
4
  0
LTYPE
  5
40F
  2
CONTINUOUS
  70
0
  3
Solid line
  72
65
  73
0
  40
0.0
  0
LTYPE
  5
410
  2
DASHDOT
 70
0
  3
Dash Dot ____ _ ____ _
 72
65
 73
4
 40
2.0
 49
1.25
 49
-0.25
 49
0.25
 49
-0.25
  0
LTYPE
  5
411
  2
DASHED
 70
0
  3
Dashed __ __ __ __ __
 72
65
 73
2
 40
0.75
 49
0.5
 49
-0.25
  0
LTYPE
  5
43B
  2
DOTTED
 70
0
  3
Dotted .  .  .  .
 72
65
 73
2
 40
0.2
 49
0.0
 49
-0.2
  0
ENDTAB
  0
TABLE
  2
STYLE
  70
4
  0
STYLE
  2
KICAD
  70
0
  40
0
  41
1
  42
1
  50
0
  71
0
  3
isocp.shx
  0
STYLE
  2
KICADB
  70
0
  40
0
  41
1
  42
1
  50
0
  71
0
  3
isocp.shx
  0
STYLE
  2
KICADI
  70
0
  40
0
  41
1
  42
1
  50
15
  71
0
  3
isocp.shx
  0
STYLE
  2
KICADBI
  70
0
  40
0
  41
1
  42
1
  50
15
  71
0
  3
isocp.shx
  0
ENDTAB
  0
TABLE
  2
LAYER
  70
30
  0
LAYER
  2
BLACK
  70
0
  62
7
  6
CONTINUOUS
  0
LAYER
  2
GRAY1
  70
0
  62
251
  6
CONTINUOUS
  0
LAYER
  2
GRAY2
  70
0
  62
8
  6
CONTINUOUS
  0
LAYER
  2
GRAY3
  70
0
  62
9
  6
CONTINUOUS
  0
LAYER
  2
WHITE
  70
0
  62
7
  6
CONTINUOUS
  0
LAYER
  2
LYELLOW
  70
0
  62
51
  6
CONTINUOUS
  0
LAYER
  2
BLUE1
  70
0
  62
178
  6
CONTINUOUS
  0
LAYER
  2
GREEN1
  70
0
  62
98
  6
CONTINUOUS
  0
LAYER
  2
CYAN1
  70
0
  62
138
  6
CONTINUOUS
  0
LAYER
  2
RED1
  70
0
  62
18
  6
CONTINUOUS
  0
LAYER
  2
MAGENTA1
  70
0
  62
228
  6
CONTINUOUS
  0
LAYER
  2
BROWN1
  70
0
  62
58
  6
CONTINUOUS
  0
LAYER
  2
BLUE2
  70
0
  62
5
  6
CONTINUOUS
  0
LAYER
  2
GREEN2
  70
0
  62
3
  6
CONTINUOUS
  0
LAYER
  2
CYAN2
  70
0
  62
4
  6
CONTINUOUS
  0
LAYER
  2
RED2
  70
0
  62
1
  6
CONTINUOUS
  0
LAYER
  2
MAGENTA2
  70
0
  62
6
  6
CONTINUOUS
  0
LAYER
  2
BROWN2
  70
0
  62
54
  6
CONTINUOUS
  0
LAYER
  2
BLUE3
  70
0
  62
171
  6
CONTINUOUS
  0
LAYER
  2
GREEN3
  70
0
  62
91
  6
CONTINUOUS
  0
LAYER
  2
CYAN3
  70
0
  62
131
  6
CONTINUOUS
  0
LAYER
  2
RED3
  70
0
  62
11
  6
CONTINUOUS
  0
LAYER
  2
MAGENTA3
  70
0
  62
221
  6
CONTINUOUS
  0
LAYER
  2
YELLOW3
  70
0
  62
2
  6
CONTINUOUS
  0
LAYER
  2
BLUE4
  70
0
  62
5
  6
CONTINUOUS
  0
LAYER
  2
GREEN4
  70
0
  62
3
  6
CONTINUOUS
  0
LAYER
  2
CYAN4
  70
0
  62
4
  6
CONTINUOUS
  0
LAYER
  2
RED4
  70
0
  62
1
  6
CONTINUOUS
  0
LAYER
  2
MAGENTA4
  70
0
  62
6
  6
CONTINUOUS
  0
LAYER
  2
YELLOW4
  70
0
  62
2
  6
CONTINUOUS
  0
ENDTAB
  0
ENDSEC
  0
SECTION
  2
ENTITIES
0
LINE
8
BLACK
6
CONTINUOUS
10
113.307
20
-99.4894
11
113.498
21
-99.5686
0
LINE
8
BLACK
6
CONTINUOUS
10
113.498
20
-99.5686
11
113.67
21
-99.6836
0
LINE
8
BLACK
6
CONTINUOUS
10
113.67
20
-99.6836
11
113.816
21
-99.83
0
LINE
8
BLACK
6
CONTINUOUS
10
113.816
20
-99.83
11
113.931
21
-100.002
0
LINE
8
BLACK
6
CONTINUOUS
10
113.931
20
-100.002
11
114.011
21
-100.193
0
LINE
8
BLACK
6
CONTINUOUS
10
114.011
20
-100.193
11
114.051
21
-100.396
0
LINE
8
BLACK
6
CONTINUOUS
10
114.051
20
-100.396
11
114.051
21
-100.604
0
LINE
8
BLACK
6
CONTINUOUS
10
114.051
20
-100.604
11
114.011
21
-100.807
0
LINE
8
BLACK
6
CONTINUOUS
10
114.011
20
-100.807
11
113.931
21
-100.998
0
LINE
8
BLACK
6
CONTINUOUS
10
113.931
20
-100.998
11
113.816
21
-101.17
0
LINE
8
BLACK
6
CONTINUOUS
10
113.816
20
-101.17
11
113.67
21
-101.316
0
LINE
8
BLACK
6
CONTINUOUS
10
113.67
20
-101.316
11
113.498
21
-101.431
0
LINE
8
BLACK
6
CONTINUOUS
10
113.498
20
-101.431
11
113.307
21
-101.511
0
LINE
8
BLACK
6
CONTINUOUS
10
113.307
20
-101.511
11
113.104
21
-101.551
0
LINE
8
BLACK
6
CONTINUOUS
10
113.104
20
-101.551
11
112.896
21
-101.551
0
LINE
8
BLACK
6
CONTINUOUS
10
112.896
20
-101.551
11
112.693
21
-101.511
0
LINE
8
BLACK
6
CONTINUOUS
10
112.693
20
-101.511
11
112.502
21
-101.431
0
LINE
8
BLACK
6
CONTINUOUS
10
112.502
20
-101.431
11
112.33
21
-101.316
0
LINE
8
BLACK
6
CONTINUOUS
10
112.33
20
-101.316
11
112.184
21
-101.17
0
LINE
8
BLACK
6
CONTINUOUS
10
112.184
20
-101.17
11
112.069
21
-100.998
0
LINE
8
BLACK
6
CONTINUOUS
10
112.069
20
-100.998
11
111.989
21
-100.807
0
LINE
8
BLACK
6
CONTINUOUS
10
111.989
20
-100.807
11
111.949
21
-100.604
0
LINE
8
BLACK
6
CONTINUOUS
10
111.949
20
-100.604
11
111.949
21
-100.396
0
LINE
8
BLACK
6
CONTINUOUS
10
111.949
20
-100.396
11
111.989
21
-100.193
0
LINE
8
BLACK
6
CONTINUOUS
10
111.989
20
-100.193
11
112.069
21
-100.002
0
LINE
8
BLACK
6
CONTINUOUS
10
112.069
20
-100.002
11
112.184
21
-99.83
0
LINE
8
BLACK
6
CONTINUOUS
10
112.184
20
-99.83
11
112.33
21
-99.6836
0
LINE
8
BLACK
6
CONTINUOUS
10
112.33
20
-99.6836
11
112.502
21
-99.5686
0
LINE
8
BLACK
6
CONTINUOUS
10
112.502
20
-99.5686
11
112.693
21
-99.4894
0
LINE
8
BLACK
6
CONTINUOUS
10
112.693
20
-99.4894
11
112.896
21
-99.449
0
LINE
8
BLACK
6
CONTINUOUS
10
112.896
20
-99.449
11
113.104
21
-99.449
0
LINE
8
BLACK
6
CONTINUOUS
10
113.104
20
-99.449
11
113.307
21
-99.4894
0
LINE
8
BLACK
6
CONTINUOUS
10
92.3066
20
-99.4894
11
92.4978
21
-99.5686
0
LINE
8
BLACK
6
CONTINUOUS
10
92.4978
20
-99.5686
11
92.67
21
-99.6836
0
LINE
8
BLACK
6
CONTINUOUS
10
92.67
20
-99.6836
11
92.8164
21
-99.83
0
LINE
8
BLACK
6
CONTINUOUS
10
92.8164
20
-99.83
11
92.9314
21
-100.002
0
LINE
8
BLACK
6
CONTINUOUS
10
92.9314
20
-100.002
11
93.0106
21
-100.193
0
LINE
8
BLACK
6
CONTINUOUS
10
93.0106
20
-100.193
11
93.051
21
-100.396
0
LINE
8
BLACK
6
CONTINUOUS
10
93.051
20
-100.396
11
93.051
21
-100.604
0
LINE
8
BLACK
6
CONTINUOUS
10
93.051
20
-100.604
11
93.0106
21
-100.807
0
LINE
8
BLACK
6
CONTINUOUS
10
93.0106
20
-100.807
11
92.9314
21
-100.998
0
LINE
8
BLACK
6
CONTINUOUS
10
92.9314
20
-100.998
11
92.8164
21
-101.17
0
LINE
8
BLACK
6
CONTINUOUS
10
92.8164
20
-101.17
11
92.67
21
-101.316
0
LINE
8
BLACK
6
CONTINUOUS
10
92.67
20
-101.316
11
92.4978
21
-101.431
0
LINE
8
BLACK
6
CONTINUOUS
10
92.4978
20
-101.431
11
92.3066
21
-101.511
0
LINE
8
BLACK
6
CONTINUOUS
10
92.3066
20
-101.511
11
92.1035
21
-101.551
0
LINE
8
BLACK
6
CONTINUOUS
10
92.1035
20
-101.551
11
91.8965
21
-101.551
0
LINE
8
BLACK
6
CONTINUOUS
10
91.8965
20
-101.551
11
91.6934
21
-101.511
0
LINE
8
BLACK
6
CONTINUOUS
10
91.6934
20
-101.511
11
91.5022
21
-101.431
0
LINE
8
BLACK
6
CONTINUOUS
10
91.5022
20
-101.431
11
91.33
21
-101.316
0
LINE
8
BLACK
6
CONTINUOUS
10
91.33
20
-101.316
11
91.1836
21
-101.17
0
LINE
8
BLACK
6
CONTINUOUS
10
91.1836
20
-101.17
11
91.0686
21
-100.998
0
LINE
8
BLACK
6
CONTINUOUS
10
91.0686
20
-100.998
11
90.9894
21
-100.807
0
LINE
8
BLACK
6
CONTINUOUS
10
90.9894
20
-100.807
11
90.949
21
-100.604
0
LINE
8
BLACK
6
CONTINUOUS
10
90.949
20
-100.604
11
90.949
21
-100.396
0
LINE
8
BLACK
6
CONTINUOUS
10
90.949
20
-100.396
11
90.9894
21
-100.193
0
LINE
8
BLACK
6
CONTINUOUS
10
90.9894
20
-100.193
11
91.0686
21
-100.002
0
LINE
8
BLACK
6
CONTINUOUS
10
91.0686
20
-100.002
11
91.1836
21
-99.83
0
LINE
8
BLACK
6
CONTINUOUS
10
91.1836
20
-99.83
11
91.33
21
-99.6836
0
LINE
8
BLACK
6
CONTINUOUS
10
91.33
20
-99.6836
11
91.5022
21
-99.5686
0
LINE
8
BLACK
6
CONTINUOUS
10
91.5022
20
-99.5686
11
91.6934
21
-99.4894
0
LINE
8
BLACK
6
CONTINUOUS
10
91.6934
20
-99.4894
11
91.8965
21
-99.449
0
LINE
8
BLACK
6
CONTINUOUS
10
91.8965
20
-99.449
11
92.1035
21
-99.449
0
LINE
8
BLACK
6
CONTINUOUS
10
92.1035
20
-99.449
11
92.3066
21
-99.4894
0
LINE
8
BLACK
6
CONTINUOUS
10
98.8066
20
-99.4894
11
98.9978
21
-99.5686
0
LINE
8
BLACK
6
CONTINUOUS
10
98.9978
20
-99.5686
11
99.17
21
-99.6836
0
LINE
8
BLACK
6
CONTINUOUS
10
99.17
20
-99.6836
11
99.3164
21
-99.83
0
LINE
8
BLACK
6
CONTINUOUS
10
99.3164
20
-99.83
11
99.4314
21
-100.002
0
LINE
8
BLACK
6
CONTINUOUS
10
99.4314
20
-100.002
11
99.5106
21
-100.193
0
LINE
8
BLACK
6
CONTINUOUS
10
99.5106
20
-100.193
11
99.551
21
-100.396
0
LINE
8
BLACK
6
CONTINUOUS
10
99.551
20
-100.396
11
99.551
21
-100.604
0
LINE
8
BLACK
6
CONTINUOUS
10
99.551
20
-100.604
11
99.5106
21
-100.807
0
LINE
8
BLACK
6
CONTINUOUS
10
99.5106
20
-100.807
11
99.4314
21
-100.998
0
LINE
8
BLACK
6
CONTINUOUS
10
99.4314
20
-100.998
11
99.3164
21
-101.17
0
LINE
8
BLACK
6
CONTINUOUS
10
99.3164
20
-101.17
11
99.17
21
-101.316
0
LINE
8
BLACK
6
CONTINUOUS
10
99.17
20
-101.316
11
98.9978
21
-101.431
0
LINE
8
BLACK
6
CONTINUOUS
10
98.9978
20
-101.431
11
98.8066
21
-101.511
0
LINE
8
BLACK
6
CONTINUOUS
10
98.8066
20
-101.511
11
98.6035
21
-101.551
0
LINE
8
BLACK
6
CONTINUOUS
10
98.6035
20
-101.551
11
98.3965
21
-101.551
0
LINE
8
BLACK
6
CONTINUOUS
10
98.3965
20
-101.551
11
98.1934
21
-101.511
0
LINE
8
BLACK
6
CONTINUOUS
10
98.1934
20
-101.511
11
98.0022
21
-101.431
0
LINE
8
BLACK
6
CONTINUOUS
10
98.0022
20
-101.431
11
97.83
21
-101.316
0
LINE
8
BLACK
6
CONTINUOUS
10
97.83
20
-101.316
11
97.6836
21
-101.17
0
LINE
8
BLACK
6
CONTINUOUS
10
97.6836
20
-101.17
11
97.5686
21
-100.998
0
LINE
8
BLACK
6
CONTINUOUS
10
97.5686
20
-100.998
11
97.4894
21
-100.807
0
LINE
8
BLACK
6
CONTINUOUS
10
97.4894
20
-100.807
11
97.449
21
-100.604
0
LINE
8
BLACK
6
CONTINUOUS
10
97.449
20
-100.604
11
97.449
21
-100.396
0
LINE
8
BLACK
6
CONTINUOUS
10
97.449
20
-100.396
11
97.4894
21
-100.193
0
LINE
8
BLACK
6
CONTINUOUS
10
97.4894
20
-100.193
11
97.5686
21
-100.002
0
LINE
8
BLACK
6
CONTINUOUS
10
97.5686
20
-100.002
11
97.6836
21
-99.83
0
LINE
8
BLACK
6
CONTINUOUS
10
97.6836
20
-99.83
11
97.83
21
-99.6836
0
LINE
8
BLACK
6
CONTINUOUS
10
97.83
20
-99.6836
11
98.0022
21
-99.5686
0
LINE
8
BLACK
6
CONTINUOUS
10
98.0022
20
-99.5686
11
98.1934
21
-99.4894
0
LINE
8
BLACK
6
CONTINUOUS
10
98.1934
20
-99.4894
11
98.3965
21
-99.449
0
LINE
8
BLACK
6
CONTINUOUS
10
98.3965
20
-99.449
11
98.6035
21
-99.449
0
LINE
8
BLACK
6
CONTINUOUS
10
98.6035
20
-99.449
11
98.8066
21
-99.4894
0
LINE
8
BLACK
6
CONTINUOUS
10
83.8066
20
-99.4894
11
83.9978
21
-99.5686
0
LINE
8
BLACK
6
CONTINUOUS
10
83.9978
20
-99.5686
11
84.17
21
-99.6836
0
LINE
8
BLACK
6
CONTINUOUS
10
84.17
20
-99.6836
11
84.3164
21
-99.83
0
LINE
8
BLACK
6
CONTINUOUS
10
84.3164
20
-99.83
11
84.4314
21
-100.002
0
LINE
8
BLACK
6
CONTINUOUS
10
84.4314
20
-100.002
11
84.5106
21
-100.193
0
LINE
8
BLACK
6
CONTINUOUS
10
84.5106
20
-100.193
11
84.551
21
-100.396
0
LINE
8
BLACK
6
CONTINUOUS
10
84.551
20
-100.396
11
84.551
21
-100.604
0
LINE
8
BLACK
6
CONTINUOUS
10
84.551
20
-100.604
11
84.5106
21
-100.807
0
LINE
8
BLACK
6
CONTINUOUS
10
84.5106
20
-100.807
11
84.4314
21
-100.998
0
LINE
8
BLACK
6
CONTINUOUS
10
84.4314
20
-100.998
11
84.3164
21
-101.17
0
LINE
8
BLACK
6
CONTINUOUS
10
84.3164
20
-101.17
11
84.17
21
-101.316
0
LINE
8
BLACK
6
CONTINUOUS
10
84.17
20
-101.316
11
83.9978
21
-101.431
0
LINE
8
BLACK
6
CONTINUOUS
10
83.9978
20
-101.431
11
83.8066
21
-101.511
0
LINE
8
BLACK
6
CONTINUOUS
10
83.8066
20
-101.511
11
83.6035
21
-101.551
0
LINE
8
BLACK
6
CONTINUOUS
10
83.6035
20
-101.551
11
83.3965
21
-101.551
0
LINE
8
BLACK
6
CONTINUOUS
10
83.3965
20
-101.551
11
83.1934
21
-101.511
0
LINE
8
BLACK
6
CONTINUOUS
10
83.1934
20
-101.511
11
83.0022
21
-101.431
0
LINE
8
BLACK
6
CONTINUOUS
10
83.0022
20
-101.431
11
82.83
21
-101.316
0
LINE
8
BLACK
6
CONTINUOUS
10
82.83
20
-101.316
11
82.6836
21
-101.17
0
LINE
8
BLACK
6
CONTINUOUS
10
82.6836
20
-101.17
11
82.5686
21
-100.998
0
LINE
8
BLACK
6
CONTINUOUS
10
82.5686
20
-100.998
11
82.4894
21
-100.807
0
LINE
8
BLACK
6
CONTINUOUS
10
82.4894
20
-100.807
11
82.449
21
-100.604
0
LINE
8
BLACK
6
CONTINUOUS
10
82.449
20
-100.604
11
82.449
21
-100.396
0
LINE
8
BLACK
6
CONTINUOUS
10
82.449
20
-100.396
11
82.4894
21
-100.193
0
LINE
8
BLACK
6
CONTINUOUS
10
82.4894
20
-100.193
11
82.5686
21
-100.002
0
LINE
8
BLACK
6
CONTINUOUS
10
82.5686
20
-100.002
11
82.6836
21
-99.83
0
LINE
8
BLACK
6
CONTINUOUS
10
82.6836
20
-99.83
11
82.83
21
-99.6836
0
LINE
8
BLACK
6
CONTINUOUS
10
82.83
20
-99.6836
11
83.0022
21
-99.5686
0
LINE
8
BLACK
6
CONTINUOUS
10
83.0022
20
-99.5686
11
83.1934
21
-99.4894
0
LINE
8
BLACK
6
CONTINUOUS
10
83.1934
20
-99.4894
11
83.3965
21
-99.449
0
LINE
8
BLACK
6
CONTINUOUS
10
83.3965
20
-99.449
11
83.6035
21
-99.449
0
LINE
8
BLACK
6
CONTINUOUS
10
83.6035
20
-99.449
11
83.8066
21
-99.4894
0
LINE
8
BLACK
6
CONTINUOUS
10
77.3066
20
-99.4894
11
77.4978
21
-99.5686
0
LINE
8
BLACK
6
CONTINUOUS
10
77.4978
20
-99.5686
11
77.67
21
-99.6836
0
LINE
8
BLACK
6
CONTINUOUS
10
77.67
20
-99.6836
11
77.8164
21
-99.83
0
LINE
8
BLACK
6
CONTINUOUS
10
77.8164
20
-99.83
11
77.9314
21
-100.002
0
LINE
8
BLACK
6
CONTINUOUS
10
77.9314
20
-100.002
11
78.0106
21
-100.193
0
LINE
8
BLACK
6
CONTINUOUS
10
78.0106
20
-100.193
11
78.051
21
-100.396
0
LINE
8
BLACK
6
CONTINUOUS
10
78.051
20
-100.396
11
78.051
21
-100.604
0
LINE
8
BLACK
6
CONTINUOUS
10
78.051
20
-100.604
11
78.0106
21
-100.807
0
LINE
8
BLACK
6
CONTINUOUS
10
78.0106
20
-100.807
11
77.9314
21
-100.998
0
LINE
8
BLACK
6
CONTINUOUS
10
77.9314
20
-100.998
11
77.8164
21
-101.17
0
LINE
8
BLACK
6
CONTINUOUS
10
77.8164
20
-101.17
11
77.67
21
-101.316
0
LINE
8
BLACK
6
CONTINUOUS
10
77.67
20
-101.316
11
77.4978
21
-101.431
0
LINE
8
BLACK
6
CONTINUOUS
10
77.4978
20
-101.431
11
77.3066
21
-101.511
0
LINE
8
BLACK
6
CONTINUOUS
10
77.3066
20
-101.511
11
77.1035
21
-101.551
0
LINE
8
BLACK
6
CONTINUOUS
10
77.1035
20
-101.551
11
76.8965
21
-101.551
0
LINE
8
BLACK
6
CONTINUOUS
10
76.8965
20
-101.551
11
76.6934
21
-101.511
0
LINE
8
BLACK
6
CONTINUOUS
10
76.6934
20
-101.511
11
76.5022
21
-101.431
0
LINE
8
BLACK
6
CONTINUOUS
10
76.5022
20
-101.431
11
76.33
21
-101.316
0
LINE
8
BLACK
6
CONTINUOUS
10
76.33
20
-101.316
11
76.1836
21
-101.17
0
LINE
8
BLACK
6
CONTINUOUS
10
76.1836
20
-101.17
11
76.0686
21
-100.998
0
LINE
8
BLACK
6
CONTINUOUS
10
76.0686
20
-100.998
11
75.9894
21
-100.807
0
LINE
8
BLACK
6
CONTINUOUS
10
75.9894
20
-100.807
11
75.949
21
-100.604
0
LINE
8
BLACK
6
CONTINUOUS
10
75.949
20
-100.604
11
75.949
21
-100.396
0
LINE
8
BLACK
6
CONTINUOUS
10
75.949
20
-100.396
11
75.9894
21
-100.193
0
LINE
8
BLACK
6
CONTINUOUS
10
75.9894
20
-100.193
11
76.0686
21
-100.002
0
LINE
8
BLACK
6
CONTINUOUS
10
76.0686
20
-100.002
11
76.1836
21
-99.83
0
LINE
8
BLACK
6
CONTINUOUS
10
76.1836
20
-99.83
11
76.33
21
-99.6836
0
LINE
8
BLACK
6
CONTINUOUS
10
76.33
20
-99.6836
11
76.5022
21
-99.5686
0
LINE
8
BLACK
6
CONTINUOUS
10
76.5022
20
-99.5686
11
76.6934
21
-99.4894
0
LINE
8
BLACK
6
CONTINUOUS
10
76.6934
20
-99.4894
11
76.8965
21
-99.449
0
LINE
8
BLACK
6
CONTINUOUS
10
76.8965
20
-99.449
11
77.1035
21
-99.449
0
LINE
8
BLACK
6
CONTINUOUS
10
77.1035
20
-99.449
11
77.3066
21
-99.4894
0
LINE
8
BLACK
6
CONTINUOUS
10
106.807
20
-99.4894
11
106.998
21
-99.5686
0
LINE
8
BLACK
6
CONTINUOUS
10
106.998
20
-99.5686
11
107.17
21
-99.6836
0
LINE
8
BLACK
6
CONTINUOUS
10
107.17
20
-99.6836
11
107.316
21
-99.83
0
LINE
8
BLACK
6
CONTINUOUS
10
107.316
20
-99.83
11
107.431
21
-100.002
0
LINE
8
BLACK
6
CONTINUOUS
10
107.431
20
-100.002
11
107.511
21
-100.193
0
LINE
8
BLACK
6
CONTINUOUS
10
107.511
20
-100.193
11
107.551
21
-100.396
0
LINE
8
BLACK
6
CONTINUOUS
10
107.551
20
-100.396
11
107.551
21
-100.604
0
LINE
8
BLACK
6
CONTINUOUS
10
107.551
20
-100.604
11
107.511
21
-100.807
0
LINE
8
BLACK
6
CONTINUOUS
10
107.511
20
-100.807
11
107.431
21
-100.998
0
LINE
8
BLACK
6
CONTINUOUS
10
107.431
20
-100.998
11
107.316
21
-101.17
0
LINE
8
BLACK
6
CONTINUOUS
10
107.316
20
-101.17
11
107.17
21
-101.316
0
LINE
8
BLACK
6
CONTINUOUS
10
107.17
20
-101.316
11
106.998
21
-101.431
0
LINE
8
BLACK
6
CONTINUOUS
10
106.998
20
-101.431
11
106.807
21
-101.511
0
LINE
8
BLACK
6
CONTINUOUS
10
106.807
20
-101.511
11
106.604
21
-101.551
0
LINE
8
BLACK
6
CONTINUOUS
10
106.604
20
-101.551
11
106.396
21
-101.551
0
LINE
8
BLACK
6
CONTINUOUS
10
106.396
20
-101.551
11
106.193
21
-101.511
0
LINE
8
BLACK
6
CONTINUOUS
10
106.193
20
-101.511
11
106.002
21
-101.431
0
LINE
8
BLACK
6
CONTINUOUS
10
106.002
20
-101.431
11
105.83
21
-101.316
0
LINE
8
BLACK
6
CONTINUOUS
10
105.83
20
-101.316
11
105.684
21
-101.17
0
LINE
8
BLACK
6
CONTINUOUS
10
105.684
20
-101.17
11
105.569
21
-100.998
0
LINE
8
BLACK
6
CONTINUOUS
10
105.569
20
-100.998
11
105.489
21
-100.807
0
LINE
8
BLACK
6
CONTINUOUS
10
105.489
20
-100.807
11
105.449
21
-100.604
0
LINE
8
BLACK
6
CONTINUOUS
10
105.449
20
-100.604
11
105.449
21
-100.396
0
LINE
8
BLACK
6
CONTINUOUS
10
105.449
20
-100.396
11
105.489
21
-100.193
0
LINE
8
BLACK
6
CONTINUOUS
10
105.489
20
-100.193
11
105.569
21
-100.002
0
LINE
8
BLACK
6
CONTINUOUS
10
105.569
20
-100.002
11
105.684
21
-99.83
0
LINE
8
BLACK
6
CONTINUOUS
10
105.684
20
-99.83
11
105.83
21
-99.6836
0
LINE
8
BLACK
6
CONTINUOUS
10
105.83
20
-99.6836
11
106.002
21
-99.5686
0
LINE
8
BLACK
6
CONTINUOUS
10
106.002
20
-99.5686
11
106.193
21
-99.4894
0
LINE
8
BLACK
6
CONTINUOUS
10
106.193
20
-99.4894
11
106.396
21
-99.449
0
LINE
8
BLACK
6
CONTINUOUS
10
106.396
20
-99.449
11
106.604
21
-99.449
0
LINE
8
BLACK
6
CONTINUOUS
10
106.604
20
-99.449
11
106.807
21
-99.4894
0
LINE
8
BLACK
6
CONTINUOUS
10
113.307
20
-94.9894
11
113.498
21
-95.0686
0
LINE
8
BLACK
6
CONTINUOUS
10
113.498
20
-95.0686
11
113.67
21
-95.1836
0
LINE
8
BLACK
6
CONTINUOUS
10
113.67
20
-95.1836
11
113.816
21
-95.33
0
LINE
8
BLACK
6
CONTINUOUS
10
113.816
20
-95.33
11
113.931
21
-95.5022
0
LINE
8
BLACK
6
CONTINUOUS
10
113.931
20
-95.5022
11
114.011
21
-95.6934
0
LINE
8
BLACK
6
CONTINUOUS
10
114.011
20
-95.6934
11
114.051
21
-95.8965
0
LINE
8
BLACK
6
CONTINUOUS
10
114.051
20
-95.8965
11
114.051
21
-96.1035
0
LINE
8
BLACK
6
CONTINUOUS
10
114.051
20
-96.1035
11
114.011
21
-96.3066
0
LINE
8
BLACK
6
CONTINUOUS
10
114.011
20
-96.3066
11
113.931
21
-96.4978
0
LINE
8
BLACK
6
CONTINUOUS
10
113.931
20
-96.4978
11
113.816
21
-96.67
0
LINE
8
BLACK
6
CONTINUOUS
10
113.816
20
-96.67
11
113.67
21
-96.8164
0
LINE
8
BLACK
6
CONTINUOUS
10
113.67
20
-96.8164
11
113.498
21
-96.9314
0
LINE
8
BLACK
6
CONTINUOUS
10
113.498
20
-96.9314
11
113.307
21
-97.0106
0
LINE
8
BLACK
6
CONTINUOUS
10
113.307
20
-97.0106
11
113.104
21
-97.051
0
LINE
8
BLACK
6
CONTINUOUS
10
113.104
20
-97.051
11
112.896
21
-97.051
0
LINE
8
BLACK
6
CONTINUOUS
10
112.896
20
-97.051
11
112.693
21
-97.0106
0
LINE
8
BLACK
6
CONTINUOUS
10
112.693
20
-97.0106
11
112.502
21
-96.9314
0
LINE
8
BLACK
6
CONTINUOUS
10
112.502
20
-96.9314
11
112.33
21
-96.8164
0
LINE
8
BLACK
6
CONTINUOUS
10
112.33
20
-96.8164
11
112.184
21
-96.67
0
LINE
8
BLACK
6
CONTINUOUS
10
112.184
20
-96.67
11
112.069
21
-96.4978
0
LINE
8
BLACK
6
CONTINUOUS
10
112.069
20
-96.4978
11
111.989
21
-96.3066
0
LINE
8
BLACK
6
CONTINUOUS
10
111.989
20
-96.3066
11
111.949
21
-96.1035
0
LINE
8
BLACK
6
CONTINUOUS
10
111.949
20
-96.1035
11
111.949
21
-95.8965
0
LINE
8
BLACK
6
CONTINUOUS
10
111.949
20
-95.8965
11
111.989
21
-95.6934
0
LINE
8
BLACK
6
CONTINUOUS
10
111.989
20
-95.6934
11
112.069
21
-95.5022
0
LINE
8
BLACK
6
CONTINUOUS
10
112.069
20
-95.5022
11
112.184
21
-95.33
0
LINE
8
BLACK
6
CONTINUOUS
10
112.184
20
-95.33
11
112.33
21
-95.1836
0
LINE
8
BLACK
6
CONTINUOUS
10
112.33
20
-95.1836
11
112.502
21
-95.0686
0
LINE
8
BLACK
6
CONTINUOUS
10
112.502
20
-95.0686
11
112.693
21
-94.9894
0
LINE
8
BLACK
6
CONTINUOUS
10
112.693
20
-94.9894
11
112.896
21
-94.949
0
LINE
8
BLACK
6
CONTINUOUS
10
112.896
20
-94.949
11
113.104
21
-94.949
0
LINE
8
BLACK
6
CONTINUOUS
10
113.104
20
-94.949
11
113.307
21
-94.9894
0
LINE
8
BLACK
6
CONTINUOUS
10
77.3066
20
-94.9894
11
77.4978
21
-95.0686
0
LINE
8
BLACK
6
CONTINUOUS
10
77.4978
20
-95.0686
11
77.67
21
-95.1836
0
LINE
8
BLACK
6
CONTINUOUS
10
77.67
20
-95.1836
11
77.8164
21
-95.33
0
LINE
8
BLACK
6
CONTINUOUS
10
77.8164
20
-95.33
11
77.9314
21
-95.5022
0
LINE
8
BLACK
6
CONTINUOUS
10
77.9314
20
-95.5022
11
78.0106
21
-95.6934
0
LINE
8
BLACK
6
CONTINUOUS
10
78.0106
20
-95.6934
11
78.051
21
-95.8965
0
LINE
8
BLACK
6
CONTINUOUS
10
78.051
20
-95.8965
11
78.051
21
-96.1035
0
LINE
8
BLACK
6
CONTINUOUS
10
78.051
20
-96.1035
11
78.0106
21
-96.3066
0
LINE
8
BLACK
6
CONTINUOUS
10
78.0106
20
-96.3066
11
77.9314
21
-96.4978
0
LINE
8
BLACK
6
CONTINUOUS
10
77.9314
20
-96.4978
11
77.8164
21
-96.67
0
LINE
8
BLACK
6
CONTINUOUS
10
77.8164
20
-96.67
11
77.67
21
-96.8164
0
LINE
8
BLACK
6
CONTINUOUS
10
77.67
20
-96.8164
11
77.4978
21
-96.9314
0
LINE
8
BLACK
6
CONTINUOUS
10
77.4978
20
-96.9314
11
77.3066
21
-97.0106
0
LINE
8
BLACK
6
CONTINUOUS
10
77.3066
20
-97.0106
11
77.1035
21
-97.051
0
LINE
8
BLACK
6
CONTINUOUS
10
77.1035
20
-97.051
11
76.8965
21
-97.051
0
LINE
8
BLACK
6
CONTINUOUS
10
76.8965
20
-97.051
11
76.6934
21
-97.0106
0
LINE
8
BLACK
6
CONTINUOUS
10
76.6934
20
-97.0106
11
76.5022
21
-96.9314
0
LINE
8
BLACK
6
CONTINUOUS
10
76.5022
20
-96.9314
11
76.33
21
-96.8164
0
LINE
8
BLACK
6
CONTINUOUS
10
76.33
20
-96.8164
11
76.1836
21
-96.67
0
LINE
8
BLACK
6
CONTINUOUS
10
76.1836
20
-96.67
11
76.0686
21
-96.4978
0
LINE
8
BLACK
6
CONTINUOUS
10
76.0686
20
-96.4978
11
75.9894
21
-96.3066
0
LINE
8
BLACK
6
CONTINUOUS
10
75.9894
20
-96.3066
11
75.949
21
-96.1035
0
LINE
8
BLACK
6
CONTINUOUS
10
75.949
20
-96.1035
11
75.949
21
-95.8965
0
LINE
8
BLACK
6
CONTINUOUS
10
75.949
20
-95.8965
11
75.9894
21
-95.6934
0
LINE
8
BLACK
6
CONTINUOUS
10
75.9894
20
-95.6934
11
76.0686
21
-95.5022
0
LINE
8
BLACK
6
CONTINUOUS
10
76.0686
20
-95.5022
11
76.1836
21
-95.33
0
LINE
8
BLACK
6
CONTINUOUS
10
76.1836
20
-95.33
11
76.33
21
-95.1836
0
LINE
8
BLACK
6
CONTINUOUS
10
76.33
20
-95.1836
11
76.5022
21
-95.0686
0
LINE
8
BLACK
6
CONTINUOUS
10
76.5022
20
-95.0686
11
76.6934
21
-94.9894
0
LINE
8
BLACK
6
CONTINUOUS
10
76.6934
20
-94.9894
11
76.8965
21
-94.949
0
LINE
8
BLACK
6
CONTINUOUS
10
76.8965
20
-94.949
11
77.1035
21
-94.949
0
LINE
8
BLACK
6
CONTINUOUS
10
77.1035
20
-94.949
11
77.3066
21
-94.9894
0
LINE
8
BLACK
6
CONTINUOUS
10
83.8066
20
-94.9894
11
83.9978
21
-95.0686
0
LINE
8
BLACK
6
CONTINUOUS
10
83.9978
20
-95.0686
11
84.17
21
-95.1836
0
LINE
8
BLACK
6
CONTINUOUS
10
84.17
20
-95.1836
11
84.3164
21
-95.33
0
LINE
8
BLACK
6
CONTINUOUS
10
84.3164
20
-95.33
11
84.4314
21
-95.5022
0
LINE
8
BLACK
6
CONTINUOUS
10
84.4314
20
-95.5022
11
84.5106
21
-95.6934
0
LINE
8
BLACK
6
CONTINUOUS
10
84.5106
20
-95.6934
11
84.551
21
-95.8965
0
LINE
8
BLACK
6
CONTINUOUS
10
84.551
20
-95.8965
11
84.551
21
-96.1035
0
LINE
8
BLACK
6
CONTINUOUS
10
84.551
20
-96.1035
11
84.5106
21
-96.3066
0
LINE
8
BLACK
6
CONTINUOUS
10
84.5106
20
-96.3066
11
84.4314
21
-96.4978
0
LINE
8
BLACK
6
CONTINUOUS
10
84.4314
20
-96.4978
11
84.3164
21
-96.67
0
LINE
8
BLACK
6
CONTINUOUS
10
84.3164
20
-96.67
11
84.17
21
-96.8164
0
LINE
8
BLACK
6
CONTINUOUS
10
84.17
20
-96.8164
11
83.9978
21
-96.9314
0
LINE
8
BLACK
6
CONTINUOUS
10
83.9978
20
-96.9314
11
83.8066
21
-97.0106
0
LINE
8
BLACK
6
CONTINUOUS
10
83.8066
20
-97.0106
11
83.6035
21
-97.051
0
LINE
8
BLACK
6
CONTINUOUS
10
83.6035
20
-97.051
11
83.3965
21
-97.051
0
LINE
8
BLACK
6
CONTINUOUS
10
83.3965
20
-97.051
11
83.1934
21
-97.0106
0
LINE
8
BLACK
6
CONTINUOUS
10
83.1934
20
-97.0106
11
83.0022
21
-96.9314
0
LINE
8
BLACK
6
CONTINUOUS
10
83.0022
20
-96.9314
11
82.83
21
-96.8164
0
LINE
8
BLACK
6
CONTINUOUS
10
82.83
20
-96.8164
11
82.6836
21
-96.67
0
LINE
8
BLACK
6
CONTINUOUS
10
82.6836
20
-96.67
11
82.5686
21
-96.4978
0
LINE
8
BLACK
6
CONTINUOUS
10
82.5686
20
-96.4978
11
82.4894
21
-96.3066
0
LINE
8
BLACK
6
CONTINUOUS
10
82.4894
20
-96.3066
11
82.449
21
-96.1035
0
LINE
8
BLACK
6
CONTINUOUS
10
82.449
20
-96.1035
11
82.449
21
-95.8965
0
LINE
8
BLACK
6
CONTINUOUS
10
82.449
20
-95.8965
11
82.4894
21
-95.6934
0
LINE
8
BLACK
6
CONTINUOUS
10
82.4894
20
-95.6934
11
82.5686
21
-95.5022
0
LINE
8
BLACK
6
CONTINUOUS
10
82.5686
20
-95.5022
11
82.6836
21
-95.33
0
LINE
8
BLACK
6
CONTINUOUS
10
82.6836
20
-95.33
11
82.83
21
-95.1836
0
LINE
8
BLACK
6
CONTINUOUS
10
82.83
20
-95.1836
11
83.0022
21
-95.0686
0
LINE
8
BLACK
6
CONTINUOUS
10
83.0022
20
-95.0686
11
83.1934
21
-94.9894
0
LINE
8
BLACK
6
CONTINUOUS
10
83.1934
20
-94.9894
11
83.3965
21
-94.949
0
LINE
8
BLACK
6
CONTINUOUS
10
83.3965
20
-94.949
11
83.6035
21
-94.949
0
LINE
8
BLACK
6
CONTINUOUS
10
83.6035
20
-94.949
11
83.8066
21
-94.9894
0
LINE
8
BLACK
6
CONTINUOUS
10
92.3066
20
-94.9894
11
92.4978
21
-95.0686
0
LINE
8
BLACK
6
CONTINUOUS
10
92.4978
20
-95.0686
11
92.67
21
-95.1836
0
LINE
8
BLACK
6
CONTINUOUS
10
92.67
20
-95.1836
11
92.8164
21
-95.33
0
LINE
8
BLACK
6
CONTINUOUS
10
92.8164
20
-95.33
11
92.9314
21
-95.5022
0
LINE
8
BLACK
6
CONTINUOUS
10
92.9314
20
-95.5022
11
93.0106
21
-95.6934
0
LINE
8
BLACK
6
CONTINUOUS
10
93.0106
20
-95.6934
11
93.051
21
-95.8965
0
LINE
8
BLACK
6
CONTINUOUS
10
93.051
20
-95.8965
11
93.051
21
-96.1035
0
LINE
8
BLACK
6
CONTINUOUS
10
93.051
20
-96.1035
11
93.0106
21
-96.3066
0
LINE
8
BLACK
6
CONTINUOUS
10
93.0106
20
-96.3066
11
92.9314
21
-96.4978
0
LINE
8
BLACK
6
CONTINUOUS
10
92.9314
20
-96.4978
11
92.8164
21
-96.67
0
LINE
8
BLACK
6
CONTINUOUS
10
92.8164
20
-96.67
11
92.67
21
-96.8164
0
LINE
8
BLACK
6
CONTINUOUS
10
92.67
20
-96.8164
11
92.4978
21
-96.9314
0
LINE
8
BLACK
6
CONTINUOUS
10
92.4978
20
-96.9314
11
92.3066
21
-97.0106
0
LINE
8
BLACK
6
CONTINUOUS
10
92.3066
20
-97.0106
11
92.1035
21
-97.051
0
LINE
8
BLACK
6
CONTINUOUS
10
92.1035
20
-97.051
11
91.8965
21
-97.051
0
LINE
8
BLACK
6
CONTINUOUS
10
91.8965
20
-97.051
11
91.6934
21
-97.0106
0
LINE
8
BLACK
6
CONTINUOUS
10
91.6934
20
-97.0106
11
91.5022
21
-96.9314
0
LINE
8
BLACK
6
CONTINUOUS
10
91.5022
20
-96.9314
11
91.33
21
-96.8164
0
LINE
8
BLACK
6
CONTINUOUS
10
91.33
20
-96.8164
11
91.1836
21
-96.67
0
LINE
8
BLACK
6
CONTINUOUS
10
91.1836
20
-96.67
11
91.0686
21
-96.4978
0
LINE
8
BLACK
6
CONTINUOUS
10
91.0686
20
-96.4978
11
90.9894
21
-96.3066
0
LINE
8
BLACK
6
CONTINUOUS
10
90.9894
20
-96.3066
11
90.949
21
-96.1035
0
LINE
8
BLACK
6
CONTINUOUS
10
90.949
20
-96.1035
11
90.949
21
-95.8965
0
LINE
8
BLACK
6
CONTINUOUS
10
90.949
20
-95.8965
11
90.9894
21
-95.6934
0
LINE
8
BLACK
6
CONTINUOUS
10
90.9894
20
-95.6934
11
91.0686
21
-95.5022
0
LINE
8
BLACK
6
CONTINUOUS
10
91.0686
20
-95.5022
11
91.1836
21
-95.33
0
LINE
8
BLACK
6
CONTINUOUS
10
91.1836
20
-95.33
11
91.33
21
-95.1836
0
LINE
8
BLACK
6
CONTINUOUS
10
91.33
20
-95.1836
11
91.5022
21
-95.0686
0
LINE
8
BLACK
6
CONTINUOUS
10
91.5022
20
-95.0686
11
91.6934
21
-94.9894
0
LINE
8
BLACK
6
CONTINUOUS
10
91.6934
20
-94.9894
11
91.8965
21
-94.949
0
LINE
8
BLACK
6
CONTINUOUS
10
91.8965
20
-94.949
11
92.1035
21
-94.949
0
LINE
8
BLACK
6
CONTINUOUS
10
92.1035
20
-94.949
11
92.3066
21
-94.9894
0
LINE
8
BLACK
6
CONTINUOUS
10
106.807
20
-94.9894
11
106.998
21
-95.0686
0
LINE
8
BLACK
6
CONTINUOUS
10
106.998
20
-95.0686
11
107.17
21
-95.1836
0
LINE
8
BLACK
6
CONTINUOUS
10
107.17
20
-95.1836
11
107.316
21
-95.33
0
LINE
8
BLACK
6
CONTINUOUS
10
107.316
20
-95.33
11
107.431
21
-95.5022
0
LINE
8
BLACK
6
CONTINUOUS
10
107.431
20
-95.5022
11
107.511
21
-95.6934
0
LINE
8
BLACK
6
CONTINUOUS
10
107.511
20
-95.6934
11
107.551
21
-95.8965
0
LINE
8
BLACK
6
CONTINUOUS
10
107.551
20
-95.8965
11
107.551
21
-96.1035
0
LINE
8
BLACK
6
CONTINUOUS
10
107.551
20
-96.1035
11
107.511
21
-96.3066
0
LINE
8
BLACK
6
CONTINUOUS
10
107.511
20
-96.3066
11
107.431
21
-96.4978
0
LINE
8
BLACK
6
CONTINUOUS
10
107.431
20
-96.4978
11
107.316
21
-96.67
0
LINE
8
BLACK
6
CONTINUOUS
10
107.316
20
-96.67
11
107.17
21
-96.8164
0
LINE
8
BLACK
6
CONTINUOUS
10
107.17
20
-96.8164
11
106.998
21
-96.9314
0
LINE
8
BLACK
6
CONTINUOUS
10
106.998
20
-96.9314
11
106.807
21
-97.0106
0
LINE
8
BLACK
6
CONTINUOUS
10
106.807
20
-97.0106
11
106.604
21
-97.051
0
LINE
8
BLACK
6
CONTINUOUS
10
106.604
20
-97.051
11
106.396
21
-97.051
0
LINE
8
BLACK
6
CONTINUOUS
10
106.396
20
-97.051
11
106.193
21
-97.0106
0
LINE
8
BLACK
6
CONTINUOUS
10
106.193
20
-97.0106
11
106.002
21
-96.9314
0
LINE
8
BLACK
6
CONTINUOUS
10
106.002
20
-96.9314
11
105.83
21
-96.8164
0
LINE
8
BLACK
6
CONTINUOUS
10
105.83
20
-96.8164
11
105.684
21
-96.67
0
LINE
8
BLACK
6
CONTINUOUS
10
105.684
20
-96.67
11
105.569
21
-96.4978
0
LINE
8
BLACK
6
CONTINUOUS
10
105.569
20
-96.4978
11
105.489
21
-96.3066
0
LINE
8
BLACK
6
CONTINUOUS
10
105.489
20
-96.3066
11
105.449
21
-96.1035
0
LINE
8
BLACK
6
CONTINUOUS
10
105.449
20
-96.1035
11
105.449
21
-95.8965
0
LINE
8
BLACK
6
CONTINUOUS
10
105.449
20
-95.8965
11
105.489
21
-95.6934
0
LINE
8
BLACK
6
CONTINUOUS
10
105.489
20
-95.6934
11
105.569
21
-95.5022
0
LINE
8
BLACK
6
CONTINUOUS
10
105.569
20
-95.5022
11
105.684
21
-95.33
0
LINE
8
BLACK
6
CONTINUOUS
10
105.684
20
-95.33
11
105.83
21
-95.1836
0
LINE
8
BLACK
6
CONTINUOUS
10
105.83
20
-95.1836
11
106.002
21
-95.0686
0
LINE
8
BLACK
6
CONTINUOUS
10
106.002
20
-95.0686
11
106.193
21
-94.9894
0
LINE
8
BLACK
6
CONTINUOUS
10
106.193
20
-94.9894
11
106.396
21
-94.949
0
LINE
8
BLACK
6
CONTINUOUS
10
106.396
20
-94.949
11
106.604
21
-94.949
0
LINE
8
BLACK
6
CONTINUOUS
10
106.604
20
-94.949
11
106.807
21
-94.9894
0
LINE
8
BLACK
6
CONTINUOUS
10
98.8066
20
-94.9894
11
98.9978
21
-95.0686
0
LINE
8
BLACK
6
CONTINUOUS
10
98.9978
20
-95.0686
11
99.17
21
-95.1836
0
LINE
8
BLACK
6
CONTINUOUS
10
99.17
20
-95.1836
11
99.3164
21
-95.33
0
LINE
8
BLACK
6
CONTINUOUS
10
99.3164
20
-95.33
11
99.4314
21
-95.5022
0
LINE
8
BLACK
6
CONTINUOUS
10
99.4314
20
-95.5022
11
99.5106
21
-95.6934
0
LINE
8
BLACK
6
CONTINUOUS
10
99.5106
20
-95.6934
11
99.551
21
-95.8965
0
LINE
8
BLACK
6
CONTINUOUS
10
99.551
20
-95.8965
11
99.551
21
-96.1035
0
LINE
8
BLACK
6
CONTINUOUS
10
99.551
20
-96.1035
11
99.5106
21
-96.3066
0
LINE
8
BLACK
6
CONTINUOUS
10
99.5106
20
-96.3066
11
99.4314
21
-96.4978
0
LINE
8
BLACK
6
CONTINUOUS
10
99.4314
20
-96.4978
11
99.3164
21
-96.67
0
LINE
8
BLACK
6
CONTINUOUS
10
99.3164
20
-96.67
11
99.17
21
-96.8164
0
LINE
8
BLACK
6
CONTINUOUS
10
99.17
20
-96.8164
11
98.9978
21
-96.9314
0
LINE
8
BLACK
6
CONTINUOUS
10
98.9978
20
-96.9314
11
98.8066
21
-97.0106
0
LINE
8
BLACK
6
CONTINUOUS
10
98.8066
20
-97.0106
11
98.6035
21
-97.051
0
LINE
8
BLACK
6
CONTINUOUS
10
98.6035
20
-97.051
11
98.3965
21
-97.051
0
LINE
8
BLACK
6
CONTINUOUS
10
98.3965
20
-97.051
11
98.1934
21
-97.0106
0
LINE
8
BLACK
6
CONTINUOUS
10
98.1934
20
-97.0106
11
98.0022
21
-96.9314
0
LINE
8
BLACK
6
CONTINUOUS
10
98.0022
20
-96.9314
11
97.83
21
-96.8164
0
LINE
8
BLACK
6
CONTINUOUS
10
97.83
20
-96.8164
11
97.6836
21
-96.67
0
LINE
8
BLACK
6
CONTINUOUS
10
97.6836
20
-96.67
11
97.5686
21
-96.4978
0
LINE
8
BLACK
6
CONTINUOUS
10
97.5686
20
-96.4978
11
97.4894
21
-96.3066
0
LINE
8
BLACK
6
CONTINUOUS
10
97.4894
20
-96.3066
11
97.449
21
-96.1035
0
LINE
8
BLACK
6
CONTINUOUS
10
97.449
20
-96.1035
11
97.449
21
-95.8965
0
LINE
8
BLACK
6
CONTINUOUS
10
97.449
20
-95.8965
11
97.4894
21
-95.6934
0
LINE
8
BLACK
6
CONTINUOUS
10
97.4894
20
-95.6934
11
97.5686
21
-95.5022
0
LINE
8
BLACK
6
CONTINUOUS
10
97.5686
20
-95.5022
11
97.6836
21
-95.33
0
LINE
8
BLACK
6
CONTINUOUS
10
97.6836
20
-95.33
11
97.83
21
-95.1836
0
LINE
8
BLACK
6
CONTINUOUS
10
97.83
20
-95.1836
11
98.0022
21
-95.0686
0
LINE
8
BLACK
6
CONTINUOUS
10
98.0022
20
-95.0686
11
98.1934
21
-94.9894
0
LINE
8
BLACK
6
CONTINUOUS
10
98.1934
20
-94.9894
11
98.3965
21
-94.949
0
LINE
8
BLACK
6
CONTINUOUS
10
98.3965
20
-94.949
11
98.6035
21
-94.949
0
LINE
8
BLACK
6
CONTINUOUS
10
98.6035
20
-94.949
11
98.8066
21
-94.9894
0
LINE
8
BLACK
6
CONTINUOUS
10
83.7653
20
-89.2313
11
83.8716
21
-89.2524
0
LINE
8
BLACK
6
CONTINUOUS
10
83.8716
20
-89.2524
11
84.172
21
-89.3769
0
LINE
8
BLACK
6
CONTINUOUS
10
84.172
20
-89.3769
11
84.4389
21
-89.5552
0
LINE
8
BLACK
6
CONTINUOUS
10
84.4389
20
-89.5552
11
84.4425
21
-89.5576
0
LINE
8
BLACK
6
CONTINUOUS
10
84.4425
20
-89.5576
11
84.6724
21
-89.7875
0
LINE
8
BLACK
6
CONTINUOUS
10
84.6724
20
-89.7875
11
84.8531
21
-90.058
0
LINE
8
BLACK
6
CONTINUOUS
10
84.8531
20
-90.058
11
84.9776
21
-90.3584
0
LINE
8
BLACK
6
CONTINUOUS
10
84.9776
20
-90.3584
11
85.041
21
-90.6774
0
LINE
8
BLACK
6
CONTINUOUS
10
85.041
20
-90.6774
11
85.041
21
-91.0026
0
LINE
8
BLACK
6
CONTINUOUS
10
85.041
20
-91.0026
11
84.9776
21
-91.3216
0
LINE
8
BLACK
6
CONTINUOUS
10
84.9776
20
-91.3216
11
84.8531
21
-91.622
0
LINE
8
BLACK
6
CONTINUOUS
10
84.8531
20
-91.622
11
84.6724
21
-91.8925
0
LINE
8
BLACK
6
CONTINUOUS
10
84.6724
20
-91.8925
11
84.4425
21
-92.1224
0
LINE
8
BLACK
6
CONTINUOUS
10
84.4425
20
-92.1224
11
84.4425
21
-92.1224
0
LINE
8
BLACK
6
CONTINUOUS
10
84.4425
20
-92.1224
11
84.172
21
-92.3031
0
LINE
8
BLACK
6
CONTINUOUS
10
84.172
20
-92.3031
11
83.8716
21
-92.4276
0
LINE
8
BLACK
6
CONTINUOUS
10
83.8716
20
-92.4276
11
83.7653
21
-92.4487
0
LINE
8
BLACK
6
CONTINUOUS
10
83.7653
20
-92.4487
11
83.5526
21
-92.491
0
LINE
8
BLACK
6
CONTINUOUS
10
83.5526
20
-92.491
11
83.2274
21
-92.491
0
LINE
8
BLACK
6
CONTINUOUS
10
83.2274
20
-92.491
11
83.0147
21
-92.4487
0
LINE
8
BLACK
6
CONTINUOUS
10
83.0147
20
-92.4487
11
82.9084
21
-92.4276
0
LINE
8
BLACK
6
CONTINUOUS
10
82.9084
20
-92.4276
11
82.608
21
-92.3031
0
LINE
8
BLACK
6
CONTINUOUS
10
82.608
20
-92.3031
11
82.3375
21
-92.1224
0
LINE
8
BLACK
6
CONTINUOUS
10
82.3375
20
-92.1224
11
82.3375
21
-92.1224
0
LINE
8
BLACK
6
CONTINUOUS
10
82.3375
20
-92.1224
11
82.1076
21
-91.8925
0
LINE
8
BLACK
6
CONTINUOUS
10
82.1076
20
-91.8925
11
81.9269
21
-91.622
0
LINE
8
BLACK
6
CONTINUOUS
10
81.9269
20
-91.622
11
81.8024
21
-91.3216
0
LINE
8
BLACK
6
CONTINUOUS
10
81.8024
20
-91.3216
11
81.739
21
-91.0026
0
LINE
8
BLACK
6
CONTINUOUS
10
81.739
20
-91.0026
11
81.739
21
-90.6774
0
LINE
8
BLACK
6
CONTINUOUS
10
81.739
20
-90.6774
11
81.8024
21
-90.3584
0
LINE
8
BLACK
6
CONTINUOUS
10
81.8024
20
-90.3584
11
81.9269
21
-90.058
0
LINE
8
BLACK
6
CONTINUOUS
10
81.9269
20
-90.058
11
82.1076
21
-89.7875
0
LINE
8
BLACK
6
CONTINUOUS
10
82.1076
20
-89.7875
11
82.3375
21
-89.5576
0
LINE
8
BLACK
6
CONTINUOUS
10
82.3375
20
-89.5576
11
82.3411
21
-89.5552
0
LINE
8
BLACK
6
CONTINUOUS
10
82.3411
20
-89.5552
11
82.608
21
-89.3769
0
LINE
8
BLACK
6
CONTINUOUS
10
82.608
20
-89.3769
11
82.9084
21
-89.2524
0
LINE
8
BLACK
6
CONTINUOUS
10
82.9084
20
-89.2524
11
83.0147
21
-89.2313
0
LINE
8
BLACK
6
CONTINUOUS
10
83.0147
20
-89.2313
11
83.2274
21
-89.189
0
LINE
8
BLACK
6
CONTINUOUS
10
83.2274
20
-89.189
11
83.5526
21
-89.189
0
LINE
8
BLACK
6
CONTINUOUS
10
83.5526
20
-89.189
11
83.7653
21
-89.2313
0
LINE
8
BLACK
6
CONTINUOUS
10
108.755
20
-89.2313
11
108.862
21
-89.2524
0
LINE
8
BLACK
6
CONTINUOUS
10
108.862
20
-89.2524
11
109.162
21
-89.3769
0
LINE
8
BLACK
6
CONTINUOUS
10
109.162
20
-89.3769
11
109.429
21
-89.5552
0
LINE
8
BLACK
6
CONTINUOUS
10
109.429
20
-89.5552
11
109.432
21
-89.5576
0
LINE
8
BLACK
6
CONTINUOUS
10
109.432
20
-89.5576
11
109.662
21
-89.7875
0
LINE
8
BLACK
6
CONTINUOUS
10
109.662
20
-89.7875
11
109.843
21
-90.058
0
LINE
8
BLACK
6
CONTINUOUS
10
109.843
20
-90.058
11
109.968
21
-90.3584
0
LINE
8
BLACK
6
CONTINUOUS
10
109.968
20
-90.3584
11
110.031
21
-90.6774
0
LINE
8
BLACK
6
CONTINUOUS
10
110.031
20
-90.6774
11
110.031
21
-91.0026
0
LINE
8
BLACK
6
CONTINUOUS
10
110.031
20
-91.0026
11
109.968
21
-91.3216
0
LINE
8
BLACK
6
CONTINUOUS
10
109.968
20
-91.3216
11
109.843
21
-91.622
0
LINE
8
BLACK
6
CONTINUOUS
10
109.843
20
-91.622
11
109.662
21
-91.8925
0
LINE
8
BLACK
6
CONTINUOUS
10
109.662
20
-91.8925
11
109.432
21
-92.1224
0
LINE
8
BLACK
6
CONTINUOUS
10
109.432
20
-92.1224
11
109.432
21
-92.1224
0
LINE
8
BLACK
6
CONTINUOUS
10
109.432
20
-92.1224
11
109.162
21
-92.3031
0
LINE
8
BLACK
6
CONTINUOUS
10
109.162
20
-92.3031
11
108.862
21
-92.4276
0
LINE
8
BLACK
6
CONTINUOUS
10
108.862
20
-92.4276
11
108.755
21
-92.4487
0
LINE
8
BLACK
6
CONTINUOUS
10
108.755
20
-92.4487
11
108.543
21
-92.491
0
LINE
8
BLACK
6
CONTINUOUS
10
108.543
20
-92.491
11
108.217
21
-92.491
0
LINE
8
BLACK
6
CONTINUOUS
10
108.217
20
-92.491
11
108.005
21
-92.4487
0
LINE
8
BLACK
6
CONTINUOUS
10
108.005
20
-92.4487
11
107.898
21
-92.4276
0
LINE
8
BLACK
6
CONTINUOUS
10
107.898
20
-92.4276
11
107.598
21
-92.3031
0
LINE
8
BLACK
6
CONTINUOUS
10
107.598
20
-92.3031
11
107.328
21
-92.1224
0
LINE
8
BLACK
6
CONTINUOUS
10
107.328
20
-92.1224
11
107.328
21
-92.1224
0
LINE
8
BLACK
6
CONTINUOUS
10
107.328
20
-92.1224
11
107.098
21
-91.8925
0
LINE
8
BLACK
6
CONTINUOUS
10
107.098
20
-91.8925
11
106.917
21
-91.622
0
LINE
8
BLACK
6
CONTINUOUS
10
106.917
20
-91.622
11
106.792
21
-91.3216
0
LINE
8
BLACK
6
CONTINUOUS
10
106.792
20
-91.3216
11
106.729
21
-91.0026
0
LINE
8
BLACK
6
CONTINUOUS
10
106.729
20
-91.0026
11
106.729
21
-90.6774
0
LINE
8
BLACK
6
CONTINUOUS
10
106.729
20
-90.6774
11
106.792
21
-90.3584
0
LINE
8
BLACK
6
CONTINUOUS
10
106.792
20
-90.3584
11
106.917
21
-90.058
0
LINE
8
BLACK
6
CONTINUOUS
10
106.917
20
-90.058
11
107.098
21
-89.7875
0
LINE
8
BLACK
6
CONTINUOUS
10
107.098
20
-89.7875
11
107.328
21
-89.5576
0
LINE
8
BLACK
6
CONTINUOUS
10
107.328
20
-89.5576
11
107.331
21
-89.5552
0
LINE
8
BLACK
6
CONTINUOUS
10
107.331
20
-89.5552
11
107.598
21
-89.3769
0
LINE
8
BLACK
6
CONTINUOUS
10
107.598
20
-89.3769
11
107.898
21
-89.2524
0
LINE
8
BLACK
6
CONTINUOUS
10
107.898
20
-89.2524
11
108.005
21
-89.2313
0
LINE
8
BLACK
6
CONTINUOUS
10
108.005
20
-89.2313
11
108.217
21
-89.189
0
LINE
8
BLACK
6
CONTINUOUS
10
108.217
20
-89.189
11
108.543
21
-89.189
0
LINE
8
BLACK
6
CONTINUOUS
10
108.543
20
-89.189
11
108.755
21
-89.2313
0
LINE
8
BLACK
6
CONTINUOUS
10
106.807
20
-83.4894
11
106.998
21
-83.5686
0
LINE
8
BLACK
6
CONTINUOUS
10
106.998
20
-83.5686
11
107.17
21
-83.6836
0
LINE
8
BLACK
6
CONTINUOUS
10
107.17
20
-83.6836
11
107.316
21
-83.83
0
LINE
8
BLACK
6
CONTINUOUS
10
107.316
20
-83.83
11
107.431
21
-84.0022
0
LINE
8
BLACK
6
CONTINUOUS
10
107.431
20
-84.0022
11
107.511
21
-84.1934
0
LINE
8
BLACK
6
CONTINUOUS
10
107.511
20
-84.1934
11
107.551
21
-84.3965
0
LINE
8
BLACK
6
CONTINUOUS
10
107.551
20
-84.3965
11
107.551
21
-84.6035
0
LINE
8
BLACK
6
CONTINUOUS
10
107.551
20
-84.6035
11
107.511
21
-84.8066
0
LINE
8
BLACK
6
CONTINUOUS
10
107.511
20
-84.8066
11
107.431
21
-84.9978
0
LINE
8
BLACK
6
CONTINUOUS
10
107.431
20
-84.9978
11
107.316
21
-85.17
0
LINE
8
BLACK
6
CONTINUOUS
10
107.316
20
-85.17
11
107.17
21
-85.3164
0
LINE
8
BLACK
6
CONTINUOUS
10
107.17
20
-85.3164
11
106.998
21
-85.4314
0
LINE
8
BLACK
6
CONTINUOUS
10
106.998
20
-85.4314
11
106.807
21
-85.5106
0
LINE
8
BLACK
6
CONTINUOUS
10
106.807
20
-85.5106
11
106.604
21
-85.551
0
LINE
8
BLACK
6
CONTINUOUS
10
106.604
20
-85.551
11
106.396
21
-85.551
0
LINE
8
BLACK
6
CONTINUOUS
10
106.396
20
-85.551
11
106.193
21
-85.5106
0
LINE
8
BLACK
6
CONTINUOUS
10
106.193
20
-85.5106
11
106.002
21
-85.4314
0
LINE
8
BLACK
6
CONTINUOUS
10
106.002
20
-85.4314
11
105.83
21
-85.3164
0
LINE
8
BLACK
6
CONTINUOUS
10
105.83
20
-85.3164
11
105.684
21
-85.17
0
LINE
8
BLACK
6
CONTINUOUS
10
105.684
20
-85.17
11
105.569
21
-84.9978
0
LINE
8
BLACK
6
CONTINUOUS
10
105.569
20
-84.9978
11
105.489
21
-84.8066
0
LINE
8
BLACK
6
CONTINUOUS
10
105.489
20
-84.8066
11
105.449
21
-84.6035
0
LINE
8
BLACK
6
CONTINUOUS
10
105.449
20
-84.6035
11
105.449
21
-84.3965
0
LINE
8
BLACK
6
CONTINUOUS
10
105.449
20
-84.3965
11
105.489
21
-84.1934
0
LINE
8
BLACK
6
CONTINUOUS
10
105.489
20
-84.1934
11
105.569
21
-84.0022
0
LINE
8
BLACK
6
CONTINUOUS
10
105.569
20
-84.0022
11
105.684
21
-83.83
0
LINE
8
BLACK
6
CONTINUOUS
10
105.684
20
-83.83
11
105.83
21
-83.6836
0
LINE
8
BLACK
6
CONTINUOUS
10
105.83
20
-83.6836
11
106.002
21
-83.5686
0
LINE
8
BLACK
6
CONTINUOUS
10
106.002
20
-83.5686
11
106.193
21
-83.4894
0
LINE
8
BLACK
6
CONTINUOUS
10
106.193
20
-83.4894
11
106.396
21
-83.449
0
LINE
8
BLACK
6
CONTINUOUS
10
106.396
20
-83.449
11
106.604
21
-83.449
0
LINE
8
BLACK
6
CONTINUOUS
10
106.604
20
-83.449
11
106.807
21
-83.4894
0
LINE
8
BLACK
6
CONTINUOUS
10
77.3066
20
-83.4894
11
77.4978
21
-83.5686
0
LINE
8
BLACK
6
CONTINUOUS
10
77.4978
20
-83.5686
11
77.67
21
-83.6836
0
LINE
8
BLACK
6
CONTINUOUS
10
77.67
20
-83.6836
11
77.8164
21
-83.83
0
LINE
8
BLACK
6
CONTINUOUS
10
77.8164
20
-83.83
11
77.9314
21
-84.0022
0
LINE
8
BLACK
6
CONTINUOUS
10
77.9314
20
-84.0022
11
78.0106
21
-84.1934
0
LINE
8
BLACK
6
CONTINUOUS
10
78.0106
20
-84.1934
11
78.051
21
-84.3965
0
LINE
8
BLACK
6
CONTINUOUS
10
78.051
20
-84.3965
11
78.051
21
-84.6035
0
LINE
8
BLACK
6
CONTINUOUS
10
78.051
20
-84.6035
11
78.0106
21
-84.8066
0
LINE
8
BLACK
6
CONTINUOUS
10
78.0106
20
-84.8066
11
77.9314
21
-84.9978
0
LINE
8
BLACK
6
CONTINUOUS
10
77.9314
20
-84.9978
11
77.8164
21
-85.17
0
LINE
8
BLACK
6
CONTINUOUS
10
77.8164
20
-85.17
11
77.67
21
-85.3164
0
LINE
8
BLACK
6
CONTINUOUS
10
77.67
20
-85.3164
11
77.4978
21
-85.4314
0
LINE
8
BLACK
6
CONTINUOUS
10
77.4978
20
-85.4314
11
77.3066
21
-85.5106
0
LINE
8
BLACK
6
CONTINUOUS
10
77.3066
20
-85.5106
11
77.1035
21
-85.551
0
LINE
8
BLACK
6
CONTINUOUS
10
77.1035
20
-85.551
11
76.8965
21
-85.551
0
LINE
8
BLACK
6
CONTINUOUS
10
76.8965
20
-85.551
11
76.6934
21
-85.5106
0
LINE
8
BLACK
6
CONTINUOUS
10
76.6934
20
-85.5106
11
76.5022
21
-85.4314
0
LINE
8
BLACK
6
CONTINUOUS
10
76.5022
20
-85.4314
11
76.33
21
-85.3164
0
LINE
8
BLACK
6
CONTINUOUS
10
76.33
20
-85.3164
11
76.1836
21
-85.17
0
LINE
8
BLACK
6
CONTINUOUS
10
76.1836
20
-85.17
11
76.0686
21
-84.9978
0
LINE
8
BLACK
6
CONTINUOUS
10
76.0686
20
-84.9978
11
75.9894
21
-84.8066
0
LINE
8
BLACK
6
CONTINUOUS
10
75.9894
20
-84.8066
11
75.949
21
-84.6035
0
LINE
8
BLACK
6
CONTINUOUS
10
75.949
20
-84.6035
11
75.949
21
-84.3965
0
LINE
8
BLACK
6
CONTINUOUS
10
75.949
20
-84.3965
11
75.9894
21
-84.1934
0
LINE
8
BLACK
6
CONTINUOUS
10
75.9894
20
-84.1934
11
76.0686
21
-84.0022
0
LINE
8
BLACK
6
CONTINUOUS
10
76.0686
20
-84.0022
11
76.1836
21
-83.83
0
LINE
8
BLACK
6
CONTINUOUS
10
76.1836
20
-83.83
11
76.33
21
-83.6836
0
LINE
8
BLACK
6
CONTINUOUS
10
76.33
20
-83.6836
11
76.5022
21
-83.5686
0
LINE
8
BLACK
6
CONTINUOUS
10
76.5022
20
-83.5686
11
76.6934
21
-83.4894
0
LINE
8
BLACK
6
CONTINUOUS
10
76.6934
20
-83.4894
11
76.8965
21
-83.449
0
LINE
8
BLACK
6
CONTINUOUS
10
76.8965
20
-83.449
11
77.1035
21
-83.449
0
LINE
8
BLACK
6
CONTINUOUS
10
77.1035
20
-83.449
11
77.3066
21
-83.4894
0
LINE
8
BLACK
6
CONTINUOUS
10
83.8066
20
-83.4894
11
83.9978
21
-83.5686
0
LINE
8
BLACK
6
CONTINUOUS
10
83.9978
20
-83.5686
11
84.17
21
-83.6836
0
LINE
8
BLACK
6
CONTINUOUS
10
84.17
20
-83.6836
11
84.3164
21
-83.83
0
LINE
8
BLACK
6
CONTINUOUS
10
84.3164
20
-83.83
11
84.4314
21
-84.0022
0
LINE
8
BLACK
6
CONTINUOUS
10
84.4314
20
-84.0022
11
84.5106
21
-84.1934
0
LINE
8
BLACK
6
CONTINUOUS
10
84.5106
20
-84.1934
11
84.551
21
-84.3965
0
LINE
8
BLACK
6
CONTINUOUS
10
84.551
20
-84.3965
11
84.551
21
-84.6035
0
LINE
8
BLACK
6
CONTINUOUS
10
84.551
20
-84.6035
11
84.5106
21
-84.8066
0
LINE
8
BLACK
6
CONTINUOUS
10
84.5106
20
-84.8066
11
84.4314
21
-84.9978
0
LINE
8
BLACK
6
CONTINUOUS
10
84.4314
20
-84.9978
11
84.3164
21
-85.17
0
LINE
8
BLACK
6
CONTINUOUS
10
84.3164
20
-85.17
11
84.17
21
-85.3164
0
LINE
8
BLACK
6
CONTINUOUS
10
84.17
20
-85.3164
11
83.9978
21
-85.4314
0
LINE
8
BLACK
6
CONTINUOUS
10
83.9978
20
-85.4314
11
83.8066
21
-85.5106
0
LINE
8
BLACK
6
CONTINUOUS
10
83.8066
20
-85.5106
11
83.6035
21
-85.551
0
LINE
8
BLACK
6
CONTINUOUS
10
83.6035
20
-85.551
11
83.3965
21
-85.551
0
LINE
8
BLACK
6
CONTINUOUS
10
83.3965
20
-85.551
11
83.1934
21
-85.5106
0
LINE
8
BLACK
6
CONTINUOUS
10
83.1934
20
-85.5106
11
83.0022
21
-85.4314
0
LINE
8
BLACK
6
CONTINUOUS
10
83.0022
20
-85.4314
11
82.83
21
-85.3164
0
LINE
8
BLACK
6
CONTINUOUS
10
82.83
20
-85.3164
11
82.6836
21
-85.17
0
LINE
8
BLACK
6
CONTINUOUS
10
82.6836
20
-85.17
11
82.5686
21
-84.9978
0
LINE
8
BLACK
6
CONTINUOUS
10
82.5686
20
-84.9978
11
82.4894
21
-84.8066
0
LINE
8
BLACK
6
CONTINUOUS
10
82.4894
20
-84.8066
11
82.449
21
-84.6035
0
LINE
8
BLACK
6
CONTINUOUS
10
82.449
20
-84.6035
11
82.449
21
-84.3965
0
LINE
8
BLACK
6
CONTINUOUS
10
82.449
20
-84.3965
11
82.4894
21
-84.1934
0
LINE
8
BLACK
6
CONTINUOUS
10
82.4894
20
-84.1934
11
82.5686
21
-84.0022
0
LINE
8
BLACK
6
CONTINUOUS
10
82.5686
20
-84.0022
11
82.6836
21
-83.83
0
LINE
8
BLACK
6
CONTINUOUS
10
82.6836
20
-83.83
11
82.83
21
-83.6836
0
LINE
8
BLACK
6
CONTINUOUS
10
82.83
20
-83.6836
11
83.0022
21
-83.5686
0
LINE
8
BLACK
6
CONTINUOUS
10
83.0022
20
-83.5686
11
83.1934
21
-83.4894
0
LINE
8
BLACK
6
CONTINUOUS
10
83.1934
20
-83.4894
11
83.3965
21
-83.449
0
LINE
8
BLACK
6
CONTINUOUS
10
83.3965
20
-83.449
11
83.6035
21
-83.449
0
LINE
8
BLACK
6
CONTINUOUS
10
83.6035
20
-83.449
11
83.8066
21
-83.4894
0
LINE
8
BLACK
6
CONTINUOUS
10
92.3066
20
-83.4894
11
92.4978
21
-83.5686
0
LINE
8
BLACK
6
CONTINUOUS
10
92.4978
20
-83.5686
11
92.67
21
-83.6836
0
LINE
8
BLACK
6
CONTINUOUS
10
92.67
20
-83.6836
11
92.8164
21
-83.83
0
LINE
8
BLACK
6
CONTINUOUS
10
92.8164
20
-83.83
11
92.9314
21
-84.0022
0
LINE
8
BLACK
6
CONTINUOUS
10
92.9314
20
-84.0022
11
93.0106
21
-84.1934
0
LINE
8
BLACK
6
CONTINUOUS
10
93.0106
20
-84.1934
11
93.051
21
-84.3965
0
LINE
8
BLACK
6
CONTINUOUS
10
93.051
20
-84.3965
11
93.051
21
-84.6035
0
LINE
8
BLACK
6
CONTINUOUS
10
93.051
20
-84.6035
11
93.0106
21
-84.8066
0
LINE
8
BLACK
6
CONTINUOUS
10
93.0106
20
-84.8066
11
92.9314
21
-84.9978
0
LINE
8
BLACK
6
CONTINUOUS
10
92.9314
20
-84.9978
11
92.8164
21
-85.17
0
LINE
8
BLACK
6
CONTINUOUS
10
92.8164
20
-85.17
11
92.67
21
-85.3164
0
LINE
8
BLACK
6
CONTINUOUS
10
92.67
20
-85.3164
11
92.4978
21
-85.4314
0
LINE
8
BLACK
6
CONTINUOUS
10
92.4978
20
-85.4314
11
92.3066
21
-85.5106
0
LINE
8
BLACK
6
CONTINUOUS
10
92.3066
20
-85.5106
11
92.1035
21
-85.551
0
LINE
8
BLACK
6
CONTINUOUS
10
92.1035
20
-85.551
11
91.8965
21
-85.551
0
LINE
8
BLACK
6
CONTINUOUS
10
91.8965
20
-85.551
11
91.6934
21
-85.5106
0
LINE
8
BLACK
6
CONTINUOUS
10
91.6934
20
-85.5106
11
91.5022
21
-85.4314
0
LINE
8
BLACK
6
CONTINUOUS
10
91.5022
20
-85.4314
11
91.33
21
-85.3164
0
LINE
8
BLACK
6
CONTINUOUS
10
91.33
20
-85.3164
11
91.1836
21
-85.17
0
LINE
8
BLACK
6
CONTINUOUS
10
91.1836
20
-85.17
11
91.0686
21
-84.9978
0
LINE
8
BLACK
6
CONTINUOUS
10
91.0686
20
-84.9978
11
90.9894
21
-84.8066
0
LINE
8
BLACK
6
CONTINUOUS
10
90.9894
20
-84.8066
11
90.949
21
-84.6035
0
LINE
8
BLACK
6
CONTINUOUS
10
90.949
20
-84.6035
11
90.949
21
-84.3965
0
LINE
8
BLACK
6
CONTINUOUS
10
90.949
20
-84.3965
11
90.9894
21
-84.1934
0
LINE
8
BLACK
6
CONTINUOUS
10
90.9894
20
-84.1934
11
91.0686
21
-84.0022
0
LINE
8
BLACK
6
CONTINUOUS
10
91.0686
20
-84.0022
11
91.1836
21
-83.83
0
LINE
8
BLACK
6
CONTINUOUS
10
91.1836
20
-83.83
11
91.33
21
-83.6836
0
LINE
8
BLACK
6
CONTINUOUS
10
91.33
20
-83.6836
11
91.5022
21
-83.5686
0
LINE
8
BLACK
6
CONTINUOUS
10
91.5022
20
-83.5686
11
91.6934
21
-83.4894
0
LINE
8
BLACK
6
CONTINUOUS
10
91.6934
20
-83.4894
11
91.8965
21
-83.449
0
LINE
8
BLACK
6
CONTINUOUS
10
91.8965
20
-83.449
11
92.1035
21
-83.449
0
LINE
8
BLACK
6
CONTINUOUS
10
92.1035
20
-83.449
11
92.3066
21
-83.4894
0
LINE
8
BLACK
6
CONTINUOUS
10
98.8066
20
-83.4894
11
98.9978
21
-83.5686
0
LINE
8
BLACK
6
CONTINUOUS
10
98.9978
20
-83.5686
11
99.17
21
-83.6836
0
LINE
8
BLACK
6
CONTINUOUS
10
99.17
20
-83.6836
11
99.3164
21
-83.83
0
LINE
8
BLACK
6
CONTINUOUS
10
99.3164
20
-83.83
11
99.4314
21
-84.0022
0
LINE
8
BLACK
6
CONTINUOUS
10
99.4314
20
-84.0022
11
99.5106
21
-84.1934
0
LINE
8
BLACK
6
CONTINUOUS
10
99.5106
20
-84.1934
11
99.551
21
-84.3965
0
LINE
8
BLACK
6
CONTINUOUS
10
99.551
20
-84.3965
11
99.551
21
-84.6035
0
LINE
8
BLACK
6
CONTINUOUS
10
99.551
20
-84.6035
11
99.5106
21
-84.8066
0
LINE
8
BLACK
6
CONTINUOUS
10
99.5106
20
-84.8066
11
99.4314
21
-84.9978
0
LINE
8
BLACK
6
CONTINUOUS
10
99.4314
20
-84.9978
11
99.3164
21
-85.17
0
LINE
8
BLACK
6
CONTINUOUS
10
99.3164
20
-85.17
11
99.17
21
-85.3164
0
LINE
8
BLACK
6
CONTINUOUS
10
99.17
20
-85.3164
11
98.9978
21
-85.4314
0
LINE
8
BLACK
6
CONTINUOUS
10
98.9978
20
-85.4314
11
98.8066
21
-85.5106
0
LINE
8
BLACK
6
CONTINUOUS
10
98.8066
20
-85.5106
11
98.6035
21
-85.551
0
LINE
8
BLACK
6
CONTINUOUS
10
98.6035
20
-85.551
11
98.3965
21
-85.551
0
LINE
8
BLACK
6
CONTINUOUS
10
98.3965
20
-85.551
11
98.1934
21
-85.5106
0
LINE
8
BLACK
6
CONTINUOUS
10
98.1934
20
-85.5106
11
98.0022
21
-85.4314
0
LINE
8
BLACK
6
CONTINUOUS
10
98.0022
20
-85.4314
11
97.83
21
-85.3164
0
LINE
8
BLACK
6
CONTINUOUS
10
97.83
20
-85.3164
11
97.6836
21
-85.17
0
LINE
8
BLACK
6
CONTINUOUS
10
97.6836
20
-85.17
11
97.5686
21
-84.9978
0
LINE
8
BLACK
6
CONTINUOUS
10
97.5686
20
-84.9978
11
97.4894
21
-84.8066
0
LINE
8
BLACK
6
CONTINUOUS
10
97.4894
20
-84.8066
11
97.449
21
-84.6035
0
LINE
8
BLACK
6
CONTINUOUS
10
97.449
20
-84.6035
11
97.449
21
-84.3965
0
LINE
8
BLACK
6
CONTINUOUS
10
97.449
20
-84.3965
11
97.4894
21
-84.1934
0
LINE
8
BLACK
6
CONTINUOUS
10
97.4894
20
-84.1934
11
97.5686
21
-84.0022
0
LINE
8
BLACK
6
CONTINUOUS
10
97.5686
20
-84.0022
11
97.6836
21
-83.83
0
LINE
8
BLACK
6
CONTINUOUS
10
97.6836
20
-83.83
11
97.83
21
-83.6836
0
LINE
8
BLACK
6
CONTINUOUS
10
97.83
20
-83.6836
11
98.0022
21
-83.5686
0
LINE
8
BLACK
6
CONTINUOUS
10
98.0022
20
-83.5686
11
98.1934
21
-83.4894
0
LINE
8
BLACK
6
CONTINUOUS
10
98.1934
20
-83.4894
11
98.3965
21
-83.449
0
LINE
8
BLACK
6
CONTINUOUS
10
98.3965
20
-83.449
11
98.6035
21
-83.449
0
LINE
8
BLACK
6
CONTINUOUS
10
98.6035
20
-83.449
11
98.8066
21
-83.4894
0
LINE
8
BLACK
6
CONTINUOUS
10
113.307
20
-83.4894
11
113.498
21
-83.5686
0
LINE
8
BLACK
6
CONTINUOUS
10
113.498
20
-83.5686
11
113.67
21
-83.6836
0
LINE
8
BLACK
6
CONTINUOUS
10
113.67
20
-83.6836
11
113.816
21
-83.83
0
LINE
8
BLACK
6
CONTINUOUS
10
113.816
20
-83.83
11
113.931
21
-84.0022
0
LINE
8
BLACK
6
CONTINUOUS
10
113.931
20
-84.0022
11
114.011
21
-84.1934
0
LINE
8
BLACK
6
CONTINUOUS
10
114.011
20
-84.1934
11
114.051
21
-84.3965
0
LINE
8
BLACK
6
CONTINUOUS
10
114.051
20
-84.3965
11
114.051
21
-84.6035
0
LINE
8
BLACK
6
CONTINUOUS
10
114.051
20
-84.6035
11
114.011
21
-84.8066
0
LINE
8
BLACK
6
CONTINUOUS
10
114.011
20
-84.8066
11
113.931
21
-84.9978
0
LINE
8
BLACK
6
CONTINUOUS
10
113.931
20
-84.9978
11
113.816
21
-85.17
0
LINE
8
BLACK
6
CONTINUOUS
10
113.816
20
-85.17
11
113.67
21
-85.3164
0
LINE
8
BLACK
6
CONTINUOUS
10
113.67
20
-85.3164
11
113.498
21
-85.4314
0
LINE
8
BLACK
6
CONTINUOUS
10
113.498
20
-85.4314
11
113.307
21
-85.5106
0
LINE
8
BLACK
6
CONTINUOUS
10
113.307
20
-85.5106
11
113.104
21
-85.551
0
LINE
8
BLACK
6
CONTINUOUS
10
113.104
20
-85.551
11
112.896
21
-85.551
0
LINE
8
BLACK
6
CONTINUOUS
10
112.896
20
-85.551
11
112.693
21
-85.5106
0
LINE
8
BLACK
6
CONTINUOUS
10
112.693
20
-85.5106
11
112.502
21
-85.4314
0
LINE
8
BLACK
6
CONTINUOUS
10
112.502
20
-85.4314
11
112.33
21
-85.3164
0
LINE
8
BLACK
6
CONTINUOUS
10
112.33
20
-85.3164
11
112.184
21
-85.17
0
LINE
8
BLACK
6
CONTINUOUS
10
112.184
20
-85.17
11
112.069
21
-84.9978
0
LINE
8
BLACK
6
CONTINUOUS
10
112.069
20
-84.9978
11
111.989
21
-84.8066
0
LINE
8
BLACK
6
CONTINUOUS
10
111.989
20
-84.8066
11
111.949
21
-84.6035
0
LINE
8
BLACK
6
CONTINUOUS
10
111.949
20
-84.6035
11
111.949
21
-84.3965
0
LINE
8
BLACK
6
CONTINUOUS
10
111.949
20
-84.3965
11
111.989
21
-84.1934
0
LINE
8
BLACK
6
CONTINUOUS
10
111.989
20
-84.1934
11
112.069
21
-84.0022
0
LINE
8
BLACK
6
CONTINUOUS
10
112.069
20
-84.0022
11
112.184
21
-83.83
0
LINE
8
BLACK
6
CONTINUOUS
10
112.184
20
-83.83
11
112.33
21
-83.6836
0
LINE
8
BLACK
6
CONTINUOUS
10
112.33
20
-83.6836
11
112.502
21
-83.5686
0
LINE
8
BLACK
6
CONTINUOUS
10
112.502
20
-83.5686
11
112.693
21
-83.4894
0
LINE
8
BLACK
6
CONTINUOUS
10
112.693
20
-83.4894
11
112.896
21
-83.449
0
LINE
8
BLACK
6
CONTINUOUS
10
112.896
20
-83.449
11
113.104
21
-83.449
0
LINE
8
BLACK
6
CONTINUOUS
10
113.104
20
-83.449
11
113.307
21
-83.4894
0
LINE
8
BLACK
6
CONTINUOUS
10
106.807
20
-78.9894
11
106.998
21
-79.0686
0
LINE
8
BLACK
6
CONTINUOUS
10
106.998
20
-79.0686
11
107.17
21
-79.1836
0
LINE
8
BLACK
6
CONTINUOUS
10
107.17
20
-79.1836
11
107.316
21
-79.33
0
LINE
8
BLACK
6
CONTINUOUS
10
107.316
20
-79.33
11
107.431
21
-79.5022
0
LINE
8
BLACK
6
CONTINUOUS
10
107.431
20
-79.5022
11
107.511
21
-79.6934
0
LINE
8
BLACK
6
CONTINUOUS
10
107.511
20
-79.6934
11
107.551
21
-79.8965
0
LINE
8
BLACK
6
CONTINUOUS
10
107.551
20
-79.8965
11
107.551
21
-80.1035
0
LINE
8
BLACK
6
CONTINUOUS
10
107.551
20
-80.1035
11
107.511
21
-80.3066
0
LINE
8
BLACK
6
CONTINUOUS
10
107.511
20
-80.3066
11
107.431
21
-80.4978
0
LINE
8
BLACK
6
CONTINUOUS
10
107.431
20
-80.4978
11
107.316
21
-80.67
0
LINE
8
BLACK
6
CONTINUOUS
10
107.316
20
-80.67
11
107.17
21
-80.8164
0
LINE
8
BLACK
6
CONTINUOUS
10
107.17
20
-80.8164
11
106.998
21
-80.9314
0
LINE
8
BLACK
6
CONTINUOUS
10
106.998
20
-80.9314
11
106.807
21
-81.0106
0
LINE
8
BLACK
6
CONTINUOUS
10
106.807
20
-81.0106
11
106.604
21
-81.051
0
LINE
8
BLACK
6
CONTINUOUS
10
106.604
20
-81.051
11
106.396
21
-81.051
0
LINE
8
BLACK
6
CONTINUOUS
10
106.396
20
-81.051
11
106.193
21
-81.0106
0
LINE
8
BLACK
6
CONTINUOUS
10
106.193
20
-81.0106
11
106.002
21
-80.9314
0
LINE
8
BLACK
6
CONTINUOUS
10
106.002
20
-80.9314
11
105.83
21
-80.8164
0
LINE
8
BLACK
6
CONTINUOUS
10
105.83
20
-80.8164
11
105.684
21
-80.67
0
LINE
8
BLACK
6
CONTINUOUS
10
105.684
20
-80.67
11
105.569
21
-80.4978
0
LINE
8
BLACK
6
CONTINUOUS
10
105.569
20
-80.4978
11
105.489
21
-80.3066
0
LINE
8
BLACK
6
CONTINUOUS
10
105.489
20
-80.3066
11
105.449
21
-80.1035
0
LINE
8
BLACK
6
CONTINUOUS
10
105.449
20
-80.1035
11
105.449
21
-79.8965
0
LINE
8
BLACK
6
CONTINUOUS
10
105.449
20
-79.8965
11
105.489
21
-79.6934
0
LINE
8
BLACK
6
CONTINUOUS
10
105.489
20
-79.6934
11
105.569
21
-79.5022
0
LINE
8
BLACK
6
CONTINUOUS
10
105.569
20
-79.5022
11
105.684
21
-79.33
0
LINE
8
BLACK
6
CONTINUOUS
10
105.684
20
-79.33
11
105.83
21
-79.1836
0
LINE
8
BLACK
6
CONTINUOUS
10
105.83
20
-79.1836
11
106.002
21
-79.0686
0
LINE
8
BLACK
6
CONTINUOUS
10
106.002
20
-79.0686
11
106.193
21
-78.9894
0
LINE
8
BLACK
6
CONTINUOUS
10
106.193
20
-78.9894
11
106.396
21
-78.949
0
LINE
8
BLACK
6
CONTINUOUS
10
106.396
20
-78.949
11
106.604
21
-78.949
0
LINE
8
BLACK
6
CONTINUOUS
10
106.604
20
-78.949
11
106.807
21
-78.9894
0
LINE
8
BLACK
6
CONTINUOUS
10
113.307
20
-78.9894
11
113.498
21
-79.0686
0
LINE
8
BLACK
6
CONTINUOUS
10
113.498
20
-79.0686
11
113.67
21
-79.1836
0
LINE
8
BLACK
6
CONTINUOUS
10
113.67
20
-79.1836
11
113.816
21
-79.33
0
LINE
8
BLACK
6
CONTINUOUS
10
113.816
20
-79.33
11
113.931
21
-79.5022
0
LINE
8
BLACK
6
CONTINUOUS
10
113.931
20
-79.5022
11
114.011
21
-79.6934
0
LINE
8
BLACK
6
CONTINUOUS
10
114.011
20
-79.6934
11
114.051
21
-79.8965
0
LINE
8
BLACK
6
CONTINUOUS
10
114.051
20
-79.8965
11
114.051
21
-80.1035
0
LINE
8
BLACK
6
CONTINUOUS
10
114.051
20
-80.1035
11
114.011
21
-80.3066
0
LINE
8
BLACK
6
CONTINUOUS
10
114.011
20
-80.3066
11
113.931
21
-80.4978
0
LINE
8
BLACK
6
CONTINUOUS
10
113.931
20
-80.4978
11
113.816
21
-80.67
0
LINE
8
BLACK
6
CONTINUOUS
10
113.816
20
-80.67
11
113.67
21
-80.8164
0
LINE
8
BLACK
6
CONTINUOUS
10
113.67
20
-80.8164
11
113.498
21
-80.9314
0
LINE
8
BLACK
6
CONTINUOUS
10
113.498
20
-80.9314
11
113.307
21
-81.0106
0
LINE
8
BLACK
6
CONTINUOUS
10
113.307
20
-81.0106
11
113.104
21
-81.051
0
LINE
8
BLACK
6
CONTINUOUS
10
113.104
20
-81.051
11
112.896
21
-81.051
0
LINE
8
BLACK
6
CONTINUOUS
10
112.896
20
-81.051
11
112.693
21
-81.0106
0
LINE
8
BLACK
6
CONTINUOUS
10
112.693
20
-81.0106
11
112.502
21
-80.9314
0
LINE
8
BLACK
6
CONTINUOUS
10
112.502
20
-80.9314
11
112.33
21
-80.8164
0
LINE
8
BLACK
6
CONTINUOUS
10
112.33
20
-80.8164
11
112.184
21
-80.67
0
LINE
8
BLACK
6
CONTINUOUS
10
112.184
20
-80.67
11
112.069
21
-80.4978
0
LINE
8
BLACK
6
CONTINUOUS
10
112.069
20
-80.4978
11
111.989
21
-80.3066
0
LINE
8
BLACK
6
CONTINUOUS
10
111.989
20
-80.3066
11
111.949
21
-80.1035
0
LINE
8
BLACK
6
CONTINUOUS
10
111.949
20
-80.1035
11
111.949
21
-79.8965
0
LINE
8
BLACK
6
CONTINUOUS
10
111.949
20
-79.8965
11
111.989
21
-79.6934
0
LINE
8
BLACK
6
CONTINUOUS
10
111.989
20
-79.6934
11
112.069
21
-79.5022
0
LINE
8
BLACK
6
CONTINUOUS
10
112.069
20
-79.5022
11
112.184
21
-79.33
0
LINE
8
BLACK
6
CONTINUOUS
10
112.184
20
-79.33
11
112.33
21
-79.1836
0
LINE
8
BLACK
6
CONTINUOUS
10
112.33
20
-79.1836
11
112.502
21
-79.0686
0
LINE
8
BLACK
6
CONTINUOUS
10
112.502
20
-79.0686
11
112.693
21
-78.9894
0
LINE
8
BLACK
6
CONTINUOUS
10
112.693
20
-78.9894
11
112.896
21
-78.949
0
LINE
8
BLACK
6
CONTINUOUS
10
112.896
20
-78.949
11
113.104
21
-78.949
0
LINE
8
BLACK
6
CONTINUOUS
10
113.104
20
-78.949
11
113.307
21
-78.9894
0
LINE
8
BLACK
6
CONTINUOUS
10
83.8066
20
-78.9894
11
83.9978
21
-79.0686
0
LINE
8
BLACK
6
CONTINUOUS
10
83.9978
20
-79.0686
11
84.17
21
-79.1836
0
LINE
8
BLACK
6
CONTINUOUS
10
84.17
20
-79.1836
11
84.3164
21
-79.33
0
LINE
8
BLACK
6
CONTINUOUS
10
84.3164
20
-79.33
11
84.4314
21
-79.5022
0
LINE
8
BLACK
6
CONTINUOUS
10
84.4314
20
-79.5022
11
84.5106
21
-79.6934
0
LINE
8
BLACK
6
CONTINUOUS
10
84.5106
20
-79.6934
11
84.551
21
-79.8965
0
LINE
8
BLACK
6
CONTINUOUS
10
84.551
20
-79.8965
11
84.551
21
-80.1035
0
LINE
8
BLACK
6
CONTINUOUS
10
84.551
20
-80.1035
11
84.5106
21
-80.3066
0
LINE
8
BLACK
6
CONTINUOUS
10
84.5106
20
-80.3066
11
84.4314
21
-80.4978
0
LINE
8
BLACK
6
CONTINUOUS
10
84.4314
20
-80.4978
11
84.3164
21
-80.67
0
LINE
8
BLACK
6
CONTINUOUS
10
84.3164
20
-80.67
11
84.17
21
-80.8164
0
LINE
8
BLACK
6
CONTINUOUS
10
84.17
20
-80.8164
11
83.9978
21
-80.9314
0
LINE
8
BLACK
6
CONTINUOUS
10
83.9978
20
-80.9314
11
83.8066
21
-81.0106
0
LINE
8
BLACK
6
CONTINUOUS
10
83.8066
20
-81.0106
11
83.6035
21
-81.051
0
LINE
8
BLACK
6
CONTINUOUS
10
83.6035
20
-81.051
11
83.3965
21
-81.051
0
LINE
8
BLACK
6
CONTINUOUS
10
83.3965
20
-81.051
11
83.1934
21
-81.0106
0
LINE
8
BLACK
6
CONTINUOUS
10
83.1934
20
-81.0106
11
83.0022
21
-80.9314
0
LINE
8
BLACK
6
CONTINUOUS
10
83.0022
20
-80.9314
11
82.83
21
-80.8164
0
LINE
8
BLACK
6
CONTINUOUS
10
82.83
20
-80.8164
11
82.6836
21
-80.67
0
LINE
8
BLACK
6
CONTINUOUS
10
82.6836
20
-80.67
11
82.5686
21
-80.4978
0
LINE
8
BLACK
6
CONTINUOUS
10
82.5686
20
-80.4978
11
82.4894
21
-80.3066
0
LINE
8
BLACK
6
CONTINUOUS
10
82.4894
20
-80.3066
11
82.449
21
-80.1035
0
LINE
8
BLACK
6
CONTINUOUS
10
82.449
20
-80.1035
11
82.449
21
-79.8965
0
LINE
8
BLACK
6
CONTINUOUS
10
82.449
20
-79.8965
11
82.4894
21
-79.6934
0
LINE
8
BLACK
6
CONTINUOUS
10
82.4894
20
-79.6934
11
82.5686
21
-79.5022
0
LINE
8
BLACK
6
CONTINUOUS
10
82.5686
20
-79.5022
11
82.6836
21
-79.33
0
LINE
8
BLACK
6
CONTINUOUS
10
82.6836
20
-79.33
11
82.83
21
-79.1836
0
LINE
8
BLACK
6
CONTINUOUS
10
82.83
20
-79.1836
11
83.0022
21
-79.0686
0
LINE
8
BLACK
6
CONTINUOUS
10
83.0022
20
-79.0686
11
83.1934
21
-78.9894
0
LINE
8
BLACK
6
CONTINUOUS
10
83.1934
20
-78.9894
11
83.3965
21
-78.949
0
LINE
8
BLACK
6
CONTINUOUS
10
83.3965
20
-78.949
11
83.6035
21
-78.949
0
LINE
8
BLACK
6
CONTINUOUS
10
83.6035
20
-78.949
11
83.8066
21
-78.9894
0
LINE
8
BLACK
6
CONTINUOUS
10
77.3066
20
-78.9894
11
77.4978
21
-79.0686
0
LINE
8
BLACK
6
CONTINUOUS
10
77.4978
20
-79.0686
11
77.67
21
-79.1836
0
LINE
8
BLACK
6
CONTINUOUS
10
77.67
20
-79.1836
11
77.8164
21
-79.33
0
LINE
8
BLACK
6
CONTINUOUS
10
77.8164
20
-79.33
11
77.9314
21
-79.5022
0
LINE
8
BLACK
6
CONTINUOUS
10
77.9314
20
-79.5022
11
78.0106
21
-79.6934
0
LINE
8
BLACK
6
CONTINUOUS
10
78.0106
20
-79.6934
11
78.051
21
-79.8965
0
LINE
8
BLACK
6
CONTINUOUS
10
78.051
20
-79.8965
11
78.051
21
-80.1035
0
LINE
8
BLACK
6
CONTINUOUS
10
78.051
20
-80.1035
11
78.0106
21
-80.3066
0
LINE
8
BLACK
6
CONTINUOUS
10
78.0106
20
-80.3066
11
77.9314
21
-80.4978
0
LINE
8
BLACK
6
CONTINUOUS
10
77.9314
20
-80.4978
11
77.8164
21
-80.67
0
LINE
8
BLACK
6
CONTINUOUS
10
77.8164
20
-80.67
11
77.67
21
-80.8164
0
LINE
8
BLACK
6
CONTINUOUS
10
77.67
20
-80.8164
11
77.4978
21
-80.9314
0
LINE
8
BLACK
6
CONTINUOUS
10
77.4978
20
-80.9314
11
77.3066
21
-81.0106
0
LINE
8
BLACK
6
CONTINUOUS
10
77.3066
20
-81.0106
11
77.1035
21
-81.051
0
LINE
8
BLACK
6
CONTINUOUS
10
77.1035
20
-81.051
11
76.8965
21
-81.051
0
LINE
8
BLACK
6
CONTINUOUS
10
76.8965
20
-81.051
11
76.6934
21
-81.0106
0
LINE
8
BLACK
6
CONTINUOUS
10
76.6934
20
-81.0106
11
76.5022
21
-80.9314
0
LINE
8
BLACK
6
CONTINUOUS
10
76.5022
20
-80.9314
11
76.33
21
-80.8164
0
LINE
8
BLACK
6
CONTINUOUS
10
76.33
20
-80.8164
11
76.1836
21
-80.67
0
LINE
8
BLACK
6
CONTINUOUS
10
76.1836
20
-80.67
11
76.0686
21
-80.4978
0
LINE
8
BLACK
6
CONTINUOUS
10
76.0686
20
-80.4978
11
75.9894
21
-80.3066
0
LINE
8
BLACK
6
CONTINUOUS
10
75.9894
20
-80.3066
11
75.949
21
-80.1035
0
LINE
8
BLACK
6
CONTINUOUS
10
75.949
20
-80.1035
11
75.949
21
-79.8965
0
LINE
8
BLACK
6
CONTINUOUS
10
75.949
20
-79.8965
11
75.9894
21
-79.6934
0
LINE
8
BLACK
6
CONTINUOUS
10
75.9894
20
-79.6934
11
76.0686
21
-79.5022
0
LINE
8
BLACK
6
CONTINUOUS
10
76.0686
20
-79.5022
11
76.1836
21
-79.33
0
LINE
8
BLACK
6
CONTINUOUS
10
76.1836
20
-79.33
11
76.33
21
-79.1836
0
LINE
8
BLACK
6
CONTINUOUS
10
76.33
20
-79.1836
11
76.5022
21
-79.0686
0
LINE
8
BLACK
6
CONTINUOUS
10
76.5022
20
-79.0686
11
76.6934
21
-78.9894
0
LINE
8
BLACK
6
CONTINUOUS
10
76.6934
20
-78.9894
11
76.8965
21
-78.949
0
LINE
8
BLACK
6
CONTINUOUS
10
76.8965
20
-78.949
11
77.1035
21
-78.949
0
LINE
8
BLACK
6
CONTINUOUS
10
77.1035
20
-78.949
11
77.3066
21
-78.9894
0
LINE
8
BLACK
6
CONTINUOUS
10
92.3066
20
-78.9894
11
92.4978
21
-79.0686
0
LINE
8
BLACK
6
CONTINUOUS
10
92.4978
20
-79.0686
11
92.67
21
-79.1836
0
LINE
8
BLACK
6
CONTINUOUS
10
92.67
20
-79.1836
11
92.8164
21
-79.33
0
LINE
8
BLACK
6
CONTINUOUS
10
92.8164
20
-79.33
11
92.9314
21
-79.5022
0
LINE
8
BLACK
6
CONTINUOUS
10
92.9314
20
-79.5022
11
93.0106
21
-79.6934
0
LINE
8
BLACK
6
CONTINUOUS
10
93.0106
20
-79.6934
11
93.051
21
-79.8965
0
LINE
8
BLACK
6
CONTINUOUS
10
93.051
20
-79.8965
11
93.051
21
-80.1035
0
LINE
8
BLACK
6
CONTINUOUS
10
93.051
20
-80.1035
11
93.0106
21
-80.3066
0
LINE
8
BLACK
6
CONTINUOUS
10
93.0106
20
-80.3066
11
92.9314
21
-80.4978
0
LINE
8
BLACK
6
CONTINUOUS
10
92.9314
20
-80.4978
11
92.8164
21
-80.67
0
LINE
8
BLACK
6
CONTINUOUS
10
92.8164
20
-80.67
11
92.67
21
-80.8164
0
LINE
8
BLACK
6
CONTINUOUS
10
92.67
20
-80.8164
11
92.4978
21
-80.9314
0
LINE
8
BLACK
6
CONTINUOUS
10
92.4978
20
-80.9314
11
92.3066
21
-81.0106
0
LINE
8
BLACK
6
CONTINUOUS
10
92.3066
20
-81.0106
11
92.1035
21
-81.051
0
LINE
8
BLACK
6
CONTINUOUS
10
92.1035
20
-81.051
11
91.8965
21
-81.051
0
LINE
8
BLACK
6
CONTINUOUS
10
91.8965
20
-81.051
11
91.6934
21
-81.0106
0
LINE
8
BLACK
6
CONTINUOUS
10
91.6934
20
-81.0106
11
91.5022
21
-80.9314
0
LINE
8
BLACK
6
CONTINUOUS
10
91.5022
20
-80.9314
11
91.33
21
-80.8164
0
LINE
8
BLACK
6
CONTINUOUS
10
91.33
20
-80.8164
11
91.1836
21
-80.67
0
LINE
8
BLACK
6
CONTINUOUS
10
91.1836
20
-80.67
11
91.0686
21
-80.4978
0
LINE
8
BLACK
6
CONTINUOUS
10
91.0686
20
-80.4978
11
90.9894
21
-80.3066
0
LINE
8
BLACK
6
CONTINUOUS
10
90.9894
20
-80.3066
11
90.949
21
-80.1035
0
LINE
8
BLACK
6
CONTINUOUS
10
90.949
20
-80.1035
11
90.949
21
-79.8965
0
LINE
8
BLACK
6
CONTINUOUS
10
90.949
20
-79.8965
11
90.9894
21
-79.6934
0
LINE
8
BLACK
6
CONTINUOUS
10
90.9894
20
-79.6934
11
91.0686
21
-79.5022
0
LINE
8
BLACK
6
CONTINUOUS
10
91.0686
20
-79.5022
11
91.1836
21
-79.33
0
LINE
8
BLACK
6
CONTINUOUS
10
91.1836
20
-79.33
11
91.33
21
-79.1836
0
LINE
8
BLACK
6
CONTINUOUS
10
91.33
20
-79.1836
11
91.5022
21
-79.0686
0
LINE
8
BLACK
6
CONTINUOUS
10
91.5022
20
-79.0686
11
91.6934
21
-78.9894
0
LINE
8
BLACK
6
CONTINUOUS
10
91.6934
20
-78.9894
11
91.8965
21
-78.949
0
LINE
8
BLACK
6
CONTINUOUS
10
91.8965
20
-78.949
11
92.1035
21
-78.949
0
LINE
8
BLACK
6
CONTINUOUS
10
92.1035
20
-78.949
11
92.3066
21
-78.9894
0
LINE
8
BLACK
6
CONTINUOUS
10
98.8066
20
-78.9894
11
98.9978
21
-79.0686
0
LINE
8
BLACK
6
CONTINUOUS
10
98.9978
20
-79.0686
11
99.17
21
-79.1836
0
LINE
8
BLACK
6
CONTINUOUS
10
99.17
20
-79.1836
11
99.3164
21
-79.33
0
LINE
8
BLACK
6
CONTINUOUS
10
99.3164
20
-79.33
11
99.4314
21
-79.5022
0
LINE
8
BLACK
6
CONTINUOUS
10
99.4314
20
-79.5022
11
99.5106
21
-79.6934
0
LINE
8
BLACK
6
CONTINUOUS
10
99.5106
20
-79.6934
11
99.551
21
-79.8965
0
LINE
8
BLACK
6
CONTINUOUS
10
99.551
20
-79.8965
11
99.551
21
-80.1035
0
LINE
8
BLACK
6
CONTINUOUS
10
99.551
20
-80.1035
11
99.5106
21
-80.3066
0
LINE
8
BLACK
6
CONTINUOUS
10
99.5106
20
-80.3066
11
99.4314
21
-80.4978
0
LINE
8
BLACK
6
CONTINUOUS
10
99.4314
20
-80.4978
11
99.3164
21
-80.67
0
LINE
8
BLACK
6
CONTINUOUS
10
99.3164
20
-80.67
11
99.17
21
-80.8164
0
LINE
8
BLACK
6
CONTINUOUS
10
99.17
20
-80.8164
11
98.9978
21
-80.9314
0
LINE
8
BLACK
6
CONTINUOUS
10
98.9978
20
-80.9314
11
98.8066
21
-81.0106
0
LINE
8
BLACK
6
CONTINUOUS
10
98.8066
20
-81.0106
11
98.6035
21
-81.051
0
LINE
8
BLACK
6
CONTINUOUS
10
98.6035
20
-81.051
11
98.3965
21
-81.051
0
LINE
8
BLACK
6
CONTINUOUS
10
98.3965
20
-81.051
11
98.1934
21
-81.0106
0
LINE
8
BLACK
6
CONTINUOUS
10
98.1934
20
-81.0106
11
98.0022
21
-80.9314
0
LINE
8
BLACK
6
CONTINUOUS
10
98.0022
20
-80.9314
11
97.83
21
-80.8164
0
LINE
8
BLACK
6
CONTINUOUS
10
97.83
20
-80.8164
11
97.6836
21
-80.67
0
LINE
8
BLACK
6
CONTINUOUS
10
97.6836
20
-80.67
11
97.5686
21
-80.4978
0
LINE
8
BLACK
6
CONTINUOUS
10
97.5686
20
-80.4978
11
97.4894
21
-80.3066
0
LINE
8
BLACK
6
CONTINUOUS
10
97.4894
20
-80.3066
11
97.449
21
-80.1035
0
LINE
8
BLACK
6
CONTINUOUS
10
97.449
20
-80.1035
11
97.449
21
-79.8965
0
LINE
8
BLACK
6
CONTINUOUS
10
97.449
20
-79.8965
11
97.4894
21
-79.6934
0
LINE
8
BLACK
6
CONTINUOUS
10
97.4894
20
-79.6934
11
97.5686
21
-79.5022
0
LINE
8
BLACK
6
CONTINUOUS
10
97.5686
20
-79.5022
11
97.6836
21
-79.33
0
LINE
8
BLACK
6
CONTINUOUS
10
97.6836
20
-79.33
11
97.83
21
-79.1836
0
LINE
8
BLACK
6
CONTINUOUS
10
97.83
20
-79.1836
11
98.0022
21
-79.0686
0
LINE
8
BLACK
6
CONTINUOUS
10
98.0022
20
-79.0686
11
98.1934
21
-78.9894
0
LINE
8
BLACK
6
CONTINUOUS
10
98.1934
20
-78.9894
11
98.3965
21
-78.949
0
LINE
8
BLACK
6
CONTINUOUS
10
98.3965
20
-78.949
11
98.6035
21
-78.949
0
LINE
8
BLACK
6
CONTINUOUS
10
98.6035
20
-78.949
11
98.8066
21
-78.9894
0
LINE
8
BLACK
6
CONTINUOUS
10
113.307
20
-67.4894
11
113.498
21
-67.5686
0
LINE
8
BLACK
6
CONTINUOUS
10
113.498
20
-67.5686
11
113.67
21
-67.6836
0
LINE
8
BLACK
6
CONTINUOUS
10
113.67
20
-67.6836
11
113.816
21
-67.83
0
LINE
8
BLACK
6
CONTINUOUS
10
113.816
20
-67.83
11
113.931
21
-68.0022
0
LINE
8
BLACK
6
CONTINUOUS
10
113.931
20
-68.0022
11
114.011
21
-68.1934
0
LINE
8
BLACK
6
CONTINUOUS
10
114.011
20
-68.1934
11
114.051
21
-68.3965
0
LINE
8
BLACK
6
CONTINUOUS
10
114.051
20
-68.3965
11
114.051
21
-68.6035
0
LINE
8
BLACK
6
CONTINUOUS
10
114.051
20
-68.6035
11
114.011
21
-68.8066
0
LINE
8
BLACK
6
CONTINUOUS
10
114.011
20
-68.8066
11
113.931
21
-68.9978
0
LINE
8
BLACK
6
CONTINUOUS
10
113.931
20
-68.9978
11
113.816
21
-69.17
0
LINE
8
BLACK
6
CONTINUOUS
10
113.816
20
-69.17
11
113.67
21
-69.3164
0
LINE
8
BLACK
6
CONTINUOUS
10
113.67
20
-69.3164
11
113.498
21
-69.4314
0
LINE
8
BLACK
6
CONTINUOUS
10
113.498
20
-69.4314
11
113.307
21
-69.5106
0
LINE
8
BLACK
6
CONTINUOUS
10
113.307
20
-69.5106
11
113.104
21
-69.551
0
LINE
8
BLACK
6
CONTINUOUS
10
113.104
20
-69.551
11
112.896
21
-69.551
0
LINE
8
BLACK
6
CONTINUOUS
10
112.896
20
-69.551
11
112.693
21
-69.5106
0
LINE
8
BLACK
6
CONTINUOUS
10
112.693
20
-69.5106
11
112.502
21
-69.4314
0
LINE
8
BLACK
6
CONTINUOUS
10
112.502
20
-69.4314
11
112.33
21
-69.3164
0
LINE
8
BLACK
6
CONTINUOUS
10
112.33
20
-69.3164
11
112.184
21
-69.17
0
LINE
8
BLACK
6
CONTINUOUS
10
112.184
20
-69.17
11
112.069
21
-68.9978
0
LINE
8
BLACK
6
CONTINUOUS
10
112.069
20
-68.9978
11
111.989
21
-68.8066
0
LINE
8
BLACK
6
CONTINUOUS
10
111.989
20
-68.8066
11
111.949
21
-68.6035
0
LINE
8
BLACK
6
CONTINUOUS
10
111.949
20
-68.6035
11
111.949
21
-68.3965
0
LINE
8
BLACK
6
CONTINUOUS
10
111.949
20
-68.3965
11
111.989
21
-68.1934
0
LINE
8
BLACK
6
CONTINUOUS
10
111.989
20
-68.1934
11
112.069
21
-68.0022
0
LINE
8
BLACK
6
CONTINUOUS
10
112.069
20
-68.0022
11
112.184
21
-67.83
0
LINE
8
BLACK
6
CONTINUOUS
10
112.184
20
-67.83
11
112.33
21
-67.6836
0
LINE
8
BLACK
6
CONTINUOUS
10
112.33
20
-67.6836
11
112.502
21
-67.5686
0
LINE
8
BLACK
6
CONTINUOUS
10
112.502
20
-67.5686
11
112.693
21
-67.4894
0
LINE
8
BLACK
6
CONTINUOUS
10
112.693
20
-67.4894
11
112.896
21
-67.449
0
LINE
8
BLACK
6
CONTINUOUS
10
112.896
20
-67.449
11
113.104
21
-67.449
0
LINE
8
BLACK
6
CONTINUOUS
10
113.104
20
-67.449
11
113.307
21
-67.4894
0
LINE
8
BLACK
6
CONTINUOUS
10
106.807
20
-67.4894
11
106.998
21
-67.5686
0
LINE
8
BLACK
6
CONTINUOUS
10
106.998
20
-67.5686
11
107.17
21
-67.6836
0
LINE
8
BLACK
6
CONTINUOUS
10
107.17
20
-67.6836
11
107.316
21
-67.83
0
LINE
8
BLACK
6
CONTINUOUS
10
107.316
20
-67.83
11
107.431
21
-68.0022
0
LINE
8
BLACK
6
CONTINUOUS
10
107.431
20
-68.0022
11
107.511
21
-68.1934
0
LINE
8
BLACK
6
CONTINUOUS
10
107.511
20
-68.1934
11
107.551
21
-68.3965
0
LINE
8
BLACK
6
CONTINUOUS
10
107.551
20
-68.3965
11
107.551
21
-68.6035
0
LINE
8
BLACK
6
CONTINUOUS
10
107.551
20
-68.6035
11
107.511
21
-68.8066
0
LINE
8
BLACK
6
CONTINUOUS
10
107.511
20
-68.8066
11
107.431
21
-68.9978
0
LINE
8
BLACK
6
CONTINUOUS
10
107.431
20
-68.9978
11
107.316
21
-69.17
0
LINE
8
BLACK
6
CONTINUOUS
10
107.316
20
-69.17
11
107.17
21
-69.3164
0
LINE
8
BLACK
6
CONTINUOUS
10
107.17
20
-69.3164
11
106.998
21
-69.4314
0
LINE
8
BLACK
6
CONTINUOUS
10
106.998
20
-69.4314
11
106.807
21
-69.5106
0
LINE
8
BLACK
6
CONTINUOUS
10
106.807
20
-69.5106
11
106.604
21
-69.551
0
LINE
8
BLACK
6
CONTINUOUS
10
106.604
20
-69.551
11
106.396
21
-69.551
0
LINE
8
BLACK
6
CONTINUOUS
10
106.396
20
-69.551
11
106.193
21
-69.5106
0
LINE
8
BLACK
6
CONTINUOUS
10
106.193
20
-69.5106
11
106.002
21
-69.4314
0
LINE
8
BLACK
6
CONTINUOUS
10
106.002
20
-69.4314
11
105.83
21
-69.3164
0
LINE
8
BLACK
6
CONTINUOUS
10
105.83
20
-69.3164
11
105.684
21
-69.17
0
LINE
8
BLACK
6
CONTINUOUS
10
105.684
20
-69.17
11
105.569
21
-68.9978
0
LINE
8
BLACK
6
CONTINUOUS
10
105.569
20
-68.9978
11
105.489
21
-68.8066
0
LINE
8
BLACK
6
CONTINUOUS
10
105.489
20
-68.8066
11
105.449
21
-68.6035
0
LINE
8
BLACK
6
CONTINUOUS
10
105.449
20
-68.6035
11
105.449
21
-68.3965
0
LINE
8
BLACK
6
CONTINUOUS
10
105.449
20
-68.3965
11
105.489
21
-68.1934
0
LINE
8
BLACK
6
CONTINUOUS
10
105.489
20
-68.1934
11
105.569
21
-68.0022
0
LINE
8
BLACK
6
CONTINUOUS
10
105.569
20
-68.0022
11
105.684
21
-67.83
0
LINE
8
BLACK
6
CONTINUOUS
10
105.684
20
-67.83
11
105.83
21
-67.6836
0
LINE
8
BLACK
6
CONTINUOUS
10
105.83
20
-67.6836
11
106.002
21
-67.5686
0
LINE
8
BLACK
6
CONTINUOUS
10
106.002
20
-67.5686
11
106.193
21
-67.4894
0
LINE
8
BLACK
6
CONTINUOUS
10
106.193
20
-67.4894
11
106.396
21
-67.449
0
LINE
8
BLACK
6
CONTINUOUS
10
106.396
20
-67.449
11
106.604
21
-67.449
0
LINE
8
BLACK
6
CONTINUOUS
10
106.604
20
-67.449
11
106.807
21
-67.4894
0
LINE
8
BLACK
6
CONTINUOUS
10
92.3066
20
-67.4894
11
92.4978
21
-67.5686
0
LINE
8
BLACK
6
CONTINUOUS
10
92.4978
20
-67.5686
11
92.67
21
-67.6836
0
LINE
8
BLACK
6
CONTINUOUS
10
92.67
20
-67.6836
11
92.8164
21
-67.83
0
LINE
8
BLACK
6
CONTINUOUS
10
92.8164
20
-67.83
11
92.9314
21
-68.0022
0
LINE
8
BLACK
6
CONTINUOUS
10
92.9314
20
-68.0022
11
93.0106
21
-68.1934
0
LINE
8
BLACK
6
CONTINUOUS
10
93.0106
20
-68.1934
11
93.051
21
-68.3965
0
LINE
8
BLACK
6
CONTINUOUS
10
93.051
20
-68.3965
11
93.051
21
-68.6035
0
LINE
8
BLACK
6
CONTINUOUS
10
93.051
20
-68.6035
11
93.0106
21
-68.8066
0
LINE
8
BLACK
6
CONTINUOUS
10
93.0106
20
-68.8066
11
92.9314
21
-68.9978
0
LINE
8
BLACK
6
CONTINUOUS
10
92.9314
20
-68.9978
11
92.8164
21
-69.17
0
LINE
8
BLACK
6
CONTINUOUS
10
92.8164
20
-69.17
11
92.67
21
-69.3164
0
LINE
8
BLACK
6
CONTINUOUS
10
92.67
20
-69.3164
11
92.4978
21
-69.4314
0
LINE
8
BLACK
6
CONTINUOUS
10
92.4978
20
-69.4314
11
92.3066
21
-69.5106
0
LINE
8
BLACK
6
CONTINUOUS
10
92.3066
20
-69.5106
11
92.1035
21
-69.551
0
LINE
8
BLACK
6
CONTINUOUS
10
92.1035
20
-69.551
11
91.8965
21
-69.551
0
LINE
8
BLACK
6
CONTINUOUS
10
91.8965
20
-69.551
11
91.6934
21
-69.5106
0
LINE
8
BLACK
6
CONTINUOUS
10
91.6934
20
-69.5106
11
91.5022
21
-69.4314
0
LINE
8
BLACK
6
CONTINUOUS
10
91.5022
20
-69.4314
11
91.33
21
-69.3164
0
LINE
8
BLACK
6
CONTINUOUS
10
91.33
20
-69.3164
11
91.1836
21
-69.17
0
LINE
8
BLACK
6
CONTINUOUS
10
91.1836
20
-69.17
11
91.0686
21
-68.9978
0
LINE
8
BLACK
6
CONTINUOUS
10
91.0686
20
-68.9978
11
90.9894
21
-68.8066
0
LINE
8
BLACK
6
CONTINUOUS
10
90.9894
20
-68.8066
11
90.949
21
-68.6035
0
LINE
8
BLACK
6
CONTINUOUS
10
90.949
20
-68.6035
11
90.949
21
-68.3965
0
LINE
8
BLACK
6
CONTINUOUS
10
90.949
20
-68.3965
11
90.9894
21
-68.1934
0
LINE
8
BLACK
6
CONTINUOUS
10
90.9894
20
-68.1934
11
91.0686
21
-68.0022
0
LINE
8
BLACK
6
CONTINUOUS
10
91.0686
20
-68.0022
11
91.1836
21
-67.83
0
LINE
8
BLACK
6
CONTINUOUS
10
91.1836
20
-67.83
11
91.33
21
-67.6836
0
LINE
8
BLACK
6
CONTINUOUS
10
91.33
20
-67.6836
11
91.5022
21
-67.5686
0
LINE
8
BLACK
6
CONTINUOUS
10
91.5022
20
-67.5686
11
91.6934
21
-67.4894
0
LINE
8
BLACK
6
CONTINUOUS
10
91.6934
20
-67.4894
11
91.8965
21
-67.449
0
LINE
8
BLACK
6
CONTINUOUS
10
91.8965
20
-67.449
11
92.1035
21
-67.449
0
LINE
8
BLACK
6
CONTINUOUS
10
92.1035
20
-67.449
11
92.3066
21
-67.4894
0
LINE
8
BLACK
6
CONTINUOUS
10
83.8066
20
-67.4894
11
83.9978
21
-67.5686
0
LINE
8
BLACK
6
CONTINUOUS
10
83.9978
20
-67.5686
11
84.17
21
-67.6836
0
LINE
8
BLACK
6
CONTINUOUS
10
84.17
20
-67.6836
11
84.3164
21
-67.83
0
LINE
8
BLACK
6
CONTINUOUS
10
84.3164
20
-67.83
11
84.4314
21
-68.0022
0
LINE
8
BLACK
6
CONTINUOUS
10
84.4314
20
-68.0022
11
84.5106
21
-68.1934
0
LINE
8
BLACK
6
CONTINUOUS
10
84.5106
20
-68.1934
11
84.551
21
-68.3965
0
LINE
8
BLACK
6
CONTINUOUS
10
84.551
20
-68.3965
11
84.551
21
-68.6035
0
LINE
8
BLACK
6
CONTINUOUS
10
84.551
20
-68.6035
11
84.5106
21
-68.8066
0
LINE
8
BLACK
6
CONTINUOUS
10
84.5106
20
-68.8066
11
84.4314
21
-68.9978
0
LINE
8
BLACK
6
CONTINUOUS
10
84.4314
20
-68.9978
11
84.3164
21
-69.17
0
LINE
8
BLACK
6
CONTINUOUS
10
84.3164
20
-69.17
11
84.17
21
-69.3164
0
LINE
8
BLACK
6
CONTINUOUS
10
84.17
20
-69.3164
11
83.9978
21
-69.4314
0
LINE
8
BLACK
6
CONTINUOUS
10
83.9978
20
-69.4314
11
83.8066
21
-69.5106
0
LINE
8
BLACK
6
CONTINUOUS
10
83.8066
20
-69.5106
11
83.6035
21
-69.551
0
LINE
8
BLACK
6
CONTINUOUS
10
83.6035
20
-69.551
11
83.3965
21
-69.551
0
LINE
8
BLACK
6
CONTINUOUS
10
83.3965
20
-69.551
11
83.1934
21
-69.5106
0
LINE
8
BLACK
6
CONTINUOUS
10
83.1934
20
-69.5106
11
83.0022
21
-69.4314
0
LINE
8
BLACK
6
CONTINUOUS
10
83.0022
20
-69.4314
11
82.83
21
-69.3164
0
LINE
8
BLACK
6
CONTINUOUS
10
82.83
20
-69.3164
11
82.6836
21
-69.17
0
LINE
8
BLACK
6
CONTINUOUS
10
82.6836
20
-69.17
11
82.5686
21
-68.9978
0
LINE
8
BLACK
6
CONTINUOUS
10
82.5686
20
-68.9978
11
82.4894
21
-68.8066
0
LINE
8
BLACK
6
CONTINUOUS
10
82.4894
20
-68.8066
11
82.449
21
-68.6035
0
LINE
8
BLACK
6
CONTINUOUS
10
82.449
20
-68.6035
11
82.449
21
-68.3965
0
LINE
8
BLACK
6
CONTINUOUS
10
82.449
20
-68.3965
11
82.4894
21
-68.1934
0
LINE
8
BLACK
6
CONTINUOUS
10
82.4894
20
-68.1934
11
82.5686
21
-68.0022
0
LINE
8
BLACK
6
CONTINUOUS
10
82.5686
20
-68.0022
11
82.6836
21
-67.83
0
LINE
8
BLACK
6
CONTINUOUS
10
82.6836
20
-67.83
11
82.83
21
-67.6836
0
LINE
8
BLACK
6
CONTINUOUS
10
82.83
20
-67.6836
11
83.0022
21
-67.5686
0
LINE
8
BLACK
6
CONTINUOUS
10
83.0022
20
-67.5686
11
83.1934
21
-67.4894
0
LINE
8
BLACK
6
CONTINUOUS
10
83.1934
20
-67.4894
11
83.3965
21
-67.449
0
LINE
8
BLACK
6
CONTINUOUS
10
83.3965
20
-67.449
11
83.6035
21
-67.449
0
LINE
8
BLACK
6
CONTINUOUS
10
83.6035
20
-67.449
11
83.8066
21
-67.4894
0
LINE
8
BLACK
6
CONTINUOUS
10
77.3066
20
-67.4894
11
77.4978
21
-67.5686
0
LINE
8
BLACK
6
CONTINUOUS
10
77.4978
20
-67.5686
11
77.67
21
-67.6836
0
LINE
8
BLACK
6
CONTINUOUS
10
77.67
20
-67.6836
11
77.8164
21
-67.83
0
LINE
8
BLACK
6
CONTINUOUS
10
77.8164
20
-67.83
11
77.9314
21
-68.0022
0
LINE
8
BLACK
6
CONTINUOUS
10
77.9314
20
-68.0022
11
78.0106
21
-68.1934
0
LINE
8
BLACK
6
CONTINUOUS
10
78.0106
20
-68.1934
11
78.051
21
-68.3965
0
LINE
8
BLACK
6
CONTINUOUS
10
78.051
20
-68.3965
11
78.051
21
-68.6035
0
LINE
8
BLACK
6
CONTINUOUS
10
78.051
20
-68.6035
11
78.0106
21
-68.8066
0
LINE
8
BLACK
6
CONTINUOUS
10
78.0106
20
-68.8066
11
77.9314
21
-68.9978
0
LINE
8
BLACK
6
CONTINUOUS
10
77.9314
20
-68.9978
11
77.8164
21
-69.17
0
LINE
8
BLACK
6
CONTINUOUS
10
77.8164
20
-69.17
11
77.67
21
-69.3164
0
LINE
8
BLACK
6
CONTINUOUS
10
77.67
20
-69.3164
11
77.4978
21
-69.4314
0
LINE
8
BLACK
6
CONTINUOUS
10
77.4978
20
-69.4314
11
77.3066
21
-69.5106
0
LINE
8
BLACK
6
CONTINUOUS
10
77.3066
20
-69.5106
11
77.1035
21
-69.551
0
LINE
8
BLACK
6
CONTINUOUS
10
77.1035
20
-69.551
11
76.8965
21
-69.551
0
LINE
8
BLACK
6
CONTINUOUS
10
76.8965
20
-69.551
11
76.6934
21
-69.5106
0
LINE
8
BLACK
6
CONTINUOUS
10
76.6934
20
-69.5106
11
76.5022
21
-69.4314
0
LINE
8
BLACK
6
CONTINUOUS
10
76.5022
20
-69.4314
11
76.33
21
-69.3164
0
LINE
8
BLACK
6
CONTINUOUS
10
76.33
20
-69.3164
11
76.1836
21
-69.17
0
LINE
8
BLACK
6
CONTINUOUS
10
76.1836
20
-69.17
11
76.0686
21
-68.9978
0
LINE
8
BLACK
6
CONTINUOUS
10
76.0686
20
-68.9978
11
75.9894
21
-68.8066
0
LINE
8
BLACK
6
CONTINUOUS
10
75.9894
20
-68.8066
11
75.949
21
-68.6035
0
LINE
8
BLACK
6
CONTINUOUS
10
75.949
20
-68.6035
11
75.949
21
-68.3965
0
LINE
8
BLACK
6
CONTINUOUS
10
75.949
20
-68.3965
11
75.9894
21
-68.1934
0
LINE
8
BLACK
6
CONTINUOUS
10
75.9894
20
-68.1934
11
76.0686
21
-68.0022
0
LINE
8
BLACK
6
CONTINUOUS
10
76.0686
20
-68.0022
11
76.1836
21
-67.83
0
LINE
8
BLACK
6
CONTINUOUS
10
76.1836
20
-67.83
11
76.33
21
-67.6836
0
LINE
8
BLACK
6
CONTINUOUS
10
76.33
20
-67.6836
11
76.5022
21
-67.5686
0
LINE
8
BLACK
6
CONTINUOUS
10
76.5022
20
-67.5686
11
76.6934
21
-67.4894
0
LINE
8
BLACK
6
CONTINUOUS
10
76.6934
20
-67.4894
11
76.8965
21
-67.449
0
LINE
8
BLACK
6
CONTINUOUS
10
76.8965
20
-67.449
11
77.1035
21
-67.449
0
LINE
8
BLACK
6
CONTINUOUS
10
77.1035
20
-67.449
11
77.3066
21
-67.4894
0
LINE
8
BLACK
6
CONTINUOUS
10
98.8066
20
-67.4894
11
98.9978
21
-67.5686
0
LINE
8
BLACK
6
CONTINUOUS
10
98.9978
20
-67.5686
11
99.17
21
-67.6836
0
LINE
8
BLACK
6
CONTINUOUS
10
99.17
20
-67.6836
11
99.3164
21
-67.83
0
LINE
8
BLACK
6
CONTINUOUS
10
99.3164
20
-67.83
11
99.4314
21
-68.0022
0
LINE
8
BLACK
6
CONTINUOUS
10
99.4314
20
-68.0022
11
99.5106
21
-68.1934
0
LINE
8
BLACK
6
CONTINUOUS
10
99.5106
20
-68.1934
11
99.551
21
-68.3965
0
LINE
8
BLACK
6
CONTINUOUS
10
99.551
20
-68.3965
11
99.551
21
-68.6035
0
LINE
8
BLACK
6
CONTINUOUS
10
99.551
20
-68.6035
11
99.5106
21
-68.8066
0
LINE
8
BLACK
6
CONTINUOUS
10
99.5106
20
-68.8066
11
99.4314
21
-68.9978
0
LINE
8
BLACK
6
CONTINUOUS
10
99.4314
20
-68.9978
11
99.3164
21
-69.17
0
LINE
8
BLACK
6
CONTINUOUS
10
99.3164
20
-69.17
11
99.17
21
-69.3164
0
LINE
8
BLACK
6
CONTINUOUS
10
99.17
20
-69.3164
11
98.9978
21
-69.4314
0
LINE
8
BLACK
6
CONTINUOUS
10
98.9978
20
-69.4314
11
98.8066
21
-69.5106
0
LINE
8
BLACK
6
CONTINUOUS
10
98.8066
20
-69.5106
11
98.6035
21
-69.551
0
LINE
8
BLACK
6
CONTINUOUS
10
98.6035
20
-69.551
11
98.3965
21
-69.551
0
LINE
8
BLACK
6
CONTINUOUS
10
98.3965
20
-69.551
11
98.1934
21
-69.5106
0
LINE
8
BLACK
6
CONTINUOUS
10
98.1934
20
-69.5106
11
98.0022
21
-69.4314
0
LINE
8
BLACK
6
CONTINUOUS
10
98.0022
20
-69.4314
11
97.83
21
-69.3164
0
LINE
8
BLACK
6
CONTINUOUS
10
97.83
20
-69.3164
11
97.6836
21
-69.17
0
LINE
8
BLACK
6
CONTINUOUS
10
97.6836
20
-69.17
11
97.5686
21
-68.9978
0
LINE
8
BLACK
6
CONTINUOUS
10
97.5686
20
-68.9978
11
97.4894
21
-68.8066
0
LINE
8
BLACK
6
CONTINUOUS
10
97.4894
20
-68.8066
11
97.449
21
-68.6035
0
LINE
8
BLACK
6
CONTINUOUS
10
97.449
20
-68.6035
11
97.449
21
-68.3965
0
LINE
8
BLACK
6
CONTINUOUS
10
97.449
20
-68.3965
11
97.4894
21
-68.1934
0
LINE
8
BLACK
6
CONTINUOUS
10
97.4894
20
-68.1934
11
97.5686
21
-68.0022
0
LINE
8
BLACK
6
CONTINUOUS
10
97.5686
20
-68.0022
11
97.6836
21
-67.83
0
LINE
8
BLACK
6
CONTINUOUS
10
97.6836
20
-67.83
11
97.83
21
-67.6836
0
LINE
8
BLACK
6
CONTINUOUS
10
97.83
20
-67.6836
11
98.0022
21
-67.5686
0
LINE
8
BLACK
6
CONTINUOUS
10
98.0022
20
-67.5686
11
98.1934
21
-67.4894
0
LINE
8
BLACK
6
CONTINUOUS
10
98.1934
20
-67.4894
11
98.3965
21
-67.449
0
LINE
8
BLACK
6
CONTINUOUS
10
98.3965
20
-67.449
11
98.6035
21
-67.449
0
LINE
8
BLACK
6
CONTINUOUS
10
98.6035
20
-67.449
11
98.8066
21
-67.4894
0
LINE
8
BLACK
6
CONTINUOUS
10
106.807
20
-62.9894
11
106.998
21
-63.0686
0
LINE
8
BLACK
6
CONTINUOUS
10
106.998
20
-63.0686
11
107.17
21
-63.1836
0
LINE
8
BLACK
6
CONTINUOUS
10
107.17
20
-63.1836
11
107.316
21
-63.33
0
LINE
8
BLACK
6
CONTINUOUS
10
107.316
20
-63.33
11
107.431
21
-63.5022
0
LINE
8
BLACK
6
CONTINUOUS
10
107.431
20
-63.5022
11
107.511
21
-63.6934
0
LINE
8
BLACK
6
CONTINUOUS
10
107.511
20
-63.6934
11
107.551
21
-63.8965
0
LINE
8
BLACK
6
CONTINUOUS
10
107.551
20
-63.8965
11
107.551
21
-64.1035
0
LINE
8
BLACK
6
CONTINUOUS
10
107.551
20
-64.1035
11
107.511
21
-64.3066
0
LINE
8
BLACK
6
CONTINUOUS
10
107.511
20
-64.3066
11
107.431
21
-64.4978
0
LINE
8
BLACK
6
CONTINUOUS
10
107.431
20
-64.4978
11
107.316
21
-64.67
0
LINE
8
BLACK
6
CONTINUOUS
10
107.316
20
-64.67
11
107.17
21
-64.8164
0
LINE
8
BLACK
6
CONTINUOUS
10
107.17
20
-64.8164
11
106.998
21
-64.9314
0
LINE
8
BLACK
6
CONTINUOUS
10
106.998
20
-64.9314
11
106.807
21
-65.0106
0
LINE
8
BLACK
6
CONTINUOUS
10
106.807
20
-65.0106
11
106.604
21
-65.051
0
LINE
8
BLACK
6
CONTINUOUS
10
106.604
20
-65.051
11
106.396
21
-65.051
0
LINE
8
BLACK
6
CONTINUOUS
10
106.396
20
-65.051
11
106.193
21
-65.0106
0
LINE
8
BLACK
6
CONTINUOUS
10
106.193
20
-65.0106
11
106.002
21
-64.9314
0
LINE
8
BLACK
6
CONTINUOUS
10
106.002
20
-64.9314
11
105.83
21
-64.8164
0
LINE
8
BLACK
6
CONTINUOUS
10
105.83
20
-64.8164
11
105.684
21
-64.67
0
LINE
8
BLACK
6
CONTINUOUS
10
105.684
20
-64.67
11
105.569
21
-64.4978
0
LINE
8
BLACK
6
CONTINUOUS
10
105.569
20
-64.4978
11
105.489
21
-64.3066
0
LINE
8
BLACK
6
CONTINUOUS
10
105.489
20
-64.3066
11
105.449
21
-64.1035
0
LINE
8
BLACK
6
CONTINUOUS
10
105.449
20
-64.1035
11
105.449
21
-63.8965
0
LINE
8
BLACK
6
CONTINUOUS
10
105.449
20
-63.8965
11
105.489
21
-63.6934
0
LINE
8
BLACK
6
CONTINUOUS
10
105.489
20
-63.6934
11
105.569
21
-63.5022
0
LINE
8
BLACK
6
CONTINUOUS
10
105.569
20
-63.5022
11
105.684
21
-63.33
0
LINE
8
BLACK
6
CONTINUOUS
10
105.684
20
-63.33
11
105.83
21
-63.1836
0
LINE
8
BLACK
6
CONTINUOUS
10
105.83
20
-63.1836
11
106.002
21
-63.0686
0
LINE
8
BLACK
6
CONTINUOUS
10
106.002
20
-63.0686
11
106.193
21
-62.9894
0
LINE
8
BLACK
6
CONTINUOUS
10
106.193
20
-62.9894
11
106.396
21
-62.949
0
LINE
8
BLACK
6
CONTINUOUS
10
106.396
20
-62.949
11
106.604
21
-62.949
0
LINE
8
BLACK
6
CONTINUOUS
10
106.604
20
-62.949
11
106.807
21
-62.9894
0
LINE
8
BLACK
6
CONTINUOUS
10
77.3066
20
-62.9894
11
77.4978
21
-63.0686
0
LINE
8
BLACK
6
CONTINUOUS
10
77.4978
20
-63.0686
11
77.67
21
-63.1836
0
LINE
8
BLACK
6
CONTINUOUS
10
77.67
20
-63.1836
11
77.8164
21
-63.33
0
LINE
8
BLACK
6
CONTINUOUS
10
77.8164
20
-63.33
11
77.9314
21
-63.5022
0
LINE
8
BLACK
6
CONTINUOUS
10
77.9314
20
-63.5022
11
78.0106
21
-63.6934
0
LINE
8
BLACK
6
CONTINUOUS
10
78.0106
20
-63.6934
11
78.051
21
-63.8965
0
LINE
8
BLACK
6
CONTINUOUS
10
78.051
20
-63.8965
11
78.051
21
-64.1035
0
LINE
8
BLACK
6
CONTINUOUS
10
78.051
20
-64.1035
11
78.0106
21
-64.3066
0
LINE
8
BLACK
6
CONTINUOUS
10
78.0106
20
-64.3066
11
77.9314
21
-64.4978
0
LINE
8
BLACK
6
CONTINUOUS
10
77.9314
20
-64.4978
11
77.8164
21
-64.67
0
LINE
8
BLACK
6
CONTINUOUS
10
77.8164
20
-64.67
11
77.67
21
-64.8164
0
LINE
8
BLACK
6
CONTINUOUS
10
77.67
20
-64.8164
11
77.4978
21
-64.9314
0
LINE
8
BLACK
6
CONTINUOUS
10
77.4978
20
-64.9314
11
77.3066
21
-65.0106
0
LINE
8
BLACK
6
CONTINUOUS
10
77.3066
20
-65.0106
11
77.1035
21
-65.051
0
LINE
8
BLACK
6
CONTINUOUS
10
77.1035
20
-65.051
11
76.8965
21
-65.051
0
LINE
8
BLACK
6
CONTINUOUS
10
76.8965
20
-65.051
11
76.6934
21
-65.0106
0
LINE
8
BLACK
6
CONTINUOUS
10
76.6934
20
-65.0106
11
76.5022
21
-64.9314
0
LINE
8
BLACK
6
CONTINUOUS
10
76.5022
20
-64.9314
11
76.33
21
-64.8164
0
LINE
8
BLACK
6
CONTINUOUS
10
76.33
20
-64.8164
11
76.1836
21
-64.67
0
LINE
8
BLACK
6
CONTINUOUS
10
76.1836
20
-64.67
11
76.0686
21
-64.4978
0
LINE
8
BLACK
6
CONTINUOUS
10
76.0686
20
-64.4978
11
75.9894
21
-64.3066
0
LINE
8
BLACK
6
CONTINUOUS
10
75.9894
20
-64.3066
11
75.949
21
-64.1035
0
LINE
8
BLACK
6
CONTINUOUS
10
75.949
20
-64.1035
11
75.949
21
-63.8965
0
LINE
8
BLACK
6
CONTINUOUS
10
75.949
20
-63.8965
11
75.9894
21
-63.6934
0
LINE
8
BLACK
6
CONTINUOUS
10
75.9894
20
-63.6934
11
76.0686
21
-63.5022
0
LINE
8
BLACK
6
CONTINUOUS
10
76.0686
20
-63.5022
11
76.1836
21
-63.33
0
LINE
8
BLACK
6
CONTINUOUS
10
76.1836
20
-63.33
11
76.33
21
-63.1836
0
LINE
8
BLACK
6
CONTINUOUS
10
76.33
20
-63.1836
11
76.5022
21
-63.0686
0
LINE
8
BLACK
6
CONTINUOUS
10
76.5022
20
-63.0686
11
76.6934
21
-62.9894
0
LINE
8
BLACK
6
CONTINUOUS
10
76.6934
20
-62.9894
11
76.8965
21
-62.949
0
LINE
8
BLACK
6
CONTINUOUS
10
76.8965
20
-62.949
11
77.1035
21
-62.949
0
LINE
8
BLACK
6
CONTINUOUS
10
77.1035
20
-62.949
11
77.3066
21
-62.9894
0
LINE
8
BLACK
6
CONTINUOUS
10
113.307
20
-62.9894
11
113.498
21
-63.0686
0
LINE
8
BLACK
6
CONTINUOUS
10
113.498
20
-63.0686
11
113.67
21
-63.1836
0
LINE
8
BLACK
6
CONTINUOUS
10
113.67
20
-63.1836
11
113.816
21
-63.33
0
LINE
8
BLACK
6
CONTINUOUS
10
113.816
20
-63.33
11
113.931
21
-63.5022
0
LINE
8
BLACK
6
CONTINUOUS
10
113.931
20
-63.5022
11
114.011
21
-63.6934
0
LINE
8
BLACK
6
CONTINUOUS
10
114.011
20
-63.6934
11
114.051
21
-63.8965
0
LINE
8
BLACK
6
CONTINUOUS
10
114.051
20
-63.8965
11
114.051
21
-64.1035
0
LINE
8
BLACK
6
CONTINUOUS
10
114.051
20
-64.1035
11
114.011
21
-64.3066
0
LINE
8
BLACK
6
CONTINUOUS
10
114.011
20
-64.3066
11
113.931
21
-64.4978
0
LINE
8
BLACK
6
CONTINUOUS
10
113.931
20
-64.4978
11
113.816
21
-64.67
0
LINE
8
BLACK
6
CONTINUOUS
10
113.816
20
-64.67
11
113.67
21
-64.8164
0
LINE
8
BLACK
6
CONTINUOUS
10
113.67
20
-64.8164
11
113.498
21
-64.9314
0
LINE
8
BLACK
6
CONTINUOUS
10
113.498
20
-64.9314
11
113.307
21
-65.0106
0
LINE
8
BLACK
6
CONTINUOUS
10
113.307
20
-65.0106
11
113.104
21
-65.051
0
LINE
8
BLACK
6
CONTINUOUS
10
113.104
20
-65.051
11
112.896
21
-65.051
0
LINE
8
BLACK
6
CONTINUOUS
10
112.896
20
-65.051
11
112.693
21
-65.0106
0
LINE
8
BLACK
6
CONTINUOUS
10
112.693
20
-65.0106
11
112.502
21
-64.9314
0
LINE
8
BLACK
6
CONTINUOUS
10
112.502
20
-64.9314
11
112.33
21
-64.8164
0
LINE
8
BLACK
6
CONTINUOUS
10
112.33
20
-64.8164
11
112.184
21
-64.67
0
LINE
8
BLACK
6
CONTINUOUS
10
112.184
20
-64.67
11
112.069
21
-64.4978
0
LINE
8
BLACK
6
CONTINUOUS
10
112.069
20
-64.4978
11
111.989
21
-64.3066
0
LINE
8
BLACK
6
CONTINUOUS
10
111.989
20
-64.3066
11
111.949
21
-64.1035
0
LINE
8
BLACK
6
CONTINUOUS
10
111.949
20
-64.1035
11
111.949
21
-63.8965
0
LINE
8
BLACK
6
CONTINUOUS
10
111.949
20
-63.8965
11
111.989
21
-63.6934
0
LINE
8
BLACK
6
CONTINUOUS
10
111.989
20
-63.6934
11
112.069
21
-63.5022
0
LINE
8
BLACK
6
CONTINUOUS
10
112.069
20
-63.5022
11
112.184
21
-63.33
0
LINE
8
BLACK
6
CONTINUOUS
10
112.184
20
-63.33
11
112.33
21
-63.1836
0
LINE
8
BLACK
6
CONTINUOUS
10
112.33
20
-63.1836
11
112.502
21
-63.0686
0
LINE
8
BLACK
6
CONTINUOUS
10
112.502
20
-63.0686
11
112.693
21
-62.9894
0
LINE
8
BLACK
6
CONTINUOUS
10
112.693
20
-62.9894
11
112.896
21
-62.949
0
LINE
8
BLACK
6
CONTINUOUS
10
112.896
20
-62.949
11
113.104
21
-62.949
0
LINE
8
BLACK
6
CONTINUOUS
10
113.104
20
-62.949
11
113.307
21
-62.9894
0
LINE
8
BLACK
6
CONTINUOUS
10
98.8066
20
-62.9894
11
98.9978
21
-63.0686
0
LINE
8
BLACK
6
CONTINUOUS
10
98.9978
20
-63.0686
11
99.17
21
-63.1836
0
LINE
8
BLACK
6
CONTINUOUS
10
99.17
20
-63.1836
11
99.3164
21
-63.33
0
LINE
8
BLACK
6
CONTINUOUS
10
99.3164
20
-63.33
11
99.4314
21
-63.5022
0
LINE
8
BLACK
6
CONTINUOUS
10
99.4314
20
-63.5022
11
99.5106
21
-63.6934
0
LINE
8
BLACK
6
CONTINUOUS
10
99.5106
20
-63.6934
11
99.551
21
-63.8965
0
LINE
8
BLACK
6
CONTINUOUS
10
99.551
20
-63.8965
11
99.551
21
-64.1035
0
LINE
8
BLACK
6
CONTINUOUS
10
99.551
20
-64.1035
11
99.5106
21
-64.3066
0
LINE
8
BLACK
6
CONTINUOUS
10
99.5106
20
-64.3066
11
99.4314
21
-64.4978
0
LINE
8
BLACK
6
CONTINUOUS
10
99.4314
20
-64.4978
11
99.3164
21
-64.67
0
LINE
8
BLACK
6
CONTINUOUS
10
99.3164
20
-64.67
11
99.17
21
-64.8164
0
LINE
8
BLACK
6
CONTINUOUS
10
99.17
20
-64.8164
11
98.9978
21
-64.9314
0
LINE
8
BLACK
6
CONTINUOUS
10
98.9978
20
-64.9314
11
98.8066
21
-65.0106
0
LINE
8
BLACK
6
CONTINUOUS
10
98.8066
20
-65.0106
11
98.6035
21
-65.051
0
LINE
8
BLACK
6
CONTINUOUS
10
98.6035
20
-65.051
11
98.3965
21
-65.051
0
LINE
8
BLACK
6
CONTINUOUS
10
98.3965
20
-65.051
11
98.1934
21
-65.0106
0
LINE
8
BLACK
6
CONTINUOUS
10
98.1934
20
-65.0106
11
98.0022
21
-64.9314
0
LINE
8
BLACK
6
CONTINUOUS
10
98.0022
20
-64.9314
11
97.83
21
-64.8164
0
LINE
8
BLACK
6
CONTINUOUS
10
97.83
20
-64.8164
11
97.6836
21
-64.67
0
LINE
8
BLACK
6
CONTINUOUS
10
97.6836
20
-64.67
11
97.5686
21
-64.4978
0
LINE
8
BLACK
6
CONTINUOUS
10
97.5686
20
-64.4978
11
97.4894
21
-64.3066
0
LINE
8
BLACK
6
CONTINUOUS
10
97.4894
20
-64.3066
11
97.449
21
-64.1035
0
LINE
8
BLACK
6
CONTINUOUS
10
97.449
20
-64.1035
11
97.449
21
-63.8965
0
LINE
8
BLACK
6
CONTINUOUS
10
97.449
20
-63.8965
11
97.4894
21
-63.6934
0
LINE
8
BLACK
6
CONTINUOUS
10
97.4894
20
-63.6934
11
97.5686
21
-63.5022
0
LINE
8
BLACK
6
CONTINUOUS
10
97.5686
20
-63.5022
11
97.6836
21
-63.33
0
LINE
8
BLACK
6
CONTINUOUS
10
97.6836
20
-63.33
11
97.83
21
-63.1836
0
LINE
8
BLACK
6
CONTINUOUS
10
97.83
20
-63.1836
11
98.0022
21
-63.0686
0
LINE
8
BLACK
6
CONTINUOUS
10
98.0022
20
-63.0686
11
98.1934
21
-62.9894
0
LINE
8
BLACK
6
CONTINUOUS
10
98.1934
20
-62.9894
11
98.3965
21
-62.949
0
LINE
8
BLACK
6
CONTINUOUS
10
98.3965
20
-62.949
11
98.6035
21
-62.949
0
LINE
8
BLACK
6
CONTINUOUS
10
98.6035
20
-62.949
11
98.8066
21
-62.9894
0
LINE
8
BLACK
6
CONTINUOUS
10
92.3066
20
-62.9894
11
92.4978
21
-63.0686
0
LINE
8
BLACK
6
CONTINUOUS
10
92.4978
20
-63.0686
11
92.67
21
-63.1836
0
LINE
8
BLACK
6
CONTINUOUS
10
92.67
20
-63.1836
11
92.8164
21
-63.33
0
LINE
8
BLACK
6
CONTINUOUS
10
92.8164
20
-63.33
11
92.9314
21
-63.5022
0
LINE
8
BLACK
6
CONTINUOUS
10
92.9314
20
-63.5022
11
93.0106
21
-63.6934
0
LINE
8
BLACK
6
CONTINUOUS
10
93.0106
20
-63.6934
11
93.051
21
-63.8965
0
LINE
8
BLACK
6
CONTINUOUS
10
93.051
20
-63.8965
11
93.051
21
-64.1035
0
LINE
8
BLACK
6
CONTINUOUS
10
93.051
20
-64.1035
11
93.0106
21
-64.3066
0
LINE
8
BLACK
6
CONTINUOUS
10
93.0106
20
-64.3066
11
92.9314
21
-64.4978
0
LINE
8
BLACK
6
CONTINUOUS
10
92.9314
20
-64.4978
11
92.8164
21
-64.67
0
LINE
8
BLACK
6
CONTINUOUS
10
92.8164
20
-64.67
11
92.67
21
-64.8164
0
LINE
8
BLACK
6
CONTINUOUS
10
92.67
20
-64.8164
11
92.4978
21
-64.9314
0
LINE
8
BLACK
6
CONTINUOUS
10
92.4978
20
-64.9314
11
92.3066
21
-65.0106
0
LINE
8
BLACK
6
CONTINUOUS
10
92.3066
20
-65.0106
11
92.1035
21
-65.051
0
LINE
8
BLACK
6
CONTINUOUS
10
92.1035
20
-65.051
11
91.8965
21
-65.051
0
LINE
8
BLACK
6
CONTINUOUS
10
91.8965
20
-65.051
11
91.6934
21
-65.0106
0
LINE
8
BLACK
6
CONTINUOUS
10
91.6934
20
-65.0106
11
91.5022
21
-64.9314
0
LINE
8
BLACK
6
CONTINUOUS
10
91.5022
20
-64.9314
11
91.33
21
-64.8164
0
LINE
8
BLACK
6
CONTINUOUS
10
91.33
20
-64.8164
11
91.1836
21
-64.67
0
LINE
8
BLACK
6
CONTINUOUS
10
91.1836
20
-64.67
11
91.0686
21
-64.4978
0
LINE
8
BLACK
6
CONTINUOUS
10
91.0686
20
-64.4978
11
90.9894
21
-64.3066
0
LINE
8
BLACK
6
CONTINUOUS
10
90.9894
20
-64.3066
11
90.949
21
-64.1035
0
LINE
8
BLACK
6
CONTINUOUS
10
90.949
20
-64.1035
11
90.949
21
-63.8965
0
LINE
8
BLACK
6
CONTINUOUS
10
90.949
20
-63.8965
11
90.9894
21
-63.6934
0
LINE
8
BLACK
6
CONTINUOUS
10
90.9894
20
-63.6934
11
91.0686
21
-63.5022
0
LINE
8
BLACK
6
CONTINUOUS
10
91.0686
20
-63.5022
11
91.1836
21
-63.33
0
LINE
8
BLACK
6
CONTINUOUS
10
91.1836
20
-63.33
11
91.33
21
-63.1836
0
LINE
8
BLACK
6
CONTINUOUS
10
91.33
20
-63.1836
11
91.5022
21
-63.0686
0
LINE
8
BLACK
6
CONTINUOUS
10
91.5022
20
-63.0686
11
91.6934
21
-62.9894
0
LINE
8
BLACK
6
CONTINUOUS
10
91.6934
20
-62.9894
11
91.8965
21
-62.949
0
LINE
8
BLACK
6
CONTINUOUS
10
91.8965
20
-62.949
11
92.1035
21
-62.949
0
LINE
8
BLACK
6
CONTINUOUS
10
92.1035
20
-62.949
11
92.3066
21
-62.9894
0
LINE
8
BLACK
6
CONTINUOUS
10
83.8066
20
-62.9894
11
83.9978
21
-63.0686
0
LINE
8
BLACK
6
CONTINUOUS
10
83.9978
20
-63.0686
11
84.17
21
-63.1836
0
LINE
8
BLACK
6
CONTINUOUS
10
84.17
20
-63.1836
11
84.3164
21
-63.33
0
LINE
8
BLACK
6
CONTINUOUS
10
84.3164
20
-63.33
11
84.4314
21
-63.5022
0
LINE
8
BLACK
6
CONTINUOUS
10
84.4314
20
-63.5022
11
84.5106
21
-63.6934
0
LINE
8
BLACK
6
CONTINUOUS
10
84.5106
20
-63.6934
11
84.551
21
-63.8965
0
LINE
8
BLACK
6
CONTINUOUS
10
84.551
20
-63.8965
11
84.551
21
-64.1035
0
LINE
8
BLACK
6
CONTINUOUS
10
84.551
20
-64.1035
11
84.5106
21
-64.3066
0
LINE
8
BLACK
6
CONTINUOUS
10
84.5106
20
-64.3066
11
84.4314
21
-64.4978
0
LINE
8
BLACK
6
CONTINUOUS
10
84.4314
20
-64.4978
11
84.3164
21
-64.67
0
LINE
8
BLACK
6
CONTINUOUS
10
84.3164
20
-64.67
11
84.17
21
-64.8164
0
LINE
8
BLACK
6
CONTINUOUS
10
84.17
20
-64.8164
11
83.9978
21
-64.9314
0
LINE
8
BLACK
6
CONTINUOUS
10
83.9978
20
-64.9314
11
83.8066
21
-65.0106
0
LINE
8
BLACK
6
CONTINUOUS
10
83.8066
20
-65.0106
11
83.6035
21
-65.051
0
LINE
8
BLACK
6
CONTINUOUS
10
83.6035
20
-65.051
11
83.3965
21
-65.051
0
LINE
8
BLACK
6
CONTINUOUS
10
83.3965
20
-65.051
11
83.1934
21
-65.0106
0
LINE
8
BLACK
6
CONTINUOUS
10
83.1934
20
-65.0106
11
83.0022
21
-64.9314
0
LINE
8
BLACK
6
CONTINUOUS
10
83.0022
20
-64.9314
11
82.83
21
-64.8164
0
LINE
8
BLACK
6
CONTINUOUS
10
82.83
20
-64.8164
11
82.6836
21
-64.67
0
LINE
8
BLACK
6
CONTINUOUS
10
82.6836
20
-64.67
11
82.5686
21
-64.4978
0
LINE
8
BLACK
6
CONTINUOUS
10
82.5686
20
-64.4978
11
82.4894
21
-64.3066
0
LINE
8
BLACK
6
CONTINUOUS
10
82.4894
20
-64.3066
11
82.449
21
-64.1035
0
LINE
8
BLACK
6
CONTINUOUS
10
82.449
20
-64.1035
11
82.449
21
-63.8965
0
LINE
8
BLACK
6
CONTINUOUS
10
82.449
20
-63.8965
11
82.4894
21
-63.6934
0
LINE
8
BLACK
6
CONTINUOUS
10
82.4894
20
-63.6934
11
82.5686
21
-63.5022
0
LINE
8
BLACK
6
CONTINUOUS
10
82.5686
20
-63.5022
11
82.6836
21
-63.33
0
LINE
8
BLACK
6
CONTINUOUS
10
82.6836
20
-63.33
11
82.83
21
-63.1836
0
LINE
8
BLACK
6
CONTINUOUS
10
82.83
20
-63.1836
11
83.0022
21
-63.0686
0
LINE
8
BLACK
6
CONTINUOUS
10
83.0022
20
-63.0686
11
83.1934
21
-62.9894
0
LINE
8
BLACK
6
CONTINUOUS
10
83.1934
20
-62.9894
11
83.3965
21
-62.949
0
LINE
8
BLACK
6
CONTINUOUS
10
83.3965
20
-62.949
11
83.6035
21
-62.949
0
LINE
8
BLACK
6
CONTINUOUS
10
83.6035
20
-62.949
11
83.8066
21
-62.9894
0
LINE
8
BLACK
6
CONTINUOUS
10
108.755
20
-56.7213
11
108.862
21
-56.7424
0
LINE
8
BLACK
6
CONTINUOUS
10
108.862
20
-56.7424
11
109.162
21
-56.8669
0
LINE
8
BLACK
6
CONTINUOUS
10
109.162
20
-56.8669
11
109.313
21
-56.9676
0
LINE
8
BLACK
6
CONTINUOUS
10
109.313
20
-56.9676
11
109.432
21
-57.0476
0
LINE
8
BLACK
6
CONTINUOUS
10
109.432
20
-57.0476
11
109.662
21
-57.2775
0
LINE
8
BLACK
6
CONTINUOUS
10
109.662
20
-57.2775
11
109.662
21
-57.2775
0
LINE
8
BLACK
6
CONTINUOUS
10
109.662
20
-57.2775
11
109.79
21
-57.468
0
LINE
8
BLACK
6
CONTINUOUS
10
109.79
20
-57.468
11
109.843
21
-57.548
0
LINE
8
BLACK
6
CONTINUOUS
10
109.843
20
-57.548
11
109.968
21
-57.8484
0
LINE
8
BLACK
6
CONTINUOUS
10
109.968
20
-57.8484
11
110.031
21
-58.1674
0
LINE
8
BLACK
6
CONTINUOUS
10
110.031
20
-58.1674
11
110.031
21
-58.4926
0
LINE
8
BLACK
6
CONTINUOUS
10
110.031
20
-58.4926
11
109.968
21
-58.8116
0
LINE
8
BLACK
6
CONTINUOUS
10
109.968
20
-58.8116
11
109.843
21
-59.112
0
LINE
8
BLACK
6
CONTINUOUS
10
109.843
20
-59.112
11
109.662
21
-59.3825
0
LINE
8
BLACK
6
CONTINUOUS
10
109.662
20
-59.3825
11
109.432
21
-59.6124
0
LINE
8
BLACK
6
CONTINUOUS
10
109.432
20
-59.6124
11
109.432
21
-59.6124
0
LINE
8
BLACK
6
CONTINUOUS
10
109.432
20
-59.6124
11
109.162
21
-59.7931
0
LINE
8
BLACK
6
CONTINUOUS
10
109.162
20
-59.7931
11
108.862
21
-59.9176
0
LINE
8
BLACK
6
CONTINUOUS
10
108.862
20
-59.9176
11
108.755
21
-59.9387
0
LINE
8
BLACK
6
CONTINUOUS
10
108.755
20
-59.9387
11
108.543
21
-59.981
0
LINE
8
BLACK
6
CONTINUOUS
10
108.543
20
-59.981
11
108.217
21
-59.981
0
LINE
8
BLACK
6
CONTINUOUS
10
108.217
20
-59.981
11
108.005
21
-59.9387
0
LINE
8
BLACK
6
CONTINUOUS
10
108.005
20
-59.9387
11
107.898
21
-59.9176
0
LINE
8
BLACK
6
CONTINUOUS
10
107.898
20
-59.9176
11
107.598
21
-59.7931
0
LINE
8
BLACK
6
CONTINUOUS
10
107.598
20
-59.7931
11
107.328
21
-59.6124
0
LINE
8
BLACK
6
CONTINUOUS
10
107.328
20
-59.6124
11
107.328
21
-59.6124
0
LINE
8
BLACK
6
CONTINUOUS
10
107.328
20
-59.6124
11
107.098
21
-59.3825
0
LINE
8
BLACK
6
CONTINUOUS
10
107.098
20
-59.3825
11
106.917
21
-59.112
0
LINE
8
BLACK
6
CONTINUOUS
10
106.917
20
-59.112
11
106.792
21
-58.8116
0
LINE
8
BLACK
6
CONTINUOUS
10
106.792
20
-58.8116
11
106.729
21
-58.4926
0
LINE
8
BLACK
6
CONTINUOUS
10
106.729
20
-58.4926
11
106.729
21
-58.1674
0
LINE
8
BLACK
6
CONTINUOUS
10
106.729
20
-58.1674
11
106.792
21
-57.8484
0
LINE
8
BLACK
6
CONTINUOUS
10
106.792
20
-57.8484
11
106.917
21
-57.548
0
LINE
8
BLACK
6
CONTINUOUS
10
106.917
20
-57.548
11
106.97
21
-57.468
0
LINE
8
BLACK
6
CONTINUOUS
10
106.97
20
-57.468
11
107.098
21
-57.2775
0
LINE
8
BLACK
6
CONTINUOUS
10
107.098
20
-57.2775
11
107.098
21
-57.2775
0
LINE
8
BLACK
6
CONTINUOUS
10
107.098
20
-57.2775
11
107.328
21
-57.0476
0
LINE
8
BLACK
6
CONTINUOUS
10
107.328
20
-57.0476
11
107.447
21
-56.9676
0
LINE
8
BLACK
6
CONTINUOUS
10
107.447
20
-56.9676
11
107.598
21
-56.8669
0
LINE
8
BLACK
6
CONTINUOUS
10
107.598
20
-56.8669
11
107.898
21
-56.7424
0
LINE
8
BLACK
6
CONTINUOUS
10
107.898
20
-56.7424
11
108.005
21
-56.7213
0
LINE
8
BLACK
6
CONTINUOUS
10
108.005
20
-56.7213
11
108.217
21
-56.679
0
LINE
8
BLACK
6
CONTINUOUS
10
108.217
20
-56.679
11
108.543
21
-56.679
0
LINE
8
BLACK
6
CONTINUOUS
10
108.543
20
-56.679
11
108.755
21
-56.7213
0
LINE
8
BLACK
6
CONTINUOUS
10
83.7653
20
-56.6413
11
83.8716
21
-56.6624
0
LINE
8
BLACK
6
CONTINUOUS
10
83.8716
20
-56.6624
11
84.172
21
-56.7869
0
LINE
8
BLACK
6
CONTINUOUS
10
84.172
20
-56.7869
11
84.2918
21
-56.8669
0
LINE
8
BLACK
6
CONTINUOUS
10
84.2918
20
-56.8669
11
84.4425
21
-56.9676
0
LINE
8
BLACK
6
CONTINUOUS
10
84.4425
20
-56.9676
11
84.6724
21
-57.1975
0
LINE
8
BLACK
6
CONTINUOUS
10
84.6724
20
-57.1975
11
84.6724
21
-57.1975
0
LINE
8
BLACK
6
CONTINUOUS
10
84.6724
20
-57.1975
11
84.8531
21
-57.468
0
LINE
8
BLACK
6
CONTINUOUS
10
84.8531
20
-57.468
11
84.9776
21
-57.7684
0
LINE
8
BLACK
6
CONTINUOUS
10
84.9776
20
-57.7684
11
85.041
21
-58.0874
0
LINE
8
BLACK
6
CONTINUOUS
10
85.041
20
-58.0874
11
85.041
21
-58.4126
0
LINE
8
BLACK
6
CONTINUOUS
10
85.041
20
-58.4126
11
84.9776
21
-58.7316
0
LINE
8
BLACK
6
CONTINUOUS
10
84.9776
20
-58.7316
11
84.8531
21
-59.032
0
LINE
8
BLACK
6
CONTINUOUS
10
84.8531
20
-59.032
11
84.6748
21
-59.2989
0
LINE
8
BLACK
6
CONTINUOUS
10
84.6748
20
-59.2989
11
84.6724
21
-59.3025
0
LINE
8
BLACK
6
CONTINUOUS
10
84.6724
20
-59.3025
11
84.4425
21
-59.5324
0
LINE
8
BLACK
6
CONTINUOUS
10
84.4425
20
-59.5324
11
84.4425
21
-59.5324
0
LINE
8
BLACK
6
CONTINUOUS
10
84.4425
20
-59.5324
11
84.172
21
-59.7131
0
LINE
8
BLACK
6
CONTINUOUS
10
84.172
20
-59.7131
11
83.8716
21
-59.8376
0
LINE
8
BLACK
6
CONTINUOUS
10
83.8716
20
-59.8376
11
83.7653
21
-59.8587
0
LINE
8
BLACK
6
CONTINUOUS
10
83.7653
20
-59.8587
11
83.5526
21
-59.901
0
LINE
8
BLACK
6
CONTINUOUS
10
83.5526
20
-59.901
11
83.2274
21
-59.901
0
LINE
8
BLACK
6
CONTINUOUS
10
83.2274
20
-59.901
11
83.0147
21
-59.8587
0
LINE
8
BLACK
6
CONTINUOUS
10
83.0147
20
-59.8587
11
82.9084
21
-59.8376
0
LINE
8
BLACK
6
CONTINUOUS
10
82.9084
20
-59.8376
11
82.608
21
-59.7131
0
LINE
8
BLACK
6
CONTINUOUS
10
82.608
20
-59.7131
11
82.3375
21
-59.5324
0
LINE
8
BLACK
6
CONTINUOUS
10
82.3375
20
-59.5324
11
82.3375
21
-59.5324
0
LINE
8
BLACK
6
CONTINUOUS
10
82.3375
20
-59.5324
11
82.1076
21
-59.3025
0
LINE
8
BLACK
6
CONTINUOUS
10
82.1076
20
-59.3025
11
82.1052
21
-59.2989
0
LINE
8
BLACK
6
CONTINUOUS
10
82.1052
20
-59.2989
11
81.9269
21
-59.032
0
LINE
8
BLACK
6
CONTINUOUS
10
81.9269
20
-59.032
11
81.8024
21
-58.7316
0
LINE
8
BLACK
6
CONTINUOUS
10
81.8024
20
-58.7316
11
81.739
21
-58.4126
0
LINE
8
BLACK
6
CONTINUOUS
10
81.739
20
-58.4126
11
81.739
21
-58.0874
0
LINE
8
BLACK
6
CONTINUOUS
10
81.739
20
-58.0874
11
81.8024
21
-57.7684
0
LINE
8
BLACK
6
CONTINUOUS
10
81.8024
20
-57.7684
11
81.9269
21
-57.468
0
LINE
8
BLACK
6
CONTINUOUS
10
81.9269
20
-57.468
11
82.1076
21
-57.1975
0
LINE
8
BLACK
6
CONTINUOUS
10
82.1076
20
-57.1975
11
82.1076
21
-57.1975
0
LINE
8
BLACK
6
CONTINUOUS
10
82.1076
20
-57.1975
11
82.3375
21
-56.9676
0
LINE
8
BLACK
6
CONTINUOUS
10
82.3375
20
-56.9676
11
82.4882
21
-56.8669
0
LINE
8
BLACK
6
CONTINUOUS
10
82.4882
20
-56.8669
11
82.608
21
-56.7869
0
LINE
8
BLACK
6
CONTINUOUS
10
82.608
20
-56.7869
11
82.9084
21
-56.6624
0
LINE
8
BLACK
6
CONTINUOUS
10
82.9084
20
-56.6624
11
83.0147
21
-56.6413
0
LINE
8
BLACK
6
CONTINUOUS
10
83.0147
20
-56.6413
11
83.2274
21
-56.599
0
LINE
8
BLACK
6
CONTINUOUS
10
83.2274
20
-56.599
11
83.5526
21
-56.599
0
LINE
8
BLACK
6
CONTINUOUS
10
83.5526
20
-56.599
11
83.7653
21
-56.6413
0
LINE
8
BLACK
6
CONTINUOUS
10
83.8066
20
-52.4894
11
83.9978
21
-52.5686
0
LINE
8
BLACK
6
CONTINUOUS
10
83.9978
20
-52.5686
11
84.17
21
-52.6836
0
LINE
8
BLACK
6
CONTINUOUS
10
84.17
20
-52.6836
11
84.3164
21
-52.83
0
LINE
8
BLACK
6
CONTINUOUS
10
84.3164
20
-52.83
11
84.4314
21
-53.0022
0
LINE
8
BLACK
6
CONTINUOUS
10
84.4314
20
-53.0022
11
84.5106
21
-53.1934
0
LINE
8
BLACK
6
CONTINUOUS
10
84.5106
20
-53.1934
11
84.551
21
-53.3965
0
LINE
8
BLACK
6
CONTINUOUS
10
84.551
20
-53.3965
11
84.551
21
-53.6035
0
LINE
8
BLACK
6
CONTINUOUS
10
84.551
20
-53.6035
11
84.5106
21
-53.8066
0
LINE
8
BLACK
6
CONTINUOUS
10
84.5106
20
-53.8066
11
84.4314
21
-53.9978
0
LINE
8
BLACK
6
CONTINUOUS
10
84.4314
20
-53.9978
11
84.3164
21
-54.17
0
LINE
8
BLACK
6
CONTINUOUS
10
84.3164
20
-54.17
11
84.17
21
-54.3164
0
LINE
8
BLACK
6
CONTINUOUS
10
84.17
20
-54.3164
11
83.9978
21
-54.4314
0
LINE
8
BLACK
6
CONTINUOUS
10
83.9978
20
-54.4314
11
83.8066
21
-54.5106
0
LINE
8
BLACK
6
CONTINUOUS
10
83.8066
20
-54.5106
11
83.6035
21
-54.551
0
LINE
8
BLACK
6
CONTINUOUS
10
83.6035
20
-54.551
11
83.3965
21
-54.551
0
LINE
8
BLACK
6
CONTINUOUS
10
83.3965
20
-54.551
11
83.1934
21
-54.5106
0
LINE
8
BLACK
6
CONTINUOUS
10
83.1934
20
-54.5106
11
83.0022
21
-54.4314
0
LINE
8
BLACK
6
CONTINUOUS
10
83.0022
20
-54.4314
11
82.83
21
-54.3164
0
LINE
8
BLACK
6
CONTINUOUS
10
82.83
20
-54.3164
11
82.6836
21
-54.17
0
LINE
8
BLACK
6
CONTINUOUS
10
82.6836
20
-54.17
11
82.5686
21
-53.9978
0
LINE
8
BLACK
6
CONTINUOUS
10
82.5686
20
-53.9978
11
82.4894
21
-53.8066
0
LINE
8
BLACK
6
CONTINUOUS
10
82.4894
20
-53.8066
11
82.449
21
-53.6035
0
LINE
8
BLACK
6
CONTINUOUS
10
82.449
20
-53.6035
11
82.449
21
-53.3965
0
LINE
8
BLACK
6
CONTINUOUS
10
82.449
20
-53.3965
11
82.4894
21
-53.1934
0
LINE
8
BLACK
6
CONTINUOUS
10
82.4894
20
-53.1934
11
82.5686
21
-53.0022
0
LINE
8
BLACK
6
CONTINUOUS
10
82.5686
20
-53.0022
11
82.6836
21
-52.83
0
LINE
8
BLACK
6
CONTINUOUS
10
82.6836
20
-52.83
11
82.83
21
-52.6836
0
LINE
8
BLACK
6
CONTINUOUS
10
82.83
20
-52.6836
11
83.0022
21
-52.5686
0
LINE
8
BLACK
6
CONTINUOUS
10
83.0022
20
-52.5686
11
83.1934
21
-52.4894
0
LINE
8
BLACK
6
CONTINUOUS
10
83.1934
20
-52.4894
11
83.3965
21
-52.449
0
LINE
8
BLACK
6
CONTINUOUS
10
83.3965
20
-52.449
11
83.6035
21
-52.449
0
LINE
8
BLACK
6
CONTINUOUS
10
83.6035
20
-52.449
11
83.8066
21
-52.4894
0
LINE
8
BLACK
6
CONTINUOUS
10
77.3066
20
-52.4894
11
77.4978
21
-52.5686
0
LINE
8
BLACK
6
CONTINUOUS
10
77.4978
20
-52.5686
11
77.67
21
-52.6836
0
LINE
8
BLACK
6
CONTINUOUS
10
77.67
20
-52.6836
11
77.8164
21
-52.83
0
LINE
8
BLACK
6
CONTINUOUS
10
77.8164
20
-52.83
11
77.9314
21
-53.0022
0
LINE
8
BLACK
6
CONTINUOUS
10
77.9314
20
-53.0022
11
78.0106
21
-53.1934
0
LINE
8
BLACK
6
CONTINUOUS
10
78.0106
20
-53.1934
11
78.051
21
-53.3965
0
LINE
8
BLACK
6
CONTINUOUS
10
78.051
20
-53.3965
11
78.051
21
-53.6035
0
LINE
8
BLACK
6
CONTINUOUS
10
78.051
20
-53.6035
11
78.0106
21
-53.8066
0
LINE
8
BLACK
6
CONTINUOUS
10
78.0106
20
-53.8066
11
77.9314
21
-53.9978
0
LINE
8
BLACK
6
CONTINUOUS
10
77.9314
20
-53.9978
11
77.8164
21
-54.17
0
LINE
8
BLACK
6
CONTINUOUS
10
77.8164
20
-54.17
11
77.67
21
-54.3164
0
LINE
8
BLACK
6
CONTINUOUS
10
77.67
20
-54.3164
11
77.4978
21
-54.4314
0
LINE
8
BLACK
6
CONTINUOUS
10
77.4978
20
-54.4314
11
77.3066
21
-54.5106
0
LINE
8
BLACK
6
CONTINUOUS
10
77.3066
20
-54.5106
11
77.1035
21
-54.551
0
LINE
8
BLACK
6
CONTINUOUS
10
77.1035
20
-54.551
11
76.8965
21
-54.551
0
LINE
8
BLACK
6
CONTINUOUS
10
76.8965
20
-54.551
11
76.6934
21
-54.5106
0
LINE
8
BLACK
6
CONTINUOUS
10
76.6934
20
-54.5106
11
76.5022
21
-54.4314
0
LINE
8
BLACK
6
CONTINUOUS
10
76.5022
20
-54.4314
11
76.33
21
-54.3164
0
LINE
8
BLACK
6
CONTINUOUS
10
76.33
20
-54.3164
11
76.1836
21
-54.17
0
LINE
8
BLACK
6
CONTINUOUS
10
76.1836
20
-54.17
11
76.0686
21
-53.9978
0
LINE
8
BLACK
6
CONTINUOUS
10
76.0686
20
-53.9978
11
75.9894
21
-53.8066
0
LINE
8
BLACK
6
CONTINUOUS
10
75.9894
20
-53.8066
11
75.949
21
-53.6035
0
LINE
8
BLACK
6
CONTINUOUS
10
75.949
20
-53.6035
11
75.949
21
-53.3965
0
LINE
8
BLACK
6
CONTINUOUS
10
75.949
20
-53.3965
11
75.9894
21
-53.1934
0
LINE
8
BLACK
6
CONTINUOUS
10
75.9894
20
-53.1934
11
76.0686
21
-53.0022
0
LINE
8
BLACK
6
CONTINUOUS
10
76.0686
20
-53.0022
11
76.1836
21
-52.83
0
LINE
8
BLACK
6
CONTINUOUS
10
76.1836
20
-52.83
11
76.33
21
-52.6836
0
LINE
8
BLACK
6
CONTINUOUS
10
76.33
20
-52.6836
11
76.5022
21
-52.5686
0
LINE
8
BLACK
6
CONTINUOUS
10
76.5022
20
-52.5686
11
76.6934
21
-52.4894
0
LINE
8
BLACK
6
CONTINUOUS
10
76.6934
20
-52.4894
11
76.8965
21
-52.449
0
LINE
8
BLACK
6
CONTINUOUS
10
76.8965
20
-52.449
11
77.1035
21
-52.449
0
LINE
8
BLACK
6
CONTINUOUS
10
77.1035
20
-52.449
11
77.3066
21
-52.4894
0
LINE
8
BLACK
6
CONTINUOUS
10
112.807
20
-52.4894
11
112.998
21
-52.5686
0
LINE
8
BLACK
6
CONTINUOUS
10
112.998
20
-52.5686
11
113.17
21
-52.6836
0
LINE
8
BLACK
6
CONTINUOUS
10
113.17
20
-52.6836
11
113.316
21
-52.83
0
LINE
8
BLACK
6
CONTINUOUS
10
113.316
20
-52.83
11
113.431
21
-53.0022
0
LINE
8
BLACK
6
CONTINUOUS
10
113.431
20
-53.0022
11
113.511
21
-53.1934
0
LINE
8
BLACK
6
CONTINUOUS
10
113.511
20
-53.1934
11
113.551
21
-53.3965
0
LINE
8
BLACK
6
CONTINUOUS
10
113.551
20
-53.3965
11
113.551
21
-53.6035
0
LINE
8
BLACK
6
CONTINUOUS
10
113.551
20
-53.6035
11
113.511
21
-53.8066
0
LINE
8
BLACK
6
CONTINUOUS
10
113.511
20
-53.8066
11
113.431
21
-53.9978
0
LINE
8
BLACK
6
CONTINUOUS
10
113.431
20
-53.9978
11
113.316
21
-54.17
0
LINE
8
BLACK
6
CONTINUOUS
10
113.316
20
-54.17
11
113.17
21
-54.3164
0
LINE
8
BLACK
6
CONTINUOUS
10
113.17
20
-54.3164
11
112.998
21
-54.4314
0
LINE
8
BLACK
6
CONTINUOUS
10
112.998
20
-54.4314
11
112.807
21
-54.5106
0
LINE
8
BLACK
6
CONTINUOUS
10
112.807
20
-54.5106
11
112.604
21
-54.551
0
LINE
8
BLACK
6
CONTINUOUS
10
112.604
20
-54.551
11
112.396
21
-54.551
0
LINE
8
BLACK
6
CONTINUOUS
10
112.396
20
-54.551
11
112.193
21
-54.5106
0
LINE
8
BLACK
6
CONTINUOUS
10
112.193
20
-54.5106
11
112.002
21
-54.4314
0
LINE
8
BLACK
6
CONTINUOUS
10
112.002
20
-54.4314
11
111.83
21
-54.3164
0
LINE
8
BLACK
6
CONTINUOUS
10
111.83
20
-54.3164
11
111.684
21
-54.17
0
LINE
8
BLACK
6
CONTINUOUS
10
111.684
20
-54.17
11
111.569
21
-53.9978
0
LINE
8
BLACK
6
CONTINUOUS
10
111.569
20
-53.9978
11
111.489
21
-53.8066
0
LINE
8
BLACK
6
CONTINUOUS
10
111.489
20
-53.8066
11
111.449
21
-53.6035
0
LINE
8
BLACK
6
CONTINUOUS
10
111.449
20
-53.6035
11
111.449
21
-53.3965
0
LINE
8
BLACK
6
CONTINUOUS
10
111.449
20
-53.3965
11
111.489
21
-53.1934
0
LINE
8
BLACK
6
CONTINUOUS
10
111.489
20
-53.1934
11
111.569
21
-53.0022
0
LINE
8
BLACK
6
CONTINUOUS
10
111.569
20
-53.0022
11
111.684
21
-52.83
0
LINE
8
BLACK
6
CONTINUOUS
10
111.684
20
-52.83
11
111.83
21
-52.6836
0
LINE
8
BLACK
6
CONTINUOUS
10
111.83
20
-52.6836
11
112.002
21
-52.5686
0
LINE
8
BLACK
6
CONTINUOUS
10
112.002
20
-52.5686
11
112.193
21
-52.4894
0
LINE
8
BLACK
6
CONTINUOUS
10
112.193
20
-52.4894
11
112.396
21
-52.449
0
LINE
8
BLACK
6
CONTINUOUS
10
112.396
20
-52.449
11
112.604
21
-52.449
0
LINE
8
BLACK
6
CONTINUOUS
10
112.604
20
-52.449
11
112.807
21
-52.4894
0
LINE
8
BLACK
6
CONTINUOUS
10
92.3066
20
-52.4894
11
92.4978
21
-52.5686
0
LINE
8
BLACK
6
CONTINUOUS
10
92.4978
20
-52.5686
11
92.67
21
-52.6836
0
LINE
8
BLACK
6
CONTINUOUS
10
92.67
20
-52.6836
11
92.8164
21
-52.83
0
LINE
8
BLACK
6
CONTINUOUS
10
92.8164
20
-52.83
11
92.9314
21
-53.0022
0
LINE
8
BLACK
6
CONTINUOUS
10
92.9314
20
-53.0022
11
93.0106
21
-53.1934
0
LINE
8
BLACK
6
CONTINUOUS
10
93.0106
20
-53.1934
11
93.051
21
-53.3965
0
LINE
8
BLACK
6
CONTINUOUS
10
93.051
20
-53.3965
11
93.051
21
-53.6035
0
LINE
8
BLACK
6
CONTINUOUS
10
93.051
20
-53.6035
11
93.0106
21
-53.8066
0
LINE
8
BLACK
6
CONTINUOUS
10
93.0106
20
-53.8066
11
92.9314
21
-53.9978
0
LINE
8
BLACK
6
CONTINUOUS
10
92.9314
20
-53.9978
11
92.8164
21
-54.17
0
LINE
8
BLACK
6
CONTINUOUS
10
92.8164
20
-54.17
11
92.67
21
-54.3164
0
LINE
8
BLACK
6
CONTINUOUS
10
92.67
20
-54.3164
11
92.4978
21
-54.4314
0
LINE
8
BLACK
6
CONTINUOUS
10
92.4978
20
-54.4314
11
92.3066
21
-54.5106
0
LINE
8
BLACK
6
CONTINUOUS
10
92.3066
20
-54.5106
11
92.1035
21
-54.551
0
LINE
8
BLACK
6
CONTINUOUS
10
92.1035
20
-54.551
11
91.8965
21
-54.551
0
LINE
8
BLACK
6
CONTINUOUS
10
91.8965
20
-54.551
11
91.6934
21
-54.5106
0
LINE
8
BLACK
6
CONTINUOUS
10
91.6934
20
-54.5106
11
91.5022
21
-54.4314
0
LINE
8
BLACK
6
CONTINUOUS
10
91.5022
20
-54.4314
11
91.33
21
-54.3164
0
LINE
8
BLACK
6
CONTINUOUS
10
91.33
20
-54.3164
11
91.1836
21
-54.17
0
LINE
8
BLACK
6
CONTINUOUS
10
91.1836
20
-54.17
11
91.0686
21
-53.9978
0
LINE
8
BLACK
6
CONTINUOUS
10
91.0686
20
-53.9978
11
90.9894
21
-53.8066
0
LINE
8
BLACK
6
CONTINUOUS
10
90.9894
20
-53.8066
11
90.949
21
-53.6035
0
LINE
8
BLACK
6
CONTINUOUS
10
90.949
20
-53.6035
11
90.949
21
-53.3965
0
LINE
8
BLACK
6
CONTINUOUS
10
90.949
20
-53.3965
11
90.9894
21
-53.1934
0
LINE
8
BLACK
6
CONTINUOUS
10
90.9894
20
-53.1934
11
91.0686
21
-53.0022
0
LINE
8
BLACK
6
CONTINUOUS
10
91.0686
20
-53.0022
11
91.1836
21
-52.83
0
LINE
8
BLACK
6
CONTINUOUS
10
91.1836
20
-52.83
11
91.33
21
-52.6836
0
LINE
8
BLACK
6
CONTINUOUS
10
91.33
20
-52.6836
11
91.5022
21
-52.5686
0
LINE
8
BLACK
6
CONTINUOUS
10
91.5022
20
-52.5686
11
91.6934
21
-52.4894
0
LINE
8
BLACK
6
CONTINUOUS
10
91.6934
20
-52.4894
11
91.8965
21
-52.449
0
LINE
8
BLACK
6
CONTINUOUS
10
91.8965
20
-52.449
11
92.1035
21
-52.449
0
LINE
8
BLACK
6
CONTINUOUS
10
92.1035
20
-52.449
11
92.3066
21
-52.4894
0
LINE
8
BLACK
6
CONTINUOUS
10
106.307
20
-52.4894
11
106.498
21
-52.5686
0
LINE
8
BLACK
6
CONTINUOUS
10
106.498
20
-52.5686
11
106.67
21
-52.6836
0
LINE
8
BLACK
6
CONTINUOUS
10
106.67
20
-52.6836
11
106.816
21
-52.83
0
LINE
8
BLACK
6
CONTINUOUS
10
106.816
20
-52.83
11
106.931
21
-53.0022
0
LINE
8
BLACK
6
CONTINUOUS
10
106.931
20
-53.0022
11
107.011
21
-53.1934
0
LINE
8
BLACK
6
CONTINUOUS
10
107.011
20
-53.1934
11
107.051
21
-53.3965
0
LINE
8
BLACK
6
CONTINUOUS
10
107.051
20
-53.3965
11
107.051
21
-53.6035
0
LINE
8
BLACK
6
CONTINUOUS
10
107.051
20
-53.6035
11
107.011
21
-53.8066
0
LINE
8
BLACK
6
CONTINUOUS
10
107.011
20
-53.8066
11
106.931
21
-53.9978
0
LINE
8
BLACK
6
CONTINUOUS
10
106.931
20
-53.9978
11
106.816
21
-54.17
0
LINE
8
BLACK
6
CONTINUOUS
10
106.816
20
-54.17
11
106.67
21
-54.3164
0
LINE
8
BLACK
6
CONTINUOUS
10
106.67
20
-54.3164
11
106.498
21
-54.4314
0
LINE
8
BLACK
6
CONTINUOUS
10
106.498
20
-54.4314
11
106.307
21
-54.5106
0
LINE
8
BLACK
6
CONTINUOUS
10
106.307
20
-54.5106
11
106.104
21
-54.551
0
LINE
8
BLACK
6
CONTINUOUS
10
106.104
20
-54.551
11
105.896
21
-54.551
0
LINE
8
BLACK
6
CONTINUOUS
10
105.896
20
-54.551
11
105.693
21
-54.5106
0
LINE
8
BLACK
6
CONTINUOUS
10
105.693
20
-54.5106
11
105.502
21
-54.4314
0
LINE
8
BLACK
6
CONTINUOUS
10
105.502
20
-54.4314
11
105.33
21
-54.3164
0
LINE
8
BLACK
6
CONTINUOUS
10
105.33
20
-54.3164
11
105.184
21
-54.17
0
LINE
8
BLACK
6
CONTINUOUS
10
105.184
20
-54.17
11
105.069
21
-53.9978
0
LINE
8
BLACK
6
CONTINUOUS
10
105.069
20
-53.9978
11
104.989
21
-53.8066
0
LINE
8
BLACK
6
CONTINUOUS
10
104.989
20
-53.8066
11
104.949
21
-53.6035
0
LINE
8
BLACK
6
CONTINUOUS
10
104.949
20
-53.6035
11
104.949
21
-53.3965
0
LINE
8
BLACK
6
CONTINUOUS
10
104.949
20
-53.3965
11
104.989
21
-53.1934
0
LINE
8
BLACK
6
CONTINUOUS
10
104.989
20
-53.1934
11
105.069
21
-53.0022
0
LINE
8
BLACK
6
CONTINUOUS
10
105.069
20
-53.0022
11
105.184
21
-52.83
0
LINE
8
BLACK
6
CONTINUOUS
10
105.184
20
-52.83
11
105.33
21
-52.6836
0
LINE
8
BLACK
6
CONTINUOUS
10
105.33
20
-52.6836
11
105.502
21
-52.5686
0
LINE
8
BLACK
6
CONTINUOUS
10
105.502
20
-52.5686
11
105.693
21
-52.4894
0
LINE
8
BLACK
6
CONTINUOUS
10
105.693
20
-52.4894
11
105.896
21
-52.449
0
LINE
8
BLACK
6
CONTINUOUS
10
105.896
20
-52.449
11
106.104
21
-52.449
0
LINE
8
BLACK
6
CONTINUOUS
10
106.104
20
-52.449
11
106.307
21
-52.4894
0
LINE
8
BLACK
6
CONTINUOUS
10
98.8066
20
-52.4894
11
98.9978
21
-52.5686
0
LINE
8
BLACK
6
CONTINUOUS
10
98.9978
20
-52.5686
11
99.17
21
-52.6836
0
LINE
8
BLACK
6
CONTINUOUS
10
99.17
20
-52.6836
11
99.3164
21
-52.83
0
LINE
8
BLACK
6
CONTINUOUS
10
99.3164
20
-52.83
11
99.4314
21
-53.0022
0
LINE
8
BLACK
6
CONTINUOUS
10
99.4314
20
-53.0022
11
99.5106
21
-53.1934
0
LINE
8
BLACK
6
CONTINUOUS
10
99.5106
20
-53.1934
11
99.551
21
-53.3965
0
LINE
8
BLACK
6
CONTINUOUS
10
99.551
20
-53.3965
11
99.551
21
-53.6035
0
LINE
8
BLACK
6
CONTINUOUS
10
99.551
20
-53.6035
11
99.5106
21
-53.8066
0
LINE
8
BLACK
6
CONTINUOUS
10
99.5106
20
-53.8066
11
99.4314
21
-53.9978
0
LINE
8
BLACK
6
CONTINUOUS
10
99.4314
20
-53.9978
11
99.3164
21
-54.17
0
LINE
8
BLACK
6
CONTINUOUS
10
99.3164
20
-54.17
11
99.17
21
-54.3164
0
LINE
8
BLACK
6
CONTINUOUS
10
99.17
20
-54.3164
11
98.9978
21
-54.4314
0
LINE
8
BLACK
6
CONTINUOUS
10
98.9978
20
-54.4314
11
98.8066
21
-54.5106
0
LINE
8
BLACK
6
CONTINUOUS
10
98.8066
20
-54.5106
11
98.6035
21
-54.551
0
LINE
8
BLACK
6
CONTINUOUS
10
98.6035
20
-54.551
11
98.3965
21
-54.551
0
LINE
8
BLACK
6
CONTINUOUS
10
98.3965
20
-54.551
11
98.1934
21
-54.5106
0
LINE
8
BLACK
6
CONTINUOUS
10
98.1934
20
-54.5106
11
98.0022
21
-54.4314
0
LINE
8
BLACK
6
CONTINUOUS
10
98.0022
20
-54.4314
11
97.83
21
-54.3164
0
LINE
8
BLACK
6
CONTINUOUS
10
97.83
20
-54.3164
11
97.6836
21
-54.17
0
LINE
8
BLACK
6
CONTINUOUS
10
97.6836
20
-54.17
11
97.5686
21
-53.9978
0
LINE
8
BLACK
6
CONTINUOUS
10
97.5686
20
-53.9978
11
97.4894
21
-53.8066
0
LINE
8
BLACK
6
CONTINUOUS
10
97.4894
20
-53.8066
11
97.449
21
-53.6035
0
LINE
8
BLACK
6
CONTINUOUS
10
97.449
20
-53.6035
11
97.449
21
-53.3965
0
LINE
8
BLACK
6
CONTINUOUS
10
97.449
20
-53.3965
11
97.4894
21
-53.1934
0
LINE
8
BLACK
6
CONTINUOUS
10
97.4894
20
-53.1934
11
97.5686
21
-53.0022
0
LINE
8
BLACK
6
CONTINUOUS
10
97.5686
20
-53.0022
11
97.6836
21
-52.83
0
LINE
8
BLACK
6
CONTINUOUS
10
97.6836
20
-52.83
11
97.83
21
-52.6836
0
LINE
8
BLACK
6
CONTINUOUS
10
97.83
20
-52.6836
11
98.0022
21
-52.5686
0
LINE
8
BLACK
6
CONTINUOUS
10
98.0022
20
-52.5686
11
98.1934
21
-52.4894
0
LINE
8
BLACK
6
CONTINUOUS
10
98.1934
20
-52.4894
11
98.3965
21
-52.449
0
LINE
8
BLACK
6
CONTINUOUS
10
98.3965
20
-52.449
11
98.6035
21
-52.449
0
LINE
8
BLACK
6
CONTINUOUS
10
98.6035
20
-52.449
11
98.8066
21
-52.4894
0
LINE
8
BLACK
6
CONTINUOUS
10
112.807
20
-47.9894
11
112.998
21
-48.0686
0
LINE
8
BLACK
6
CONTINUOUS
10
112.998
20
-48.0686
11
113.17
21
-48.1836
0
LINE
8
BLACK
6
CONTINUOUS
10
113.17
20
-48.1836
11
113.316
21
-48.33
0
LINE
8
BLACK
6
CONTINUOUS
10
113.316
20
-48.33
11
113.431
21
-48.5022
0
LINE
8
BLACK
6
CONTINUOUS
10
113.431
20
-48.5022
11
113.511
21
-48.6934
0
LINE
8
BLACK
6
CONTINUOUS
10
113.511
20
-48.6934
11
113.551
21
-48.8965
0
LINE
8
BLACK
6
CONTINUOUS
10
113.551
20
-48.8965
11
113.551
21
-49.1035
0
LINE
8
BLACK
6
CONTINUOUS
10
113.551
20
-49.1035
11
113.511
21
-49.3066
0
LINE
8
BLACK
6
CONTINUOUS
10
113.511
20
-49.3066
11
113.431
21
-49.4978
0
LINE
8
BLACK
6
CONTINUOUS
10
113.431
20
-49.4978
11
113.316
21
-49.67
0
LINE
8
BLACK
6
CONTINUOUS
10
113.316
20
-49.67
11
113.17
21
-49.8164
0
LINE
8
BLACK
6
CONTINUOUS
10
113.17
20
-49.8164
11
112.998
21
-49.9314
0
LINE
8
BLACK
6
CONTINUOUS
10
112.998
20
-49.9314
11
112.807
21
-50.0106
0
LINE
8
BLACK
6
CONTINUOUS
10
112.807
20
-50.0106
11
112.604
21
-50.051
0
LINE
8
BLACK
6
CONTINUOUS
10
112.604
20
-50.051
11
112.396
21
-50.051
0
LINE
8
BLACK
6
CONTINUOUS
10
112.396
20
-50.051
11
112.193
21
-50.0106
0
LINE
8
BLACK
6
CONTINUOUS
10
112.193
20
-50.0106
11
112.002
21
-49.9314
0
LINE
8
BLACK
6
CONTINUOUS
10
112.002
20
-49.9314
11
111.83
21
-49.8164
0
LINE
8
BLACK
6
CONTINUOUS
10
111.83
20
-49.8164
11
111.684
21
-49.67
0
LINE
8
BLACK
6
CONTINUOUS
10
111.684
20
-49.67
11
111.569
21
-49.4978
0
LINE
8
BLACK
6
CONTINUOUS
10
111.569
20
-49.4978
11
111.489
21
-49.3066
0
LINE
8
BLACK
6
CONTINUOUS
10
111.489
20
-49.3066
11
111.449
21
-49.1035
0
LINE
8
BLACK
6
CONTINUOUS
10
111.449
20
-49.1035
11
111.449
21
-48.8965
0
LINE
8
BLACK
6
CONTINUOUS
10
111.449
20
-48.8965
11
111.489
21
-48.6934
0
LINE
8
BLACK
6
CONTINUOUS
10
111.489
20
-48.6934
11
111.569
21
-48.5022
0
LINE
8
BLACK
6
CONTINUOUS
10
111.569
20
-48.5022
11
111.684
21
-48.33
0
LINE
8
BLACK
6
CONTINUOUS
10
111.684
20
-48.33
11
111.83
21
-48.1836
0
LINE
8
BLACK
6
CONTINUOUS
10
111.83
20
-48.1836
11
112.002
21
-48.0686
0
LINE
8
BLACK
6
CONTINUOUS
10
112.002
20
-48.0686
11
112.193
21
-47.9894
0
LINE
8
BLACK
6
CONTINUOUS
10
112.193
20
-47.9894
11
112.396
21
-47.949
0
LINE
8
BLACK
6
CONTINUOUS
10
112.396
20
-47.949
11
112.604
21
-47.949
0
LINE
8
BLACK
6
CONTINUOUS
10
112.604
20
-47.949
11
112.807
21
-47.9894
0
LINE
8
BLACK
6
CONTINUOUS
10
77.3066
20
-47.9894
11
77.4978
21
-48.0686
0
LINE
8
BLACK
6
CONTINUOUS
10
77.4978
20
-48.0686
11
77.67
21
-48.1836
0
LINE
8
BLACK
6
CONTINUOUS
10
77.67
20
-48.1836
11
77.8164
21
-48.33
0
LINE
8
BLACK
6
CONTINUOUS
10
77.8164
20
-48.33
11
77.9314
21
-48.5022
0
LINE
8
BLACK
6
CONTINUOUS
10
77.9314
20
-48.5022
11
78.0106
21
-48.6934
0
LINE
8
BLACK
6
CONTINUOUS
10
78.0106
20
-48.6934
11
78.051
21
-48.8965
0
LINE
8
BLACK
6
CONTINUOUS
10
78.051
20
-48.8965
11
78.051
21
-49.1035
0
LINE
8
BLACK
6
CONTINUOUS
10
78.051
20
-49.1035
11
78.0106
21
-49.3066
0
LINE
8
BLACK
6
CONTINUOUS
10
78.0106
20
-49.3066
11
77.9314
21
-49.4978
0
LINE
8
BLACK
6
CONTINUOUS
10
77.9314
20
-49.4978
11
77.8164
21
-49.67
0
LINE
8
BLACK
6
CONTINUOUS
10
77.8164
20
-49.67
11
77.67
21
-49.8164
0
LINE
8
BLACK
6
CONTINUOUS
10
77.67
20
-49.8164
11
77.4978
21
-49.9314
0
LINE
8
BLACK
6
CONTINUOUS
10
77.4978
20
-49.9314
11
77.3066
21
-50.0106
0
LINE
8
BLACK
6
CONTINUOUS
10
77.3066
20
-50.0106
11
77.1035
21
-50.051
0
LINE
8
BLACK
6
CONTINUOUS
10
77.1035
20
-50.051
11
76.8965
21
-50.051
0
LINE
8
BLACK
6
CONTINUOUS
10
76.8965
20
-50.051
11
76.6934
21
-50.0106
0
LINE
8
BLACK
6
CONTINUOUS
10
76.6934
20
-50.0106
11
76.5022
21
-49.9314
0
LINE
8
BLACK
6
CONTINUOUS
10
76.5022
20
-49.9314
11
76.33
21
-49.8164
0
LINE
8
BLACK
6
CONTINUOUS
10
76.33
20
-49.8164
11
76.1836
21
-49.67
0
LINE
8
BLACK
6
CONTINUOUS
10
76.1836
20
-49.67
11
76.0686
21
-49.4978
0
LINE
8
BLACK
6
CONTINUOUS
10
76.0686
20
-49.4978
11
75.9894
21
-49.3066
0
LINE
8
BLACK
6
CONTINUOUS
10
75.9894
20
-49.3066
11
75.949
21
-49.1035
0
LINE
8
BLACK
6
CONTINUOUS
10
75.949
20
-49.1035
11
75.949
21
-48.8965
0
LINE
8
BLACK
6
CONTINUOUS
10
75.949
20
-48.8965
11
75.9894
21
-48.6934
0
LINE
8
BLACK
6
CONTINUOUS
10
75.9894
20
-48.6934
11
76.0686
21
-48.5022
0
LINE
8
BLACK
6
CONTINUOUS
10
76.0686
20
-48.5022
11
76.1836
21
-48.33
0
LINE
8
BLACK
6
CONTINUOUS
10
76.1836
20
-48.33
11
76.33
21
-48.1836
0
LINE
8
BLACK
6
CONTINUOUS
10
76.33
20
-48.1836
11
76.5022
21
-48.0686
0
LINE
8
BLACK
6
CONTINUOUS
10
76.5022
20
-48.0686
11
76.6934
21
-47.9894
0
LINE
8
BLACK
6
CONTINUOUS
10
76.6934
20
-47.9894
11
76.8965
21
-47.949
0
LINE
8
BLACK
6
CONTINUOUS
10
76.8965
20
-47.949
11
77.1035
21
-47.949
0
LINE
8
BLACK
6
CONTINUOUS
10
77.1035
20
-47.949
11
77.3066
21
-47.9894
0
LINE
8
BLACK
6
CONTINUOUS
10
83.8066
20
-47.9894
11
83.9978
21
-48.0686
0
LINE
8
BLACK
6
CONTINUOUS
10
83.9978
20
-48.0686
11
84.17
21
-48.1836
0
LINE
8
BLACK
6
CONTINUOUS
10
84.17
20
-48.1836
11
84.3164
21
-48.33
0
LINE
8
BLACK
6
CONTINUOUS
10
84.3164
20
-48.33
11
84.4314
21
-48.5022
0
LINE
8
BLACK
6
CONTINUOUS
10
84.4314
20
-48.5022
11
84.5106
21
-48.6934
0
LINE
8
BLACK
6
CONTINUOUS
10
84.5106
20
-48.6934
11
84.551
21
-48.8965
0
LINE
8
BLACK
6
CONTINUOUS
10
84.551
20
-48.8965
11
84.551
21
-49.1035
0
LINE
8
BLACK
6
CONTINUOUS
10
84.551
20
-49.1035
11
84.5106
21
-49.3066
0
LINE
8
BLACK
6
CONTINUOUS
10
84.5106
20
-49.3066
11
84.4314
21
-49.4978
0
LINE
8
BLACK
6
CONTINUOUS
10
84.4314
20
-49.4978
11
84.3164
21
-49.67
0
LINE
8
BLACK
6
CONTINUOUS
10
84.3164
20
-49.67
11
84.17
21
-49.8164
0
LINE
8
BLACK
6
CONTINUOUS
10
84.17
20
-49.8164
11
83.9978
21
-49.9314
0
LINE
8
BLACK
6
CONTINUOUS
10
83.9978
20
-49.9314
11
83.8066
21
-50.0106
0
LINE
8
BLACK
6
CONTINUOUS
10
83.8066
20
-50.0106
11
83.6035
21
-50.051
0
LINE
8
BLACK
6
CONTINUOUS
10
83.6035
20
-50.051
11
83.3965
21
-50.051
0
LINE
8
BLACK
6
CONTINUOUS
10
83.3965
20
-50.051
11
83.1934
21
-50.0106
0
LINE
8
BLACK
6
CONTINUOUS
10
83.1934
20
-50.0106
11
83.0022
21
-49.9314
0
LINE
8
BLACK
6
CONTINUOUS
10
83.0022
20
-49.9314
11
82.83
21
-49.8164
0
LINE
8
BLACK
6
CONTINUOUS
10
82.83
20
-49.8164
11
82.6836
21
-49.67
0
LINE
8
BLACK
6
CONTINUOUS
10
82.6836
20
-49.67
11
82.5686
21
-49.4978
0
LINE
8
BLACK
6
CONTINUOUS
10
82.5686
20
-49.4978
11
82.4894
21
-49.3066
0
LINE
8
BLACK
6
CONTINUOUS
10
82.4894
20
-49.3066
11
82.449
21
-49.1035
0
LINE
8
BLACK
6
CONTINUOUS
10
82.449
20
-49.1035
11
82.449
21
-48.8965
0
LINE
8
BLACK
6
CONTINUOUS
10
82.449
20
-48.8965
11
82.4894
21
-48.6934
0
LINE
8
BLACK
6
CONTINUOUS
10
82.4894
20
-48.6934
11
82.5686
21
-48.5022
0
LINE
8
BLACK
6
CONTINUOUS
10
82.5686
20
-48.5022
11
82.6836
21
-48.33
0
LINE
8
BLACK
6
CONTINUOUS
10
82.6836
20
-48.33
11
82.83
21
-48.1836
0
LINE
8
BLACK
6
CONTINUOUS
10
82.83
20
-48.1836
11
83.0022
21
-48.0686
0
LINE
8
BLACK
6
CONTINUOUS
10
83.0022
20
-48.0686
11
83.1934
21
-47.9894
0
LINE
8
BLACK
6
CONTINUOUS
10
83.1934
20
-47.9894
11
83.3965
21
-47.949
0
LINE
8
BLACK
6
CONTINUOUS
10
83.3965
20
-47.949
11
83.6035
21
-47.949
0
LINE
8
BLACK
6
CONTINUOUS
10
83.6035
20
-47.949
11
83.8066
21
-47.9894
0
LINE
8
BLACK
6
CONTINUOUS
10
92.3066
20
-47.9894
11
92.4978
21
-48.0686
0
LINE
8
BLACK
6
CONTINUOUS
10
92.4978
20
-48.0686
11
92.67
21
-48.1836
0
LINE
8
BLACK
6
CONTINUOUS
10
92.67
20
-48.1836
11
92.8164
21
-48.33
0
LINE
8
BLACK
6
CONTINUOUS
10
92.8164
20
-48.33
11
92.9314
21
-48.5022
0
LINE
8
BLACK
6
CONTINUOUS
10
92.9314
20
-48.5022
11
93.0106
21
-48.6934
0
LINE
8
BLACK
6
CONTINUOUS
10
93.0106
20
-48.6934
11
93.051
21
-48.8965
0
LINE
8
BLACK
6
CONTINUOUS
10
93.051
20
-48.8965
11
93.051
21
-49.1035
0
LINE
8
BLACK
6
CONTINUOUS
10
93.051
20
-49.1035
11
93.0106
21
-49.3066
0
LINE
8
BLACK
6
CONTINUOUS
10
93.0106
20
-49.3066
11
92.9314
21
-49.4978
0
LINE
8
BLACK
6
CONTINUOUS
10
92.9314
20
-49.4978
11
92.8164
21
-49.67
0
LINE
8
BLACK
6
CONTINUOUS
10
92.8164
20
-49.67
11
92.67
21
-49.8164
0
LINE
8
BLACK
6
CONTINUOUS
10
92.67
20
-49.8164
11
92.4978
21
-49.9314
0
LINE
8
BLACK
6
CONTINUOUS
10
92.4978
20
-49.9314
11
92.3066
21
-50.0106
0
LINE
8
BLACK
6
CONTINUOUS
10
92.3066
20
-50.0106
11
92.1035
21
-50.051
0
LINE
8
BLACK
6
CONTINUOUS
10
92.1035
20
-50.051
11
91.8965
21
-50.051
0
LINE
8
BLACK
6
CONTINUOUS
10
91.8965
20
-50.051
11
91.6934
21
-50.0106
0
LINE
8
BLACK
6
CONTINUOUS
10
91.6934
20
-50.0106
11
91.5022
21
-49.9314
0
LINE
8
BLACK
6
CONTINUOUS
10
91.5022
20
-49.9314
11
91.33
21
-49.8164
0
LINE
8
BLACK
6
CONTINUOUS
10
91.33
20
-49.8164
11
91.1836
21
-49.67
0
LINE
8
BLACK
6
CONTINUOUS
10
91.1836
20
-49.67
11
91.0686
21
-49.4978
0
LINE
8
BLACK
6
CONTINUOUS
10
91.0686
20
-49.4978
11
90.9894
21
-49.3066
0
LINE
8
BLACK
6
CONTINUOUS
10
90.9894
20
-49.3066
11
90.949
21
-49.1035
0
LINE
8
BLACK
6
CONTINUOUS
10
90.949
20
-49.1035
11
90.949
21
-48.8965
0
LINE
8
BLACK
6
CONTINUOUS
10
90.949
20
-48.8965
11
90.9894
21
-48.6934
0
LINE
8
BLACK
6
CONTINUOUS
10
90.9894
20
-48.6934
11
91.0686
21
-48.5022
0
LINE
8
BLACK
6
CONTINUOUS
10
91.0686
20
-48.5022
11
91.1836
21
-48.33
0
LINE
8
BLACK
6
CONTINUOUS
10
91.1836
20
-48.33
11
91.33
21
-48.1836
0
LINE
8
BLACK
6
CONTINUOUS
10
91.33
20
-48.1836
11
91.5022
21
-48.0686
0
LINE
8
BLACK
6
CONTINUOUS
10
91.5022
20
-48.0686
11
91.6934
21
-47.9894
0
LINE
8
BLACK
6
CONTINUOUS
10
91.6934
20
-47.9894
11
91.8965
21
-47.949
0
LINE
8
BLACK
6
CONTINUOUS
10
91.8965
20
-47.949
11
92.1035
21
-47.949
0
LINE
8
BLACK
6
CONTINUOUS
10
92.1035
20
-47.949
11
92.3066
21
-47.9894
0
LINE
8
BLACK
6
CONTINUOUS
10
98.8066
20
-47.9894
11
98.9978
21
-48.0686
0
LINE
8
BLACK
6
CONTINUOUS
10
98.9978
20
-48.0686
11
99.17
21
-48.1836
0
LINE
8
BLACK
6
CONTINUOUS
10
99.17
20
-48.1836
11
99.3164
21
-48.33
0
LINE
8
BLACK
6
CONTINUOUS
10
99.3164
20
-48.33
11
99.4314
21
-48.5022
0
LINE
8
BLACK
6
CONTINUOUS
10
99.4314
20
-48.5022
11
99.5106
21
-48.6934
0
LINE
8
BLACK
6
CONTINUOUS
10
99.5106
20
-48.6934
11
99.551
21
-48.8965
0
LINE
8
BLACK
6
CONTINUOUS
10
99.551
20
-48.8965
11
99.551
21
-49.1035
0
LINE
8
BLACK
6
CONTINUOUS
10
99.551
20
-49.1035
11
99.5106
21
-49.3066
0
LINE
8
BLACK
6
CONTINUOUS
10
99.5106
20
-49.3066
11
99.4314
21
-49.4978
0
LINE
8
BLACK
6
CONTINUOUS
10
99.4314
20
-49.4978
11
99.3164
21
-49.67
0
LINE
8
BLACK
6
CONTINUOUS
10
99.3164
20
-49.67
11
99.17
21
-49.8164
0
LINE
8
BLACK
6
CONTINUOUS
10
99.17
20
-49.8164
11
98.9978
21
-49.9314
0
LINE
8
BLACK
6
CONTINUOUS
10
98.9978
20
-49.9314
11
98.8066
21
-50.0106
0
LINE
8
BLACK
6
CONTINUOUS
10
98.8066
20
-50.0106
11
98.6035
21
-50.051
0
LINE
8
BLACK
6
CONTINUOUS
10
98.6035
20
-50.051
11
98.3965
21
-50.051
0
LINE
8
BLACK
6
CONTINUOUS
10
98.3965
20
-50.051
11
98.1934
21
-50.0106
0
LINE
8
BLACK
6
CONTINUOUS
10
98.1934
20
-50.0106
11
98.0022
21
-49.9314
0
LINE
8
BLACK
6
CONTINUOUS
10
98.0022
20
-49.9314
11
97.83
21
-49.8164
0
LINE
8
BLACK
6
CONTINUOUS
10
97.83
20
-49.8164
11
97.6836
21
-49.67
0
LINE
8
BLACK
6
CONTINUOUS
10
97.6836
20
-49.67
11
97.5686
21
-49.4978
0
LINE
8
BLACK
6
CONTINUOUS
10
97.5686
20
-49.4978
11
97.4894
21
-49.3066
0
LINE
8
BLACK
6
CONTINUOUS
10
97.4894
20
-49.3066
11
97.449
21
-49.1035
0
LINE
8
BLACK
6
CONTINUOUS
10
97.449
20
-49.1035
11
97.449
21
-48.8965
0
LINE
8
BLACK
6
CONTINUOUS
10
97.449
20
-48.8965
11
97.4894
21
-48.6934
0
LINE
8
BLACK
6
CONTINUOUS
10
97.4894
20
-48.6934
11
97.5686
21
-48.5022
0
LINE
8
BLACK
6
CONTINUOUS
10
97.5686
20
-48.5022
11
97.6836
21
-48.33
0
LINE
8
BLACK
6
CONTINUOUS
10
97.6836
20
-48.33
11
97.83
21
-48.1836
0
LINE
8
BLACK
6
CONTINUOUS
10
97.83
20
-48.1836
11
98.0022
21
-48.0686
0
LINE
8
BLACK
6
CONTINUOUS
10
98.0022
20
-48.0686
11
98.1934
21
-47.9894
0
LINE
8
BLACK
6
CONTINUOUS
10
98.1934
20
-47.9894
11
98.3965
21
-47.949
0
LINE
8
BLACK
6
CONTINUOUS
10
98.3965
20
-47.949
11
98.6035
21
-47.949
0
LINE
8
BLACK
6
CONTINUOUS
10
98.6035
20
-47.949
11
98.8066
21
-47.9894
0
LINE
8
BLACK
6
CONTINUOUS
10
106.307
20
-47.9894
11
106.498
21
-48.0686
0
LINE
8
BLACK
6
CONTINUOUS
10
106.498
20
-48.0686
11
106.67
21
-48.1836
0
LINE
8
BLACK
6
CONTINUOUS
10
106.67
20
-48.1836
11
106.816
21
-48.33
0
LINE
8
BLACK
6
CONTINUOUS
10
106.816
20
-48.33
11
106.931
21
-48.5022
0
LINE
8
BLACK
6
CONTINUOUS
10
106.931
20
-48.5022
11
107.011
21
-48.6934
0
LINE
8
BLACK
6
CONTINUOUS
10
107.011
20
-48.6934
11
107.051
21
-48.8965
0
LINE
8
BLACK
6
CONTINUOUS
10
107.051
20
-48.8965
11
107.051
21
-49.1035
0
LINE
8
BLACK
6
CONTINUOUS
10
107.051
20
-49.1035
11
107.011
21
-49.3066
0
LINE
8
BLACK
6
CONTINUOUS
10
107.011
20
-49.3066
11
106.931
21
-49.4978
0
LINE
8
BLACK
6
CONTINUOUS
10
106.931
20
-49.4978
11
106.816
21
-49.67
0
LINE
8
BLACK
6
CONTINUOUS
10
106.816
20
-49.67
11
106.67
21
-49.8164
0
LINE
8
BLACK
6
CONTINUOUS
10
106.67
20
-49.8164
11
106.498
21
-49.9314
0
LINE
8
BLACK
6
CONTINUOUS
10
106.498
20
-49.9314
11
106.307
21
-50.0106
0
LINE
8
BLACK
6
CONTINUOUS
10
106.307
20
-50.0106
11
106.104
21
-50.051
0
LINE
8
BLACK
6
CONTINUOUS
10
106.104
20
-50.051
11
105.896
21
-50.051
0
LINE
8
BLACK
6
CONTINUOUS
10
105.896
20
-50.051
11
105.693
21
-50.0106
0
LINE
8
BLACK
6
CONTINUOUS
10
105.693
20
-50.0106
11
105.502
21
-49.9314
0
LINE
8
BLACK
6
CONTINUOUS
10
105.502
20
-49.9314
11
105.33
21
-49.8164
0
LINE
8
BLACK
6
CONTINUOUS
10
105.33
20
-49.8164
11
105.184
21
-49.67
0
LINE
8
BLACK
6
CONTINUOUS
10
105.184
20
-49.67
11
105.069
21
-49.4978
0
LINE
8
BLACK
6
CONTINUOUS
10
105.069
20
-49.4978
11
104.989
21
-49.3066
0
LINE
8
BLACK
6
CONTINUOUS
10
104.989
20
-49.3066
11
104.949
21
-49.1035
0
LINE
8
BLACK
6
CONTINUOUS
10
104.949
20
-49.1035
11
104.949
21
-48.8965
0
LINE
8
BLACK
6
CONTINUOUS
10
104.949
20
-48.8965
11
104.989
21
-48.6934
0
LINE
8
BLACK
6
CONTINUOUS
10
104.989
20
-48.6934
11
105.069
21
-48.5022
0
LINE
8
BLACK
6
CONTINUOUS
10
105.069
20
-48.5022
11
105.184
21
-48.33
0
LINE
8
BLACK
6
CONTINUOUS
10
105.184
20
-48.33
11
105.33
21
-48.1836
0
LINE
8
BLACK
6
CONTINUOUS
10
105.33
20
-48.1836
11
105.502
21
-48.0686
0
LINE
8
BLACK
6
CONTINUOUS
10
105.502
20
-48.0686
11
105.693
21
-47.9894
0
LINE
8
BLACK
6
CONTINUOUS
10
105.693
20
-47.9894
11
105.896
21
-47.949
0
LINE
8
BLACK
6
CONTINUOUS
10
105.896
20
-47.949
11
106.104
21
-47.949
0
LINE
8
BLACK
6
CONTINUOUS
10
106.104
20
-47.949
11
106.307
21
-47.9894
0
LINE
8
BLACK
6
CONTINUOUS
10
93.0325
20
-39.102
11
93.156
21
-39.1142
0
LINE
8
BLACK
6
CONTINUOUS
10
93.156
20
-39.1142
11
93.3541
21
-39.1743
0
LINE
8
BLACK
6
CONTINUOUS
10
93.3541
20
-39.1743
11
93.5367
21
-39.2719
0
LINE
8
BLACK
6
CONTINUOUS
10
93.5367
20
-39.2719
11
93.6968
21
-39.4032
0
LINE
8
BLACK
6
CONTINUOUS
10
93.6968
20
-39.4032
11
93.8281
21
-39.5633
0
LINE
8
BLACK
6
CONTINUOUS
10
93.8281
20
-39.5633
11
93.9257
21
-39.7459
0
LINE
8
BLACK
6
CONTINUOUS
10
93.9257
20
-39.7459
11
93.9858
21
-39.944
0
LINE
8
BLACK
6
CONTINUOUS
10
93.9858
20
-39.944
11
94.0061
21
-40.15
0
LINE
8
BLACK
6
CONTINUOUS
10
94.0061
20
-40.15
11
93.9858
21
-40.356
0
LINE
8
BLACK
6
CONTINUOUS
10
93.9858
20
-40.356
11
93.9257
21
-40.5541
0
LINE
8
BLACK
6
CONTINUOUS
10
93.9257
20
-40.5541
11
93.8281
21
-40.7367
0
LINE
8
BLACK
6
CONTINUOUS
10
93.8281
20
-40.7367
11
93.6968
21
-40.8968
0
LINE
8
BLACK
6
CONTINUOUS
10
93.6968
20
-40.8968
11
93.5367
21
-41.0281
0
LINE
8
BLACK
6
CONTINUOUS
10
93.5367
20
-41.0281
11
93.3541
21
-41.1257
0
LINE
8
BLACK
6
CONTINUOUS
10
93.3541
20
-41.1257
11
93.156
21
-41.1858
0
LINE
8
BLACK
6
CONTINUOUS
10
93.156
20
-41.1858
11
93.0325
21
-41.198
0
LINE
8
BLACK
6
CONTINUOUS
10
93.0325
20
-41.198
11
93.0016
21
-41.201
0
LINE
8
BLACK
6
CONTINUOUS
10
93.0016
20
-41.201
11
92.8984
21
-41.201
0
LINE
8
BLACK
6
CONTINUOUS
10
92.8984
20
-41.201
11
92.8675
21
-41.198
0
LINE
8
BLACK
6
CONTINUOUS
10
92.8675
20
-41.198
11
92.744
21
-41.1858
0
LINE
8
BLACK
6
CONTINUOUS
10
92.744
20
-41.1858
11
92.5459
21
-41.1257
0
LINE
8
BLACK
6
CONTINUOUS
10
92.5459
20
-41.1257
11
92.3633
21
-41.0281
0
LINE
8
BLACK
6
CONTINUOUS
10
92.3633
20
-41.0281
11
92.2032
21
-40.8968
0
LINE
8
BLACK
6
CONTINUOUS
10
92.2032
20
-40.8968
11
92.0719
21
-40.7367
0
LINE
8
BLACK
6
CONTINUOUS
10
92.0719
20
-40.7367
11
91.9743
21
-40.5541
0
LINE
8
BLACK
6
CONTINUOUS
10
91.9743
20
-40.5541
11
91.9142
21
-40.356
0
LINE
8
BLACK
6
CONTINUOUS
10
91.9142
20
-40.356
11
91.8939
21
-40.15
0
LINE
8
BLACK
6
CONTINUOUS
10
91.8939
20
-40.15
11
91.9142
21
-39.944
0
LINE
8
BLACK
6
CONTINUOUS
10
91.9142
20
-39.944
11
91.9743
21
-39.7459
0
LINE
8
BLACK
6
CONTINUOUS
10
91.9743
20
-39.7459
11
92.0719
21
-39.5633
0
LINE
8
BLACK
6
CONTINUOUS
10
92.0719
20
-39.5633
11
92.2032
21
-39.4032
0
LINE
8
BLACK
6
CONTINUOUS
10
92.2032
20
-39.4032
11
92.3633
21
-39.2719
0
LINE
8
BLACK
6
CONTINUOUS
10
92.3633
20
-39.2719
11
92.5459
21
-39.1743
0
LINE
8
BLACK
6
CONTINUOUS
10
92.5459
20
-39.1743
11
92.744
21
-39.1142
0
LINE
8
BLACK
6
CONTINUOUS
10
92.744
20
-39.1142
11
92.8675
21
-39.102
0
LINE
8
BLACK
6
CONTINUOUS
10
92.8675
20
-39.102
11
92.8984
21
-39.099
0
LINE
8
BLACK
6
CONTINUOUS
10
92.8984
20
-39.099
11
93.0016
21
-39.099
0
LINE
8
BLACK
6
CONTINUOUS
10
93.0016
20
-39.099
11
93.0325
21
-39.102
0
LINE
8
BLACK
6
CONTINUOUS
10
106.701
20
-41.201
11
104.599
21
-41.201
0
LINE
8
BLACK
6
CONTINUOUS
10
104.599
20
-41.201
11
104.599
21
-39.099
0
LINE
8
BLACK
6
CONTINUOUS
10
104.599
20
-39.099
11
106.701
21
-39.099
0
LINE
8
BLACK
6
CONTINUOUS
10
106.701
20
-39.099
11
106.701
21
-41.201
0
LINE
8
BLACK
6
CONTINUOUS
10
103.193
20
-39.102
11
103.316
21
-39.1142
0
LINE
8
BLACK
6
CONTINUOUS
10
103.316
20
-39.1142
11
103.514
21
-39.1743
0
LINE
8
BLACK
6
CONTINUOUS
10
103.514
20
-39.1743
11
103.697
21
-39.2719
0
LINE
8
BLACK
6
CONTINUOUS
10
103.697
20
-39.2719
11
103.857
21
-39.4032
0
LINE
8
BLACK
6
CONTINUOUS
10
103.857
20
-39.4032
11
103.988
21
-39.5633
0
LINE
8
BLACK
6
CONTINUOUS
10
103.988
20
-39.5633
11
104.086
21
-39.7459
0
LINE
8
BLACK
6
CONTINUOUS
10
104.086
20
-39.7459
11
104.146
21
-39.944
0
LINE
8
BLACK
6
CONTINUOUS
10
104.146
20
-39.944
11
104.166
21
-40.15
0
LINE
8
BLACK
6
CONTINUOUS
10
104.166
20
-40.15
11
104.146
21
-40.356
0
LINE
8
BLACK
6
CONTINUOUS
10
104.146
20
-40.356
11
104.086
21
-40.5541
0
LINE
8
BLACK
6
CONTINUOUS
10
104.086
20
-40.5541
11
103.988
21
-40.7367
0
LINE
8
BLACK
6
CONTINUOUS
10
103.988
20
-40.7367
11
103.857
21
-40.8968
0
LINE
8
BLACK
6
CONTINUOUS
10
103.857
20
-40.8968
11
103.697
21
-41.0281
0
LINE
8
BLACK
6
CONTINUOUS
10
103.697
20
-41.0281
11
103.514
21
-41.1257
0
LINE
8
BLACK
6
CONTINUOUS
10
103.514
20
-41.1257
11
103.316
21
-41.1858
0
LINE
8
BLACK
6
CONTINUOUS
10
103.316
20
-41.1858
11
103.193
21
-41.198
0
LINE
8
BLACK
6
CONTINUOUS
10
103.193
20
-41.198
11
103.162
21
-41.201
0
LINE
8
BLACK
6
CONTINUOUS
10
103.162
20
-41.201
11
103.058
21
-41.201
0
LINE
8
BLACK
6
CONTINUOUS
10
103.058
20
-41.201
11
103.027
21
-41.198
0
LINE
8
BLACK
6
CONTINUOUS
10
103.027
20
-41.198
11
102.904
21
-41.1858
0
LINE
8
BLACK
6
CONTINUOUS
10
102.904
20
-41.1858
11
102.706
21
-41.1257
0
LINE
8
BLACK
6
CONTINUOUS
10
102.706
20
-41.1257
11
102.523
21
-41.0281
0
LINE
8
BLACK
6
CONTINUOUS
10
102.523
20
-41.0281
11
102.363
21
-40.8968
0
LINE
8
BLACK
6
CONTINUOUS
10
102.363
20
-40.8968
11
102.232
21
-40.7367
0
LINE
8
BLACK
6
CONTINUOUS
10
102.232
20
-40.7367
11
102.134
21
-40.5541
0
LINE
8
BLACK
6
CONTINUOUS
10
102.134
20
-40.5541
11
102.074
21
-40.356
0
LINE
8
BLACK
6
CONTINUOUS
10
102.074
20
-40.356
11
102.054
21
-40.15
0
LINE
8
BLACK
6
CONTINUOUS
10
102.054
20
-40.15
11
102.074
21
-39.944
0
LINE
8
BLACK
6
CONTINUOUS
10
102.074
20
-39.944
11
102.134
21
-39.7459
0
LINE
8
BLACK
6
CONTINUOUS
10
102.134
20
-39.7459
11
102.232
21
-39.5633
0
LINE
8
BLACK
6
CONTINUOUS
10
102.232
20
-39.5633
11
102.363
21
-39.4032
0
LINE
8
BLACK
6
CONTINUOUS
10
102.363
20
-39.4032
11
102.523
21
-39.2719
0
LINE
8
BLACK
6
CONTINUOUS
10
102.523
20
-39.2719
11
102.706
21
-39.1743
0
LINE
8
BLACK
6
CONTINUOUS
10
102.706
20
-39.1743
11
102.904
21
-39.1142
0
LINE
8
BLACK
6
CONTINUOUS
10
102.904
20
-39.1142
11
103.027
21
-39.102
0
LINE
8
BLACK
6
CONTINUOUS
10
103.027
20
-39.102
11
103.058
21
-39.099
0
LINE
8
BLACK
6
CONTINUOUS
10
103.058
20
-39.099
11
103.162
21
-39.099
0
LINE
8
BLACK
6
CONTINUOUS
10
103.162
20
-39.099
11
103.193
21
-39.102
0
LINE
8
BLACK
6
CONTINUOUS
10
100.653
20
-39.102
11
100.776
21
-39.1142
0
LINE
8
BLACK
6
CONTINUOUS
10
100.776
20
-39.1142
11
100.974
21
-39.1743
0
LINE
8
BLACK
6
CONTINUOUS
10
100.974
20
-39.1743
11
101.157
21
-39.2719
0
LINE
8
BLACK
6
CONTINUOUS
10
101.157
20
-39.2719
11
101.317
21
-39.4032
0
LINE
8
BLACK
6
CONTINUOUS
10
101.317
20
-39.4032
11
101.448
21
-39.5633
0
LINE
8
BLACK
6
CONTINUOUS
10
101.448
20
-39.5633
11
101.546
21
-39.7459
0
LINE
8
BLACK
6
CONTINUOUS
10
101.546
20
-39.7459
11
101.606
21
-39.944
0
LINE
8
BLACK
6
CONTINUOUS
10
101.606
20
-39.944
11
101.626
21
-40.15
0
LINE
8
BLACK
6
CONTINUOUS
10
101.626
20
-40.15
11
101.606
21
-40.356
0
LINE
8
BLACK
6
CONTINUOUS
10
101.606
20
-40.356
11
101.546
21
-40.5541
0
LINE
8
BLACK
6
CONTINUOUS
10
101.546
20
-40.5541
11
101.448
21
-40.7367
0
LINE
8
BLACK
6
CONTINUOUS
10
101.448
20
-40.7367
11
101.317
21
-40.8968
0
LINE
8
BLACK
6
CONTINUOUS
10
101.317
20
-40.8968
11
101.157
21
-41.0281
0
LINE
8
BLACK
6
CONTINUOUS
10
101.157
20
-41.0281
11
100.974
21
-41.1257
0
LINE
8
BLACK
6
CONTINUOUS
10
100.974
20
-41.1257
11
100.776
21
-41.1858
0
LINE
8
BLACK
6
CONTINUOUS
10
100.776
20
-41.1858
11
100.653
21
-41.198
0
LINE
8
BLACK
6
CONTINUOUS
10
100.653
20
-41.198
11
100.622
21
-41.201
0
LINE
8
BLACK
6
CONTINUOUS
10
100.622
20
-41.201
11
100.518
21
-41.201
0
LINE
8
BLACK
6
CONTINUOUS
10
100.518
20
-41.201
11
100.487
21
-41.198
0
LINE
8
BLACK
6
CONTINUOUS
10
100.487
20
-41.198
11
100.364
21
-41.1858
0
LINE
8
BLACK
6
CONTINUOUS
10
100.364
20
-41.1858
11
100.166
21
-41.1257
0
LINE
8
BLACK
6
CONTINUOUS
10
100.166
20
-41.1257
11
99.9833
21
-41.0281
0
LINE
8
BLACK
6
CONTINUOUS
10
99.9833
20
-41.0281
11
99.8232
21
-40.8968
0
LINE
8
BLACK
6
CONTINUOUS
10
99.8232
20
-40.8968
11
99.6919
21
-40.7367
0
LINE
8
BLACK
6
CONTINUOUS
10
99.6919
20
-40.7367
11
99.5943
21
-40.5541
0
LINE
8
BLACK
6
CONTINUOUS
10
99.5943
20
-40.5541
11
99.5342
21
-40.356
0
LINE
8
BLACK
6
CONTINUOUS
10
99.5342
20
-40.356
11
99.5139
21
-40.15
0
LINE
8
BLACK
6
CONTINUOUS
10
99.5139
20
-40.15
11
99.5342
21
-39.944
0
LINE
8
BLACK
6
CONTINUOUS
10
99.5342
20
-39.944
11
99.5943
21
-39.7459
0
LINE
8
BLACK
6
CONTINUOUS
10
99.5943
20
-39.7459
11
99.6919
21
-39.5633
0
LINE
8
BLACK
6
CONTINUOUS
10
99.6919
20
-39.5633
11
99.8232
21
-39.4032
0
LINE
8
BLACK
6
CONTINUOUS
10
99.8232
20
-39.4032
11
99.9833
21
-39.2719
0
LINE
8
BLACK
6
CONTINUOUS
10
99.9833
20
-39.2719
11
100.166
21
-39.1743
0
LINE
8
BLACK
6
CONTINUOUS
10
100.166
20
-39.1743
11
100.364
21
-39.1142
0
LINE
8
BLACK
6
CONTINUOUS
10
100.364
20
-39.1142
11
100.487
21
-39.102
0
LINE
8
BLACK
6
CONTINUOUS
10
100.487
20
-39.102
11
100.518
21
-39.099
0
LINE
8
BLACK
6
CONTINUOUS
10
100.518
20
-39.099
11
100.622
21
-39.099
0
LINE
8
BLACK
6
CONTINUOUS
10
100.622
20
-39.099
11
100.653
21
-39.102
0
LINE
8
BLACK
6
CONTINUOUS
10
98.1125
20
-39.102
11
98.236
21
-39.1142
0
LINE
8
BLACK
6
CONTINUOUS
10
98.236
20
-39.1142
11
98.4341
21
-39.1743
0
LINE
8
BLACK
6
CONTINUOUS
10
98.4341
20
-39.1743
11
98.6167
21
-39.2719
0
LINE
8
BLACK
6
CONTINUOUS
10
98.6167
20
-39.2719
11
98.7768
21
-39.4032
0
LINE
8
BLACK
6
CONTINUOUS
10
98.7768
20
-39.4032
11
98.9081
21
-39.5633
0
LINE
8
BLACK
6
CONTINUOUS
10
98.9081
20
-39.5633
11
99.0057
21
-39.7459
0
LINE
8
BLACK
6
CONTINUOUS
10
99.0057
20
-39.7459
11
99.0658
21
-39.944
0
LINE
8
BLACK
6
CONTINUOUS
10
99.0658
20
-39.944
11
99.0861
21
-40.15
0
LINE
8
BLACK
6
CONTINUOUS
10
99.0861
20
-40.15
11
99.0658
21
-40.356
0
LINE
8
BLACK
6
CONTINUOUS
10
99.0658
20
-40.356
11
99.0057
21
-40.5541
0
LINE
8
BLACK
6
CONTINUOUS
10
99.0057
20
-40.5541
11
98.9081
21
-40.7367
0
LINE
8
BLACK
6
CONTINUOUS
10
98.9081
20
-40.7367
11
98.7768
21
-40.8968
0
LINE
8
BLACK
6
CONTINUOUS
10
98.7768
20
-40.8968
11
98.6167
21
-41.0281
0
LINE
8
BLACK
6
CONTINUOUS
10
98.6167
20
-41.0281
11
98.4341
21
-41.1257
0
LINE
8
BLACK
6
CONTINUOUS
10
98.4341
20
-41.1257
11
98.236
21
-41.1858
0
LINE
8
BLACK
6
CONTINUOUS
10
98.236
20
-41.1858
11
98.1125
21
-41.198
0
LINE
8
BLACK
6
CONTINUOUS
10
98.1125
20
-41.198
11
98.0816
21
-41.201
0
LINE
8
BLACK
6
CONTINUOUS
10
98.0816
20
-41.201
11
97.9784
21
-41.201
0
LINE
8
BLACK
6
CONTINUOUS
10
97.9784
20
-41.201
11
97.9475
21
-41.198
0
LINE
8
BLACK
6
CONTINUOUS
10
97.9475
20
-41.198
11
97.824
21
-41.1858
0
LINE
8
BLACK
6
CONTINUOUS
10
97.824
20
-41.1858
11
97.6259
21
-41.1257
0
LINE
8
BLACK
6
CONTINUOUS
10
97.6259
20
-41.1257
11
97.4433
21
-41.0281
0
LINE
8
BLACK
6
CONTINUOUS
10
97.4433
20
-41.0281
11
97.2832
21
-40.8968
0
LINE
8
BLACK
6
CONTINUOUS
10
97.2832
20
-40.8968
11
97.1519
21
-40.7367
0
LINE
8
BLACK
6
CONTINUOUS
10
97.1519
20
-40.7367
11
97.0543
21
-40.5541
0
LINE
8
BLACK
6
CONTINUOUS
10
97.0543
20
-40.5541
11
96.9942
21
-40.356
0
LINE
8
BLACK
6
CONTINUOUS
10
96.9942
20
-40.356
11
96.9739
21
-40.15
0
LINE
8
BLACK
6
CONTINUOUS
10
96.9739
20
-40.15
11
96.9942
21
-39.944
0
LINE
8
BLACK
6
CONTINUOUS
10
96.9942
20
-39.944
11
97.0543
21
-39.7459
0
LINE
8
BLACK
6
CONTINUOUS
10
97.0543
20
-39.7459
11
97.1519
21
-39.5633
0
LINE
8
BLACK
6
CONTINUOUS
10
97.1519
20
-39.5633
11
97.2832
21
-39.4032
0
LINE
8
BLACK
6
CONTINUOUS
10
97.2832
20
-39.4032
11
97.4433
21
-39.2719
0
LINE
8
BLACK
6
CONTINUOUS
10
97.4433
20
-39.2719
11
97.6259
21
-39.1743
0
LINE
8
BLACK
6
CONTINUOUS
10
97.6259
20
-39.1743
11
97.824
21
-39.1142
0
LINE
8
BLACK
6
CONTINUOUS
10
97.824
20
-39.1142
11
97.9475
21
-39.102
0
LINE
8
BLACK
6
CONTINUOUS
10
97.9475
20
-39.102
11
97.9784
21
-39.099
0
LINE
8
BLACK
6
CONTINUOUS
10
97.9784
20
-39.099
11
98.0816
21
-39.099
0
LINE
8
BLACK
6
CONTINUOUS
10
98.0816
20
-39.099
11
98.1125
21
-39.102
0
LINE
8
BLACK
6
CONTINUOUS
10
95.5725
20
-39.102
11
95.696
21
-39.1142
0
LINE
8
BLACK
6
CONTINUOUS
10
95.696
20
-39.1142
11
95.8941
21
-39.1743
0
LINE
8
BLACK
6
CONTINUOUS
10
95.8941
20
-39.1743
11
96.0767
21
-39.2719
0
LINE
8
BLACK
6
CONTINUOUS
10
96.0767
20
-39.2719
11
96.2368
21
-39.4032
0
LINE
8
BLACK
6
CONTINUOUS
10
96.2368
20
-39.4032
11
96.3681
21
-39.5633
0
LINE
8
BLACK
6
CONTINUOUS
10
96.3681
20
-39.5633
11
96.4657
21
-39.7459
0
LINE
8
BLACK
6
CONTINUOUS
10
96.4657
20
-39.7459
11
96.5258
21
-39.944
0
LINE
8
BLACK
6
CONTINUOUS
10
96.5258
20
-39.944
11
96.5461
21
-40.15
0
LINE
8
BLACK
6
CONTINUOUS
10
96.5461
20
-40.15
11
96.5258
21
-40.356
0
LINE
8
BLACK
6
CONTINUOUS
10
96.5258
20
-40.356
11
96.4657
21
-40.5541
0
LINE
8
BLACK
6
CONTINUOUS
10
96.4657
20
-40.5541
11
96.3681
21
-40.7367
0
LINE
8
BLACK
6
CONTINUOUS
10
96.3681
20
-40.7367
11
96.2368
21
-40.8968
0
LINE
8
BLACK
6
CONTINUOUS
10
96.2368
20
-40.8968
11
96.0767
21
-41.0281
0
LINE
8
BLACK
6
CONTINUOUS
10
96.0767
20
-41.0281
11
95.8941
21
-41.1257
0
LINE
8
BLACK
6
CONTINUOUS
10
95.8941
20
-41.1257
11
95.696
21
-41.1858
0
LINE
8
BLACK
6
CONTINUOUS
10
95.696
20
-41.1858
11
95.5725
21
-41.198
0
LINE
8
BLACK
6
CONTINUOUS
10
95.5725
20
-41.198
11
95.5416
21
-41.201
0
LINE
8
BLACK
6
CONTINUOUS
10
95.5416
20
-41.201
11
95.4384
21
-41.201
0
LINE
8
BLACK
6
CONTINUOUS
10
95.4384
20
-41.201
11
95.4075
21
-41.198
0
LINE
8
BLACK
6
CONTINUOUS
10
95.4075
20
-41.198
11
95.284
21
-41.1858
0
LINE
8
BLACK
6
CONTINUOUS
10
95.284
20
-41.1858
11
95.0859
21
-41.1257
0
LINE
8
BLACK
6
CONTINUOUS
10
95.0859
20
-41.1257
11
94.9033
21
-41.0281
0
LINE
8
BLACK
6
CONTINUOUS
10
94.9033
20
-41.0281
11
94.7432
21
-40.8968
0
LINE
8
BLACK
6
CONTINUOUS
10
94.7432
20
-40.8968
11
94.6119
21
-40.7367
0
LINE
8
BLACK
6
CONTINUOUS
10
94.6119
20
-40.7367
11
94.5143
21
-40.5541
0
LINE
8
BLACK
6
CONTINUOUS
10
94.5143
20
-40.5541
11
94.4542
21
-40.356
0
LINE
8
BLACK
6
CONTINUOUS
10
94.4542
20
-40.356
11
94.4339
21
-40.15
0
LINE
8
BLACK
6
CONTINUOUS
10
94.4339
20
-40.15
11
94.4542
21
-39.944
0
LINE
8
BLACK
6
CONTINUOUS
10
94.4542
20
-39.944
11
94.5143
21
-39.7459
0
LINE
8
BLACK
6
CONTINUOUS
10
94.5143
20
-39.7459
11
94.6119
21
-39.5633
0
LINE
8
BLACK
6
CONTINUOUS
10
94.6119
20
-39.5633
11
94.7432
21
-39.4032
0
LINE
8
BLACK
6
CONTINUOUS
10
94.7432
20
-39.4032
11
94.9033
21
-39.2719
0
LINE
8
BLACK
6
CONTINUOUS
10
94.9033
20
-39.2719
11
95.0859
21
-39.1743
0
LINE
8
BLACK
6
CONTINUOUS
10
95.0859
20
-39.1743
11
95.284
21
-39.1142
0
LINE
8
BLACK
6
CONTINUOUS
10
95.284
20
-39.1142
11
95.4075
21
-39.102
0
LINE
8
BLACK
6
CONTINUOUS
10
95.4075
20
-39.102
11
95.4384
21
-39.099
0
LINE
8
BLACK
6
CONTINUOUS
10
95.4384
20
-39.099
11
95.5416
21
-39.099
0
LINE
8
BLACK
6
CONTINUOUS
10
95.5416
20
-39.099
11
95.5725
21
-39.102
0
LINE
8
BLACK
6
CONTINUOUS
10
90.4925
20
-39.102
11
90.616
21
-39.1142
0
LINE
8
BLACK
6
CONTINUOUS
10
90.616
20
-39.1142
11
90.8141
21
-39.1743
0
LINE
8
BLACK
6
CONTINUOUS
10
90.8141
20
-39.1743
11
90.9967
21
-39.2719
0
LINE
8
BLACK
6
CONTINUOUS
10
90.9967
20
-39.2719
11
91.1568
21
-39.4032
0
LINE
8
BLACK
6
CONTINUOUS
10
91.1568
20
-39.4032
11
91.2881
21
-39.5633
0
LINE
8
BLACK
6
CONTINUOUS
10
91.2881
20
-39.5633
11
91.3857
21
-39.7459
0
LINE
8
BLACK
6
CONTINUOUS
10
91.3857
20
-39.7459
11
91.4458
21
-39.944
0
LINE
8
BLACK
6
CONTINUOUS
10
91.4458
20
-39.944
11
91.4661
21
-40.15
0
LINE
8
BLACK
6
CONTINUOUS
10
91.4661
20
-40.15
11
91.4458
21
-40.356
0
LINE
8
BLACK
6
CONTINUOUS
10
91.4458
20
-40.356
11
91.3857
21
-40.5541
0
LINE
8
BLACK
6
CONTINUOUS
10
91.3857
20
-40.5541
11
91.2881
21
-40.7367
0
LINE
8
BLACK
6
CONTINUOUS
10
91.2881
20
-40.7367
11
91.1568
21
-40.8968
0
LINE
8
BLACK
6
CONTINUOUS
10
91.1568
20
-40.8968
11
90.9967
21
-41.0281
0
LINE
8
BLACK
6
CONTINUOUS
10
90.9967
20
-41.0281
11
90.8141
21
-41.1257
0
LINE
8
BLACK
6
CONTINUOUS
10
90.8141
20
-41.1257
11
90.616
21
-41.1858
0
LINE
8
BLACK
6
CONTINUOUS
10
90.616
20
-41.1858
11
90.4925
21
-41.198
0
LINE
8
BLACK
6
CONTINUOUS
10
90.4925
20
-41.198
11
90.4616
21
-41.201
0
LINE
8
BLACK
6
CONTINUOUS
10
90.4616
20
-41.201
11
90.3584
21
-41.201
0
LINE
8
BLACK
6
CONTINUOUS
10
90.3584
20
-41.201
11
90.3275
21
-41.198
0
LINE
8
BLACK
6
CONTINUOUS
10
90.3275
20
-41.198
11
90.204
21
-41.1858
0
LINE
8
BLACK
6
CONTINUOUS
10
90.204
20
-41.1858
11
90.0059
21
-41.1257
0
LINE
8
BLACK
6
CONTINUOUS
10
90.0059
20
-41.1257
11
89.8233
21
-41.0281
0
LINE
8
BLACK
6
CONTINUOUS
10
89.8233
20
-41.0281
11
89.6632
21
-40.8968
0
LINE
8
BLACK
6
CONTINUOUS
10
89.6632
20
-40.8968
11
89.5319
21
-40.7367
0
LINE
8
BLACK
6
CONTINUOUS
10
89.5319
20
-40.7367
11
89.4343
21
-40.5541
0
LINE
8
BLACK
6
CONTINUOUS
10
89.4343
20
-40.5541
11
89.3742
21
-40.356
0
LINE
8
BLACK
6
CONTINUOUS
10
89.3742
20
-40.356
11
89.3539
21
-40.15
0
LINE
8
BLACK
6
CONTINUOUS
10
89.3539
20
-40.15
11
89.3742
21
-39.944
0
LINE
8
BLACK
6
CONTINUOUS
10
89.3742
20
-39.944
11
89.4343
21
-39.7459
0
LINE
8
BLACK
6
CONTINUOUS
10
89.4343
20
-39.7459
11
89.5319
21
-39.5633
0
LINE
8
BLACK
6
CONTINUOUS
10
89.5319
20
-39.5633
11
89.6632
21
-39.4032
0
LINE
8
BLACK
6
CONTINUOUS
10
89.6632
20
-39.4032
11
89.8233
21
-39.2719
0
LINE
8
BLACK
6
CONTINUOUS
10
89.8233
20
-39.2719
11
90.0059
21
-39.1743
0
LINE
8
BLACK
6
CONTINUOUS
10
90.0059
20
-39.1743
11
90.204
21
-39.1142
0
LINE
8
BLACK
6
CONTINUOUS
10
90.204
20
-39.1142
11
90.3275
21
-39.102
0
LINE
8
BLACK
6
CONTINUOUS
10
90.3275
20
-39.102
11
90.3584
21
-39.099
0
LINE
8
BLACK
6
CONTINUOUS
10
90.3584
20
-39.099
11
90.4616
21
-39.099
0
LINE
8
BLACK
6
CONTINUOUS
10
90.4616
20
-39.099
11
90.4925
21
-39.102
0
LINE
8
BLACK
6
CONTINUOUS
10
87.9525
20
-39.102
11
88.076
21
-39.1142
0
LINE
8
BLACK
6
CONTINUOUS
10
88.076
20
-39.1142
11
88.2741
21
-39.1743
0
LINE
8
BLACK
6
CONTINUOUS
10
88.2741
20
-39.1743
11
88.4567
21
-39.2719
0
LINE
8
BLACK
6
CONTINUOUS
10
88.4567
20
-39.2719
11
88.6168
21
-39.4032
0
LINE
8
BLACK
6
CONTINUOUS
10
88.6168
20
-39.4032
11
88.7481
21
-39.5633
0
LINE
8
BLACK
6
CONTINUOUS
10
88.7481
20
-39.5633
11
88.8457
21
-39.7459
0
LINE
8
BLACK
6
CONTINUOUS
10
88.8457
20
-39.7459
11
88.9058
21
-39.944
0
LINE
8
BLACK
6
CONTINUOUS
10
88.9058
20
-39.944
11
88.9261
21
-40.15
0
LINE
8
BLACK
6
CONTINUOUS
10
88.9261
20
-40.15
11
88.9058
21
-40.356
0
LINE
8
BLACK
6
CONTINUOUS
10
88.9058
20
-40.356
11
88.8457
21
-40.5541
0
LINE
8
BLACK
6
CONTINUOUS
10
88.8457
20
-40.5541
11
88.7481
21
-40.7367
0
LINE
8
BLACK
6
CONTINUOUS
10
88.7481
20
-40.7367
11
88.6168
21
-40.8968
0
LINE
8
BLACK
6
CONTINUOUS
10
88.6168
20
-40.8968
11
88.4567
21
-41.0281
0
LINE
8
BLACK
6
CONTINUOUS
10
88.4567
20
-41.0281
11
88.2741
21
-41.1257
0
LINE
8
BLACK
6
CONTINUOUS
10
88.2741
20
-41.1257
11
88.076
21
-41.1858
0
LINE
8
BLACK
6
CONTINUOUS
10
88.076
20
-41.1858
11
87.9525
21
-41.198
0
LINE
8
BLACK
6
CONTINUOUS
10
87.9525
20
-41.198
11
87.9216
21
-41.201
0
LINE
8
BLACK
6
CONTINUOUS
10
87.9216
20
-41.201
11
87.8184
21
-41.201
0
LINE
8
BLACK
6
CONTINUOUS
10
87.8184
20
-41.201
11
87.7875
21
-41.198
0
LINE
8
BLACK
6
CONTINUOUS
10
87.7875
20
-41.198
11
87.664
21
-41.1858
0
LINE
8
BLACK
6
CONTINUOUS
10
87.664
20
-41.1858
11
87.4659
21
-41.1257
0
LINE
8
BLACK
6
CONTINUOUS
10
87.4659
20
-41.1257
11
87.2833
21
-41.0281
0
LINE
8
BLACK
6
CONTINUOUS
10
87.2833
20
-41.0281
11
87.1232
21
-40.8968
0
LINE
8
BLACK
6
CONTINUOUS
10
87.1232
20
-40.8968
11
86.9919
21
-40.7367
0
LINE
8
BLACK
6
CONTINUOUS
10
86.9919
20
-40.7367
11
86.8943
21
-40.5541
0
LINE
8
BLACK
6
CONTINUOUS
10
86.8943
20
-40.5541
11
86.8342
21
-40.356
0
LINE
8
BLACK
6
CONTINUOUS
10
86.8342
20
-40.356
11
86.8139
21
-40.15
0
LINE
8
BLACK
6
CONTINUOUS
10
86.8139
20
-40.15
11
86.8342
21
-39.944
0
LINE
8
BLACK
6
CONTINUOUS
10
86.8342
20
-39.944
11
86.8943
21
-39.7459
0
LINE
8
BLACK
6
CONTINUOUS
10
86.8943
20
-39.7459
11
86.9919
21
-39.5633
0
LINE
8
BLACK
6
CONTINUOUS
10
86.9919
20
-39.5633
11
87.1232
21
-39.4032
0
LINE
8
BLACK
6
CONTINUOUS
10
87.1232
20
-39.4032
11
87.2833
21
-39.2719
0
LINE
8
BLACK
6
CONTINUOUS
10
87.2833
20
-39.2719
11
87.4659
21
-39.1743
0
LINE
8
BLACK
6
CONTINUOUS
10
87.4659
20
-39.1743
11
87.664
21
-39.1142
0
LINE
8
BLACK
6
CONTINUOUS
10
87.664
20
-39.1142
11
87.7875
21
-39.102
0
LINE
8
BLACK
6
CONTINUOUS
10
87.7875
20
-39.102
11
87.8184
21
-39.099
0
LINE
8
BLACK
6
CONTINUOUS
10
87.8184
20
-39.099
11
87.9216
21
-39.099
0
LINE
8
BLACK
6
CONTINUOUS
10
87.9216
20
-39.099
11
87.9525
21
-39.102
  0
ENDSEC
  0
EOF
