  0
SECTION
  2
HEADER
  9
$ANGBASE
  50
0.0
  9
$ANGDIR
  70
  1
  9
$MEASUREMENT
  70
0
  0
ENDSEC
  0
SECTION
  2
TABLES
  0
TABLE
  2
LTYPE
  70
4
  0
LTYPE
  5
40F
  2
CONTINUOUS
  70
0
  3
Solid line
  72
65
  73
0
  40
0.0
  0
LTYPE
  5
410
  2
DASHDOT
 70
0
  3
Dash Dot ____ _ ____ _
 72
65
 73
4
 40
2.0
 49
1.25
 49
-0.25
 49
0.25
 49
-0.25
  0
LTYPE
  5
411
  2
DASHED
 70
0
  3
Dashed __ __ __ __ __
 72
65
 73
2
 40
0.75
 49
0.5
 49
-0.25
  0
LTYPE
  5
43B
  2
DOTTED
 70
0
  3
Dotted .  .  .  .
 72
65
 73
2
 40
0.2
 49
0.0
 49
-0.2
  0
ENDTAB
  0
TABLE
  2
STYLE
  70
4
  0
STYLE
  2
KICAD
  70
0
  40
0
  41
1
  42
1
  50
0
  71
0
  3
isocp.shx
  0
STYLE
  2
KICADB
  70
0
  40
0
  41
1
  42
1
  50
0
  71
0
  3
isocp.shx
  0
STYLE
  2
KICADI
  70
0
  40
0
  41
1
  42
1
  50
15
  71
0
  3
isocp.shx
  0
STYLE
  2
KICADBI
  70
0
  40
0
  41
1
  42
1
  50
15
  71
0
  3
isocp.shx
  0
ENDTAB
  0
TABLE
  2
LAYER
  70
30
  0
LAYER
  2
BLACK
  70
0
  62
7
  6
CONTINUOUS
  0
LAYER
  2
GRAY1
  70
0
  62
251
  6
CONTINUOUS
  0
LAYER
  2
GRAY2
  70
0
  62
8
  6
CONTINUOUS
  0
LAYER
  2
GRAY3
  70
0
  62
9
  6
CONTINUOUS
  0
LAYER
  2
WHITE
  70
0
  62
7
  6
CONTINUOUS
  0
LAYER
  2
LYELLOW
  70
0
  62
51
  6
CONTINUOUS
  0
LAYER
  2
BLUE1
  70
0
  62
178
  6
CONTINUOUS
  0
LAYER
  2
GREEN1
  70
0
  62
98
  6
CONTINUOUS
  0
LAYER
  2
CYAN1
  70
0
  62
138
  6
CONTINUOUS
  0
LAYER
  2
RED1
  70
0
  62
18
  6
CONTINUOUS
  0
LAYER
  2
MAGENTA1
  70
0
  62
228
  6
CONTINUOUS
  0
LAYER
  2
BROWN1
  70
0
  62
58
  6
CONTINUOUS
  0
LAYER
  2
BLUE2
  70
0
  62
5
  6
CONTINUOUS
  0
LAYER
  2
GREEN2
  70
0
  62
3
  6
CONTINUOUS
  0
LAYER
  2
CYAN2
  70
0
  62
4
  6
CONTINUOUS
  0
LAYER
  2
RED2
  70
0
  62
1
  6
CONTINUOUS
  0
LAYER
  2
MAGENTA2
  70
0
  62
6
  6
CONTINUOUS
  0
LAYER
  2
BROWN2
  70
0
  62
54
  6
CONTINUOUS
  0
LAYER
  2
BLUE3
  70
0
  62
171
  6
CONTINUOUS
  0
LAYER
  2
GREEN3
  70
0
  62
91
  6
CONTINUOUS
  0
LAYER
  2
CYAN3
  70
0
  62
131
  6
CONTINUOUS
  0
LAYER
  2
RED3
  70
0
  62
11
  6
CONTINUOUS
  0
LAYER
  2
MAGENTA3
  70
0
  62
221
  6
CONTINUOUS
  0
LAYER
  2
YELLOW3
  70
0
  62
2
  6
CONTINUOUS
  0
LAYER
  2
BLUE4
  70
0
  62
5
  6
CONTINUOUS
  0
LAYER
  2
GREEN4
  70
0
  62
3
  6
CONTINUOUS
  0
LAYER
  2
CYAN4
  70
0
  62
4
  6
CONTINUOUS
  0
LAYER
  2
RED4
  70
0
  62
1
  6
CONTINUOUS
  0
LAYER
  2
MAGENTA4
  70
0
  62
6
  6
CONTINUOUS
  0
LAYER
  2
YELLOW4
  70
0
  62
2
  6
CONTINUOUS
  0
ENDTAB
  0
ENDSEC
  0
SECTION
  2
ENTITIES
0
LINE
8
BLACK
6
CONTINUOUS
10
115.699
20
-36.24
11
115.708
21
-36.24
0
LINE
8
BLACK
6
CONTINUOUS
10
115.708
20
-36.24
11
115.716
21
-36.243
0
LINE
8
BLACK
6
CONTINUOUS
10
115.716
20
-36.243
11
115.725
21
-36.2446
0
LINE
8
BLACK
6
CONTINUOUS
10
115.725
20
-36.2446
11
115.732
21
-36.249
0
LINE
8
BLACK
6
CONTINUOUS
10
115.732
20
-36.249
11
115.741
21
-36.2521
0
LINE
8
BLACK
6
CONTINUOUS
10
115.741
20
-36.2521
11
115.748
21
-36.2578
0
LINE
8
BLACK
6
CONTINUOUS
10
115.748
20
-36.2578
11
115.755
21
-36.2622
0
LINE
8
BLACK
6
CONTINUOUS
10
115.755
20
-36.2622
11
115.761
21
-36.269
0
LINE
8
BLACK
6
CONTINUOUS
10
115.761
20
-36.269
11
115.768
21
-36.2747
0
LINE
8
BLACK
6
CONTINUOUS
10
115.768
20
-36.2747
11
115.772
21
-36.2824
0
LINE
8
BLACK
6
CONTINUOUS
10
115.772
20
-36.2824
11
115.778
21
-36.2892
0
LINE
8
BLACK
6
CONTINUOUS
10
115.778
20
-36.2892
11
115.781
21
-36.2976
0
LINE
8
BLACK
6
CONTINUOUS
10
115.781
20
-36.2976
11
115.785
21
-36.3053
0
LINE
8
BLACK
6
CONTINUOUS
10
115.785
20
-36.3053
11
115.787
21
-36.314
0
LINE
8
BLACK
6
CONTINUOUS
10
115.787
20
-36.314
11
115.79
21
-36.3224
0
LINE
8
BLACK
6
CONTINUOUS
10
115.79
20
-36.3224
11
115.79
21
-36.3312
0
LINE
8
BLACK
6
CONTINUOUS
10
115.79
20
-36.3312
11
115.79
21
-36.3313
0
LINE
8
BLACK
6
CONTINUOUS
10
115.79
20
-36.3313
11
115.79
21
-104.349
0
LINE
8
BLACK
6
CONTINUOUS
10
115.79
20
-104.349
11
115.79
21
-104.349
0
LINE
8
BLACK
6
CONTINUOUS
10
115.79
20
-104.349
11
115.79
21
-104.358
0
LINE
8
BLACK
6
CONTINUOUS
10
115.79
20
-104.358
11
115.787
21
-104.366
0
LINE
8
BLACK
6
CONTINUOUS
10
115.787
20
-104.366
11
115.785
21
-104.375
0
LINE
8
BLACK
6
CONTINUOUS
10
115.785
20
-104.375
11
115.781
21
-104.382
0
LINE
8
BLACK
6
CONTINUOUS
10
115.781
20
-104.382
11
115.778
21
-104.391
0
LINE
8
BLACK
6
CONTINUOUS
10
115.778
20
-104.391
11
115.772
21
-104.398
0
LINE
8
BLACK
6
CONTINUOUS
10
115.772
20
-104.398
11
115.768
21
-104.405
0
LINE
8
BLACK
6
CONTINUOUS
10
115.768
20
-104.405
11
115.761
21
-104.411
0
LINE
8
BLACK
6
CONTINUOUS
10
115.761
20
-104.411
11
115.755
21
-104.418
0
LINE
8
BLACK
6
CONTINUOUS
10
115.755
20
-104.418
11
115.748
21
-104.422
0
LINE
8
BLACK
6
CONTINUOUS
10
115.748
20
-104.422
11
115.741
21
-104.428
0
LINE
8
BLACK
6
CONTINUOUS
10
115.741
20
-104.428
11
115.732
21
-104.431
0
LINE
8
BLACK
6
CONTINUOUS
10
115.732
20
-104.431
11
115.725
21
-104.435
0
LINE
8
BLACK
6
CONTINUOUS
10
115.725
20
-104.435
11
115.716
21
-104.437
0
LINE
8
BLACK
6
CONTINUOUS
10
115.716
20
-104.437
11
115.708
21
-104.44
0
LINE
8
BLACK
6
CONTINUOUS
10
115.708
20
-104.44
11
115.699
21
-104.44
0
LINE
8
BLACK
6
CONTINUOUS
10
115.699
20
-104.44
11
115.699
21
-104.44
0
LINE
8
BLACK
6
CONTINUOUS
10
115.699
20
-104.44
11
72.6813
21
-104.44
0
LINE
8
BLACK
6
CONTINUOUS
10
72.6813
20
-104.44
11
72.6812
21
-104.44
0
LINE
8
BLACK
6
CONTINUOUS
10
72.6812
20
-104.44
11
72.6724
21
-104.44
0
LINE
8
BLACK
6
CONTINUOUS
10
72.6724
20
-104.44
11
72.664
21
-104.437
0
LINE
8
BLACK
6
CONTINUOUS
10
72.664
20
-104.437
11
72.6553
21
-104.435
0
LINE
8
BLACK
6
CONTINUOUS
10
72.6553
20
-104.435
11
72.6476
21
-104.431
0
LINE
8
BLACK
6
CONTINUOUS
10
72.6476
20
-104.431
11
72.6392
21
-104.428
0
LINE
8
BLACK
6
CONTINUOUS
10
72.6392
20
-104.428
11
72.6324
21
-104.422
0
LINE
8
BLACK
6
CONTINUOUS
10
72.6324
20
-104.422
11
72.6247
21
-104.418
0
LINE
8
BLACK
6
CONTINUOUS
10
72.6247
20
-104.418
11
72.619
21
-104.411
0
LINE
8
BLACK
6
CONTINUOUS
10
72.619
20
-104.411
11
72.6122
21
-104.405
0
LINE
8
BLACK
6
CONTINUOUS
10
72.6122
20
-104.405
11
72.6078
21
-104.398
0
LINE
8
BLACK
6
CONTINUOUS
10
72.6078
20
-104.398
11
72.6021
21
-104.391
0
LINE
8
BLACK
6
CONTINUOUS
10
72.6021
20
-104.391
11
72.599
21
-104.382
0
LINE
8
BLACK
6
CONTINUOUS
10
72.599
20
-104.382
11
72.5946
21
-104.375
0
LINE
8
BLACK
6
CONTINUOUS
10
72.5946
20
-104.375
11
72.593
21
-104.366
0
LINE
8
BLACK
6
CONTINUOUS
10
72.593
20
-104.366
11
72.59
21
-104.358
0
LINE
8
BLACK
6
CONTINUOUS
10
72.59
20
-104.358
11
72.59
21
-104.322
0
LINE
8
BLACK
6
CONTINUOUS
10
72.59
20
-104.322
11
72.59
21
-54.17
0
LINE
8
BLACK
6
CONTINUOUS
10
72.59
20
-54.17
11
65.6813
21
-54.17
0
LINE
8
BLACK
6
CONTINUOUS
10
65.6813
20
-54.17
11
65.6812
21
-54.17
0
LINE
8
BLACK
6
CONTINUOUS
10
65.6812
20
-54.17
11
65.6724
21
-54.17
0
LINE
8
BLACK
6
CONTINUOUS
10
65.6724
20
-54.17
11
65.664
21
-54.167
0
LINE
8
BLACK
6
CONTINUOUS
10
65.664
20
-54.167
11
65.6553
21
-54.1654
0
LINE
8
BLACK
6
CONTINUOUS
10
65.6553
20
-54.1654
11
65.6476
21
-54.161
0
LINE
8
BLACK
6
CONTINUOUS
10
65.6476
20
-54.161
11
65.6392
21
-54.1579
0
LINE
8
BLACK
6
CONTINUOUS
10
65.6392
20
-54.1579
11
65.6324
21
-54.1522
0
LINE
8
BLACK
6
CONTINUOUS
10
65.6324
20
-54.1522
11
65.6247
21
-54.1478
0
LINE
8
BLACK
6
CONTINUOUS
10
65.6247
20
-54.1478
11
65.619
21
-54.141
0
LINE
8
BLACK
6
CONTINUOUS
10
65.619
20
-54.141
11
65.6122
21
-54.1353
0
LINE
8
BLACK
6
CONTINUOUS
10
65.6122
20
-54.1353
11
65.6078
21
-54.1276
0
LINE
8
BLACK
6
CONTINUOUS
10
65.6078
20
-54.1276
11
65.6021
21
-54.1208
0
LINE
8
BLACK
6
CONTINUOUS
10
65.6021
20
-54.1208
11
65.599
21
-54.1124
0
LINE
8
BLACK
6
CONTINUOUS
10
65.599
20
-54.1124
11
65.5946
21
-54.1047
0
LINE
8
BLACK
6
CONTINUOUS
10
65.5946
20
-54.1047
11
65.593
21
-54.096
0
LINE
8
BLACK
6
CONTINUOUS
10
65.593
20
-54.096
11
65.59
21
-54.0876
0
LINE
8
BLACK
6
CONTINUOUS
10
65.59
20
-54.0876
11
65.59
21
-54.0787
0
LINE
8
BLACK
6
CONTINUOUS
10
65.59
20
-54.0787
11
65.59
21
-54.0787
0
LINE
8
BLACK
6
CONTINUOUS
10
65.59
20
-54.0787
11
65.59
21
-36.3313
0
LINE
8
BLACK
6
CONTINUOUS
10
65.59
20
-36.3313
11
65.59
21
-36.3224
0
LINE
8
BLACK
6
CONTINUOUS
10
65.59
20
-36.3224
11
65.593
21
-36.314
0
LINE
8
BLACK
6
CONTINUOUS
10
65.593
20
-36.314
11
65.5946
21
-36.3053
0
LINE
8
BLACK
6
CONTINUOUS
10
65.5946
20
-36.3053
11
65.599
21
-36.2976
0
LINE
8
BLACK
6
CONTINUOUS
10
65.599
20
-36.2976
11
65.6021
21
-36.2892
0
LINE
8
BLACK
6
CONTINUOUS
10
65.6021
20
-36.2892
11
65.6078
21
-36.2824
0
LINE
8
BLACK
6
CONTINUOUS
10
65.6078
20
-36.2824
11
65.6122
21
-36.2747
0
LINE
8
BLACK
6
CONTINUOUS
10
65.6122
20
-36.2747
11
65.619
21
-36.269
0
LINE
8
BLACK
6
CONTINUOUS
10
65.619
20
-36.269
11
65.6247
21
-36.2622
0
LINE
8
BLACK
6
CONTINUOUS
10
65.6247
20
-36.2622
11
65.6324
21
-36.2578
0
LINE
8
BLACK
6
CONTINUOUS
10
65.6324
20
-36.2578
11
65.6392
21
-36.2521
0
LINE
8
BLACK
6
CONTINUOUS
10
65.6392
20
-36.2521
11
65.6476
21
-36.249
0
LINE
8
BLACK
6
CONTINUOUS
10
65.6476
20
-36.249
11
65.6553
21
-36.2446
0
LINE
8
BLACK
6
CONTINUOUS
10
65.6553
20
-36.2446
11
65.664
21
-36.243
0
LINE
8
BLACK
6
CONTINUOUS
10
65.664
20
-36.243
11
65.6724
21
-36.24
0
LINE
8
BLACK
6
CONTINUOUS
10
65.6724
20
-36.24
11
65.6812
21
-36.24
0
LINE
8
BLACK
6
CONTINUOUS
10
65.6812
20
-36.24
11
65.6813
21
-36.24
0
LINE
8
BLACK
6
CONTINUOUS
10
65.6813
20
-36.24
11
115.699
21
-36.24
0
LINE
8
BLACK
6
CONTINUOUS
10
115.699
20
-36.24
11
115.699
21
-36.24
0
LINE
8
BLACK
6
CONTINUOUS
10
65.79
20
-36.44
11
65.79
21
-53.97
0
LINE
8
BLACK
6
CONTINUOUS
10
65.79
20
-53.97
11
72.6987
21
-53.97
0
LINE
8
BLACK
6
CONTINUOUS
10
72.6987
20
-53.97
11
72.6988
21
-53.97
0
LINE
8
BLACK
6
CONTINUOUS
10
72.6988
20
-53.97
11
72.7076
21
-53.97
0
LINE
8
BLACK
6
CONTINUOUS
10
72.7076
20
-53.97
11
72.716
21
-53.973
0
LINE
8
BLACK
6
CONTINUOUS
10
72.716
20
-53.973
11
72.7247
21
-53.9746
0
LINE
8
BLACK
6
CONTINUOUS
10
72.7247
20
-53.9746
11
72.7324
21
-53.979
0
LINE
8
BLACK
6
CONTINUOUS
10
72.7324
20
-53.979
11
72.7408
21
-53.9821
0
LINE
8
BLACK
6
CONTINUOUS
10
72.7408
20
-53.9821
11
72.7476
21
-53.9878
0
LINE
8
BLACK
6
CONTINUOUS
10
72.7476
20
-53.9878
11
72.7553
21
-53.9922
0
LINE
8
BLACK
6
CONTINUOUS
10
72.7553
20
-53.9922
11
72.761
21
-53.999
0
LINE
8
BLACK
6
CONTINUOUS
10
72.761
20
-53.999
11
72.7678
21
-54.0047
0
LINE
8
BLACK
6
CONTINUOUS
10
72.7678
20
-54.0047
11
72.7722
21
-54.0124
0
LINE
8
BLACK
6
CONTINUOUS
10
72.7722
20
-54.0124
11
72.7779
21
-54.0192
0
LINE
8
BLACK
6
CONTINUOUS
10
72.7779
20
-54.0192
11
72.781
21
-54.0276
0
LINE
8
BLACK
6
CONTINUOUS
10
72.781
20
-54.0276
11
72.7854
21
-54.0353
0
LINE
8
BLACK
6
CONTINUOUS
10
72.7854
20
-54.0353
11
72.787
21
-54.044
0
LINE
8
BLACK
6
CONTINUOUS
10
72.787
20
-54.044
11
72.79
21
-54.0524
0
LINE
8
BLACK
6
CONTINUOUS
10
72.79
20
-54.0524
11
72.79
21
-54.0612
0
LINE
8
BLACK
6
CONTINUOUS
10
72.79
20
-54.0612
11
72.79
21
-54.0613
0
LINE
8
BLACK
6
CONTINUOUS
10
72.79
20
-54.0613
11
72.79
21
-104.24
0
LINE
8
BLACK
6
CONTINUOUS
10
72.79
20
-104.24
11
115.59
21
-104.24
0
LINE
8
BLACK
6
CONTINUOUS
10
115.59
20
-104.24
11
115.59
21
-36.44
0
LINE
8
BLACK
6
CONTINUOUS
10
115.59
20
-36.44
11
65.79
21
-36.44
  0
ENDSEC
  0
EOF
