<?xml version="1.0" standalone="no"?>
 <!DOCTYPE svg PUBLIC "-//W3C//DTD SVG 1.1//EN" 
 "http://www.w3.org/Graphics/SVG/1.1/DTD/svg11.dtd"> 
<svg xmlns="http://www.w3.org/2000/svg" version="1.1" 
    width="29.7002cm" height="21.0007cm" viewBox="0 0 116930 82680 ">
<title>SVG Picture created as KEYBORD_PCB_V1-F.Mask.svg date 2021/10/08 13:08:50 </title>
  <desc>Picture generated by PCBNEW </desc>
<g style="fill:#000000; fill-opacity:1;stroke:#000000; stroke-opacity:1;
stroke-linecap:round; stroke-linejoin:round; "
 transform="translate(0 0) scale(1 1)">
</g>
<g style="fill:#000000; fill-opacity:0.0; 
stroke:#000000; stroke-width:-0.000393701; stroke-opacity:1; 
stroke-linecap:round; stroke-linejoin:round;">
</g>
<g style="fill:#000000; fill-opacity:0.0; 
stroke:#000000; stroke-width:39.3701; stroke-opacity:1; 
stroke-linecap:round; stroke-linejoin:round;">
</g>
<g style="fill:#000000; fill-opacity:0.0; 
stroke:#000000; stroke-width:59.0551; stroke-opacity:1; 
stroke-linecap:round; stroke-linejoin:round;">
<rect x="69685.9" y="65357.2" width="42519.7" height="12598.4" rx="0" />
</g>
<g style="fill:#000000; fill-opacity:0.0; 
stroke:#000000; stroke-width:39.3701; stroke-opacity:1; 
stroke-linecap:round; stroke-linejoin:round;">
</g>
<g style="fill:#000000; fill-opacity:0.0; 
stroke:#000000; stroke-width:59.0551; stroke-opacity:1; 
stroke-linecap:round; stroke-linejoin:round;">
<rect x="3937.01" y="3937.01" width="109056" height="74806" rx="0" />
</g>
<g style="fill:#000000; fill-opacity:0.0; 
stroke:#000000; stroke-width:39.3701; stroke-opacity:1; 
stroke-linecap:round; stroke-linejoin:round;">
</g>
<g style="fill:#000000; fill-opacity:0.0; 
stroke:#000000; stroke-width:59.0551; stroke-opacity:1; 
stroke-linecap:round; stroke-linejoin:round;">
<rect x="4724.41" y="4724.41" width="107481" height="73231.2" rx="0" />
</g>
<g style="fill:#000000; fill-opacity:0.0; 
stroke:#000000; stroke-width:39.3701; stroke-opacity:1; 
stroke-linecap:round; stroke-linejoin:round;">
</g>
<g style="fill:#000000; fill-opacity:0.0; 
stroke:#000000; stroke-width:59.0551; stroke-opacity:1; 
stroke-linecap:round; stroke-linejoin:round;">
<path d="M23622 4724
L23622 3937
" />
</g>
<g style="fill:#000000; fill-opacity:0.0; 
stroke:#000000; stroke-width:39.3701; stroke-opacity:1; 
stroke-linecap:round; stroke-linejoin:round;">
</g>
<g style="fill:#000000; fill-opacity:0.0; 
stroke:#000000; stroke-width:59.0551; stroke-opacity:1; 
stroke-linecap:round; stroke-linejoin:round;">
<path d="M43307 4724
L43307 3937
" />
</g>
<g style="fill:#000000; fill-opacity:0.0; 
stroke:#000000; stroke-width:39.3701; stroke-opacity:1; 
stroke-linecap:round; stroke-linejoin:round;">
</g>
<g style="fill:#000000; fill-opacity:0.0; 
stroke:#000000; stroke-width:59.0551; stroke-opacity:1; 
stroke-linecap:round; stroke-linejoin:round;">
<path d="M62992 4724
L62992 3937
" />
</g>
<g style="fill:#000000; fill-opacity:0.0; 
stroke:#000000; stroke-width:39.3701; stroke-opacity:1; 
stroke-linecap:round; stroke-linejoin:round;">
</g>
<g style="fill:#000000; fill-opacity:0.0; 
stroke:#000000; stroke-width:59.0551; stroke-opacity:1; 
stroke-linecap:round; stroke-linejoin:round;">
<path d="M82677 4724
L82677 3937
" />
</g>
<g style="fill:#000000; fill-opacity:0.0; 
stroke:#000000; stroke-width:39.3701; stroke-opacity:1; 
stroke-linecap:round; stroke-linejoin:round;">
</g>
<g style="fill:#000000; fill-opacity:0.0; 
stroke:#000000; stroke-width:59.0551; stroke-opacity:1; 
stroke-linecap:round; stroke-linejoin:round;">
<path d="M102362 4724
L102362 3937
" />
</g>
<g style="fill:#000000; fill-opacity:0.0; 
stroke:#000000; stroke-width:39.3701; stroke-opacity:1; 
stroke-linecap:round; stroke-linejoin:round;">
</g>
<g style="fill:#000000; fill-opacity:0.0; 
stroke:#000000; stroke-width:59.0551; stroke-opacity:1; 
stroke-linecap:round; stroke-linejoin:round;">
<path d="M14199 4562
L13906 4562
" />
<path d="M14052 4562
L14052 4050
L14004 4123
L13955 4172
L13906 4196
" />
</g>
<g style="fill:#000000; fill-opacity:0.0; 
stroke:#000000; stroke-width:39.3701; stroke-opacity:1; 
stroke-linecap:round; stroke-linejoin:round;">
</g>
<g style="fill:#000000; fill-opacity:0.0; 
stroke:#000000; stroke-width:59.0551; stroke-opacity:1; 
stroke-linecap:round; stroke-linejoin:round;">
<path d="M33591 4099
L33615 4074
L33664 4050
L33786 4050
L33835 4074
L33859 4099
L33884 4147
L33884 4196
L33859 4269
L33567 4562
L33884 4562
" />
</g>
<g style="fill:#000000; fill-opacity:0.0; 
stroke:#000000; stroke-width:39.3701; stroke-opacity:1; 
stroke-linecap:round; stroke-linejoin:round;">
</g>
<g style="fill:#000000; fill-opacity:0.0; 
stroke:#000000; stroke-width:59.0551; stroke-opacity:1; 
stroke-linecap:round; stroke-linejoin:round;">
<path d="M53252 4050
L53569 4050
L53398 4245
L53471 4245
L53520 4269
L53544 4294
L53569 4342
L53569 4464
L53544 4513
L53520 4537
L53471 4562
L53325 4562
L53276 4537
L53252 4513
" />
</g>
<g style="fill:#000000; fill-opacity:0.0; 
stroke:#000000; stroke-width:39.3701; stroke-opacity:1; 
stroke-linecap:round; stroke-linejoin:round;">
</g>
<g style="fill:#000000; fill-opacity:0.0; 
stroke:#000000; stroke-width:59.0551; stroke-opacity:1; 
stroke-linecap:round; stroke-linejoin:round;">
<path d="M73205 4221
L73205 4562
" />
<path d="M73083 4026
L72961 4391
L73278 4391
" />
</g>
<g style="fill:#000000; fill-opacity:0.0; 
stroke:#000000; stroke-width:39.3701; stroke-opacity:1; 
stroke-linecap:round; stroke-linejoin:round;">
</g>
<g style="fill:#000000; fill-opacity:0.0; 
stroke:#000000; stroke-width:59.0551; stroke-opacity:1; 
stroke-linecap:round; stroke-linejoin:round;">
<path d="M92914 4050
L92671 4050
L92646 4294
L92671 4269
L92719 4245
L92841 4245
L92890 4269
L92914 4294
L92939 4342
L92939 4464
L92914 4513
L92890 4537
L92841 4562
L92719 4562
L92671 4537
L92646 4513
" />
</g>
<g style="fill:#000000; fill-opacity:0.0; 
stroke:#000000; stroke-width:39.3701; stroke-opacity:1; 
stroke-linecap:round; stroke-linejoin:round;">
</g>
<g style="fill:#000000; fill-opacity:0.0; 
stroke:#000000; stroke-width:59.0551; stroke-opacity:1; 
stroke-linecap:round; stroke-linejoin:round;">
<path d="M112575 4050
L112477 4050
L112429 4074
L112404 4099
L112356 4172
L112331 4269
L112331 4464
L112356 4513
L112380 4537
L112429 4562
L112526 4562
L112575 4537
L112599 4513
L112624 4464
L112624 4342
L112599 4294
L112575 4269
L112526 4245
L112429 4245
L112380 4269
L112356 4294
L112331 4342
" />
</g>
<g style="fill:#000000; fill-opacity:0.0; 
stroke:#000000; stroke-width:39.3701; stroke-opacity:1; 
stroke-linecap:round; stroke-linejoin:round;">
</g>
<g style="fill:#000000; fill-opacity:0.0; 
stroke:#000000; stroke-width:59.0551; stroke-opacity:1; 
stroke-linecap:round; stroke-linejoin:round;">
<path d="M23622 77955
L23622 78742
" />
</g>
<g style="fill:#000000; fill-opacity:0.0; 
stroke:#000000; stroke-width:39.3701; stroke-opacity:1; 
stroke-linecap:round; stroke-linejoin:round;">
</g>
<g style="fill:#000000; fill-opacity:0.0; 
stroke:#000000; stroke-width:59.0551; stroke-opacity:1; 
stroke-linecap:round; stroke-linejoin:round;">
<path d="M43307 77955
L43307 78742
" />
</g>
<g style="fill:#000000; fill-opacity:0.0; 
stroke:#000000; stroke-width:39.3701; stroke-opacity:1; 
stroke-linecap:round; stroke-linejoin:round;">
</g>
<g style="fill:#000000; fill-opacity:0.0; 
stroke:#000000; stroke-width:59.0551; stroke-opacity:1; 
stroke-linecap:round; stroke-linejoin:round;">
<path d="M62992 77955
L62992 78742
" />
</g>
<g style="fill:#000000; fill-opacity:0.0; 
stroke:#000000; stroke-width:39.3701; stroke-opacity:1; 
stroke-linecap:round; stroke-linejoin:round;">
</g>
<g style="fill:#000000; fill-opacity:0.0; 
stroke:#000000; stroke-width:59.0551; stroke-opacity:1; 
stroke-linecap:round; stroke-linejoin:round;">
<path d="M82677 77955
L82677 78742
" />
</g>
<g style="fill:#000000; fill-opacity:0.0; 
stroke:#000000; stroke-width:39.3701; stroke-opacity:1; 
stroke-linecap:round; stroke-linejoin:round;">
</g>
<g style="fill:#000000; fill-opacity:0.0; 
stroke:#000000; stroke-width:59.0551; stroke-opacity:1; 
stroke-linecap:round; stroke-linejoin:round;">
<path d="M102362 77955
L102362 78742
" />
</g>
<g style="fill:#000000; fill-opacity:0.0; 
stroke:#000000; stroke-width:39.3701; stroke-opacity:1; 
stroke-linecap:round; stroke-linejoin:round;">
</g>
<g style="fill:#000000; fill-opacity:0.0; 
stroke:#000000; stroke-width:59.0551; stroke-opacity:1; 
stroke-linecap:round; stroke-linejoin:round;">
<path d="M14199 78580
L13906 78580
" />
<path d="M14052 78580
L14052 78069
L14004 78142
L13955 78190
L13906 78215
" />
</g>
<g style="fill:#000000; fill-opacity:0.0; 
stroke:#000000; stroke-width:39.3701; stroke-opacity:1; 
stroke-linecap:round; stroke-linejoin:round;">
</g>
<g style="fill:#000000; fill-opacity:0.0; 
stroke:#000000; stroke-width:59.0551; stroke-opacity:1; 
stroke-linecap:round; stroke-linejoin:round;">
<path d="M33591 78117
L33615 78093
L33664 78069
L33786 78069
L33835 78093
L33859 78117
L33884 78166
L33884 78215
L33859 78288
L33567 78580
L33884 78580
" />
</g>
<g style="fill:#000000; fill-opacity:0.0; 
stroke:#000000; stroke-width:39.3701; stroke-opacity:1; 
stroke-linecap:round; stroke-linejoin:round;">
</g>
<g style="fill:#000000; fill-opacity:0.0; 
stroke:#000000; stroke-width:59.0551; stroke-opacity:1; 
stroke-linecap:round; stroke-linejoin:round;">
<path d="M53252 78069
L53569 78069
L53398 78263
L53471 78263
L53520 78288
L53544 78312
L53569 78361
L53569 78483
L53544 78532
L53520 78556
L53471 78580
L53325 78580
L53276 78556
L53252 78532
" />
</g>
<g style="fill:#000000; fill-opacity:0.0; 
stroke:#000000; stroke-width:39.3701; stroke-opacity:1; 
stroke-linecap:round; stroke-linejoin:round;">
</g>
<g style="fill:#000000; fill-opacity:0.0; 
stroke:#000000; stroke-width:59.0551; stroke-opacity:1; 
stroke-linecap:round; stroke-linejoin:round;">
<path d="M73205 78239
L73205 78580
" />
<path d="M73083 78044
L72961 78410
L73278 78410
" />
</g>
<g style="fill:#000000; fill-opacity:0.0; 
stroke:#000000; stroke-width:39.3701; stroke-opacity:1; 
stroke-linecap:round; stroke-linejoin:round;">
</g>
<g style="fill:#000000; fill-opacity:0.0; 
stroke:#000000; stroke-width:59.0551; stroke-opacity:1; 
stroke-linecap:round; stroke-linejoin:round;">
<path d="M92914 78069
L92671 78069
L92646 78312
L92671 78288
L92719 78263
L92841 78263
L92890 78288
L92914 78312
L92939 78361
L92939 78483
L92914 78532
L92890 78556
L92841 78580
L92719 78580
L92671 78556
L92646 78532
" />
</g>
<g style="fill:#000000; fill-opacity:0.0; 
stroke:#000000; stroke-width:39.3701; stroke-opacity:1; 
stroke-linecap:round; stroke-linejoin:round;">
</g>
<g style="fill:#000000; fill-opacity:0.0; 
stroke:#000000; stroke-width:59.0551; stroke-opacity:1; 
stroke-linecap:round; stroke-linejoin:round;">
<path d="M112575 78069
L112477 78069
L112429 78093
L112404 78117
L112356 78190
L112331 78288
L112331 78483
L112356 78532
L112380 78556
L112429 78580
L112526 78580
L112575 78556
L112599 78532
L112624 78483
L112624 78361
L112599 78312
L112575 78288
L112526 78263
L112429 78263
L112380 78288
L112356 78312
L112331 78361
" />
</g>
<g style="fill:#000000; fill-opacity:0.0; 
stroke:#000000; stroke-width:39.3701; stroke-opacity:1; 
stroke-linecap:round; stroke-linejoin:round;">
</g>
<g style="fill:#000000; fill-opacity:0.0; 
stroke:#000000; stroke-width:59.0551; stroke-opacity:1; 
stroke-linecap:round; stroke-linejoin:round;">
<path d="M3937 23622
L4724 23622
" />
</g>
<g style="fill:#000000; fill-opacity:0.0; 
stroke:#000000; stroke-width:39.3701; stroke-opacity:1; 
stroke-linecap:round; stroke-linejoin:round;">
</g>
<g style="fill:#000000; fill-opacity:0.0; 
stroke:#000000; stroke-width:59.0551; stroke-opacity:1; 
stroke-linecap:round; stroke-linejoin:round;">
<path d="M3937 43307
L4724 43307
" />
</g>
<g style="fill:#000000; fill-opacity:0.0; 
stroke:#000000; stroke-width:39.3701; stroke-opacity:1; 
stroke-linecap:round; stroke-linejoin:round;">
</g>
<g style="fill:#000000; fill-opacity:0.0; 
stroke:#000000; stroke-width:59.0551; stroke-opacity:1; 
stroke-linecap:round; stroke-linejoin:round;">
<path d="M3937 62992
L4724 62992
" />
</g>
<g style="fill:#000000; fill-opacity:0.0; 
stroke:#000000; stroke-width:39.3701; stroke-opacity:1; 
stroke-linecap:round; stroke-linejoin:round;">
</g>
<g style="fill:#000000; fill-opacity:0.0; 
stroke:#000000; stroke-width:59.0551; stroke-opacity:1; 
stroke-linecap:round; stroke-linejoin:round;">
<path d="M4208 13864
L4452 13864
" />
<path d="M4160 14011
L4330 13499
L4501 14011
" />
</g>
<g style="fill:#000000; fill-opacity:0.0; 
stroke:#000000; stroke-width:39.3701; stroke-opacity:1; 
stroke-linecap:round; stroke-linejoin:round;">
</g>
<g style="fill:#000000; fill-opacity:0.0; 
stroke:#000000; stroke-width:59.0551; stroke-opacity:1; 
stroke-linecap:round; stroke-linejoin:round;">
<path d="M4367 33428
L4440 33452
L4464 33476
L4489 33525
L4489 33598
L4464 33647
L4440 33671
L4391 33696
L4196 33696
L4196 33184
L4367 33184
L4416 33208
L4440 33233
L4464 33281
L4464 33330
L4440 33379
L4416 33403
L4367 33428
L4196 33428
" />
</g>
<g style="fill:#000000; fill-opacity:0.0; 
stroke:#000000; stroke-width:39.3701; stroke-opacity:1; 
stroke-linecap:round; stroke-linejoin:round;">
</g>
<g style="fill:#000000; fill-opacity:0.0; 
stroke:#000000; stroke-width:59.0551; stroke-opacity:1; 
stroke-linecap:round; stroke-linejoin:round;">
<path d="M4489 53332
L4464 53356
L4391 53381
L4342 53381
L4269 53356
L4221 53308
L4196 53259
L4172 53161
L4172 53088
L4196 52991
L4221 52942
L4269 52893
L4342 52869
L4391 52869
L4464 52893
L4489 52918
" />
</g>
<g style="fill:#000000; fill-opacity:0.0; 
stroke:#000000; stroke-width:39.3701; stroke-opacity:1; 
stroke-linecap:round; stroke-linejoin:round;">
</g>
<g style="fill:#000000; fill-opacity:0.0; 
stroke:#000000; stroke-width:59.0551; stroke-opacity:1; 
stroke-linecap:round; stroke-linejoin:round;">
<path d="M4196 73066
L4196 72554
L4318 72554
L4391 72578
L4440 72627
L4464 72676
L4489 72773
L4489 72846
L4464 72944
L4440 72993
L4391 73041
L4318 73066
L4196 73066
" />
</g>
<g style="fill:#000000; fill-opacity:0.0; 
stroke:#000000; stroke-width:39.3701; stroke-opacity:1; 
stroke-linecap:round; stroke-linejoin:round;">
</g>
<g style="fill:#000000; fill-opacity:0.0; 
stroke:#000000; stroke-width:59.0551; stroke-opacity:1; 
stroke-linecap:round; stroke-linejoin:round;">
<path d="M112992 23622
L112205 23622
" />
</g>
<g style="fill:#000000; fill-opacity:0.0; 
stroke:#000000; stroke-width:39.3701; stroke-opacity:1; 
stroke-linecap:round; stroke-linejoin:round;">
</g>
<g style="fill:#000000; fill-opacity:0.0; 
stroke:#000000; stroke-width:59.0551; stroke-opacity:1; 
stroke-linecap:round; stroke-linejoin:round;">
<path d="M112992 43307
L112205 43307
" />
</g>
<g style="fill:#000000; fill-opacity:0.0; 
stroke:#000000; stroke-width:39.3701; stroke-opacity:1; 
stroke-linecap:round; stroke-linejoin:round;">
</g>
<g style="fill:#000000; fill-opacity:0.0; 
stroke:#000000; stroke-width:59.0551; stroke-opacity:1; 
stroke-linecap:round; stroke-linejoin:round;">
<path d="M112992 62992
L112205 62992
" />
</g>
<g style="fill:#000000; fill-opacity:0.0; 
stroke:#000000; stroke-width:39.3701; stroke-opacity:1; 
stroke-linecap:round; stroke-linejoin:round;">
</g>
<g style="fill:#000000; fill-opacity:0.0; 
stroke:#000000; stroke-width:59.0551; stroke-opacity:1; 
stroke-linecap:round; stroke-linejoin:round;">
<path d="M112477 13864
L112721 13864
" />
<path d="M112428 14011
L112599 13499
L112769 14011
" />
</g>
<g style="fill:#000000; fill-opacity:0.0; 
stroke:#000000; stroke-width:39.3701; stroke-opacity:1; 
stroke-linecap:round; stroke-linejoin:round;">
</g>
<g style="fill:#000000; fill-opacity:0.0; 
stroke:#000000; stroke-width:59.0551; stroke-opacity:1; 
stroke-linecap:round; stroke-linejoin:round;">
<path d="M112635 33428
L112708 33452
L112733 33476
L112757 33525
L112757 33598
L112733 33647
L112708 33671
L112660 33696
L112465 33696
L112465 33184
L112635 33184
L112684 33208
L112708 33233
L112733 33281
L112733 33330
L112708 33379
L112684 33403
L112635 33428
L112465 33428
" />
</g>
<g style="fill:#000000; fill-opacity:0.0; 
stroke:#000000; stroke-width:39.3701; stroke-opacity:1; 
stroke-linecap:round; stroke-linejoin:round;">
</g>
<g style="fill:#000000; fill-opacity:0.0; 
stroke:#000000; stroke-width:59.0551; stroke-opacity:1; 
stroke-linecap:round; stroke-linejoin:round;">
<path d="M112757 53332
L112733 53356
L112660 53381
L112611 53381
L112538 53356
L112489 53308
L112465 53259
L112440 53161
L112440 53088
L112465 52991
L112489 52942
L112538 52893
L112611 52869
L112660 52869
L112733 52893
L112757 52918
" />
</g>
<g style="fill:#000000; fill-opacity:0.0; 
stroke:#000000; stroke-width:39.3701; stroke-opacity:1; 
stroke-linecap:round; stroke-linejoin:round;">
</g>
<g style="fill:#000000; fill-opacity:0.0; 
stroke:#000000; stroke-width:59.0551; stroke-opacity:1; 
stroke-linecap:round; stroke-linejoin:round;">
<path d="M112465 73066
L112465 72554
L112587 72554
L112660 72578
L112708 72627
L112733 72676
L112757 72773
L112757 72846
L112733 72944
L112708 72993
L112660 73041
L112587 73066
L112465 73066
" />
</g>
<g style="fill:#000000; fill-opacity:0.0; 
stroke:#000000; stroke-width:39.3701; stroke-opacity:1; 
stroke-linecap:round; stroke-linejoin:round;">
</g>
<g style="fill:#000000; fill-opacity:0.0; 
stroke:#000000; stroke-width:59.0551; stroke-opacity:1; 
stroke-linecap:round; stroke-linejoin:round;">
<path d="M78911 76293
L78911 75703
L79051 75703
L79136 75731
L79192 75787
L79220 75843
L79248 75956
L79248 76040
L79220 76153
L79192 76209
L79136 76265
L79051 76293
L78911 76293
" />
<path d="M79754 76293
L79754 75984
L79726 75928
L79670 75899
L79557 75899
L79501 75928
" />
<path d="M79754 76265
L79698 76293
L79557 76293
L79501 76265
L79473 76209
L79473 76153
L79501 76096
L79557 76068
L79698 76068
L79754 76040
" />
<path d="M79951 75899
L80176 75899
" />
<path d="M80036 75703
L80036 76209
L80064 76265
L80120 76293
L80176 76293
" />
<path d="M80598 76265
L80542 76293
L80429 76293
L80373 76265
L80345 76209
L80345 75984
L80373 75928
L80429 75899
L80542 75899
L80598 75928
L80626 75984
L80626 76040
L80345 76096
" />
<path d="M80879 76237
L80907 76265
L80879 76293
L80851 76265
L80879 76237
L80879 76293
" />
<path d="M80879 75928
L80907 75956
L80879 75984
L80851 75956
L80879 75928
L80879 75984
" />
</g>
<g style="fill:#000000; fill-opacity:0.0; 
stroke:#000000; stroke-width:39.3701; stroke-opacity:1; 
stroke-linecap:round; stroke-linejoin:round;">
</g>
<g style="fill:#000000; fill-opacity:0.0; 
stroke:#000000; stroke-width:59.0551; stroke-opacity:1; 
stroke-linecap:round; stroke-linejoin:round;">
<path d="M69685 76577
L112205 76577
" />
</g>
<g style="fill:#000000; fill-opacity:0.0; 
stroke:#000000; stroke-width:39.3701; stroke-opacity:1; 
stroke-linecap:round; stroke-linejoin:round;">
</g>
<g style="fill:#000000; fill-opacity:0.0; 
stroke:#000000; stroke-width:59.0551; stroke-opacity:1; 
stroke-linecap:round; stroke-linejoin:round;">
<path d="M70249 77395
L70249 76805
" />
<path d="M70587 77395
L70334 77058
" />
<path d="M70587 76805
L70249 77142
" />
<path d="M70840 77395
L70840 77002
" />
<path d="M70840 76805
L70812 76833
L70840 76861
L70868 76833
L70840 76805
L70840 76861
" />
<path d="M71458 77339
L71430 77367
L71346 77395
L71290 77395
L71205 77367
L71149 77311
L71121 77255
L71093 77142
L71093 77058
L71121 76946
L71149 76889
L71205 76833
L71290 76805
L71346 76805
L71430 76833
L71458 76861
" />
<path d="M71965 77395
L71965 77086
L71937 77030
L71880 77002
L71768 77002
L71712 77030
" />
<path d="M71965 77367
L71908 77395
L71768 77395
L71712 77367
L71683 77311
L71683 77255
L71712 77199
L71768 77171
L71908 77171
L71965 77142
" />
<path d="M72499 77395
L72499 76805
" />
<path d="M72499 77367
L72443 77395
L72330 77395
L72274 77367
L72246 77339
L72218 77283
L72218 77114
L72246 77058
L72274 77030
L72330 77002
L72443 77002
L72499 77030
" />
<path d="M73230 77086
L73427 77086
" />
<path d="M73511 77395
L73230 77395
L73230 76805
L73511 76805
" />
<path d="M73764 77339
L73793 77367
L73764 77395
L73736 77367
L73764 77339
L73764 77395
" />
<path d="M74046 77395
L74046 76805
L74186 76805
L74271 76833
L74327 76889
L74355 76946
L74383 77058
L74383 77142
L74355 77255
L74327 77311
L74271 77367
L74186 77395
L74046 77395
" />
<path d="M74636 77339
L74664 77367
L74636 77395
L74608 77367
L74636 77339
L74636 77395
" />
<path d="M74889 77227
L75171 77227
" />
<path d="M74833 77395
L75030 76805
L75227 77395
" />
<path d="M75424 77339
L75452 77367
L75424 77395
L75395 77367
L75424 77339
L75424 77395
" />
<path d="M76605 77395
L76605 76805
" />
<path d="M76661 77171
L76830 77395
" />
<path d="M76830 77002
L76605 77227
" />
<path d="M77083 77395
L77083 77002
" />
<path d="M77083 76805
L77055 76833
L77083 76861
L77111 76833
L77083 76805
L77083 76861
" />
<path d="M77617 77367
L77561 77395
L77448 77395
L77392 77367
L77364 77339
L77336 77283
L77336 77114
L77364 77058
L77392 77030
L77448 77002
L77561 77002
L77617 77030
" />
<path d="M78123 77395
L78123 77086
L78095 77030
L78039 77002
L77926 77002
L77870 77030
" />
<path d="M78123 77367
L78067 77395
L77926 77395
L77870 77367
L77842 77311
L77842 77255
L77870 77199
L77926 77171
L78067 77171
L78123 77142
" />
<path d="M78658 77395
L78658 76805
" />
<path d="M78658 77367
L78601 77395
L78489 77395
L78433 77367
L78404 77339
L78376 77283
L78376 77114
L78404 77058
L78433 77030
L78489 77002
L78601 77002
L78658 77030
" />
<path d="M79670 76805
L79389 76805
L79361 77086
L79389 77058
L79445 77030
L79586 77030
L79642 77058
L79670 77086
L79698 77142
L79698 77283
L79670 77339
L79642 77367
L79586 77395
L79445 77395
L79389 77367
L79361 77339
" />
<path d="M79951 77339
L79979 77367
L79951 77395
L79923 77367
L79951 77339
L79951 77395
" />
<path d="M80345 76805
L80401 76805
L80457 76833
L80485 76861
L80514 76917
L80542 77030
L80542 77171
L80514 77283
L80485 77339
L80457 77367
L80401 77395
L80345 77395
L80289 77367
L80260 77339
L80232 77283
L80204 77171
L80204 77030
L80232 76917
L80260 76861
L80289 76833
L80345 76805
" />
<path d="M80795 77339
L80823 77367
L80795 77395
L80767 77367
L80795 77339
L80795 77395
" />
<path d="M81048 76861
L81076 76833
L81132 76805
L81273 76805
L81329 76833
L81357 76861
L81385 76917
L81385 76974
L81357 77058
L81020 77395
L81385 77395
" />
<path d="M81638 77171
L82088 77171
" />
<path d="M81863 77395
L81863 76946
" />
<path d="M82623 77395
L82623 76805
" />
<path d="M82623 77367
L82566 77395
L82454 77395
L82398 77367
L82370 77339
L82341 77283
L82341 77114
L82370 77058
L82398 77030
L82454 77002
L82566 77002
L82623 77030
" />
<path d="M82820 77002
L83045 77002
" />
<path d="M82904 77395
L82904 76889
L82932 76833
L82988 76805
L83045 76805
" />
<path d="M83213 77367
L83269 77395
L83382 77395
L83438 77367
L83466 77311
L83466 77283
L83438 77227
L83382 77199
L83298 77199
L83241 77171
L83213 77114
L83213 77086
L83241 77030
L83298 77002
L83382 77002
L83438 77030
" />
<path d="M83973 77002
L83973 77480
L83944 77536
L83916 77564
L83860 77592
L83776 77592
L83719 77564
" />
<path d="M83973 77367
L83916 77395
L83804 77395
L83748 77367
L83719 77339
L83691 77283
L83691 77114
L83719 77058
L83748 77030
L83804 77002
L83916 77002
L83973 77030
" />
<path d="M84563 77395
L84226 77395
" />
<path d="M84394 77395
L84394 76805
L84338 76889
L84282 76946
L84226 76974
" />
<path d="M84816 77171
L85266 77171
" />
<path d="M85857 77395
L85519 77395
" />
<path d="M85688 77395
L85688 76805
L85632 76889
L85575 76946
L85519 76974
" />
</g>
<g style="fill:#000000; fill-opacity:0.0; 
stroke:#000000; stroke-width:39.3701; stroke-opacity:1; 
stroke-linecap:round; stroke-linejoin:round;">
</g>
<g style="fill:#000000; fill-opacity:0.0; 
stroke:#000000; stroke-width:59.0551; stroke-opacity:1; 
stroke-linecap:round; stroke-linejoin:round;">
<path d="M69685 75396
L112205 75396
" />
</g>
<g style="fill:#000000; fill-opacity:0.0; 
stroke:#000000; stroke-width:39.3701; stroke-opacity:1; 
stroke-linecap:round; stroke-linejoin:round;">
</g>
<g style="fill:#000000; fill-opacity:0.0; 
stroke:#000000; stroke-width:118.11; stroke-opacity:1; 
stroke-linecap:round; stroke-linejoin:round;">
<path d="M104099 76293
L103902 76012
" />
<path d="M103761 76293
L103761 75703
L103986 75703
L104042 75731
L104070 75759
L104099 75815
L104099 75899
L104070 75956
L104042 75984
L103986 76012
L103761 76012
" />
<path d="M104577 76265
L104520 76293
L104408 76293
L104352 76265
L104323 76209
L104323 75984
L104352 75928
L104408 75899
L104520 75899
L104577 75928
L104605 75984
L104605 76040
L104323 76096
" />
<path d="M104802 75899
L104942 76293
L105083 75899
" />
<path d="M105308 76237
L105336 76265
L105308 76293
L105280 76265
L105308 76237
L105308 76293
" />
<path d="M105308 75928
L105336 75956
L105308 75984
L105280 75956
L105308 75928
L105308 75984
" />
</g>
<g style="fill:#000000; fill-opacity:0.0; 
stroke:#000000; stroke-width:39.3701; stroke-opacity:1; 
stroke-linecap:round; stroke-linejoin:round;">
</g>
<g style="fill:#000000; fill-opacity:0.0; 
stroke:#000000; stroke-width:59.0551; stroke-opacity:1; 
stroke-linecap:round; stroke-linejoin:round;">
<path d="M70221 76265
L70305 76293
L70446 76293
L70502 76265
L70530 76237
L70559 76181
L70559 76124
L70530 76068
L70502 76040
L70446 76012
L70334 75984
L70277 75956
L70249 75928
L70221 75871
L70221 75815
L70249 75759
L70277 75731
L70334 75703
L70474 75703
L70559 75731
" />
<path d="M70812 76293
L70812 75899
" />
<path d="M70812 75703
L70784 75731
L70812 75759
L70840 75731
L70812 75703
L70812 75759
" />
<path d="M71037 75899
L71346 75899
L71037 76293
L71346 76293
" />
<path d="M71796 76265
L71740 76293
L71627 76293
L71571 76265
L71543 76209
L71543 75984
L71571 75928
L71627 75899
L71740 75899
L71796 75928
L71824 75984
L71824 76040
L71543 76096
" />
<path d="M72077 76237
L72105 76265
L72077 76293
L72049 76265
L72077 76237
L72077 76293
" />
<path d="M72077 75928
L72105 75956
L72077 75984
L72049 75956
L72077 75928
L72077 75984
" />
<path d="M72780 76124
L73061 76124
" />
<path d="M72724 76293
L72921 75703
L73118 76293
" />
<path d="M73568 75899
L73568 76293
" />
<path d="M73427 75674
L73286 76096
L73652 76096
" />
</g>
<g style="fill:#000000; fill-opacity:0.0; 
stroke:#000000; stroke-width:39.3701; stroke-opacity:1; 
stroke-linecap:round; stroke-linejoin:round;">
</g>
<g style="fill:#000000; fill-opacity:0.0; 
stroke:#000000; stroke-width:59.0551; stroke-opacity:1; 
stroke-linecap:round; stroke-linejoin:round;">
<path d="M103714 77395
L103714 76805
" />
<path d="M104248 77395
L104248 76805
" />
<path d="M104248 77367
L104192 77395
L104079 77395
L104023 77367
L103995 77339
L103967 77283
L103967 77114
L103995 77058
L104023 77030
L104079 77002
L104192 77002
L104248 77030
" />
<path d="M104529 77339
L104557 77367
L104529 77395
L104501 77367
L104529 77339
L104529 77395
" />
<path d="M104529 77030
L104557 77058
L104529 77086
L104501 77058
L104529 77030
L104529 77086
" />
<path d="M105570 77395
L105232 77395
" />
<path d="M105401 77395
L105401 76805
L105345 76889
L105289 76946
L105232 76974
" />
<path d="M106245 76777
L105739 77536
" />
<path d="M106751 77395
L106413 77395
" />
<path d="M106582 77395
L106582 76805
L106526 76889
L106470 76946
L106413 76974
" />
</g>
<g style="fill:#000000; fill-opacity:0.0; 
stroke:#000000; stroke-width:39.3701; stroke-opacity:1; 
stroke-linecap:round; stroke-linejoin:round;">
</g>
<g style="fill:#000000; fill-opacity:0.0; 
stroke:#000000; stroke-width:59.0551; stroke-opacity:1; 
stroke-linecap:round; stroke-linejoin:round;">
<path d="M69685 73821
L112205 73821
" />
</g>
<g style="fill:#000000; fill-opacity:0.0; 
stroke:#000000; stroke-width:39.3701; stroke-opacity:1; 
stroke-linecap:round; stroke-linejoin:round;">
</g>
<g style="fill:#000000; fill-opacity:0.0; 
stroke:#000000; stroke-width:157.48; stroke-opacity:1; 
stroke-linecap:round; stroke-linejoin:round;">
<path d="M70360 74099
L70810 74099
" />
<path d="M70486 74886
L70585 74099
" />
<path d="M70974 74886
L71039 74361
" />
<path d="M71072 74099
L71030 74136
L71063 74174
L71105 74136
L71072 74099
L71063 74174
" />
<path d="M71302 74361
L71602 74361
" />
<path d="M71447 74099
L71363 74774
L71391 74849
L71461 74886
L71536 74886
" />
<path d="M71911 74886
L71841 74849
L71813 74774
L71897 74099
" />
<path d="M72516 74849
L72436 74886
L72286 74886
L72216 74849
L72187 74774
L72225 74474
L72272 74399
L72352 74361
L72501 74361
L72572 74399
L72600 74474
L72591 74549
L72206 74624
" />
<path d="M72895 74811
L72928 74849
L72886 74886
L72853 74849
L72895 74811
L72886 74886
" />
<path d="M72947 74399
L72980 74436
L72937 74474
L72905 74436
L72947 74399
L72937 74474
" />
</g>
<g style="fill:#000000; fill-opacity:0.0; 
stroke:#000000; stroke-width:39.3701; stroke-opacity:1; 
stroke-linecap:round; stroke-linejoin:round;">
</g>
<g style="fill:#000000; fill-opacity:0.0; 
stroke:#000000; stroke-width:59.0551; stroke-opacity:1; 
stroke-linecap:round; stroke-linejoin:round;">
<path d="M70446 73070
L70249 73070
" />
<path d="M70249 73380
L70249 72789
L70530 72789
" />
<path d="M70755 73380
L70755 72986
" />
<path d="M70755 72789
L70727 72817
L70755 72845
L70784 72817
L70755 72789
L70755 72845
" />
<path d="M71121 73380
L71065 73352
L71037 73295
L71037 72789
" />
<path d="M71571 73352
L71515 73380
L71402 73380
L71346 73352
L71318 73295
L71318 73070
L71346 73014
L71402 72986
L71515 72986
L71571 73014
L71599 73070
L71599 73127
L71318 73183
" />
<path d="M71852 73323
L71880 73352
L71852 73380
L71824 73352
L71852 73323
L71852 73380
" />
<path d="M71852 73014
L71880 73042
L71852 73070
L71824 73042
L71852 73014
L71852 73070
" />
<path d="M72583 73380
L72583 72789
" />
<path d="M72921 73380
L72668 73042
" />
<path d="M72921 72789
L72583 73127
" />
<path d="M73174 73070
L73371 73070
" />
<path d="M73455 73380
L73174 73380
L73174 72789
L73455 72789
" />
<path d="M73821 73099
L73821 73380
" />
<path d="M73624 72789
L73821 73099
L74018 72789
" />
<path d="M74411 73070
L74496 73099
L74524 73127
L74552 73183
L74552 73267
L74524 73323
L74496 73352
L74439 73380
L74214 73380
L74214 72789
L74411 72789
L74467 72817
L74496 72845
L74524 72902
L74524 72958
L74496 73014
L74467 73042
L74411 73070
L74214 73070
" />
<path d="M74917 72789
L75030 72789
L75086 72817
L75142 72874
L75171 72986
L75171 73183
L75142 73295
L75086 73352
L75030 73380
L74917 73380
L74861 73352
L74805 73295
L74777 73183
L74777 72986
L74805 72874
L74861 72817
L74917 72789
" />
<path d="M75761 73380
L75564 73099
" />
<path d="M75424 73380
L75424 72789
L75649 72789
L75705 72817
L75733 72845
L75761 72902
L75761 72986
L75733 73042
L75705 73070
L75649 73099
L75424 73099
" />
<path d="M76014 73380
L76014 72789
L76155 72789
L76239 72817
L76295 72874
L76323 72930
L76352 73042
L76352 73127
L76323 73239
L76295 73295
L76239 73352
L76155 73380
L76014 73380
" />
<path d="M76464 73436
L76914 73436
" />
<path d="M77055 73380
L77055 72789
L77280 72789
L77336 72817
L77364 72845
L77392 72902
L77392 72986
L77364 73042
L77336 73070
L77280 73099
L77055 73099
" />
<path d="M77983 73323
L77955 73352
L77870 73380
L77814 73380
L77730 73352
L77673 73295
L77645 73239
L77617 73127
L77617 73042
L77645 72930
L77673 72874
L77730 72817
L77814 72789
L77870 72789
L77955 72817
L77983 72845
" />
<path d="M78433 73070
L78517 73099
L78545 73127
L78573 73183
L78573 73267
L78545 73323
L78517 73352
L78461 73380
L78236 73380
L78236 72789
L78433 72789
L78489 72817
L78517 72845
L78545 72902
L78545 72958
L78517 73014
L78489 73042
L78433 73070
L78236 73070
" />
<path d="M78686 73436
L79136 73436
" />
<path d="M79192 72789
L79389 73380
L79586 72789
" />
<path d="M80092 73380
L79754 73380
" />
<path d="M79923 73380
L79923 72789
L79867 72874
L79811 72930
L79754 72958
" />
<path d="M80345 73323
L80373 73352
L80345 73380
L80317 73352
L80345 73323
L80345 73380
" />
<path d="M80626 73380
L80626 72789
" />
<path d="M80682 73155
L80851 73380
" />
<path d="M80851 72986
L80626 73211
" />
<path d="M81104 73380
L81104 72986
" />
<path d="M81104 72789
L81076 72817
L81104 72845
L81132 72817
L81104 72789
L81104 72845
" />
<path d="M81638 73352
L81582 73380
L81470 73380
L81413 73352
L81385 73323
L81357 73267
L81357 73099
L81385 73042
L81413 73014
L81470 72986
L81582 72986
L81638 73014
" />
<path d="M82145 73380
L82145 73070
L82117 73014
L82060 72986
L81948 72986
L81892 73014
" />
<path d="M82145 73352
L82088 73380
L81948 73380
L81892 73352
L81863 73295
L81863 73239
L81892 73183
L81948 73155
L82088 73155
L82145 73127
" />
<path d="M82679 73380
L82679 72789
" />
<path d="M82679 73352
L82623 73380
L82510 73380
L82454 73352
L82426 73323
L82398 73267
L82398 73099
L82426 73042
L82454 73014
L82510 72986
L82623 72986
L82679 73014
" />
<path d="M82820 73436
L83269 73436
" />
<path d="M83410 72986
L83410 73577
" />
<path d="M83410 73014
L83466 72986
L83579 72986
L83635 73014
L83663 73042
L83691 73099
L83691 73267
L83663 73323
L83635 73352
L83579 73380
L83466 73380
L83410 73352
" />
<path d="M84197 73352
L84141 73380
L84029 73380
L83973 73352
L83944 73323
L83916 73267
L83916 73099
L83944 73042
L83973 73014
L84029 72986
L84141 72986
L84197 73014
" />
<path d="M84451 73380
L84451 72789
" />
<path d="M84451 73014
L84507 72986
L84619 72986
L84676 73014
L84704 73042
L84732 73099
L84732 73267
L84704 73323
L84676 73352
L84619 73380
L84507 73380
L84451 73352
" />
</g>
<g style="fill:#000000; fill-opacity:0.0; 
stroke:#000000; stroke-width:39.3701; stroke-opacity:1; 
stroke-linecap:round; stroke-linejoin:round;">
</g>
<g style="fill:#000000; fill-opacity:0.0; 
stroke:#000000; stroke-width:59.0551; stroke-opacity:1; 
stroke-linecap:round; stroke-linejoin:round;">
<path d="M69685 71459
L112205 71459
" />
</g>
<g style="fill:#000000; fill-opacity:0.0; 
stroke:#000000; stroke-width:39.3701; stroke-opacity:1; 
stroke-linecap:round; stroke-linejoin:round;">
</g>
<g style="fill:#000000; fill-opacity:0.0; 
stroke:#000000; stroke-width:59.0551; stroke-opacity:1; 
stroke-linecap:round; stroke-linejoin:round;">
<path d="M70221 72289
L70305 72317
L70446 72317
L70502 72289
L70530 72260
L70559 72204
L70559 72148
L70530 72092
L70502 72064
L70446 72036
L70334 72007
L70277 71979
L70249 71951
L70221 71895
L70221 71839
L70249 71782
L70277 71754
L70334 71726
L70474 71726
L70559 71754
" />
<path d="M70812 72317
L70812 71726
" />
<path d="M71065 72317
L71065 72007
L71037 71951
L70980 71923
L70896 71923
L70840 71951
L70812 71979
" />
<path d="M71571 72289
L71515 72317
L71402 72317
L71346 72289
L71318 72232
L71318 72007
L71346 71951
L71402 71923
L71515 71923
L71571 71951
L71599 72007
L71599 72064
L71318 72120
" />
<path d="M72077 72289
L72021 72317
L71908 72317
L71852 72289
L71824 72232
L71824 72007
L71852 71951
L71908 71923
L72021 71923
L72077 71951
L72105 72007
L72105 72064
L71824 72120
" />
<path d="M72274 71923
L72499 71923
" />
<path d="M72358 71726
L72358 72232
L72386 72289
L72443 72317
L72499 72317
" />
<path d="M72696 72260
L72724 72289
L72696 72317
L72668 72289
L72696 72260
L72696 72317
" />
<path d="M72696 71951
L72724 71979
L72696 72007
L72668 71979
L72696 71951
L72696 72007
" />
</g>
<g style="fill:#000000; fill-opacity:0.0; 
stroke:#000000; stroke-width:39.3701; stroke-opacity:1; 
stroke-linecap:round; stroke-linejoin:round;">
</g>
<g style="fill:#000000; fill-opacity:0.0; 
stroke:#000000; stroke-width:59.0551; stroke-opacity:1; 
stroke-linecap:round; stroke-linejoin:round;">
<path d="M77559 75396
L77559 76577
" />
</g>
<g style="fill:#000000; fill-opacity:0.0; 
stroke:#000000; stroke-width:39.3701; stroke-opacity:1; 
stroke-linecap:round; stroke-linejoin:round;">
</g>
<g style="fill:#000000; fill-opacity:0.0; 
stroke:#000000; stroke-width:59.0551; stroke-opacity:1; 
stroke-linecap:round; stroke-linejoin:round;">
<path d="M102756 75396
L102756 77955
" />
</g>
<g style="fill:#840084; fill-opacity:0.0; 
stroke:#840084; stroke-width:59.0551; stroke-opacity:1; 
stroke-linecap:round; stroke-linejoin:round;">
</g>
<g style="fill:#840084; fill-opacity:1.0; 
stroke:#840084; stroke-width:0; stroke-opacity:1; 
stroke-linecap:round; stroke-linejoin:round;">
<polyline style="fill-rule:evenodd;"
points="44608,39169
44684,39200
44751,39245
44809,39303
44854,39370
44886,39446
44901,39526
44901,39607
44886,39687
44854,39762
44809,39830
44751,39888
44684,39933
44608,39964
44528,39980
44447,39980
44367,39964
44292,39933
44224,39888
44166,39830
44121,39762
44090,39687
44074,39607
44074,39526
44090,39446
44121,39370
44166,39303
44224,39245
44292,39200
44367,39169
44447,39153
44528,39153
44608,39169
" /> 
<polyline style="fill-rule:evenodd;"
points="36341,39169
36416,39200
36484,39245
36541,39303
36587,39370
36618,39446
36634,39526
36634,39607
36618,39687
36587,39762
36541,39830
36484,39888
36416,39933
36341,39964
36261,39980
36179,39980
36099,39964
36024,39933
35956,39888
35899,39830
35853,39762
35822,39687
35806,39607
35806,39526
35822,39446
35853,39370
35899,39303
35956,39245
36024,39200
36099,39169
36179,39153
36261,39153
36341,39169
" /> 
<polyline style="fill-rule:evenodd;"
points="38900,39169
38975,39200
39043,39245
39100,39303
39146,39370
39177,39446
39193,39526
39193,39607
39177,39687
39146,39762
39100,39830
39043,39888
38975,39933
38900,39964
38820,39980
38738,39980
38658,39964
38583,39933
38515,39888
38458,39830
38412,39762
38381,39687
38365,39607
38365,39526
38381,39446
38412,39370
38458,39303
38515,39245
38583,39200
38658,39169
38738,39153
38820,39153
38900,39169
" /> 
<polyline style="fill-rule:evenodd;"
points="32994,39169
33070,39200
33137,39245
33195,39303
33240,39370
33271,39446
33287,39526
33287,39607
33271,39687
33240,39762
33195,39830
33137,39888
33070,39933
32994,39964
32914,39980
32833,39980
32753,39964
32678,39933
32610,39888
32552,39830
32507,39762
32476,39687
32460,39607
32460,39526
32476,39446
32507,39370
32552,39303
32610,39245
32678,39200
32753,39169
32833,39153
32914,39153
32994,39169
" /> 
<polyline style="fill-rule:evenodd;"
points="30435,39169
30510,39200
30578,39245
30636,39303
30681,39370
30712,39446
30728,39526
30728,39607
30712,39687
30681,39762
30636,39830
30578,39888
30510,39933
30435,39964
30355,39980
30274,39980
30194,39964
30118,39933
30051,39888
29993,39830
29948,39762
29917,39687
29901,39607
29901,39526
29917,39446
29948,39370
29993,39303
30051,39245
30118,39200
30194,39169
30274,39153
30355,39153
30435,39169
" /> 
<polyline style="fill-rule:evenodd;"
points="42049,39169
42125,39200
42192,39245
42250,39303
42295,39370
42327,39446
42342,39526
42342,39607
42327,39687
42295,39762
42250,39830
42192,39888
42125,39933
42049,39964
41969,39980
41888,39980
41808,39964
41733,39933
41665,39888
41607,39830
41562,39762
41531,39687
41515,39607
41515,39526
41531,39446
41562,39370
41607,39303
41665,39245
41733,39200
41808,39169
41888,39153
41969,39153
42049,39169
" /> 
<polyline style="fill-rule:evenodd;"
points="44608,37397
44684,37428
44751,37473
44809,37531
44854,37599
44886,37674
44901,37754
44901,37836
44886,37915
44854,37991
44809,38059
44751,38116
44684,38161
44608,38193
44528,38209
44447,38209
44367,38193
44292,38161
44224,38116
44166,38059
44121,37991
44090,37915
44074,37836
44074,37754
44090,37674
44121,37599
44166,37531
44224,37473
44292,37428
44367,37397
44447,37381
44528,37381
44608,37397
" /> 
<polyline style="fill-rule:evenodd;"
points="30435,37397
30510,37428
30578,37473
30636,37531
30681,37599
30712,37674
30728,37754
30728,37836
30712,37915
30681,37991
30636,38059
30578,38116
30510,38161
30435,38193
30355,38209
30274,38209
30194,38193
30118,38161
30051,38116
29993,38059
29948,37991
29917,37915
29901,37836
29901,37754
29917,37674
29948,37599
29993,37531
30051,37473
30118,37428
30194,37397
30274,37381
30355,37381
30435,37397
" /> 
<polyline style="fill-rule:evenodd;"
points="32994,37397
33070,37428
33137,37473
33195,37531
33240,37599
33271,37674
33287,37754
33287,37836
33271,37915
33240,37991
33195,38059
33137,38116
33070,38161
32994,38193
32914,38209
32833,38209
32753,38193
32678,38161
32610,38116
32552,38059
32507,37991
32476,37915
32460,37836
32460,37754
32476,37674
32507,37599
32552,37531
32610,37473
32678,37428
32753,37397
32833,37381
32914,37381
32994,37397
" /> 
<polyline style="fill-rule:evenodd;"
points="36341,37397
36416,37428
36484,37473
36541,37531
36587,37599
36618,37674
36634,37754
36634,37836
36618,37915
36587,37991
36541,38059
36484,38116
36416,38161
36341,38193
36261,38209
36179,38209
36099,38193
36024,38161
35956,38116
35899,38059
35853,37991
35822,37915
35806,37836
35806,37754
35822,37674
35853,37599
35899,37531
35956,37473
36024,37428
36099,37397
36179,37381
36261,37381
36341,37397
" /> 
<polyline style="fill-rule:evenodd;"
points="42049,37397
42125,37428
42192,37473
42250,37531
42295,37599
42327,37674
42342,37754
42342,37836
42327,37915
42295,37991
42250,38059
42192,38116
42125,38161
42049,38193
41969,38209
41888,38209
41808,38193
41733,38161
41665,38116
41607,38059
41562,37991
41531,37915
41515,37836
41515,37754
41531,37674
41562,37599
41607,37531
41665,37473
41733,37428
41808,37397
41888,37381
41969,37381
42049,37397
" /> 
<polyline style="fill-rule:evenodd;"
points="38900,37397
38975,37428
39043,37473
39100,37531
39146,37599
39177,37674
39193,37754
39193,37836
39177,37915
39146,37991
39100,38059
39043,38116
38975,38161
38900,38193
38820,38209
38738,38209
38658,38193
38583,38161
38515,38116
38458,38059
38412,37991
38381,37915
38365,37836
38365,37754
38381,37674
38412,37599
38458,37531
38515,37473
38583,37428
38658,37397
38738,37381
38820,37381
38900,37397
" /> 
<polyline style="fill-rule:evenodd;"
points="32978,35130
33020,35138
33138,35187
33243,35257
33245,35258
33335,35349
33406,35455
33455,35574
33480,35699
33480,35827
33455,35953
33406,36071
33335,36178
33245,36268
33245,36268
33138,36339
33020,36388
32978,36397
32894,36413
32766,36413
32682,36397
32641,36388
32522,36339
32416,36268
32416,36268
32325,36178
32254,36071
32205,35953
32180,35827
32180,35699
32205,35574
32254,35455
32325,35349
32416,35258
32417,35257
32522,35187
32641,35138
32682,35130
32766,35113
32894,35113
32978,35130
" /> 
<polyline style="fill-rule:evenodd;"
points="42817,35130
42858,35138
42977,35187
43082,35257
43083,35258
43174,35349
43245,35455
43294,35574
43319,35699
43319,35827
43294,35953
43245,36071
43174,36178
43083,36268
43083,36268
42977,36339
42858,36388
42817,36397
42733,36413
42605,36413
42521,36397
42479,36388
42361,36339
42254,36268
42254,36268
42164,36178
42093,36071
42044,35953
42019,35827
42019,35699
42044,35574
42093,35455
42164,35349
42254,35258
42256,35257
42361,35187
42479,35138
42521,35130
42605,35113
42733,35113
42817,35130
" /> 
<polyline style="fill-rule:evenodd;"
points="42049,32869
42125,32901
42192,32946
42250,33003
42295,33071
42327,33147
42342,33226
42342,33308
42327,33388
42295,33463
42250,33531
42192,33589
42125,33634
42049,33665
41969,33681
41888,33681
41808,33665
41733,33634
41665,33589
41607,33531
41562,33463
41531,33388
41515,33308
41515,33226
41531,33147
41562,33071
41607,33003
41665,32946
41733,32901
41808,32869
41888,32853
41969,32853
42049,32869
" /> 
<polyline style="fill-rule:evenodd;"
points="30435,32869
30510,32901
30578,32946
30636,33003
30681,33071
30712,33147
30728,33226
30728,33308
30712,33388
30681,33463
30636,33531
30578,33589
30510,33634
30435,33665
30355,33681
30274,33681
30194,33665
30118,33634
30051,33589
29993,33531
29948,33463
29917,33388
29901,33308
29901,33226
29917,33147
29948,33071
29993,33003
30051,32946
30118,32901
30194,32869
30274,32853
30355,32853
30435,32869
" /> 
<polyline style="fill-rule:evenodd;"
points="32994,32869
33070,32901
33137,32946
33195,33003
33240,33071
33271,33147
33287,33226
33287,33308
33271,33388
33240,33463
33195,33531
33137,33589
33070,33634
32994,33665
32914,33681
32833,33681
32753,33665
32678,33634
32610,33589
32552,33531
32507,33463
32476,33388
32460,33308
32460,33226
32476,33147
32507,33071
32552,33003
32610,32946
32678,32901
32753,32869
32833,32853
32914,32853
32994,32869
" /> 
<polyline style="fill-rule:evenodd;"
points="36341,32869
36416,32901
36484,32946
36541,33003
36587,33071
36618,33147
36634,33226
36634,33308
36618,33388
36587,33463
36541,33531
36484,33589
36416,33634
36341,33665
36261,33681
36179,33681
36099,33665
36024,33634
35956,33589
35899,33531
35853,33463
35822,33388
35806,33308
35806,33226
35822,33147
35853,33071
35899,33003
35956,32946
36024,32901
36099,32869
36179,32853
36261,32853
36341,32869
" /> 
<polyline style="fill-rule:evenodd;"
points="38900,32869
38975,32901
39043,32946
39100,33003
39146,33071
39177,33147
39193,33226
39193,33308
39177,33388
39146,33463
39100,33531
39043,33589
38975,33634
38900,33665
38820,33681
38738,33681
38658,33665
38583,33634
38515,33589
38458,33531
38412,33463
38381,33388
38365,33308
38365,33226
38381,33147
38412,33071
38458,33003
38515,32946
38583,32901
38658,32869
38738,32853
38820,32853
38900,32869
" /> 
<polyline style="fill-rule:evenodd;"
points="44608,32869
44684,32901
44751,32946
44809,33003
44854,33071
44886,33147
44901,33226
44901,33308
44886,33388
44854,33463
44809,33531
44751,33589
44684,33634
44608,33665
44528,33681
44447,33681
44367,33665
44292,33634
44224,33589
44166,33531
44121,33463
44090,33388
44074,33308
44074,33226
44090,33147
44121,33071
44166,33003
44224,32946
44292,32901
44367,32869
44447,32853
44528,32853
44608,32869
" /> 
<polyline style="fill-rule:evenodd;"
points="42049,31098
42125,31129
42192,31174
42250,31232
42295,31300
42327,31375
42342,31455
42342,31536
42327,31616
42295,31692
42250,31759
42192,31817
42125,31862
42049,31893
41969,31909
41888,31909
41808,31893
41733,31862
41665,31817
41607,31759
41562,31692
41531,31616
41515,31536
41515,31455
41531,31375
41562,31300
41607,31232
41665,31174
41733,31129
41808,31098
41888,31082
41969,31082
42049,31098
" /> 
<polyline style="fill-rule:evenodd;"
points="44608,31098
44684,31129
44751,31174
44809,31232
44854,31300
44886,31375
44901,31455
44901,31536
44886,31616
44854,31692
44809,31759
44751,31817
44684,31862
44608,31893
44528,31909
44447,31909
44367,31893
44292,31862
44224,31817
44166,31759
44121,31692
44090,31616
44074,31536
44074,31455
44090,31375
44121,31300
44166,31232
44224,31174
44292,31129
44367,31098
44447,31082
44528,31082
44608,31098
" /> 
<polyline style="fill-rule:evenodd;"
points="32994,31098
33070,31129
33137,31174
33195,31232
33240,31300
33271,31375
33287,31455
33287,31536
33271,31616
33240,31692
33195,31759
33137,31817
33070,31862
32994,31893
32914,31909
32833,31909
32753,31893
32678,31862
32610,31817
32552,31759
32507,31692
32476,31616
32460,31536
32460,31455
32476,31375
32507,31300
32552,31232
32610,31174
32678,31129
32753,31098
32833,31082
32914,31082
32994,31098
" /> 
<polyline style="fill-rule:evenodd;"
points="30435,31098
30510,31129
30578,31174
30636,31232
30681,31300
30712,31375
30728,31455
30728,31536
30712,31616
30681,31692
30636,31759
30578,31817
30510,31862
30435,31893
30355,31909
30274,31909
30194,31893
30118,31862
30051,31817
29993,31759
29948,31692
29917,31616
29901,31536
29901,31455
29917,31375
29948,31300
29993,31232
30051,31174
30118,31129
30194,31098
30274,31082
30355,31082
30435,31098
" /> 
<polyline style="fill-rule:evenodd;"
points="36341,31098
36416,31129
36484,31174
36541,31232
36587,31300
36618,31375
36634,31455
36634,31536
36618,31616
36587,31692
36541,31759
36484,31817
36416,31862
36341,31893
36261,31909
36179,31909
36099,31893
36024,31862
35956,31817
35899,31759
35853,31692
35822,31616
35806,31536
35806,31455
35822,31375
35853,31300
35899,31232
35956,31174
36024,31129
36099,31098
36179,31082
36261,31082
36341,31098
" /> 
<polyline style="fill-rule:evenodd;"
points="38900,31098
38975,31129
39043,31174
39100,31232
39146,31300
39177,31375
39193,31455
39193,31536
39177,31616
39146,31692
39100,31759
39043,31817
38975,31862
38900,31893
38820,31909
38738,31909
38658,31893
38583,31862
38515,31817
38458,31759
38412,31692
38381,31616
38365,31536
38365,31455
38381,31375
38412,31300
38458,31232
38515,31174
38583,31129
38658,31098
38738,31082
38820,31082
38900,31098
" /> 
<polyline style="fill-rule:evenodd;"
points="44608,26570
44684,26601
44751,26647
44809,26704
44854,26772
44886,26847
44901,26927
44901,27009
44886,27089
44854,27164
44809,27232
44751,27289
44684,27335
44608,27366
44528,27382
44447,27382
44367,27366
44292,27335
44224,27289
44166,27232
44121,27164
44090,27089
44074,27009
44074,26927
44090,26847
44121,26772
44166,26704
44224,26647
44292,26601
44367,26570
44447,26554
44528,26554
44608,26570
" /> 
<polyline style="fill-rule:evenodd;"
points="42049,26570
42125,26601
42192,26647
42250,26704
42295,26772
42327,26847
42342,26927
42342,27009
42327,27089
42295,27164
42250,27232
42192,27289
42125,27335
42049,27366
41969,27382
41888,27382
41808,27366
41733,27335
41665,27289
41607,27232
41562,27164
41531,27089
41515,27009
41515,26927
41531,26847
41562,26772
41607,26704
41665,26647
41733,26601
41808,26570
41888,26554
41969,26554
42049,26570
" /> 
<polyline style="fill-rule:evenodd;"
points="36341,26570
36416,26601
36484,26647
36541,26704
36587,26772
36618,26847
36634,26927
36634,27009
36618,27089
36587,27164
36541,27232
36484,27289
36416,27335
36341,27366
36261,27382
36179,27382
36099,27366
36024,27335
35956,27289
35899,27232
35853,27164
35822,27089
35806,27009
35806,26927
35822,26847
35853,26772
35899,26704
35956,26647
36024,26601
36099,26570
36179,26554
36261,26554
36341,26570
" /> 
<polyline style="fill-rule:evenodd;"
points="32994,26570
33070,26601
33137,26647
33195,26704
33240,26772
33271,26847
33287,26927
33287,27009
33271,27089
33240,27164
33195,27232
33137,27289
33070,27335
32994,27366
32914,27382
32833,27382
32753,27366
32678,27335
32610,27289
32552,27232
32507,27164
32476,27089
32460,27009
32460,26927
32476,26847
32507,26772
32552,26704
32610,26647
32678,26601
32753,26570
32833,26554
32914,26554
32994,26570
" /> 
<polyline style="fill-rule:evenodd;"
points="30435,26570
30510,26601
30578,26647
30636,26704
30681,26772
30712,26847
30728,26927
30728,27009
30712,27089
30681,27164
30636,27232
30578,27289
30510,27335
30435,27366
30355,27382
30274,27382
30194,27366
30118,27335
30051,27289
29993,27232
29948,27164
29917,27089
29901,27009
29901,26927
29917,26847
29948,26772
29993,26704
30051,26647
30118,26601
30194,26570
30274,26554
30355,26554
30435,26570
" /> 
<polyline style="fill-rule:evenodd;"
points="38900,26570
38975,26601
39043,26647
39100,26704
39146,26772
39177,26847
39193,26927
39193,27009
39177,27089
39146,27164
39100,27232
39043,27289
38975,27335
38900,27366
38820,27382
38738,27382
38658,27366
38583,27335
38515,27289
38458,27232
38412,27164
38381,27089
38365,27009
38365,26927
38381,26847
38412,26772
38458,26704
38515,26647
38583,26601
38658,26570
38738,26554
38820,26554
38900,26570
" /> 
<polyline style="fill-rule:evenodd;"
points="42049,24798
42125,24830
42192,24875
42250,24933
42295,25000
42327,25076
42342,25156
42342,25237
42327,25317
42295,25392
42250,25460
42192,25518
42125,25563
42049,25594
41969,25610
41888,25610
41808,25594
41733,25563
41665,25518
41607,25460
41562,25392
41531,25317
41515,25237
41515,25156
41531,25076
41562,25000
41607,24933
41665,24875
41733,24830
41808,24798
41888,24783
41969,24783
42049,24798
" /> 
<polyline style="fill-rule:evenodd;"
points="30435,24798
30510,24830
30578,24875
30636,24933
30681,25000
30712,25076
30728,25156
30728,25237
30712,25317
30681,25392
30636,25460
30578,25518
30510,25563
30435,25594
30355,25610
30274,25610
30194,25594
30118,25563
30051,25518
29993,25460
29948,25392
29917,25317
29901,25237
29901,25156
29917,25076
29948,25000
29993,24933
30051,24875
30118,24830
30194,24798
30274,24783
30355,24783
30435,24798
" /> 
<polyline style="fill-rule:evenodd;"
points="44608,24798
44684,24830
44751,24875
44809,24933
44854,25000
44886,25076
44901,25156
44901,25237
44886,25317
44854,25392
44809,25460
44751,25518
44684,25563
44608,25594
44528,25610
44447,25610
44367,25594
44292,25563
44224,25518
44166,25460
44121,25392
44090,25317
44074,25237
44074,25156
44090,25076
44121,25000
44166,24933
44224,24875
44292,24830
44367,24798
44447,24783
44528,24783
44608,24798
" /> 
<polyline style="fill-rule:evenodd;"
points="38900,24798
38975,24830
39043,24875
39100,24933
39146,25000
39177,25076
39193,25156
39193,25237
39177,25317
39146,25392
39100,25460
39043,25518
38975,25563
38900,25594
38820,25610
38738,25610
38658,25594
38583,25563
38515,25518
38458,25460
38412,25392
38381,25317
38365,25237
38365,25156
38381,25076
38412,25000
38458,24933
38515,24875
38583,24830
38658,24798
38738,24783
38820,24783
38900,24798
" /> 
<polyline style="fill-rule:evenodd;"
points="36341,24798
36416,24830
36484,24875
36541,24933
36587,25000
36618,25076
36634,25156
36634,25237
36618,25317
36587,25392
36541,25460
36484,25518
36416,25563
36341,25594
36261,25610
36179,25610
36099,25594
36024,25563
35956,25518
35899,25460
35853,25392
35822,25317
35806,25237
35806,25156
35822,25076
35853,25000
35899,24933
35956,24875
36024,24830
36099,24798
36179,24783
36261,24783
36341,24798
" /> 
<polyline style="fill-rule:evenodd;"
points="32994,24798
33070,24830
33137,24875
33195,24933
33240,25000
33271,25076
33287,25156
33287,25237
33271,25317
33240,25392
33195,25460
33137,25518
33070,25563
32994,25594
32914,25610
32833,25610
32753,25594
32678,25563
32610,25518
32552,25460
32507,25392
32476,25317
32460,25237
32460,25156
32476,25076
32507,25000
32552,24933
32610,24875
32678,24830
32753,24798
32833,24783
32914,24783
32994,24798
" /> 
<polyline style="fill-rule:evenodd;"
points="42817,22331
42858,22339
42977,22388
43036,22428
43083,22459
43174,22550
43174,22550
43224,22625
43245,22656
43294,22774
43319,22900
43319,23028
43294,23154
43245,23272
43174,23378
43083,23469
43083,23469
42977,23540
42858,23589
42817,23597
42733,23614
42605,23614
42521,23597
42479,23589
42361,23540
42254,23469
42254,23469
42164,23378
42093,23272
42044,23154
42019,23028
42019,22900
42044,22774
42093,22656
42114,22625
42164,22550
42164,22550
42254,22459
42302,22428
42361,22388
42479,22339
42521,22331
42605,22314
42733,22314
42817,22331
" /> 
<polyline style="fill-rule:evenodd;"
points="32978,22299
33020,22308
33138,22357
33185,22388
33245,22428
33335,22518
33335,22518
33406,22625
33455,22743
33480,22869
33480,22997
33455,23122
33406,23240
33336,23346
33335,23347
33245,23437
33245,23437
33138,23509
33020,23558
32978,23566
32894,23583
32766,23583
32682,23566
32641,23558
32522,23509
32416,23437
32416,23437
32325,23347
32324,23346
32254,23240
32205,23122
32180,22997
32180,22869
32205,22743
32254,22625
32325,22518
32325,22518
32416,22428
32475,22388
32522,22357
32641,22308
32682,22299
32766,22283
32894,22283
32978,22299
" /> 
<polyline style="fill-rule:evenodd;"
points="32994,20665
33070,20696
33137,20741
33195,20799
33240,20866
33271,20942
33287,21022
33287,21103
33271,21183
33240,21258
33195,21326
33137,21384
33070,21429
32994,21460
32914,21476
32833,21476
32753,21460
32678,21429
32610,21384
32552,21326
32507,21258
32476,21183
32460,21103
32460,21022
32476,20942
32507,20866
32552,20799
32610,20741
32678,20696
32753,20665
32833,20649
32914,20649
32994,20665
" /> 
<polyline style="fill-rule:evenodd;"
points="30435,20665
30510,20696
30578,20741
30636,20799
30681,20866
30712,20942
30728,21022
30728,21103
30712,21183
30681,21258
30636,21326
30578,21384
30510,21429
30435,21460
30355,21476
30274,21476
30194,21460
30118,21429
30051,21384
29993,21326
29948,21258
29917,21183
29901,21103
29901,21022
29917,20942
29948,20866
29993,20799
30051,20741
30118,20696
30194,20665
30274,20649
30355,20649
30435,20665
" /> 
<polyline style="fill-rule:evenodd;"
points="44608,20665
44684,20696
44751,20741
44809,20799
44854,20866
44886,20942
44901,21022
44901,21103
44886,21183
44854,21258
44809,21326
44751,21384
44684,21429
44608,21460
44528,21476
44447,21476
44367,21460
44292,21429
44224,21384
44166,21326
44121,21258
44090,21183
44074,21103
44074,21022
44090,20942
44121,20866
44166,20799
44224,20741
44292,20696
44367,20665
44447,20649
44528,20649
44608,20665
" /> 
<polyline style="fill-rule:evenodd;"
points="36341,20665
36416,20696
36484,20741
36541,20799
36587,20866
36618,20942
36634,21022
36634,21103
36618,21183
36587,21258
36541,21326
36484,21384
36416,21429
36341,21460
36261,21476
36179,21476
36099,21460
36024,21429
35956,21384
35899,21326
35853,21258
35822,21183
35806,21103
35806,21022
35822,20942
35853,20866
35899,20799
35956,20741
36024,20696
36099,20665
36179,20649
36261,20649
36341,20665
" /> 
<polyline style="fill-rule:evenodd;"
points="42049,20665
42125,20696
42192,20741
42250,20799
42295,20866
42327,20942
42342,21022
42342,21103
42327,21183
42295,21258
42250,21326
42192,21384
42125,21429
42049,21460
41969,21476
41888,21476
41808,21460
41733,21429
41665,21384
41607,21326
41562,21258
41531,21183
41515,21103
41515,21022
41531,20942
41562,20866
41607,20799
41665,20741
41733,20696
41808,20665
41888,20649
41969,20649
42049,20665
" /> 
<polyline style="fill-rule:evenodd;"
points="38900,20665
38975,20696
39043,20741
39100,20799
39146,20866
39177,20942
39193,21022
39193,21103
39177,21183
39146,21258
39100,21326
39043,21384
38975,21429
38900,21460
38820,21476
38738,21476
38658,21460
38583,21429
38515,21384
38458,21326
38412,21258
38381,21183
38365,21103
38365,21022
38381,20942
38412,20866
38458,20799
38515,20741
38583,20696
38658,20665
38738,20649
38820,20649
38900,20665
" /> 
<polyline style="fill-rule:evenodd;"
points="44608,18893
44684,18924
44751,18969
44809,19027
44854,19095
44886,19170
44901,19250
44901,19332
44886,19412
44854,19487
44809,19555
44751,19612
44684,19658
44608,19689
44528,19705
44447,19705
44367,19689
44292,19658
44224,19612
44166,19555
44121,19487
44090,19412
44074,19332
44074,19250
44090,19170
44121,19095
44166,19027
44224,18969
44292,18924
44367,18893
44447,18877
44528,18877
44608,18893
" /> 
<polyline style="fill-rule:evenodd;"
points="30435,18893
30510,18924
30578,18969
30636,19027
30681,19095
30712,19170
30728,19250
30728,19332
30712,19412
30681,19487
30636,19555
30578,19612
30510,19658
30435,19689
30355,19705
30274,19705
30194,19689
30118,19658
30051,19612
29993,19555
29948,19487
29917,19412
29901,19332
29901,19250
29917,19170
29948,19095
29993,19027
30051,18969
30118,18924
30194,18893
30274,18877
30355,18877
30435,18893
" /> 
<polyline style="fill-rule:evenodd;"
points="32994,18893
33070,18924
33137,18969
33195,19027
33240,19095
33271,19170
33287,19250
33287,19332
33271,19412
33240,19487
33195,19555
33137,19612
33070,19658
32994,19689
32914,19705
32833,19705
32753,19689
32678,19658
32610,19612
32552,19555
32507,19487
32476,19412
32460,19332
32460,19250
32476,19170
32507,19095
32552,19027
32610,18969
32678,18924
32753,18893
32833,18877
32914,18877
32994,18893
" /> 
<polyline style="fill-rule:evenodd;"
points="36341,18893
36416,18924
36484,18969
36541,19027
36587,19095
36618,19170
36634,19250
36634,19332
36618,19412
36587,19487
36541,19555
36484,19612
36416,19658
36341,19689
36261,19705
36179,19705
36099,19689
36024,19658
35956,19612
35899,19555
35853,19487
35822,19412
35806,19332
35806,19250
35822,19170
35853,19095
35899,19027
35956,18969
36024,18924
36099,18893
36179,18877
36261,18877
36341,18893
" /> 
<polyline style="fill-rule:evenodd;"
points="38900,18893
38975,18924
39043,18969
39100,19027
39146,19095
39177,19170
39193,19250
39193,19332
39177,19412
39146,19487
39100,19555
39043,19612
38975,19658
38900,19689
38820,19705
38738,19705
38658,19689
38583,19658
38515,19612
38458,19555
38412,19487
38381,19412
38365,19332
38365,19250
38381,19170
38412,19095
38458,19027
38515,18969
38583,18924
38658,18893
38738,18877
38820,18877
38900,18893
" /> 
<polyline style="fill-rule:evenodd;"
points="42049,18893
42125,18924
42192,18969
42250,19027
42295,19095
42327,19170
42342,19250
42342,19332
42327,19412
42295,19487
42250,19555
42192,19612
42125,19658
42049,19689
41969,19705
41888,19705
41808,19689
41733,19658
41665,19612
41607,19555
41562,19487
41531,19412
41515,19332
41515,19250
41531,19170
41562,19095
41607,19027
41665,18969
41733,18924
41808,18893
41888,18877
41969,18877
42049,18893
" /> 
<polyline style="fill-rule:evenodd;"
points="36626,15394
36675,15399
36753,15422
36825,15461
36888,15513
36940,15576
36978,15647
37002,15725
37010,15807
37002,15888
36978,15966
36940,16038
36888,16101
36825,16152
36753,16191
36675,16214
36626,16219
36614,16220
36574,16220
36562,16219
36513,16214
36435,16191
36363,16152
36300,16101
36248,16038
36210,15966
36186,15888
36178,15807
36186,15725
36210,15647
36248,15576
36300,15513
36363,15461
36435,15422
36513,15399
36562,15394
36574,15393
36614,15393
36626,15394
" /> 
<polyline style="fill-rule:evenodd;"
points="42008,16220
41180,16220
41180,15393
42008,15393
42008,16220
" /> 
<polyline style="fill-rule:evenodd;"
points="40626,15394
40675,15399
40753,15422
40825,15461
40888,15513
40940,15576
40978,15647
41002,15725
41010,15807
41002,15888
40978,15966
40940,16038
40888,16101
40825,16152
40753,16191
40675,16214
40626,16219
40614,16220
40574,16220
40562,16219
40513,16214
40435,16191
40363,16152
40300,16101
40248,16038
40210,15966
40186,15888
40178,15807
40186,15725
40210,15647
40248,15576
40300,15513
40363,15461
40435,15422
40513,15399
40562,15394
40574,15393
40614,15393
40626,15394
" /> 
<polyline style="fill-rule:evenodd;"
points="39626,15394
39675,15399
39753,15422
39825,15461
39888,15513
39940,15576
39978,15647
40002,15725
40010,15807
40002,15888
39978,15966
39940,16038
39888,16101
39825,16152
39753,16191
39675,16214
39626,16219
39614,16220
39574,16220
39562,16219
39513,16214
39435,16191
39363,16152
39300,16101
39248,16038
39210,15966
39186,15888
39178,15807
39186,15725
39210,15647
39248,15576
39300,15513
39363,15461
39435,15422
39513,15399
39562,15394
39574,15393
39614,15393
39626,15394
" /> 
<polyline style="fill-rule:evenodd;"
points="38626,15394
38675,15399
38753,15422
38825,15461
38888,15513
38940,15576
38978,15647
39002,15725
39010,15807
39002,15888
38978,15966
38940,16038
38888,16101
38825,16152
38753,16191
38675,16214
38626,16219
38614,16220
38574,16220
38562,16219
38513,16214
38435,16191
38363,16152
38300,16101
38248,16038
38210,15966
38186,15888
38178,15807
38186,15725
38210,15647
38248,15576
38300,15513
38363,15461
38435,15422
38513,15399
38562,15394
38574,15393
38614,15393
38626,15394
" /> 
<polyline style="fill-rule:evenodd;"
points="37626,15394
37675,15399
37753,15422
37825,15461
37888,15513
37940,15576
37978,15647
38002,15725
38010,15807
38002,15888
37978,15966
37940,16038
37888,16101
37825,16152
37753,16191
37675,16214
37626,16219
37614,16220
37574,16220
37562,16219
37513,16214
37435,16191
37363,16152
37300,16101
37248,16038
37210,15966
37186,15888
37178,15807
37186,15725
37210,15647
37248,15576
37300,15513
37363,15461
37435,15422
37513,15399
37562,15394
37574,15393
37614,15393
37626,15394
" /> 
<polyline style="fill-rule:evenodd;"
points="35626,15394
35675,15399
35753,15422
35825,15461
35888,15513
35940,15576
35978,15647
36002,15725
36010,15807
36002,15888
35978,15966
35940,16038
35888,16101
35825,16152
35753,16191
35675,16214
35626,16219
35614,16220
35574,16220
35562,16219
35513,16214
35435,16191
35363,16152
35300,16101
35248,16038
35210,15966
35186,15888
35178,15807
35186,15725
35210,15647
35248,15576
35300,15513
35363,15461
35435,15422
35513,15399
35562,15394
35574,15393
35614,15393
35626,15394
" /> 
<polyline style="fill-rule:evenodd;"
points="34626,15394
34675,15399
34753,15422
34825,15461
34888,15513
34940,15576
34978,15647
35002,15725
35010,15807
35002,15888
34978,15966
34940,16038
34888,16101
34825,16152
34753,16191
34675,16214
34626,16219
34614,16220
34574,16220
34562,16219
34513,16214
34435,16191
34363,16152
34300,16101
34248,16038
34210,15966
34186,15888
34178,15807
34186,15725
34210,15647
34248,15576
34300,15513
34363,15461
34435,15422
34513,15399
34562,15394
34574,15393
34614,15393
34626,15394
" /> 
</g>
<g style="fill:#000000; fill-opacity:1.0; 
stroke:#000000; stroke-width:0; stroke-opacity:1; 
stroke-linecap:round; stroke-linejoin:round;">
</g>
<g style="fill:#C2C200; fill-opacity:1.0; 
stroke:#C2C200; stroke-width:0; stroke-opacity:1; 
stroke-linecap:round; stroke-linejoin:round;">
</g>
<g style="fill:#C2C200; fill-opacity:1.0; 
stroke:#C2C200; stroke-width:78.7402; stroke-opacity:1; 
stroke-linecap:round; stroke-linejoin:round;">
</g>
<g style="fill:#C2C200; fill-opacity:0.0; 
stroke:#C2C200; stroke-width:78.7402; stroke-opacity:1; 
stroke-linecap:round; stroke-linejoin:round;">
<path d="M25862 21287
L25862 14307
" />
<path d="M28618 21287
L25862 21287
" />
<path d="M28618 21287
L28618 41078
" />
<path d="M45547 14307
L45547 41078
" />
<path d="M45547 41078
L28618 41078
" />
<path d="M45547 14307
L25862 14307
" />
</g> 
</svg>
