G04 #@! TF.GenerationSoftware,KiCad,Pcbnew,5.0.2+dfsg1-1*
G04 #@! TF.CreationDate,2021-10-08T13:08:18+05:30*
G04 #@! TF.ProjectId,KEYBORD_PCB_V1,4b455942-4f52-4445-9f50-43425f56312e,rev?*
G04 #@! TF.SameCoordinates,Original*
G04 #@! TF.FileFunction,Legend,Top*
G04 #@! TF.FilePolarity,Positive*
%FSLAX46Y46*%
G04 Gerber Fmt 4.6, Leading zero omitted, Abs format (unit mm)*
G04 Created by KiCad (PCBNEW 5.0.2+dfsg1-1) date Fri 08 Oct 2021 01:08:18 PM IST*
%MOMM*%
%LPD*%
G01*
G04 APERTURE LIST*
%ADD10C,0.120000*%
%ADD11C,0.150000*%
G04 APERTURE END LIST*
D10*
G04 #@! TO.C,J1*
X106980000Y-40150000D02*
X106980000Y-41480000D01*
X106980000Y-41480000D02*
X105650000Y-41480000D01*
X104380000Y-41480000D02*
X86540000Y-41480000D01*
X86540000Y-38820000D02*
X86540000Y-41480000D01*
X104380000Y-38820000D02*
X86540000Y-38820000D01*
X104380000Y-38820000D02*
X104380000Y-41480000D01*
G04 #@! TO.C,SW1*
X78000000Y-54500000D02*
X82500000Y-54500000D01*
X76750000Y-50500000D02*
X76750000Y-52000000D01*
X82500000Y-48000000D02*
X78000000Y-48000000D01*
X83750000Y-52000000D02*
X83750000Y-50500000D01*
G04 #@! TO.C,SW2*
X83750000Y-67000000D02*
X83750000Y-65500000D01*
X82500000Y-63000000D02*
X78000000Y-63000000D01*
X76750000Y-65500000D02*
X76750000Y-67000000D01*
X78000000Y-69500000D02*
X82500000Y-69500000D01*
G04 #@! TO.C,SW3*
X83750000Y-83000000D02*
X83750000Y-81500000D01*
X82500000Y-79000000D02*
X78000000Y-79000000D01*
X76750000Y-81500000D02*
X76750000Y-83000000D01*
X78000000Y-85500000D02*
X82500000Y-85500000D01*
G04 #@! TO.C,SW4*
X78000000Y-101500000D02*
X82500000Y-101500000D01*
X76750000Y-97500000D02*
X76750000Y-99000000D01*
X82500000Y-95000000D02*
X78000000Y-95000000D01*
X83750000Y-99000000D02*
X83750000Y-97500000D01*
G04 #@! TO.C,SW5*
X98750000Y-52000000D02*
X98750000Y-50500000D01*
X97500000Y-48000000D02*
X93000000Y-48000000D01*
X91750000Y-50500000D02*
X91750000Y-52000000D01*
X93000000Y-54500000D02*
X97500000Y-54500000D01*
G04 #@! TO.C,SW6*
X98750000Y-67000000D02*
X98750000Y-65500000D01*
X97500000Y-63000000D02*
X93000000Y-63000000D01*
X91750000Y-65500000D02*
X91750000Y-67000000D01*
X93000000Y-69500000D02*
X97500000Y-69500000D01*
G04 #@! TO.C,SW7*
X93000000Y-85500000D02*
X97500000Y-85500000D01*
X91750000Y-81500000D02*
X91750000Y-83000000D01*
X97500000Y-79000000D02*
X93000000Y-79000000D01*
X98750000Y-83000000D02*
X98750000Y-81500000D01*
G04 #@! TO.C,SW8*
X98750000Y-99000000D02*
X98750000Y-97500000D01*
X97500000Y-95000000D02*
X93000000Y-95000000D01*
X91750000Y-97500000D02*
X91750000Y-99000000D01*
X93000000Y-101500000D02*
X97500000Y-101500000D01*
G04 #@! TO.C,SW9*
X107500000Y-54500000D02*
X112000000Y-54500000D01*
X106250000Y-50500000D02*
X106250000Y-52000000D01*
X112000000Y-48000000D02*
X107500000Y-48000000D01*
X113250000Y-52000000D02*
X113250000Y-50500000D01*
G04 #@! TO.C,SW10*
X107500000Y-69500000D02*
X112000000Y-69500000D01*
X106250000Y-65500000D02*
X106250000Y-67000000D01*
X112000000Y-63000000D02*
X107500000Y-63000000D01*
X113250000Y-67000000D02*
X113250000Y-65500000D01*
G04 #@! TO.C,SW11*
X107500000Y-85500000D02*
X112000000Y-85500000D01*
X106250000Y-81500000D02*
X106250000Y-83000000D01*
X112000000Y-79000000D02*
X107500000Y-79000000D01*
X113250000Y-83000000D02*
X113250000Y-81500000D01*
G04 #@! TO.C,SW12*
X113250000Y-99000000D02*
X113250000Y-97500000D01*
X112000000Y-95000000D02*
X107500000Y-95000000D01*
X106250000Y-97500000D02*
X106250000Y-99000000D01*
X107500000Y-101500000D02*
X112000000Y-101500000D01*
G04 #@! TO.C,REF\002A\002A*
D11*
X107406666Y-58812380D02*
X107073333Y-58336190D01*
X106835238Y-58812380D02*
X106835238Y-57812380D01*
X107216190Y-57812380D01*
X107311428Y-57860000D01*
X107359047Y-57907619D01*
X107406666Y-58002857D01*
X107406666Y-58145714D01*
X107359047Y-58240952D01*
X107311428Y-58288571D01*
X107216190Y-58336190D01*
X106835238Y-58336190D01*
X107835238Y-58288571D02*
X108168571Y-58288571D01*
X108311428Y-58812380D02*
X107835238Y-58812380D01*
X107835238Y-57812380D01*
X108311428Y-57812380D01*
X109073333Y-58288571D02*
X108740000Y-58288571D01*
X108740000Y-58812380D02*
X108740000Y-57812380D01*
X109216190Y-57812380D01*
X109740000Y-57812380D02*
X109740000Y-58050476D01*
X109501904Y-57955238D02*
X109740000Y-58050476D01*
X109978095Y-57955238D01*
X109597142Y-58240952D02*
X109740000Y-58050476D01*
X109882857Y-58240952D01*
X110501904Y-57812380D02*
X110501904Y-58050476D01*
X110263809Y-57955238D02*
X110501904Y-58050476D01*
X110740000Y-57955238D01*
X110359047Y-58240952D02*
X110501904Y-58050476D01*
X110644761Y-58240952D01*
X82376666Y-58692380D02*
X82043333Y-58216190D01*
X81805238Y-58692380D02*
X81805238Y-57692380D01*
X82186190Y-57692380D01*
X82281428Y-57740000D01*
X82329047Y-57787619D01*
X82376666Y-57882857D01*
X82376666Y-58025714D01*
X82329047Y-58120952D01*
X82281428Y-58168571D01*
X82186190Y-58216190D01*
X81805238Y-58216190D01*
X82805238Y-58168571D02*
X83138571Y-58168571D01*
X83281428Y-58692380D02*
X82805238Y-58692380D01*
X82805238Y-57692380D01*
X83281428Y-57692380D01*
X84043333Y-58168571D02*
X83710000Y-58168571D01*
X83710000Y-58692380D02*
X83710000Y-57692380D01*
X84186190Y-57692380D01*
X84710000Y-57692380D02*
X84710000Y-57930476D01*
X84471904Y-57835238D02*
X84710000Y-57930476D01*
X84948095Y-57835238D01*
X84567142Y-58120952D02*
X84710000Y-57930476D01*
X84852857Y-58120952D01*
X85471904Y-57692380D02*
X85471904Y-57930476D01*
X85233809Y-57835238D02*
X85471904Y-57930476D01*
X85710000Y-57835238D01*
X85329047Y-58120952D02*
X85471904Y-57930476D01*
X85614761Y-58120952D01*
X82356666Y-91282380D02*
X82023333Y-90806190D01*
X81785238Y-91282380D02*
X81785238Y-90282380D01*
X82166190Y-90282380D01*
X82261428Y-90330000D01*
X82309047Y-90377619D01*
X82356666Y-90472857D01*
X82356666Y-90615714D01*
X82309047Y-90710952D01*
X82261428Y-90758571D01*
X82166190Y-90806190D01*
X81785238Y-90806190D01*
X82785238Y-90758571D02*
X83118571Y-90758571D01*
X83261428Y-91282380D02*
X82785238Y-91282380D01*
X82785238Y-90282380D01*
X83261428Y-90282380D01*
X84023333Y-90758571D02*
X83690000Y-90758571D01*
X83690000Y-91282380D02*
X83690000Y-90282380D01*
X84166190Y-90282380D01*
X84690000Y-90282380D02*
X84690000Y-90520476D01*
X84451904Y-90425238D02*
X84690000Y-90520476D01*
X84928095Y-90425238D01*
X84547142Y-90710952D02*
X84690000Y-90520476D01*
X84832857Y-90710952D01*
X85451904Y-90282380D02*
X85451904Y-90520476D01*
X85213809Y-90425238D02*
X85451904Y-90520476D01*
X85690000Y-90425238D01*
X85309047Y-90710952D02*
X85451904Y-90520476D01*
X85594761Y-90710952D01*
X107326666Y-91322380D02*
X106993333Y-90846190D01*
X106755238Y-91322380D02*
X106755238Y-90322380D01*
X107136190Y-90322380D01*
X107231428Y-90370000D01*
X107279047Y-90417619D01*
X107326666Y-90512857D01*
X107326666Y-90655714D01*
X107279047Y-90750952D01*
X107231428Y-90798571D01*
X107136190Y-90846190D01*
X106755238Y-90846190D01*
X107755238Y-90798571D02*
X108088571Y-90798571D01*
X108231428Y-91322380D02*
X107755238Y-91322380D01*
X107755238Y-90322380D01*
X108231428Y-90322380D01*
X108993333Y-90798571D02*
X108660000Y-90798571D01*
X108660000Y-91322380D02*
X108660000Y-90322380D01*
X109136190Y-90322380D01*
X109660000Y-90322380D02*
X109660000Y-90560476D01*
X109421904Y-90465238D02*
X109660000Y-90560476D01*
X109898095Y-90465238D01*
X109517142Y-90750952D02*
X109660000Y-90560476D01*
X109802857Y-90750952D01*
X110421904Y-90322380D02*
X110421904Y-90560476D01*
X110183809Y-90465238D02*
X110421904Y-90560476D01*
X110660000Y-90465238D01*
X110279047Y-90750952D02*
X110421904Y-90560476D01*
X110564761Y-90750952D01*
G04 #@! TO.C,J1*
X107872380Y-40483333D02*
X108586666Y-40483333D01*
X108729523Y-40530952D01*
X108824761Y-40626190D01*
X108872380Y-40769047D01*
X108872380Y-40864285D01*
X108872380Y-39483333D02*
X108872380Y-40054761D01*
X108872380Y-39769047D02*
X107872380Y-39769047D01*
X108015238Y-39864285D01*
X108110476Y-39959523D01*
X108158095Y-40054761D01*
G04 #@! TO.C,SW1*
X78916666Y-47404761D02*
X79059523Y-47452380D01*
X79297619Y-47452380D01*
X79392857Y-47404761D01*
X79440476Y-47357142D01*
X79488095Y-47261904D01*
X79488095Y-47166666D01*
X79440476Y-47071428D01*
X79392857Y-47023809D01*
X79297619Y-46976190D01*
X79107142Y-46928571D01*
X79011904Y-46880952D01*
X78964285Y-46833333D01*
X78916666Y-46738095D01*
X78916666Y-46642857D01*
X78964285Y-46547619D01*
X79011904Y-46500000D01*
X79107142Y-46452380D01*
X79345238Y-46452380D01*
X79488095Y-46500000D01*
X79821428Y-46452380D02*
X80059523Y-47452380D01*
X80250000Y-46738095D01*
X80440476Y-47452380D01*
X80678571Y-46452380D01*
X81583333Y-47452380D02*
X81011904Y-47452380D01*
X81297619Y-47452380D02*
X81297619Y-46452380D01*
X81202380Y-46595238D01*
X81107142Y-46690476D01*
X81011904Y-46738095D01*
G04 #@! TO.C,SW2*
X78916666Y-62404761D02*
X79059523Y-62452380D01*
X79297619Y-62452380D01*
X79392857Y-62404761D01*
X79440476Y-62357142D01*
X79488095Y-62261904D01*
X79488095Y-62166666D01*
X79440476Y-62071428D01*
X79392857Y-62023809D01*
X79297619Y-61976190D01*
X79107142Y-61928571D01*
X79011904Y-61880952D01*
X78964285Y-61833333D01*
X78916666Y-61738095D01*
X78916666Y-61642857D01*
X78964285Y-61547619D01*
X79011904Y-61500000D01*
X79107142Y-61452380D01*
X79345238Y-61452380D01*
X79488095Y-61500000D01*
X79821428Y-61452380D02*
X80059523Y-62452380D01*
X80250000Y-61738095D01*
X80440476Y-62452380D01*
X80678571Y-61452380D01*
X81011904Y-61547619D02*
X81059523Y-61500000D01*
X81154761Y-61452380D01*
X81392857Y-61452380D01*
X81488095Y-61500000D01*
X81535714Y-61547619D01*
X81583333Y-61642857D01*
X81583333Y-61738095D01*
X81535714Y-61880952D01*
X80964285Y-62452380D01*
X81583333Y-62452380D01*
G04 #@! TO.C,SW3*
X78916666Y-78404761D02*
X79059523Y-78452380D01*
X79297619Y-78452380D01*
X79392857Y-78404761D01*
X79440476Y-78357142D01*
X79488095Y-78261904D01*
X79488095Y-78166666D01*
X79440476Y-78071428D01*
X79392857Y-78023809D01*
X79297619Y-77976190D01*
X79107142Y-77928571D01*
X79011904Y-77880952D01*
X78964285Y-77833333D01*
X78916666Y-77738095D01*
X78916666Y-77642857D01*
X78964285Y-77547619D01*
X79011904Y-77500000D01*
X79107142Y-77452380D01*
X79345238Y-77452380D01*
X79488095Y-77500000D01*
X79821428Y-77452380D02*
X80059523Y-78452380D01*
X80250000Y-77738095D01*
X80440476Y-78452380D01*
X80678571Y-77452380D01*
X80964285Y-77452380D02*
X81583333Y-77452380D01*
X81250000Y-77833333D01*
X81392857Y-77833333D01*
X81488095Y-77880952D01*
X81535714Y-77928571D01*
X81583333Y-78023809D01*
X81583333Y-78261904D01*
X81535714Y-78357142D01*
X81488095Y-78404761D01*
X81392857Y-78452380D01*
X81107142Y-78452380D01*
X81011904Y-78404761D01*
X80964285Y-78357142D01*
G04 #@! TO.C,SW4*
X78916666Y-94404761D02*
X79059523Y-94452380D01*
X79297619Y-94452380D01*
X79392857Y-94404761D01*
X79440476Y-94357142D01*
X79488095Y-94261904D01*
X79488095Y-94166666D01*
X79440476Y-94071428D01*
X79392857Y-94023809D01*
X79297619Y-93976190D01*
X79107142Y-93928571D01*
X79011904Y-93880952D01*
X78964285Y-93833333D01*
X78916666Y-93738095D01*
X78916666Y-93642857D01*
X78964285Y-93547619D01*
X79011904Y-93500000D01*
X79107142Y-93452380D01*
X79345238Y-93452380D01*
X79488095Y-93500000D01*
X79821428Y-93452380D02*
X80059523Y-94452380D01*
X80250000Y-93738095D01*
X80440476Y-94452380D01*
X80678571Y-93452380D01*
X81488095Y-93785714D02*
X81488095Y-94452380D01*
X81250000Y-93404761D02*
X81011904Y-94119047D01*
X81630952Y-94119047D01*
G04 #@! TO.C,SW5*
X93916666Y-47404761D02*
X94059523Y-47452380D01*
X94297619Y-47452380D01*
X94392857Y-47404761D01*
X94440476Y-47357142D01*
X94488095Y-47261904D01*
X94488095Y-47166666D01*
X94440476Y-47071428D01*
X94392857Y-47023809D01*
X94297619Y-46976190D01*
X94107142Y-46928571D01*
X94011904Y-46880952D01*
X93964285Y-46833333D01*
X93916666Y-46738095D01*
X93916666Y-46642857D01*
X93964285Y-46547619D01*
X94011904Y-46500000D01*
X94107142Y-46452380D01*
X94345238Y-46452380D01*
X94488095Y-46500000D01*
X94821428Y-46452380D02*
X95059523Y-47452380D01*
X95250000Y-46738095D01*
X95440476Y-47452380D01*
X95678571Y-46452380D01*
X96535714Y-46452380D02*
X96059523Y-46452380D01*
X96011904Y-46928571D01*
X96059523Y-46880952D01*
X96154761Y-46833333D01*
X96392857Y-46833333D01*
X96488095Y-46880952D01*
X96535714Y-46928571D01*
X96583333Y-47023809D01*
X96583333Y-47261904D01*
X96535714Y-47357142D01*
X96488095Y-47404761D01*
X96392857Y-47452380D01*
X96154761Y-47452380D01*
X96059523Y-47404761D01*
X96011904Y-47357142D01*
G04 #@! TO.C,SW6*
X93916666Y-62404761D02*
X94059523Y-62452380D01*
X94297619Y-62452380D01*
X94392857Y-62404761D01*
X94440476Y-62357142D01*
X94488095Y-62261904D01*
X94488095Y-62166666D01*
X94440476Y-62071428D01*
X94392857Y-62023809D01*
X94297619Y-61976190D01*
X94107142Y-61928571D01*
X94011904Y-61880952D01*
X93964285Y-61833333D01*
X93916666Y-61738095D01*
X93916666Y-61642857D01*
X93964285Y-61547619D01*
X94011904Y-61500000D01*
X94107142Y-61452380D01*
X94345238Y-61452380D01*
X94488095Y-61500000D01*
X94821428Y-61452380D02*
X95059523Y-62452380D01*
X95250000Y-61738095D01*
X95440476Y-62452380D01*
X95678571Y-61452380D01*
X96488095Y-61452380D02*
X96297619Y-61452380D01*
X96202380Y-61500000D01*
X96154761Y-61547619D01*
X96059523Y-61690476D01*
X96011904Y-61880952D01*
X96011904Y-62261904D01*
X96059523Y-62357142D01*
X96107142Y-62404761D01*
X96202380Y-62452380D01*
X96392857Y-62452380D01*
X96488095Y-62404761D01*
X96535714Y-62357142D01*
X96583333Y-62261904D01*
X96583333Y-62023809D01*
X96535714Y-61928571D01*
X96488095Y-61880952D01*
X96392857Y-61833333D01*
X96202380Y-61833333D01*
X96107142Y-61880952D01*
X96059523Y-61928571D01*
X96011904Y-62023809D01*
G04 #@! TO.C,SW7*
X93916666Y-78404761D02*
X94059523Y-78452380D01*
X94297619Y-78452380D01*
X94392857Y-78404761D01*
X94440476Y-78357142D01*
X94488095Y-78261904D01*
X94488095Y-78166666D01*
X94440476Y-78071428D01*
X94392857Y-78023809D01*
X94297619Y-77976190D01*
X94107142Y-77928571D01*
X94011904Y-77880952D01*
X93964285Y-77833333D01*
X93916666Y-77738095D01*
X93916666Y-77642857D01*
X93964285Y-77547619D01*
X94011904Y-77500000D01*
X94107142Y-77452380D01*
X94345238Y-77452380D01*
X94488095Y-77500000D01*
X94821428Y-77452380D02*
X95059523Y-78452380D01*
X95250000Y-77738095D01*
X95440476Y-78452380D01*
X95678571Y-77452380D01*
X95964285Y-77452380D02*
X96630952Y-77452380D01*
X96202380Y-78452380D01*
G04 #@! TO.C,SW8*
X93916666Y-94404761D02*
X94059523Y-94452380D01*
X94297619Y-94452380D01*
X94392857Y-94404761D01*
X94440476Y-94357142D01*
X94488095Y-94261904D01*
X94488095Y-94166666D01*
X94440476Y-94071428D01*
X94392857Y-94023809D01*
X94297619Y-93976190D01*
X94107142Y-93928571D01*
X94011904Y-93880952D01*
X93964285Y-93833333D01*
X93916666Y-93738095D01*
X93916666Y-93642857D01*
X93964285Y-93547619D01*
X94011904Y-93500000D01*
X94107142Y-93452380D01*
X94345238Y-93452380D01*
X94488095Y-93500000D01*
X94821428Y-93452380D02*
X95059523Y-94452380D01*
X95250000Y-93738095D01*
X95440476Y-94452380D01*
X95678571Y-93452380D01*
X96202380Y-93880952D02*
X96107142Y-93833333D01*
X96059523Y-93785714D01*
X96011904Y-93690476D01*
X96011904Y-93642857D01*
X96059523Y-93547619D01*
X96107142Y-93500000D01*
X96202380Y-93452380D01*
X96392857Y-93452380D01*
X96488095Y-93500000D01*
X96535714Y-93547619D01*
X96583333Y-93642857D01*
X96583333Y-93690476D01*
X96535714Y-93785714D01*
X96488095Y-93833333D01*
X96392857Y-93880952D01*
X96202380Y-93880952D01*
X96107142Y-93928571D01*
X96059523Y-93976190D01*
X96011904Y-94071428D01*
X96011904Y-94261904D01*
X96059523Y-94357142D01*
X96107142Y-94404761D01*
X96202380Y-94452380D01*
X96392857Y-94452380D01*
X96488095Y-94404761D01*
X96535714Y-94357142D01*
X96583333Y-94261904D01*
X96583333Y-94071428D01*
X96535714Y-93976190D01*
X96488095Y-93928571D01*
X96392857Y-93880952D01*
G04 #@! TO.C,SW9*
X108416666Y-47404761D02*
X108559523Y-47452380D01*
X108797619Y-47452380D01*
X108892857Y-47404761D01*
X108940476Y-47357142D01*
X108988095Y-47261904D01*
X108988095Y-47166666D01*
X108940476Y-47071428D01*
X108892857Y-47023809D01*
X108797619Y-46976190D01*
X108607142Y-46928571D01*
X108511904Y-46880952D01*
X108464285Y-46833333D01*
X108416666Y-46738095D01*
X108416666Y-46642857D01*
X108464285Y-46547619D01*
X108511904Y-46500000D01*
X108607142Y-46452380D01*
X108845238Y-46452380D01*
X108988095Y-46500000D01*
X109321428Y-46452380D02*
X109559523Y-47452380D01*
X109750000Y-46738095D01*
X109940476Y-47452380D01*
X110178571Y-46452380D01*
X110607142Y-47452380D02*
X110797619Y-47452380D01*
X110892857Y-47404761D01*
X110940476Y-47357142D01*
X111035714Y-47214285D01*
X111083333Y-47023809D01*
X111083333Y-46642857D01*
X111035714Y-46547619D01*
X110988095Y-46500000D01*
X110892857Y-46452380D01*
X110702380Y-46452380D01*
X110607142Y-46500000D01*
X110559523Y-46547619D01*
X110511904Y-46642857D01*
X110511904Y-46880952D01*
X110559523Y-46976190D01*
X110607142Y-47023809D01*
X110702380Y-47071428D01*
X110892857Y-47071428D01*
X110988095Y-47023809D01*
X111035714Y-46976190D01*
X111083333Y-46880952D01*
G04 #@! TO.C,SW10*
X107940476Y-62404761D02*
X108083333Y-62452380D01*
X108321428Y-62452380D01*
X108416666Y-62404761D01*
X108464285Y-62357142D01*
X108511904Y-62261904D01*
X108511904Y-62166666D01*
X108464285Y-62071428D01*
X108416666Y-62023809D01*
X108321428Y-61976190D01*
X108130952Y-61928571D01*
X108035714Y-61880952D01*
X107988095Y-61833333D01*
X107940476Y-61738095D01*
X107940476Y-61642857D01*
X107988095Y-61547619D01*
X108035714Y-61500000D01*
X108130952Y-61452380D01*
X108369047Y-61452380D01*
X108511904Y-61500000D01*
X108845238Y-61452380D02*
X109083333Y-62452380D01*
X109273809Y-61738095D01*
X109464285Y-62452380D01*
X109702380Y-61452380D01*
X110607142Y-62452380D02*
X110035714Y-62452380D01*
X110321428Y-62452380D02*
X110321428Y-61452380D01*
X110226190Y-61595238D01*
X110130952Y-61690476D01*
X110035714Y-61738095D01*
X111226190Y-61452380D02*
X111321428Y-61452380D01*
X111416666Y-61500000D01*
X111464285Y-61547619D01*
X111511904Y-61642857D01*
X111559523Y-61833333D01*
X111559523Y-62071428D01*
X111511904Y-62261904D01*
X111464285Y-62357142D01*
X111416666Y-62404761D01*
X111321428Y-62452380D01*
X111226190Y-62452380D01*
X111130952Y-62404761D01*
X111083333Y-62357142D01*
X111035714Y-62261904D01*
X110988095Y-62071428D01*
X110988095Y-61833333D01*
X111035714Y-61642857D01*
X111083333Y-61547619D01*
X111130952Y-61500000D01*
X111226190Y-61452380D01*
G04 #@! TO.C,SW11*
X107940476Y-78404761D02*
X108083333Y-78452380D01*
X108321428Y-78452380D01*
X108416666Y-78404761D01*
X108464285Y-78357142D01*
X108511904Y-78261904D01*
X108511904Y-78166666D01*
X108464285Y-78071428D01*
X108416666Y-78023809D01*
X108321428Y-77976190D01*
X108130952Y-77928571D01*
X108035714Y-77880952D01*
X107988095Y-77833333D01*
X107940476Y-77738095D01*
X107940476Y-77642857D01*
X107988095Y-77547619D01*
X108035714Y-77500000D01*
X108130952Y-77452380D01*
X108369047Y-77452380D01*
X108511904Y-77500000D01*
X108845238Y-77452380D02*
X109083333Y-78452380D01*
X109273809Y-77738095D01*
X109464285Y-78452380D01*
X109702380Y-77452380D01*
X110607142Y-78452380D02*
X110035714Y-78452380D01*
X110321428Y-78452380D02*
X110321428Y-77452380D01*
X110226190Y-77595238D01*
X110130952Y-77690476D01*
X110035714Y-77738095D01*
X111559523Y-78452380D02*
X110988095Y-78452380D01*
X111273809Y-78452380D02*
X111273809Y-77452380D01*
X111178571Y-77595238D01*
X111083333Y-77690476D01*
X110988095Y-77738095D01*
G04 #@! TO.C,SW12*
X107940476Y-94404761D02*
X108083333Y-94452380D01*
X108321428Y-94452380D01*
X108416666Y-94404761D01*
X108464285Y-94357142D01*
X108511904Y-94261904D01*
X108511904Y-94166666D01*
X108464285Y-94071428D01*
X108416666Y-94023809D01*
X108321428Y-93976190D01*
X108130952Y-93928571D01*
X108035714Y-93880952D01*
X107988095Y-93833333D01*
X107940476Y-93738095D01*
X107940476Y-93642857D01*
X107988095Y-93547619D01*
X108035714Y-93500000D01*
X108130952Y-93452380D01*
X108369047Y-93452380D01*
X108511904Y-93500000D01*
X108845238Y-93452380D02*
X109083333Y-94452380D01*
X109273809Y-93738095D01*
X109464285Y-94452380D01*
X109702380Y-93452380D01*
X110607142Y-94452380D02*
X110035714Y-94452380D01*
X110321428Y-94452380D02*
X110321428Y-93452380D01*
X110226190Y-93595238D01*
X110130952Y-93690476D01*
X110035714Y-93738095D01*
X110988095Y-93547619D02*
X111035714Y-93500000D01*
X111130952Y-93452380D01*
X111369047Y-93452380D01*
X111464285Y-93500000D01*
X111511904Y-93547619D01*
X111559523Y-93642857D01*
X111559523Y-93738095D01*
X111511904Y-93880952D01*
X110940476Y-94452380D01*
X111559523Y-94452380D01*
G04 #@! TD*
M02*
