G04 #@! TF.GenerationSoftware,KiCad,Pcbnew,5.0.2+dfsg1-1*
G04 #@! TF.CreationDate,2021-10-12T12:34:50+05:30*
G04 #@! TF.ProjectId,KEYBORD_PCB_V1,4b455942-4f52-4445-9f50-43425f56312e,rev?*
G04 #@! TF.SameCoordinates,Original*
G04 #@! TF.FileFunction,Other,ECO1*
%FSLAX46Y46*%
G04 Gerber Fmt 4.6, Leading zero omitted, Abs format (unit mm)*
G04 Created by KiCad (PCBNEW 5.0.2+dfsg1-1) date Tue 12 Oct 2021 12:34:50 PM IST*
%MOMM*%
%LPD*%
G01*
G04 APERTURE LIST*
%ADD10C,0.300000*%
G04 APERTURE END LIST*
D10*
X94142857Y-25978571D02*
X93285714Y-25978571D01*
X93714285Y-25978571D02*
X93714285Y-24478571D01*
X93571428Y-24692857D01*
X93428571Y-24835714D01*
X93285714Y-24907142D01*
X95500000Y-24478571D02*
X94785714Y-24478571D01*
X94714285Y-25192857D01*
X94785714Y-25121428D01*
X94928571Y-25050000D01*
X95285714Y-25050000D01*
X95428571Y-25121428D01*
X95500000Y-25192857D01*
X95571428Y-25335714D01*
X95571428Y-25692857D01*
X95500000Y-25835714D01*
X95428571Y-25907142D01*
X95285714Y-25978571D01*
X94928571Y-25978571D01*
X94785714Y-25907142D01*
X94714285Y-25835714D01*
X96214285Y-25835714D02*
X96285714Y-25907142D01*
X96214285Y-25978571D01*
X96142857Y-25907142D01*
X96214285Y-25835714D01*
X96214285Y-25978571D01*
X97214285Y-24478571D02*
X97357142Y-24478571D01*
X97500000Y-24550000D01*
X97571428Y-24621428D01*
X97642857Y-24764285D01*
X97714285Y-25050000D01*
X97714285Y-25407142D01*
X97642857Y-25692857D01*
X97571428Y-25835714D01*
X97500000Y-25907142D01*
X97357142Y-25978571D01*
X97214285Y-25978571D01*
X97071428Y-25907142D01*
X97000000Y-25835714D01*
X96928571Y-25692857D01*
X96857142Y-25407142D01*
X96857142Y-25050000D01*
X96928571Y-24764285D01*
X97000000Y-24621428D01*
X97071428Y-24550000D01*
X97214285Y-24478571D01*
X98642857Y-24478571D02*
X98785714Y-24478571D01*
X98928571Y-24550000D01*
X99000000Y-24621428D01*
X99071428Y-24764285D01*
X99142857Y-25050000D01*
X99142857Y-25407142D01*
X99071428Y-25692857D01*
X99000000Y-25835714D01*
X98928571Y-25907142D01*
X98785714Y-25978571D01*
X98642857Y-25978571D01*
X98500000Y-25907142D01*
X98428571Y-25835714D01*
X98357142Y-25692857D01*
X98285714Y-25407142D01*
X98285714Y-25050000D01*
X98357142Y-24764285D01*
X98428571Y-24621428D01*
X98500000Y-24550000D01*
X98642857Y-24478571D01*
X100071428Y-24478571D02*
X100214285Y-24478571D01*
X100357142Y-24550000D01*
X100428571Y-24621428D01*
X100500000Y-24764285D01*
X100571428Y-25050000D01*
X100571428Y-25407142D01*
X100500000Y-25692857D01*
X100428571Y-25835714D01*
X100357142Y-25907142D01*
X100214285Y-25978571D01*
X100071428Y-25978571D01*
X99928571Y-25907142D01*
X99857142Y-25835714D01*
X99785714Y-25692857D01*
X99714285Y-25407142D01*
X99714285Y-25050000D01*
X99785714Y-24764285D01*
X99857142Y-24621428D01*
X99928571Y-24550000D01*
X100071428Y-24478571D01*
X102357142Y-25978571D02*
X102357142Y-24978571D01*
X102357142Y-25121428D02*
X102428571Y-25050000D01*
X102571428Y-24978571D01*
X102785714Y-24978571D01*
X102928571Y-25050000D01*
X103000000Y-25192857D01*
X103000000Y-25978571D01*
X103000000Y-25192857D02*
X103071428Y-25050000D01*
X103214285Y-24978571D01*
X103428571Y-24978571D01*
X103571428Y-25050000D01*
X103642857Y-25192857D01*
X103642857Y-25978571D01*
X104357142Y-25978571D02*
X104357142Y-24978571D01*
X104357142Y-25121428D02*
X104428571Y-25050000D01*
X104571428Y-24978571D01*
X104785714Y-24978571D01*
X104928571Y-25050000D01*
X105000000Y-25192857D01*
X105000000Y-25978571D01*
X105000000Y-25192857D02*
X105071428Y-25050000D01*
X105214285Y-24978571D01*
X105428571Y-24978571D01*
X105571428Y-25050000D01*
X105642857Y-25192857D01*
X105642857Y-25978571D01*
X92000000Y-27400000D02*
X107000000Y-27400000D01*
X92000000Y-49000000D02*
X92000000Y-26813579D01*
X107000000Y-49000000D02*
X107000000Y-26813579D01*
X107000000Y-27400000D02*
X105873496Y-27986421D01*
X107000000Y-27400000D02*
X105873496Y-26813579D01*
X92000000Y-27400000D02*
X93126504Y-27986421D01*
X92000000Y-27400000D02*
X93126504Y-26813579D01*
X59221428Y-88142857D02*
X59221428Y-87285714D01*
X59221428Y-87714285D02*
X60721428Y-87714285D01*
X60507142Y-87571428D01*
X60364285Y-87428571D01*
X60292857Y-87285714D01*
X60721428Y-89428571D02*
X60721428Y-89142857D01*
X60650000Y-89000000D01*
X60578571Y-88928571D01*
X60364285Y-88785714D01*
X60078571Y-88714285D01*
X59507142Y-88714285D01*
X59364285Y-88785714D01*
X59292857Y-88857142D01*
X59221428Y-89000000D01*
X59221428Y-89285714D01*
X59292857Y-89428571D01*
X59364285Y-89500000D01*
X59507142Y-89571428D01*
X59864285Y-89571428D01*
X60007142Y-89500000D01*
X60078571Y-89428571D01*
X60150000Y-89285714D01*
X60150000Y-89000000D01*
X60078571Y-88857142D01*
X60007142Y-88785714D01*
X59864285Y-88714285D01*
X59364285Y-90214285D02*
X59292857Y-90285714D01*
X59221428Y-90214285D01*
X59292857Y-90142857D01*
X59364285Y-90214285D01*
X59221428Y-90214285D01*
X60721428Y-91214285D02*
X60721428Y-91357142D01*
X60650000Y-91500000D01*
X60578571Y-91571428D01*
X60435714Y-91642857D01*
X60150000Y-91714285D01*
X59792857Y-91714285D01*
X59507142Y-91642857D01*
X59364285Y-91571428D01*
X59292857Y-91500000D01*
X59221428Y-91357142D01*
X59221428Y-91214285D01*
X59292857Y-91071428D01*
X59364285Y-91000000D01*
X59507142Y-90928571D01*
X59792857Y-90857142D01*
X60150000Y-90857142D01*
X60435714Y-90928571D01*
X60578571Y-91000000D01*
X60650000Y-91071428D01*
X60721428Y-91214285D01*
X60721428Y-92642857D02*
X60721428Y-92785714D01*
X60650000Y-92928571D01*
X60578571Y-93000000D01*
X60435714Y-93071428D01*
X60150000Y-93142857D01*
X59792857Y-93142857D01*
X59507142Y-93071428D01*
X59364285Y-93000000D01*
X59292857Y-92928571D01*
X59221428Y-92785714D01*
X59221428Y-92642857D01*
X59292857Y-92500000D01*
X59364285Y-92428571D01*
X59507142Y-92357142D01*
X59792857Y-92285714D01*
X60150000Y-92285714D01*
X60435714Y-92357142D01*
X60578571Y-92428571D01*
X60650000Y-92500000D01*
X60721428Y-92642857D01*
X60721428Y-94071428D02*
X60721428Y-94214285D01*
X60650000Y-94357142D01*
X60578571Y-94428571D01*
X60435714Y-94500000D01*
X60150000Y-94571428D01*
X59792857Y-94571428D01*
X59507142Y-94500000D01*
X59364285Y-94428571D01*
X59292857Y-94357142D01*
X59221428Y-94214285D01*
X59221428Y-94071428D01*
X59292857Y-93928571D01*
X59364285Y-93857142D01*
X59507142Y-93785714D01*
X59792857Y-93714285D01*
X60150000Y-93714285D01*
X60435714Y-93785714D01*
X60578571Y-93857142D01*
X60650000Y-93928571D01*
X60721428Y-94071428D01*
X59221428Y-96357142D02*
X60221428Y-96357142D01*
X60078571Y-96357142D02*
X60150000Y-96428571D01*
X60221428Y-96571428D01*
X60221428Y-96785714D01*
X60150000Y-96928571D01*
X60007142Y-97000000D01*
X59221428Y-97000000D01*
X60007142Y-97000000D02*
X60150000Y-97071428D01*
X60221428Y-97214285D01*
X60221428Y-97428571D01*
X60150000Y-97571428D01*
X60007142Y-97642857D01*
X59221428Y-97642857D01*
X59221428Y-98357142D02*
X60221428Y-98357142D01*
X60078571Y-98357142D02*
X60150000Y-98428571D01*
X60221428Y-98571428D01*
X60221428Y-98785714D01*
X60150000Y-98928571D01*
X60007142Y-99000000D01*
X59221428Y-99000000D01*
X60007142Y-99000000D02*
X60150000Y-99071428D01*
X60221428Y-99214285D01*
X60221428Y-99428571D01*
X60150000Y-99571428D01*
X60007142Y-99642857D01*
X59221428Y-99642857D01*
X62000000Y-85500000D02*
X62000000Y-101500000D01*
X77000000Y-85500000D02*
X61413579Y-85500000D01*
X77000000Y-101500000D02*
X61413579Y-101500000D01*
X62000000Y-101500000D02*
X61413579Y-100373496D01*
X62000000Y-101500000D02*
X62586421Y-100373496D01*
X62000000Y-85500000D02*
X61413579Y-86626504D01*
X62000000Y-85500000D02*
X62586421Y-86626504D01*
X59221428Y-72142857D02*
X59221428Y-71285714D01*
X59221428Y-71714285D02*
X60721428Y-71714285D01*
X60507142Y-71571428D01*
X60364285Y-71428571D01*
X60292857Y-71285714D01*
X60721428Y-73428571D02*
X60721428Y-73142857D01*
X60650000Y-73000000D01*
X60578571Y-72928571D01*
X60364285Y-72785714D01*
X60078571Y-72714285D01*
X59507142Y-72714285D01*
X59364285Y-72785714D01*
X59292857Y-72857142D01*
X59221428Y-73000000D01*
X59221428Y-73285714D01*
X59292857Y-73428571D01*
X59364285Y-73500000D01*
X59507142Y-73571428D01*
X59864285Y-73571428D01*
X60007142Y-73500000D01*
X60078571Y-73428571D01*
X60150000Y-73285714D01*
X60150000Y-73000000D01*
X60078571Y-72857142D01*
X60007142Y-72785714D01*
X59864285Y-72714285D01*
X59364285Y-74214285D02*
X59292857Y-74285714D01*
X59221428Y-74214285D01*
X59292857Y-74142857D01*
X59364285Y-74214285D01*
X59221428Y-74214285D01*
X60721428Y-75214285D02*
X60721428Y-75357142D01*
X60650000Y-75500000D01*
X60578571Y-75571428D01*
X60435714Y-75642857D01*
X60150000Y-75714285D01*
X59792857Y-75714285D01*
X59507142Y-75642857D01*
X59364285Y-75571428D01*
X59292857Y-75500000D01*
X59221428Y-75357142D01*
X59221428Y-75214285D01*
X59292857Y-75071428D01*
X59364285Y-75000000D01*
X59507142Y-74928571D01*
X59792857Y-74857142D01*
X60150000Y-74857142D01*
X60435714Y-74928571D01*
X60578571Y-75000000D01*
X60650000Y-75071428D01*
X60721428Y-75214285D01*
X60721428Y-76642857D02*
X60721428Y-76785714D01*
X60650000Y-76928571D01*
X60578571Y-77000000D01*
X60435714Y-77071428D01*
X60150000Y-77142857D01*
X59792857Y-77142857D01*
X59507142Y-77071428D01*
X59364285Y-77000000D01*
X59292857Y-76928571D01*
X59221428Y-76785714D01*
X59221428Y-76642857D01*
X59292857Y-76500000D01*
X59364285Y-76428571D01*
X59507142Y-76357142D01*
X59792857Y-76285714D01*
X60150000Y-76285714D01*
X60435714Y-76357142D01*
X60578571Y-76428571D01*
X60650000Y-76500000D01*
X60721428Y-76642857D01*
X60721428Y-78071428D02*
X60721428Y-78214285D01*
X60650000Y-78357142D01*
X60578571Y-78428571D01*
X60435714Y-78500000D01*
X60150000Y-78571428D01*
X59792857Y-78571428D01*
X59507142Y-78500000D01*
X59364285Y-78428571D01*
X59292857Y-78357142D01*
X59221428Y-78214285D01*
X59221428Y-78071428D01*
X59292857Y-77928571D01*
X59364285Y-77857142D01*
X59507142Y-77785714D01*
X59792857Y-77714285D01*
X60150000Y-77714285D01*
X60435714Y-77785714D01*
X60578571Y-77857142D01*
X60650000Y-77928571D01*
X60721428Y-78071428D01*
X59221428Y-80357142D02*
X60221428Y-80357142D01*
X60078571Y-80357142D02*
X60150000Y-80428571D01*
X60221428Y-80571428D01*
X60221428Y-80785714D01*
X60150000Y-80928571D01*
X60007142Y-81000000D01*
X59221428Y-81000000D01*
X60007142Y-81000000D02*
X60150000Y-81071428D01*
X60221428Y-81214285D01*
X60221428Y-81428571D01*
X60150000Y-81571428D01*
X60007142Y-81642857D01*
X59221428Y-81642857D01*
X59221428Y-82357142D02*
X60221428Y-82357142D01*
X60078571Y-82357142D02*
X60150000Y-82428571D01*
X60221428Y-82571428D01*
X60221428Y-82785714D01*
X60150000Y-82928571D01*
X60007142Y-83000000D01*
X59221428Y-83000000D01*
X60007142Y-83000000D02*
X60150000Y-83071428D01*
X60221428Y-83214285D01*
X60221428Y-83428571D01*
X60150000Y-83571428D01*
X60007142Y-83642857D01*
X59221428Y-83642857D01*
X62000000Y-69500000D02*
X62000000Y-85500000D01*
X77000000Y-69500000D02*
X61413579Y-69500000D01*
X77000000Y-85500000D02*
X61413579Y-85500000D01*
X62000000Y-85500000D02*
X61413579Y-84373496D01*
X62000000Y-85500000D02*
X62586421Y-84373496D01*
X62000000Y-69500000D02*
X61413579Y-70626504D01*
X62000000Y-69500000D02*
X62586421Y-70626504D01*
X59221428Y-56142857D02*
X59221428Y-55285714D01*
X59221428Y-55714285D02*
X60721428Y-55714285D01*
X60507142Y-55571428D01*
X60364285Y-55428571D01*
X60292857Y-55285714D01*
X60721428Y-57428571D02*
X60721428Y-57142857D01*
X60650000Y-57000000D01*
X60578571Y-56928571D01*
X60364285Y-56785714D01*
X60078571Y-56714285D01*
X59507142Y-56714285D01*
X59364285Y-56785714D01*
X59292857Y-56857142D01*
X59221428Y-57000000D01*
X59221428Y-57285714D01*
X59292857Y-57428571D01*
X59364285Y-57500000D01*
X59507142Y-57571428D01*
X59864285Y-57571428D01*
X60007142Y-57500000D01*
X60078571Y-57428571D01*
X60150000Y-57285714D01*
X60150000Y-57000000D01*
X60078571Y-56857142D01*
X60007142Y-56785714D01*
X59864285Y-56714285D01*
X59364285Y-58214285D02*
X59292857Y-58285714D01*
X59221428Y-58214285D01*
X59292857Y-58142857D01*
X59364285Y-58214285D01*
X59221428Y-58214285D01*
X60721428Y-59214285D02*
X60721428Y-59357142D01*
X60650000Y-59500000D01*
X60578571Y-59571428D01*
X60435714Y-59642857D01*
X60150000Y-59714285D01*
X59792857Y-59714285D01*
X59507142Y-59642857D01*
X59364285Y-59571428D01*
X59292857Y-59500000D01*
X59221428Y-59357142D01*
X59221428Y-59214285D01*
X59292857Y-59071428D01*
X59364285Y-59000000D01*
X59507142Y-58928571D01*
X59792857Y-58857142D01*
X60150000Y-58857142D01*
X60435714Y-58928571D01*
X60578571Y-59000000D01*
X60650000Y-59071428D01*
X60721428Y-59214285D01*
X60721428Y-60642857D02*
X60721428Y-60785714D01*
X60650000Y-60928571D01*
X60578571Y-61000000D01*
X60435714Y-61071428D01*
X60150000Y-61142857D01*
X59792857Y-61142857D01*
X59507142Y-61071428D01*
X59364285Y-61000000D01*
X59292857Y-60928571D01*
X59221428Y-60785714D01*
X59221428Y-60642857D01*
X59292857Y-60500000D01*
X59364285Y-60428571D01*
X59507142Y-60357142D01*
X59792857Y-60285714D01*
X60150000Y-60285714D01*
X60435714Y-60357142D01*
X60578571Y-60428571D01*
X60650000Y-60500000D01*
X60721428Y-60642857D01*
X60721428Y-62071428D02*
X60721428Y-62214285D01*
X60650000Y-62357142D01*
X60578571Y-62428571D01*
X60435714Y-62500000D01*
X60150000Y-62571428D01*
X59792857Y-62571428D01*
X59507142Y-62500000D01*
X59364285Y-62428571D01*
X59292857Y-62357142D01*
X59221428Y-62214285D01*
X59221428Y-62071428D01*
X59292857Y-61928571D01*
X59364285Y-61857142D01*
X59507142Y-61785714D01*
X59792857Y-61714285D01*
X60150000Y-61714285D01*
X60435714Y-61785714D01*
X60578571Y-61857142D01*
X60650000Y-61928571D01*
X60721428Y-62071428D01*
X59221428Y-64357142D02*
X60221428Y-64357142D01*
X60078571Y-64357142D02*
X60150000Y-64428571D01*
X60221428Y-64571428D01*
X60221428Y-64785714D01*
X60150000Y-64928571D01*
X60007142Y-65000000D01*
X59221428Y-65000000D01*
X60007142Y-65000000D02*
X60150000Y-65071428D01*
X60221428Y-65214285D01*
X60221428Y-65428571D01*
X60150000Y-65571428D01*
X60007142Y-65642857D01*
X59221428Y-65642857D01*
X59221428Y-66357142D02*
X60221428Y-66357142D01*
X60078571Y-66357142D02*
X60150000Y-66428571D01*
X60221428Y-66571428D01*
X60221428Y-66785714D01*
X60150000Y-66928571D01*
X60007142Y-67000000D01*
X59221428Y-67000000D01*
X60007142Y-67000000D02*
X60150000Y-67071428D01*
X60221428Y-67214285D01*
X60221428Y-67428571D01*
X60150000Y-67571428D01*
X60007142Y-67642857D01*
X59221428Y-67642857D01*
X62000000Y-53500000D02*
X62000000Y-69500000D01*
X77000000Y-53500000D02*
X61413579Y-53500000D01*
X77000000Y-69500000D02*
X61413579Y-69500000D01*
X62000000Y-69500000D02*
X61413579Y-68373496D01*
X62000000Y-69500000D02*
X62586421Y-68373496D01*
X62000000Y-53500000D02*
X61413579Y-54626504D01*
X62000000Y-53500000D02*
X62586421Y-54626504D01*
X79142857Y-26078571D02*
X78285714Y-26078571D01*
X78714285Y-26078571D02*
X78714285Y-24578571D01*
X78571428Y-24792857D01*
X78428571Y-24935714D01*
X78285714Y-25007142D01*
X80500000Y-24578571D02*
X79785714Y-24578571D01*
X79714285Y-25292857D01*
X79785714Y-25221428D01*
X79928571Y-25150000D01*
X80285714Y-25150000D01*
X80428571Y-25221428D01*
X80500000Y-25292857D01*
X80571428Y-25435714D01*
X80571428Y-25792857D01*
X80500000Y-25935714D01*
X80428571Y-26007142D01*
X80285714Y-26078571D01*
X79928571Y-26078571D01*
X79785714Y-26007142D01*
X79714285Y-25935714D01*
X81214285Y-25935714D02*
X81285714Y-26007142D01*
X81214285Y-26078571D01*
X81142857Y-26007142D01*
X81214285Y-25935714D01*
X81214285Y-26078571D01*
X82214285Y-24578571D02*
X82357142Y-24578571D01*
X82500000Y-24650000D01*
X82571428Y-24721428D01*
X82642857Y-24864285D01*
X82714285Y-25150000D01*
X82714285Y-25507142D01*
X82642857Y-25792857D01*
X82571428Y-25935714D01*
X82500000Y-26007142D01*
X82357142Y-26078571D01*
X82214285Y-26078571D01*
X82071428Y-26007142D01*
X82000000Y-25935714D01*
X81928571Y-25792857D01*
X81857142Y-25507142D01*
X81857142Y-25150000D01*
X81928571Y-24864285D01*
X82000000Y-24721428D01*
X82071428Y-24650000D01*
X82214285Y-24578571D01*
X83642857Y-24578571D02*
X83785714Y-24578571D01*
X83928571Y-24650000D01*
X84000000Y-24721428D01*
X84071428Y-24864285D01*
X84142857Y-25150000D01*
X84142857Y-25507142D01*
X84071428Y-25792857D01*
X84000000Y-25935714D01*
X83928571Y-26007142D01*
X83785714Y-26078571D01*
X83642857Y-26078571D01*
X83500000Y-26007142D01*
X83428571Y-25935714D01*
X83357142Y-25792857D01*
X83285714Y-25507142D01*
X83285714Y-25150000D01*
X83357142Y-24864285D01*
X83428571Y-24721428D01*
X83500000Y-24650000D01*
X83642857Y-24578571D01*
X85071428Y-24578571D02*
X85214285Y-24578571D01*
X85357142Y-24650000D01*
X85428571Y-24721428D01*
X85500000Y-24864285D01*
X85571428Y-25150000D01*
X85571428Y-25507142D01*
X85500000Y-25792857D01*
X85428571Y-25935714D01*
X85357142Y-26007142D01*
X85214285Y-26078571D01*
X85071428Y-26078571D01*
X84928571Y-26007142D01*
X84857142Y-25935714D01*
X84785714Y-25792857D01*
X84714285Y-25507142D01*
X84714285Y-25150000D01*
X84785714Y-24864285D01*
X84857142Y-24721428D01*
X84928571Y-24650000D01*
X85071428Y-24578571D01*
X87357142Y-26078571D02*
X87357142Y-25078571D01*
X87357142Y-25221428D02*
X87428571Y-25150000D01*
X87571428Y-25078571D01*
X87785714Y-25078571D01*
X87928571Y-25150000D01*
X88000000Y-25292857D01*
X88000000Y-26078571D01*
X88000000Y-25292857D02*
X88071428Y-25150000D01*
X88214285Y-25078571D01*
X88428571Y-25078571D01*
X88571428Y-25150000D01*
X88642857Y-25292857D01*
X88642857Y-26078571D01*
X89357142Y-26078571D02*
X89357142Y-25078571D01*
X89357142Y-25221428D02*
X89428571Y-25150000D01*
X89571428Y-25078571D01*
X89785714Y-25078571D01*
X89928571Y-25150000D01*
X90000000Y-25292857D01*
X90000000Y-26078571D01*
X90000000Y-25292857D02*
X90071428Y-25150000D01*
X90214285Y-25078571D01*
X90428571Y-25078571D01*
X90571428Y-25150000D01*
X90642857Y-25292857D01*
X90642857Y-26078571D01*
X77000000Y-27500000D02*
X92000000Y-27500000D01*
X77000000Y-53500000D02*
X77000000Y-26913579D01*
X92000000Y-53500000D02*
X92000000Y-26913579D01*
X92000000Y-27500000D02*
X90873496Y-28086421D01*
X92000000Y-27500000D02*
X90873496Y-26913579D01*
X77000000Y-27500000D02*
X78126504Y-28086421D01*
X77000000Y-27500000D02*
X78126504Y-26913579D01*
X132921428Y-53892857D02*
X132921428Y-53035714D01*
X132921428Y-53464285D02*
X134421428Y-53464285D01*
X134207142Y-53321428D01*
X134064285Y-53178571D01*
X133992857Y-53035714D01*
X132921428Y-55321428D02*
X132921428Y-54464285D01*
X132921428Y-54892857D02*
X134421428Y-54892857D01*
X134207142Y-54750000D01*
X134064285Y-54607142D01*
X133992857Y-54464285D01*
X133064285Y-55964285D02*
X132992857Y-56035714D01*
X132921428Y-55964285D01*
X132992857Y-55892857D01*
X133064285Y-55964285D01*
X132921428Y-55964285D01*
X134421428Y-57392857D02*
X134421428Y-56678571D01*
X133707142Y-56607142D01*
X133778571Y-56678571D01*
X133850000Y-56821428D01*
X133850000Y-57178571D01*
X133778571Y-57321428D01*
X133707142Y-57392857D01*
X133564285Y-57464285D01*
X133207142Y-57464285D01*
X133064285Y-57392857D01*
X132992857Y-57321428D01*
X132921428Y-57178571D01*
X132921428Y-56821428D01*
X132992857Y-56678571D01*
X133064285Y-56607142D01*
X134421428Y-58392857D02*
X134421428Y-58535714D01*
X134350000Y-58678571D01*
X134278571Y-58750000D01*
X134135714Y-58821428D01*
X133850000Y-58892857D01*
X133492857Y-58892857D01*
X133207142Y-58821428D01*
X133064285Y-58750000D01*
X132992857Y-58678571D01*
X132921428Y-58535714D01*
X132921428Y-58392857D01*
X132992857Y-58250000D01*
X133064285Y-58178571D01*
X133207142Y-58107142D01*
X133492857Y-58035714D01*
X133850000Y-58035714D01*
X134135714Y-58107142D01*
X134278571Y-58178571D01*
X134350000Y-58250000D01*
X134421428Y-58392857D01*
X134421428Y-59821428D02*
X134421428Y-59964285D01*
X134350000Y-60107142D01*
X134278571Y-60178571D01*
X134135714Y-60250000D01*
X133850000Y-60321428D01*
X133492857Y-60321428D01*
X133207142Y-60250000D01*
X133064285Y-60178571D01*
X132992857Y-60107142D01*
X132921428Y-59964285D01*
X132921428Y-59821428D01*
X132992857Y-59678571D01*
X133064285Y-59607142D01*
X133207142Y-59535714D01*
X133492857Y-59464285D01*
X133850000Y-59464285D01*
X134135714Y-59535714D01*
X134278571Y-59607142D01*
X134350000Y-59678571D01*
X134421428Y-59821428D01*
X132921428Y-62107142D02*
X133921428Y-62107142D01*
X133778571Y-62107142D02*
X133850000Y-62178571D01*
X133921428Y-62321428D01*
X133921428Y-62535714D01*
X133850000Y-62678571D01*
X133707142Y-62750000D01*
X132921428Y-62750000D01*
X133707142Y-62750000D02*
X133850000Y-62821428D01*
X133921428Y-62964285D01*
X133921428Y-63178571D01*
X133850000Y-63321428D01*
X133707142Y-63392857D01*
X132921428Y-63392857D01*
X132921428Y-64107142D02*
X133921428Y-64107142D01*
X133778571Y-64107142D02*
X133850000Y-64178571D01*
X133921428Y-64321428D01*
X133921428Y-64535714D01*
X133850000Y-64678571D01*
X133707142Y-64750000D01*
X132921428Y-64750000D01*
X133707142Y-64750000D02*
X133850000Y-64821428D01*
X133921428Y-64964285D01*
X133921428Y-65178571D01*
X133850000Y-65321428D01*
X133707142Y-65392857D01*
X132921428Y-65392857D01*
X131500000Y-53500000D02*
X131500000Y-65000000D01*
X113500000Y-53500000D02*
X132086421Y-53500000D01*
X113500000Y-65000000D02*
X132086421Y-65000000D01*
X131500000Y-65000000D02*
X130913579Y-63873496D01*
X131500000Y-65000000D02*
X132086421Y-63873496D01*
X131500000Y-53500000D02*
X130913579Y-54626504D01*
X131500000Y-53500000D02*
X132086421Y-54626504D01*
X127521428Y-46464285D02*
X126521428Y-46464285D01*
X128092857Y-46107142D02*
X127021428Y-45750000D01*
X127021428Y-46678571D01*
X126664285Y-47250000D02*
X126592857Y-47321428D01*
X126521428Y-47250000D01*
X126592857Y-47178571D01*
X126664285Y-47250000D01*
X126521428Y-47250000D01*
X128021428Y-48678571D02*
X128021428Y-47964285D01*
X127307142Y-47892857D01*
X127378571Y-47964285D01*
X127450000Y-48107142D01*
X127450000Y-48464285D01*
X127378571Y-48607142D01*
X127307142Y-48678571D01*
X127164285Y-48750000D01*
X126807142Y-48750000D01*
X126664285Y-48678571D01*
X126592857Y-48607142D01*
X126521428Y-48464285D01*
X126521428Y-48107142D01*
X126592857Y-47964285D01*
X126664285Y-47892857D01*
X128021428Y-49678571D02*
X128021428Y-49821428D01*
X127950000Y-49964285D01*
X127878571Y-50035714D01*
X127735714Y-50107142D01*
X127450000Y-50178571D01*
X127092857Y-50178571D01*
X126807142Y-50107142D01*
X126664285Y-50035714D01*
X126592857Y-49964285D01*
X126521428Y-49821428D01*
X126521428Y-49678571D01*
X126592857Y-49535714D01*
X126664285Y-49464285D01*
X126807142Y-49392857D01*
X127092857Y-49321428D01*
X127450000Y-49321428D01*
X127735714Y-49392857D01*
X127878571Y-49464285D01*
X127950000Y-49535714D01*
X128021428Y-49678571D01*
X128021428Y-51107142D02*
X128021428Y-51250000D01*
X127950000Y-51392857D01*
X127878571Y-51464285D01*
X127735714Y-51535714D01*
X127450000Y-51607142D01*
X127092857Y-51607142D01*
X126807142Y-51535714D01*
X126664285Y-51464285D01*
X126592857Y-51392857D01*
X126521428Y-51250000D01*
X126521428Y-51107142D01*
X126592857Y-50964285D01*
X126664285Y-50892857D01*
X126807142Y-50821428D01*
X127092857Y-50750000D01*
X127450000Y-50750000D01*
X127735714Y-50821428D01*
X127878571Y-50892857D01*
X127950000Y-50964285D01*
X128021428Y-51107142D01*
X126521428Y-53392857D02*
X127521428Y-53392857D01*
X127378571Y-53392857D02*
X127450000Y-53464285D01*
X127521428Y-53607142D01*
X127521428Y-53821428D01*
X127450000Y-53964285D01*
X127307142Y-54035714D01*
X126521428Y-54035714D01*
X127307142Y-54035714D02*
X127450000Y-54107142D01*
X127521428Y-54250000D01*
X127521428Y-54464285D01*
X127450000Y-54607142D01*
X127307142Y-54678571D01*
X126521428Y-54678571D01*
X126521428Y-55392857D02*
X127521428Y-55392857D01*
X127378571Y-55392857D02*
X127450000Y-55464285D01*
X127521428Y-55607142D01*
X127521428Y-55821428D01*
X127450000Y-55964285D01*
X127307142Y-56035714D01*
X126521428Y-56035714D01*
X127307142Y-56035714D02*
X127450000Y-56107142D01*
X127521428Y-56250000D01*
X127521428Y-56464285D01*
X127450000Y-56607142D01*
X127307142Y-56678571D01*
X126521428Y-56678571D01*
X125100000Y-49000000D02*
X125100000Y-53500000D01*
X113500000Y-49000000D02*
X125686421Y-49000000D01*
X113500000Y-53500000D02*
X125686421Y-53500000D01*
X125100000Y-53500000D02*
X124513579Y-52373496D01*
X125100000Y-53500000D02*
X125686421Y-52373496D01*
X125100000Y-49000000D02*
X124513579Y-50126504D01*
X125100000Y-49000000D02*
X125686421Y-50126504D01*
X123621428Y-69821428D02*
X123621428Y-69107142D01*
X122907142Y-69035714D01*
X122978571Y-69107142D01*
X123050000Y-69250000D01*
X123050000Y-69607142D01*
X122978571Y-69750000D01*
X122907142Y-69821428D01*
X122764285Y-69892857D01*
X122407142Y-69892857D01*
X122264285Y-69821428D01*
X122192857Y-69750000D01*
X122121428Y-69607142D01*
X122121428Y-69250000D01*
X122192857Y-69107142D01*
X122264285Y-69035714D01*
X123478571Y-70464285D02*
X123550000Y-70535714D01*
X123621428Y-70678571D01*
X123621428Y-71035714D01*
X123550000Y-71178571D01*
X123478571Y-71250000D01*
X123335714Y-71321428D01*
X123192857Y-71321428D01*
X122978571Y-71250000D01*
X122121428Y-70392857D01*
X122121428Y-71321428D01*
X122264285Y-71964285D02*
X122192857Y-72035714D01*
X122121428Y-71964285D01*
X122192857Y-71892857D01*
X122264285Y-71964285D01*
X122121428Y-71964285D01*
X123621428Y-73392857D02*
X123621428Y-72678571D01*
X122907142Y-72607142D01*
X122978571Y-72678571D01*
X123050000Y-72821428D01*
X123050000Y-73178571D01*
X122978571Y-73321428D01*
X122907142Y-73392857D01*
X122764285Y-73464285D01*
X122407142Y-73464285D01*
X122264285Y-73392857D01*
X122192857Y-73321428D01*
X122121428Y-73178571D01*
X122121428Y-72821428D01*
X122192857Y-72678571D01*
X122264285Y-72607142D01*
X123621428Y-74392857D02*
X123621428Y-74535714D01*
X123550000Y-74678571D01*
X123478571Y-74750000D01*
X123335714Y-74821428D01*
X123050000Y-74892857D01*
X122692857Y-74892857D01*
X122407142Y-74821428D01*
X122264285Y-74750000D01*
X122192857Y-74678571D01*
X122121428Y-74535714D01*
X122121428Y-74392857D01*
X122192857Y-74250000D01*
X122264285Y-74178571D01*
X122407142Y-74107142D01*
X122692857Y-74035714D01*
X123050000Y-74035714D01*
X123335714Y-74107142D01*
X123478571Y-74178571D01*
X123550000Y-74250000D01*
X123621428Y-74392857D01*
X123621428Y-75821428D02*
X123621428Y-75964285D01*
X123550000Y-76107142D01*
X123478571Y-76178571D01*
X123335714Y-76250000D01*
X123050000Y-76321428D01*
X122692857Y-76321428D01*
X122407142Y-76250000D01*
X122264285Y-76178571D01*
X122192857Y-76107142D01*
X122121428Y-75964285D01*
X122121428Y-75821428D01*
X122192857Y-75678571D01*
X122264285Y-75607142D01*
X122407142Y-75535714D01*
X122692857Y-75464285D01*
X123050000Y-75464285D01*
X123335714Y-75535714D01*
X123478571Y-75607142D01*
X123550000Y-75678571D01*
X123621428Y-75821428D01*
X122121428Y-78107142D02*
X123121428Y-78107142D01*
X122978571Y-78107142D02*
X123050000Y-78178571D01*
X123121428Y-78321428D01*
X123121428Y-78535714D01*
X123050000Y-78678571D01*
X122907142Y-78750000D01*
X122121428Y-78750000D01*
X122907142Y-78750000D02*
X123050000Y-78821428D01*
X123121428Y-78964285D01*
X123121428Y-79178571D01*
X123050000Y-79321428D01*
X122907142Y-79392857D01*
X122121428Y-79392857D01*
X122121428Y-80107142D02*
X123121428Y-80107142D01*
X122978571Y-80107142D02*
X123050000Y-80178571D01*
X123121428Y-80321428D01*
X123121428Y-80535714D01*
X123050000Y-80678571D01*
X122907142Y-80750000D01*
X122121428Y-80750000D01*
X122907142Y-80750000D02*
X123050000Y-80821428D01*
X123121428Y-80964285D01*
X123121428Y-81178571D01*
X123050000Y-81321428D01*
X122907142Y-81392857D01*
X122121428Y-81392857D01*
X120700000Y-49000000D02*
X120700000Y-101500000D01*
X113500000Y-49000000D02*
X121286421Y-49000000D01*
X113500000Y-101500000D02*
X121286421Y-101500000D01*
X120700000Y-101500000D02*
X120113579Y-100373496D01*
X120700000Y-101500000D02*
X121286421Y-100373496D01*
X120700000Y-49000000D02*
X120113579Y-50126504D01*
X120700000Y-49000000D02*
X121286421Y-50126504D01*
X82535714Y-119421428D02*
X82392857Y-119350000D01*
X82321428Y-119278571D01*
X82250000Y-119135714D01*
X82250000Y-119064285D01*
X82321428Y-118921428D01*
X82392857Y-118850000D01*
X82535714Y-118778571D01*
X82821428Y-118778571D01*
X82964285Y-118850000D01*
X83035714Y-118921428D01*
X83107142Y-119064285D01*
X83107142Y-119135714D01*
X83035714Y-119278571D01*
X82964285Y-119350000D01*
X82821428Y-119421428D01*
X82535714Y-119421428D01*
X82392857Y-119492857D01*
X82321428Y-119564285D01*
X82250000Y-119707142D01*
X82250000Y-119992857D01*
X82321428Y-120135714D01*
X82392857Y-120207142D01*
X82535714Y-120278571D01*
X82821428Y-120278571D01*
X82964285Y-120207142D01*
X83035714Y-120135714D01*
X83107142Y-119992857D01*
X83107142Y-119707142D01*
X83035714Y-119564285D01*
X82964285Y-119492857D01*
X82821428Y-119421428D01*
X83750000Y-120135714D02*
X83821428Y-120207142D01*
X83750000Y-120278571D01*
X83678571Y-120207142D01*
X83750000Y-120135714D01*
X83750000Y-120278571D01*
X85178571Y-118778571D02*
X84464285Y-118778571D01*
X84392857Y-119492857D01*
X84464285Y-119421428D01*
X84607142Y-119350000D01*
X84964285Y-119350000D01*
X85107142Y-119421428D01*
X85178571Y-119492857D01*
X85250000Y-119635714D01*
X85250000Y-119992857D01*
X85178571Y-120135714D01*
X85107142Y-120207142D01*
X84964285Y-120278571D01*
X84607142Y-120278571D01*
X84464285Y-120207142D01*
X84392857Y-120135714D01*
X86178571Y-118778571D02*
X86321428Y-118778571D01*
X86464285Y-118850000D01*
X86535714Y-118921428D01*
X86607142Y-119064285D01*
X86678571Y-119350000D01*
X86678571Y-119707142D01*
X86607142Y-119992857D01*
X86535714Y-120135714D01*
X86464285Y-120207142D01*
X86321428Y-120278571D01*
X86178571Y-120278571D01*
X86035714Y-120207142D01*
X85964285Y-120135714D01*
X85892857Y-119992857D01*
X85821428Y-119707142D01*
X85821428Y-119350000D01*
X85892857Y-119064285D01*
X85964285Y-118921428D01*
X86035714Y-118850000D01*
X86178571Y-118778571D01*
X87607142Y-118778571D02*
X87750000Y-118778571D01*
X87892857Y-118850000D01*
X87964285Y-118921428D01*
X88035714Y-119064285D01*
X88107142Y-119350000D01*
X88107142Y-119707142D01*
X88035714Y-119992857D01*
X87964285Y-120135714D01*
X87892857Y-120207142D01*
X87750000Y-120278571D01*
X87607142Y-120278571D01*
X87464285Y-120207142D01*
X87392857Y-120135714D01*
X87321428Y-119992857D01*
X87250000Y-119707142D01*
X87250000Y-119350000D01*
X87321428Y-119064285D01*
X87392857Y-118921428D01*
X87464285Y-118850000D01*
X87607142Y-118778571D01*
X89892857Y-120278571D02*
X89892857Y-119278571D01*
X89892857Y-119421428D02*
X89964285Y-119350000D01*
X90107142Y-119278571D01*
X90321428Y-119278571D01*
X90464285Y-119350000D01*
X90535714Y-119492857D01*
X90535714Y-120278571D01*
X90535714Y-119492857D02*
X90607142Y-119350000D01*
X90750000Y-119278571D01*
X90964285Y-119278571D01*
X91107142Y-119350000D01*
X91178571Y-119492857D01*
X91178571Y-120278571D01*
X91892857Y-120278571D02*
X91892857Y-119278571D01*
X91892857Y-119421428D02*
X91964285Y-119350000D01*
X92107142Y-119278571D01*
X92321428Y-119278571D01*
X92464285Y-119350000D01*
X92535714Y-119492857D01*
X92535714Y-120278571D01*
X92535714Y-119492857D02*
X92607142Y-119350000D01*
X92750000Y-119278571D01*
X92964285Y-119278571D01*
X93107142Y-119350000D01*
X93178571Y-119492857D01*
X93178571Y-120278571D01*
X83500000Y-117500000D02*
X92000000Y-117500000D01*
X83500000Y-101500000D02*
X83500000Y-118086421D01*
X92000000Y-101500000D02*
X92000000Y-118086421D01*
X92000000Y-117500000D02*
X90873496Y-118086421D01*
X92000000Y-117500000D02*
X90873496Y-116913579D01*
X83500000Y-117500000D02*
X84626504Y-118086421D01*
X83500000Y-117500000D02*
X84626504Y-116913579D01*
X75464285Y-111878571D02*
X75178571Y-111878571D01*
X75035714Y-111950000D01*
X74964285Y-112021428D01*
X74821428Y-112235714D01*
X74750000Y-112521428D01*
X74750000Y-113092857D01*
X74821428Y-113235714D01*
X74892857Y-113307142D01*
X75035714Y-113378571D01*
X75321428Y-113378571D01*
X75464285Y-113307142D01*
X75535714Y-113235714D01*
X75607142Y-113092857D01*
X75607142Y-112735714D01*
X75535714Y-112592857D01*
X75464285Y-112521428D01*
X75321428Y-112450000D01*
X75035714Y-112450000D01*
X74892857Y-112521428D01*
X74821428Y-112592857D01*
X74750000Y-112735714D01*
X76250000Y-113235714D02*
X76321428Y-113307142D01*
X76250000Y-113378571D01*
X76178571Y-113307142D01*
X76250000Y-113235714D01*
X76250000Y-113378571D01*
X77678571Y-111878571D02*
X76964285Y-111878571D01*
X76892857Y-112592857D01*
X76964285Y-112521428D01*
X77107142Y-112450000D01*
X77464285Y-112450000D01*
X77607142Y-112521428D01*
X77678571Y-112592857D01*
X77750000Y-112735714D01*
X77750000Y-113092857D01*
X77678571Y-113235714D01*
X77607142Y-113307142D01*
X77464285Y-113378571D01*
X77107142Y-113378571D01*
X76964285Y-113307142D01*
X76892857Y-113235714D01*
X78678571Y-111878571D02*
X78821428Y-111878571D01*
X78964285Y-111950000D01*
X79035714Y-112021428D01*
X79107142Y-112164285D01*
X79178571Y-112450000D01*
X79178571Y-112807142D01*
X79107142Y-113092857D01*
X79035714Y-113235714D01*
X78964285Y-113307142D01*
X78821428Y-113378571D01*
X78678571Y-113378571D01*
X78535714Y-113307142D01*
X78464285Y-113235714D01*
X78392857Y-113092857D01*
X78321428Y-112807142D01*
X78321428Y-112450000D01*
X78392857Y-112164285D01*
X78464285Y-112021428D01*
X78535714Y-111950000D01*
X78678571Y-111878571D01*
X80107142Y-111878571D02*
X80250000Y-111878571D01*
X80392857Y-111950000D01*
X80464285Y-112021428D01*
X80535714Y-112164285D01*
X80607142Y-112450000D01*
X80607142Y-112807142D01*
X80535714Y-113092857D01*
X80464285Y-113235714D01*
X80392857Y-113307142D01*
X80250000Y-113378571D01*
X80107142Y-113378571D01*
X79964285Y-113307142D01*
X79892857Y-113235714D01*
X79821428Y-113092857D01*
X79750000Y-112807142D01*
X79750000Y-112450000D01*
X79821428Y-112164285D01*
X79892857Y-112021428D01*
X79964285Y-111950000D01*
X80107142Y-111878571D01*
X82392857Y-113378571D02*
X82392857Y-112378571D01*
X82392857Y-112521428D02*
X82464285Y-112450000D01*
X82607142Y-112378571D01*
X82821428Y-112378571D01*
X82964285Y-112450000D01*
X83035714Y-112592857D01*
X83035714Y-113378571D01*
X83035714Y-112592857D02*
X83107142Y-112450000D01*
X83250000Y-112378571D01*
X83464285Y-112378571D01*
X83607142Y-112450000D01*
X83678571Y-112592857D01*
X83678571Y-113378571D01*
X84392857Y-113378571D02*
X84392857Y-112378571D01*
X84392857Y-112521428D02*
X84464285Y-112450000D01*
X84607142Y-112378571D01*
X84821428Y-112378571D01*
X84964285Y-112450000D01*
X85035714Y-112592857D01*
X85035714Y-113378571D01*
X85035714Y-112592857D02*
X85107142Y-112450000D01*
X85250000Y-112378571D01*
X85464285Y-112378571D01*
X85607142Y-112450000D01*
X85678571Y-112592857D01*
X85678571Y-113378571D01*
X77000000Y-110600000D02*
X83500000Y-110600000D01*
X77000000Y-101500000D02*
X77000000Y-111186421D01*
X83500000Y-101500000D02*
X83500000Y-111186421D01*
X83500000Y-110600000D02*
X82373496Y-111186421D01*
X83500000Y-110600000D02*
X82373496Y-110013579D01*
X77000000Y-110600000D02*
X78126504Y-111186421D01*
X77000000Y-110600000D02*
X78126504Y-110013579D01*
X88964285Y-109078571D02*
X89892857Y-109078571D01*
X89392857Y-109650000D01*
X89607142Y-109650000D01*
X89750000Y-109721428D01*
X89821428Y-109792857D01*
X89892857Y-109935714D01*
X89892857Y-110292857D01*
X89821428Y-110435714D01*
X89750000Y-110507142D01*
X89607142Y-110578571D01*
X89178571Y-110578571D01*
X89035714Y-110507142D01*
X88964285Y-110435714D01*
X91178571Y-109078571D02*
X90892857Y-109078571D01*
X90750000Y-109150000D01*
X90678571Y-109221428D01*
X90535714Y-109435714D01*
X90464285Y-109721428D01*
X90464285Y-110292857D01*
X90535714Y-110435714D01*
X90607142Y-110507142D01*
X90750000Y-110578571D01*
X91035714Y-110578571D01*
X91178571Y-110507142D01*
X91250000Y-110435714D01*
X91321428Y-110292857D01*
X91321428Y-109935714D01*
X91250000Y-109792857D01*
X91178571Y-109721428D01*
X91035714Y-109650000D01*
X90750000Y-109650000D01*
X90607142Y-109721428D01*
X90535714Y-109792857D01*
X90464285Y-109935714D01*
X91964285Y-110435714D02*
X92035714Y-110507142D01*
X91964285Y-110578571D01*
X91892857Y-110507142D01*
X91964285Y-110435714D01*
X91964285Y-110578571D01*
X93392857Y-109078571D02*
X92678571Y-109078571D01*
X92607142Y-109792857D01*
X92678571Y-109721428D01*
X92821428Y-109650000D01*
X93178571Y-109650000D01*
X93321428Y-109721428D01*
X93392857Y-109792857D01*
X93464285Y-109935714D01*
X93464285Y-110292857D01*
X93392857Y-110435714D01*
X93321428Y-110507142D01*
X93178571Y-110578571D01*
X92821428Y-110578571D01*
X92678571Y-110507142D01*
X92607142Y-110435714D01*
X94392857Y-109078571D02*
X94535714Y-109078571D01*
X94678571Y-109150000D01*
X94750000Y-109221428D01*
X94821428Y-109364285D01*
X94892857Y-109650000D01*
X94892857Y-110007142D01*
X94821428Y-110292857D01*
X94750000Y-110435714D01*
X94678571Y-110507142D01*
X94535714Y-110578571D01*
X94392857Y-110578571D01*
X94250000Y-110507142D01*
X94178571Y-110435714D01*
X94107142Y-110292857D01*
X94035714Y-110007142D01*
X94035714Y-109650000D01*
X94107142Y-109364285D01*
X94178571Y-109221428D01*
X94250000Y-109150000D01*
X94392857Y-109078571D01*
X95821428Y-109078571D02*
X95964285Y-109078571D01*
X96107142Y-109150000D01*
X96178571Y-109221428D01*
X96250000Y-109364285D01*
X96321428Y-109650000D01*
X96321428Y-110007142D01*
X96250000Y-110292857D01*
X96178571Y-110435714D01*
X96107142Y-110507142D01*
X95964285Y-110578571D01*
X95821428Y-110578571D01*
X95678571Y-110507142D01*
X95607142Y-110435714D01*
X95535714Y-110292857D01*
X95464285Y-110007142D01*
X95464285Y-109650000D01*
X95535714Y-109364285D01*
X95607142Y-109221428D01*
X95678571Y-109150000D01*
X95821428Y-109078571D01*
X98107142Y-110578571D02*
X98107142Y-109578571D01*
X98107142Y-109721428D02*
X98178571Y-109650000D01*
X98321428Y-109578571D01*
X98535714Y-109578571D01*
X98678571Y-109650000D01*
X98750000Y-109792857D01*
X98750000Y-110578571D01*
X98750000Y-109792857D02*
X98821428Y-109650000D01*
X98964285Y-109578571D01*
X99178571Y-109578571D01*
X99321428Y-109650000D01*
X99392857Y-109792857D01*
X99392857Y-110578571D01*
X100107142Y-110578571D02*
X100107142Y-109578571D01*
X100107142Y-109721428D02*
X100178571Y-109650000D01*
X100321428Y-109578571D01*
X100535714Y-109578571D01*
X100678571Y-109650000D01*
X100750000Y-109792857D01*
X100750000Y-110578571D01*
X100750000Y-109792857D02*
X100821428Y-109650000D01*
X100964285Y-109578571D01*
X101178571Y-109578571D01*
X101321428Y-109650000D01*
X101392857Y-109792857D01*
X101392857Y-110578571D01*
X77000000Y-107800000D02*
X113500000Y-107800000D01*
X77000000Y-97000000D02*
X77000000Y-108386421D01*
X113500000Y-97000000D02*
X113500000Y-108386421D01*
X113500000Y-107800000D02*
X112373496Y-108386421D01*
X113500000Y-107800000D02*
X112373496Y-107213579D01*
X77000000Y-107800000D02*
X78126504Y-108386421D01*
X77000000Y-107800000D02*
X78126504Y-107213579D01*
X88964285Y-43078571D02*
X89892857Y-43078571D01*
X89392857Y-43650000D01*
X89607142Y-43650000D01*
X89750000Y-43721428D01*
X89821428Y-43792857D01*
X89892857Y-43935714D01*
X89892857Y-44292857D01*
X89821428Y-44435714D01*
X89750000Y-44507142D01*
X89607142Y-44578571D01*
X89178571Y-44578571D01*
X89035714Y-44507142D01*
X88964285Y-44435714D01*
X91178571Y-43078571D02*
X90892857Y-43078571D01*
X90750000Y-43150000D01*
X90678571Y-43221428D01*
X90535714Y-43435714D01*
X90464285Y-43721428D01*
X90464285Y-44292857D01*
X90535714Y-44435714D01*
X90607142Y-44507142D01*
X90750000Y-44578571D01*
X91035714Y-44578571D01*
X91178571Y-44507142D01*
X91250000Y-44435714D01*
X91321428Y-44292857D01*
X91321428Y-43935714D01*
X91250000Y-43792857D01*
X91178571Y-43721428D01*
X91035714Y-43650000D01*
X90750000Y-43650000D01*
X90607142Y-43721428D01*
X90535714Y-43792857D01*
X90464285Y-43935714D01*
X91964285Y-44435714D02*
X92035714Y-44507142D01*
X91964285Y-44578571D01*
X91892857Y-44507142D01*
X91964285Y-44435714D01*
X91964285Y-44578571D01*
X93392857Y-43078571D02*
X92678571Y-43078571D01*
X92607142Y-43792857D01*
X92678571Y-43721428D01*
X92821428Y-43650000D01*
X93178571Y-43650000D01*
X93321428Y-43721428D01*
X93392857Y-43792857D01*
X93464285Y-43935714D01*
X93464285Y-44292857D01*
X93392857Y-44435714D01*
X93321428Y-44507142D01*
X93178571Y-44578571D01*
X92821428Y-44578571D01*
X92678571Y-44507142D01*
X92607142Y-44435714D01*
X94392857Y-43078571D02*
X94535714Y-43078571D01*
X94678571Y-43150000D01*
X94750000Y-43221428D01*
X94821428Y-43364285D01*
X94892857Y-43650000D01*
X94892857Y-44007142D01*
X94821428Y-44292857D01*
X94750000Y-44435714D01*
X94678571Y-44507142D01*
X94535714Y-44578571D01*
X94392857Y-44578571D01*
X94250000Y-44507142D01*
X94178571Y-44435714D01*
X94107142Y-44292857D01*
X94035714Y-44007142D01*
X94035714Y-43650000D01*
X94107142Y-43364285D01*
X94178571Y-43221428D01*
X94250000Y-43150000D01*
X94392857Y-43078571D01*
X95821428Y-43078571D02*
X95964285Y-43078571D01*
X96107142Y-43150000D01*
X96178571Y-43221428D01*
X96250000Y-43364285D01*
X96321428Y-43650000D01*
X96321428Y-44007142D01*
X96250000Y-44292857D01*
X96178571Y-44435714D01*
X96107142Y-44507142D01*
X95964285Y-44578571D01*
X95821428Y-44578571D01*
X95678571Y-44507142D01*
X95607142Y-44435714D01*
X95535714Y-44292857D01*
X95464285Y-44007142D01*
X95464285Y-43650000D01*
X95535714Y-43364285D01*
X95607142Y-43221428D01*
X95678571Y-43150000D01*
X95821428Y-43078571D01*
X98107142Y-44578571D02*
X98107142Y-43578571D01*
X98107142Y-43721428D02*
X98178571Y-43650000D01*
X98321428Y-43578571D01*
X98535714Y-43578571D01*
X98678571Y-43650000D01*
X98750000Y-43792857D01*
X98750000Y-44578571D01*
X98750000Y-43792857D02*
X98821428Y-43650000D01*
X98964285Y-43578571D01*
X99178571Y-43578571D01*
X99321428Y-43650000D01*
X99392857Y-43792857D01*
X99392857Y-44578571D01*
X100107142Y-44578571D02*
X100107142Y-43578571D01*
X100107142Y-43721428D02*
X100178571Y-43650000D01*
X100321428Y-43578571D01*
X100535714Y-43578571D01*
X100678571Y-43650000D01*
X100750000Y-43792857D01*
X100750000Y-44578571D01*
X100750000Y-43792857D02*
X100821428Y-43650000D01*
X100964285Y-43578571D01*
X101178571Y-43578571D01*
X101321428Y-43650000D01*
X101392857Y-43792857D01*
X101392857Y-44578571D01*
X77000000Y-46000000D02*
X113500000Y-46000000D01*
X77000000Y-49000000D02*
X77000000Y-45413579D01*
X113500000Y-49000000D02*
X113500000Y-45413579D01*
X113500000Y-46000000D02*
X112373496Y-46586421D01*
X113500000Y-46000000D02*
X112373496Y-45413579D01*
X77000000Y-46000000D02*
X78126504Y-46586421D01*
X77000000Y-46000000D02*
X78126504Y-45413579D01*
X120605487Y-64841547D02*
X120605487Y-64555832D01*
X120534059Y-64412975D01*
X120462630Y-64341547D01*
X120248344Y-64198689D01*
X119962630Y-64127261D01*
X119391201Y-64127261D01*
X119248344Y-64198689D01*
X119176916Y-64270118D01*
X119105487Y-64412975D01*
X119105487Y-64698689D01*
X119176916Y-64841547D01*
X119248344Y-64912975D01*
X119391201Y-64984404D01*
X119748344Y-64984404D01*
X119891201Y-64912975D01*
X119962630Y-64841547D01*
X120034059Y-64698689D01*
X120034059Y-64412975D01*
X119962630Y-64270118D01*
X119891201Y-64198689D01*
X119748344Y-64127261D01*
X119962630Y-65841547D02*
X120034059Y-65698689D01*
X120105487Y-65627261D01*
X120248344Y-65555832D01*
X120319773Y-65555832D01*
X120462630Y-65627261D01*
X120534059Y-65698689D01*
X120605487Y-65841547D01*
X120605487Y-66127261D01*
X120534059Y-66270118D01*
X120462630Y-66341547D01*
X120319773Y-66412975D01*
X120248344Y-66412975D01*
X120105487Y-66341547D01*
X120034059Y-66270118D01*
X119962630Y-66127261D01*
X119962630Y-65841547D01*
X119891201Y-65698689D01*
X119819773Y-65627261D01*
X119676916Y-65555832D01*
X119391201Y-65555832D01*
X119248344Y-65627261D01*
X119176916Y-65698689D01*
X119105487Y-65841547D01*
X119105487Y-66127261D01*
X119176916Y-66270118D01*
X119248344Y-66341547D01*
X119391201Y-66412975D01*
X119676916Y-66412975D01*
X119819773Y-66341547D01*
X119891201Y-66270118D01*
X119962630Y-66127261D01*
X119248344Y-67055832D02*
X119176916Y-67127261D01*
X119105487Y-67055832D01*
X119176916Y-66984404D01*
X119248344Y-67055832D01*
X119105487Y-67055832D01*
X120605487Y-68055832D02*
X120605487Y-68198689D01*
X120534059Y-68341547D01*
X120462630Y-68412975D01*
X120319773Y-68484404D01*
X120034059Y-68555832D01*
X119676916Y-68555832D01*
X119391201Y-68484404D01*
X119248344Y-68412975D01*
X119176916Y-68341547D01*
X119105487Y-68198689D01*
X119105487Y-68055832D01*
X119176916Y-67912975D01*
X119248344Y-67841547D01*
X119391201Y-67770118D01*
X119676916Y-67698689D01*
X120034059Y-67698689D01*
X120319773Y-67770118D01*
X120462630Y-67841547D01*
X120534059Y-67912975D01*
X120605487Y-68055832D01*
X120605487Y-69484404D02*
X120605487Y-69627261D01*
X120534059Y-69770118D01*
X120462630Y-69841547D01*
X120319773Y-69912975D01*
X120034059Y-69984404D01*
X119676916Y-69984404D01*
X119391201Y-69912975D01*
X119248344Y-69841547D01*
X119176916Y-69770118D01*
X119105487Y-69627261D01*
X119105487Y-69484404D01*
X119176916Y-69341547D01*
X119248344Y-69270118D01*
X119391201Y-69198689D01*
X119676916Y-69127261D01*
X120034059Y-69127261D01*
X120319773Y-69198689D01*
X120462630Y-69270118D01*
X120534059Y-69341547D01*
X120605487Y-69484404D01*
X120605487Y-70912975D02*
X120605487Y-71055832D01*
X120534059Y-71198689D01*
X120462630Y-71270118D01*
X120319773Y-71341547D01*
X120034059Y-71412975D01*
X119676916Y-71412975D01*
X119391201Y-71341547D01*
X119248344Y-71270118D01*
X119176916Y-71198689D01*
X119105487Y-71055832D01*
X119105487Y-70912975D01*
X119176916Y-70770118D01*
X119248344Y-70698689D01*
X119391201Y-70627261D01*
X119676916Y-70555832D01*
X120034059Y-70555832D01*
X120319773Y-70627261D01*
X120462630Y-70698689D01*
X120534059Y-70770118D01*
X120605487Y-70912975D01*
X119105487Y-73198689D02*
X120105487Y-73198689D01*
X119962630Y-73198689D02*
X120034059Y-73270118D01*
X120105487Y-73412975D01*
X120105487Y-73627261D01*
X120034059Y-73770118D01*
X119891201Y-73841547D01*
X119105487Y-73841547D01*
X119891201Y-73841547D02*
X120034059Y-73912975D01*
X120105487Y-74055832D01*
X120105487Y-74270118D01*
X120034059Y-74412975D01*
X119891201Y-74484404D01*
X119105487Y-74484404D01*
X119105487Y-75198689D02*
X120105487Y-75198689D01*
X119962630Y-75198689D02*
X120034059Y-75270118D01*
X120105487Y-75412975D01*
X120105487Y-75627261D01*
X120034059Y-75770118D01*
X119891201Y-75841547D01*
X119105487Y-75841547D01*
X119891201Y-75841547D02*
X120034059Y-75912975D01*
X120105487Y-76055832D01*
X120105487Y-76270118D01*
X120034059Y-76412975D01*
X119891201Y-76484404D01*
X119105487Y-76484404D01*
X117684059Y-36341547D02*
X117684059Y-104341547D01*
X115684059Y-36341547D02*
X118270480Y-36341547D01*
X115684059Y-104341547D02*
X118270480Y-104341547D01*
X117684059Y-104341547D02*
X117097638Y-103215043D01*
X117684059Y-104341547D02*
X118270480Y-103215043D01*
X117684059Y-36341547D02*
X117097638Y-37468051D01*
X117684059Y-36341547D02*
X118270480Y-37468051D01*
X85261428Y-31418571D02*
X84547142Y-31418571D01*
X84475714Y-32132857D01*
X84547142Y-32061428D01*
X84690000Y-31990000D01*
X85047142Y-31990000D01*
X85190000Y-32061428D01*
X85261428Y-32132857D01*
X85332857Y-32275714D01*
X85332857Y-32632857D01*
X85261428Y-32775714D01*
X85190000Y-32847142D01*
X85047142Y-32918571D01*
X84690000Y-32918571D01*
X84547142Y-32847142D01*
X84475714Y-32775714D01*
X86261428Y-31418571D02*
X86404285Y-31418571D01*
X86547142Y-31490000D01*
X86618571Y-31561428D01*
X86690000Y-31704285D01*
X86761428Y-31990000D01*
X86761428Y-32347142D01*
X86690000Y-32632857D01*
X86618571Y-32775714D01*
X86547142Y-32847142D01*
X86404285Y-32918571D01*
X86261428Y-32918571D01*
X86118571Y-32847142D01*
X86047142Y-32775714D01*
X85975714Y-32632857D01*
X85904285Y-32347142D01*
X85904285Y-31990000D01*
X85975714Y-31704285D01*
X86047142Y-31561428D01*
X86118571Y-31490000D01*
X86261428Y-31418571D01*
X87404285Y-32775714D02*
X87475714Y-32847142D01*
X87404285Y-32918571D01*
X87332857Y-32847142D01*
X87404285Y-32775714D01*
X87404285Y-32918571D01*
X88404285Y-31418571D02*
X88547142Y-31418571D01*
X88690000Y-31490000D01*
X88761428Y-31561428D01*
X88832857Y-31704285D01*
X88904285Y-31990000D01*
X88904285Y-32347142D01*
X88832857Y-32632857D01*
X88761428Y-32775714D01*
X88690000Y-32847142D01*
X88547142Y-32918571D01*
X88404285Y-32918571D01*
X88261428Y-32847142D01*
X88190000Y-32775714D01*
X88118571Y-32632857D01*
X88047142Y-32347142D01*
X88047142Y-31990000D01*
X88118571Y-31704285D01*
X88190000Y-31561428D01*
X88261428Y-31490000D01*
X88404285Y-31418571D01*
X89832857Y-31418571D02*
X89975714Y-31418571D01*
X90118571Y-31490000D01*
X90190000Y-31561428D01*
X90261428Y-31704285D01*
X90332857Y-31990000D01*
X90332857Y-32347142D01*
X90261428Y-32632857D01*
X90190000Y-32775714D01*
X90118571Y-32847142D01*
X89975714Y-32918571D01*
X89832857Y-32918571D01*
X89690000Y-32847142D01*
X89618571Y-32775714D01*
X89547142Y-32632857D01*
X89475714Y-32347142D01*
X89475714Y-31990000D01*
X89547142Y-31704285D01*
X89618571Y-31561428D01*
X89690000Y-31490000D01*
X89832857Y-31418571D01*
X91261428Y-31418571D02*
X91404285Y-31418571D01*
X91547142Y-31490000D01*
X91618571Y-31561428D01*
X91690000Y-31704285D01*
X91761428Y-31990000D01*
X91761428Y-32347142D01*
X91690000Y-32632857D01*
X91618571Y-32775714D01*
X91547142Y-32847142D01*
X91404285Y-32918571D01*
X91261428Y-32918571D01*
X91118571Y-32847142D01*
X91047142Y-32775714D01*
X90975714Y-32632857D01*
X90904285Y-32347142D01*
X90904285Y-31990000D01*
X90975714Y-31704285D01*
X91047142Y-31561428D01*
X91118571Y-31490000D01*
X91261428Y-31418571D01*
X93547142Y-32918571D02*
X93547142Y-31918571D01*
X93547142Y-32061428D02*
X93618571Y-31990000D01*
X93761428Y-31918571D01*
X93975714Y-31918571D01*
X94118571Y-31990000D01*
X94190000Y-32132857D01*
X94190000Y-32918571D01*
X94190000Y-32132857D02*
X94261428Y-31990000D01*
X94404285Y-31918571D01*
X94618571Y-31918571D01*
X94761428Y-31990000D01*
X94832857Y-32132857D01*
X94832857Y-32918571D01*
X95547142Y-32918571D02*
X95547142Y-31918571D01*
X95547142Y-32061428D02*
X95618571Y-31990000D01*
X95761428Y-31918571D01*
X95975714Y-31918571D01*
X96118571Y-31990000D01*
X96190000Y-32132857D01*
X96190000Y-32918571D01*
X96190000Y-32132857D02*
X96261428Y-31990000D01*
X96404285Y-31918571D01*
X96618571Y-31918571D01*
X96761428Y-31990000D01*
X96832857Y-32132857D01*
X96832857Y-32918571D01*
X65690000Y-34340000D02*
X115690000Y-34340000D01*
X65690000Y-36340000D02*
X65690000Y-33753579D01*
X115690000Y-36340000D02*
X115690000Y-33753579D01*
X115690000Y-34340000D02*
X114563496Y-34926421D01*
X115690000Y-34340000D02*
X114563496Y-33753579D01*
X65690000Y-34340000D02*
X66816504Y-34926421D01*
X65690000Y-34340000D02*
X66816504Y-33753579D01*
M02*
