G04 #@! TF.GenerationSoftware,KiCad,Pcbnew,5.0.2+dfsg1-1*
G04 #@! TF.CreationDate,2021-10-12T12:34:50+05:30*
G04 #@! TF.ProjectId,KEYBORD_PCB_V1,4b455942-4f52-4445-9f50-43425f56312e,rev?*
G04 #@! TF.SameCoordinates,Original*
G04 #@! TF.FileFunction,Copper,L1,Top*
G04 #@! TF.FilePolarity,Positive*
%FSLAX46Y46*%
G04 Gerber Fmt 4.6, Leading zero omitted, Abs format (unit mm)*
G04 Created by KiCad (PCBNEW 5.0.2+dfsg1-1) date Tue 12 Oct 2021 12:34:50 PM IST*
%MOMM*%
%LPD*%
G01*
G04 APERTURE LIST*
G04 #@! TA.AperFunction,NonConductor*
%ADD10C,0.300000*%
G04 #@! TD*
G04 #@! TA.AperFunction,ComponentPad*
%ADD11O,2.000000X2.000000*%
G04 #@! TD*
G04 #@! TA.AperFunction,ComponentPad*
%ADD12R,2.000000X2.000000*%
G04 #@! TD*
G04 #@! TA.AperFunction,ComponentPad*
%ADD13C,2.000000*%
G04 #@! TD*
G04 #@! TA.AperFunction,ViaPad*
%ADD14C,2.000000*%
G04 #@! TD*
G04 #@! TA.AperFunction,Conductor*
%ADD15C,0.700000*%
G04 #@! TD*
G04 #@! TA.AperFunction,Conductor*
%ADD16C,0.254000*%
G04 #@! TD*
G04 APERTURE END LIST*
D10*
X102678571Y-89178571D02*
X101178571Y-89178571D01*
X102678571Y-88321428D02*
X101821428Y-88964285D01*
X101178571Y-88321428D02*
X102035714Y-89178571D01*
X101178571Y-87392857D02*
X101178571Y-87107142D01*
X101250000Y-86964285D01*
X101392857Y-86821428D01*
X101678571Y-86750000D01*
X102178571Y-86750000D01*
X102464285Y-86821428D01*
X102607142Y-86964285D01*
X102678571Y-87107142D01*
X102678571Y-87392857D01*
X102607142Y-87535714D01*
X102464285Y-87678571D01*
X102178571Y-87750000D01*
X101678571Y-87750000D01*
X101392857Y-87678571D01*
X101250000Y-87535714D01*
X101178571Y-87392857D01*
X102107142Y-86107142D02*
X102107142Y-84964285D01*
X102250000Y-84321428D02*
X102250000Y-83607142D01*
X102678571Y-84464285D02*
X101178571Y-83964285D01*
X102678571Y-83464285D01*
X102250000Y-83035714D02*
X102250000Y-82321428D01*
X102678571Y-83178571D02*
X101178571Y-82678571D01*
X102678571Y-82178571D01*
X102678571Y-81678571D02*
X101178571Y-81678571D01*
X101892857Y-81678571D02*
X101892857Y-80821428D01*
X102678571Y-80821428D02*
X101178571Y-80821428D01*
X102250000Y-80178571D02*
X102250000Y-79464285D01*
X102678571Y-80321428D02*
X101178571Y-79821428D01*
X102678571Y-79321428D01*
X102678571Y-78821428D02*
X101178571Y-78821428D01*
X102250000Y-78321428D01*
X101178571Y-77821428D01*
X102678571Y-77821428D01*
X102821428Y-77464285D02*
X102821428Y-76321428D01*
X102678571Y-75964285D02*
X101178571Y-75964285D01*
X102678571Y-75107142D02*
X101821428Y-75750000D01*
X101178571Y-75107142D02*
X102035714Y-75964285D01*
X101892857Y-73964285D02*
X101964285Y-73750000D01*
X102035714Y-73678571D01*
X102178571Y-73607142D01*
X102392857Y-73607142D01*
X102535714Y-73678571D01*
X102607142Y-73750000D01*
X102678571Y-73892857D01*
X102678571Y-74464285D01*
X101178571Y-74464285D01*
X101178571Y-73964285D01*
X101250000Y-73821428D01*
X101321428Y-73750000D01*
X101464285Y-73678571D01*
X101607142Y-73678571D01*
X101750000Y-73750000D01*
X101821428Y-73821428D01*
X101892857Y-73964285D01*
X101892857Y-74464285D01*
X102678571Y-72107142D02*
X101964285Y-72607142D01*
X102678571Y-72964285D02*
X101178571Y-72964285D01*
X101178571Y-72392857D01*
X101250000Y-72250000D01*
X101321428Y-72178571D01*
X101464285Y-72107142D01*
X101678571Y-72107142D01*
X101821428Y-72178571D01*
X101892857Y-72250000D01*
X101964285Y-72392857D01*
X101964285Y-72964285D01*
X102678571Y-71464285D02*
X101178571Y-71464285D01*
X101178571Y-71107142D01*
X101250000Y-70892857D01*
X101392857Y-70750000D01*
X101535714Y-70678571D01*
X101821428Y-70607142D01*
X102035714Y-70607142D01*
X102321428Y-70678571D01*
X102464285Y-70750000D01*
X102607142Y-70892857D01*
X102678571Y-71107142D01*
X102678571Y-71464285D01*
X102821428Y-70321428D02*
X102821428Y-69178571D01*
X101178571Y-69035714D02*
X102678571Y-68535714D01*
X101178571Y-68035714D01*
X102678571Y-66750000D02*
X102678571Y-67607142D01*
X102678571Y-67178571D02*
X101178571Y-67178571D01*
X101392857Y-67321428D01*
X101535714Y-67464285D01*
X101607142Y-67607142D01*
D11*
G04 #@! TO.P,J1,8*
G04 #@! TO.N,+3V3*
X87870000Y-40150000D03*
G04 #@! TO.P,J1,7*
G04 #@! TO.N,Net-(J1-Pad7)*
X90410000Y-40150000D03*
G04 #@! TO.P,J1,6*
G04 #@! TO.N,GND*
X92950000Y-40150000D03*
G04 #@! TO.P,J1,5*
G04 #@! TO.N,Net-(J1-Pad5)*
X95490000Y-40150000D03*
G04 #@! TO.P,J1,4*
G04 #@! TO.N,Net-(J1-Pad4)*
X98030000Y-40150000D03*
G04 #@! TO.P,J1,3*
G04 #@! TO.N,Net-(J1-Pad3)*
X100570000Y-40150000D03*
G04 #@! TO.P,J1,2*
G04 #@! TO.N,SDA*
X103110000Y-40150000D03*
D12*
G04 #@! TO.P,J1,1*
G04 #@! TO.N,SCL*
X105650000Y-40150000D03*
G04 #@! TD*
D13*
G04 #@! TO.P,SW1,2*
G04 #@! TO.N,C1*
X77000000Y-53500000D03*
G04 #@! TO.P,SW1,1*
G04 #@! TO.N,R1*
X77000000Y-49000000D03*
G04 #@! TO.P,SW1,2*
G04 #@! TO.N,C1*
X83500000Y-53500000D03*
G04 #@! TO.P,SW1,1*
G04 #@! TO.N,R1*
X83500000Y-49000000D03*
G04 #@! TD*
G04 #@! TO.P,SW2,1*
G04 #@! TO.N,R2*
X83500000Y-65000000D03*
G04 #@! TO.P,SW2,2*
G04 #@! TO.N,C1*
X83500000Y-69500000D03*
G04 #@! TO.P,SW2,1*
G04 #@! TO.N,R2*
X77000000Y-65000000D03*
G04 #@! TO.P,SW2,2*
G04 #@! TO.N,C1*
X77000000Y-69500000D03*
G04 #@! TD*
G04 #@! TO.P,SW3,1*
G04 #@! TO.N,R3*
X83500000Y-81000000D03*
G04 #@! TO.P,SW3,2*
G04 #@! TO.N,C1*
X83500000Y-85500000D03*
G04 #@! TO.P,SW3,1*
G04 #@! TO.N,R3*
X77000000Y-81000000D03*
G04 #@! TO.P,SW3,2*
G04 #@! TO.N,C1*
X77000000Y-85500000D03*
G04 #@! TD*
G04 #@! TO.P,SW4,2*
G04 #@! TO.N,C1*
X77000000Y-101500000D03*
G04 #@! TO.P,SW4,1*
G04 #@! TO.N,R4*
X77000000Y-97000000D03*
G04 #@! TO.P,SW4,2*
G04 #@! TO.N,C1*
X83500000Y-101500000D03*
G04 #@! TO.P,SW4,1*
G04 #@! TO.N,R4*
X83500000Y-97000000D03*
G04 #@! TD*
G04 #@! TO.P,SW5,1*
G04 #@! TO.N,R1*
X98500000Y-49000000D03*
G04 #@! TO.P,SW5,2*
G04 #@! TO.N,C2*
X98500000Y-53500000D03*
G04 #@! TO.P,SW5,1*
G04 #@! TO.N,R1*
X92000000Y-49000000D03*
G04 #@! TO.P,SW5,2*
G04 #@! TO.N,C2*
X92000000Y-53500000D03*
G04 #@! TD*
G04 #@! TO.P,SW6,1*
G04 #@! TO.N,R2*
X98500000Y-65000000D03*
G04 #@! TO.P,SW6,2*
G04 #@! TO.N,C2*
X98500000Y-69500000D03*
G04 #@! TO.P,SW6,1*
G04 #@! TO.N,R2*
X92000000Y-65000000D03*
G04 #@! TO.P,SW6,2*
G04 #@! TO.N,C2*
X92000000Y-69500000D03*
G04 #@! TD*
G04 #@! TO.P,SW7,2*
G04 #@! TO.N,C2*
X92000000Y-85500000D03*
G04 #@! TO.P,SW7,1*
G04 #@! TO.N,R3*
X92000000Y-81000000D03*
G04 #@! TO.P,SW7,2*
G04 #@! TO.N,C2*
X98500000Y-85500000D03*
G04 #@! TO.P,SW7,1*
G04 #@! TO.N,R3*
X98500000Y-81000000D03*
G04 #@! TD*
G04 #@! TO.P,SW8,1*
G04 #@! TO.N,R4*
X98500000Y-97000000D03*
G04 #@! TO.P,SW8,2*
G04 #@! TO.N,C2*
X98500000Y-101500000D03*
G04 #@! TO.P,SW8,1*
G04 #@! TO.N,R4*
X92000000Y-97000000D03*
G04 #@! TO.P,SW8,2*
G04 #@! TO.N,C2*
X92000000Y-101500000D03*
G04 #@! TD*
G04 #@! TO.P,SW9,2*
G04 #@! TO.N,C3*
X107000000Y-53500000D03*
G04 #@! TO.P,SW9,1*
G04 #@! TO.N,R1*
X107000000Y-49000000D03*
G04 #@! TO.P,SW9,2*
G04 #@! TO.N,C3*
X113500000Y-53500000D03*
G04 #@! TO.P,SW9,1*
G04 #@! TO.N,R1*
X113500000Y-49000000D03*
G04 #@! TD*
G04 #@! TO.P,SW10,2*
G04 #@! TO.N,C3*
X107000000Y-69500000D03*
G04 #@! TO.P,SW10,1*
G04 #@! TO.N,R2*
X107000000Y-65000000D03*
G04 #@! TO.P,SW10,2*
G04 #@! TO.N,C3*
X113500000Y-69500000D03*
G04 #@! TO.P,SW10,1*
G04 #@! TO.N,R2*
X113500000Y-65000000D03*
G04 #@! TD*
G04 #@! TO.P,SW11,2*
G04 #@! TO.N,C3*
X107000000Y-85500000D03*
G04 #@! TO.P,SW11,1*
G04 #@! TO.N,R3*
X107000000Y-81000000D03*
G04 #@! TO.P,SW11,2*
G04 #@! TO.N,C3*
X113500000Y-85500000D03*
G04 #@! TO.P,SW11,1*
G04 #@! TO.N,R3*
X113500000Y-81000000D03*
G04 #@! TD*
G04 #@! TO.P,SW12,1*
G04 #@! TO.N,R4*
X113500000Y-97000000D03*
G04 #@! TO.P,SW12,2*
G04 #@! TO.N,C3*
X113500000Y-101500000D03*
G04 #@! TO.P,SW12,1*
G04 #@! TO.N,R4*
X107000000Y-97000000D03*
G04 #@! TO.P,SW12,2*
G04 #@! TO.N,C3*
X107000000Y-101500000D03*
G04 #@! TD*
D14*
G04 #@! TO.N,GND*
X66990010Y-38360000D03*
X81970000Y-46140000D03*
G04 #@! TO.N,C1*
X86880003Y-47140000D03*
G04 #@! TO.N,C2*
X92730000Y-46280000D03*
G04 #@! TO.N,C3*
X102280000Y-44910000D03*
G04 #@! TO.N,SCL*
X83200024Y-40140000D03*
G04 #@! TD*
D15*
G04 #@! TO.N,R4*
X107000000Y-97000000D02*
X113500000Y-97000000D01*
G04 #@! TO.N,R3*
X107000000Y-81000000D02*
X113500000Y-81000000D01*
G04 #@! TO.N,R2*
X107000000Y-65000000D02*
X113500000Y-65000000D01*
G04 #@! TO.N,R1*
X83500000Y-49000000D02*
X77000000Y-49000000D01*
X107000000Y-49000000D02*
X113500000Y-49000000D01*
G04 #@! TO.N,GND*
X66990010Y-38360000D02*
X74190000Y-38360000D01*
X74190000Y-38360000D02*
X80970001Y-45140001D01*
X80970001Y-45140001D02*
X81970000Y-46140000D01*
X85454213Y-44070000D02*
X83384213Y-46140000D01*
X91110000Y-44070000D02*
X85454213Y-44070000D01*
X83384213Y-46140000D02*
X81970000Y-46140000D01*
X92950000Y-40150000D02*
X92950000Y-42230000D01*
X92950000Y-42230000D02*
X91110000Y-44070000D01*
G04 #@! TO.N,C1*
X87040000Y-52530000D02*
X86070000Y-53500000D01*
X86880003Y-47140000D02*
X87040000Y-47299997D01*
X86070000Y-53500000D02*
X83500000Y-53500000D01*
X87040000Y-47299997D02*
X87040000Y-52530000D01*
X78720000Y-83780000D02*
X77000000Y-85500000D01*
X78720000Y-71190000D02*
X78720000Y-83780000D01*
X77040000Y-69510000D02*
X78720000Y-71190000D01*
X78730000Y-87160000D02*
X78730000Y-99750000D01*
X78730000Y-99750000D02*
X77010000Y-101470000D01*
X77050000Y-85480000D02*
X78730000Y-87160000D01*
X77999999Y-68500001D02*
X77000000Y-69500000D01*
X77000000Y-53500000D02*
X78680000Y-55180000D01*
X78680000Y-67820000D02*
X77999999Y-68500001D01*
X78680000Y-55180000D02*
X78680000Y-67820000D01*
G04 #@! TO.N,C2*
X93750000Y-87180000D02*
X93750000Y-99770000D01*
X92070000Y-85500000D02*
X93750000Y-87180000D01*
X93750000Y-99770000D02*
X92030000Y-101490000D01*
X94144213Y-46280000D02*
X95450000Y-47585787D01*
X92730000Y-46280000D02*
X94144213Y-46280000D01*
X95450000Y-47585787D02*
X95450000Y-51820000D01*
X93770000Y-53500000D02*
X92000000Y-53500000D01*
X95450000Y-51820000D02*
X93770000Y-53500000D01*
X93720000Y-83800000D02*
X92000000Y-85520000D01*
X93720000Y-71210000D02*
X93720000Y-83800000D01*
X92040000Y-69530000D02*
X93720000Y-71210000D01*
X93029999Y-68500001D02*
X92030000Y-69500000D01*
X93710000Y-67820000D02*
X93029999Y-68500001D01*
X92030000Y-53500000D02*
X93710000Y-55180000D01*
X93710000Y-55180000D02*
X93710000Y-67820000D01*
G04 #@! TO.N,C3*
X102270000Y-51440000D02*
X104330000Y-53500000D01*
X102270000Y-46334213D02*
X102270000Y-51440000D01*
X102280000Y-44910000D02*
X102280000Y-46324213D01*
X104330000Y-53500000D02*
X107000000Y-53500000D01*
X102280000Y-46324213D02*
X102270000Y-46334213D01*
X104000000Y-66500000D02*
X107000000Y-69500000D01*
X104000000Y-55900000D02*
X104000000Y-66500000D01*
X107000000Y-53500000D02*
X106400000Y-53500000D01*
X106400000Y-53500000D02*
X104000000Y-55900000D01*
X104000000Y-72500000D02*
X107000000Y-69500000D01*
X107000000Y-85500000D02*
X104000000Y-82500000D01*
X104000000Y-82500000D02*
X104000000Y-72500000D01*
X104000000Y-88500000D02*
X107000000Y-85500000D01*
X107000000Y-101500000D02*
X104000000Y-98500000D01*
X104000000Y-98500000D02*
X104000000Y-88500000D01*
G04 #@! TO.N,SCL*
X105650000Y-40150000D02*
X105650000Y-38450000D01*
X86130024Y-37210000D02*
X84200023Y-39140001D01*
X105650000Y-38450000D02*
X104410000Y-37210000D01*
X104410000Y-37210000D02*
X86130024Y-37210000D01*
X84200023Y-39140001D02*
X83200024Y-40140000D01*
G04 #@! TD*
D16*
G04 #@! TO.N,GND*
G36*
X83572120Y-38374904D02*
X83442024Y-38505000D01*
X82874802Y-38505000D01*
X82273871Y-38753914D01*
X81813938Y-39213847D01*
X81565024Y-39814778D01*
X81565024Y-40465222D01*
X81813938Y-41066153D01*
X82273871Y-41526086D01*
X82874802Y-41775000D01*
X83525246Y-41775000D01*
X84126177Y-41526086D01*
X84586110Y-41066153D01*
X84835024Y-40465222D01*
X84835024Y-40150000D01*
X86202969Y-40150000D01*
X86329864Y-40787945D01*
X86691231Y-41328769D01*
X87232055Y-41690136D01*
X87708969Y-41785000D01*
X88031031Y-41785000D01*
X88507945Y-41690136D01*
X89048769Y-41328769D01*
X89140000Y-41192232D01*
X89231231Y-41328769D01*
X89772055Y-41690136D01*
X90248969Y-41785000D01*
X90571031Y-41785000D01*
X91047945Y-41690136D01*
X91588769Y-41328769D01*
X91693499Y-41172029D01*
X92094615Y-41543402D01*
X92569566Y-41740124D01*
X92823000Y-41620777D01*
X92823000Y-40277000D01*
X92803000Y-40277000D01*
X92803000Y-40023000D01*
X92823000Y-40023000D01*
X92823000Y-38679223D01*
X92569566Y-38559876D01*
X92094615Y-38756598D01*
X91693499Y-39127971D01*
X91588769Y-38971231D01*
X91047945Y-38609864D01*
X90571031Y-38515000D01*
X90248969Y-38515000D01*
X89772055Y-38609864D01*
X89231231Y-38971231D01*
X89140000Y-39107768D01*
X89048769Y-38971231D01*
X88507945Y-38609864D01*
X88031031Y-38515000D01*
X87708969Y-38515000D01*
X87232055Y-38609864D01*
X86691231Y-38971231D01*
X86329864Y-39512055D01*
X86202969Y-40150000D01*
X84835024Y-40150000D01*
X84835024Y-39898000D01*
X84965120Y-39767904D01*
X86538025Y-38195000D01*
X104002000Y-38195000D01*
X104376223Y-38569224D01*
X104192191Y-38692191D01*
X104093100Y-38840489D01*
X103747945Y-38609864D01*
X103271031Y-38515000D01*
X102948969Y-38515000D01*
X102472055Y-38609864D01*
X101931231Y-38971231D01*
X101840000Y-39107768D01*
X101748769Y-38971231D01*
X101207945Y-38609864D01*
X100731031Y-38515000D01*
X100408969Y-38515000D01*
X99932055Y-38609864D01*
X99391231Y-38971231D01*
X99300000Y-39107768D01*
X99208769Y-38971231D01*
X98667945Y-38609864D01*
X98191031Y-38515000D01*
X97868969Y-38515000D01*
X97392055Y-38609864D01*
X96851231Y-38971231D01*
X96760000Y-39107768D01*
X96668769Y-38971231D01*
X96127945Y-38609864D01*
X95651031Y-38515000D01*
X95328969Y-38515000D01*
X94852055Y-38609864D01*
X94311231Y-38971231D01*
X94206501Y-39127971D01*
X93805385Y-38756598D01*
X93330434Y-38559876D01*
X93077000Y-38679223D01*
X93077000Y-40023000D01*
X93097000Y-40023000D01*
X93097000Y-40277000D01*
X93077000Y-40277000D01*
X93077000Y-41620777D01*
X93330434Y-41740124D01*
X93805385Y-41543402D01*
X94206501Y-41172029D01*
X94311231Y-41328769D01*
X94852055Y-41690136D01*
X95328969Y-41785000D01*
X95651031Y-41785000D01*
X96127945Y-41690136D01*
X96668769Y-41328769D01*
X96760000Y-41192232D01*
X96851231Y-41328769D01*
X97392055Y-41690136D01*
X97868969Y-41785000D01*
X98191031Y-41785000D01*
X98667945Y-41690136D01*
X99208769Y-41328769D01*
X99300000Y-41192232D01*
X99391231Y-41328769D01*
X99932055Y-41690136D01*
X100408969Y-41785000D01*
X100731031Y-41785000D01*
X101207945Y-41690136D01*
X101748769Y-41328769D01*
X101840000Y-41192232D01*
X101931231Y-41328769D01*
X102472055Y-41690136D01*
X102948969Y-41785000D01*
X103271031Y-41785000D01*
X103747945Y-41690136D01*
X104093100Y-41459511D01*
X104192191Y-41607809D01*
X104402235Y-41748157D01*
X104650000Y-41797440D01*
X106650000Y-41797440D01*
X106897765Y-41748157D01*
X107107809Y-41607809D01*
X107248157Y-41397765D01*
X107297440Y-41150000D01*
X107297440Y-39150000D01*
X107248157Y-38902235D01*
X107107809Y-38692191D01*
X106897765Y-38551843D01*
X106650000Y-38502560D01*
X106643841Y-38502560D01*
X106654296Y-38450000D01*
X106635000Y-38352992D01*
X106635000Y-38352988D01*
X106577849Y-38065672D01*
X106425659Y-37837903D01*
X106415098Y-37822097D01*
X106415096Y-37822095D01*
X106360145Y-37739855D01*
X106277905Y-37684904D01*
X105668000Y-37075000D01*
X114955000Y-37075000D01*
X114955000Y-48240220D01*
X114886086Y-48073847D01*
X114426153Y-47613914D01*
X113825222Y-47365000D01*
X113174778Y-47365000D01*
X112573847Y-47613914D01*
X112172761Y-48015000D01*
X108327239Y-48015000D01*
X107926153Y-47613914D01*
X107325222Y-47365000D01*
X106674778Y-47365000D01*
X106073847Y-47613914D01*
X105613914Y-48073847D01*
X105365000Y-48674778D01*
X105365000Y-49325222D01*
X105613914Y-49926153D01*
X106073847Y-50386086D01*
X106674778Y-50635000D01*
X107325222Y-50635000D01*
X107926153Y-50386086D01*
X108327239Y-49985000D01*
X112172761Y-49985000D01*
X112573847Y-50386086D01*
X113174778Y-50635000D01*
X113825222Y-50635000D01*
X114426153Y-50386086D01*
X114886086Y-49926153D01*
X114955000Y-49759780D01*
X114955000Y-52740221D01*
X114886086Y-52573847D01*
X114426153Y-52113914D01*
X113825222Y-51865000D01*
X113174778Y-51865000D01*
X112573847Y-52113914D01*
X112113914Y-52573847D01*
X111865000Y-53174778D01*
X111865000Y-53825222D01*
X112113914Y-54426153D01*
X112573847Y-54886086D01*
X113174778Y-55135000D01*
X113825222Y-55135000D01*
X114426153Y-54886086D01*
X114886086Y-54426153D01*
X114955000Y-54259779D01*
X114955000Y-64240221D01*
X114886086Y-64073847D01*
X114426153Y-63613914D01*
X113825222Y-63365000D01*
X113174778Y-63365000D01*
X112573847Y-63613914D01*
X112172761Y-64015000D01*
X108327239Y-64015000D01*
X107926153Y-63613914D01*
X107325222Y-63365000D01*
X106674778Y-63365000D01*
X106073847Y-63613914D01*
X105613914Y-64073847D01*
X105365000Y-64674778D01*
X105365000Y-65325222D01*
X105613914Y-65926153D01*
X106073847Y-66386086D01*
X106674778Y-66635000D01*
X107325222Y-66635000D01*
X107926153Y-66386086D01*
X108327239Y-65985000D01*
X112172761Y-65985000D01*
X112573847Y-66386086D01*
X113174778Y-66635000D01*
X113825222Y-66635000D01*
X114426153Y-66386086D01*
X114886086Y-65926153D01*
X114955000Y-65759779D01*
X114955000Y-68740221D01*
X114886086Y-68573847D01*
X114426153Y-68113914D01*
X113825222Y-67865000D01*
X113174778Y-67865000D01*
X112573847Y-68113914D01*
X112113914Y-68573847D01*
X111865000Y-69174778D01*
X111865000Y-69825222D01*
X112113914Y-70426153D01*
X112573847Y-70886086D01*
X113174778Y-71135000D01*
X113825222Y-71135000D01*
X114426153Y-70886086D01*
X114886086Y-70426153D01*
X114955000Y-70259779D01*
X114955001Y-80240222D01*
X114886086Y-80073847D01*
X114426153Y-79613914D01*
X113825222Y-79365000D01*
X113174778Y-79365000D01*
X112573847Y-79613914D01*
X112172761Y-80015000D01*
X108327239Y-80015000D01*
X107926153Y-79613914D01*
X107325222Y-79365000D01*
X106674778Y-79365000D01*
X106073847Y-79613914D01*
X105613914Y-80073847D01*
X105365000Y-80674778D01*
X105365000Y-81325222D01*
X105613914Y-81926153D01*
X106073847Y-82386086D01*
X106674778Y-82635000D01*
X107325222Y-82635000D01*
X107926153Y-82386086D01*
X108327239Y-81985000D01*
X112172761Y-81985000D01*
X112573847Y-82386086D01*
X113174778Y-82635000D01*
X113825222Y-82635000D01*
X114426153Y-82386086D01*
X114886086Y-81926153D01*
X114955001Y-81759778D01*
X114955001Y-84740222D01*
X114886086Y-84573847D01*
X114426153Y-84113914D01*
X113825222Y-83865000D01*
X113174778Y-83865000D01*
X112573847Y-84113914D01*
X112113914Y-84573847D01*
X111865000Y-85174778D01*
X111865000Y-85825222D01*
X112113914Y-86426153D01*
X112573847Y-86886086D01*
X113174778Y-87135000D01*
X113825222Y-87135000D01*
X114426153Y-86886086D01*
X114886086Y-86426153D01*
X114955001Y-86259778D01*
X114955001Y-96240222D01*
X114886086Y-96073847D01*
X114426153Y-95613914D01*
X113825222Y-95365000D01*
X113174778Y-95365000D01*
X112573847Y-95613914D01*
X112172761Y-96015000D01*
X108327239Y-96015000D01*
X107926153Y-95613914D01*
X107325222Y-95365000D01*
X106674778Y-95365000D01*
X106073847Y-95613914D01*
X105613914Y-96073847D01*
X105365000Y-96674778D01*
X105365000Y-97325222D01*
X105613914Y-97926153D01*
X106073847Y-98386086D01*
X106674778Y-98635000D01*
X107325222Y-98635000D01*
X107926153Y-98386086D01*
X108327239Y-97985000D01*
X112172761Y-97985000D01*
X112573847Y-98386086D01*
X113174778Y-98635000D01*
X113825222Y-98635000D01*
X114426153Y-98386086D01*
X114886086Y-97926153D01*
X114955001Y-97759778D01*
X114955001Y-100740222D01*
X114886086Y-100573847D01*
X114426153Y-100113914D01*
X113825222Y-99865000D01*
X113174778Y-99865000D01*
X112573847Y-100113914D01*
X112113914Y-100573847D01*
X111865000Y-101174778D01*
X111865000Y-101825222D01*
X112113914Y-102426153D01*
X112573847Y-102886086D01*
X113174778Y-103135000D01*
X113825222Y-103135000D01*
X114426153Y-102886086D01*
X114886086Y-102426153D01*
X114955001Y-102259778D01*
X114955001Y-103605000D01*
X73425000Y-103605000D01*
X73425000Y-54142387D01*
X73439399Y-54070000D01*
X73382354Y-53783217D01*
X73219905Y-53540095D01*
X72976783Y-53377646D01*
X72762388Y-53335000D01*
X72690000Y-53320601D01*
X72617612Y-53335000D01*
X66425000Y-53335000D01*
X66425000Y-53174778D01*
X75365000Y-53174778D01*
X75365000Y-53825222D01*
X75613914Y-54426153D01*
X76073847Y-54886086D01*
X76674778Y-55135000D01*
X77241999Y-55135000D01*
X77695000Y-55588001D01*
X77695001Y-63518167D01*
X77325222Y-63365000D01*
X76674778Y-63365000D01*
X76073847Y-63613914D01*
X75613914Y-64073847D01*
X75365000Y-64674778D01*
X75365000Y-65325222D01*
X75613914Y-65926153D01*
X76073847Y-66386086D01*
X76674778Y-66635000D01*
X77325222Y-66635000D01*
X77695001Y-66481832D01*
X77695001Y-67411998D01*
X77372095Y-67734904D01*
X77372096Y-67734904D01*
X77242000Y-67865000D01*
X76674778Y-67865000D01*
X76073847Y-68113914D01*
X75613914Y-68573847D01*
X75365000Y-69174778D01*
X75365000Y-69825222D01*
X75613914Y-70426153D01*
X76073847Y-70886086D01*
X76674778Y-71135000D01*
X77271999Y-71135000D01*
X77735000Y-71598001D01*
X77735001Y-79534736D01*
X77325222Y-79365000D01*
X76674778Y-79365000D01*
X76073847Y-79613914D01*
X75613914Y-80073847D01*
X75365000Y-80674778D01*
X75365000Y-81325222D01*
X75613914Y-81926153D01*
X76073847Y-82386086D01*
X76674778Y-82635000D01*
X77325222Y-82635000D01*
X77735001Y-82465264D01*
X77735001Y-83371999D01*
X77242000Y-83865000D01*
X76674778Y-83865000D01*
X76073847Y-84113914D01*
X75613914Y-84573847D01*
X75365000Y-85174778D01*
X75365000Y-85825222D01*
X75613914Y-86426153D01*
X76073847Y-86886086D01*
X76674778Y-87135000D01*
X77311999Y-87135000D01*
X77745000Y-87568001D01*
X77745001Y-95538878D01*
X77325222Y-95365000D01*
X76674778Y-95365000D01*
X76073847Y-95613914D01*
X75613914Y-96073847D01*
X75365000Y-96674778D01*
X75365000Y-97325222D01*
X75613914Y-97926153D01*
X76073847Y-98386086D01*
X76674778Y-98635000D01*
X77325222Y-98635000D01*
X77745001Y-98461122D01*
X77745001Y-99341999D01*
X77222000Y-99865000D01*
X76674778Y-99865000D01*
X76073847Y-100113914D01*
X75613914Y-100573847D01*
X75365000Y-101174778D01*
X75365000Y-101825222D01*
X75613914Y-102426153D01*
X76073847Y-102886086D01*
X76674778Y-103135000D01*
X77325222Y-103135000D01*
X77926153Y-102886086D01*
X78386086Y-102426153D01*
X78635000Y-101825222D01*
X78635000Y-101238000D01*
X78698222Y-101174778D01*
X81865000Y-101174778D01*
X81865000Y-101825222D01*
X82113914Y-102426153D01*
X82573847Y-102886086D01*
X83174778Y-103135000D01*
X83825222Y-103135000D01*
X84426153Y-102886086D01*
X84886086Y-102426153D01*
X85135000Y-101825222D01*
X85135000Y-101174778D01*
X84886086Y-100573847D01*
X84426153Y-100113914D01*
X83825222Y-99865000D01*
X83174778Y-99865000D01*
X82573847Y-100113914D01*
X82113914Y-100573847D01*
X81865000Y-101174778D01*
X78698222Y-101174778D01*
X79357902Y-100515098D01*
X79440145Y-100460145D01*
X79657849Y-100134328D01*
X79715000Y-99847012D01*
X79715000Y-99847009D01*
X79734296Y-99750001D01*
X79715000Y-99652993D01*
X79715000Y-96674778D01*
X81865000Y-96674778D01*
X81865000Y-97325222D01*
X82113914Y-97926153D01*
X82573847Y-98386086D01*
X83174778Y-98635000D01*
X83825222Y-98635000D01*
X84426153Y-98386086D01*
X84886086Y-97926153D01*
X85135000Y-97325222D01*
X85135000Y-96674778D01*
X84886086Y-96073847D01*
X84426153Y-95613914D01*
X83825222Y-95365000D01*
X83174778Y-95365000D01*
X82573847Y-95613914D01*
X82113914Y-96073847D01*
X81865000Y-96674778D01*
X79715000Y-96674778D01*
X79715000Y-90555431D01*
X81155000Y-90555431D01*
X81155000Y-91444569D01*
X81495259Y-92266026D01*
X82123974Y-92894741D01*
X82945431Y-93235000D01*
X83834569Y-93235000D01*
X84656026Y-92894741D01*
X85284741Y-92266026D01*
X85625000Y-91444569D01*
X85625000Y-90555431D01*
X85284741Y-89733974D01*
X84656026Y-89105259D01*
X83834569Y-88765000D01*
X82945431Y-88765000D01*
X82123974Y-89105259D01*
X81495259Y-89733974D01*
X81155000Y-90555431D01*
X79715000Y-90555431D01*
X79715000Y-87257008D01*
X79734296Y-87160000D01*
X79715000Y-87062992D01*
X79715000Y-87062988D01*
X79657849Y-86775672D01*
X79495098Y-86532097D01*
X79495096Y-86532095D01*
X79440145Y-86449855D01*
X79357905Y-86394904D01*
X78635000Y-85671999D01*
X78635000Y-85258000D01*
X78718222Y-85174778D01*
X81865000Y-85174778D01*
X81865000Y-85825222D01*
X82113914Y-86426153D01*
X82573847Y-86886086D01*
X83174778Y-87135000D01*
X83825222Y-87135000D01*
X84426153Y-86886086D01*
X84886086Y-86426153D01*
X85135000Y-85825222D01*
X85135000Y-85174778D01*
X84886086Y-84573847D01*
X84426153Y-84113914D01*
X83825222Y-83865000D01*
X83174778Y-83865000D01*
X82573847Y-84113914D01*
X82113914Y-84573847D01*
X81865000Y-85174778D01*
X78718222Y-85174778D01*
X79347902Y-84545098D01*
X79430145Y-84490145D01*
X79647849Y-84164328D01*
X79705000Y-83877012D01*
X79705000Y-83877009D01*
X79724296Y-83780001D01*
X79705000Y-83682993D01*
X79705000Y-80674778D01*
X81865000Y-80674778D01*
X81865000Y-81325222D01*
X82113914Y-81926153D01*
X82573847Y-82386086D01*
X83174778Y-82635000D01*
X83825222Y-82635000D01*
X84426153Y-82386086D01*
X84886086Y-81926153D01*
X85135000Y-81325222D01*
X85135000Y-80674778D01*
X84886086Y-80073847D01*
X84426153Y-79613914D01*
X83825222Y-79365000D01*
X83174778Y-79365000D01*
X82573847Y-79613914D01*
X82113914Y-80073847D01*
X81865000Y-80674778D01*
X79705000Y-80674778D01*
X79705000Y-71287008D01*
X79724296Y-71190000D01*
X79705000Y-71092992D01*
X79705000Y-71092988D01*
X79647849Y-70805672D01*
X79485098Y-70562097D01*
X79485096Y-70562095D01*
X79430145Y-70479855D01*
X79347905Y-70424904D01*
X78635000Y-69711999D01*
X78635000Y-69258000D01*
X78718222Y-69174778D01*
X81865000Y-69174778D01*
X81865000Y-69825222D01*
X82113914Y-70426153D01*
X82573847Y-70886086D01*
X83174778Y-71135000D01*
X83825222Y-71135000D01*
X84426153Y-70886086D01*
X84886086Y-70426153D01*
X85135000Y-69825222D01*
X85135000Y-69174778D01*
X84886086Y-68573847D01*
X84426153Y-68113914D01*
X83825222Y-67865000D01*
X83174778Y-67865000D01*
X82573847Y-68113914D01*
X82113914Y-68573847D01*
X81865000Y-69174778D01*
X78718222Y-69174778D01*
X79307904Y-68585096D01*
X79390145Y-68530145D01*
X79445096Y-68447905D01*
X79445098Y-68447903D01*
X79607849Y-68204328D01*
X79625483Y-68115674D01*
X79665000Y-67917012D01*
X79665000Y-67917008D01*
X79684296Y-67820000D01*
X79665000Y-67722992D01*
X79665000Y-64674778D01*
X81865000Y-64674778D01*
X81865000Y-65325222D01*
X82113914Y-65926153D01*
X82573847Y-66386086D01*
X83174778Y-66635000D01*
X83825222Y-66635000D01*
X84426153Y-66386086D01*
X84886086Y-65926153D01*
X85135000Y-65325222D01*
X85135000Y-64674778D01*
X84886086Y-64073847D01*
X84426153Y-63613914D01*
X83825222Y-63365000D01*
X83174778Y-63365000D01*
X82573847Y-63613914D01*
X82113914Y-64073847D01*
X81865000Y-64674778D01*
X79665000Y-64674778D01*
X79665000Y-55277008D01*
X79684296Y-55180000D01*
X79665000Y-55082992D01*
X79665000Y-55082988D01*
X79607849Y-54795672D01*
X79477042Y-54599905D01*
X79445098Y-54552097D01*
X79445096Y-54552095D01*
X79390145Y-54469855D01*
X79307905Y-54414904D01*
X78635000Y-53741999D01*
X78635000Y-53174778D01*
X81865000Y-53174778D01*
X81865000Y-53825222D01*
X82113914Y-54426153D01*
X82573847Y-54886086D01*
X83174778Y-55135000D01*
X83825222Y-55135000D01*
X84426153Y-54886086D01*
X84827239Y-54485000D01*
X85972992Y-54485000D01*
X86070000Y-54504296D01*
X86167008Y-54485000D01*
X86167012Y-54485000D01*
X86454328Y-54427849D01*
X86780145Y-54210145D01*
X86835098Y-54127902D01*
X87667902Y-53295098D01*
X87750145Y-53240145D01*
X87967849Y-52914328D01*
X88025000Y-52627012D01*
X88025000Y-52627009D01*
X88044296Y-52530001D01*
X88025000Y-52432993D01*
X88025000Y-48674778D01*
X90365000Y-48674778D01*
X90365000Y-49325222D01*
X90613914Y-49926153D01*
X91073847Y-50386086D01*
X91674778Y-50635000D01*
X92325222Y-50635000D01*
X92926153Y-50386086D01*
X93386086Y-49926153D01*
X93635000Y-49325222D01*
X93635000Y-48674778D01*
X93386086Y-48073847D01*
X93176856Y-47864617D01*
X93656153Y-47666086D01*
X93896726Y-47425513D01*
X94465000Y-47993788D01*
X94465001Y-51411998D01*
X93362000Y-52515000D01*
X93327239Y-52515000D01*
X92926153Y-52113914D01*
X92325222Y-51865000D01*
X91674778Y-51865000D01*
X91073847Y-52113914D01*
X90613914Y-52573847D01*
X90365000Y-53174778D01*
X90365000Y-53825222D01*
X90613914Y-54426153D01*
X91073847Y-54886086D01*
X91674778Y-55135000D01*
X92271999Y-55135000D01*
X92725000Y-55588001D01*
X92725001Y-63530594D01*
X92325222Y-63365000D01*
X91674778Y-63365000D01*
X91073847Y-63613914D01*
X90613914Y-64073847D01*
X90365000Y-64674778D01*
X90365000Y-65325222D01*
X90613914Y-65926153D01*
X91073847Y-66386086D01*
X91674778Y-66635000D01*
X92325222Y-66635000D01*
X92725001Y-66469406D01*
X92725001Y-67411998D01*
X92402095Y-67734904D01*
X92402096Y-67734904D01*
X92272000Y-67865000D01*
X91674778Y-67865000D01*
X91073847Y-68113914D01*
X90613914Y-68573847D01*
X90365000Y-69174778D01*
X90365000Y-69825222D01*
X90613914Y-70426153D01*
X91073847Y-70886086D01*
X91674778Y-71135000D01*
X92251999Y-71135000D01*
X92735000Y-71618001D01*
X92735001Y-79534736D01*
X92325222Y-79365000D01*
X91674778Y-79365000D01*
X91073847Y-79613914D01*
X90613914Y-80073847D01*
X90365000Y-80674778D01*
X90365000Y-81325222D01*
X90613914Y-81926153D01*
X91073847Y-82386086D01*
X91674778Y-82635000D01*
X92325222Y-82635000D01*
X92735001Y-82465264D01*
X92735001Y-83391999D01*
X92262000Y-83865000D01*
X91674778Y-83865000D01*
X91073847Y-84113914D01*
X90613914Y-84573847D01*
X90365000Y-85174778D01*
X90365000Y-85825222D01*
X90613914Y-86426153D01*
X91073847Y-86886086D01*
X91674778Y-87135000D01*
X92311999Y-87135000D01*
X92765000Y-87588001D01*
X92765001Y-95547162D01*
X92325222Y-95365000D01*
X91674778Y-95365000D01*
X91073847Y-95613914D01*
X90613914Y-96073847D01*
X90365000Y-96674778D01*
X90365000Y-97325222D01*
X90613914Y-97926153D01*
X91073847Y-98386086D01*
X91674778Y-98635000D01*
X92325222Y-98635000D01*
X92765001Y-98452837D01*
X92765001Y-99361999D01*
X92262000Y-99865000D01*
X91674778Y-99865000D01*
X91073847Y-100113914D01*
X90613914Y-100573847D01*
X90365000Y-101174778D01*
X90365000Y-101825222D01*
X90613914Y-102426153D01*
X91073847Y-102886086D01*
X91674778Y-103135000D01*
X92325222Y-103135000D01*
X92926153Y-102886086D01*
X93386086Y-102426153D01*
X93635000Y-101825222D01*
X93635000Y-101278000D01*
X93738222Y-101174778D01*
X96865000Y-101174778D01*
X96865000Y-101825222D01*
X97113914Y-102426153D01*
X97573847Y-102886086D01*
X98174778Y-103135000D01*
X98825222Y-103135000D01*
X99426153Y-102886086D01*
X99886086Y-102426153D01*
X100135000Y-101825222D01*
X100135000Y-101174778D01*
X99886086Y-100573847D01*
X99426153Y-100113914D01*
X98825222Y-99865000D01*
X98174778Y-99865000D01*
X97573847Y-100113914D01*
X97113914Y-100573847D01*
X96865000Y-101174778D01*
X93738222Y-101174778D01*
X94377902Y-100535098D01*
X94460145Y-100480145D01*
X94677849Y-100154328D01*
X94735000Y-99867012D01*
X94735000Y-99867009D01*
X94754296Y-99770001D01*
X94735000Y-99672993D01*
X94735000Y-96674778D01*
X96865000Y-96674778D01*
X96865000Y-97325222D01*
X97113914Y-97926153D01*
X97573847Y-98386086D01*
X98174778Y-98635000D01*
X98825222Y-98635000D01*
X99426153Y-98386086D01*
X99886086Y-97926153D01*
X100135000Y-97325222D01*
X100135000Y-96674778D01*
X99886086Y-96073847D01*
X99426153Y-95613914D01*
X98825222Y-95365000D01*
X98174778Y-95365000D01*
X97573847Y-95613914D01*
X97113914Y-96073847D01*
X96865000Y-96674778D01*
X94735000Y-96674778D01*
X94735000Y-87277008D01*
X94754296Y-87180000D01*
X94735000Y-87082992D01*
X94735000Y-87082988D01*
X94677849Y-86795672D01*
X94664485Y-86775672D01*
X94515098Y-86552097D01*
X94515096Y-86552095D01*
X94460145Y-86469855D01*
X94377905Y-86414904D01*
X93635000Y-85671999D01*
X93635000Y-85278000D01*
X93738222Y-85174778D01*
X96865000Y-85174778D01*
X96865000Y-85825222D01*
X97113914Y-86426153D01*
X97573847Y-86886086D01*
X98174778Y-87135000D01*
X98825222Y-87135000D01*
X99426153Y-86886086D01*
X99886086Y-86426153D01*
X100135000Y-85825222D01*
X100135000Y-85174778D01*
X99886086Y-84573847D01*
X99426153Y-84113914D01*
X98825222Y-83865000D01*
X98174778Y-83865000D01*
X97573847Y-84113914D01*
X97113914Y-84573847D01*
X96865000Y-85174778D01*
X93738222Y-85174778D01*
X94347902Y-84565098D01*
X94430145Y-84510145D01*
X94647849Y-84184328D01*
X94705000Y-83897012D01*
X94705000Y-83897009D01*
X94724296Y-83800001D01*
X94705000Y-83702993D01*
X94705000Y-80674778D01*
X96865000Y-80674778D01*
X96865000Y-81325222D01*
X97113914Y-81926153D01*
X97573847Y-82386086D01*
X98174778Y-82635000D01*
X98825222Y-82635000D01*
X99426153Y-82386086D01*
X99886086Y-81926153D01*
X100135000Y-81325222D01*
X100135000Y-80674778D01*
X99886086Y-80073847D01*
X99426153Y-79613914D01*
X98825222Y-79365000D01*
X98174778Y-79365000D01*
X97573847Y-79613914D01*
X97113914Y-80073847D01*
X96865000Y-80674778D01*
X94705000Y-80674778D01*
X94705000Y-71307008D01*
X94724296Y-71210000D01*
X94705000Y-71112992D01*
X94705000Y-71112988D01*
X94647849Y-70825672D01*
X94634485Y-70805672D01*
X94485098Y-70582097D01*
X94485096Y-70582095D01*
X94430145Y-70499855D01*
X94347905Y-70444904D01*
X93635000Y-69731999D01*
X93635000Y-69288000D01*
X93748222Y-69174778D01*
X96865000Y-69174778D01*
X96865000Y-69825222D01*
X97113914Y-70426153D01*
X97573847Y-70886086D01*
X98174778Y-71135000D01*
X98825222Y-71135000D01*
X99426153Y-70886086D01*
X99886086Y-70426153D01*
X100135000Y-69825222D01*
X100135000Y-69174778D01*
X99886086Y-68573847D01*
X99426153Y-68113914D01*
X98825222Y-67865000D01*
X98174778Y-67865000D01*
X97573847Y-68113914D01*
X97113914Y-68573847D01*
X96865000Y-69174778D01*
X93748222Y-69174778D01*
X94337904Y-68585096D01*
X94420145Y-68530145D01*
X94475096Y-68447905D01*
X94475098Y-68447903D01*
X94637849Y-68204328D01*
X94655483Y-68115674D01*
X94695000Y-67917012D01*
X94695000Y-67917008D01*
X94714296Y-67820000D01*
X94695000Y-67722992D01*
X94695000Y-64674778D01*
X96865000Y-64674778D01*
X96865000Y-65325222D01*
X97113914Y-65926153D01*
X97573847Y-66386086D01*
X98174778Y-66635000D01*
X98825222Y-66635000D01*
X99426153Y-66386086D01*
X99886086Y-65926153D01*
X99988342Y-65679285D01*
X100210000Y-65679285D01*
X100210000Y-90320714D01*
X103015001Y-90320714D01*
X103015000Y-98402992D01*
X102995704Y-98500000D01*
X103015000Y-98597008D01*
X103015000Y-98597011D01*
X103059783Y-98822151D01*
X103072151Y-98884327D01*
X103139354Y-98984903D01*
X103289855Y-99210145D01*
X103372098Y-99265098D01*
X105365000Y-101258001D01*
X105365000Y-101825222D01*
X105613914Y-102426153D01*
X106073847Y-102886086D01*
X106674778Y-103135000D01*
X107325222Y-103135000D01*
X107926153Y-102886086D01*
X108386086Y-102426153D01*
X108635000Y-101825222D01*
X108635000Y-101174778D01*
X108386086Y-100573847D01*
X107926153Y-100113914D01*
X107325222Y-99865000D01*
X106758001Y-99865000D01*
X104985000Y-98092000D01*
X104985000Y-90555431D01*
X106145000Y-90555431D01*
X106145000Y-91444569D01*
X106485259Y-92266026D01*
X107113974Y-92894741D01*
X107935431Y-93235000D01*
X108824569Y-93235000D01*
X109646026Y-92894741D01*
X110274741Y-92266026D01*
X110615000Y-91444569D01*
X110615000Y-90555431D01*
X110274741Y-89733974D01*
X109646026Y-89105259D01*
X108824569Y-88765000D01*
X107935431Y-88765000D01*
X107113974Y-89105259D01*
X106485259Y-89733974D01*
X106145000Y-90555431D01*
X104985000Y-90555431D01*
X104985000Y-88908000D01*
X106758001Y-87135000D01*
X107325222Y-87135000D01*
X107926153Y-86886086D01*
X108386086Y-86426153D01*
X108635000Y-85825222D01*
X108635000Y-85174778D01*
X108386086Y-84573847D01*
X107926153Y-84113914D01*
X107325222Y-83865000D01*
X106758001Y-83865000D01*
X104985000Y-82092000D01*
X104985000Y-72908000D01*
X106758001Y-71135000D01*
X107325222Y-71135000D01*
X107926153Y-70886086D01*
X108386086Y-70426153D01*
X108635000Y-69825222D01*
X108635000Y-69174778D01*
X108386086Y-68573847D01*
X107926153Y-68113914D01*
X107325222Y-67865000D01*
X106758001Y-67865000D01*
X104985000Y-66092000D01*
X104985000Y-56308000D01*
X106309361Y-54983639D01*
X106674778Y-55135000D01*
X107325222Y-55135000D01*
X107926153Y-54886086D01*
X108386086Y-54426153D01*
X108635000Y-53825222D01*
X108635000Y-53174778D01*
X108386086Y-52573847D01*
X107926153Y-52113914D01*
X107325222Y-51865000D01*
X106674778Y-51865000D01*
X106073847Y-52113914D01*
X105672761Y-52515000D01*
X104738001Y-52515000D01*
X103255000Y-51032000D01*
X103255000Y-46471498D01*
X103265000Y-46421225D01*
X103265000Y-46421222D01*
X103284296Y-46324214D01*
X103266665Y-46235574D01*
X103666086Y-45836153D01*
X103915000Y-45235222D01*
X103915000Y-44584778D01*
X103666086Y-43983847D01*
X103206153Y-43523914D01*
X102605222Y-43275000D01*
X101954778Y-43275000D01*
X101353847Y-43523914D01*
X100893914Y-43983847D01*
X100645000Y-44584778D01*
X100645000Y-45235222D01*
X100893914Y-45836153D01*
X101286653Y-46228892D01*
X101285000Y-46237202D01*
X101285000Y-46237205D01*
X101265704Y-46334213D01*
X101285000Y-46431221D01*
X101285001Y-51342987D01*
X101265704Y-51440000D01*
X101342151Y-51824327D01*
X101504902Y-52067902D01*
X101504905Y-52067905D01*
X101559856Y-52150145D01*
X101642096Y-52205096D01*
X103564904Y-54127905D01*
X103619855Y-54210145D01*
X103702095Y-54265096D01*
X103702097Y-54265098D01*
X103839314Y-54356783D01*
X103945672Y-54427849D01*
X104057005Y-54449995D01*
X103372098Y-55134902D01*
X103289855Y-55189855D01*
X103072151Y-55515673D01*
X103015000Y-55802989D01*
X103015000Y-55802992D01*
X102995704Y-55900000D01*
X103015000Y-55997008D01*
X103015001Y-65679285D01*
X100210000Y-65679285D01*
X99988342Y-65679285D01*
X100135000Y-65325222D01*
X100135000Y-64674778D01*
X99886086Y-64073847D01*
X99426153Y-63613914D01*
X98825222Y-63365000D01*
X98174778Y-63365000D01*
X97573847Y-63613914D01*
X97113914Y-64073847D01*
X96865000Y-64674778D01*
X94695000Y-64674778D01*
X94695000Y-55277008D01*
X94714296Y-55180000D01*
X94695000Y-55082992D01*
X94695000Y-55082988D01*
X94637849Y-54795672D01*
X94507042Y-54599905D01*
X94475098Y-54552097D01*
X94475096Y-54552095D01*
X94420145Y-54469855D01*
X94337905Y-54414904D01*
X94272134Y-54349133D01*
X94480145Y-54210145D01*
X94535098Y-54127902D01*
X95488222Y-53174778D01*
X96865000Y-53174778D01*
X96865000Y-53825222D01*
X97113914Y-54426153D01*
X97573847Y-54886086D01*
X98174778Y-55135000D01*
X98825222Y-55135000D01*
X99426153Y-54886086D01*
X99886086Y-54426153D01*
X100135000Y-53825222D01*
X100135000Y-53174778D01*
X99886086Y-52573847D01*
X99426153Y-52113914D01*
X98825222Y-51865000D01*
X98174778Y-51865000D01*
X97573847Y-52113914D01*
X97113914Y-52573847D01*
X96865000Y-53174778D01*
X95488222Y-53174778D01*
X96077905Y-52585096D01*
X96160145Y-52530145D01*
X96215096Y-52447905D01*
X96215098Y-52447903D01*
X96377849Y-52204328D01*
X96389516Y-52145673D01*
X96435000Y-51917012D01*
X96435000Y-51917008D01*
X96454296Y-51820000D01*
X96435000Y-51722992D01*
X96435000Y-48674778D01*
X96865000Y-48674778D01*
X96865000Y-49325222D01*
X97113914Y-49926153D01*
X97573847Y-50386086D01*
X98174778Y-50635000D01*
X98825222Y-50635000D01*
X99426153Y-50386086D01*
X99886086Y-49926153D01*
X100135000Y-49325222D01*
X100135000Y-48674778D01*
X99886086Y-48073847D01*
X99426153Y-47613914D01*
X98825222Y-47365000D01*
X98174778Y-47365000D01*
X97573847Y-47613914D01*
X97113914Y-48073847D01*
X96865000Y-48674778D01*
X96435000Y-48674778D01*
X96435000Y-47682795D01*
X96454296Y-47585787D01*
X96435000Y-47488779D01*
X96435000Y-47488775D01*
X96377849Y-47201459D01*
X96215098Y-46957884D01*
X96215096Y-46957882D01*
X96160145Y-46875642D01*
X96077905Y-46820691D01*
X94909311Y-45652098D01*
X94854358Y-45569855D01*
X94528541Y-45352151D01*
X94241225Y-45295000D01*
X94241221Y-45295000D01*
X94144213Y-45275704D01*
X94055574Y-45293335D01*
X93656153Y-44893914D01*
X93055222Y-44645000D01*
X92404778Y-44645000D01*
X91803847Y-44893914D01*
X91343914Y-45353847D01*
X91095000Y-45954778D01*
X91095000Y-46605222D01*
X91343914Y-47206153D01*
X91553144Y-47415383D01*
X91073847Y-47613914D01*
X90613914Y-48073847D01*
X90365000Y-48674778D01*
X88025000Y-48674778D01*
X88025000Y-48307242D01*
X88266089Y-48066153D01*
X88515003Y-47465222D01*
X88515003Y-46814778D01*
X88266089Y-46213847D01*
X87806156Y-45753914D01*
X87205225Y-45505000D01*
X86554781Y-45505000D01*
X85953850Y-45753914D01*
X85493917Y-46213847D01*
X85245003Y-46814778D01*
X85245003Y-47465222D01*
X85493917Y-48066153D01*
X85953850Y-48526086D01*
X86055000Y-48567984D01*
X86055001Y-52121999D01*
X85662000Y-52515000D01*
X84827239Y-52515000D01*
X84426153Y-52113914D01*
X83825222Y-51865000D01*
X83174778Y-51865000D01*
X82573847Y-52113914D01*
X82113914Y-52573847D01*
X81865000Y-53174778D01*
X78635000Y-53174778D01*
X78386086Y-52573847D01*
X77926153Y-52113914D01*
X77325222Y-51865000D01*
X76674778Y-51865000D01*
X76073847Y-52113914D01*
X75613914Y-52573847D01*
X75365000Y-53174778D01*
X66425000Y-53174778D01*
X66425000Y-48674778D01*
X75365000Y-48674778D01*
X75365000Y-49325222D01*
X75613914Y-49926153D01*
X76073847Y-50386086D01*
X76674778Y-50635000D01*
X77325222Y-50635000D01*
X77926153Y-50386086D01*
X78327239Y-49985000D01*
X82172761Y-49985000D01*
X82573847Y-50386086D01*
X83174778Y-50635000D01*
X83825222Y-50635000D01*
X84426153Y-50386086D01*
X84886086Y-49926153D01*
X85135000Y-49325222D01*
X85135000Y-48674778D01*
X84886086Y-48073847D01*
X84426153Y-47613914D01*
X83825222Y-47365000D01*
X83174778Y-47365000D01*
X82573847Y-47613914D01*
X82172761Y-48015000D01*
X78327239Y-48015000D01*
X77926153Y-47613914D01*
X77325222Y-47365000D01*
X76674778Y-47365000D01*
X76073847Y-47613914D01*
X75613914Y-48073847D01*
X75365000Y-48674778D01*
X66425000Y-48674778D01*
X66425000Y-37075000D01*
X84872023Y-37075000D01*
X83572120Y-38374904D01*
X83572120Y-38374904D01*
G37*
X83572120Y-38374904D02*
X83442024Y-38505000D01*
X82874802Y-38505000D01*
X82273871Y-38753914D01*
X81813938Y-39213847D01*
X81565024Y-39814778D01*
X81565024Y-40465222D01*
X81813938Y-41066153D01*
X82273871Y-41526086D01*
X82874802Y-41775000D01*
X83525246Y-41775000D01*
X84126177Y-41526086D01*
X84586110Y-41066153D01*
X84835024Y-40465222D01*
X84835024Y-40150000D01*
X86202969Y-40150000D01*
X86329864Y-40787945D01*
X86691231Y-41328769D01*
X87232055Y-41690136D01*
X87708969Y-41785000D01*
X88031031Y-41785000D01*
X88507945Y-41690136D01*
X89048769Y-41328769D01*
X89140000Y-41192232D01*
X89231231Y-41328769D01*
X89772055Y-41690136D01*
X90248969Y-41785000D01*
X90571031Y-41785000D01*
X91047945Y-41690136D01*
X91588769Y-41328769D01*
X91693499Y-41172029D01*
X92094615Y-41543402D01*
X92569566Y-41740124D01*
X92823000Y-41620777D01*
X92823000Y-40277000D01*
X92803000Y-40277000D01*
X92803000Y-40023000D01*
X92823000Y-40023000D01*
X92823000Y-38679223D01*
X92569566Y-38559876D01*
X92094615Y-38756598D01*
X91693499Y-39127971D01*
X91588769Y-38971231D01*
X91047945Y-38609864D01*
X90571031Y-38515000D01*
X90248969Y-38515000D01*
X89772055Y-38609864D01*
X89231231Y-38971231D01*
X89140000Y-39107768D01*
X89048769Y-38971231D01*
X88507945Y-38609864D01*
X88031031Y-38515000D01*
X87708969Y-38515000D01*
X87232055Y-38609864D01*
X86691231Y-38971231D01*
X86329864Y-39512055D01*
X86202969Y-40150000D01*
X84835024Y-40150000D01*
X84835024Y-39898000D01*
X84965120Y-39767904D01*
X86538025Y-38195000D01*
X104002000Y-38195000D01*
X104376223Y-38569224D01*
X104192191Y-38692191D01*
X104093100Y-38840489D01*
X103747945Y-38609864D01*
X103271031Y-38515000D01*
X102948969Y-38515000D01*
X102472055Y-38609864D01*
X101931231Y-38971231D01*
X101840000Y-39107768D01*
X101748769Y-38971231D01*
X101207945Y-38609864D01*
X100731031Y-38515000D01*
X100408969Y-38515000D01*
X99932055Y-38609864D01*
X99391231Y-38971231D01*
X99300000Y-39107768D01*
X99208769Y-38971231D01*
X98667945Y-38609864D01*
X98191031Y-38515000D01*
X97868969Y-38515000D01*
X97392055Y-38609864D01*
X96851231Y-38971231D01*
X96760000Y-39107768D01*
X96668769Y-38971231D01*
X96127945Y-38609864D01*
X95651031Y-38515000D01*
X95328969Y-38515000D01*
X94852055Y-38609864D01*
X94311231Y-38971231D01*
X94206501Y-39127971D01*
X93805385Y-38756598D01*
X93330434Y-38559876D01*
X93077000Y-38679223D01*
X93077000Y-40023000D01*
X93097000Y-40023000D01*
X93097000Y-40277000D01*
X93077000Y-40277000D01*
X93077000Y-41620777D01*
X93330434Y-41740124D01*
X93805385Y-41543402D01*
X94206501Y-41172029D01*
X94311231Y-41328769D01*
X94852055Y-41690136D01*
X95328969Y-41785000D01*
X95651031Y-41785000D01*
X96127945Y-41690136D01*
X96668769Y-41328769D01*
X96760000Y-41192232D01*
X96851231Y-41328769D01*
X97392055Y-41690136D01*
X97868969Y-41785000D01*
X98191031Y-41785000D01*
X98667945Y-41690136D01*
X99208769Y-41328769D01*
X99300000Y-41192232D01*
X99391231Y-41328769D01*
X99932055Y-41690136D01*
X100408969Y-41785000D01*
X100731031Y-41785000D01*
X101207945Y-41690136D01*
X101748769Y-41328769D01*
X101840000Y-41192232D01*
X101931231Y-41328769D01*
X102472055Y-41690136D01*
X102948969Y-41785000D01*
X103271031Y-41785000D01*
X103747945Y-41690136D01*
X104093100Y-41459511D01*
X104192191Y-41607809D01*
X104402235Y-41748157D01*
X104650000Y-41797440D01*
X106650000Y-41797440D01*
X106897765Y-41748157D01*
X107107809Y-41607809D01*
X107248157Y-41397765D01*
X107297440Y-41150000D01*
X107297440Y-39150000D01*
X107248157Y-38902235D01*
X107107809Y-38692191D01*
X106897765Y-38551843D01*
X106650000Y-38502560D01*
X106643841Y-38502560D01*
X106654296Y-38450000D01*
X106635000Y-38352992D01*
X106635000Y-38352988D01*
X106577849Y-38065672D01*
X106425659Y-37837903D01*
X106415098Y-37822097D01*
X106415096Y-37822095D01*
X106360145Y-37739855D01*
X106277905Y-37684904D01*
X105668000Y-37075000D01*
X114955000Y-37075000D01*
X114955000Y-48240220D01*
X114886086Y-48073847D01*
X114426153Y-47613914D01*
X113825222Y-47365000D01*
X113174778Y-47365000D01*
X112573847Y-47613914D01*
X112172761Y-48015000D01*
X108327239Y-48015000D01*
X107926153Y-47613914D01*
X107325222Y-47365000D01*
X106674778Y-47365000D01*
X106073847Y-47613914D01*
X105613914Y-48073847D01*
X105365000Y-48674778D01*
X105365000Y-49325222D01*
X105613914Y-49926153D01*
X106073847Y-50386086D01*
X106674778Y-50635000D01*
X107325222Y-50635000D01*
X107926153Y-50386086D01*
X108327239Y-49985000D01*
X112172761Y-49985000D01*
X112573847Y-50386086D01*
X113174778Y-50635000D01*
X113825222Y-50635000D01*
X114426153Y-50386086D01*
X114886086Y-49926153D01*
X114955000Y-49759780D01*
X114955000Y-52740221D01*
X114886086Y-52573847D01*
X114426153Y-52113914D01*
X113825222Y-51865000D01*
X113174778Y-51865000D01*
X112573847Y-52113914D01*
X112113914Y-52573847D01*
X111865000Y-53174778D01*
X111865000Y-53825222D01*
X112113914Y-54426153D01*
X112573847Y-54886086D01*
X113174778Y-55135000D01*
X113825222Y-55135000D01*
X114426153Y-54886086D01*
X114886086Y-54426153D01*
X114955000Y-54259779D01*
X114955000Y-64240221D01*
X114886086Y-64073847D01*
X114426153Y-63613914D01*
X113825222Y-63365000D01*
X113174778Y-63365000D01*
X112573847Y-63613914D01*
X112172761Y-64015000D01*
X108327239Y-64015000D01*
X107926153Y-63613914D01*
X107325222Y-63365000D01*
X106674778Y-63365000D01*
X106073847Y-63613914D01*
X105613914Y-64073847D01*
X105365000Y-64674778D01*
X105365000Y-65325222D01*
X105613914Y-65926153D01*
X106073847Y-66386086D01*
X106674778Y-66635000D01*
X107325222Y-66635000D01*
X107926153Y-66386086D01*
X108327239Y-65985000D01*
X112172761Y-65985000D01*
X112573847Y-66386086D01*
X113174778Y-66635000D01*
X113825222Y-66635000D01*
X114426153Y-66386086D01*
X114886086Y-65926153D01*
X114955000Y-65759779D01*
X114955000Y-68740221D01*
X114886086Y-68573847D01*
X114426153Y-68113914D01*
X113825222Y-67865000D01*
X113174778Y-67865000D01*
X112573847Y-68113914D01*
X112113914Y-68573847D01*
X111865000Y-69174778D01*
X111865000Y-69825222D01*
X112113914Y-70426153D01*
X112573847Y-70886086D01*
X113174778Y-71135000D01*
X113825222Y-71135000D01*
X114426153Y-70886086D01*
X114886086Y-70426153D01*
X114955000Y-70259779D01*
X114955001Y-80240222D01*
X114886086Y-80073847D01*
X114426153Y-79613914D01*
X113825222Y-79365000D01*
X113174778Y-79365000D01*
X112573847Y-79613914D01*
X112172761Y-80015000D01*
X108327239Y-80015000D01*
X107926153Y-79613914D01*
X107325222Y-79365000D01*
X106674778Y-79365000D01*
X106073847Y-79613914D01*
X105613914Y-80073847D01*
X105365000Y-80674778D01*
X105365000Y-81325222D01*
X105613914Y-81926153D01*
X106073847Y-82386086D01*
X106674778Y-82635000D01*
X107325222Y-82635000D01*
X107926153Y-82386086D01*
X108327239Y-81985000D01*
X112172761Y-81985000D01*
X112573847Y-82386086D01*
X113174778Y-82635000D01*
X113825222Y-82635000D01*
X114426153Y-82386086D01*
X114886086Y-81926153D01*
X114955001Y-81759778D01*
X114955001Y-84740222D01*
X114886086Y-84573847D01*
X114426153Y-84113914D01*
X113825222Y-83865000D01*
X113174778Y-83865000D01*
X112573847Y-84113914D01*
X112113914Y-84573847D01*
X111865000Y-85174778D01*
X111865000Y-85825222D01*
X112113914Y-86426153D01*
X112573847Y-86886086D01*
X113174778Y-87135000D01*
X113825222Y-87135000D01*
X114426153Y-86886086D01*
X114886086Y-86426153D01*
X114955001Y-86259778D01*
X114955001Y-96240222D01*
X114886086Y-96073847D01*
X114426153Y-95613914D01*
X113825222Y-95365000D01*
X113174778Y-95365000D01*
X112573847Y-95613914D01*
X112172761Y-96015000D01*
X108327239Y-96015000D01*
X107926153Y-95613914D01*
X107325222Y-95365000D01*
X106674778Y-95365000D01*
X106073847Y-95613914D01*
X105613914Y-96073847D01*
X105365000Y-96674778D01*
X105365000Y-97325222D01*
X105613914Y-97926153D01*
X106073847Y-98386086D01*
X106674778Y-98635000D01*
X107325222Y-98635000D01*
X107926153Y-98386086D01*
X108327239Y-97985000D01*
X112172761Y-97985000D01*
X112573847Y-98386086D01*
X113174778Y-98635000D01*
X113825222Y-98635000D01*
X114426153Y-98386086D01*
X114886086Y-97926153D01*
X114955001Y-97759778D01*
X114955001Y-100740222D01*
X114886086Y-100573847D01*
X114426153Y-100113914D01*
X113825222Y-99865000D01*
X113174778Y-99865000D01*
X112573847Y-100113914D01*
X112113914Y-100573847D01*
X111865000Y-101174778D01*
X111865000Y-101825222D01*
X112113914Y-102426153D01*
X112573847Y-102886086D01*
X113174778Y-103135000D01*
X113825222Y-103135000D01*
X114426153Y-102886086D01*
X114886086Y-102426153D01*
X114955001Y-102259778D01*
X114955001Y-103605000D01*
X73425000Y-103605000D01*
X73425000Y-54142387D01*
X73439399Y-54070000D01*
X73382354Y-53783217D01*
X73219905Y-53540095D01*
X72976783Y-53377646D01*
X72762388Y-53335000D01*
X72690000Y-53320601D01*
X72617612Y-53335000D01*
X66425000Y-53335000D01*
X66425000Y-53174778D01*
X75365000Y-53174778D01*
X75365000Y-53825222D01*
X75613914Y-54426153D01*
X76073847Y-54886086D01*
X76674778Y-55135000D01*
X77241999Y-55135000D01*
X77695000Y-55588001D01*
X77695001Y-63518167D01*
X77325222Y-63365000D01*
X76674778Y-63365000D01*
X76073847Y-63613914D01*
X75613914Y-64073847D01*
X75365000Y-64674778D01*
X75365000Y-65325222D01*
X75613914Y-65926153D01*
X76073847Y-66386086D01*
X76674778Y-66635000D01*
X77325222Y-66635000D01*
X77695001Y-66481832D01*
X77695001Y-67411998D01*
X77372095Y-67734904D01*
X77372096Y-67734904D01*
X77242000Y-67865000D01*
X76674778Y-67865000D01*
X76073847Y-68113914D01*
X75613914Y-68573847D01*
X75365000Y-69174778D01*
X75365000Y-69825222D01*
X75613914Y-70426153D01*
X76073847Y-70886086D01*
X76674778Y-71135000D01*
X77271999Y-71135000D01*
X77735000Y-71598001D01*
X77735001Y-79534736D01*
X77325222Y-79365000D01*
X76674778Y-79365000D01*
X76073847Y-79613914D01*
X75613914Y-80073847D01*
X75365000Y-80674778D01*
X75365000Y-81325222D01*
X75613914Y-81926153D01*
X76073847Y-82386086D01*
X76674778Y-82635000D01*
X77325222Y-82635000D01*
X77735001Y-82465264D01*
X77735001Y-83371999D01*
X77242000Y-83865000D01*
X76674778Y-83865000D01*
X76073847Y-84113914D01*
X75613914Y-84573847D01*
X75365000Y-85174778D01*
X75365000Y-85825222D01*
X75613914Y-86426153D01*
X76073847Y-86886086D01*
X76674778Y-87135000D01*
X77311999Y-87135000D01*
X77745000Y-87568001D01*
X77745001Y-95538878D01*
X77325222Y-95365000D01*
X76674778Y-95365000D01*
X76073847Y-95613914D01*
X75613914Y-96073847D01*
X75365000Y-96674778D01*
X75365000Y-97325222D01*
X75613914Y-97926153D01*
X76073847Y-98386086D01*
X76674778Y-98635000D01*
X77325222Y-98635000D01*
X77745001Y-98461122D01*
X77745001Y-99341999D01*
X77222000Y-99865000D01*
X76674778Y-99865000D01*
X76073847Y-100113914D01*
X75613914Y-100573847D01*
X75365000Y-101174778D01*
X75365000Y-101825222D01*
X75613914Y-102426153D01*
X76073847Y-102886086D01*
X76674778Y-103135000D01*
X77325222Y-103135000D01*
X77926153Y-102886086D01*
X78386086Y-102426153D01*
X78635000Y-101825222D01*
X78635000Y-101238000D01*
X78698222Y-101174778D01*
X81865000Y-101174778D01*
X81865000Y-101825222D01*
X82113914Y-102426153D01*
X82573847Y-102886086D01*
X83174778Y-103135000D01*
X83825222Y-103135000D01*
X84426153Y-102886086D01*
X84886086Y-102426153D01*
X85135000Y-101825222D01*
X85135000Y-101174778D01*
X84886086Y-100573847D01*
X84426153Y-100113914D01*
X83825222Y-99865000D01*
X83174778Y-99865000D01*
X82573847Y-100113914D01*
X82113914Y-100573847D01*
X81865000Y-101174778D01*
X78698222Y-101174778D01*
X79357902Y-100515098D01*
X79440145Y-100460145D01*
X79657849Y-100134328D01*
X79715000Y-99847012D01*
X79715000Y-99847009D01*
X79734296Y-99750001D01*
X79715000Y-99652993D01*
X79715000Y-96674778D01*
X81865000Y-96674778D01*
X81865000Y-97325222D01*
X82113914Y-97926153D01*
X82573847Y-98386086D01*
X83174778Y-98635000D01*
X83825222Y-98635000D01*
X84426153Y-98386086D01*
X84886086Y-97926153D01*
X85135000Y-97325222D01*
X85135000Y-96674778D01*
X84886086Y-96073847D01*
X84426153Y-95613914D01*
X83825222Y-95365000D01*
X83174778Y-95365000D01*
X82573847Y-95613914D01*
X82113914Y-96073847D01*
X81865000Y-96674778D01*
X79715000Y-96674778D01*
X79715000Y-90555431D01*
X81155000Y-90555431D01*
X81155000Y-91444569D01*
X81495259Y-92266026D01*
X82123974Y-92894741D01*
X82945431Y-93235000D01*
X83834569Y-93235000D01*
X84656026Y-92894741D01*
X85284741Y-92266026D01*
X85625000Y-91444569D01*
X85625000Y-90555431D01*
X85284741Y-89733974D01*
X84656026Y-89105259D01*
X83834569Y-88765000D01*
X82945431Y-88765000D01*
X82123974Y-89105259D01*
X81495259Y-89733974D01*
X81155000Y-90555431D01*
X79715000Y-90555431D01*
X79715000Y-87257008D01*
X79734296Y-87160000D01*
X79715000Y-87062992D01*
X79715000Y-87062988D01*
X79657849Y-86775672D01*
X79495098Y-86532097D01*
X79495096Y-86532095D01*
X79440145Y-86449855D01*
X79357905Y-86394904D01*
X78635000Y-85671999D01*
X78635000Y-85258000D01*
X78718222Y-85174778D01*
X81865000Y-85174778D01*
X81865000Y-85825222D01*
X82113914Y-86426153D01*
X82573847Y-86886086D01*
X83174778Y-87135000D01*
X83825222Y-87135000D01*
X84426153Y-86886086D01*
X84886086Y-86426153D01*
X85135000Y-85825222D01*
X85135000Y-85174778D01*
X84886086Y-84573847D01*
X84426153Y-84113914D01*
X83825222Y-83865000D01*
X83174778Y-83865000D01*
X82573847Y-84113914D01*
X82113914Y-84573847D01*
X81865000Y-85174778D01*
X78718222Y-85174778D01*
X79347902Y-84545098D01*
X79430145Y-84490145D01*
X79647849Y-84164328D01*
X79705000Y-83877012D01*
X79705000Y-83877009D01*
X79724296Y-83780001D01*
X79705000Y-83682993D01*
X79705000Y-80674778D01*
X81865000Y-80674778D01*
X81865000Y-81325222D01*
X82113914Y-81926153D01*
X82573847Y-82386086D01*
X83174778Y-82635000D01*
X83825222Y-82635000D01*
X84426153Y-82386086D01*
X84886086Y-81926153D01*
X85135000Y-81325222D01*
X85135000Y-80674778D01*
X84886086Y-80073847D01*
X84426153Y-79613914D01*
X83825222Y-79365000D01*
X83174778Y-79365000D01*
X82573847Y-79613914D01*
X82113914Y-80073847D01*
X81865000Y-80674778D01*
X79705000Y-80674778D01*
X79705000Y-71287008D01*
X79724296Y-71190000D01*
X79705000Y-71092992D01*
X79705000Y-71092988D01*
X79647849Y-70805672D01*
X79485098Y-70562097D01*
X79485096Y-70562095D01*
X79430145Y-70479855D01*
X79347905Y-70424904D01*
X78635000Y-69711999D01*
X78635000Y-69258000D01*
X78718222Y-69174778D01*
X81865000Y-69174778D01*
X81865000Y-69825222D01*
X82113914Y-70426153D01*
X82573847Y-70886086D01*
X83174778Y-71135000D01*
X83825222Y-71135000D01*
X84426153Y-70886086D01*
X84886086Y-70426153D01*
X85135000Y-69825222D01*
X85135000Y-69174778D01*
X84886086Y-68573847D01*
X84426153Y-68113914D01*
X83825222Y-67865000D01*
X83174778Y-67865000D01*
X82573847Y-68113914D01*
X82113914Y-68573847D01*
X81865000Y-69174778D01*
X78718222Y-69174778D01*
X79307904Y-68585096D01*
X79390145Y-68530145D01*
X79445096Y-68447905D01*
X79445098Y-68447903D01*
X79607849Y-68204328D01*
X79625483Y-68115674D01*
X79665000Y-67917012D01*
X79665000Y-67917008D01*
X79684296Y-67820000D01*
X79665000Y-67722992D01*
X79665000Y-64674778D01*
X81865000Y-64674778D01*
X81865000Y-65325222D01*
X82113914Y-65926153D01*
X82573847Y-66386086D01*
X83174778Y-66635000D01*
X83825222Y-66635000D01*
X84426153Y-66386086D01*
X84886086Y-65926153D01*
X85135000Y-65325222D01*
X85135000Y-64674778D01*
X84886086Y-64073847D01*
X84426153Y-63613914D01*
X83825222Y-63365000D01*
X83174778Y-63365000D01*
X82573847Y-63613914D01*
X82113914Y-64073847D01*
X81865000Y-64674778D01*
X79665000Y-64674778D01*
X79665000Y-55277008D01*
X79684296Y-55180000D01*
X79665000Y-55082992D01*
X79665000Y-55082988D01*
X79607849Y-54795672D01*
X79477042Y-54599905D01*
X79445098Y-54552097D01*
X79445096Y-54552095D01*
X79390145Y-54469855D01*
X79307905Y-54414904D01*
X78635000Y-53741999D01*
X78635000Y-53174778D01*
X81865000Y-53174778D01*
X81865000Y-53825222D01*
X82113914Y-54426153D01*
X82573847Y-54886086D01*
X83174778Y-55135000D01*
X83825222Y-55135000D01*
X84426153Y-54886086D01*
X84827239Y-54485000D01*
X85972992Y-54485000D01*
X86070000Y-54504296D01*
X86167008Y-54485000D01*
X86167012Y-54485000D01*
X86454328Y-54427849D01*
X86780145Y-54210145D01*
X86835098Y-54127902D01*
X87667902Y-53295098D01*
X87750145Y-53240145D01*
X87967849Y-52914328D01*
X88025000Y-52627012D01*
X88025000Y-52627009D01*
X88044296Y-52530001D01*
X88025000Y-52432993D01*
X88025000Y-48674778D01*
X90365000Y-48674778D01*
X90365000Y-49325222D01*
X90613914Y-49926153D01*
X91073847Y-50386086D01*
X91674778Y-50635000D01*
X92325222Y-50635000D01*
X92926153Y-50386086D01*
X93386086Y-49926153D01*
X93635000Y-49325222D01*
X93635000Y-48674778D01*
X93386086Y-48073847D01*
X93176856Y-47864617D01*
X93656153Y-47666086D01*
X93896726Y-47425513D01*
X94465000Y-47993788D01*
X94465001Y-51411998D01*
X93362000Y-52515000D01*
X93327239Y-52515000D01*
X92926153Y-52113914D01*
X92325222Y-51865000D01*
X91674778Y-51865000D01*
X91073847Y-52113914D01*
X90613914Y-52573847D01*
X90365000Y-53174778D01*
X90365000Y-53825222D01*
X90613914Y-54426153D01*
X91073847Y-54886086D01*
X91674778Y-55135000D01*
X92271999Y-55135000D01*
X92725000Y-55588001D01*
X92725001Y-63530594D01*
X92325222Y-63365000D01*
X91674778Y-63365000D01*
X91073847Y-63613914D01*
X90613914Y-64073847D01*
X90365000Y-64674778D01*
X90365000Y-65325222D01*
X90613914Y-65926153D01*
X91073847Y-66386086D01*
X91674778Y-66635000D01*
X92325222Y-66635000D01*
X92725001Y-66469406D01*
X92725001Y-67411998D01*
X92402095Y-67734904D01*
X92402096Y-67734904D01*
X92272000Y-67865000D01*
X91674778Y-67865000D01*
X91073847Y-68113914D01*
X90613914Y-68573847D01*
X90365000Y-69174778D01*
X90365000Y-69825222D01*
X90613914Y-70426153D01*
X91073847Y-70886086D01*
X91674778Y-71135000D01*
X92251999Y-71135000D01*
X92735000Y-71618001D01*
X92735001Y-79534736D01*
X92325222Y-79365000D01*
X91674778Y-79365000D01*
X91073847Y-79613914D01*
X90613914Y-80073847D01*
X90365000Y-80674778D01*
X90365000Y-81325222D01*
X90613914Y-81926153D01*
X91073847Y-82386086D01*
X91674778Y-82635000D01*
X92325222Y-82635000D01*
X92735001Y-82465264D01*
X92735001Y-83391999D01*
X92262000Y-83865000D01*
X91674778Y-83865000D01*
X91073847Y-84113914D01*
X90613914Y-84573847D01*
X90365000Y-85174778D01*
X90365000Y-85825222D01*
X90613914Y-86426153D01*
X91073847Y-86886086D01*
X91674778Y-87135000D01*
X92311999Y-87135000D01*
X92765000Y-87588001D01*
X92765001Y-95547162D01*
X92325222Y-95365000D01*
X91674778Y-95365000D01*
X91073847Y-95613914D01*
X90613914Y-96073847D01*
X90365000Y-96674778D01*
X90365000Y-97325222D01*
X90613914Y-97926153D01*
X91073847Y-98386086D01*
X91674778Y-98635000D01*
X92325222Y-98635000D01*
X92765001Y-98452837D01*
X92765001Y-99361999D01*
X92262000Y-99865000D01*
X91674778Y-99865000D01*
X91073847Y-100113914D01*
X90613914Y-100573847D01*
X90365000Y-101174778D01*
X90365000Y-101825222D01*
X90613914Y-102426153D01*
X91073847Y-102886086D01*
X91674778Y-103135000D01*
X92325222Y-103135000D01*
X92926153Y-102886086D01*
X93386086Y-102426153D01*
X93635000Y-101825222D01*
X93635000Y-101278000D01*
X93738222Y-101174778D01*
X96865000Y-101174778D01*
X96865000Y-101825222D01*
X97113914Y-102426153D01*
X97573847Y-102886086D01*
X98174778Y-103135000D01*
X98825222Y-103135000D01*
X99426153Y-102886086D01*
X99886086Y-102426153D01*
X100135000Y-101825222D01*
X100135000Y-101174778D01*
X99886086Y-100573847D01*
X99426153Y-100113914D01*
X98825222Y-99865000D01*
X98174778Y-99865000D01*
X97573847Y-100113914D01*
X97113914Y-100573847D01*
X96865000Y-101174778D01*
X93738222Y-101174778D01*
X94377902Y-100535098D01*
X94460145Y-100480145D01*
X94677849Y-100154328D01*
X94735000Y-99867012D01*
X94735000Y-99867009D01*
X94754296Y-99770001D01*
X94735000Y-99672993D01*
X94735000Y-96674778D01*
X96865000Y-96674778D01*
X96865000Y-97325222D01*
X97113914Y-97926153D01*
X97573847Y-98386086D01*
X98174778Y-98635000D01*
X98825222Y-98635000D01*
X99426153Y-98386086D01*
X99886086Y-97926153D01*
X100135000Y-97325222D01*
X100135000Y-96674778D01*
X99886086Y-96073847D01*
X99426153Y-95613914D01*
X98825222Y-95365000D01*
X98174778Y-95365000D01*
X97573847Y-95613914D01*
X97113914Y-96073847D01*
X96865000Y-96674778D01*
X94735000Y-96674778D01*
X94735000Y-87277008D01*
X94754296Y-87180000D01*
X94735000Y-87082992D01*
X94735000Y-87082988D01*
X94677849Y-86795672D01*
X94664485Y-86775672D01*
X94515098Y-86552097D01*
X94515096Y-86552095D01*
X94460145Y-86469855D01*
X94377905Y-86414904D01*
X93635000Y-85671999D01*
X93635000Y-85278000D01*
X93738222Y-85174778D01*
X96865000Y-85174778D01*
X96865000Y-85825222D01*
X97113914Y-86426153D01*
X97573847Y-86886086D01*
X98174778Y-87135000D01*
X98825222Y-87135000D01*
X99426153Y-86886086D01*
X99886086Y-86426153D01*
X100135000Y-85825222D01*
X100135000Y-85174778D01*
X99886086Y-84573847D01*
X99426153Y-84113914D01*
X98825222Y-83865000D01*
X98174778Y-83865000D01*
X97573847Y-84113914D01*
X97113914Y-84573847D01*
X96865000Y-85174778D01*
X93738222Y-85174778D01*
X94347902Y-84565098D01*
X94430145Y-84510145D01*
X94647849Y-84184328D01*
X94705000Y-83897012D01*
X94705000Y-83897009D01*
X94724296Y-83800001D01*
X94705000Y-83702993D01*
X94705000Y-80674778D01*
X96865000Y-80674778D01*
X96865000Y-81325222D01*
X97113914Y-81926153D01*
X97573847Y-82386086D01*
X98174778Y-82635000D01*
X98825222Y-82635000D01*
X99426153Y-82386086D01*
X99886086Y-81926153D01*
X100135000Y-81325222D01*
X100135000Y-80674778D01*
X99886086Y-80073847D01*
X99426153Y-79613914D01*
X98825222Y-79365000D01*
X98174778Y-79365000D01*
X97573847Y-79613914D01*
X97113914Y-80073847D01*
X96865000Y-80674778D01*
X94705000Y-80674778D01*
X94705000Y-71307008D01*
X94724296Y-71210000D01*
X94705000Y-71112992D01*
X94705000Y-71112988D01*
X94647849Y-70825672D01*
X94634485Y-70805672D01*
X94485098Y-70582097D01*
X94485096Y-70582095D01*
X94430145Y-70499855D01*
X94347905Y-70444904D01*
X93635000Y-69731999D01*
X93635000Y-69288000D01*
X93748222Y-69174778D01*
X96865000Y-69174778D01*
X96865000Y-69825222D01*
X97113914Y-70426153D01*
X97573847Y-70886086D01*
X98174778Y-71135000D01*
X98825222Y-71135000D01*
X99426153Y-70886086D01*
X99886086Y-70426153D01*
X100135000Y-69825222D01*
X100135000Y-69174778D01*
X99886086Y-68573847D01*
X99426153Y-68113914D01*
X98825222Y-67865000D01*
X98174778Y-67865000D01*
X97573847Y-68113914D01*
X97113914Y-68573847D01*
X96865000Y-69174778D01*
X93748222Y-69174778D01*
X94337904Y-68585096D01*
X94420145Y-68530145D01*
X94475096Y-68447905D01*
X94475098Y-68447903D01*
X94637849Y-68204328D01*
X94655483Y-68115674D01*
X94695000Y-67917012D01*
X94695000Y-67917008D01*
X94714296Y-67820000D01*
X94695000Y-67722992D01*
X94695000Y-64674778D01*
X96865000Y-64674778D01*
X96865000Y-65325222D01*
X97113914Y-65926153D01*
X97573847Y-66386086D01*
X98174778Y-66635000D01*
X98825222Y-66635000D01*
X99426153Y-66386086D01*
X99886086Y-65926153D01*
X99988342Y-65679285D01*
X100210000Y-65679285D01*
X100210000Y-90320714D01*
X103015001Y-90320714D01*
X103015000Y-98402992D01*
X102995704Y-98500000D01*
X103015000Y-98597008D01*
X103015000Y-98597011D01*
X103059783Y-98822151D01*
X103072151Y-98884327D01*
X103139354Y-98984903D01*
X103289855Y-99210145D01*
X103372098Y-99265098D01*
X105365000Y-101258001D01*
X105365000Y-101825222D01*
X105613914Y-102426153D01*
X106073847Y-102886086D01*
X106674778Y-103135000D01*
X107325222Y-103135000D01*
X107926153Y-102886086D01*
X108386086Y-102426153D01*
X108635000Y-101825222D01*
X108635000Y-101174778D01*
X108386086Y-100573847D01*
X107926153Y-100113914D01*
X107325222Y-99865000D01*
X106758001Y-99865000D01*
X104985000Y-98092000D01*
X104985000Y-90555431D01*
X106145000Y-90555431D01*
X106145000Y-91444569D01*
X106485259Y-92266026D01*
X107113974Y-92894741D01*
X107935431Y-93235000D01*
X108824569Y-93235000D01*
X109646026Y-92894741D01*
X110274741Y-92266026D01*
X110615000Y-91444569D01*
X110615000Y-90555431D01*
X110274741Y-89733974D01*
X109646026Y-89105259D01*
X108824569Y-88765000D01*
X107935431Y-88765000D01*
X107113974Y-89105259D01*
X106485259Y-89733974D01*
X106145000Y-90555431D01*
X104985000Y-90555431D01*
X104985000Y-88908000D01*
X106758001Y-87135000D01*
X107325222Y-87135000D01*
X107926153Y-86886086D01*
X108386086Y-86426153D01*
X108635000Y-85825222D01*
X108635000Y-85174778D01*
X108386086Y-84573847D01*
X107926153Y-84113914D01*
X107325222Y-83865000D01*
X106758001Y-83865000D01*
X104985000Y-82092000D01*
X104985000Y-72908000D01*
X106758001Y-71135000D01*
X107325222Y-71135000D01*
X107926153Y-70886086D01*
X108386086Y-70426153D01*
X108635000Y-69825222D01*
X108635000Y-69174778D01*
X108386086Y-68573847D01*
X107926153Y-68113914D01*
X107325222Y-67865000D01*
X106758001Y-67865000D01*
X104985000Y-66092000D01*
X104985000Y-56308000D01*
X106309361Y-54983639D01*
X106674778Y-55135000D01*
X107325222Y-55135000D01*
X107926153Y-54886086D01*
X108386086Y-54426153D01*
X108635000Y-53825222D01*
X108635000Y-53174778D01*
X108386086Y-52573847D01*
X107926153Y-52113914D01*
X107325222Y-51865000D01*
X106674778Y-51865000D01*
X106073847Y-52113914D01*
X105672761Y-52515000D01*
X104738001Y-52515000D01*
X103255000Y-51032000D01*
X103255000Y-46471498D01*
X103265000Y-46421225D01*
X103265000Y-46421222D01*
X103284296Y-46324214D01*
X103266665Y-46235574D01*
X103666086Y-45836153D01*
X103915000Y-45235222D01*
X103915000Y-44584778D01*
X103666086Y-43983847D01*
X103206153Y-43523914D01*
X102605222Y-43275000D01*
X101954778Y-43275000D01*
X101353847Y-43523914D01*
X100893914Y-43983847D01*
X100645000Y-44584778D01*
X100645000Y-45235222D01*
X100893914Y-45836153D01*
X101286653Y-46228892D01*
X101285000Y-46237202D01*
X101285000Y-46237205D01*
X101265704Y-46334213D01*
X101285000Y-46431221D01*
X101285001Y-51342987D01*
X101265704Y-51440000D01*
X101342151Y-51824327D01*
X101504902Y-52067902D01*
X101504905Y-52067905D01*
X101559856Y-52150145D01*
X101642096Y-52205096D01*
X103564904Y-54127905D01*
X103619855Y-54210145D01*
X103702095Y-54265096D01*
X103702097Y-54265098D01*
X103839314Y-54356783D01*
X103945672Y-54427849D01*
X104057005Y-54449995D01*
X103372098Y-55134902D01*
X103289855Y-55189855D01*
X103072151Y-55515673D01*
X103015000Y-55802989D01*
X103015000Y-55802992D01*
X102995704Y-55900000D01*
X103015000Y-55997008D01*
X103015001Y-65679285D01*
X100210000Y-65679285D01*
X99988342Y-65679285D01*
X100135000Y-65325222D01*
X100135000Y-64674778D01*
X99886086Y-64073847D01*
X99426153Y-63613914D01*
X98825222Y-63365000D01*
X98174778Y-63365000D01*
X97573847Y-63613914D01*
X97113914Y-64073847D01*
X96865000Y-64674778D01*
X94695000Y-64674778D01*
X94695000Y-55277008D01*
X94714296Y-55180000D01*
X94695000Y-55082992D01*
X94695000Y-55082988D01*
X94637849Y-54795672D01*
X94507042Y-54599905D01*
X94475098Y-54552097D01*
X94475096Y-54552095D01*
X94420145Y-54469855D01*
X94337905Y-54414904D01*
X94272134Y-54349133D01*
X94480145Y-54210145D01*
X94535098Y-54127902D01*
X95488222Y-53174778D01*
X96865000Y-53174778D01*
X96865000Y-53825222D01*
X97113914Y-54426153D01*
X97573847Y-54886086D01*
X98174778Y-55135000D01*
X98825222Y-55135000D01*
X99426153Y-54886086D01*
X99886086Y-54426153D01*
X100135000Y-53825222D01*
X100135000Y-53174778D01*
X99886086Y-52573847D01*
X99426153Y-52113914D01*
X98825222Y-51865000D01*
X98174778Y-51865000D01*
X97573847Y-52113914D01*
X97113914Y-52573847D01*
X96865000Y-53174778D01*
X95488222Y-53174778D01*
X96077905Y-52585096D01*
X96160145Y-52530145D01*
X96215096Y-52447905D01*
X96215098Y-52447903D01*
X96377849Y-52204328D01*
X96389516Y-52145673D01*
X96435000Y-51917012D01*
X96435000Y-51917008D01*
X96454296Y-51820000D01*
X96435000Y-51722992D01*
X96435000Y-48674778D01*
X96865000Y-48674778D01*
X96865000Y-49325222D01*
X97113914Y-49926153D01*
X97573847Y-50386086D01*
X98174778Y-50635000D01*
X98825222Y-50635000D01*
X99426153Y-50386086D01*
X99886086Y-49926153D01*
X100135000Y-49325222D01*
X100135000Y-48674778D01*
X99886086Y-48073847D01*
X99426153Y-47613914D01*
X98825222Y-47365000D01*
X98174778Y-47365000D01*
X97573847Y-47613914D01*
X97113914Y-48073847D01*
X96865000Y-48674778D01*
X96435000Y-48674778D01*
X96435000Y-47682795D01*
X96454296Y-47585787D01*
X96435000Y-47488779D01*
X96435000Y-47488775D01*
X96377849Y-47201459D01*
X96215098Y-46957884D01*
X96215096Y-46957882D01*
X96160145Y-46875642D01*
X96077905Y-46820691D01*
X94909311Y-45652098D01*
X94854358Y-45569855D01*
X94528541Y-45352151D01*
X94241225Y-45295000D01*
X94241221Y-45295000D01*
X94144213Y-45275704D01*
X94055574Y-45293335D01*
X93656153Y-44893914D01*
X93055222Y-44645000D01*
X92404778Y-44645000D01*
X91803847Y-44893914D01*
X91343914Y-45353847D01*
X91095000Y-45954778D01*
X91095000Y-46605222D01*
X91343914Y-47206153D01*
X91553144Y-47415383D01*
X91073847Y-47613914D01*
X90613914Y-48073847D01*
X90365000Y-48674778D01*
X88025000Y-48674778D01*
X88025000Y-48307242D01*
X88266089Y-48066153D01*
X88515003Y-47465222D01*
X88515003Y-46814778D01*
X88266089Y-46213847D01*
X87806156Y-45753914D01*
X87205225Y-45505000D01*
X86554781Y-45505000D01*
X85953850Y-45753914D01*
X85493917Y-46213847D01*
X85245003Y-46814778D01*
X85245003Y-47465222D01*
X85493917Y-48066153D01*
X85953850Y-48526086D01*
X86055000Y-48567984D01*
X86055001Y-52121999D01*
X85662000Y-52515000D01*
X84827239Y-52515000D01*
X84426153Y-52113914D01*
X83825222Y-51865000D01*
X83174778Y-51865000D01*
X82573847Y-52113914D01*
X82113914Y-52573847D01*
X81865000Y-53174778D01*
X78635000Y-53174778D01*
X78386086Y-52573847D01*
X77926153Y-52113914D01*
X77325222Y-51865000D01*
X76674778Y-51865000D01*
X76073847Y-52113914D01*
X75613914Y-52573847D01*
X75365000Y-53174778D01*
X66425000Y-53174778D01*
X66425000Y-48674778D01*
X75365000Y-48674778D01*
X75365000Y-49325222D01*
X75613914Y-49926153D01*
X76073847Y-50386086D01*
X76674778Y-50635000D01*
X77325222Y-50635000D01*
X77926153Y-50386086D01*
X78327239Y-49985000D01*
X82172761Y-49985000D01*
X82573847Y-50386086D01*
X83174778Y-50635000D01*
X83825222Y-50635000D01*
X84426153Y-50386086D01*
X84886086Y-49926153D01*
X85135000Y-49325222D01*
X85135000Y-48674778D01*
X84886086Y-48073847D01*
X84426153Y-47613914D01*
X83825222Y-47365000D01*
X83174778Y-47365000D01*
X82573847Y-47613914D01*
X82172761Y-48015000D01*
X78327239Y-48015000D01*
X77926153Y-47613914D01*
X77325222Y-47365000D01*
X76674778Y-47365000D01*
X76073847Y-47613914D01*
X75613914Y-48073847D01*
X75365000Y-48674778D01*
X66425000Y-48674778D01*
X66425000Y-37075000D01*
X84872023Y-37075000D01*
X83572120Y-38374904D01*
G04 #@! TD*
M02*
