G04 #@! TF.GenerationSoftware,KiCad,Pcbnew,5.0.2+dfsg1-1*
G04 #@! TF.CreationDate,2021-10-12T12:34:50+05:30*
G04 #@! TF.ProjectId,KEYBORD_PCB_V1,4b455942-4f52-4445-9f50-43425f56312e,rev?*
G04 #@! TF.SameCoordinates,Original*
G04 #@! TF.FileFunction,Legend,Top*
G04 #@! TF.FilePolarity,Positive*
%FSLAX46Y46*%
G04 Gerber Fmt 4.6, Leading zero omitted, Abs format (unit mm)*
G04 Created by KiCad (PCBNEW 5.0.2+dfsg1-1) date Tue 12 Oct 2021 12:34:50 PM IST*
%MOMM*%
%LPD*%
G01*
G04 APERTURE LIST*
%ADD10C,0.120000*%
%ADD11C,0.150000*%
G04 APERTURE END LIST*
D10*
G04 #@! TO.C,J1*
X106980000Y-40150000D02*
X106980000Y-41480000D01*
X106980000Y-41480000D02*
X105650000Y-41480000D01*
X104380000Y-41480000D02*
X86540000Y-41480000D01*
X86540000Y-38820000D02*
X86540000Y-41480000D01*
X104380000Y-38820000D02*
X86540000Y-38820000D01*
X104380000Y-38820000D02*
X104380000Y-41480000D01*
G04 #@! TO.C,SW1*
X78000000Y-54500000D02*
X82500000Y-54500000D01*
X76750000Y-50500000D02*
X76750000Y-52000000D01*
X82500000Y-48000000D02*
X78000000Y-48000000D01*
X83750000Y-52000000D02*
X83750000Y-50500000D01*
G04 #@! TO.C,SW2*
X83750000Y-68000000D02*
X83750000Y-66500000D01*
X82500000Y-64000000D02*
X78000000Y-64000000D01*
X76750000Y-66500000D02*
X76750000Y-68000000D01*
X78000000Y-70500000D02*
X82500000Y-70500000D01*
G04 #@! TO.C,SW3*
X83750000Y-84000000D02*
X83750000Y-82500000D01*
X82500000Y-80000000D02*
X78000000Y-80000000D01*
X76750000Y-82500000D02*
X76750000Y-84000000D01*
X78000000Y-86500000D02*
X82500000Y-86500000D01*
G04 #@! TO.C,SW4*
X78000000Y-102500000D02*
X82500000Y-102500000D01*
X76750000Y-98500000D02*
X76750000Y-100000000D01*
X82500000Y-96000000D02*
X78000000Y-96000000D01*
X83750000Y-100000000D02*
X83750000Y-98500000D01*
G04 #@! TO.C,SW5*
X98750000Y-52000000D02*
X98750000Y-50500000D01*
X97500000Y-48000000D02*
X93000000Y-48000000D01*
X91750000Y-50500000D02*
X91750000Y-52000000D01*
X93000000Y-54500000D02*
X97500000Y-54500000D01*
G04 #@! TO.C,SW6*
X98750000Y-68000000D02*
X98750000Y-66500000D01*
X97500000Y-64000000D02*
X93000000Y-64000000D01*
X91750000Y-66500000D02*
X91750000Y-68000000D01*
X93000000Y-70500000D02*
X97500000Y-70500000D01*
G04 #@! TO.C,SW7*
X93000000Y-86500000D02*
X97500000Y-86500000D01*
X91750000Y-82500000D02*
X91750000Y-84000000D01*
X97500000Y-80000000D02*
X93000000Y-80000000D01*
X98750000Y-84000000D02*
X98750000Y-82500000D01*
G04 #@! TO.C,SW8*
X98750000Y-100000000D02*
X98750000Y-98500000D01*
X97500000Y-96000000D02*
X93000000Y-96000000D01*
X91750000Y-98500000D02*
X91750000Y-100000000D01*
X93000000Y-102500000D02*
X97500000Y-102500000D01*
G04 #@! TO.C,SW9*
X108000000Y-54500000D02*
X112500000Y-54500000D01*
X106750000Y-50500000D02*
X106750000Y-52000000D01*
X112500000Y-48000000D02*
X108000000Y-48000000D01*
X113750000Y-52000000D02*
X113750000Y-50500000D01*
G04 #@! TO.C,SW10*
X108000000Y-70500000D02*
X112500000Y-70500000D01*
X106750000Y-66500000D02*
X106750000Y-68000000D01*
X112500000Y-64000000D02*
X108000000Y-64000000D01*
X113750000Y-68000000D02*
X113750000Y-66500000D01*
G04 #@! TO.C,SW11*
X108000000Y-86500000D02*
X112500000Y-86500000D01*
X106750000Y-82500000D02*
X106750000Y-84000000D01*
X112500000Y-80000000D02*
X108000000Y-80000000D01*
X113750000Y-84000000D02*
X113750000Y-82500000D01*
G04 #@! TO.C,SW12*
X113750000Y-100000000D02*
X113750000Y-98500000D01*
X112500000Y-96000000D02*
X108000000Y-96000000D01*
X106750000Y-98500000D02*
X106750000Y-100000000D01*
X108000000Y-102500000D02*
X112500000Y-102500000D01*
G04 #@! TO.C,REF\002A\002A*
D11*
X82356666Y-91442380D02*
X82023333Y-90966190D01*
X81785238Y-91442380D02*
X81785238Y-90442380D01*
X82166190Y-90442380D01*
X82261428Y-90490000D01*
X82309047Y-90537619D01*
X82356666Y-90632857D01*
X82356666Y-90775714D01*
X82309047Y-90870952D01*
X82261428Y-90918571D01*
X82166190Y-90966190D01*
X81785238Y-90966190D01*
X82785238Y-90918571D02*
X83118571Y-90918571D01*
X83261428Y-91442380D02*
X82785238Y-91442380D01*
X82785238Y-90442380D01*
X83261428Y-90442380D01*
X84023333Y-90918571D02*
X83690000Y-90918571D01*
X83690000Y-91442380D02*
X83690000Y-90442380D01*
X84166190Y-90442380D01*
X84690000Y-90442380D02*
X84690000Y-90680476D01*
X84451904Y-90585238D02*
X84690000Y-90680476D01*
X84928095Y-90585238D01*
X84547142Y-90870952D02*
X84690000Y-90680476D01*
X84832857Y-90870952D01*
X85451904Y-90442380D02*
X85451904Y-90680476D01*
X85213809Y-90585238D02*
X85451904Y-90680476D01*
X85690000Y-90585238D01*
X85309047Y-90870952D02*
X85451904Y-90680476D01*
X85594761Y-90870952D01*
X107326666Y-91482380D02*
X106993333Y-91006190D01*
X106755238Y-91482380D02*
X106755238Y-90482380D01*
X107136190Y-90482380D01*
X107231428Y-90530000D01*
X107279047Y-90577619D01*
X107326666Y-90672857D01*
X107326666Y-90815714D01*
X107279047Y-90910952D01*
X107231428Y-90958571D01*
X107136190Y-91006190D01*
X106755238Y-91006190D01*
X107755238Y-90958571D02*
X108088571Y-90958571D01*
X108231428Y-91482380D02*
X107755238Y-91482380D01*
X107755238Y-90482380D01*
X108231428Y-90482380D01*
X108993333Y-90958571D02*
X108660000Y-90958571D01*
X108660000Y-91482380D02*
X108660000Y-90482380D01*
X109136190Y-90482380D01*
X109660000Y-90482380D02*
X109660000Y-90720476D01*
X109421904Y-90625238D02*
X109660000Y-90720476D01*
X109898095Y-90625238D01*
X109517142Y-90910952D02*
X109660000Y-90720476D01*
X109802857Y-90910952D01*
X110421904Y-90482380D02*
X110421904Y-90720476D01*
X110183809Y-90625238D02*
X110421904Y-90720476D01*
X110660000Y-90625238D01*
X110279047Y-90910952D02*
X110421904Y-90720476D01*
X110564761Y-90910952D01*
G04 #@! TO.C,J1*
X107872380Y-40483333D02*
X108586666Y-40483333D01*
X108729523Y-40530952D01*
X108824761Y-40626190D01*
X108872380Y-40769047D01*
X108872380Y-40864285D01*
X108872380Y-39483333D02*
X108872380Y-40054761D01*
X108872380Y-39769047D02*
X107872380Y-39769047D01*
X108015238Y-39864285D01*
X108110476Y-39959523D01*
X108158095Y-40054761D01*
G04 #@! TO.C,SW1*
X78916666Y-47404761D02*
X79059523Y-47452380D01*
X79297619Y-47452380D01*
X79392857Y-47404761D01*
X79440476Y-47357142D01*
X79488095Y-47261904D01*
X79488095Y-47166666D01*
X79440476Y-47071428D01*
X79392857Y-47023809D01*
X79297619Y-46976190D01*
X79107142Y-46928571D01*
X79011904Y-46880952D01*
X78964285Y-46833333D01*
X78916666Y-46738095D01*
X78916666Y-46642857D01*
X78964285Y-46547619D01*
X79011904Y-46500000D01*
X79107142Y-46452380D01*
X79345238Y-46452380D01*
X79488095Y-46500000D01*
X79821428Y-46452380D02*
X80059523Y-47452380D01*
X80250000Y-46738095D01*
X80440476Y-47452380D01*
X80678571Y-46452380D01*
X81583333Y-47452380D02*
X81011904Y-47452380D01*
X81297619Y-47452380D02*
X81297619Y-46452380D01*
X81202380Y-46595238D01*
X81107142Y-46690476D01*
X81011904Y-46738095D01*
G04 #@! TO.C,SW2*
X78916666Y-63404761D02*
X79059523Y-63452380D01*
X79297619Y-63452380D01*
X79392857Y-63404761D01*
X79440476Y-63357142D01*
X79488095Y-63261904D01*
X79488095Y-63166666D01*
X79440476Y-63071428D01*
X79392857Y-63023809D01*
X79297619Y-62976190D01*
X79107142Y-62928571D01*
X79011904Y-62880952D01*
X78964285Y-62833333D01*
X78916666Y-62738095D01*
X78916666Y-62642857D01*
X78964285Y-62547619D01*
X79011904Y-62500000D01*
X79107142Y-62452380D01*
X79345238Y-62452380D01*
X79488095Y-62500000D01*
X79821428Y-62452380D02*
X80059523Y-63452380D01*
X80250000Y-62738095D01*
X80440476Y-63452380D01*
X80678571Y-62452380D01*
X81011904Y-62547619D02*
X81059523Y-62500000D01*
X81154761Y-62452380D01*
X81392857Y-62452380D01*
X81488095Y-62500000D01*
X81535714Y-62547619D01*
X81583333Y-62642857D01*
X81583333Y-62738095D01*
X81535714Y-62880952D01*
X80964285Y-63452380D01*
X81583333Y-63452380D01*
G04 #@! TO.C,SW3*
X78916666Y-79404761D02*
X79059523Y-79452380D01*
X79297619Y-79452380D01*
X79392857Y-79404761D01*
X79440476Y-79357142D01*
X79488095Y-79261904D01*
X79488095Y-79166666D01*
X79440476Y-79071428D01*
X79392857Y-79023809D01*
X79297619Y-78976190D01*
X79107142Y-78928571D01*
X79011904Y-78880952D01*
X78964285Y-78833333D01*
X78916666Y-78738095D01*
X78916666Y-78642857D01*
X78964285Y-78547619D01*
X79011904Y-78500000D01*
X79107142Y-78452380D01*
X79345238Y-78452380D01*
X79488095Y-78500000D01*
X79821428Y-78452380D02*
X80059523Y-79452380D01*
X80250000Y-78738095D01*
X80440476Y-79452380D01*
X80678571Y-78452380D01*
X80964285Y-78452380D02*
X81583333Y-78452380D01*
X81250000Y-78833333D01*
X81392857Y-78833333D01*
X81488095Y-78880952D01*
X81535714Y-78928571D01*
X81583333Y-79023809D01*
X81583333Y-79261904D01*
X81535714Y-79357142D01*
X81488095Y-79404761D01*
X81392857Y-79452380D01*
X81107142Y-79452380D01*
X81011904Y-79404761D01*
X80964285Y-79357142D01*
G04 #@! TO.C,SW4*
X78916666Y-95404761D02*
X79059523Y-95452380D01*
X79297619Y-95452380D01*
X79392857Y-95404761D01*
X79440476Y-95357142D01*
X79488095Y-95261904D01*
X79488095Y-95166666D01*
X79440476Y-95071428D01*
X79392857Y-95023809D01*
X79297619Y-94976190D01*
X79107142Y-94928571D01*
X79011904Y-94880952D01*
X78964285Y-94833333D01*
X78916666Y-94738095D01*
X78916666Y-94642857D01*
X78964285Y-94547619D01*
X79011904Y-94500000D01*
X79107142Y-94452380D01*
X79345238Y-94452380D01*
X79488095Y-94500000D01*
X79821428Y-94452380D02*
X80059523Y-95452380D01*
X80250000Y-94738095D01*
X80440476Y-95452380D01*
X80678571Y-94452380D01*
X81488095Y-94785714D02*
X81488095Y-95452380D01*
X81250000Y-94404761D02*
X81011904Y-95119047D01*
X81630952Y-95119047D01*
G04 #@! TO.C,SW5*
X93916666Y-47404761D02*
X94059523Y-47452380D01*
X94297619Y-47452380D01*
X94392857Y-47404761D01*
X94440476Y-47357142D01*
X94488095Y-47261904D01*
X94488095Y-47166666D01*
X94440476Y-47071428D01*
X94392857Y-47023809D01*
X94297619Y-46976190D01*
X94107142Y-46928571D01*
X94011904Y-46880952D01*
X93964285Y-46833333D01*
X93916666Y-46738095D01*
X93916666Y-46642857D01*
X93964285Y-46547619D01*
X94011904Y-46500000D01*
X94107142Y-46452380D01*
X94345238Y-46452380D01*
X94488095Y-46500000D01*
X94821428Y-46452380D02*
X95059523Y-47452380D01*
X95250000Y-46738095D01*
X95440476Y-47452380D01*
X95678571Y-46452380D01*
X96535714Y-46452380D02*
X96059523Y-46452380D01*
X96011904Y-46928571D01*
X96059523Y-46880952D01*
X96154761Y-46833333D01*
X96392857Y-46833333D01*
X96488095Y-46880952D01*
X96535714Y-46928571D01*
X96583333Y-47023809D01*
X96583333Y-47261904D01*
X96535714Y-47357142D01*
X96488095Y-47404761D01*
X96392857Y-47452380D01*
X96154761Y-47452380D01*
X96059523Y-47404761D01*
X96011904Y-47357142D01*
G04 #@! TO.C,SW6*
X93916666Y-63404761D02*
X94059523Y-63452380D01*
X94297619Y-63452380D01*
X94392857Y-63404761D01*
X94440476Y-63357142D01*
X94488095Y-63261904D01*
X94488095Y-63166666D01*
X94440476Y-63071428D01*
X94392857Y-63023809D01*
X94297619Y-62976190D01*
X94107142Y-62928571D01*
X94011904Y-62880952D01*
X93964285Y-62833333D01*
X93916666Y-62738095D01*
X93916666Y-62642857D01*
X93964285Y-62547619D01*
X94011904Y-62500000D01*
X94107142Y-62452380D01*
X94345238Y-62452380D01*
X94488095Y-62500000D01*
X94821428Y-62452380D02*
X95059523Y-63452380D01*
X95250000Y-62738095D01*
X95440476Y-63452380D01*
X95678571Y-62452380D01*
X96488095Y-62452380D02*
X96297619Y-62452380D01*
X96202380Y-62500000D01*
X96154761Y-62547619D01*
X96059523Y-62690476D01*
X96011904Y-62880952D01*
X96011904Y-63261904D01*
X96059523Y-63357142D01*
X96107142Y-63404761D01*
X96202380Y-63452380D01*
X96392857Y-63452380D01*
X96488095Y-63404761D01*
X96535714Y-63357142D01*
X96583333Y-63261904D01*
X96583333Y-63023809D01*
X96535714Y-62928571D01*
X96488095Y-62880952D01*
X96392857Y-62833333D01*
X96202380Y-62833333D01*
X96107142Y-62880952D01*
X96059523Y-62928571D01*
X96011904Y-63023809D01*
G04 #@! TO.C,SW7*
X93916666Y-79404761D02*
X94059523Y-79452380D01*
X94297619Y-79452380D01*
X94392857Y-79404761D01*
X94440476Y-79357142D01*
X94488095Y-79261904D01*
X94488095Y-79166666D01*
X94440476Y-79071428D01*
X94392857Y-79023809D01*
X94297619Y-78976190D01*
X94107142Y-78928571D01*
X94011904Y-78880952D01*
X93964285Y-78833333D01*
X93916666Y-78738095D01*
X93916666Y-78642857D01*
X93964285Y-78547619D01*
X94011904Y-78500000D01*
X94107142Y-78452380D01*
X94345238Y-78452380D01*
X94488095Y-78500000D01*
X94821428Y-78452380D02*
X95059523Y-79452380D01*
X95250000Y-78738095D01*
X95440476Y-79452380D01*
X95678571Y-78452380D01*
X95964285Y-78452380D02*
X96630952Y-78452380D01*
X96202380Y-79452380D01*
G04 #@! TO.C,SW8*
X93916666Y-95404761D02*
X94059523Y-95452380D01*
X94297619Y-95452380D01*
X94392857Y-95404761D01*
X94440476Y-95357142D01*
X94488095Y-95261904D01*
X94488095Y-95166666D01*
X94440476Y-95071428D01*
X94392857Y-95023809D01*
X94297619Y-94976190D01*
X94107142Y-94928571D01*
X94011904Y-94880952D01*
X93964285Y-94833333D01*
X93916666Y-94738095D01*
X93916666Y-94642857D01*
X93964285Y-94547619D01*
X94011904Y-94500000D01*
X94107142Y-94452380D01*
X94345238Y-94452380D01*
X94488095Y-94500000D01*
X94821428Y-94452380D02*
X95059523Y-95452380D01*
X95250000Y-94738095D01*
X95440476Y-95452380D01*
X95678571Y-94452380D01*
X96202380Y-94880952D02*
X96107142Y-94833333D01*
X96059523Y-94785714D01*
X96011904Y-94690476D01*
X96011904Y-94642857D01*
X96059523Y-94547619D01*
X96107142Y-94500000D01*
X96202380Y-94452380D01*
X96392857Y-94452380D01*
X96488095Y-94500000D01*
X96535714Y-94547619D01*
X96583333Y-94642857D01*
X96583333Y-94690476D01*
X96535714Y-94785714D01*
X96488095Y-94833333D01*
X96392857Y-94880952D01*
X96202380Y-94880952D01*
X96107142Y-94928571D01*
X96059523Y-94976190D01*
X96011904Y-95071428D01*
X96011904Y-95261904D01*
X96059523Y-95357142D01*
X96107142Y-95404761D01*
X96202380Y-95452380D01*
X96392857Y-95452380D01*
X96488095Y-95404761D01*
X96535714Y-95357142D01*
X96583333Y-95261904D01*
X96583333Y-95071428D01*
X96535714Y-94976190D01*
X96488095Y-94928571D01*
X96392857Y-94880952D01*
G04 #@! TO.C,SW9*
X108916666Y-47404761D02*
X109059523Y-47452380D01*
X109297619Y-47452380D01*
X109392857Y-47404761D01*
X109440476Y-47357142D01*
X109488095Y-47261904D01*
X109488095Y-47166666D01*
X109440476Y-47071428D01*
X109392857Y-47023809D01*
X109297619Y-46976190D01*
X109107142Y-46928571D01*
X109011904Y-46880952D01*
X108964285Y-46833333D01*
X108916666Y-46738095D01*
X108916666Y-46642857D01*
X108964285Y-46547619D01*
X109011904Y-46500000D01*
X109107142Y-46452380D01*
X109345238Y-46452380D01*
X109488095Y-46500000D01*
X109821428Y-46452380D02*
X110059523Y-47452380D01*
X110250000Y-46738095D01*
X110440476Y-47452380D01*
X110678571Y-46452380D01*
X111107142Y-47452380D02*
X111297619Y-47452380D01*
X111392857Y-47404761D01*
X111440476Y-47357142D01*
X111535714Y-47214285D01*
X111583333Y-47023809D01*
X111583333Y-46642857D01*
X111535714Y-46547619D01*
X111488095Y-46500000D01*
X111392857Y-46452380D01*
X111202380Y-46452380D01*
X111107142Y-46500000D01*
X111059523Y-46547619D01*
X111011904Y-46642857D01*
X111011904Y-46880952D01*
X111059523Y-46976190D01*
X111107142Y-47023809D01*
X111202380Y-47071428D01*
X111392857Y-47071428D01*
X111488095Y-47023809D01*
X111535714Y-46976190D01*
X111583333Y-46880952D01*
G04 #@! TO.C,SW10*
X108440476Y-63404761D02*
X108583333Y-63452380D01*
X108821428Y-63452380D01*
X108916666Y-63404761D01*
X108964285Y-63357142D01*
X109011904Y-63261904D01*
X109011904Y-63166666D01*
X108964285Y-63071428D01*
X108916666Y-63023809D01*
X108821428Y-62976190D01*
X108630952Y-62928571D01*
X108535714Y-62880952D01*
X108488095Y-62833333D01*
X108440476Y-62738095D01*
X108440476Y-62642857D01*
X108488095Y-62547619D01*
X108535714Y-62500000D01*
X108630952Y-62452380D01*
X108869047Y-62452380D01*
X109011904Y-62500000D01*
X109345238Y-62452380D02*
X109583333Y-63452380D01*
X109773809Y-62738095D01*
X109964285Y-63452380D01*
X110202380Y-62452380D01*
X111107142Y-63452380D02*
X110535714Y-63452380D01*
X110821428Y-63452380D02*
X110821428Y-62452380D01*
X110726190Y-62595238D01*
X110630952Y-62690476D01*
X110535714Y-62738095D01*
X111726190Y-62452380D02*
X111821428Y-62452380D01*
X111916666Y-62500000D01*
X111964285Y-62547619D01*
X112011904Y-62642857D01*
X112059523Y-62833333D01*
X112059523Y-63071428D01*
X112011904Y-63261904D01*
X111964285Y-63357142D01*
X111916666Y-63404761D01*
X111821428Y-63452380D01*
X111726190Y-63452380D01*
X111630952Y-63404761D01*
X111583333Y-63357142D01*
X111535714Y-63261904D01*
X111488095Y-63071428D01*
X111488095Y-62833333D01*
X111535714Y-62642857D01*
X111583333Y-62547619D01*
X111630952Y-62500000D01*
X111726190Y-62452380D01*
G04 #@! TO.C,SW11*
X108440476Y-79404761D02*
X108583333Y-79452380D01*
X108821428Y-79452380D01*
X108916666Y-79404761D01*
X108964285Y-79357142D01*
X109011904Y-79261904D01*
X109011904Y-79166666D01*
X108964285Y-79071428D01*
X108916666Y-79023809D01*
X108821428Y-78976190D01*
X108630952Y-78928571D01*
X108535714Y-78880952D01*
X108488095Y-78833333D01*
X108440476Y-78738095D01*
X108440476Y-78642857D01*
X108488095Y-78547619D01*
X108535714Y-78500000D01*
X108630952Y-78452380D01*
X108869047Y-78452380D01*
X109011904Y-78500000D01*
X109345238Y-78452380D02*
X109583333Y-79452380D01*
X109773809Y-78738095D01*
X109964285Y-79452380D01*
X110202380Y-78452380D01*
X111107142Y-79452380D02*
X110535714Y-79452380D01*
X110821428Y-79452380D02*
X110821428Y-78452380D01*
X110726190Y-78595238D01*
X110630952Y-78690476D01*
X110535714Y-78738095D01*
X112059523Y-79452380D02*
X111488095Y-79452380D01*
X111773809Y-79452380D02*
X111773809Y-78452380D01*
X111678571Y-78595238D01*
X111583333Y-78690476D01*
X111488095Y-78738095D01*
G04 #@! TO.C,SW12*
X108440476Y-95404761D02*
X108583333Y-95452380D01*
X108821428Y-95452380D01*
X108916666Y-95404761D01*
X108964285Y-95357142D01*
X109011904Y-95261904D01*
X109011904Y-95166666D01*
X108964285Y-95071428D01*
X108916666Y-95023809D01*
X108821428Y-94976190D01*
X108630952Y-94928571D01*
X108535714Y-94880952D01*
X108488095Y-94833333D01*
X108440476Y-94738095D01*
X108440476Y-94642857D01*
X108488095Y-94547619D01*
X108535714Y-94500000D01*
X108630952Y-94452380D01*
X108869047Y-94452380D01*
X109011904Y-94500000D01*
X109345238Y-94452380D02*
X109583333Y-95452380D01*
X109773809Y-94738095D01*
X109964285Y-95452380D01*
X110202380Y-94452380D01*
X111107142Y-95452380D02*
X110535714Y-95452380D01*
X110821428Y-95452380D02*
X110821428Y-94452380D01*
X110726190Y-94595238D01*
X110630952Y-94690476D01*
X110535714Y-94738095D01*
X111488095Y-94547619D02*
X111535714Y-94500000D01*
X111630952Y-94452380D01*
X111869047Y-94452380D01*
X111964285Y-94500000D01*
X112011904Y-94547619D01*
X112059523Y-94642857D01*
X112059523Y-94738095D01*
X112011904Y-94880952D01*
X111440476Y-95452380D01*
X112059523Y-95452380D01*
G04 #@! TD*
M02*
