G04 #@! TF.GenerationSoftware,KiCad,Pcbnew,5.0.2+dfsg1-1*
G04 #@! TF.CreationDate,2021-10-12T12:34:50+05:30*
G04 #@! TF.ProjectId,KEYBORD_PCB_V1,4b455942-4f52-4445-9f50-43425f56312e,rev?*
G04 #@! TF.SameCoordinates,Original*
G04 #@! TF.FileFunction,Soldermask,Top*
G04 #@! TF.FilePolarity,Negative*
%FSLAX46Y46*%
G04 Gerber Fmt 4.6, Leading zero omitted, Abs format (unit mm)*
G04 Created by KiCad (PCBNEW 5.0.2+dfsg1-1) date Tue 12 Oct 2021 12:34:50 PM IST*
%MOMM*%
%LPD*%
G01*
G04 APERTURE LIST*
%ADD10C,0.100000*%
G04 APERTURE END LIST*
D10*
G36*
X113806565Y-100489389D02*
X113997834Y-100568615D01*
X114169976Y-100683637D01*
X114316363Y-100830024D01*
X114431385Y-101002166D01*
X114510611Y-101193435D01*
X114551000Y-101396484D01*
X114551000Y-101603516D01*
X114510611Y-101806565D01*
X114431385Y-101997834D01*
X114316363Y-102169976D01*
X114169976Y-102316363D01*
X113997834Y-102431385D01*
X113806565Y-102510611D01*
X113603516Y-102551000D01*
X113396484Y-102551000D01*
X113193435Y-102510611D01*
X113002166Y-102431385D01*
X112830024Y-102316363D01*
X112683637Y-102169976D01*
X112568615Y-101997834D01*
X112489389Y-101806565D01*
X112449000Y-101603516D01*
X112449000Y-101396484D01*
X112489389Y-101193435D01*
X112568615Y-101002166D01*
X112683637Y-100830024D01*
X112830024Y-100683637D01*
X113002166Y-100568615D01*
X113193435Y-100489389D01*
X113396484Y-100449000D01*
X113603516Y-100449000D01*
X113806565Y-100489389D01*
X113806565Y-100489389D01*
G37*
G36*
X107306565Y-100489389D02*
X107497834Y-100568615D01*
X107669976Y-100683637D01*
X107816363Y-100830024D01*
X107931385Y-101002166D01*
X108010611Y-101193435D01*
X108051000Y-101396484D01*
X108051000Y-101603516D01*
X108010611Y-101806565D01*
X107931385Y-101997834D01*
X107816363Y-102169976D01*
X107669976Y-102316363D01*
X107497834Y-102431385D01*
X107306565Y-102510611D01*
X107103516Y-102551000D01*
X106896484Y-102551000D01*
X106693435Y-102510611D01*
X106502166Y-102431385D01*
X106330024Y-102316363D01*
X106183637Y-102169976D01*
X106068615Y-101997834D01*
X105989389Y-101806565D01*
X105949000Y-101603516D01*
X105949000Y-101396484D01*
X105989389Y-101193435D01*
X106068615Y-101002166D01*
X106183637Y-100830024D01*
X106330024Y-100683637D01*
X106502166Y-100568615D01*
X106693435Y-100489389D01*
X106896484Y-100449000D01*
X107103516Y-100449000D01*
X107306565Y-100489389D01*
X107306565Y-100489389D01*
G37*
G36*
X77306565Y-100489389D02*
X77497834Y-100568615D01*
X77669976Y-100683637D01*
X77816363Y-100830024D01*
X77931385Y-101002166D01*
X78010611Y-101193435D01*
X78051000Y-101396484D01*
X78051000Y-101603516D01*
X78010611Y-101806565D01*
X77931385Y-101997834D01*
X77816363Y-102169976D01*
X77669976Y-102316363D01*
X77497834Y-102431385D01*
X77306565Y-102510611D01*
X77103516Y-102551000D01*
X76896484Y-102551000D01*
X76693435Y-102510611D01*
X76502166Y-102431385D01*
X76330024Y-102316363D01*
X76183637Y-102169976D01*
X76068615Y-101997834D01*
X75989389Y-101806565D01*
X75949000Y-101603516D01*
X75949000Y-101396484D01*
X75989389Y-101193435D01*
X76068615Y-101002166D01*
X76183637Y-100830024D01*
X76330024Y-100683637D01*
X76502166Y-100568615D01*
X76693435Y-100489389D01*
X76896484Y-100449000D01*
X77103516Y-100449000D01*
X77306565Y-100489389D01*
X77306565Y-100489389D01*
G37*
G36*
X83806565Y-100489389D02*
X83997834Y-100568615D01*
X84169976Y-100683637D01*
X84316363Y-100830024D01*
X84431385Y-101002166D01*
X84510611Y-101193435D01*
X84551000Y-101396484D01*
X84551000Y-101603516D01*
X84510611Y-101806565D01*
X84431385Y-101997834D01*
X84316363Y-102169976D01*
X84169976Y-102316363D01*
X83997834Y-102431385D01*
X83806565Y-102510611D01*
X83603516Y-102551000D01*
X83396484Y-102551000D01*
X83193435Y-102510611D01*
X83002166Y-102431385D01*
X82830024Y-102316363D01*
X82683637Y-102169976D01*
X82568615Y-101997834D01*
X82489389Y-101806565D01*
X82449000Y-101603516D01*
X82449000Y-101396484D01*
X82489389Y-101193435D01*
X82568615Y-101002166D01*
X82683637Y-100830024D01*
X82830024Y-100683637D01*
X83002166Y-100568615D01*
X83193435Y-100489389D01*
X83396484Y-100449000D01*
X83603516Y-100449000D01*
X83806565Y-100489389D01*
X83806565Y-100489389D01*
G37*
G36*
X92306565Y-100489389D02*
X92497834Y-100568615D01*
X92669976Y-100683637D01*
X92816363Y-100830024D01*
X92931385Y-101002166D01*
X93010611Y-101193435D01*
X93051000Y-101396484D01*
X93051000Y-101603516D01*
X93010611Y-101806565D01*
X92931385Y-101997834D01*
X92816363Y-102169976D01*
X92669976Y-102316363D01*
X92497834Y-102431385D01*
X92306565Y-102510611D01*
X92103516Y-102551000D01*
X91896484Y-102551000D01*
X91693435Y-102510611D01*
X91502166Y-102431385D01*
X91330024Y-102316363D01*
X91183637Y-102169976D01*
X91068615Y-101997834D01*
X90989389Y-101806565D01*
X90949000Y-101603516D01*
X90949000Y-101396484D01*
X90989389Y-101193435D01*
X91068615Y-101002166D01*
X91183637Y-100830024D01*
X91330024Y-100683637D01*
X91502166Y-100568615D01*
X91693435Y-100489389D01*
X91896484Y-100449000D01*
X92103516Y-100449000D01*
X92306565Y-100489389D01*
X92306565Y-100489389D01*
G37*
G36*
X98806565Y-100489389D02*
X98997834Y-100568615D01*
X99169976Y-100683637D01*
X99316363Y-100830024D01*
X99431385Y-101002166D01*
X99510611Y-101193435D01*
X99551000Y-101396484D01*
X99551000Y-101603516D01*
X99510611Y-101806565D01*
X99431385Y-101997834D01*
X99316363Y-102169976D01*
X99169976Y-102316363D01*
X98997834Y-102431385D01*
X98806565Y-102510611D01*
X98603516Y-102551000D01*
X98396484Y-102551000D01*
X98193435Y-102510611D01*
X98002166Y-102431385D01*
X97830024Y-102316363D01*
X97683637Y-102169976D01*
X97568615Y-101997834D01*
X97489389Y-101806565D01*
X97449000Y-101603516D01*
X97449000Y-101396484D01*
X97489389Y-101193435D01*
X97568615Y-101002166D01*
X97683637Y-100830024D01*
X97830024Y-100683637D01*
X98002166Y-100568615D01*
X98193435Y-100489389D01*
X98396484Y-100449000D01*
X98603516Y-100449000D01*
X98806565Y-100489389D01*
X98806565Y-100489389D01*
G37*
G36*
X98806565Y-95989389D02*
X98997834Y-96068615D01*
X99169976Y-96183637D01*
X99316363Y-96330024D01*
X99431385Y-96502166D01*
X99510611Y-96693435D01*
X99551000Y-96896484D01*
X99551000Y-97103516D01*
X99510611Y-97306565D01*
X99431385Y-97497834D01*
X99316363Y-97669976D01*
X99169976Y-97816363D01*
X98997834Y-97931385D01*
X98806565Y-98010611D01*
X98603516Y-98051000D01*
X98396484Y-98051000D01*
X98193435Y-98010611D01*
X98002166Y-97931385D01*
X97830024Y-97816363D01*
X97683637Y-97669976D01*
X97568615Y-97497834D01*
X97489389Y-97306565D01*
X97449000Y-97103516D01*
X97449000Y-96896484D01*
X97489389Y-96693435D01*
X97568615Y-96502166D01*
X97683637Y-96330024D01*
X97830024Y-96183637D01*
X98002166Y-96068615D01*
X98193435Y-95989389D01*
X98396484Y-95949000D01*
X98603516Y-95949000D01*
X98806565Y-95989389D01*
X98806565Y-95989389D01*
G37*
G36*
X107306565Y-95989389D02*
X107497834Y-96068615D01*
X107669976Y-96183637D01*
X107816363Y-96330024D01*
X107931385Y-96502166D01*
X108010611Y-96693435D01*
X108051000Y-96896484D01*
X108051000Y-97103516D01*
X108010611Y-97306565D01*
X107931385Y-97497834D01*
X107816363Y-97669976D01*
X107669976Y-97816363D01*
X107497834Y-97931385D01*
X107306565Y-98010611D01*
X107103516Y-98051000D01*
X106896484Y-98051000D01*
X106693435Y-98010611D01*
X106502166Y-97931385D01*
X106330024Y-97816363D01*
X106183637Y-97669976D01*
X106068615Y-97497834D01*
X105989389Y-97306565D01*
X105949000Y-97103516D01*
X105949000Y-96896484D01*
X105989389Y-96693435D01*
X106068615Y-96502166D01*
X106183637Y-96330024D01*
X106330024Y-96183637D01*
X106502166Y-96068615D01*
X106693435Y-95989389D01*
X106896484Y-95949000D01*
X107103516Y-95949000D01*
X107306565Y-95989389D01*
X107306565Y-95989389D01*
G37*
G36*
X113806565Y-95989389D02*
X113997834Y-96068615D01*
X114169976Y-96183637D01*
X114316363Y-96330024D01*
X114431385Y-96502166D01*
X114510611Y-96693435D01*
X114551000Y-96896484D01*
X114551000Y-97103516D01*
X114510611Y-97306565D01*
X114431385Y-97497834D01*
X114316363Y-97669976D01*
X114169976Y-97816363D01*
X113997834Y-97931385D01*
X113806565Y-98010611D01*
X113603516Y-98051000D01*
X113396484Y-98051000D01*
X113193435Y-98010611D01*
X113002166Y-97931385D01*
X112830024Y-97816363D01*
X112683637Y-97669976D01*
X112568615Y-97497834D01*
X112489389Y-97306565D01*
X112449000Y-97103516D01*
X112449000Y-96896484D01*
X112489389Y-96693435D01*
X112568615Y-96502166D01*
X112683637Y-96330024D01*
X112830024Y-96183637D01*
X113002166Y-96068615D01*
X113193435Y-95989389D01*
X113396484Y-95949000D01*
X113603516Y-95949000D01*
X113806565Y-95989389D01*
X113806565Y-95989389D01*
G37*
G36*
X92306565Y-95989389D02*
X92497834Y-96068615D01*
X92669976Y-96183637D01*
X92816363Y-96330024D01*
X92931385Y-96502166D01*
X93010611Y-96693435D01*
X93051000Y-96896484D01*
X93051000Y-97103516D01*
X93010611Y-97306565D01*
X92931385Y-97497834D01*
X92816363Y-97669976D01*
X92669976Y-97816363D01*
X92497834Y-97931385D01*
X92306565Y-98010611D01*
X92103516Y-98051000D01*
X91896484Y-98051000D01*
X91693435Y-98010611D01*
X91502166Y-97931385D01*
X91330024Y-97816363D01*
X91183637Y-97669976D01*
X91068615Y-97497834D01*
X90989389Y-97306565D01*
X90949000Y-97103516D01*
X90949000Y-96896484D01*
X90989389Y-96693435D01*
X91068615Y-96502166D01*
X91183637Y-96330024D01*
X91330024Y-96183637D01*
X91502166Y-96068615D01*
X91693435Y-95989389D01*
X91896484Y-95949000D01*
X92103516Y-95949000D01*
X92306565Y-95989389D01*
X92306565Y-95989389D01*
G37*
G36*
X83806565Y-95989389D02*
X83997834Y-96068615D01*
X84169976Y-96183637D01*
X84316363Y-96330024D01*
X84431385Y-96502166D01*
X84510611Y-96693435D01*
X84551000Y-96896484D01*
X84551000Y-97103516D01*
X84510611Y-97306565D01*
X84431385Y-97497834D01*
X84316363Y-97669976D01*
X84169976Y-97816363D01*
X83997834Y-97931385D01*
X83806565Y-98010611D01*
X83603516Y-98051000D01*
X83396484Y-98051000D01*
X83193435Y-98010611D01*
X83002166Y-97931385D01*
X82830024Y-97816363D01*
X82683637Y-97669976D01*
X82568615Y-97497834D01*
X82489389Y-97306565D01*
X82449000Y-97103516D01*
X82449000Y-96896484D01*
X82489389Y-96693435D01*
X82568615Y-96502166D01*
X82683637Y-96330024D01*
X82830024Y-96183637D01*
X83002166Y-96068615D01*
X83193435Y-95989389D01*
X83396484Y-95949000D01*
X83603516Y-95949000D01*
X83806565Y-95989389D01*
X83806565Y-95989389D01*
G37*
G36*
X77306565Y-95989389D02*
X77497834Y-96068615D01*
X77669976Y-96183637D01*
X77816363Y-96330024D01*
X77931385Y-96502166D01*
X78010611Y-96693435D01*
X78051000Y-96896484D01*
X78051000Y-97103516D01*
X78010611Y-97306565D01*
X77931385Y-97497834D01*
X77816363Y-97669976D01*
X77669976Y-97816363D01*
X77497834Y-97931385D01*
X77306565Y-98010611D01*
X77103516Y-98051000D01*
X76896484Y-98051000D01*
X76693435Y-98010611D01*
X76502166Y-97931385D01*
X76330024Y-97816363D01*
X76183637Y-97669976D01*
X76068615Y-97497834D01*
X75989389Y-97306565D01*
X75949000Y-97103516D01*
X75949000Y-96896484D01*
X75989389Y-96693435D01*
X76068615Y-96502166D01*
X76183637Y-96330024D01*
X76330024Y-96183637D01*
X76502166Y-96068615D01*
X76693435Y-95989389D01*
X76896484Y-95949000D01*
X77103516Y-95949000D01*
X77306565Y-95989389D01*
X77306565Y-95989389D01*
G37*
G36*
X83765256Y-89391298D02*
X83871579Y-89412447D01*
X84172042Y-89536903D01*
X84438852Y-89715180D01*
X84442454Y-89717587D01*
X84672413Y-89947546D01*
X84853098Y-90217960D01*
X84977553Y-90518422D01*
X85041000Y-90837389D01*
X85041000Y-91162611D01*
X84977553Y-91481578D01*
X84853098Y-91782040D01*
X84672413Y-92052454D01*
X84442454Y-92282413D01*
X84442451Y-92282415D01*
X84172042Y-92463097D01*
X83871579Y-92587553D01*
X83765256Y-92608702D01*
X83552611Y-92651000D01*
X83227389Y-92651000D01*
X83014744Y-92608702D01*
X82908421Y-92587553D01*
X82607958Y-92463097D01*
X82337549Y-92282415D01*
X82337546Y-92282413D01*
X82107587Y-92052454D01*
X81926902Y-91782040D01*
X81802447Y-91481578D01*
X81739000Y-91162611D01*
X81739000Y-90837389D01*
X81802447Y-90518422D01*
X81926902Y-90217960D01*
X82107587Y-89947546D01*
X82337546Y-89717587D01*
X82341148Y-89715180D01*
X82607958Y-89536903D01*
X82908421Y-89412447D01*
X83014744Y-89391298D01*
X83227389Y-89349000D01*
X83552611Y-89349000D01*
X83765256Y-89391298D01*
X83765256Y-89391298D01*
G37*
G36*
X108755256Y-89391298D02*
X108861579Y-89412447D01*
X109162042Y-89536903D01*
X109428852Y-89715180D01*
X109432454Y-89717587D01*
X109662413Y-89947546D01*
X109843098Y-90217960D01*
X109967553Y-90518422D01*
X110031000Y-90837389D01*
X110031000Y-91162611D01*
X109967553Y-91481578D01*
X109843098Y-91782040D01*
X109662413Y-92052454D01*
X109432454Y-92282413D01*
X109432451Y-92282415D01*
X109162042Y-92463097D01*
X108861579Y-92587553D01*
X108755256Y-92608702D01*
X108542611Y-92651000D01*
X108217389Y-92651000D01*
X108004744Y-92608702D01*
X107898421Y-92587553D01*
X107597958Y-92463097D01*
X107327549Y-92282415D01*
X107327546Y-92282413D01*
X107097587Y-92052454D01*
X106916902Y-91782040D01*
X106792447Y-91481578D01*
X106729000Y-91162611D01*
X106729000Y-90837389D01*
X106792447Y-90518422D01*
X106916902Y-90217960D01*
X107097587Y-89947546D01*
X107327546Y-89717587D01*
X107331148Y-89715180D01*
X107597958Y-89536903D01*
X107898421Y-89412447D01*
X108004744Y-89391298D01*
X108217389Y-89349000D01*
X108542611Y-89349000D01*
X108755256Y-89391298D01*
X108755256Y-89391298D01*
G37*
G36*
X98806565Y-84489389D02*
X98997834Y-84568615D01*
X99169976Y-84683637D01*
X99316363Y-84830024D01*
X99431385Y-85002166D01*
X99510611Y-85193435D01*
X99551000Y-85396484D01*
X99551000Y-85603516D01*
X99510611Y-85806565D01*
X99431385Y-85997834D01*
X99316363Y-86169976D01*
X99169976Y-86316363D01*
X98997834Y-86431385D01*
X98806565Y-86510611D01*
X98603516Y-86551000D01*
X98396484Y-86551000D01*
X98193435Y-86510611D01*
X98002166Y-86431385D01*
X97830024Y-86316363D01*
X97683637Y-86169976D01*
X97568615Y-85997834D01*
X97489389Y-85806565D01*
X97449000Y-85603516D01*
X97449000Y-85396484D01*
X97489389Y-85193435D01*
X97568615Y-85002166D01*
X97683637Y-84830024D01*
X97830024Y-84683637D01*
X98002166Y-84568615D01*
X98193435Y-84489389D01*
X98396484Y-84449000D01*
X98603516Y-84449000D01*
X98806565Y-84489389D01*
X98806565Y-84489389D01*
G37*
G36*
X77306565Y-84489389D02*
X77497834Y-84568615D01*
X77669976Y-84683637D01*
X77816363Y-84830024D01*
X77931385Y-85002166D01*
X78010611Y-85193435D01*
X78051000Y-85396484D01*
X78051000Y-85603516D01*
X78010611Y-85806565D01*
X77931385Y-85997834D01*
X77816363Y-86169976D01*
X77669976Y-86316363D01*
X77497834Y-86431385D01*
X77306565Y-86510611D01*
X77103516Y-86551000D01*
X76896484Y-86551000D01*
X76693435Y-86510611D01*
X76502166Y-86431385D01*
X76330024Y-86316363D01*
X76183637Y-86169976D01*
X76068615Y-85997834D01*
X75989389Y-85806565D01*
X75949000Y-85603516D01*
X75949000Y-85396484D01*
X75989389Y-85193435D01*
X76068615Y-85002166D01*
X76183637Y-84830024D01*
X76330024Y-84683637D01*
X76502166Y-84568615D01*
X76693435Y-84489389D01*
X76896484Y-84449000D01*
X77103516Y-84449000D01*
X77306565Y-84489389D01*
X77306565Y-84489389D01*
G37*
G36*
X83806565Y-84489389D02*
X83997834Y-84568615D01*
X84169976Y-84683637D01*
X84316363Y-84830024D01*
X84431385Y-85002166D01*
X84510611Y-85193435D01*
X84551000Y-85396484D01*
X84551000Y-85603516D01*
X84510611Y-85806565D01*
X84431385Y-85997834D01*
X84316363Y-86169976D01*
X84169976Y-86316363D01*
X83997834Y-86431385D01*
X83806565Y-86510611D01*
X83603516Y-86551000D01*
X83396484Y-86551000D01*
X83193435Y-86510611D01*
X83002166Y-86431385D01*
X82830024Y-86316363D01*
X82683637Y-86169976D01*
X82568615Y-85997834D01*
X82489389Y-85806565D01*
X82449000Y-85603516D01*
X82449000Y-85396484D01*
X82489389Y-85193435D01*
X82568615Y-85002166D01*
X82683637Y-84830024D01*
X82830024Y-84683637D01*
X83002166Y-84568615D01*
X83193435Y-84489389D01*
X83396484Y-84449000D01*
X83603516Y-84449000D01*
X83806565Y-84489389D01*
X83806565Y-84489389D01*
G37*
G36*
X92306565Y-84489389D02*
X92497834Y-84568615D01*
X92669976Y-84683637D01*
X92816363Y-84830024D01*
X92931385Y-85002166D01*
X93010611Y-85193435D01*
X93051000Y-85396484D01*
X93051000Y-85603516D01*
X93010611Y-85806565D01*
X92931385Y-85997834D01*
X92816363Y-86169976D01*
X92669976Y-86316363D01*
X92497834Y-86431385D01*
X92306565Y-86510611D01*
X92103516Y-86551000D01*
X91896484Y-86551000D01*
X91693435Y-86510611D01*
X91502166Y-86431385D01*
X91330024Y-86316363D01*
X91183637Y-86169976D01*
X91068615Y-85997834D01*
X90989389Y-85806565D01*
X90949000Y-85603516D01*
X90949000Y-85396484D01*
X90989389Y-85193435D01*
X91068615Y-85002166D01*
X91183637Y-84830024D01*
X91330024Y-84683637D01*
X91502166Y-84568615D01*
X91693435Y-84489389D01*
X91896484Y-84449000D01*
X92103516Y-84449000D01*
X92306565Y-84489389D01*
X92306565Y-84489389D01*
G37*
G36*
X113806565Y-84489389D02*
X113997834Y-84568615D01*
X114169976Y-84683637D01*
X114316363Y-84830024D01*
X114431385Y-85002166D01*
X114510611Y-85193435D01*
X114551000Y-85396484D01*
X114551000Y-85603516D01*
X114510611Y-85806565D01*
X114431385Y-85997834D01*
X114316363Y-86169976D01*
X114169976Y-86316363D01*
X113997834Y-86431385D01*
X113806565Y-86510611D01*
X113603516Y-86551000D01*
X113396484Y-86551000D01*
X113193435Y-86510611D01*
X113002166Y-86431385D01*
X112830024Y-86316363D01*
X112683637Y-86169976D01*
X112568615Y-85997834D01*
X112489389Y-85806565D01*
X112449000Y-85603516D01*
X112449000Y-85396484D01*
X112489389Y-85193435D01*
X112568615Y-85002166D01*
X112683637Y-84830024D01*
X112830024Y-84683637D01*
X113002166Y-84568615D01*
X113193435Y-84489389D01*
X113396484Y-84449000D01*
X113603516Y-84449000D01*
X113806565Y-84489389D01*
X113806565Y-84489389D01*
G37*
G36*
X107306565Y-84489389D02*
X107497834Y-84568615D01*
X107669976Y-84683637D01*
X107816363Y-84830024D01*
X107931385Y-85002166D01*
X108010611Y-85193435D01*
X108051000Y-85396484D01*
X108051000Y-85603516D01*
X108010611Y-85806565D01*
X107931385Y-85997834D01*
X107816363Y-86169976D01*
X107669976Y-86316363D01*
X107497834Y-86431385D01*
X107306565Y-86510611D01*
X107103516Y-86551000D01*
X106896484Y-86551000D01*
X106693435Y-86510611D01*
X106502166Y-86431385D01*
X106330024Y-86316363D01*
X106183637Y-86169976D01*
X106068615Y-85997834D01*
X105989389Y-85806565D01*
X105949000Y-85603516D01*
X105949000Y-85396484D01*
X105989389Y-85193435D01*
X106068615Y-85002166D01*
X106183637Y-84830024D01*
X106330024Y-84683637D01*
X106502166Y-84568615D01*
X106693435Y-84489389D01*
X106896484Y-84449000D01*
X107103516Y-84449000D01*
X107306565Y-84489389D01*
X107306565Y-84489389D01*
G37*
G36*
X107306565Y-79989389D02*
X107497834Y-80068615D01*
X107669976Y-80183637D01*
X107816363Y-80330024D01*
X107931385Y-80502166D01*
X108010611Y-80693435D01*
X108051000Y-80896484D01*
X108051000Y-81103516D01*
X108010611Y-81306565D01*
X107931385Y-81497834D01*
X107816363Y-81669976D01*
X107669976Y-81816363D01*
X107497834Y-81931385D01*
X107306565Y-82010611D01*
X107103516Y-82051000D01*
X106896484Y-82051000D01*
X106693435Y-82010611D01*
X106502166Y-81931385D01*
X106330024Y-81816363D01*
X106183637Y-81669976D01*
X106068615Y-81497834D01*
X105989389Y-81306565D01*
X105949000Y-81103516D01*
X105949000Y-80896484D01*
X105989389Y-80693435D01*
X106068615Y-80502166D01*
X106183637Y-80330024D01*
X106330024Y-80183637D01*
X106502166Y-80068615D01*
X106693435Y-79989389D01*
X106896484Y-79949000D01*
X107103516Y-79949000D01*
X107306565Y-79989389D01*
X107306565Y-79989389D01*
G37*
G36*
X113806565Y-79989389D02*
X113997834Y-80068615D01*
X114169976Y-80183637D01*
X114316363Y-80330024D01*
X114431385Y-80502166D01*
X114510611Y-80693435D01*
X114551000Y-80896484D01*
X114551000Y-81103516D01*
X114510611Y-81306565D01*
X114431385Y-81497834D01*
X114316363Y-81669976D01*
X114169976Y-81816363D01*
X113997834Y-81931385D01*
X113806565Y-82010611D01*
X113603516Y-82051000D01*
X113396484Y-82051000D01*
X113193435Y-82010611D01*
X113002166Y-81931385D01*
X112830024Y-81816363D01*
X112683637Y-81669976D01*
X112568615Y-81497834D01*
X112489389Y-81306565D01*
X112449000Y-81103516D01*
X112449000Y-80896484D01*
X112489389Y-80693435D01*
X112568615Y-80502166D01*
X112683637Y-80330024D01*
X112830024Y-80183637D01*
X113002166Y-80068615D01*
X113193435Y-79989389D01*
X113396484Y-79949000D01*
X113603516Y-79949000D01*
X113806565Y-79989389D01*
X113806565Y-79989389D01*
G37*
G36*
X83806565Y-79989389D02*
X83997834Y-80068615D01*
X84169976Y-80183637D01*
X84316363Y-80330024D01*
X84431385Y-80502166D01*
X84510611Y-80693435D01*
X84551000Y-80896484D01*
X84551000Y-81103516D01*
X84510611Y-81306565D01*
X84431385Y-81497834D01*
X84316363Y-81669976D01*
X84169976Y-81816363D01*
X83997834Y-81931385D01*
X83806565Y-82010611D01*
X83603516Y-82051000D01*
X83396484Y-82051000D01*
X83193435Y-82010611D01*
X83002166Y-81931385D01*
X82830024Y-81816363D01*
X82683637Y-81669976D01*
X82568615Y-81497834D01*
X82489389Y-81306565D01*
X82449000Y-81103516D01*
X82449000Y-80896484D01*
X82489389Y-80693435D01*
X82568615Y-80502166D01*
X82683637Y-80330024D01*
X82830024Y-80183637D01*
X83002166Y-80068615D01*
X83193435Y-79989389D01*
X83396484Y-79949000D01*
X83603516Y-79949000D01*
X83806565Y-79989389D01*
X83806565Y-79989389D01*
G37*
G36*
X77306565Y-79989389D02*
X77497834Y-80068615D01*
X77669976Y-80183637D01*
X77816363Y-80330024D01*
X77931385Y-80502166D01*
X78010611Y-80693435D01*
X78051000Y-80896484D01*
X78051000Y-81103516D01*
X78010611Y-81306565D01*
X77931385Y-81497834D01*
X77816363Y-81669976D01*
X77669976Y-81816363D01*
X77497834Y-81931385D01*
X77306565Y-82010611D01*
X77103516Y-82051000D01*
X76896484Y-82051000D01*
X76693435Y-82010611D01*
X76502166Y-81931385D01*
X76330024Y-81816363D01*
X76183637Y-81669976D01*
X76068615Y-81497834D01*
X75989389Y-81306565D01*
X75949000Y-81103516D01*
X75949000Y-80896484D01*
X75989389Y-80693435D01*
X76068615Y-80502166D01*
X76183637Y-80330024D01*
X76330024Y-80183637D01*
X76502166Y-80068615D01*
X76693435Y-79989389D01*
X76896484Y-79949000D01*
X77103516Y-79949000D01*
X77306565Y-79989389D01*
X77306565Y-79989389D01*
G37*
G36*
X92306565Y-79989389D02*
X92497834Y-80068615D01*
X92669976Y-80183637D01*
X92816363Y-80330024D01*
X92931385Y-80502166D01*
X93010611Y-80693435D01*
X93051000Y-80896484D01*
X93051000Y-81103516D01*
X93010611Y-81306565D01*
X92931385Y-81497834D01*
X92816363Y-81669976D01*
X92669976Y-81816363D01*
X92497834Y-81931385D01*
X92306565Y-82010611D01*
X92103516Y-82051000D01*
X91896484Y-82051000D01*
X91693435Y-82010611D01*
X91502166Y-81931385D01*
X91330024Y-81816363D01*
X91183637Y-81669976D01*
X91068615Y-81497834D01*
X90989389Y-81306565D01*
X90949000Y-81103516D01*
X90949000Y-80896484D01*
X90989389Y-80693435D01*
X91068615Y-80502166D01*
X91183637Y-80330024D01*
X91330024Y-80183637D01*
X91502166Y-80068615D01*
X91693435Y-79989389D01*
X91896484Y-79949000D01*
X92103516Y-79949000D01*
X92306565Y-79989389D01*
X92306565Y-79989389D01*
G37*
G36*
X98806565Y-79989389D02*
X98997834Y-80068615D01*
X99169976Y-80183637D01*
X99316363Y-80330024D01*
X99431385Y-80502166D01*
X99510611Y-80693435D01*
X99551000Y-80896484D01*
X99551000Y-81103516D01*
X99510611Y-81306565D01*
X99431385Y-81497834D01*
X99316363Y-81669976D01*
X99169976Y-81816363D01*
X98997834Y-81931385D01*
X98806565Y-82010611D01*
X98603516Y-82051000D01*
X98396484Y-82051000D01*
X98193435Y-82010611D01*
X98002166Y-81931385D01*
X97830024Y-81816363D01*
X97683637Y-81669976D01*
X97568615Y-81497834D01*
X97489389Y-81306565D01*
X97449000Y-81103516D01*
X97449000Y-80896484D01*
X97489389Y-80693435D01*
X97568615Y-80502166D01*
X97683637Y-80330024D01*
X97830024Y-80183637D01*
X98002166Y-80068615D01*
X98193435Y-79989389D01*
X98396484Y-79949000D01*
X98603516Y-79949000D01*
X98806565Y-79989389D01*
X98806565Y-79989389D01*
G37*
G36*
X113806565Y-68489389D02*
X113997834Y-68568615D01*
X114169976Y-68683637D01*
X114316363Y-68830024D01*
X114431385Y-69002166D01*
X114510611Y-69193435D01*
X114551000Y-69396484D01*
X114551000Y-69603516D01*
X114510611Y-69806565D01*
X114431385Y-69997834D01*
X114316363Y-70169976D01*
X114169976Y-70316363D01*
X113997834Y-70431385D01*
X113806565Y-70510611D01*
X113603516Y-70551000D01*
X113396484Y-70551000D01*
X113193435Y-70510611D01*
X113002166Y-70431385D01*
X112830024Y-70316363D01*
X112683637Y-70169976D01*
X112568615Y-69997834D01*
X112489389Y-69806565D01*
X112449000Y-69603516D01*
X112449000Y-69396484D01*
X112489389Y-69193435D01*
X112568615Y-69002166D01*
X112683637Y-68830024D01*
X112830024Y-68683637D01*
X113002166Y-68568615D01*
X113193435Y-68489389D01*
X113396484Y-68449000D01*
X113603516Y-68449000D01*
X113806565Y-68489389D01*
X113806565Y-68489389D01*
G37*
G36*
X107306565Y-68489389D02*
X107497834Y-68568615D01*
X107669976Y-68683637D01*
X107816363Y-68830024D01*
X107931385Y-69002166D01*
X108010611Y-69193435D01*
X108051000Y-69396484D01*
X108051000Y-69603516D01*
X108010611Y-69806565D01*
X107931385Y-69997834D01*
X107816363Y-70169976D01*
X107669976Y-70316363D01*
X107497834Y-70431385D01*
X107306565Y-70510611D01*
X107103516Y-70551000D01*
X106896484Y-70551000D01*
X106693435Y-70510611D01*
X106502166Y-70431385D01*
X106330024Y-70316363D01*
X106183637Y-70169976D01*
X106068615Y-69997834D01*
X105989389Y-69806565D01*
X105949000Y-69603516D01*
X105949000Y-69396484D01*
X105989389Y-69193435D01*
X106068615Y-69002166D01*
X106183637Y-68830024D01*
X106330024Y-68683637D01*
X106502166Y-68568615D01*
X106693435Y-68489389D01*
X106896484Y-68449000D01*
X107103516Y-68449000D01*
X107306565Y-68489389D01*
X107306565Y-68489389D01*
G37*
G36*
X92306565Y-68489389D02*
X92497834Y-68568615D01*
X92669976Y-68683637D01*
X92816363Y-68830024D01*
X92931385Y-69002166D01*
X93010611Y-69193435D01*
X93051000Y-69396484D01*
X93051000Y-69603516D01*
X93010611Y-69806565D01*
X92931385Y-69997834D01*
X92816363Y-70169976D01*
X92669976Y-70316363D01*
X92497834Y-70431385D01*
X92306565Y-70510611D01*
X92103516Y-70551000D01*
X91896484Y-70551000D01*
X91693435Y-70510611D01*
X91502166Y-70431385D01*
X91330024Y-70316363D01*
X91183637Y-70169976D01*
X91068615Y-69997834D01*
X90989389Y-69806565D01*
X90949000Y-69603516D01*
X90949000Y-69396484D01*
X90989389Y-69193435D01*
X91068615Y-69002166D01*
X91183637Y-68830024D01*
X91330024Y-68683637D01*
X91502166Y-68568615D01*
X91693435Y-68489389D01*
X91896484Y-68449000D01*
X92103516Y-68449000D01*
X92306565Y-68489389D01*
X92306565Y-68489389D01*
G37*
G36*
X98806565Y-68489389D02*
X98997834Y-68568615D01*
X99169976Y-68683637D01*
X99316363Y-68830024D01*
X99431385Y-69002166D01*
X99510611Y-69193435D01*
X99551000Y-69396484D01*
X99551000Y-69603516D01*
X99510611Y-69806565D01*
X99431385Y-69997834D01*
X99316363Y-70169976D01*
X99169976Y-70316363D01*
X98997834Y-70431385D01*
X98806565Y-70510611D01*
X98603516Y-70551000D01*
X98396484Y-70551000D01*
X98193435Y-70510611D01*
X98002166Y-70431385D01*
X97830024Y-70316363D01*
X97683637Y-70169976D01*
X97568615Y-69997834D01*
X97489389Y-69806565D01*
X97449000Y-69603516D01*
X97449000Y-69396484D01*
X97489389Y-69193435D01*
X97568615Y-69002166D01*
X97683637Y-68830024D01*
X97830024Y-68683637D01*
X98002166Y-68568615D01*
X98193435Y-68489389D01*
X98396484Y-68449000D01*
X98603516Y-68449000D01*
X98806565Y-68489389D01*
X98806565Y-68489389D01*
G37*
G36*
X77306565Y-68489389D02*
X77497834Y-68568615D01*
X77669976Y-68683637D01*
X77816363Y-68830024D01*
X77931385Y-69002166D01*
X78010611Y-69193435D01*
X78051000Y-69396484D01*
X78051000Y-69603516D01*
X78010611Y-69806565D01*
X77931385Y-69997834D01*
X77816363Y-70169976D01*
X77669976Y-70316363D01*
X77497834Y-70431385D01*
X77306565Y-70510611D01*
X77103516Y-70551000D01*
X76896484Y-70551000D01*
X76693435Y-70510611D01*
X76502166Y-70431385D01*
X76330024Y-70316363D01*
X76183637Y-70169976D01*
X76068615Y-69997834D01*
X75989389Y-69806565D01*
X75949000Y-69603516D01*
X75949000Y-69396484D01*
X75989389Y-69193435D01*
X76068615Y-69002166D01*
X76183637Y-68830024D01*
X76330024Y-68683637D01*
X76502166Y-68568615D01*
X76693435Y-68489389D01*
X76896484Y-68449000D01*
X77103516Y-68449000D01*
X77306565Y-68489389D01*
X77306565Y-68489389D01*
G37*
G36*
X83806565Y-68489389D02*
X83997834Y-68568615D01*
X84169976Y-68683637D01*
X84316363Y-68830024D01*
X84431385Y-69002166D01*
X84510611Y-69193435D01*
X84551000Y-69396484D01*
X84551000Y-69603516D01*
X84510611Y-69806565D01*
X84431385Y-69997834D01*
X84316363Y-70169976D01*
X84169976Y-70316363D01*
X83997834Y-70431385D01*
X83806565Y-70510611D01*
X83603516Y-70551000D01*
X83396484Y-70551000D01*
X83193435Y-70510611D01*
X83002166Y-70431385D01*
X82830024Y-70316363D01*
X82683637Y-70169976D01*
X82568615Y-69997834D01*
X82489389Y-69806565D01*
X82449000Y-69603516D01*
X82449000Y-69396484D01*
X82489389Y-69193435D01*
X82568615Y-69002166D01*
X82683637Y-68830024D01*
X82830024Y-68683637D01*
X83002166Y-68568615D01*
X83193435Y-68489389D01*
X83396484Y-68449000D01*
X83603516Y-68449000D01*
X83806565Y-68489389D01*
X83806565Y-68489389D01*
G37*
G36*
X98806565Y-63989389D02*
X98997834Y-64068615D01*
X99169976Y-64183637D01*
X99316363Y-64330024D01*
X99431385Y-64502166D01*
X99510611Y-64693435D01*
X99551000Y-64896484D01*
X99551000Y-65103516D01*
X99510611Y-65306565D01*
X99431385Y-65497834D01*
X99316363Y-65669976D01*
X99169976Y-65816363D01*
X98997834Y-65931385D01*
X98806565Y-66010611D01*
X98603516Y-66051000D01*
X98396484Y-66051000D01*
X98193435Y-66010611D01*
X98002166Y-65931385D01*
X97830024Y-65816363D01*
X97683637Y-65669976D01*
X97568615Y-65497834D01*
X97489389Y-65306565D01*
X97449000Y-65103516D01*
X97449000Y-64896484D01*
X97489389Y-64693435D01*
X97568615Y-64502166D01*
X97683637Y-64330024D01*
X97830024Y-64183637D01*
X98002166Y-64068615D01*
X98193435Y-63989389D01*
X98396484Y-63949000D01*
X98603516Y-63949000D01*
X98806565Y-63989389D01*
X98806565Y-63989389D01*
G37*
G36*
X77306565Y-63989389D02*
X77497834Y-64068615D01*
X77669976Y-64183637D01*
X77816363Y-64330024D01*
X77931385Y-64502166D01*
X78010611Y-64693435D01*
X78051000Y-64896484D01*
X78051000Y-65103516D01*
X78010611Y-65306565D01*
X77931385Y-65497834D01*
X77816363Y-65669976D01*
X77669976Y-65816363D01*
X77497834Y-65931385D01*
X77306565Y-66010611D01*
X77103516Y-66051000D01*
X76896484Y-66051000D01*
X76693435Y-66010611D01*
X76502166Y-65931385D01*
X76330024Y-65816363D01*
X76183637Y-65669976D01*
X76068615Y-65497834D01*
X75989389Y-65306565D01*
X75949000Y-65103516D01*
X75949000Y-64896484D01*
X75989389Y-64693435D01*
X76068615Y-64502166D01*
X76183637Y-64330024D01*
X76330024Y-64183637D01*
X76502166Y-64068615D01*
X76693435Y-63989389D01*
X76896484Y-63949000D01*
X77103516Y-63949000D01*
X77306565Y-63989389D01*
X77306565Y-63989389D01*
G37*
G36*
X83806565Y-63989389D02*
X83997834Y-64068615D01*
X84169976Y-64183637D01*
X84316363Y-64330024D01*
X84431385Y-64502166D01*
X84510611Y-64693435D01*
X84551000Y-64896484D01*
X84551000Y-65103516D01*
X84510611Y-65306565D01*
X84431385Y-65497834D01*
X84316363Y-65669976D01*
X84169976Y-65816363D01*
X83997834Y-65931385D01*
X83806565Y-66010611D01*
X83603516Y-66051000D01*
X83396484Y-66051000D01*
X83193435Y-66010611D01*
X83002166Y-65931385D01*
X82830024Y-65816363D01*
X82683637Y-65669976D01*
X82568615Y-65497834D01*
X82489389Y-65306565D01*
X82449000Y-65103516D01*
X82449000Y-64896484D01*
X82489389Y-64693435D01*
X82568615Y-64502166D01*
X82683637Y-64330024D01*
X82830024Y-64183637D01*
X83002166Y-64068615D01*
X83193435Y-63989389D01*
X83396484Y-63949000D01*
X83603516Y-63949000D01*
X83806565Y-63989389D01*
X83806565Y-63989389D01*
G37*
G36*
X92306565Y-63989389D02*
X92497834Y-64068615D01*
X92669976Y-64183637D01*
X92816363Y-64330024D01*
X92931385Y-64502166D01*
X93010611Y-64693435D01*
X93051000Y-64896484D01*
X93051000Y-65103516D01*
X93010611Y-65306565D01*
X92931385Y-65497834D01*
X92816363Y-65669976D01*
X92669976Y-65816363D01*
X92497834Y-65931385D01*
X92306565Y-66010611D01*
X92103516Y-66051000D01*
X91896484Y-66051000D01*
X91693435Y-66010611D01*
X91502166Y-65931385D01*
X91330024Y-65816363D01*
X91183637Y-65669976D01*
X91068615Y-65497834D01*
X90989389Y-65306565D01*
X90949000Y-65103516D01*
X90949000Y-64896484D01*
X90989389Y-64693435D01*
X91068615Y-64502166D01*
X91183637Y-64330024D01*
X91330024Y-64183637D01*
X91502166Y-64068615D01*
X91693435Y-63989389D01*
X91896484Y-63949000D01*
X92103516Y-63949000D01*
X92306565Y-63989389D01*
X92306565Y-63989389D01*
G37*
G36*
X113806565Y-63989389D02*
X113997834Y-64068615D01*
X114169976Y-64183637D01*
X114316363Y-64330024D01*
X114431385Y-64502166D01*
X114510611Y-64693435D01*
X114551000Y-64896484D01*
X114551000Y-65103516D01*
X114510611Y-65306565D01*
X114431385Y-65497834D01*
X114316363Y-65669976D01*
X114169976Y-65816363D01*
X113997834Y-65931385D01*
X113806565Y-66010611D01*
X113603516Y-66051000D01*
X113396484Y-66051000D01*
X113193435Y-66010611D01*
X113002166Y-65931385D01*
X112830024Y-65816363D01*
X112683637Y-65669976D01*
X112568615Y-65497834D01*
X112489389Y-65306565D01*
X112449000Y-65103516D01*
X112449000Y-64896484D01*
X112489389Y-64693435D01*
X112568615Y-64502166D01*
X112683637Y-64330024D01*
X112830024Y-64183637D01*
X113002166Y-64068615D01*
X113193435Y-63989389D01*
X113396484Y-63949000D01*
X113603516Y-63949000D01*
X113806565Y-63989389D01*
X113806565Y-63989389D01*
G37*
G36*
X107306565Y-63989389D02*
X107497834Y-64068615D01*
X107669976Y-64183637D01*
X107816363Y-64330024D01*
X107931385Y-64502166D01*
X108010611Y-64693435D01*
X108051000Y-64896484D01*
X108051000Y-65103516D01*
X108010611Y-65306565D01*
X107931385Y-65497834D01*
X107816363Y-65669976D01*
X107669976Y-65816363D01*
X107497834Y-65931385D01*
X107306565Y-66010611D01*
X107103516Y-66051000D01*
X106896484Y-66051000D01*
X106693435Y-66010611D01*
X106502166Y-65931385D01*
X106330024Y-65816363D01*
X106183637Y-65669976D01*
X106068615Y-65497834D01*
X105989389Y-65306565D01*
X105949000Y-65103516D01*
X105949000Y-64896484D01*
X105989389Y-64693435D01*
X106068615Y-64502166D01*
X106183637Y-64330024D01*
X106330024Y-64183637D01*
X106502166Y-64068615D01*
X106693435Y-63989389D01*
X106896484Y-63949000D01*
X107103516Y-63949000D01*
X107306565Y-63989389D01*
X107306565Y-63989389D01*
G37*
G36*
X77306565Y-52489389D02*
X77497834Y-52568615D01*
X77669976Y-52683637D01*
X77816363Y-52830024D01*
X77931385Y-53002166D01*
X78010611Y-53193435D01*
X78051000Y-53396484D01*
X78051000Y-53603516D01*
X78010611Y-53806565D01*
X77931385Y-53997834D01*
X77816363Y-54169976D01*
X77669976Y-54316363D01*
X77497834Y-54431385D01*
X77306565Y-54510611D01*
X77103516Y-54551000D01*
X76896484Y-54551000D01*
X76693435Y-54510611D01*
X76502166Y-54431385D01*
X76330024Y-54316363D01*
X76183637Y-54169976D01*
X76068615Y-53997834D01*
X75989389Y-53806565D01*
X75949000Y-53603516D01*
X75949000Y-53396484D01*
X75989389Y-53193435D01*
X76068615Y-53002166D01*
X76183637Y-52830024D01*
X76330024Y-52683637D01*
X76502166Y-52568615D01*
X76693435Y-52489389D01*
X76896484Y-52449000D01*
X77103516Y-52449000D01*
X77306565Y-52489389D01*
X77306565Y-52489389D01*
G37*
G36*
X83806565Y-52489389D02*
X83997834Y-52568615D01*
X84169976Y-52683637D01*
X84316363Y-52830024D01*
X84431385Y-53002166D01*
X84510611Y-53193435D01*
X84551000Y-53396484D01*
X84551000Y-53603516D01*
X84510611Y-53806565D01*
X84431385Y-53997834D01*
X84316363Y-54169976D01*
X84169976Y-54316363D01*
X83997834Y-54431385D01*
X83806565Y-54510611D01*
X83603516Y-54551000D01*
X83396484Y-54551000D01*
X83193435Y-54510611D01*
X83002166Y-54431385D01*
X82830024Y-54316363D01*
X82683637Y-54169976D01*
X82568615Y-53997834D01*
X82489389Y-53806565D01*
X82449000Y-53603516D01*
X82449000Y-53396484D01*
X82489389Y-53193435D01*
X82568615Y-53002166D01*
X82683637Y-52830024D01*
X82830024Y-52683637D01*
X83002166Y-52568615D01*
X83193435Y-52489389D01*
X83396484Y-52449000D01*
X83603516Y-52449000D01*
X83806565Y-52489389D01*
X83806565Y-52489389D01*
G37*
G36*
X107306565Y-52489389D02*
X107497834Y-52568615D01*
X107669976Y-52683637D01*
X107816363Y-52830024D01*
X107931385Y-53002166D01*
X108010611Y-53193435D01*
X108051000Y-53396484D01*
X108051000Y-53603516D01*
X108010611Y-53806565D01*
X107931385Y-53997834D01*
X107816363Y-54169976D01*
X107669976Y-54316363D01*
X107497834Y-54431385D01*
X107306565Y-54510611D01*
X107103516Y-54551000D01*
X106896484Y-54551000D01*
X106693435Y-54510611D01*
X106502166Y-54431385D01*
X106330024Y-54316363D01*
X106183637Y-54169976D01*
X106068615Y-53997834D01*
X105989389Y-53806565D01*
X105949000Y-53603516D01*
X105949000Y-53396484D01*
X105989389Y-53193435D01*
X106068615Y-53002166D01*
X106183637Y-52830024D01*
X106330024Y-52683637D01*
X106502166Y-52568615D01*
X106693435Y-52489389D01*
X106896484Y-52449000D01*
X107103516Y-52449000D01*
X107306565Y-52489389D01*
X107306565Y-52489389D01*
G37*
G36*
X113806565Y-52489389D02*
X113997834Y-52568615D01*
X114169976Y-52683637D01*
X114316363Y-52830024D01*
X114431385Y-53002166D01*
X114510611Y-53193435D01*
X114551000Y-53396484D01*
X114551000Y-53603516D01*
X114510611Y-53806565D01*
X114431385Y-53997834D01*
X114316363Y-54169976D01*
X114169976Y-54316363D01*
X113997834Y-54431385D01*
X113806565Y-54510611D01*
X113603516Y-54551000D01*
X113396484Y-54551000D01*
X113193435Y-54510611D01*
X113002166Y-54431385D01*
X112830024Y-54316363D01*
X112683637Y-54169976D01*
X112568615Y-53997834D01*
X112489389Y-53806565D01*
X112449000Y-53603516D01*
X112449000Y-53396484D01*
X112489389Y-53193435D01*
X112568615Y-53002166D01*
X112683637Y-52830024D01*
X112830024Y-52683637D01*
X113002166Y-52568615D01*
X113193435Y-52489389D01*
X113396484Y-52449000D01*
X113603516Y-52449000D01*
X113806565Y-52489389D01*
X113806565Y-52489389D01*
G37*
G36*
X98806565Y-52489389D02*
X98997834Y-52568615D01*
X99169976Y-52683637D01*
X99316363Y-52830024D01*
X99431385Y-53002166D01*
X99510611Y-53193435D01*
X99551000Y-53396484D01*
X99551000Y-53603516D01*
X99510611Y-53806565D01*
X99431385Y-53997834D01*
X99316363Y-54169976D01*
X99169976Y-54316363D01*
X98997834Y-54431385D01*
X98806565Y-54510611D01*
X98603516Y-54551000D01*
X98396484Y-54551000D01*
X98193435Y-54510611D01*
X98002166Y-54431385D01*
X97830024Y-54316363D01*
X97683637Y-54169976D01*
X97568615Y-53997834D01*
X97489389Y-53806565D01*
X97449000Y-53603516D01*
X97449000Y-53396484D01*
X97489389Y-53193435D01*
X97568615Y-53002166D01*
X97683637Y-52830024D01*
X97830024Y-52683637D01*
X98002166Y-52568615D01*
X98193435Y-52489389D01*
X98396484Y-52449000D01*
X98603516Y-52449000D01*
X98806565Y-52489389D01*
X98806565Y-52489389D01*
G37*
G36*
X92306565Y-52489389D02*
X92497834Y-52568615D01*
X92669976Y-52683637D01*
X92816363Y-52830024D01*
X92931385Y-53002166D01*
X93010611Y-53193435D01*
X93051000Y-53396484D01*
X93051000Y-53603516D01*
X93010611Y-53806565D01*
X92931385Y-53997834D01*
X92816363Y-54169976D01*
X92669976Y-54316363D01*
X92497834Y-54431385D01*
X92306565Y-54510611D01*
X92103516Y-54551000D01*
X91896484Y-54551000D01*
X91693435Y-54510611D01*
X91502166Y-54431385D01*
X91330024Y-54316363D01*
X91183637Y-54169976D01*
X91068615Y-53997834D01*
X90989389Y-53806565D01*
X90949000Y-53603516D01*
X90949000Y-53396484D01*
X90989389Y-53193435D01*
X91068615Y-53002166D01*
X91183637Y-52830024D01*
X91330024Y-52683637D01*
X91502166Y-52568615D01*
X91693435Y-52489389D01*
X91896484Y-52449000D01*
X92103516Y-52449000D01*
X92306565Y-52489389D01*
X92306565Y-52489389D01*
G37*
G36*
X113806565Y-47989389D02*
X113997834Y-48068615D01*
X114169976Y-48183637D01*
X114316363Y-48330024D01*
X114431385Y-48502166D01*
X114510611Y-48693435D01*
X114551000Y-48896484D01*
X114551000Y-49103516D01*
X114510611Y-49306565D01*
X114431385Y-49497834D01*
X114316363Y-49669976D01*
X114169976Y-49816363D01*
X113997834Y-49931385D01*
X113806565Y-50010611D01*
X113603516Y-50051000D01*
X113396484Y-50051000D01*
X113193435Y-50010611D01*
X113002166Y-49931385D01*
X112830024Y-49816363D01*
X112683637Y-49669976D01*
X112568615Y-49497834D01*
X112489389Y-49306565D01*
X112449000Y-49103516D01*
X112449000Y-48896484D01*
X112489389Y-48693435D01*
X112568615Y-48502166D01*
X112683637Y-48330024D01*
X112830024Y-48183637D01*
X113002166Y-48068615D01*
X113193435Y-47989389D01*
X113396484Y-47949000D01*
X113603516Y-47949000D01*
X113806565Y-47989389D01*
X113806565Y-47989389D01*
G37*
G36*
X107306565Y-47989389D02*
X107497834Y-48068615D01*
X107669976Y-48183637D01*
X107816363Y-48330024D01*
X107931385Y-48502166D01*
X108010611Y-48693435D01*
X108051000Y-48896484D01*
X108051000Y-49103516D01*
X108010611Y-49306565D01*
X107931385Y-49497834D01*
X107816363Y-49669976D01*
X107669976Y-49816363D01*
X107497834Y-49931385D01*
X107306565Y-50010611D01*
X107103516Y-50051000D01*
X106896484Y-50051000D01*
X106693435Y-50010611D01*
X106502166Y-49931385D01*
X106330024Y-49816363D01*
X106183637Y-49669976D01*
X106068615Y-49497834D01*
X105989389Y-49306565D01*
X105949000Y-49103516D01*
X105949000Y-48896484D01*
X105989389Y-48693435D01*
X106068615Y-48502166D01*
X106183637Y-48330024D01*
X106330024Y-48183637D01*
X106502166Y-48068615D01*
X106693435Y-47989389D01*
X106896484Y-47949000D01*
X107103516Y-47949000D01*
X107306565Y-47989389D01*
X107306565Y-47989389D01*
G37*
G36*
X98806565Y-47989389D02*
X98997834Y-48068615D01*
X99169976Y-48183637D01*
X99316363Y-48330024D01*
X99431385Y-48502166D01*
X99510611Y-48693435D01*
X99551000Y-48896484D01*
X99551000Y-49103516D01*
X99510611Y-49306565D01*
X99431385Y-49497834D01*
X99316363Y-49669976D01*
X99169976Y-49816363D01*
X98997834Y-49931385D01*
X98806565Y-50010611D01*
X98603516Y-50051000D01*
X98396484Y-50051000D01*
X98193435Y-50010611D01*
X98002166Y-49931385D01*
X97830024Y-49816363D01*
X97683637Y-49669976D01*
X97568615Y-49497834D01*
X97489389Y-49306565D01*
X97449000Y-49103516D01*
X97449000Y-48896484D01*
X97489389Y-48693435D01*
X97568615Y-48502166D01*
X97683637Y-48330024D01*
X97830024Y-48183637D01*
X98002166Y-48068615D01*
X98193435Y-47989389D01*
X98396484Y-47949000D01*
X98603516Y-47949000D01*
X98806565Y-47989389D01*
X98806565Y-47989389D01*
G37*
G36*
X77306565Y-47989389D02*
X77497834Y-48068615D01*
X77669976Y-48183637D01*
X77816363Y-48330024D01*
X77931385Y-48502166D01*
X78010611Y-48693435D01*
X78051000Y-48896484D01*
X78051000Y-49103516D01*
X78010611Y-49306565D01*
X77931385Y-49497834D01*
X77816363Y-49669976D01*
X77669976Y-49816363D01*
X77497834Y-49931385D01*
X77306565Y-50010611D01*
X77103516Y-50051000D01*
X76896484Y-50051000D01*
X76693435Y-50010611D01*
X76502166Y-49931385D01*
X76330024Y-49816363D01*
X76183637Y-49669976D01*
X76068615Y-49497834D01*
X75989389Y-49306565D01*
X75949000Y-49103516D01*
X75949000Y-48896484D01*
X75989389Y-48693435D01*
X76068615Y-48502166D01*
X76183637Y-48330024D01*
X76330024Y-48183637D01*
X76502166Y-48068615D01*
X76693435Y-47989389D01*
X76896484Y-47949000D01*
X77103516Y-47949000D01*
X77306565Y-47989389D01*
X77306565Y-47989389D01*
G37*
G36*
X92306565Y-47989389D02*
X92497834Y-48068615D01*
X92669976Y-48183637D01*
X92816363Y-48330024D01*
X92931385Y-48502166D01*
X93010611Y-48693435D01*
X93051000Y-48896484D01*
X93051000Y-49103516D01*
X93010611Y-49306565D01*
X92931385Y-49497834D01*
X92816363Y-49669976D01*
X92669976Y-49816363D01*
X92497834Y-49931385D01*
X92306565Y-50010611D01*
X92103516Y-50051000D01*
X91896484Y-50051000D01*
X91693435Y-50010611D01*
X91502166Y-49931385D01*
X91330024Y-49816363D01*
X91183637Y-49669976D01*
X91068615Y-49497834D01*
X90989389Y-49306565D01*
X90949000Y-49103516D01*
X90949000Y-48896484D01*
X90989389Y-48693435D01*
X91068615Y-48502166D01*
X91183637Y-48330024D01*
X91330024Y-48183637D01*
X91502166Y-48068615D01*
X91693435Y-47989389D01*
X91896484Y-47949000D01*
X92103516Y-47949000D01*
X92306565Y-47989389D01*
X92306565Y-47989389D01*
G37*
G36*
X83806565Y-47989389D02*
X83997834Y-48068615D01*
X84169976Y-48183637D01*
X84316363Y-48330024D01*
X84431385Y-48502166D01*
X84510611Y-48693435D01*
X84551000Y-48896484D01*
X84551000Y-49103516D01*
X84510611Y-49306565D01*
X84431385Y-49497834D01*
X84316363Y-49669976D01*
X84169976Y-49816363D01*
X83997834Y-49931385D01*
X83806565Y-50010611D01*
X83603516Y-50051000D01*
X83396484Y-50051000D01*
X83193435Y-50010611D01*
X83002166Y-49931385D01*
X82830024Y-49816363D01*
X82683637Y-49669976D01*
X82568615Y-49497834D01*
X82489389Y-49306565D01*
X82449000Y-49103516D01*
X82449000Y-48896484D01*
X82489389Y-48693435D01*
X82568615Y-48502166D01*
X82683637Y-48330024D01*
X82830024Y-48183637D01*
X83002166Y-48068615D01*
X83193435Y-47989389D01*
X83396484Y-47949000D01*
X83603516Y-47949000D01*
X83806565Y-47989389D01*
X83806565Y-47989389D01*
G37*
G36*
X90492510Y-39102041D02*
X90616032Y-39114207D01*
X90814146Y-39174305D01*
X90996729Y-39271897D01*
X91156765Y-39403235D01*
X91288103Y-39563271D01*
X91385695Y-39745854D01*
X91445793Y-39943968D01*
X91466085Y-40150000D01*
X91445793Y-40356032D01*
X91385695Y-40554146D01*
X91288103Y-40736729D01*
X91156765Y-40896765D01*
X90996729Y-41028103D01*
X90814146Y-41125695D01*
X90616032Y-41185793D01*
X90492510Y-41197959D01*
X90461631Y-41201000D01*
X90358369Y-41201000D01*
X90327490Y-41197959D01*
X90203968Y-41185793D01*
X90005854Y-41125695D01*
X89823271Y-41028103D01*
X89663235Y-40896765D01*
X89531897Y-40736729D01*
X89434305Y-40554146D01*
X89374207Y-40356032D01*
X89353915Y-40150000D01*
X89374207Y-39943968D01*
X89434305Y-39745854D01*
X89531897Y-39563271D01*
X89663235Y-39403235D01*
X89823271Y-39271897D01*
X90005854Y-39174305D01*
X90203968Y-39114207D01*
X90327490Y-39102041D01*
X90358369Y-39099000D01*
X90461631Y-39099000D01*
X90492510Y-39102041D01*
X90492510Y-39102041D01*
G37*
G36*
X106701000Y-41201000D02*
X104599000Y-41201000D01*
X104599000Y-39099000D01*
X106701000Y-39099000D01*
X106701000Y-41201000D01*
X106701000Y-41201000D01*
G37*
G36*
X87952510Y-39102041D02*
X88076032Y-39114207D01*
X88274146Y-39174305D01*
X88456729Y-39271897D01*
X88616765Y-39403235D01*
X88748103Y-39563271D01*
X88845695Y-39745854D01*
X88905793Y-39943968D01*
X88926085Y-40150000D01*
X88905793Y-40356032D01*
X88845695Y-40554146D01*
X88748103Y-40736729D01*
X88616765Y-40896765D01*
X88456729Y-41028103D01*
X88274146Y-41125695D01*
X88076032Y-41185793D01*
X87952510Y-41197959D01*
X87921631Y-41201000D01*
X87818369Y-41201000D01*
X87787490Y-41197959D01*
X87663968Y-41185793D01*
X87465854Y-41125695D01*
X87283271Y-41028103D01*
X87123235Y-40896765D01*
X86991897Y-40736729D01*
X86894305Y-40554146D01*
X86834207Y-40356032D01*
X86813915Y-40150000D01*
X86834207Y-39943968D01*
X86894305Y-39745854D01*
X86991897Y-39563271D01*
X87123235Y-39403235D01*
X87283271Y-39271897D01*
X87465854Y-39174305D01*
X87663968Y-39114207D01*
X87787490Y-39102041D01*
X87818369Y-39099000D01*
X87921631Y-39099000D01*
X87952510Y-39102041D01*
X87952510Y-39102041D01*
G37*
G36*
X93032510Y-39102041D02*
X93156032Y-39114207D01*
X93354146Y-39174305D01*
X93536729Y-39271897D01*
X93696765Y-39403235D01*
X93828103Y-39563271D01*
X93925695Y-39745854D01*
X93985793Y-39943968D01*
X94006085Y-40150000D01*
X93985793Y-40356032D01*
X93925695Y-40554146D01*
X93828103Y-40736729D01*
X93696765Y-40896765D01*
X93536729Y-41028103D01*
X93354146Y-41125695D01*
X93156032Y-41185793D01*
X93032510Y-41197959D01*
X93001631Y-41201000D01*
X92898369Y-41201000D01*
X92867490Y-41197959D01*
X92743968Y-41185793D01*
X92545854Y-41125695D01*
X92363271Y-41028103D01*
X92203235Y-40896765D01*
X92071897Y-40736729D01*
X91974305Y-40554146D01*
X91914207Y-40356032D01*
X91893915Y-40150000D01*
X91914207Y-39943968D01*
X91974305Y-39745854D01*
X92071897Y-39563271D01*
X92203235Y-39403235D01*
X92363271Y-39271897D01*
X92545854Y-39174305D01*
X92743968Y-39114207D01*
X92867490Y-39102041D01*
X92898369Y-39099000D01*
X93001631Y-39099000D01*
X93032510Y-39102041D01*
X93032510Y-39102041D01*
G37*
G36*
X95572510Y-39102041D02*
X95696032Y-39114207D01*
X95894146Y-39174305D01*
X96076729Y-39271897D01*
X96236765Y-39403235D01*
X96368103Y-39563271D01*
X96465695Y-39745854D01*
X96525793Y-39943968D01*
X96546085Y-40150000D01*
X96525793Y-40356032D01*
X96465695Y-40554146D01*
X96368103Y-40736729D01*
X96236765Y-40896765D01*
X96076729Y-41028103D01*
X95894146Y-41125695D01*
X95696032Y-41185793D01*
X95572510Y-41197959D01*
X95541631Y-41201000D01*
X95438369Y-41201000D01*
X95407490Y-41197959D01*
X95283968Y-41185793D01*
X95085854Y-41125695D01*
X94903271Y-41028103D01*
X94743235Y-40896765D01*
X94611897Y-40736729D01*
X94514305Y-40554146D01*
X94454207Y-40356032D01*
X94433915Y-40150000D01*
X94454207Y-39943968D01*
X94514305Y-39745854D01*
X94611897Y-39563271D01*
X94743235Y-39403235D01*
X94903271Y-39271897D01*
X95085854Y-39174305D01*
X95283968Y-39114207D01*
X95407490Y-39102041D01*
X95438369Y-39099000D01*
X95541631Y-39099000D01*
X95572510Y-39102041D01*
X95572510Y-39102041D01*
G37*
G36*
X103192510Y-39102041D02*
X103316032Y-39114207D01*
X103514146Y-39174305D01*
X103696729Y-39271897D01*
X103856765Y-39403235D01*
X103988103Y-39563271D01*
X104085695Y-39745854D01*
X104145793Y-39943968D01*
X104166085Y-40150000D01*
X104145793Y-40356032D01*
X104085695Y-40554146D01*
X103988103Y-40736729D01*
X103856765Y-40896765D01*
X103696729Y-41028103D01*
X103514146Y-41125695D01*
X103316032Y-41185793D01*
X103192510Y-41197959D01*
X103161631Y-41201000D01*
X103058369Y-41201000D01*
X103027490Y-41197959D01*
X102903968Y-41185793D01*
X102705854Y-41125695D01*
X102523271Y-41028103D01*
X102363235Y-40896765D01*
X102231897Y-40736729D01*
X102134305Y-40554146D01*
X102074207Y-40356032D01*
X102053915Y-40150000D01*
X102074207Y-39943968D01*
X102134305Y-39745854D01*
X102231897Y-39563271D01*
X102363235Y-39403235D01*
X102523271Y-39271897D01*
X102705854Y-39174305D01*
X102903968Y-39114207D01*
X103027490Y-39102041D01*
X103058369Y-39099000D01*
X103161631Y-39099000D01*
X103192510Y-39102041D01*
X103192510Y-39102041D01*
G37*
G36*
X98112510Y-39102041D02*
X98236032Y-39114207D01*
X98434146Y-39174305D01*
X98616729Y-39271897D01*
X98776765Y-39403235D01*
X98908103Y-39563271D01*
X99005695Y-39745854D01*
X99065793Y-39943968D01*
X99086085Y-40150000D01*
X99065793Y-40356032D01*
X99005695Y-40554146D01*
X98908103Y-40736729D01*
X98776765Y-40896765D01*
X98616729Y-41028103D01*
X98434146Y-41125695D01*
X98236032Y-41185793D01*
X98112510Y-41197959D01*
X98081631Y-41201000D01*
X97978369Y-41201000D01*
X97947490Y-41197959D01*
X97823968Y-41185793D01*
X97625854Y-41125695D01*
X97443271Y-41028103D01*
X97283235Y-40896765D01*
X97151897Y-40736729D01*
X97054305Y-40554146D01*
X96994207Y-40356032D01*
X96973915Y-40150000D01*
X96994207Y-39943968D01*
X97054305Y-39745854D01*
X97151897Y-39563271D01*
X97283235Y-39403235D01*
X97443271Y-39271897D01*
X97625854Y-39174305D01*
X97823968Y-39114207D01*
X97947490Y-39102041D01*
X97978369Y-39099000D01*
X98081631Y-39099000D01*
X98112510Y-39102041D01*
X98112510Y-39102041D01*
G37*
G36*
X100652510Y-39102041D02*
X100776032Y-39114207D01*
X100974146Y-39174305D01*
X101156729Y-39271897D01*
X101316765Y-39403235D01*
X101448103Y-39563271D01*
X101545695Y-39745854D01*
X101605793Y-39943968D01*
X101626085Y-40150000D01*
X101605793Y-40356032D01*
X101545695Y-40554146D01*
X101448103Y-40736729D01*
X101316765Y-40896765D01*
X101156729Y-41028103D01*
X100974146Y-41125695D01*
X100776032Y-41185793D01*
X100652510Y-41197959D01*
X100621631Y-41201000D01*
X100518369Y-41201000D01*
X100487490Y-41197959D01*
X100363968Y-41185793D01*
X100165854Y-41125695D01*
X99983271Y-41028103D01*
X99823235Y-40896765D01*
X99691897Y-40736729D01*
X99594305Y-40554146D01*
X99534207Y-40356032D01*
X99513915Y-40150000D01*
X99534207Y-39943968D01*
X99594305Y-39745854D01*
X99691897Y-39563271D01*
X99823235Y-39403235D01*
X99983271Y-39271897D01*
X100165854Y-39174305D01*
X100363968Y-39114207D01*
X100487490Y-39102041D01*
X100518369Y-39099000D01*
X100621631Y-39099000D01*
X100652510Y-39102041D01*
X100652510Y-39102041D01*
G37*
M02*
