M48
; DRILL file {KiCad 5.1.8-db9833491~88~ubuntu18.04.1} date Thu Dec 10 12:48:54 2020
; FORMAT={-:-/ absolute / inch / decimal}
; #@! TF.CreationDate,2020-12-10T12:48:54+05:30
; #@! TF.GenerationSoftware,Kicad,Pcbnew,5.1.8-db9833491~88~ubuntu18.04.1
; #@! TF.FileFunction,Plated,1,2,PTH
FMAT,2
INCH
T1C0.0000
T2C0.0394
T3C0.1181
%
G90
G05
T1
X6.9206Y-5.7328
T2
X6.058Y-4.0418
X6.058Y-4.1383
X6.058Y-4.2383
X7.3045Y-4.1174
X7.4045Y-4.1174
X7.0742Y-4.217
X7.0742Y-4.317
X6.2539Y-5.3209
X6.2539Y-5.4209
X6.2539Y-5.5209
X6.2539Y-5.6209
X6.2539Y-5.7209
X6.9206Y-6.1265
X7.0206Y-5.7328
X7.0206Y-6.1265
X7.1206Y-5.7328
X7.1206Y-6.1265
X7.2206Y-5.7328
X7.2206Y-6.1265
X6.4769Y-3.5069
X6.4769Y-3.7037
X6.5754Y-3.6053
X6.9202Y-5.0099
X7.0202Y-5.0099
X7.1202Y-5.0099
X7.2202Y-5.0099
X6.8596Y-5.5662
X6.8596Y-5.6662
X6.8596Y-5.7662
X6.8596Y-5.8662
X6.8596Y-5.9662
X6.8596Y-6.0662
X6.8596Y-6.1662
X7.0718Y-3.9418
X7.0718Y-4.0418
X6.9722Y-4.7158
X7.0722Y-4.6158
X7.0722Y-4.8158
X7.1722Y-4.7158
T3
X6.2324Y-4.1383
X6.9332Y-4.5064
X7.2088Y-4.5064
T0
M30
