G04 #@! TF.GenerationSoftware,KiCad,Pcbnew,5.1.8-db9833491~88~ubuntu18.04.1*
G04 #@! TF.CreationDate,2020-12-10T12:49:00+05:30*
G04 #@! TF.ProjectId,Permitme_main _sub_V1,5065726d-6974-46d6-955f-6d61696e205f,rev?*
G04 #@! TF.SameCoordinates,Original*
G04 #@! TF.FileFunction,Legend,Bot*
G04 #@! TF.FilePolarity,Positive*
%FSLAX46Y46*%
G04 Gerber Fmt 4.6, Leading zero omitted, Abs format (unit mm)*
G04 Created by KiCad (PCBNEW 5.1.8-db9833491~88~ubuntu18.04.1) date 2020-12-10 12:49:00*
%MOMM*%
%LPD*%
G01*
G04 APERTURE LIST*
%ADD10C,0.120000*%
%ADD11C,0.150000*%
G04 APERTURE END LIST*
D10*
X168134000Y-92694000D02*
X168134000Y-90454000D01*
X164393000Y-92694000D02*
X164393000Y-90454000D01*
X164393000Y-90454000D02*
X168134000Y-90454000D01*
X164393000Y-92694000D02*
X168134000Y-92694000D01*
X164393000Y-93008000D02*
X164393000Y-90139000D01*
X168134000Y-94844000D02*
X168134000Y-88304000D01*
X165439000Y-88304000D02*
X168134000Y-88304000D01*
X165439000Y-94844000D02*
X168134000Y-94844000D01*
X171882064Y-98510000D02*
X170677936Y-98510000D01*
X171882064Y-96690000D02*
X170677936Y-96690000D01*
X185296064Y-132962000D02*
X184091936Y-132962000D01*
X185296064Y-134782000D02*
X184091936Y-134782000D01*
X179375000Y-95065000D02*
X175925000Y-95065000D01*
X179375000Y-95065000D02*
X181325000Y-95065000D01*
X179375000Y-89945000D02*
X177425000Y-89945000D01*
X179375000Y-89945000D02*
X181325000Y-89945000D01*
X178671936Y-134762000D02*
X179876064Y-134762000D01*
X178671936Y-132942000D02*
X179876064Y-132942000D01*
X168570000Y-107927936D02*
X168570000Y-109132064D01*
X170390000Y-107927936D02*
X170390000Y-109132064D01*
X184037936Y-99180000D02*
X185242064Y-99180000D01*
X184037936Y-101000000D02*
X185242064Y-101000000D01*
D11*
X165109238Y-96586380D02*
X165442571Y-96110190D01*
X165680666Y-96586380D02*
X165680666Y-95586380D01*
X165299714Y-95586380D01*
X165204476Y-95634000D01*
X165156857Y-95681619D01*
X165109238Y-95776857D01*
X165109238Y-95919714D01*
X165156857Y-96014952D01*
X165204476Y-96062571D01*
X165299714Y-96110190D01*
X165680666Y-96110190D01*
X164823523Y-95586380D02*
X164490190Y-96586380D01*
X164156857Y-95586380D01*
X163299714Y-96586380D02*
X163871142Y-96586380D01*
X163585428Y-96586380D02*
X163585428Y-95586380D01*
X163680666Y-95729238D01*
X163775904Y-95824476D01*
X163871142Y-95872095D01*
X171446666Y-96232380D02*
X171780000Y-95756190D01*
X172018095Y-96232380D02*
X172018095Y-95232380D01*
X171637142Y-95232380D01*
X171541904Y-95280000D01*
X171494285Y-95327619D01*
X171446666Y-95422857D01*
X171446666Y-95565714D01*
X171494285Y-95660952D01*
X171541904Y-95708571D01*
X171637142Y-95756190D01*
X172018095Y-95756190D01*
X170589523Y-95232380D02*
X170780000Y-95232380D01*
X170875238Y-95280000D01*
X170922857Y-95327619D01*
X171018095Y-95470476D01*
X171065714Y-95660952D01*
X171065714Y-96041904D01*
X171018095Y-96137142D01*
X170970476Y-96184761D01*
X170875238Y-96232380D01*
X170684761Y-96232380D01*
X170589523Y-96184761D01*
X170541904Y-96137142D01*
X170494285Y-96041904D01*
X170494285Y-95803809D01*
X170541904Y-95708571D01*
X170589523Y-95660952D01*
X170684761Y-95613333D01*
X170875238Y-95613333D01*
X170970476Y-95660952D01*
X171018095Y-95708571D01*
X171065714Y-95803809D01*
X185336857Y-132504380D02*
X185670190Y-132028190D01*
X185908285Y-132504380D02*
X185908285Y-131504380D01*
X185527333Y-131504380D01*
X185432095Y-131552000D01*
X185384476Y-131599619D01*
X185336857Y-131694857D01*
X185336857Y-131837714D01*
X185384476Y-131932952D01*
X185432095Y-131980571D01*
X185527333Y-132028190D01*
X185908285Y-132028190D01*
X184384476Y-132504380D02*
X184955904Y-132504380D01*
X184670190Y-132504380D02*
X184670190Y-131504380D01*
X184765428Y-131647238D01*
X184860666Y-131742476D01*
X184955904Y-131790095D01*
X183432095Y-132504380D02*
X184003523Y-132504380D01*
X183717809Y-132504380D02*
X183717809Y-131504380D01*
X183813047Y-131647238D01*
X183908285Y-131742476D01*
X184003523Y-131790095D01*
X180136904Y-95357380D02*
X180136904Y-96166904D01*
X180089285Y-96262142D01*
X180041666Y-96309761D01*
X179946428Y-96357380D01*
X179755952Y-96357380D01*
X179660714Y-96309761D01*
X179613095Y-96262142D01*
X179565476Y-96166904D01*
X179565476Y-95357380D01*
X179136904Y-95452619D02*
X179089285Y-95405000D01*
X178994047Y-95357380D01*
X178755952Y-95357380D01*
X178660714Y-95405000D01*
X178613095Y-95452619D01*
X178565476Y-95547857D01*
X178565476Y-95643095D01*
X178613095Y-95785952D01*
X179184523Y-96357380D01*
X178565476Y-96357380D01*
X179962857Y-132302380D02*
X180296190Y-131826190D01*
X180534285Y-132302380D02*
X180534285Y-131302380D01*
X180153333Y-131302380D01*
X180058095Y-131350000D01*
X180010476Y-131397619D01*
X179962857Y-131492857D01*
X179962857Y-131635714D01*
X180010476Y-131730952D01*
X180058095Y-131778571D01*
X180153333Y-131826190D01*
X180534285Y-131826190D01*
X179010476Y-132302380D02*
X179581904Y-132302380D01*
X179296190Y-132302380D02*
X179296190Y-131302380D01*
X179391428Y-131445238D01*
X179486666Y-131540476D01*
X179581904Y-131588095D01*
X178391428Y-131302380D02*
X178296190Y-131302380D01*
X178200952Y-131350000D01*
X178153333Y-131397619D01*
X178105714Y-131492857D01*
X178058095Y-131683333D01*
X178058095Y-131921428D01*
X178105714Y-132111904D01*
X178153333Y-132207142D01*
X178200952Y-132254761D01*
X178296190Y-132302380D01*
X178391428Y-132302380D01*
X178486666Y-132254761D01*
X178534285Y-132207142D01*
X178581904Y-132111904D01*
X178629523Y-131921428D01*
X178629523Y-131683333D01*
X178581904Y-131492857D01*
X178534285Y-131397619D01*
X178486666Y-131350000D01*
X178391428Y-131302380D01*
X167772380Y-108533333D02*
X167296190Y-108200000D01*
X167772380Y-107961904D02*
X166772380Y-107961904D01*
X166772380Y-108342857D01*
X166820000Y-108438095D01*
X166867619Y-108485714D01*
X166962857Y-108533333D01*
X167105714Y-108533333D01*
X167200952Y-108485714D01*
X167248571Y-108438095D01*
X167296190Y-108342857D01*
X167296190Y-107961904D01*
X166867619Y-108914285D02*
X166820000Y-108961904D01*
X166772380Y-109057142D01*
X166772380Y-109295238D01*
X166820000Y-109390476D01*
X166867619Y-109438095D01*
X166962857Y-109485714D01*
X167058095Y-109485714D01*
X167200952Y-109438095D01*
X167772380Y-108866666D01*
X167772380Y-109485714D01*
X184806666Y-102362380D02*
X185140000Y-101886190D01*
X185378095Y-102362380D02*
X185378095Y-101362380D01*
X184997142Y-101362380D01*
X184901904Y-101410000D01*
X184854285Y-101457619D01*
X184806666Y-101552857D01*
X184806666Y-101695714D01*
X184854285Y-101790952D01*
X184901904Y-101838571D01*
X184997142Y-101886190D01*
X185378095Y-101886190D01*
X183854285Y-102362380D02*
X184425714Y-102362380D01*
X184140000Y-102362380D02*
X184140000Y-101362380D01*
X184235238Y-101505238D01*
X184330476Y-101600476D01*
X184425714Y-101648095D01*
M02*
