G04 #@! TF.GenerationSoftware,KiCad,Pcbnew,5.1.8-db9833491~88~ubuntu18.04.1*
G04 #@! TF.CreationDate,2020-12-10T12:49:00+05:30*
G04 #@! TF.ProjectId,Permitme_main _sub_V1,5065726d-6974-46d6-955f-6d61696e205f,rev?*
G04 #@! TF.SameCoordinates,Original*
G04 #@! TF.FileFunction,Copper,L2,Bot*
G04 #@! TF.FilePolarity,Positive*
%FSLAX46Y46*%
G04 Gerber Fmt 4.6, Leading zero omitted, Abs format (unit mm)*
G04 Created by KiCad (PCBNEW 5.1.8-db9833491~88~ubuntu18.04.1) date 2020-12-10 12:49:00*
%MOMM*%
%LPD*%
G01*
G04 APERTURE LIST*
G04 #@! TA.AperFunction,ComponentPad*
%ADD10C,3.000000*%
G04 #@! TD*
G04 #@! TA.AperFunction,ComponentPad*
%ADD11C,2.000000*%
G04 #@! TD*
G04 #@! TA.AperFunction,ComponentPad*
%ADD12R,2.000000X2.000000*%
G04 #@! TD*
G04 #@! TA.AperFunction,ComponentPad*
%ADD13O,2.000000X2.000000*%
G04 #@! TD*
G04 #@! TA.AperFunction,ComponentPad*
%ADD14C,1.900000*%
G04 #@! TD*
G04 #@! TA.AperFunction,ComponentPad*
%ADD15C,0.001000*%
G04 #@! TD*
G04 #@! TA.AperFunction,Conductor*
%ADD16C,1.000000*%
G04 #@! TD*
G04 #@! TA.AperFunction,Conductor*
%ADD17C,0.254000*%
G04 #@! TD*
G04 #@! TA.AperFunction,Conductor*
%ADD18C,0.100000*%
G04 #@! TD*
G04 APERTURE END LIST*
D10*
X183104000Y-114462000D03*
X176104000Y-114462000D03*
D11*
X175774000Y-127252000D03*
X178314000Y-127252000D03*
X180854000Y-127252000D03*
X183394000Y-127252000D03*
D12*
X179624000Y-100122000D03*
D11*
X179624000Y-102662000D03*
X164514000Y-89074000D03*
X167014000Y-91574000D03*
X164514000Y-94074000D03*
D13*
X158850000Y-145310000D03*
X158850000Y-142770000D03*
X158850000Y-140230000D03*
X158850000Y-137690000D03*
D12*
X158850000Y-135150000D03*
G04 #@! TA.AperFunction,SMDPad,CuDef*
G36*
G01*
X173305000Y-96975000D02*
X173305000Y-98225000D01*
G75*
G02*
X173055000Y-98475000I-250000J0D01*
G01*
X172305000Y-98475000D01*
G75*
G02*
X172055000Y-98225000I0J250000D01*
G01*
X172055000Y-96975000D01*
G75*
G02*
X172305000Y-96725000I250000J0D01*
G01*
X173055000Y-96725000D01*
G75*
G02*
X173305000Y-96975000I0J-250000D01*
G01*
G37*
G04 #@! TD.AperFunction*
G04 #@! TA.AperFunction,SMDPad,CuDef*
G36*
G01*
X170505000Y-96975000D02*
X170505000Y-98225000D01*
G75*
G02*
X170255000Y-98475000I-250000J0D01*
G01*
X169505000Y-98475000D01*
G75*
G02*
X169255000Y-98225000I0J250000D01*
G01*
X169255000Y-96975000D01*
G75*
G02*
X169505000Y-96725000I250000J0D01*
G01*
X170255000Y-96725000D01*
G75*
G02*
X170505000Y-96975000I0J-250000D01*
G01*
G37*
G04 #@! TD.AperFunction*
D11*
X174234000Y-141382000D03*
X174234000Y-143922000D03*
X174234000Y-146462000D03*
X174234000Y-149002000D03*
X174234000Y-151542000D03*
D14*
X174234000Y-154082000D03*
D11*
X174234000Y-156622000D03*
G04 #@! TA.AperFunction,SMDPad,CuDef*
G36*
G01*
X186719000Y-133247000D02*
X186719000Y-134497000D01*
G75*
G02*
X186469000Y-134747000I-250000J0D01*
G01*
X185719000Y-134747000D01*
G75*
G02*
X185469000Y-134497000I0J250000D01*
G01*
X185469000Y-133247000D01*
G75*
G02*
X185719000Y-132997000I250000J0D01*
G01*
X186469000Y-132997000D01*
G75*
G02*
X186719000Y-133247000I0J-250000D01*
G01*
G37*
G04 #@! TD.AperFunction*
G04 #@! TA.AperFunction,SMDPad,CuDef*
G36*
G01*
X183919000Y-133247000D02*
X183919000Y-134497000D01*
G75*
G02*
X183669000Y-134747000I-250000J0D01*
G01*
X182919000Y-134747000D01*
G75*
G02*
X182669000Y-134497000I0J250000D01*
G01*
X182669000Y-133247000D01*
G75*
G02*
X182919000Y-132997000I250000J0D01*
G01*
X183669000Y-132997000D01*
G75*
G02*
X183919000Y-133247000I0J-250000D01*
G01*
G37*
G04 #@! TD.AperFunction*
X153874000Y-102662000D03*
X153874000Y-105112000D03*
X153874000Y-107652000D03*
D10*
X158304000Y-105112000D03*
G04 #@! TA.AperFunction,SMDPad,CuDef*
G36*
G01*
X175925000Y-94560000D02*
X175925000Y-94260000D01*
G75*
G02*
X176075000Y-94110000I150000J0D01*
G01*
X177725000Y-94110000D01*
G75*
G02*
X177875000Y-94260000I0J-150000D01*
G01*
X177875000Y-94560000D01*
G75*
G02*
X177725000Y-94710000I-150000J0D01*
G01*
X176075000Y-94710000D01*
G75*
G02*
X175925000Y-94560000I0J150000D01*
G01*
G37*
G04 #@! TD.AperFunction*
G04 #@! TA.AperFunction,SMDPad,CuDef*
G36*
G01*
X175925000Y-93290000D02*
X175925000Y-92990000D01*
G75*
G02*
X176075000Y-92840000I150000J0D01*
G01*
X177725000Y-92840000D01*
G75*
G02*
X177875000Y-92990000I0J-150000D01*
G01*
X177875000Y-93290000D01*
G75*
G02*
X177725000Y-93440000I-150000J0D01*
G01*
X176075000Y-93440000D01*
G75*
G02*
X175925000Y-93290000I0J150000D01*
G01*
G37*
G04 #@! TD.AperFunction*
G04 #@! TA.AperFunction,SMDPad,CuDef*
G36*
G01*
X175925000Y-92020000D02*
X175925000Y-91720000D01*
G75*
G02*
X176075000Y-91570000I150000J0D01*
G01*
X177725000Y-91570000D01*
G75*
G02*
X177875000Y-91720000I0J-150000D01*
G01*
X177875000Y-92020000D01*
G75*
G02*
X177725000Y-92170000I-150000J0D01*
G01*
X176075000Y-92170000D01*
G75*
G02*
X175925000Y-92020000I0J150000D01*
G01*
G37*
G04 #@! TD.AperFunction*
G04 #@! TA.AperFunction,SMDPad,CuDef*
G36*
G01*
X175925000Y-90750000D02*
X175925000Y-90450000D01*
G75*
G02*
X176075000Y-90300000I150000J0D01*
G01*
X177725000Y-90300000D01*
G75*
G02*
X177875000Y-90450000I0J-150000D01*
G01*
X177875000Y-90750000D01*
G75*
G02*
X177725000Y-90900000I-150000J0D01*
G01*
X176075000Y-90900000D01*
G75*
G02*
X175925000Y-90750000I0J150000D01*
G01*
G37*
G04 #@! TD.AperFunction*
G04 #@! TA.AperFunction,SMDPad,CuDef*
G36*
G01*
X180875000Y-90750000D02*
X180875000Y-90450000D01*
G75*
G02*
X181025000Y-90300000I150000J0D01*
G01*
X182675000Y-90300000D01*
G75*
G02*
X182825000Y-90450000I0J-150000D01*
G01*
X182825000Y-90750000D01*
G75*
G02*
X182675000Y-90900000I-150000J0D01*
G01*
X181025000Y-90900000D01*
G75*
G02*
X180875000Y-90750000I0J150000D01*
G01*
G37*
G04 #@! TD.AperFunction*
G04 #@! TA.AperFunction,SMDPad,CuDef*
G36*
G01*
X180875000Y-92020000D02*
X180875000Y-91720000D01*
G75*
G02*
X181025000Y-91570000I150000J0D01*
G01*
X182675000Y-91570000D01*
G75*
G02*
X182825000Y-91720000I0J-150000D01*
G01*
X182825000Y-92020000D01*
G75*
G02*
X182675000Y-92170000I-150000J0D01*
G01*
X181025000Y-92170000D01*
G75*
G02*
X180875000Y-92020000I0J150000D01*
G01*
G37*
G04 #@! TD.AperFunction*
G04 #@! TA.AperFunction,SMDPad,CuDef*
G36*
G01*
X180875000Y-93290000D02*
X180875000Y-92990000D01*
G75*
G02*
X181025000Y-92840000I150000J0D01*
G01*
X182675000Y-92840000D01*
G75*
G02*
X182825000Y-92990000I0J-150000D01*
G01*
X182825000Y-93290000D01*
G75*
G02*
X182675000Y-93440000I-150000J0D01*
G01*
X181025000Y-93440000D01*
G75*
G02*
X180875000Y-93290000I0J150000D01*
G01*
G37*
G04 #@! TD.AperFunction*
G04 #@! TA.AperFunction,SMDPad,CuDef*
G36*
G01*
X180875000Y-94560000D02*
X180875000Y-94260000D01*
G75*
G02*
X181025000Y-94110000I150000J0D01*
G01*
X182675000Y-94110000D01*
G75*
G02*
X182825000Y-94260000I0J-150000D01*
G01*
X182825000Y-94560000D01*
G75*
G02*
X182675000Y-94710000I-150000J0D01*
G01*
X181025000Y-94710000D01*
G75*
G02*
X180875000Y-94560000I0J150000D01*
G01*
G37*
G04 #@! TD.AperFunction*
D12*
X182174000Y-119782000D03*
D11*
X177094000Y-119782000D03*
X179634000Y-122322000D03*
X179634000Y-117242000D03*
G04 #@! TA.AperFunction,SMDPad,CuDef*
G36*
G01*
X177249000Y-134477000D02*
X177249000Y-133227000D01*
G75*
G02*
X177499000Y-132977000I250000J0D01*
G01*
X178249000Y-132977000D01*
G75*
G02*
X178499000Y-133227000I0J-250000D01*
G01*
X178499000Y-134477000D01*
G75*
G02*
X178249000Y-134727000I-250000J0D01*
G01*
X177499000Y-134727000D01*
G75*
G02*
X177249000Y-134477000I0J250000D01*
G01*
G37*
G04 #@! TD.AperFunction*
G04 #@! TA.AperFunction,SMDPad,CuDef*
G36*
G01*
X180049000Y-134477000D02*
X180049000Y-133227000D01*
G75*
G02*
X180299000Y-132977000I250000J0D01*
G01*
X181049000Y-132977000D01*
G75*
G02*
X181299000Y-133227000I0J-250000D01*
G01*
X181299000Y-134477000D01*
G75*
G02*
X181049000Y-134727000I-250000J0D01*
G01*
X180299000Y-134727000D01*
G75*
G02*
X180049000Y-134477000I0J250000D01*
G01*
G37*
G04 #@! TD.AperFunction*
G04 #@! TA.AperFunction,SMDPad,CuDef*
G36*
G01*
X168855000Y-109305000D02*
X170105000Y-109305000D01*
G75*
G02*
X170355000Y-109555000I0J-250000D01*
G01*
X170355000Y-110305000D01*
G75*
G02*
X170105000Y-110555000I-250000J0D01*
G01*
X168855000Y-110555000D01*
G75*
G02*
X168605000Y-110305000I0J250000D01*
G01*
X168605000Y-109555000D01*
G75*
G02*
X168855000Y-109305000I250000J0D01*
G01*
G37*
G04 #@! TD.AperFunction*
G04 #@! TA.AperFunction,SMDPad,CuDef*
G36*
G01*
X168855000Y-106505000D02*
X170105000Y-106505000D01*
G75*
G02*
X170355000Y-106755000I0J-250000D01*
G01*
X170355000Y-107505000D01*
G75*
G02*
X170105000Y-107755000I-250000J0D01*
G01*
X168855000Y-107755000D01*
G75*
G02*
X168605000Y-107505000I0J250000D01*
G01*
X168605000Y-106755000D01*
G75*
G02*
X168855000Y-106505000I250000J0D01*
G01*
G37*
G04 #@! TD.AperFunction*
G04 #@! TA.AperFunction,SMDPad,CuDef*
G36*
G01*
X182615000Y-100715000D02*
X182615000Y-99465000D01*
G75*
G02*
X182865000Y-99215000I250000J0D01*
G01*
X183615000Y-99215000D01*
G75*
G02*
X183865000Y-99465000I0J-250000D01*
G01*
X183865000Y-100715000D01*
G75*
G02*
X183615000Y-100965000I-250000J0D01*
G01*
X182865000Y-100965000D01*
G75*
G02*
X182615000Y-100715000I0J250000D01*
G01*
G37*
G04 #@! TD.AperFunction*
G04 #@! TA.AperFunction,SMDPad,CuDef*
G36*
G01*
X185415000Y-100715000D02*
X185415000Y-99465000D01*
G75*
G02*
X185665000Y-99215000I250000J0D01*
G01*
X186415000Y-99215000D01*
G75*
G02*
X186665000Y-99465000I0J-250000D01*
G01*
X186665000Y-100715000D01*
G75*
G02*
X186415000Y-100965000I-250000J0D01*
G01*
X185665000Y-100965000D01*
G75*
G02*
X185415000Y-100715000I0J250000D01*
G01*
G37*
G04 #@! TD.AperFunction*
X175784000Y-155612000D03*
X178324000Y-155612000D03*
X180864000Y-155612000D03*
X183404000Y-155612000D03*
D15*
X175784000Y-145612000D03*
D11*
X178324000Y-145612000D03*
X180864000Y-145612000D03*
X183404000Y-145612000D03*
X185534000Y-104582000D03*
D12*
X188074000Y-104582000D03*
D11*
X179684000Y-109652000D03*
D12*
X179684000Y-107112000D03*
D16*
X179624000Y-102662000D02*
X182518000Y-102662000D01*
X183240000Y-101940000D02*
X183240000Y-100090000D01*
X182518000Y-102662000D02*
X183240000Y-101940000D01*
X176900000Y-94410000D02*
X173810000Y-94410000D01*
X172680000Y-95540000D02*
X172680000Y-97600000D01*
X173810000Y-94410000D02*
X172680000Y-95540000D01*
X168374000Y-93140000D02*
X167530000Y-92296000D01*
X176900000Y-93140000D02*
X168374000Y-93140000D01*
X169498000Y-107112000D02*
X169480000Y-107130000D01*
X179684000Y-107112000D02*
X169498000Y-107112000D01*
X169480000Y-104560000D02*
X169480000Y-107130000D01*
X169480000Y-104080000D02*
X169480000Y-104560000D01*
X178920000Y-94640000D02*
X169480000Y-104080000D01*
X178920000Y-92720000D02*
X178920000Y-94640000D01*
X176900000Y-91870000D02*
X178070000Y-91870000D01*
X178070000Y-91870000D02*
X178920000Y-92720000D01*
X172290000Y-112226000D02*
X174864000Y-109652000D01*
X172290000Y-117610000D02*
X172290000Y-112226000D01*
X179684000Y-109652000D02*
X186682000Y-109652000D01*
X186144000Y-133872000D02*
X187594000Y-133872000D01*
X176374000Y-133852000D02*
X177824000Y-133852000D01*
X175774000Y-127252000D02*
X175634000Y-127392000D01*
X164954000Y-94514000D02*
X164514000Y-94074000D01*
X153874000Y-107652000D02*
X153934000Y-107652000D01*
X179624000Y-100122000D02*
X179624000Y-95666000D01*
X180880000Y-94410000D02*
X181850000Y-94410000D01*
X179624000Y-95666000D02*
X180880000Y-94410000D01*
X153874000Y-107652000D02*
X153874000Y-126684000D01*
X158850000Y-131660000D02*
X158850000Y-135150000D01*
X153874000Y-126684000D02*
X158850000Y-131660000D01*
X190554000Y-115364000D02*
X190554000Y-130912000D01*
X179684000Y-109652000D02*
X180766000Y-109652000D01*
X174864000Y-109652000D02*
X179684000Y-109652000D01*
X190554000Y-113524000D02*
X190554000Y-115364000D01*
X186682000Y-109652000D02*
X190554000Y-113524000D01*
X175774000Y-133252000D02*
X176374000Y-133852000D01*
X175774000Y-127252000D02*
X175774000Y-133252000D01*
X187594000Y-133872000D02*
X187614000Y-133872000D01*
X190554000Y-130912000D02*
X187594000Y-133872000D01*
X174234000Y-141382000D02*
X174234000Y-139282000D01*
X177874000Y-135642000D02*
X177874000Y-133852000D01*
X174234000Y-139282000D02*
X177874000Y-135642000D01*
X183404000Y-155612000D02*
X183564000Y-155612000D01*
X190554000Y-148622000D02*
X190554000Y-130912000D01*
X183564000Y-155612000D02*
X190554000Y-148622000D01*
X179624000Y-100122000D02*
X180294000Y-100122000D01*
X177094000Y-119782000D02*
X177094000Y-122886000D01*
X175774000Y-124206000D02*
X175774000Y-127252000D01*
X177094000Y-122886000D02*
X175774000Y-124206000D01*
X174462000Y-119782000D02*
X172290000Y-117610000D01*
X177094000Y-119782000D02*
X174462000Y-119782000D01*
X174774000Y-156622000D02*
X175784000Y-155612000D01*
X174234000Y-156622000D02*
X174774000Y-156622000D01*
X159700000Y-101510000D02*
X163070000Y-104880000D01*
X163070000Y-104880000D02*
X163070000Y-136880000D01*
X188104000Y-90216000D02*
X188104000Y-104552000D01*
X188110000Y-88470000D02*
X188110000Y-90210000D01*
X188104000Y-104552000D02*
X188074000Y-104582000D01*
X188110000Y-90210000D02*
X188104000Y-90216000D01*
X160980000Y-83930000D02*
X153874000Y-91036000D01*
X153874000Y-91036000D02*
X153874000Y-102662000D01*
X188110000Y-88470000D02*
X188110000Y-86070000D01*
X185970000Y-83930000D02*
X160980000Y-83930000D01*
X188110000Y-86070000D02*
X185970000Y-83930000D01*
X163610000Y-97600000D02*
X159700000Y-101510000D01*
X169880000Y-97600000D02*
X163610000Y-97600000D01*
X162260000Y-137690000D02*
X158850000Y-137690000D01*
X155138000Y-102662000D02*
X156290000Y-101510000D01*
X153874000Y-102662000D02*
X155138000Y-102662000D01*
X163070000Y-136880000D02*
X162260000Y-137690000D01*
X156290000Y-101510000D02*
X159700000Y-101510000D01*
X180854000Y-127252000D02*
X180714000Y-127392000D01*
X182174000Y-119782000D02*
X182174000Y-123342000D01*
X180854000Y-124662000D02*
X180854000Y-127252000D01*
X169290000Y-159100000D02*
X164295000Y-154105000D01*
X178324000Y-155612000D02*
X178324000Y-157626000D01*
X176850000Y-159100000D02*
X169290000Y-159100000D01*
X164295000Y-154105000D02*
X164295000Y-146925000D01*
X164295000Y-146925000D02*
X167298000Y-143922000D01*
X182174000Y-123342000D02*
X180854000Y-124662000D01*
X180854000Y-127252000D02*
X180854000Y-131632000D01*
X180674000Y-131812000D02*
X180674000Y-133852000D01*
X180854000Y-131632000D02*
X180674000Y-131812000D01*
X180674000Y-136724000D02*
X180674000Y-133852000D01*
X185944000Y-141994000D02*
X180674000Y-136724000D01*
X185944000Y-146482000D02*
X185944000Y-141994000D01*
X178324000Y-155612000D02*
X178324000Y-154102000D01*
X178324000Y-154102000D02*
X185944000Y-146482000D01*
X158850000Y-140230000D02*
X163640000Y-140230000D01*
X167332000Y-143922000D02*
X174234000Y-143922000D01*
X163640000Y-140230000D02*
X167332000Y-143922000D01*
X167298000Y-143922000D02*
X167332000Y-143922000D01*
X178324000Y-157626000D02*
X176850000Y-159100000D01*
X183254000Y-127392000D02*
X183394000Y-127252000D01*
X183394000Y-125896000D02*
X183394000Y-127252000D01*
X185434000Y-123856000D02*
X183394000Y-125896000D01*
X185434000Y-119304000D02*
X185434000Y-123856000D01*
X179634000Y-117242000D02*
X183372000Y-117242000D01*
X183372000Y-117242000D02*
X185434000Y-119304000D01*
X187644000Y-140772000D02*
X183394000Y-136522000D01*
X183394000Y-136522000D02*
X183394000Y-127252000D01*
X187644000Y-147772000D02*
X187644000Y-140772000D01*
X180864000Y-155612000D02*
X180864000Y-154552000D01*
X180864000Y-154552000D02*
X187644000Y-147772000D01*
X180864000Y-158086000D02*
X180864000Y-155612000D01*
X156750000Y-142770000D02*
X155780000Y-143740000D01*
X155780000Y-143740000D02*
X155780000Y-149590000D01*
X158850000Y-142770000D02*
X156750000Y-142770000D01*
X167130000Y-160940000D02*
X178010000Y-160940000D01*
X155780000Y-149590000D02*
X167130000Y-160940000D01*
X178010000Y-160940000D02*
X180864000Y-158086000D01*
D17*
X196519016Y-82602312D02*
X196950930Y-82732714D01*
X197349285Y-82944524D01*
X197698914Y-83229675D01*
X197986497Y-83577303D01*
X198201086Y-83974177D01*
X198334498Y-84405161D01*
X198385001Y-84885663D01*
X198385000Y-158846495D01*
X198337688Y-159329016D01*
X198207287Y-159760927D01*
X197995480Y-160159280D01*
X197710325Y-160508914D01*
X197362697Y-160796497D01*
X196965825Y-161011085D01*
X196534834Y-161144500D01*
X196054346Y-161195000D01*
X179360131Y-161195000D01*
X181627146Y-158927987D01*
X181670449Y-158892449D01*
X181723776Y-158827471D01*
X181812284Y-158719623D01*
X181917676Y-158522447D01*
X181982577Y-158308499D01*
X181986078Y-158272950D01*
X181995245Y-158179872D01*
X193395000Y-158179872D01*
X193395000Y-158620128D01*
X193480890Y-159051925D01*
X193649369Y-159458669D01*
X193893962Y-159824729D01*
X194205271Y-160136038D01*
X194571331Y-160380631D01*
X194978075Y-160549110D01*
X195409872Y-160635000D01*
X195850128Y-160635000D01*
X196281925Y-160549110D01*
X196688669Y-160380631D01*
X197054729Y-160136038D01*
X197366038Y-159824729D01*
X197610631Y-159458669D01*
X197779110Y-159051925D01*
X197865000Y-158620128D01*
X197865000Y-158179872D01*
X197779110Y-157748075D01*
X197610631Y-157341331D01*
X197366038Y-156975271D01*
X197054729Y-156663962D01*
X196688669Y-156419369D01*
X196281925Y-156250890D01*
X195850128Y-156165000D01*
X195409872Y-156165000D01*
X194978075Y-156250890D01*
X194571331Y-156419369D01*
X194205271Y-156663962D01*
X193893962Y-156975271D01*
X193649369Y-157341331D01*
X193480890Y-157748075D01*
X193395000Y-158179872D01*
X181995245Y-158179872D01*
X181999000Y-158141752D01*
X181999000Y-158141751D01*
X182004491Y-158086000D01*
X181999000Y-158030248D01*
X181999000Y-156789239D01*
X182133987Y-156654252D01*
X182134000Y-156654233D01*
X182134013Y-156654252D01*
X182361748Y-156881987D01*
X182629537Y-157060918D01*
X182927088Y-157184168D01*
X183242967Y-157247000D01*
X183565033Y-157247000D01*
X183880912Y-157184168D01*
X184178463Y-157060918D01*
X184446252Y-156881987D01*
X184673987Y-156654252D01*
X184852918Y-156386463D01*
X184976168Y-156088912D01*
X185039000Y-155773033D01*
X185039000Y-155742131D01*
X191317141Y-149463991D01*
X191360449Y-149428449D01*
X191502284Y-149255623D01*
X191607676Y-149058447D01*
X191672577Y-148844499D01*
X191689000Y-148677752D01*
X191689000Y-148677751D01*
X191694491Y-148622000D01*
X191689000Y-148566248D01*
X191689000Y-130967752D01*
X191694491Y-130912001D01*
X191689000Y-130856248D01*
X191689000Y-113579751D01*
X191694491Y-113524000D01*
X191672577Y-113301501D01*
X191607676Y-113087553D01*
X191578222Y-113032448D01*
X191502284Y-112890377D01*
X191360449Y-112717551D01*
X191317141Y-112682009D01*
X187523996Y-108888865D01*
X187488449Y-108845551D01*
X187315623Y-108703716D01*
X187118447Y-108598324D01*
X186904499Y-108533423D01*
X186737752Y-108517000D01*
X186737751Y-108517000D01*
X186682000Y-108511509D01*
X186626249Y-108517000D01*
X181173088Y-108517000D01*
X181214537Y-108466494D01*
X181273502Y-108356180D01*
X181309812Y-108236482D01*
X181322072Y-108112000D01*
X181322072Y-106112000D01*
X181309812Y-105987518D01*
X181273502Y-105867820D01*
X181214537Y-105757506D01*
X181135185Y-105660815D01*
X181038494Y-105581463D01*
X180928180Y-105522498D01*
X180808482Y-105486188D01*
X180684000Y-105473928D01*
X178684000Y-105473928D01*
X178559518Y-105486188D01*
X178439820Y-105522498D01*
X178329506Y-105581463D01*
X178232815Y-105660815D01*
X178153463Y-105757506D01*
X178094498Y-105867820D01*
X178061379Y-105977000D01*
X170615000Y-105977000D01*
X170615000Y-104644595D01*
X183892282Y-104644595D01*
X183936039Y-104963675D01*
X184041205Y-105268088D01*
X184134186Y-105442044D01*
X184398587Y-105537808D01*
X185354395Y-104582000D01*
X184398587Y-103626192D01*
X184134186Y-103721956D01*
X183993296Y-104011571D01*
X183911616Y-104323108D01*
X183892282Y-104644595D01*
X170615000Y-104644595D01*
X170615000Y-104550131D01*
X178489001Y-96676131D01*
X178489000Y-98499378D01*
X178379820Y-98532498D01*
X178269506Y-98591463D01*
X178172815Y-98670815D01*
X178093463Y-98767506D01*
X178034498Y-98877820D01*
X177998188Y-98997518D01*
X177985928Y-99122000D01*
X177985928Y-101122000D01*
X177998188Y-101246482D01*
X178034498Y-101366180D01*
X178093463Y-101476494D01*
X178172815Y-101573185D01*
X178269506Y-101652537D01*
X178315630Y-101677191D01*
X178175082Y-101887537D01*
X178051832Y-102185088D01*
X177989000Y-102500967D01*
X177989000Y-102823033D01*
X178051832Y-103138912D01*
X178175082Y-103436463D01*
X178354013Y-103704252D01*
X178581748Y-103931987D01*
X178849537Y-104110918D01*
X179147088Y-104234168D01*
X179462967Y-104297000D01*
X179785033Y-104297000D01*
X180100912Y-104234168D01*
X180398463Y-104110918D01*
X180666252Y-103931987D01*
X180801239Y-103797000D01*
X182462249Y-103797000D01*
X182518000Y-103802491D01*
X182573751Y-103797000D01*
X182573752Y-103797000D01*
X182740499Y-103780577D01*
X182954447Y-103715676D01*
X183151623Y-103610284D01*
X183324449Y-103468449D01*
X183359996Y-103425135D01*
X184003135Y-102781996D01*
X184046449Y-102746449D01*
X184188284Y-102573623D01*
X184293676Y-102376447D01*
X184358577Y-102162499D01*
X184375000Y-101995752D01*
X184375000Y-101995745D01*
X184380490Y-101940001D01*
X184375000Y-101884257D01*
X184375000Y-101167985D01*
X184435472Y-101054850D01*
X184462727Y-100965000D01*
X184776928Y-100965000D01*
X184789188Y-101089482D01*
X184825498Y-101209180D01*
X184884463Y-101319494D01*
X184963815Y-101416185D01*
X185060506Y-101495537D01*
X185170820Y-101554502D01*
X185290518Y-101590812D01*
X185415000Y-101603072D01*
X185754250Y-101600000D01*
X185913000Y-101441250D01*
X185913000Y-100217000D01*
X184938750Y-100217000D01*
X184780000Y-100375750D01*
X184776928Y-100965000D01*
X184462727Y-100965000D01*
X184486008Y-100888254D01*
X184503072Y-100715000D01*
X184503072Y-99465000D01*
X184486008Y-99291746D01*
X184462728Y-99215000D01*
X184776928Y-99215000D01*
X184780000Y-99804250D01*
X184938750Y-99963000D01*
X185913000Y-99963000D01*
X185913000Y-98738750D01*
X185754250Y-98580000D01*
X185415000Y-98576928D01*
X185290518Y-98589188D01*
X185170820Y-98625498D01*
X185060506Y-98684463D01*
X184963815Y-98763815D01*
X184884463Y-98860506D01*
X184825498Y-98970820D01*
X184789188Y-99090518D01*
X184776928Y-99215000D01*
X184462728Y-99215000D01*
X184435472Y-99125150D01*
X184353405Y-98971614D01*
X184242962Y-98837038D01*
X184108386Y-98726595D01*
X183954850Y-98644528D01*
X183788254Y-98593992D01*
X183615000Y-98576928D01*
X182865000Y-98576928D01*
X182691746Y-98593992D01*
X182525150Y-98644528D01*
X182371614Y-98726595D01*
X182237038Y-98837038D01*
X182126595Y-98971614D01*
X182044528Y-99125150D01*
X181993992Y-99291746D01*
X181976928Y-99465000D01*
X181976928Y-100715000D01*
X181993992Y-100888254D01*
X182044528Y-101054850D01*
X182105000Y-101167986D01*
X182105000Y-101469869D01*
X182047869Y-101527000D01*
X181113088Y-101527000D01*
X181154537Y-101476494D01*
X181213502Y-101366180D01*
X181249812Y-101246482D01*
X181262072Y-101122000D01*
X181262072Y-100718602D01*
X181347676Y-100558447D01*
X181412577Y-100344499D01*
X181434491Y-100122000D01*
X181412577Y-99899501D01*
X181347676Y-99685553D01*
X181262072Y-99525398D01*
X181262072Y-99122000D01*
X181249812Y-98997518D01*
X181213502Y-98877820D01*
X181154537Y-98767506D01*
X181075185Y-98670815D01*
X180978494Y-98591463D01*
X180868180Y-98532498D01*
X180759000Y-98499379D01*
X180759000Y-96136131D01*
X181350132Y-95545000D01*
X181905752Y-95545000D01*
X182072499Y-95528577D01*
X182286447Y-95463676D01*
X182483623Y-95358284D01*
X182496066Y-95348072D01*
X182675000Y-95348072D01*
X182828745Y-95332929D01*
X182976582Y-95288084D01*
X183112829Y-95215258D01*
X183232251Y-95117251D01*
X183330258Y-94997829D01*
X183403084Y-94861582D01*
X183447929Y-94713745D01*
X183463072Y-94560000D01*
X183463072Y-94260000D01*
X183447929Y-94106255D01*
X183403084Y-93958418D01*
X183330258Y-93822171D01*
X183291546Y-93775000D01*
X183330258Y-93727829D01*
X183403084Y-93591582D01*
X183447929Y-93443745D01*
X183463072Y-93290000D01*
X183463072Y-92990000D01*
X183447929Y-92836255D01*
X183403084Y-92688418D01*
X183330258Y-92552171D01*
X183291546Y-92505000D01*
X183330258Y-92457829D01*
X183403084Y-92321582D01*
X183447929Y-92173745D01*
X183463072Y-92020000D01*
X183463072Y-91720000D01*
X183447929Y-91566255D01*
X183403084Y-91418418D01*
X183330258Y-91282171D01*
X183291546Y-91235000D01*
X183330258Y-91187829D01*
X183403084Y-91051582D01*
X183447929Y-90903745D01*
X183463072Y-90750000D01*
X183463072Y-90450000D01*
X183447929Y-90296255D01*
X183403084Y-90148418D01*
X183330258Y-90012171D01*
X183232251Y-89892749D01*
X183112829Y-89794742D01*
X182976582Y-89721916D01*
X182828745Y-89677071D01*
X182675000Y-89661928D01*
X181025000Y-89661928D01*
X180871255Y-89677071D01*
X180723418Y-89721916D01*
X180587171Y-89794742D01*
X180467749Y-89892749D01*
X180369742Y-90012171D01*
X180296916Y-90148418D01*
X180252071Y-90296255D01*
X180236928Y-90450000D01*
X180236928Y-90750000D01*
X180252071Y-90903745D01*
X180296916Y-91051582D01*
X180369742Y-91187829D01*
X180408454Y-91235000D01*
X180369742Y-91282171D01*
X180296916Y-91418418D01*
X180252071Y-91566255D01*
X180236928Y-91720000D01*
X180236928Y-92020000D01*
X180252071Y-92173745D01*
X180296916Y-92321582D01*
X180369742Y-92457829D01*
X180408454Y-92505000D01*
X180369742Y-92552171D01*
X180296916Y-92688418D01*
X180252071Y-92836255D01*
X180236928Y-92990000D01*
X180236928Y-93290000D01*
X180252071Y-93443745D01*
X180255967Y-93456590D01*
X180246377Y-93461716D01*
X180073551Y-93603551D01*
X180055000Y-93626155D01*
X180055000Y-92775752D01*
X180060491Y-92720000D01*
X180051143Y-92625082D01*
X180038577Y-92497501D01*
X179973676Y-92283553D01*
X179868284Y-92086377D01*
X179839179Y-92050912D01*
X179761989Y-91956856D01*
X179761987Y-91956854D01*
X179726449Y-91913551D01*
X179683145Y-91878013D01*
X178911995Y-91106864D01*
X178876449Y-91063551D01*
X178703623Y-90921716D01*
X178506447Y-90816324D01*
X178411890Y-90787640D01*
X178351250Y-90727000D01*
X177027000Y-90727000D01*
X177027000Y-90735000D01*
X176844248Y-90735000D01*
X176773000Y-90742017D01*
X176773000Y-90727000D01*
X175448750Y-90727000D01*
X175290000Y-90885750D01*
X175286928Y-90900000D01*
X175299188Y-91024482D01*
X175335498Y-91144180D01*
X175394463Y-91254494D01*
X175418730Y-91284064D01*
X175346916Y-91418418D01*
X175302071Y-91566255D01*
X175286928Y-91720000D01*
X175286928Y-92005000D01*
X168844132Y-92005000D01*
X168636584Y-91797453D01*
X168649000Y-91735033D01*
X168649000Y-91412967D01*
X168586168Y-91097088D01*
X168462918Y-90799537D01*
X168283987Y-90531748D01*
X168056252Y-90304013D01*
X168050247Y-90300000D01*
X175286928Y-90300000D01*
X175290000Y-90314250D01*
X175448750Y-90473000D01*
X176773000Y-90473000D01*
X176773000Y-89823750D01*
X177027000Y-89823750D01*
X177027000Y-90473000D01*
X178351250Y-90473000D01*
X178510000Y-90314250D01*
X178513072Y-90300000D01*
X178500812Y-90175518D01*
X178464502Y-90055820D01*
X178405537Y-89945506D01*
X178326185Y-89848815D01*
X178229494Y-89769463D01*
X178119180Y-89710498D01*
X177999482Y-89674188D01*
X177875000Y-89661928D01*
X177185750Y-89665000D01*
X177027000Y-89823750D01*
X176773000Y-89823750D01*
X176614250Y-89665000D01*
X175925000Y-89661928D01*
X175800518Y-89674188D01*
X175680820Y-89710498D01*
X175570506Y-89769463D01*
X175473815Y-89848815D01*
X175394463Y-89945506D01*
X175335498Y-90055820D01*
X175299188Y-90175518D01*
X175286928Y-90300000D01*
X168050247Y-90300000D01*
X167788463Y-90125082D01*
X167490912Y-90001832D01*
X167175033Y-89939000D01*
X166852967Y-89939000D01*
X166537088Y-90001832D01*
X166239537Y-90125082D01*
X165971748Y-90304013D01*
X165744013Y-90531748D01*
X165565082Y-90799537D01*
X165441832Y-91097088D01*
X165379000Y-91412967D01*
X165379000Y-91735033D01*
X165441832Y-92050912D01*
X165565082Y-92348463D01*
X165744013Y-92616252D01*
X165971748Y-92843987D01*
X166239537Y-93022918D01*
X166537088Y-93146168D01*
X166834120Y-93205251D01*
X167532008Y-93903140D01*
X167567551Y-93946449D01*
X167740377Y-94088284D01*
X167937553Y-94193676D01*
X168151501Y-94258577D01*
X168318248Y-94275000D01*
X168318257Y-94275000D01*
X168373999Y-94280490D01*
X168429741Y-94275000D01*
X172339869Y-94275000D01*
X171916864Y-94698004D01*
X171873551Y-94733551D01*
X171731716Y-94906377D01*
X171658357Y-95043624D01*
X171626324Y-95103554D01*
X171561423Y-95317502D01*
X171539509Y-95540000D01*
X171545000Y-95595752D01*
X171545000Y-96522014D01*
X171484528Y-96635150D01*
X171433992Y-96801746D01*
X171416928Y-96975000D01*
X171416928Y-98225000D01*
X171433992Y-98398254D01*
X171484528Y-98564850D01*
X171566595Y-98718386D01*
X171677038Y-98852962D01*
X171811614Y-98963405D01*
X171965150Y-99045472D01*
X172131746Y-99096008D01*
X172305000Y-99113072D01*
X172841797Y-99113072D01*
X168716865Y-103238004D01*
X168673551Y-103273551D01*
X168531716Y-103446377D01*
X168459225Y-103582000D01*
X168426324Y-103643554D01*
X168361423Y-103857502D01*
X168339509Y-104080000D01*
X168345000Y-104135751D01*
X168345000Y-104504249D01*
X168345001Y-106030229D01*
X168227038Y-106127038D01*
X168116595Y-106261614D01*
X168034528Y-106415150D01*
X167983992Y-106581746D01*
X167966928Y-106755000D01*
X167966928Y-107505000D01*
X167983992Y-107678254D01*
X168034528Y-107844850D01*
X168116595Y-107998386D01*
X168227038Y-108132962D01*
X168361614Y-108243405D01*
X168515150Y-108325472D01*
X168681746Y-108376008D01*
X168855000Y-108393072D01*
X170105000Y-108393072D01*
X170278254Y-108376008D01*
X170444850Y-108325472D01*
X170591660Y-108247000D01*
X178061379Y-108247000D01*
X178094498Y-108356180D01*
X178153463Y-108466494D01*
X178194912Y-108517000D01*
X174919752Y-108517000D01*
X174864000Y-108511509D01*
X174641501Y-108533423D01*
X174427553Y-108598324D01*
X174230377Y-108703716D01*
X174100856Y-108810011D01*
X174100855Y-108810012D01*
X174057551Y-108845551D01*
X174022013Y-108888854D01*
X171526860Y-111384009D01*
X171483552Y-111419551D01*
X171341717Y-111592377D01*
X171285384Y-111697770D01*
X171236324Y-111789554D01*
X171171423Y-112003502D01*
X171149509Y-112226000D01*
X171155001Y-112281761D01*
X171155000Y-117554248D01*
X171149509Y-117610000D01*
X171155000Y-117665751D01*
X171171423Y-117832498D01*
X171236324Y-118046446D01*
X171341716Y-118243623D01*
X171483551Y-118416449D01*
X171526865Y-118451996D01*
X173620009Y-120545141D01*
X173655551Y-120588449D01*
X173828377Y-120730284D01*
X174025553Y-120835676D01*
X174239501Y-120900577D01*
X174462000Y-120922491D01*
X174517752Y-120917000D01*
X175916761Y-120917000D01*
X175959000Y-120959239D01*
X175959001Y-122415867D01*
X175010865Y-123364004D01*
X174967551Y-123399551D01*
X174825716Y-123572377D01*
X174720325Y-123769553D01*
X174720324Y-123769554D01*
X174655423Y-123983502D01*
X174633509Y-124206000D01*
X174639000Y-124261752D01*
X174639001Y-126074760D01*
X174504013Y-126209748D01*
X174325082Y-126477537D01*
X174201832Y-126775088D01*
X174139000Y-127090967D01*
X174139000Y-127413033D01*
X174201832Y-127728912D01*
X174325082Y-128026463D01*
X174504013Y-128294252D01*
X174639000Y-128429239D01*
X174639001Y-133196239D01*
X174633509Y-133252000D01*
X174655423Y-133474498D01*
X174720324Y-133688446D01*
X174769384Y-133780230D01*
X174825717Y-133885623D01*
X174967552Y-134058449D01*
X175010860Y-134093991D01*
X175532004Y-134615135D01*
X175567551Y-134658449D01*
X175740377Y-134800284D01*
X175937553Y-134905676D01*
X176101705Y-134955471D01*
X176151500Y-134970577D01*
X176373999Y-134992491D01*
X176429751Y-134987000D01*
X176739000Y-134987000D01*
X176739000Y-135171868D01*
X173470860Y-138440009D01*
X173427552Y-138475551D01*
X173285717Y-138648377D01*
X173240885Y-138732252D01*
X173180324Y-138845554D01*
X173115423Y-139059502D01*
X173093509Y-139282000D01*
X173099001Y-139337761D01*
X173099001Y-140204760D01*
X172964013Y-140339748D01*
X172785082Y-140607537D01*
X172661832Y-140905088D01*
X172599000Y-141220967D01*
X172599000Y-141543033D01*
X172661832Y-141858912D01*
X172785082Y-142156463D01*
X172964013Y-142424252D01*
X173191748Y-142651987D01*
X173191767Y-142652000D01*
X173191748Y-142652013D01*
X173056761Y-142787000D01*
X167802132Y-142787000D01*
X164481996Y-139466865D01*
X164446449Y-139423551D01*
X164273623Y-139281716D01*
X164076447Y-139176324D01*
X163862499Y-139111423D01*
X163695752Y-139095000D01*
X163695751Y-139095000D01*
X163640000Y-139089509D01*
X163584249Y-139095000D01*
X160027239Y-139095000D01*
X159892252Y-138960013D01*
X159892233Y-138960000D01*
X159892252Y-138959987D01*
X160027239Y-138825000D01*
X162204249Y-138825000D01*
X162260000Y-138830491D01*
X162315751Y-138825000D01*
X162315752Y-138825000D01*
X162482499Y-138808577D01*
X162696447Y-138743676D01*
X162893623Y-138638284D01*
X163066449Y-138496449D01*
X163101995Y-138453136D01*
X163833140Y-137721992D01*
X163876449Y-137686449D01*
X164018284Y-137513623D01*
X164123676Y-137316447D01*
X164188577Y-137102499D01*
X164205000Y-136935752D01*
X164210491Y-136880000D01*
X164205000Y-136824249D01*
X164205000Y-110555000D01*
X167966928Y-110555000D01*
X167979188Y-110679482D01*
X168015498Y-110799180D01*
X168074463Y-110909494D01*
X168153815Y-111006185D01*
X168250506Y-111085537D01*
X168360820Y-111144502D01*
X168480518Y-111180812D01*
X168605000Y-111193072D01*
X169194250Y-111190000D01*
X169353000Y-111031250D01*
X169353000Y-110057000D01*
X169607000Y-110057000D01*
X169607000Y-111031250D01*
X169765750Y-111190000D01*
X170355000Y-111193072D01*
X170479482Y-111180812D01*
X170599180Y-111144502D01*
X170709494Y-111085537D01*
X170806185Y-111006185D01*
X170885537Y-110909494D01*
X170944502Y-110799180D01*
X170980812Y-110679482D01*
X170993072Y-110555000D01*
X170990000Y-110215750D01*
X170831250Y-110057000D01*
X169607000Y-110057000D01*
X169353000Y-110057000D01*
X168128750Y-110057000D01*
X167970000Y-110215750D01*
X167966928Y-110555000D01*
X164205000Y-110555000D01*
X164205000Y-109305000D01*
X167966928Y-109305000D01*
X167970000Y-109644250D01*
X168128750Y-109803000D01*
X169353000Y-109803000D01*
X169353000Y-108828750D01*
X169607000Y-108828750D01*
X169607000Y-109803000D01*
X170831250Y-109803000D01*
X170990000Y-109644250D01*
X170993072Y-109305000D01*
X170980812Y-109180518D01*
X170944502Y-109060820D01*
X170885537Y-108950506D01*
X170806185Y-108853815D01*
X170709494Y-108774463D01*
X170599180Y-108715498D01*
X170479482Y-108679188D01*
X170355000Y-108666928D01*
X169765750Y-108670000D01*
X169607000Y-108828750D01*
X169353000Y-108828750D01*
X169194250Y-108670000D01*
X168605000Y-108666928D01*
X168480518Y-108679188D01*
X168360820Y-108715498D01*
X168250506Y-108774463D01*
X168153815Y-108853815D01*
X168074463Y-108950506D01*
X168015498Y-109060820D01*
X167979188Y-109180518D01*
X167966928Y-109305000D01*
X164205000Y-109305000D01*
X164205000Y-104935752D01*
X164210491Y-104880000D01*
X164188577Y-104657501D01*
X164123676Y-104443553D01*
X164018284Y-104246377D01*
X163911989Y-104116856D01*
X163911987Y-104116854D01*
X163876449Y-104073551D01*
X163833146Y-104038013D01*
X161305131Y-101510000D01*
X164080132Y-98735000D01*
X168780230Y-98735000D01*
X168877038Y-98852962D01*
X169011614Y-98963405D01*
X169165150Y-99045472D01*
X169331746Y-99096008D01*
X169505000Y-99113072D01*
X170255000Y-99113072D01*
X170428254Y-99096008D01*
X170594850Y-99045472D01*
X170748386Y-98963405D01*
X170882962Y-98852962D01*
X170993405Y-98718386D01*
X171075472Y-98564850D01*
X171126008Y-98398254D01*
X171143072Y-98225000D01*
X171143072Y-96975000D01*
X171126008Y-96801746D01*
X171075472Y-96635150D01*
X170993405Y-96481614D01*
X170882962Y-96347038D01*
X170748386Y-96236595D01*
X170594850Y-96154528D01*
X170428254Y-96103992D01*
X170255000Y-96086928D01*
X169505000Y-96086928D01*
X169331746Y-96103992D01*
X169165150Y-96154528D01*
X169011614Y-96236595D01*
X168877038Y-96347038D01*
X168780230Y-96465000D01*
X163665751Y-96465000D01*
X163609999Y-96459509D01*
X163387501Y-96481423D01*
X163173553Y-96546324D01*
X162976377Y-96651716D01*
X162803551Y-96793551D01*
X162768009Y-96836859D01*
X159229869Y-100375000D01*
X156345751Y-100375000D01*
X156289999Y-100369509D01*
X156234248Y-100375000D01*
X156067501Y-100391423D01*
X155853553Y-100456324D01*
X155656377Y-100561716D01*
X155483551Y-100703551D01*
X155448011Y-100746857D01*
X155009000Y-101185868D01*
X155009000Y-93912967D01*
X162879000Y-93912967D01*
X162879000Y-94235033D01*
X162941832Y-94550912D01*
X163065082Y-94848463D01*
X163244013Y-95116252D01*
X163471748Y-95343987D01*
X163739537Y-95522918D01*
X164037088Y-95646168D01*
X164352967Y-95709000D01*
X164675033Y-95709000D01*
X164950702Y-95654166D01*
X164954000Y-95654491D01*
X165176498Y-95632577D01*
X165390446Y-95567676D01*
X165587622Y-95462283D01*
X165760448Y-95320448D01*
X165902283Y-95147622D01*
X166007676Y-94950446D01*
X166072577Y-94736498D01*
X166094491Y-94514000D01*
X166094166Y-94510702D01*
X166149000Y-94235033D01*
X166149000Y-93912967D01*
X166086168Y-93597088D01*
X165962918Y-93299537D01*
X165783987Y-93031748D01*
X165556252Y-92804013D01*
X165288463Y-92625082D01*
X164990912Y-92501832D01*
X164675033Y-92439000D01*
X164352967Y-92439000D01*
X164037088Y-92501832D01*
X163739537Y-92625082D01*
X163471748Y-92804013D01*
X163244013Y-93031748D01*
X163065082Y-93299537D01*
X162941832Y-93597088D01*
X162879000Y-93912967D01*
X155009000Y-93912967D01*
X155009000Y-91506131D01*
X156305718Y-90209413D01*
X163558192Y-90209413D01*
X163653956Y-90473814D01*
X163943571Y-90614704D01*
X164255108Y-90696384D01*
X164576595Y-90715718D01*
X164895675Y-90671961D01*
X165200088Y-90566795D01*
X165374044Y-90473814D01*
X165469808Y-90209413D01*
X164514000Y-89253605D01*
X163558192Y-90209413D01*
X156305718Y-90209413D01*
X157378536Y-89136595D01*
X162872282Y-89136595D01*
X162916039Y-89455675D01*
X163021205Y-89760088D01*
X163114186Y-89934044D01*
X163378587Y-90029808D01*
X164334395Y-89074000D01*
X164693605Y-89074000D01*
X165649413Y-90029808D01*
X165913814Y-89934044D01*
X166054704Y-89644429D01*
X166136384Y-89332892D01*
X166155718Y-89011405D01*
X166111961Y-88692325D01*
X166006795Y-88387912D01*
X165913814Y-88213956D01*
X165649413Y-88118192D01*
X164693605Y-89074000D01*
X164334395Y-89074000D01*
X163378587Y-88118192D01*
X163114186Y-88213956D01*
X162973296Y-88503571D01*
X162891616Y-88815108D01*
X162872282Y-89136595D01*
X157378536Y-89136595D01*
X158576544Y-87938587D01*
X163558192Y-87938587D01*
X164514000Y-88894395D01*
X165469808Y-87938587D01*
X165374044Y-87674186D01*
X165084429Y-87533296D01*
X164772892Y-87451616D01*
X164451405Y-87432282D01*
X164132325Y-87476039D01*
X163827912Y-87581205D01*
X163653956Y-87674186D01*
X163558192Y-87938587D01*
X158576544Y-87938587D01*
X161450133Y-85065000D01*
X185499869Y-85065000D01*
X186975001Y-86540133D01*
X186975000Y-88414248D01*
X186975000Y-90099329D01*
X186963509Y-90216000D01*
X186969000Y-90271751D01*
X186969001Y-98657473D01*
X186909180Y-98625498D01*
X186789482Y-98589188D01*
X186665000Y-98576928D01*
X186325750Y-98580000D01*
X186167000Y-98738750D01*
X186167000Y-99963000D01*
X186187000Y-99963000D01*
X186187000Y-100217000D01*
X186167000Y-100217000D01*
X186167000Y-101441250D01*
X186325750Y-101600000D01*
X186665000Y-101603072D01*
X186789482Y-101590812D01*
X186909180Y-101554502D01*
X186969001Y-101522527D01*
X186969001Y-102954269D01*
X186949518Y-102956188D01*
X186829820Y-102992498D01*
X186719506Y-103051463D01*
X186622815Y-103130815D01*
X186543463Y-103227506D01*
X186484498Y-103337820D01*
X186468963Y-103389033D01*
X186394044Y-103182186D01*
X186104429Y-103041296D01*
X185792892Y-102959616D01*
X185471405Y-102940282D01*
X185152325Y-102984039D01*
X184847912Y-103089205D01*
X184673956Y-103182186D01*
X184578192Y-103446587D01*
X185534000Y-104402395D01*
X185548143Y-104388253D01*
X185727748Y-104567858D01*
X185713605Y-104582000D01*
X185727748Y-104596143D01*
X185548143Y-104775748D01*
X185534000Y-104761605D01*
X184578192Y-105717413D01*
X184673956Y-105981814D01*
X184963571Y-106122704D01*
X185275108Y-106204384D01*
X185596595Y-106223718D01*
X185915675Y-106179961D01*
X186220088Y-106074795D01*
X186394044Y-105981814D01*
X186468963Y-105774967D01*
X186484498Y-105826180D01*
X186543463Y-105936494D01*
X186622815Y-106033185D01*
X186719506Y-106112537D01*
X186829820Y-106171502D01*
X186949518Y-106207812D01*
X187074000Y-106220072D01*
X189074000Y-106220072D01*
X189198482Y-106207812D01*
X189318180Y-106171502D01*
X189428494Y-106112537D01*
X189525185Y-106033185D01*
X189604537Y-105936494D01*
X189663502Y-105826180D01*
X189699812Y-105706482D01*
X189712072Y-105582000D01*
X189712072Y-103582000D01*
X189699812Y-103457518D01*
X189663502Y-103337820D01*
X189604537Y-103227506D01*
X189525185Y-103130815D01*
X189428494Y-103051463D01*
X189318180Y-102992498D01*
X189239000Y-102968479D01*
X189239000Y-90326672D01*
X189245000Y-90265752D01*
X189245000Y-90265742D01*
X189250490Y-90210001D01*
X189245000Y-90154259D01*
X189245000Y-86125751D01*
X189250491Y-86069999D01*
X189228577Y-85847501D01*
X189163676Y-85633553D01*
X189125028Y-85561247D01*
X189058284Y-85436377D01*
X188916449Y-85263551D01*
X188873141Y-85228009D01*
X188735004Y-85089872D01*
X193385000Y-85089872D01*
X193385000Y-85530128D01*
X193470890Y-85961925D01*
X193639369Y-86368669D01*
X193883962Y-86734729D01*
X194195271Y-87046038D01*
X194561331Y-87290631D01*
X194968075Y-87459110D01*
X195399872Y-87545000D01*
X195840128Y-87545000D01*
X196271925Y-87459110D01*
X196678669Y-87290631D01*
X197044729Y-87046038D01*
X197356038Y-86734729D01*
X197600631Y-86368669D01*
X197769110Y-85961925D01*
X197855000Y-85530128D01*
X197855000Y-85089872D01*
X197769110Y-84658075D01*
X197600631Y-84251331D01*
X197356038Y-83885271D01*
X197044729Y-83573962D01*
X196678669Y-83329369D01*
X196271925Y-83160890D01*
X195840128Y-83075000D01*
X195399872Y-83075000D01*
X194968075Y-83160890D01*
X194561331Y-83329369D01*
X194195271Y-83573962D01*
X193883962Y-83885271D01*
X193639369Y-84251331D01*
X193470890Y-84658075D01*
X193385000Y-85089872D01*
X188735004Y-85089872D01*
X186811996Y-83166865D01*
X186776449Y-83123551D01*
X186603623Y-82981716D01*
X186406447Y-82876324D01*
X186192499Y-82811423D01*
X186025752Y-82795000D01*
X186025751Y-82795000D01*
X185970000Y-82789509D01*
X185914249Y-82795000D01*
X161035752Y-82795000D01*
X160980000Y-82789509D01*
X160924248Y-82795000D01*
X160839245Y-82803372D01*
X160757501Y-82811423D01*
X160543553Y-82876324D01*
X160346377Y-82981716D01*
X160216856Y-83088011D01*
X160216855Y-83088012D01*
X160173551Y-83123551D01*
X160138013Y-83166854D01*
X153110865Y-90194004D01*
X153067551Y-90229551D01*
X152925716Y-90402377D01*
X152856567Y-90531748D01*
X152820324Y-90599554D01*
X152755423Y-90813502D01*
X152733509Y-91036000D01*
X152739000Y-91091752D01*
X152739001Y-101484760D01*
X152604013Y-101619748D01*
X152425082Y-101887537D01*
X152301832Y-102185088D01*
X152239000Y-102500967D01*
X152239000Y-102823033D01*
X152301832Y-103138912D01*
X152425082Y-103436463D01*
X152604013Y-103704252D01*
X152831748Y-103931987D01*
X152957852Y-104016247D01*
X153874000Y-104932395D01*
X154790148Y-104016247D01*
X154916252Y-103931987D01*
X155051239Y-103797000D01*
X155082249Y-103797000D01*
X155138000Y-103802491D01*
X155193751Y-103797000D01*
X155193752Y-103797000D01*
X155360499Y-103780577D01*
X155574447Y-103715676D01*
X155771623Y-103610284D01*
X155944449Y-103468449D01*
X155979996Y-103425136D01*
X156760132Y-102645000D01*
X159229869Y-102645000D01*
X161935000Y-105350133D01*
X161935001Y-136409867D01*
X161789869Y-136555000D01*
X160339088Y-136555000D01*
X160380537Y-136504494D01*
X160439502Y-136394180D01*
X160475812Y-136274482D01*
X160488072Y-136150000D01*
X160488072Y-134150000D01*
X160475812Y-134025518D01*
X160439502Y-133905820D01*
X160380537Y-133795506D01*
X160301185Y-133698815D01*
X160204494Y-133619463D01*
X160094180Y-133560498D01*
X159985000Y-133527379D01*
X159985000Y-131715752D01*
X159990491Y-131660000D01*
X159968577Y-131437501D01*
X159903676Y-131223553D01*
X159798284Y-131026377D01*
X159691989Y-130896856D01*
X159691987Y-130896854D01*
X159656449Y-130853551D01*
X159613146Y-130818013D01*
X155009000Y-126213869D01*
X155009000Y-108829239D01*
X155143987Y-108694252D01*
X155322918Y-108426463D01*
X155446168Y-108128912D01*
X155509000Y-107813033D01*
X155509000Y-107490967D01*
X155446168Y-107175088D01*
X155322918Y-106877537D01*
X155143987Y-106609748D01*
X154916252Y-106382013D01*
X154807400Y-106309280D01*
X154829808Y-106247413D01*
X153874000Y-105291605D01*
X152918192Y-106247413D01*
X152940600Y-106309280D01*
X152831748Y-106382013D01*
X152604013Y-106609748D01*
X152425082Y-106877537D01*
X152301832Y-107175088D01*
X152239000Y-107490967D01*
X152239000Y-107813033D01*
X152301832Y-108128912D01*
X152425082Y-108426463D01*
X152604013Y-108694252D01*
X152739000Y-108829239D01*
X152739001Y-126628238D01*
X152733509Y-126684000D01*
X152755423Y-126906498D01*
X152820324Y-127120446D01*
X152860841Y-127196248D01*
X152925717Y-127317623D01*
X153067552Y-127490449D01*
X153110860Y-127525991D01*
X157715000Y-132130133D01*
X157715001Y-133527378D01*
X157605820Y-133560498D01*
X157495506Y-133619463D01*
X157398815Y-133698815D01*
X157319463Y-133795506D01*
X157260498Y-133905820D01*
X157224188Y-134025518D01*
X157211928Y-134150000D01*
X157211928Y-136150000D01*
X157224188Y-136274482D01*
X157260498Y-136394180D01*
X157319463Y-136504494D01*
X157398815Y-136601185D01*
X157495506Y-136680537D01*
X157541630Y-136705191D01*
X157401082Y-136915537D01*
X157277832Y-137213088D01*
X157215000Y-137528967D01*
X157215000Y-137851033D01*
X157277832Y-138166912D01*
X157401082Y-138464463D01*
X157580013Y-138732252D01*
X157807748Y-138959987D01*
X157807767Y-138960000D01*
X157807748Y-138960013D01*
X157580013Y-139187748D01*
X157401082Y-139455537D01*
X157277832Y-139753088D01*
X157215000Y-140068967D01*
X157215000Y-140391033D01*
X157277832Y-140706912D01*
X157401082Y-141004463D01*
X157580013Y-141272252D01*
X157807748Y-141499987D01*
X157807767Y-141500000D01*
X157807748Y-141500013D01*
X157672761Y-141635000D01*
X156805751Y-141635000D01*
X156749999Y-141629509D01*
X156527500Y-141651423D01*
X156477705Y-141666529D01*
X156313553Y-141716324D01*
X156116377Y-141821716D01*
X155943551Y-141963551D01*
X155908008Y-142006860D01*
X155016864Y-142898004D01*
X154973551Y-142933551D01*
X154831716Y-143106377D01*
X154734437Y-143288376D01*
X154726324Y-143303554D01*
X154661423Y-143517502D01*
X154639509Y-143740000D01*
X154645000Y-143795752D01*
X154645001Y-149534239D01*
X154639509Y-149590000D01*
X154661423Y-149812498D01*
X154726324Y-150026446D01*
X154726325Y-150026447D01*
X154831717Y-150223623D01*
X154973552Y-150396449D01*
X155016860Y-150431991D01*
X165779868Y-161195000D01*
X154103504Y-161195000D01*
X153620984Y-161147688D01*
X153189073Y-161017287D01*
X152790720Y-160805480D01*
X152441086Y-160520325D01*
X152153503Y-160172697D01*
X151938915Y-159775825D01*
X151805500Y-159344834D01*
X151755000Y-158864346D01*
X151755000Y-158179872D01*
X152275000Y-158179872D01*
X152275000Y-158620128D01*
X152360890Y-159051925D01*
X152529369Y-159458669D01*
X152773962Y-159824729D01*
X153085271Y-160136038D01*
X153451331Y-160380631D01*
X153858075Y-160549110D01*
X154289872Y-160635000D01*
X154730128Y-160635000D01*
X155161925Y-160549110D01*
X155568669Y-160380631D01*
X155934729Y-160136038D01*
X156246038Y-159824729D01*
X156490631Y-159458669D01*
X156659110Y-159051925D01*
X156745000Y-158620128D01*
X156745000Y-158179872D01*
X156659110Y-157748075D01*
X156490631Y-157341331D01*
X156246038Y-156975271D01*
X155934729Y-156663962D01*
X155568669Y-156419369D01*
X155161925Y-156250890D01*
X154730128Y-156165000D01*
X154289872Y-156165000D01*
X153858075Y-156250890D01*
X153451331Y-156419369D01*
X153085271Y-156663962D01*
X152773962Y-156975271D01*
X152529369Y-157341331D01*
X152360890Y-157748075D01*
X152275000Y-158179872D01*
X151755000Y-158179872D01*
X151755000Y-105174595D01*
X152232282Y-105174595D01*
X152276039Y-105493675D01*
X152381205Y-105798088D01*
X152474186Y-105972044D01*
X152738587Y-106067808D01*
X153694395Y-105112000D01*
X154053605Y-105112000D01*
X155009413Y-106067808D01*
X155273814Y-105972044D01*
X155414704Y-105682429D01*
X155496384Y-105370892D01*
X155515718Y-105049405D01*
X155495466Y-104901721D01*
X156169000Y-104901721D01*
X156169000Y-105322279D01*
X156251047Y-105734756D01*
X156411988Y-106123302D01*
X156645637Y-106472983D01*
X156943017Y-106770363D01*
X157292698Y-107004012D01*
X157681244Y-107164953D01*
X158093721Y-107247000D01*
X158514279Y-107247000D01*
X158926756Y-107164953D01*
X159315302Y-107004012D01*
X159664983Y-106770363D01*
X159962363Y-106472983D01*
X160196012Y-106123302D01*
X160356953Y-105734756D01*
X160439000Y-105322279D01*
X160439000Y-104901721D01*
X160356953Y-104489244D01*
X160196012Y-104100698D01*
X159962363Y-103751017D01*
X159664983Y-103453637D01*
X159315302Y-103219988D01*
X158926756Y-103059047D01*
X158514279Y-102977000D01*
X158093721Y-102977000D01*
X157681244Y-103059047D01*
X157292698Y-103219988D01*
X156943017Y-103453637D01*
X156645637Y-103751017D01*
X156411988Y-104100698D01*
X156251047Y-104489244D01*
X156169000Y-104901721D01*
X155495466Y-104901721D01*
X155471961Y-104730325D01*
X155366795Y-104425912D01*
X155273814Y-104251956D01*
X155009413Y-104156192D01*
X154053605Y-105112000D01*
X153694395Y-105112000D01*
X152738587Y-104156192D01*
X152474186Y-104251956D01*
X152333296Y-104541571D01*
X152251616Y-104853108D01*
X152232282Y-105174595D01*
X151755000Y-105174595D01*
X151755000Y-85089872D01*
X152305000Y-85089872D01*
X152305000Y-85530128D01*
X152390890Y-85961925D01*
X152559369Y-86368669D01*
X152803962Y-86734729D01*
X153115271Y-87046038D01*
X153481331Y-87290631D01*
X153888075Y-87459110D01*
X154319872Y-87545000D01*
X154760128Y-87545000D01*
X155191925Y-87459110D01*
X155598669Y-87290631D01*
X155964729Y-87046038D01*
X156276038Y-86734729D01*
X156520631Y-86368669D01*
X156689110Y-85961925D01*
X156775000Y-85530128D01*
X156775000Y-85089872D01*
X156689110Y-84658075D01*
X156520631Y-84251331D01*
X156276038Y-83885271D01*
X155964729Y-83573962D01*
X155598669Y-83329369D01*
X155191925Y-83160890D01*
X154760128Y-83075000D01*
X154319872Y-83075000D01*
X153888075Y-83160890D01*
X153481331Y-83329369D01*
X153115271Y-83573962D01*
X152803962Y-83885271D01*
X152559369Y-84251331D01*
X152390890Y-84658075D01*
X152305000Y-85089872D01*
X151755000Y-85089872D01*
X151755000Y-84913647D01*
X151758314Y-84880000D01*
X151758300Y-84879854D01*
X151802312Y-84430984D01*
X151932714Y-83999070D01*
X152144524Y-83600715D01*
X152429675Y-83251086D01*
X152777303Y-82963503D01*
X153174177Y-82748914D01*
X153605161Y-82615502D01*
X154085698Y-82564995D01*
X196036566Y-82555007D01*
X196519016Y-82602312D01*
G04 #@! TA.AperFunction,Conductor*
D18*
G36*
X196519016Y-82602312D02*
G01*
X196950930Y-82732714D01*
X197349285Y-82944524D01*
X197698914Y-83229675D01*
X197986497Y-83577303D01*
X198201086Y-83974177D01*
X198334498Y-84405161D01*
X198385001Y-84885663D01*
X198385000Y-158846495D01*
X198337688Y-159329016D01*
X198207287Y-159760927D01*
X197995480Y-160159280D01*
X197710325Y-160508914D01*
X197362697Y-160796497D01*
X196965825Y-161011085D01*
X196534834Y-161144500D01*
X196054346Y-161195000D01*
X179360131Y-161195000D01*
X181627146Y-158927987D01*
X181670449Y-158892449D01*
X181723776Y-158827471D01*
X181812284Y-158719623D01*
X181917676Y-158522447D01*
X181982577Y-158308499D01*
X181986078Y-158272950D01*
X181995245Y-158179872D01*
X193395000Y-158179872D01*
X193395000Y-158620128D01*
X193480890Y-159051925D01*
X193649369Y-159458669D01*
X193893962Y-159824729D01*
X194205271Y-160136038D01*
X194571331Y-160380631D01*
X194978075Y-160549110D01*
X195409872Y-160635000D01*
X195850128Y-160635000D01*
X196281925Y-160549110D01*
X196688669Y-160380631D01*
X197054729Y-160136038D01*
X197366038Y-159824729D01*
X197610631Y-159458669D01*
X197779110Y-159051925D01*
X197865000Y-158620128D01*
X197865000Y-158179872D01*
X197779110Y-157748075D01*
X197610631Y-157341331D01*
X197366038Y-156975271D01*
X197054729Y-156663962D01*
X196688669Y-156419369D01*
X196281925Y-156250890D01*
X195850128Y-156165000D01*
X195409872Y-156165000D01*
X194978075Y-156250890D01*
X194571331Y-156419369D01*
X194205271Y-156663962D01*
X193893962Y-156975271D01*
X193649369Y-157341331D01*
X193480890Y-157748075D01*
X193395000Y-158179872D01*
X181995245Y-158179872D01*
X181999000Y-158141752D01*
X181999000Y-158141751D01*
X182004491Y-158086000D01*
X181999000Y-158030248D01*
X181999000Y-156789239D01*
X182133987Y-156654252D01*
X182134000Y-156654233D01*
X182134013Y-156654252D01*
X182361748Y-156881987D01*
X182629537Y-157060918D01*
X182927088Y-157184168D01*
X183242967Y-157247000D01*
X183565033Y-157247000D01*
X183880912Y-157184168D01*
X184178463Y-157060918D01*
X184446252Y-156881987D01*
X184673987Y-156654252D01*
X184852918Y-156386463D01*
X184976168Y-156088912D01*
X185039000Y-155773033D01*
X185039000Y-155742131D01*
X191317141Y-149463991D01*
X191360449Y-149428449D01*
X191502284Y-149255623D01*
X191607676Y-149058447D01*
X191672577Y-148844499D01*
X191689000Y-148677752D01*
X191689000Y-148677751D01*
X191694491Y-148622000D01*
X191689000Y-148566248D01*
X191689000Y-130967752D01*
X191694491Y-130912001D01*
X191689000Y-130856248D01*
X191689000Y-113579751D01*
X191694491Y-113524000D01*
X191672577Y-113301501D01*
X191607676Y-113087553D01*
X191578222Y-113032448D01*
X191502284Y-112890377D01*
X191360449Y-112717551D01*
X191317141Y-112682009D01*
X187523996Y-108888865D01*
X187488449Y-108845551D01*
X187315623Y-108703716D01*
X187118447Y-108598324D01*
X186904499Y-108533423D01*
X186737752Y-108517000D01*
X186737751Y-108517000D01*
X186682000Y-108511509D01*
X186626249Y-108517000D01*
X181173088Y-108517000D01*
X181214537Y-108466494D01*
X181273502Y-108356180D01*
X181309812Y-108236482D01*
X181322072Y-108112000D01*
X181322072Y-106112000D01*
X181309812Y-105987518D01*
X181273502Y-105867820D01*
X181214537Y-105757506D01*
X181135185Y-105660815D01*
X181038494Y-105581463D01*
X180928180Y-105522498D01*
X180808482Y-105486188D01*
X180684000Y-105473928D01*
X178684000Y-105473928D01*
X178559518Y-105486188D01*
X178439820Y-105522498D01*
X178329506Y-105581463D01*
X178232815Y-105660815D01*
X178153463Y-105757506D01*
X178094498Y-105867820D01*
X178061379Y-105977000D01*
X170615000Y-105977000D01*
X170615000Y-104644595D01*
X183892282Y-104644595D01*
X183936039Y-104963675D01*
X184041205Y-105268088D01*
X184134186Y-105442044D01*
X184398587Y-105537808D01*
X185354395Y-104582000D01*
X184398587Y-103626192D01*
X184134186Y-103721956D01*
X183993296Y-104011571D01*
X183911616Y-104323108D01*
X183892282Y-104644595D01*
X170615000Y-104644595D01*
X170615000Y-104550131D01*
X178489001Y-96676131D01*
X178489000Y-98499378D01*
X178379820Y-98532498D01*
X178269506Y-98591463D01*
X178172815Y-98670815D01*
X178093463Y-98767506D01*
X178034498Y-98877820D01*
X177998188Y-98997518D01*
X177985928Y-99122000D01*
X177985928Y-101122000D01*
X177998188Y-101246482D01*
X178034498Y-101366180D01*
X178093463Y-101476494D01*
X178172815Y-101573185D01*
X178269506Y-101652537D01*
X178315630Y-101677191D01*
X178175082Y-101887537D01*
X178051832Y-102185088D01*
X177989000Y-102500967D01*
X177989000Y-102823033D01*
X178051832Y-103138912D01*
X178175082Y-103436463D01*
X178354013Y-103704252D01*
X178581748Y-103931987D01*
X178849537Y-104110918D01*
X179147088Y-104234168D01*
X179462967Y-104297000D01*
X179785033Y-104297000D01*
X180100912Y-104234168D01*
X180398463Y-104110918D01*
X180666252Y-103931987D01*
X180801239Y-103797000D01*
X182462249Y-103797000D01*
X182518000Y-103802491D01*
X182573751Y-103797000D01*
X182573752Y-103797000D01*
X182740499Y-103780577D01*
X182954447Y-103715676D01*
X183151623Y-103610284D01*
X183324449Y-103468449D01*
X183359996Y-103425135D01*
X184003135Y-102781996D01*
X184046449Y-102746449D01*
X184188284Y-102573623D01*
X184293676Y-102376447D01*
X184358577Y-102162499D01*
X184375000Y-101995752D01*
X184375000Y-101995745D01*
X184380490Y-101940001D01*
X184375000Y-101884257D01*
X184375000Y-101167985D01*
X184435472Y-101054850D01*
X184462727Y-100965000D01*
X184776928Y-100965000D01*
X184789188Y-101089482D01*
X184825498Y-101209180D01*
X184884463Y-101319494D01*
X184963815Y-101416185D01*
X185060506Y-101495537D01*
X185170820Y-101554502D01*
X185290518Y-101590812D01*
X185415000Y-101603072D01*
X185754250Y-101600000D01*
X185913000Y-101441250D01*
X185913000Y-100217000D01*
X184938750Y-100217000D01*
X184780000Y-100375750D01*
X184776928Y-100965000D01*
X184462727Y-100965000D01*
X184486008Y-100888254D01*
X184503072Y-100715000D01*
X184503072Y-99465000D01*
X184486008Y-99291746D01*
X184462728Y-99215000D01*
X184776928Y-99215000D01*
X184780000Y-99804250D01*
X184938750Y-99963000D01*
X185913000Y-99963000D01*
X185913000Y-98738750D01*
X185754250Y-98580000D01*
X185415000Y-98576928D01*
X185290518Y-98589188D01*
X185170820Y-98625498D01*
X185060506Y-98684463D01*
X184963815Y-98763815D01*
X184884463Y-98860506D01*
X184825498Y-98970820D01*
X184789188Y-99090518D01*
X184776928Y-99215000D01*
X184462728Y-99215000D01*
X184435472Y-99125150D01*
X184353405Y-98971614D01*
X184242962Y-98837038D01*
X184108386Y-98726595D01*
X183954850Y-98644528D01*
X183788254Y-98593992D01*
X183615000Y-98576928D01*
X182865000Y-98576928D01*
X182691746Y-98593992D01*
X182525150Y-98644528D01*
X182371614Y-98726595D01*
X182237038Y-98837038D01*
X182126595Y-98971614D01*
X182044528Y-99125150D01*
X181993992Y-99291746D01*
X181976928Y-99465000D01*
X181976928Y-100715000D01*
X181993992Y-100888254D01*
X182044528Y-101054850D01*
X182105000Y-101167986D01*
X182105000Y-101469869D01*
X182047869Y-101527000D01*
X181113088Y-101527000D01*
X181154537Y-101476494D01*
X181213502Y-101366180D01*
X181249812Y-101246482D01*
X181262072Y-101122000D01*
X181262072Y-100718602D01*
X181347676Y-100558447D01*
X181412577Y-100344499D01*
X181434491Y-100122000D01*
X181412577Y-99899501D01*
X181347676Y-99685553D01*
X181262072Y-99525398D01*
X181262072Y-99122000D01*
X181249812Y-98997518D01*
X181213502Y-98877820D01*
X181154537Y-98767506D01*
X181075185Y-98670815D01*
X180978494Y-98591463D01*
X180868180Y-98532498D01*
X180759000Y-98499379D01*
X180759000Y-96136131D01*
X181350132Y-95545000D01*
X181905752Y-95545000D01*
X182072499Y-95528577D01*
X182286447Y-95463676D01*
X182483623Y-95358284D01*
X182496066Y-95348072D01*
X182675000Y-95348072D01*
X182828745Y-95332929D01*
X182976582Y-95288084D01*
X183112829Y-95215258D01*
X183232251Y-95117251D01*
X183330258Y-94997829D01*
X183403084Y-94861582D01*
X183447929Y-94713745D01*
X183463072Y-94560000D01*
X183463072Y-94260000D01*
X183447929Y-94106255D01*
X183403084Y-93958418D01*
X183330258Y-93822171D01*
X183291546Y-93775000D01*
X183330258Y-93727829D01*
X183403084Y-93591582D01*
X183447929Y-93443745D01*
X183463072Y-93290000D01*
X183463072Y-92990000D01*
X183447929Y-92836255D01*
X183403084Y-92688418D01*
X183330258Y-92552171D01*
X183291546Y-92505000D01*
X183330258Y-92457829D01*
X183403084Y-92321582D01*
X183447929Y-92173745D01*
X183463072Y-92020000D01*
X183463072Y-91720000D01*
X183447929Y-91566255D01*
X183403084Y-91418418D01*
X183330258Y-91282171D01*
X183291546Y-91235000D01*
X183330258Y-91187829D01*
X183403084Y-91051582D01*
X183447929Y-90903745D01*
X183463072Y-90750000D01*
X183463072Y-90450000D01*
X183447929Y-90296255D01*
X183403084Y-90148418D01*
X183330258Y-90012171D01*
X183232251Y-89892749D01*
X183112829Y-89794742D01*
X182976582Y-89721916D01*
X182828745Y-89677071D01*
X182675000Y-89661928D01*
X181025000Y-89661928D01*
X180871255Y-89677071D01*
X180723418Y-89721916D01*
X180587171Y-89794742D01*
X180467749Y-89892749D01*
X180369742Y-90012171D01*
X180296916Y-90148418D01*
X180252071Y-90296255D01*
X180236928Y-90450000D01*
X180236928Y-90750000D01*
X180252071Y-90903745D01*
X180296916Y-91051582D01*
X180369742Y-91187829D01*
X180408454Y-91235000D01*
X180369742Y-91282171D01*
X180296916Y-91418418D01*
X180252071Y-91566255D01*
X180236928Y-91720000D01*
X180236928Y-92020000D01*
X180252071Y-92173745D01*
X180296916Y-92321582D01*
X180369742Y-92457829D01*
X180408454Y-92505000D01*
X180369742Y-92552171D01*
X180296916Y-92688418D01*
X180252071Y-92836255D01*
X180236928Y-92990000D01*
X180236928Y-93290000D01*
X180252071Y-93443745D01*
X180255967Y-93456590D01*
X180246377Y-93461716D01*
X180073551Y-93603551D01*
X180055000Y-93626155D01*
X180055000Y-92775752D01*
X180060491Y-92720000D01*
X180051143Y-92625082D01*
X180038577Y-92497501D01*
X179973676Y-92283553D01*
X179868284Y-92086377D01*
X179839179Y-92050912D01*
X179761989Y-91956856D01*
X179761987Y-91956854D01*
X179726449Y-91913551D01*
X179683145Y-91878013D01*
X178911995Y-91106864D01*
X178876449Y-91063551D01*
X178703623Y-90921716D01*
X178506447Y-90816324D01*
X178411890Y-90787640D01*
X178351250Y-90727000D01*
X177027000Y-90727000D01*
X177027000Y-90735000D01*
X176844248Y-90735000D01*
X176773000Y-90742017D01*
X176773000Y-90727000D01*
X175448750Y-90727000D01*
X175290000Y-90885750D01*
X175286928Y-90900000D01*
X175299188Y-91024482D01*
X175335498Y-91144180D01*
X175394463Y-91254494D01*
X175418730Y-91284064D01*
X175346916Y-91418418D01*
X175302071Y-91566255D01*
X175286928Y-91720000D01*
X175286928Y-92005000D01*
X168844132Y-92005000D01*
X168636584Y-91797453D01*
X168649000Y-91735033D01*
X168649000Y-91412967D01*
X168586168Y-91097088D01*
X168462918Y-90799537D01*
X168283987Y-90531748D01*
X168056252Y-90304013D01*
X168050247Y-90300000D01*
X175286928Y-90300000D01*
X175290000Y-90314250D01*
X175448750Y-90473000D01*
X176773000Y-90473000D01*
X176773000Y-89823750D01*
X177027000Y-89823750D01*
X177027000Y-90473000D01*
X178351250Y-90473000D01*
X178510000Y-90314250D01*
X178513072Y-90300000D01*
X178500812Y-90175518D01*
X178464502Y-90055820D01*
X178405537Y-89945506D01*
X178326185Y-89848815D01*
X178229494Y-89769463D01*
X178119180Y-89710498D01*
X177999482Y-89674188D01*
X177875000Y-89661928D01*
X177185750Y-89665000D01*
X177027000Y-89823750D01*
X176773000Y-89823750D01*
X176614250Y-89665000D01*
X175925000Y-89661928D01*
X175800518Y-89674188D01*
X175680820Y-89710498D01*
X175570506Y-89769463D01*
X175473815Y-89848815D01*
X175394463Y-89945506D01*
X175335498Y-90055820D01*
X175299188Y-90175518D01*
X175286928Y-90300000D01*
X168050247Y-90300000D01*
X167788463Y-90125082D01*
X167490912Y-90001832D01*
X167175033Y-89939000D01*
X166852967Y-89939000D01*
X166537088Y-90001832D01*
X166239537Y-90125082D01*
X165971748Y-90304013D01*
X165744013Y-90531748D01*
X165565082Y-90799537D01*
X165441832Y-91097088D01*
X165379000Y-91412967D01*
X165379000Y-91735033D01*
X165441832Y-92050912D01*
X165565082Y-92348463D01*
X165744013Y-92616252D01*
X165971748Y-92843987D01*
X166239537Y-93022918D01*
X166537088Y-93146168D01*
X166834120Y-93205251D01*
X167532008Y-93903140D01*
X167567551Y-93946449D01*
X167740377Y-94088284D01*
X167937553Y-94193676D01*
X168151501Y-94258577D01*
X168318248Y-94275000D01*
X168318257Y-94275000D01*
X168373999Y-94280490D01*
X168429741Y-94275000D01*
X172339869Y-94275000D01*
X171916864Y-94698004D01*
X171873551Y-94733551D01*
X171731716Y-94906377D01*
X171658357Y-95043624D01*
X171626324Y-95103554D01*
X171561423Y-95317502D01*
X171539509Y-95540000D01*
X171545000Y-95595752D01*
X171545000Y-96522014D01*
X171484528Y-96635150D01*
X171433992Y-96801746D01*
X171416928Y-96975000D01*
X171416928Y-98225000D01*
X171433992Y-98398254D01*
X171484528Y-98564850D01*
X171566595Y-98718386D01*
X171677038Y-98852962D01*
X171811614Y-98963405D01*
X171965150Y-99045472D01*
X172131746Y-99096008D01*
X172305000Y-99113072D01*
X172841797Y-99113072D01*
X168716865Y-103238004D01*
X168673551Y-103273551D01*
X168531716Y-103446377D01*
X168459225Y-103582000D01*
X168426324Y-103643554D01*
X168361423Y-103857502D01*
X168339509Y-104080000D01*
X168345000Y-104135751D01*
X168345000Y-104504249D01*
X168345001Y-106030229D01*
X168227038Y-106127038D01*
X168116595Y-106261614D01*
X168034528Y-106415150D01*
X167983992Y-106581746D01*
X167966928Y-106755000D01*
X167966928Y-107505000D01*
X167983992Y-107678254D01*
X168034528Y-107844850D01*
X168116595Y-107998386D01*
X168227038Y-108132962D01*
X168361614Y-108243405D01*
X168515150Y-108325472D01*
X168681746Y-108376008D01*
X168855000Y-108393072D01*
X170105000Y-108393072D01*
X170278254Y-108376008D01*
X170444850Y-108325472D01*
X170591660Y-108247000D01*
X178061379Y-108247000D01*
X178094498Y-108356180D01*
X178153463Y-108466494D01*
X178194912Y-108517000D01*
X174919752Y-108517000D01*
X174864000Y-108511509D01*
X174641501Y-108533423D01*
X174427553Y-108598324D01*
X174230377Y-108703716D01*
X174100856Y-108810011D01*
X174100855Y-108810012D01*
X174057551Y-108845551D01*
X174022013Y-108888854D01*
X171526860Y-111384009D01*
X171483552Y-111419551D01*
X171341717Y-111592377D01*
X171285384Y-111697770D01*
X171236324Y-111789554D01*
X171171423Y-112003502D01*
X171149509Y-112226000D01*
X171155001Y-112281761D01*
X171155000Y-117554248D01*
X171149509Y-117610000D01*
X171155000Y-117665751D01*
X171171423Y-117832498D01*
X171236324Y-118046446D01*
X171341716Y-118243623D01*
X171483551Y-118416449D01*
X171526865Y-118451996D01*
X173620009Y-120545141D01*
X173655551Y-120588449D01*
X173828377Y-120730284D01*
X174025553Y-120835676D01*
X174239501Y-120900577D01*
X174462000Y-120922491D01*
X174517752Y-120917000D01*
X175916761Y-120917000D01*
X175959000Y-120959239D01*
X175959001Y-122415867D01*
X175010865Y-123364004D01*
X174967551Y-123399551D01*
X174825716Y-123572377D01*
X174720325Y-123769553D01*
X174720324Y-123769554D01*
X174655423Y-123983502D01*
X174633509Y-124206000D01*
X174639000Y-124261752D01*
X174639001Y-126074760D01*
X174504013Y-126209748D01*
X174325082Y-126477537D01*
X174201832Y-126775088D01*
X174139000Y-127090967D01*
X174139000Y-127413033D01*
X174201832Y-127728912D01*
X174325082Y-128026463D01*
X174504013Y-128294252D01*
X174639000Y-128429239D01*
X174639001Y-133196239D01*
X174633509Y-133252000D01*
X174655423Y-133474498D01*
X174720324Y-133688446D01*
X174769384Y-133780230D01*
X174825717Y-133885623D01*
X174967552Y-134058449D01*
X175010860Y-134093991D01*
X175532004Y-134615135D01*
X175567551Y-134658449D01*
X175740377Y-134800284D01*
X175937553Y-134905676D01*
X176101705Y-134955471D01*
X176151500Y-134970577D01*
X176373999Y-134992491D01*
X176429751Y-134987000D01*
X176739000Y-134987000D01*
X176739000Y-135171868D01*
X173470860Y-138440009D01*
X173427552Y-138475551D01*
X173285717Y-138648377D01*
X173240885Y-138732252D01*
X173180324Y-138845554D01*
X173115423Y-139059502D01*
X173093509Y-139282000D01*
X173099001Y-139337761D01*
X173099001Y-140204760D01*
X172964013Y-140339748D01*
X172785082Y-140607537D01*
X172661832Y-140905088D01*
X172599000Y-141220967D01*
X172599000Y-141543033D01*
X172661832Y-141858912D01*
X172785082Y-142156463D01*
X172964013Y-142424252D01*
X173191748Y-142651987D01*
X173191767Y-142652000D01*
X173191748Y-142652013D01*
X173056761Y-142787000D01*
X167802132Y-142787000D01*
X164481996Y-139466865D01*
X164446449Y-139423551D01*
X164273623Y-139281716D01*
X164076447Y-139176324D01*
X163862499Y-139111423D01*
X163695752Y-139095000D01*
X163695751Y-139095000D01*
X163640000Y-139089509D01*
X163584249Y-139095000D01*
X160027239Y-139095000D01*
X159892252Y-138960013D01*
X159892233Y-138960000D01*
X159892252Y-138959987D01*
X160027239Y-138825000D01*
X162204249Y-138825000D01*
X162260000Y-138830491D01*
X162315751Y-138825000D01*
X162315752Y-138825000D01*
X162482499Y-138808577D01*
X162696447Y-138743676D01*
X162893623Y-138638284D01*
X163066449Y-138496449D01*
X163101995Y-138453136D01*
X163833140Y-137721992D01*
X163876449Y-137686449D01*
X164018284Y-137513623D01*
X164123676Y-137316447D01*
X164188577Y-137102499D01*
X164205000Y-136935752D01*
X164210491Y-136880000D01*
X164205000Y-136824249D01*
X164205000Y-110555000D01*
X167966928Y-110555000D01*
X167979188Y-110679482D01*
X168015498Y-110799180D01*
X168074463Y-110909494D01*
X168153815Y-111006185D01*
X168250506Y-111085537D01*
X168360820Y-111144502D01*
X168480518Y-111180812D01*
X168605000Y-111193072D01*
X169194250Y-111190000D01*
X169353000Y-111031250D01*
X169353000Y-110057000D01*
X169607000Y-110057000D01*
X169607000Y-111031250D01*
X169765750Y-111190000D01*
X170355000Y-111193072D01*
X170479482Y-111180812D01*
X170599180Y-111144502D01*
X170709494Y-111085537D01*
X170806185Y-111006185D01*
X170885537Y-110909494D01*
X170944502Y-110799180D01*
X170980812Y-110679482D01*
X170993072Y-110555000D01*
X170990000Y-110215750D01*
X170831250Y-110057000D01*
X169607000Y-110057000D01*
X169353000Y-110057000D01*
X168128750Y-110057000D01*
X167970000Y-110215750D01*
X167966928Y-110555000D01*
X164205000Y-110555000D01*
X164205000Y-109305000D01*
X167966928Y-109305000D01*
X167970000Y-109644250D01*
X168128750Y-109803000D01*
X169353000Y-109803000D01*
X169353000Y-108828750D01*
X169607000Y-108828750D01*
X169607000Y-109803000D01*
X170831250Y-109803000D01*
X170990000Y-109644250D01*
X170993072Y-109305000D01*
X170980812Y-109180518D01*
X170944502Y-109060820D01*
X170885537Y-108950506D01*
X170806185Y-108853815D01*
X170709494Y-108774463D01*
X170599180Y-108715498D01*
X170479482Y-108679188D01*
X170355000Y-108666928D01*
X169765750Y-108670000D01*
X169607000Y-108828750D01*
X169353000Y-108828750D01*
X169194250Y-108670000D01*
X168605000Y-108666928D01*
X168480518Y-108679188D01*
X168360820Y-108715498D01*
X168250506Y-108774463D01*
X168153815Y-108853815D01*
X168074463Y-108950506D01*
X168015498Y-109060820D01*
X167979188Y-109180518D01*
X167966928Y-109305000D01*
X164205000Y-109305000D01*
X164205000Y-104935752D01*
X164210491Y-104880000D01*
X164188577Y-104657501D01*
X164123676Y-104443553D01*
X164018284Y-104246377D01*
X163911989Y-104116856D01*
X163911987Y-104116854D01*
X163876449Y-104073551D01*
X163833146Y-104038013D01*
X161305131Y-101510000D01*
X164080132Y-98735000D01*
X168780230Y-98735000D01*
X168877038Y-98852962D01*
X169011614Y-98963405D01*
X169165150Y-99045472D01*
X169331746Y-99096008D01*
X169505000Y-99113072D01*
X170255000Y-99113072D01*
X170428254Y-99096008D01*
X170594850Y-99045472D01*
X170748386Y-98963405D01*
X170882962Y-98852962D01*
X170993405Y-98718386D01*
X171075472Y-98564850D01*
X171126008Y-98398254D01*
X171143072Y-98225000D01*
X171143072Y-96975000D01*
X171126008Y-96801746D01*
X171075472Y-96635150D01*
X170993405Y-96481614D01*
X170882962Y-96347038D01*
X170748386Y-96236595D01*
X170594850Y-96154528D01*
X170428254Y-96103992D01*
X170255000Y-96086928D01*
X169505000Y-96086928D01*
X169331746Y-96103992D01*
X169165150Y-96154528D01*
X169011614Y-96236595D01*
X168877038Y-96347038D01*
X168780230Y-96465000D01*
X163665751Y-96465000D01*
X163609999Y-96459509D01*
X163387501Y-96481423D01*
X163173553Y-96546324D01*
X162976377Y-96651716D01*
X162803551Y-96793551D01*
X162768009Y-96836859D01*
X159229869Y-100375000D01*
X156345751Y-100375000D01*
X156289999Y-100369509D01*
X156234248Y-100375000D01*
X156067501Y-100391423D01*
X155853553Y-100456324D01*
X155656377Y-100561716D01*
X155483551Y-100703551D01*
X155448011Y-100746857D01*
X155009000Y-101185868D01*
X155009000Y-93912967D01*
X162879000Y-93912967D01*
X162879000Y-94235033D01*
X162941832Y-94550912D01*
X163065082Y-94848463D01*
X163244013Y-95116252D01*
X163471748Y-95343987D01*
X163739537Y-95522918D01*
X164037088Y-95646168D01*
X164352967Y-95709000D01*
X164675033Y-95709000D01*
X164950702Y-95654166D01*
X164954000Y-95654491D01*
X165176498Y-95632577D01*
X165390446Y-95567676D01*
X165587622Y-95462283D01*
X165760448Y-95320448D01*
X165902283Y-95147622D01*
X166007676Y-94950446D01*
X166072577Y-94736498D01*
X166094491Y-94514000D01*
X166094166Y-94510702D01*
X166149000Y-94235033D01*
X166149000Y-93912967D01*
X166086168Y-93597088D01*
X165962918Y-93299537D01*
X165783987Y-93031748D01*
X165556252Y-92804013D01*
X165288463Y-92625082D01*
X164990912Y-92501832D01*
X164675033Y-92439000D01*
X164352967Y-92439000D01*
X164037088Y-92501832D01*
X163739537Y-92625082D01*
X163471748Y-92804013D01*
X163244013Y-93031748D01*
X163065082Y-93299537D01*
X162941832Y-93597088D01*
X162879000Y-93912967D01*
X155009000Y-93912967D01*
X155009000Y-91506131D01*
X156305718Y-90209413D01*
X163558192Y-90209413D01*
X163653956Y-90473814D01*
X163943571Y-90614704D01*
X164255108Y-90696384D01*
X164576595Y-90715718D01*
X164895675Y-90671961D01*
X165200088Y-90566795D01*
X165374044Y-90473814D01*
X165469808Y-90209413D01*
X164514000Y-89253605D01*
X163558192Y-90209413D01*
X156305718Y-90209413D01*
X157378536Y-89136595D01*
X162872282Y-89136595D01*
X162916039Y-89455675D01*
X163021205Y-89760088D01*
X163114186Y-89934044D01*
X163378587Y-90029808D01*
X164334395Y-89074000D01*
X164693605Y-89074000D01*
X165649413Y-90029808D01*
X165913814Y-89934044D01*
X166054704Y-89644429D01*
X166136384Y-89332892D01*
X166155718Y-89011405D01*
X166111961Y-88692325D01*
X166006795Y-88387912D01*
X165913814Y-88213956D01*
X165649413Y-88118192D01*
X164693605Y-89074000D01*
X164334395Y-89074000D01*
X163378587Y-88118192D01*
X163114186Y-88213956D01*
X162973296Y-88503571D01*
X162891616Y-88815108D01*
X162872282Y-89136595D01*
X157378536Y-89136595D01*
X158576544Y-87938587D01*
X163558192Y-87938587D01*
X164514000Y-88894395D01*
X165469808Y-87938587D01*
X165374044Y-87674186D01*
X165084429Y-87533296D01*
X164772892Y-87451616D01*
X164451405Y-87432282D01*
X164132325Y-87476039D01*
X163827912Y-87581205D01*
X163653956Y-87674186D01*
X163558192Y-87938587D01*
X158576544Y-87938587D01*
X161450133Y-85065000D01*
X185499869Y-85065000D01*
X186975001Y-86540133D01*
X186975000Y-88414248D01*
X186975000Y-90099329D01*
X186963509Y-90216000D01*
X186969000Y-90271751D01*
X186969001Y-98657473D01*
X186909180Y-98625498D01*
X186789482Y-98589188D01*
X186665000Y-98576928D01*
X186325750Y-98580000D01*
X186167000Y-98738750D01*
X186167000Y-99963000D01*
X186187000Y-99963000D01*
X186187000Y-100217000D01*
X186167000Y-100217000D01*
X186167000Y-101441250D01*
X186325750Y-101600000D01*
X186665000Y-101603072D01*
X186789482Y-101590812D01*
X186909180Y-101554502D01*
X186969001Y-101522527D01*
X186969001Y-102954269D01*
X186949518Y-102956188D01*
X186829820Y-102992498D01*
X186719506Y-103051463D01*
X186622815Y-103130815D01*
X186543463Y-103227506D01*
X186484498Y-103337820D01*
X186468963Y-103389033D01*
X186394044Y-103182186D01*
X186104429Y-103041296D01*
X185792892Y-102959616D01*
X185471405Y-102940282D01*
X185152325Y-102984039D01*
X184847912Y-103089205D01*
X184673956Y-103182186D01*
X184578192Y-103446587D01*
X185534000Y-104402395D01*
X185548143Y-104388253D01*
X185727748Y-104567858D01*
X185713605Y-104582000D01*
X185727748Y-104596143D01*
X185548143Y-104775748D01*
X185534000Y-104761605D01*
X184578192Y-105717413D01*
X184673956Y-105981814D01*
X184963571Y-106122704D01*
X185275108Y-106204384D01*
X185596595Y-106223718D01*
X185915675Y-106179961D01*
X186220088Y-106074795D01*
X186394044Y-105981814D01*
X186468963Y-105774967D01*
X186484498Y-105826180D01*
X186543463Y-105936494D01*
X186622815Y-106033185D01*
X186719506Y-106112537D01*
X186829820Y-106171502D01*
X186949518Y-106207812D01*
X187074000Y-106220072D01*
X189074000Y-106220072D01*
X189198482Y-106207812D01*
X189318180Y-106171502D01*
X189428494Y-106112537D01*
X189525185Y-106033185D01*
X189604537Y-105936494D01*
X189663502Y-105826180D01*
X189699812Y-105706482D01*
X189712072Y-105582000D01*
X189712072Y-103582000D01*
X189699812Y-103457518D01*
X189663502Y-103337820D01*
X189604537Y-103227506D01*
X189525185Y-103130815D01*
X189428494Y-103051463D01*
X189318180Y-102992498D01*
X189239000Y-102968479D01*
X189239000Y-90326672D01*
X189245000Y-90265752D01*
X189245000Y-90265742D01*
X189250490Y-90210001D01*
X189245000Y-90154259D01*
X189245000Y-86125751D01*
X189250491Y-86069999D01*
X189228577Y-85847501D01*
X189163676Y-85633553D01*
X189125028Y-85561247D01*
X189058284Y-85436377D01*
X188916449Y-85263551D01*
X188873141Y-85228009D01*
X188735004Y-85089872D01*
X193385000Y-85089872D01*
X193385000Y-85530128D01*
X193470890Y-85961925D01*
X193639369Y-86368669D01*
X193883962Y-86734729D01*
X194195271Y-87046038D01*
X194561331Y-87290631D01*
X194968075Y-87459110D01*
X195399872Y-87545000D01*
X195840128Y-87545000D01*
X196271925Y-87459110D01*
X196678669Y-87290631D01*
X197044729Y-87046038D01*
X197356038Y-86734729D01*
X197600631Y-86368669D01*
X197769110Y-85961925D01*
X197855000Y-85530128D01*
X197855000Y-85089872D01*
X197769110Y-84658075D01*
X197600631Y-84251331D01*
X197356038Y-83885271D01*
X197044729Y-83573962D01*
X196678669Y-83329369D01*
X196271925Y-83160890D01*
X195840128Y-83075000D01*
X195399872Y-83075000D01*
X194968075Y-83160890D01*
X194561331Y-83329369D01*
X194195271Y-83573962D01*
X193883962Y-83885271D01*
X193639369Y-84251331D01*
X193470890Y-84658075D01*
X193385000Y-85089872D01*
X188735004Y-85089872D01*
X186811996Y-83166865D01*
X186776449Y-83123551D01*
X186603623Y-82981716D01*
X186406447Y-82876324D01*
X186192499Y-82811423D01*
X186025752Y-82795000D01*
X186025751Y-82795000D01*
X185970000Y-82789509D01*
X185914249Y-82795000D01*
X161035752Y-82795000D01*
X160980000Y-82789509D01*
X160924248Y-82795000D01*
X160839245Y-82803372D01*
X160757501Y-82811423D01*
X160543553Y-82876324D01*
X160346377Y-82981716D01*
X160216856Y-83088011D01*
X160216855Y-83088012D01*
X160173551Y-83123551D01*
X160138013Y-83166854D01*
X153110865Y-90194004D01*
X153067551Y-90229551D01*
X152925716Y-90402377D01*
X152856567Y-90531748D01*
X152820324Y-90599554D01*
X152755423Y-90813502D01*
X152733509Y-91036000D01*
X152739000Y-91091752D01*
X152739001Y-101484760D01*
X152604013Y-101619748D01*
X152425082Y-101887537D01*
X152301832Y-102185088D01*
X152239000Y-102500967D01*
X152239000Y-102823033D01*
X152301832Y-103138912D01*
X152425082Y-103436463D01*
X152604013Y-103704252D01*
X152831748Y-103931987D01*
X152957852Y-104016247D01*
X153874000Y-104932395D01*
X154790148Y-104016247D01*
X154916252Y-103931987D01*
X155051239Y-103797000D01*
X155082249Y-103797000D01*
X155138000Y-103802491D01*
X155193751Y-103797000D01*
X155193752Y-103797000D01*
X155360499Y-103780577D01*
X155574447Y-103715676D01*
X155771623Y-103610284D01*
X155944449Y-103468449D01*
X155979996Y-103425136D01*
X156760132Y-102645000D01*
X159229869Y-102645000D01*
X161935000Y-105350133D01*
X161935001Y-136409867D01*
X161789869Y-136555000D01*
X160339088Y-136555000D01*
X160380537Y-136504494D01*
X160439502Y-136394180D01*
X160475812Y-136274482D01*
X160488072Y-136150000D01*
X160488072Y-134150000D01*
X160475812Y-134025518D01*
X160439502Y-133905820D01*
X160380537Y-133795506D01*
X160301185Y-133698815D01*
X160204494Y-133619463D01*
X160094180Y-133560498D01*
X159985000Y-133527379D01*
X159985000Y-131715752D01*
X159990491Y-131660000D01*
X159968577Y-131437501D01*
X159903676Y-131223553D01*
X159798284Y-131026377D01*
X159691989Y-130896856D01*
X159691987Y-130896854D01*
X159656449Y-130853551D01*
X159613146Y-130818013D01*
X155009000Y-126213869D01*
X155009000Y-108829239D01*
X155143987Y-108694252D01*
X155322918Y-108426463D01*
X155446168Y-108128912D01*
X155509000Y-107813033D01*
X155509000Y-107490967D01*
X155446168Y-107175088D01*
X155322918Y-106877537D01*
X155143987Y-106609748D01*
X154916252Y-106382013D01*
X154807400Y-106309280D01*
X154829808Y-106247413D01*
X153874000Y-105291605D01*
X152918192Y-106247413D01*
X152940600Y-106309280D01*
X152831748Y-106382013D01*
X152604013Y-106609748D01*
X152425082Y-106877537D01*
X152301832Y-107175088D01*
X152239000Y-107490967D01*
X152239000Y-107813033D01*
X152301832Y-108128912D01*
X152425082Y-108426463D01*
X152604013Y-108694252D01*
X152739000Y-108829239D01*
X152739001Y-126628238D01*
X152733509Y-126684000D01*
X152755423Y-126906498D01*
X152820324Y-127120446D01*
X152860841Y-127196248D01*
X152925717Y-127317623D01*
X153067552Y-127490449D01*
X153110860Y-127525991D01*
X157715000Y-132130133D01*
X157715001Y-133527378D01*
X157605820Y-133560498D01*
X157495506Y-133619463D01*
X157398815Y-133698815D01*
X157319463Y-133795506D01*
X157260498Y-133905820D01*
X157224188Y-134025518D01*
X157211928Y-134150000D01*
X157211928Y-136150000D01*
X157224188Y-136274482D01*
X157260498Y-136394180D01*
X157319463Y-136504494D01*
X157398815Y-136601185D01*
X157495506Y-136680537D01*
X157541630Y-136705191D01*
X157401082Y-136915537D01*
X157277832Y-137213088D01*
X157215000Y-137528967D01*
X157215000Y-137851033D01*
X157277832Y-138166912D01*
X157401082Y-138464463D01*
X157580013Y-138732252D01*
X157807748Y-138959987D01*
X157807767Y-138960000D01*
X157807748Y-138960013D01*
X157580013Y-139187748D01*
X157401082Y-139455537D01*
X157277832Y-139753088D01*
X157215000Y-140068967D01*
X157215000Y-140391033D01*
X157277832Y-140706912D01*
X157401082Y-141004463D01*
X157580013Y-141272252D01*
X157807748Y-141499987D01*
X157807767Y-141500000D01*
X157807748Y-141500013D01*
X157672761Y-141635000D01*
X156805751Y-141635000D01*
X156749999Y-141629509D01*
X156527500Y-141651423D01*
X156477705Y-141666529D01*
X156313553Y-141716324D01*
X156116377Y-141821716D01*
X155943551Y-141963551D01*
X155908008Y-142006860D01*
X155016864Y-142898004D01*
X154973551Y-142933551D01*
X154831716Y-143106377D01*
X154734437Y-143288376D01*
X154726324Y-143303554D01*
X154661423Y-143517502D01*
X154639509Y-143740000D01*
X154645000Y-143795752D01*
X154645001Y-149534239D01*
X154639509Y-149590000D01*
X154661423Y-149812498D01*
X154726324Y-150026446D01*
X154726325Y-150026447D01*
X154831717Y-150223623D01*
X154973552Y-150396449D01*
X155016860Y-150431991D01*
X165779868Y-161195000D01*
X154103504Y-161195000D01*
X153620984Y-161147688D01*
X153189073Y-161017287D01*
X152790720Y-160805480D01*
X152441086Y-160520325D01*
X152153503Y-160172697D01*
X151938915Y-159775825D01*
X151805500Y-159344834D01*
X151755000Y-158864346D01*
X151755000Y-158179872D01*
X152275000Y-158179872D01*
X152275000Y-158620128D01*
X152360890Y-159051925D01*
X152529369Y-159458669D01*
X152773962Y-159824729D01*
X153085271Y-160136038D01*
X153451331Y-160380631D01*
X153858075Y-160549110D01*
X154289872Y-160635000D01*
X154730128Y-160635000D01*
X155161925Y-160549110D01*
X155568669Y-160380631D01*
X155934729Y-160136038D01*
X156246038Y-159824729D01*
X156490631Y-159458669D01*
X156659110Y-159051925D01*
X156745000Y-158620128D01*
X156745000Y-158179872D01*
X156659110Y-157748075D01*
X156490631Y-157341331D01*
X156246038Y-156975271D01*
X155934729Y-156663962D01*
X155568669Y-156419369D01*
X155161925Y-156250890D01*
X154730128Y-156165000D01*
X154289872Y-156165000D01*
X153858075Y-156250890D01*
X153451331Y-156419369D01*
X153085271Y-156663962D01*
X152773962Y-156975271D01*
X152529369Y-157341331D01*
X152360890Y-157748075D01*
X152275000Y-158179872D01*
X151755000Y-158179872D01*
X151755000Y-105174595D01*
X152232282Y-105174595D01*
X152276039Y-105493675D01*
X152381205Y-105798088D01*
X152474186Y-105972044D01*
X152738587Y-106067808D01*
X153694395Y-105112000D01*
X154053605Y-105112000D01*
X155009413Y-106067808D01*
X155273814Y-105972044D01*
X155414704Y-105682429D01*
X155496384Y-105370892D01*
X155515718Y-105049405D01*
X155495466Y-104901721D01*
X156169000Y-104901721D01*
X156169000Y-105322279D01*
X156251047Y-105734756D01*
X156411988Y-106123302D01*
X156645637Y-106472983D01*
X156943017Y-106770363D01*
X157292698Y-107004012D01*
X157681244Y-107164953D01*
X158093721Y-107247000D01*
X158514279Y-107247000D01*
X158926756Y-107164953D01*
X159315302Y-107004012D01*
X159664983Y-106770363D01*
X159962363Y-106472983D01*
X160196012Y-106123302D01*
X160356953Y-105734756D01*
X160439000Y-105322279D01*
X160439000Y-104901721D01*
X160356953Y-104489244D01*
X160196012Y-104100698D01*
X159962363Y-103751017D01*
X159664983Y-103453637D01*
X159315302Y-103219988D01*
X158926756Y-103059047D01*
X158514279Y-102977000D01*
X158093721Y-102977000D01*
X157681244Y-103059047D01*
X157292698Y-103219988D01*
X156943017Y-103453637D01*
X156645637Y-103751017D01*
X156411988Y-104100698D01*
X156251047Y-104489244D01*
X156169000Y-104901721D01*
X155495466Y-104901721D01*
X155471961Y-104730325D01*
X155366795Y-104425912D01*
X155273814Y-104251956D01*
X155009413Y-104156192D01*
X154053605Y-105112000D01*
X153694395Y-105112000D01*
X152738587Y-104156192D01*
X152474186Y-104251956D01*
X152333296Y-104541571D01*
X152251616Y-104853108D01*
X152232282Y-105174595D01*
X151755000Y-105174595D01*
X151755000Y-85089872D01*
X152305000Y-85089872D01*
X152305000Y-85530128D01*
X152390890Y-85961925D01*
X152559369Y-86368669D01*
X152803962Y-86734729D01*
X153115271Y-87046038D01*
X153481331Y-87290631D01*
X153888075Y-87459110D01*
X154319872Y-87545000D01*
X154760128Y-87545000D01*
X155191925Y-87459110D01*
X155598669Y-87290631D01*
X155964729Y-87046038D01*
X156276038Y-86734729D01*
X156520631Y-86368669D01*
X156689110Y-85961925D01*
X156775000Y-85530128D01*
X156775000Y-85089872D01*
X156689110Y-84658075D01*
X156520631Y-84251331D01*
X156276038Y-83885271D01*
X155964729Y-83573962D01*
X155598669Y-83329369D01*
X155191925Y-83160890D01*
X154760128Y-83075000D01*
X154319872Y-83075000D01*
X153888075Y-83160890D01*
X153481331Y-83329369D01*
X153115271Y-83573962D01*
X152803962Y-83885271D01*
X152559369Y-84251331D01*
X152390890Y-84658075D01*
X152305000Y-85089872D01*
X151755000Y-85089872D01*
X151755000Y-84913647D01*
X151758314Y-84880000D01*
X151758300Y-84879854D01*
X151802312Y-84430984D01*
X151932714Y-83999070D01*
X152144524Y-83600715D01*
X152429675Y-83251086D01*
X152777303Y-82963503D01*
X153174177Y-82748914D01*
X153605161Y-82615502D01*
X154085698Y-82564995D01*
X196036566Y-82555007D01*
X196519016Y-82602312D01*
G37*
G04 #@! TD.AperFunction*
D17*
X165709868Y-143905000D02*
X163531860Y-146083009D01*
X163488552Y-146118551D01*
X163346717Y-146291377D01*
X163295893Y-146386463D01*
X163241324Y-146488554D01*
X163176423Y-146702502D01*
X163154509Y-146925000D01*
X163160001Y-146980761D01*
X163160000Y-154049248D01*
X163154509Y-154105000D01*
X163160000Y-154160751D01*
X163176423Y-154327498D01*
X163241324Y-154541446D01*
X163346716Y-154738623D01*
X163488551Y-154911449D01*
X163531865Y-154946996D01*
X168389868Y-159805000D01*
X167600132Y-159805000D01*
X156915000Y-149119869D01*
X156915000Y-145690434D01*
X157259876Y-145690434D01*
X157316498Y-145877107D01*
X157456601Y-146165382D01*
X157650252Y-146420785D01*
X157890008Y-146633501D01*
X158166656Y-146795356D01*
X158469565Y-146900129D01*
X158723000Y-146781315D01*
X158723000Y-145437000D01*
X158977000Y-145437000D01*
X158977000Y-146781315D01*
X159230435Y-146900129D01*
X159533344Y-146795356D01*
X159809992Y-146633501D01*
X160049748Y-146420785D01*
X160243399Y-146165382D01*
X160383502Y-145877107D01*
X160440124Y-145690434D01*
X160320777Y-145437000D01*
X158977000Y-145437000D01*
X158723000Y-145437000D01*
X157379223Y-145437000D01*
X157259876Y-145690434D01*
X156915000Y-145690434D01*
X156915000Y-144210131D01*
X157220132Y-143905000D01*
X157672761Y-143905000D01*
X157807748Y-144039987D01*
X157820282Y-144048362D01*
X157650252Y-144199215D01*
X157456601Y-144454618D01*
X157316498Y-144742893D01*
X157259876Y-144929566D01*
X157379223Y-145183000D01*
X158723000Y-145183000D01*
X158723000Y-145163000D01*
X158977000Y-145163000D01*
X158977000Y-145183000D01*
X160320777Y-145183000D01*
X160440124Y-144929566D01*
X160383502Y-144742893D01*
X160243399Y-144454618D01*
X160049748Y-144199215D01*
X159879718Y-144048362D01*
X159892252Y-144039987D01*
X160119987Y-143812252D01*
X160298918Y-143544463D01*
X160422168Y-143246912D01*
X160485000Y-142931033D01*
X160485000Y-142608967D01*
X160422168Y-142293088D01*
X160298918Y-141995537D01*
X160119987Y-141727748D01*
X159892252Y-141500013D01*
X159892233Y-141500000D01*
X159892252Y-141499987D01*
X160027239Y-141365000D01*
X163169869Y-141365000D01*
X165709868Y-143905000D01*
G04 #@! TA.AperFunction,Conductor*
D18*
G36*
X165709868Y-143905000D02*
G01*
X163531860Y-146083009D01*
X163488552Y-146118551D01*
X163346717Y-146291377D01*
X163295893Y-146386463D01*
X163241324Y-146488554D01*
X163176423Y-146702502D01*
X163154509Y-146925000D01*
X163160001Y-146980761D01*
X163160000Y-154049248D01*
X163154509Y-154105000D01*
X163160000Y-154160751D01*
X163176423Y-154327498D01*
X163241324Y-154541446D01*
X163346716Y-154738623D01*
X163488551Y-154911449D01*
X163531865Y-154946996D01*
X168389868Y-159805000D01*
X167600132Y-159805000D01*
X156915000Y-149119869D01*
X156915000Y-145690434D01*
X157259876Y-145690434D01*
X157316498Y-145877107D01*
X157456601Y-146165382D01*
X157650252Y-146420785D01*
X157890008Y-146633501D01*
X158166656Y-146795356D01*
X158469565Y-146900129D01*
X158723000Y-146781315D01*
X158723000Y-145437000D01*
X158977000Y-145437000D01*
X158977000Y-146781315D01*
X159230435Y-146900129D01*
X159533344Y-146795356D01*
X159809992Y-146633501D01*
X160049748Y-146420785D01*
X160243399Y-146165382D01*
X160383502Y-145877107D01*
X160440124Y-145690434D01*
X160320777Y-145437000D01*
X158977000Y-145437000D01*
X158723000Y-145437000D01*
X157379223Y-145437000D01*
X157259876Y-145690434D01*
X156915000Y-145690434D01*
X156915000Y-144210131D01*
X157220132Y-143905000D01*
X157672761Y-143905000D01*
X157807748Y-144039987D01*
X157820282Y-144048362D01*
X157650252Y-144199215D01*
X157456601Y-144454618D01*
X157316498Y-144742893D01*
X157259876Y-144929566D01*
X157379223Y-145183000D01*
X158723000Y-145183000D01*
X158723000Y-145163000D01*
X158977000Y-145163000D01*
X158977000Y-145183000D01*
X160320777Y-145183000D01*
X160440124Y-144929566D01*
X160383502Y-144742893D01*
X160243399Y-144454618D01*
X160049748Y-144199215D01*
X159879718Y-144048362D01*
X159892252Y-144039987D01*
X160119987Y-143812252D01*
X160298918Y-143544463D01*
X160422168Y-143246912D01*
X160485000Y-142931033D01*
X160485000Y-142608967D01*
X160422168Y-142293088D01*
X160298918Y-141995537D01*
X160119987Y-141727748D01*
X159892252Y-141500013D01*
X159892233Y-141500000D01*
X159892252Y-141499987D01*
X160027239Y-141365000D01*
X163169869Y-141365000D01*
X165709868Y-143905000D01*
G37*
G04 #@! TD.AperFunction*
D17*
X178641748Y-110921987D02*
X178909537Y-111100918D01*
X179207088Y-111224168D01*
X179522967Y-111287000D01*
X179845033Y-111287000D01*
X180160912Y-111224168D01*
X180458463Y-111100918D01*
X180726252Y-110921987D01*
X180861239Y-110787000D01*
X186211869Y-110787000D01*
X189419000Y-113994132D01*
X189419000Y-115308249D01*
X189419001Y-130441867D01*
X187162262Y-132698607D01*
X187096962Y-132619038D01*
X186962386Y-132508595D01*
X186808850Y-132426528D01*
X186642254Y-132375992D01*
X186469000Y-132358928D01*
X185719000Y-132358928D01*
X185545746Y-132375992D01*
X185379150Y-132426528D01*
X185225614Y-132508595D01*
X185091038Y-132619038D01*
X184980595Y-132753614D01*
X184898528Y-132907150D01*
X184847992Y-133073746D01*
X184830928Y-133247000D01*
X184830928Y-134497000D01*
X184847992Y-134670254D01*
X184898528Y-134836850D01*
X184980595Y-134990386D01*
X185091038Y-135124962D01*
X185225614Y-135235405D01*
X185379150Y-135317472D01*
X185545746Y-135368008D01*
X185719000Y-135385072D01*
X186469000Y-135385072D01*
X186642254Y-135368008D01*
X186808850Y-135317472D01*
X186962386Y-135235405D01*
X187096962Y-135124962D01*
X187193770Y-135007000D01*
X187538249Y-135007000D01*
X187594000Y-135012491D01*
X187649751Y-135007000D01*
X187669752Y-135007000D01*
X187836499Y-134990577D01*
X188050447Y-134925676D01*
X188247623Y-134820284D01*
X188420449Y-134678449D01*
X188547529Y-134523602D01*
X189419001Y-133652131D01*
X189419000Y-148151868D01*
X183589085Y-153981784D01*
X183565033Y-153977000D01*
X183242967Y-153977000D01*
X182994760Y-154026371D01*
X188407141Y-148613991D01*
X188450449Y-148578449D01*
X188592284Y-148405623D01*
X188697676Y-148208447D01*
X188762577Y-147994499D01*
X188779000Y-147827752D01*
X188779000Y-147827751D01*
X188784491Y-147772000D01*
X188779000Y-147716249D01*
X188779000Y-140827752D01*
X188784491Y-140772000D01*
X188762577Y-140549501D01*
X188697676Y-140335553D01*
X188592284Y-140138377D01*
X188485989Y-140008856D01*
X188485987Y-140008854D01*
X188450449Y-139965551D01*
X188407146Y-139930013D01*
X184529000Y-136051869D01*
X184529000Y-134706543D01*
X184540008Y-134670254D01*
X184557072Y-134497000D01*
X184557072Y-133247000D01*
X184540008Y-133073746D01*
X184529000Y-133037457D01*
X184529000Y-128429239D01*
X184663987Y-128294252D01*
X184842918Y-128026463D01*
X184966168Y-127728912D01*
X185029000Y-127413033D01*
X185029000Y-127090967D01*
X184966168Y-126775088D01*
X184842918Y-126477537D01*
X184672557Y-126222574D01*
X186197146Y-124697987D01*
X186240449Y-124662449D01*
X186286572Y-124606249D01*
X186382284Y-124489623D01*
X186487676Y-124292447D01*
X186552577Y-124078499D01*
X186574491Y-123856000D01*
X186569000Y-123800248D01*
X186569000Y-119359741D01*
X186574490Y-119303999D01*
X186569000Y-119248257D01*
X186569000Y-119248248D01*
X186552577Y-119081501D01*
X186487676Y-118867553D01*
X186382284Y-118670377D01*
X186240449Y-118497551D01*
X186197141Y-118462009D01*
X184213996Y-116478865D01*
X184178449Y-116435551D01*
X184091239Y-116363979D01*
X184115302Y-116354012D01*
X184464983Y-116120363D01*
X184762363Y-115822983D01*
X184996012Y-115473302D01*
X185156953Y-115084756D01*
X185239000Y-114672279D01*
X185239000Y-114251721D01*
X185156953Y-113839244D01*
X184996012Y-113450698D01*
X184762363Y-113101017D01*
X184464983Y-112803637D01*
X184115302Y-112569988D01*
X183726756Y-112409047D01*
X183314279Y-112327000D01*
X182893721Y-112327000D01*
X182481244Y-112409047D01*
X182092698Y-112569988D01*
X181743017Y-112803637D01*
X181445637Y-113101017D01*
X181211988Y-113450698D01*
X181051047Y-113839244D01*
X180969000Y-114251721D01*
X180969000Y-114672279D01*
X181051047Y-115084756D01*
X181211988Y-115473302D01*
X181445637Y-115822983D01*
X181729654Y-116107000D01*
X180811239Y-116107000D01*
X180676252Y-115972013D01*
X180408463Y-115793082D01*
X180110912Y-115669832D01*
X179795033Y-115607000D01*
X179472967Y-115607000D01*
X179157088Y-115669832D01*
X178859537Y-115793082D01*
X178591748Y-115972013D01*
X178364013Y-116199748D01*
X178185082Y-116467537D01*
X178061832Y-116765088D01*
X177999000Y-117080967D01*
X177999000Y-117403033D01*
X178061832Y-117718912D01*
X178185082Y-118016463D01*
X178364013Y-118284252D01*
X178591748Y-118511987D01*
X178859537Y-118690918D01*
X179157088Y-118814168D01*
X179472967Y-118877000D01*
X179795033Y-118877000D01*
X180110912Y-118814168D01*
X180408463Y-118690918D01*
X180571001Y-118582313D01*
X180548188Y-118657518D01*
X180535928Y-118782000D01*
X180535928Y-120782000D01*
X180548188Y-120906482D01*
X180584498Y-121026180D01*
X180642221Y-121134171D01*
X180589807Y-121186585D01*
X180494044Y-120922186D01*
X180204429Y-120781296D01*
X179892892Y-120699616D01*
X179571405Y-120680282D01*
X179252325Y-120724039D01*
X178947912Y-120829205D01*
X178773956Y-120922186D01*
X178678192Y-121186587D01*
X179634000Y-122142395D01*
X179648143Y-122128253D01*
X179827748Y-122307858D01*
X179813605Y-122322000D01*
X179827748Y-122336143D01*
X179648143Y-122515748D01*
X179634000Y-122501605D01*
X178678192Y-123457413D01*
X178773956Y-123721814D01*
X179063571Y-123862704D01*
X179375108Y-123944384D01*
X179696595Y-123963718D01*
X179992030Y-123923204D01*
X179905716Y-124028377D01*
X179840575Y-124150249D01*
X179800324Y-124225554D01*
X179735423Y-124439502D01*
X179713509Y-124662000D01*
X179719000Y-124717752D01*
X179719001Y-126074760D01*
X179584013Y-126209748D01*
X179511280Y-126318600D01*
X179449413Y-126296192D01*
X178493605Y-127252000D01*
X179449413Y-128207808D01*
X179511280Y-128185400D01*
X179584013Y-128294252D01*
X179719000Y-128429239D01*
X179719001Y-131190940D01*
X179634813Y-131348447D01*
X179620324Y-131375554D01*
X179555423Y-131589502D01*
X179533509Y-131812000D01*
X179539000Y-131867752D01*
X179539000Y-132774014D01*
X179478528Y-132887150D01*
X179427992Y-133053746D01*
X179410928Y-133227000D01*
X179410928Y-134477000D01*
X179427992Y-134650254D01*
X179478528Y-134816850D01*
X179539001Y-134929986D01*
X179539000Y-136668248D01*
X179533509Y-136724000D01*
X179539000Y-136779751D01*
X179555423Y-136946498D01*
X179620324Y-137160446D01*
X179725716Y-137357623D01*
X179867551Y-137530449D01*
X179910865Y-137565996D01*
X184809001Y-142464133D01*
X184809000Y-144771810D01*
X184673987Y-144569748D01*
X184446252Y-144342013D01*
X184178463Y-144163082D01*
X183880912Y-144039832D01*
X183565033Y-143977000D01*
X183242967Y-143977000D01*
X182927088Y-144039832D01*
X182629537Y-144163082D01*
X182361748Y-144342013D01*
X182134013Y-144569748D01*
X182134000Y-144569767D01*
X182133987Y-144569748D01*
X181906252Y-144342013D01*
X181638463Y-144163082D01*
X181340912Y-144039832D01*
X181025033Y-143977000D01*
X180702967Y-143977000D01*
X180387088Y-144039832D01*
X180089537Y-144163082D01*
X179821748Y-144342013D01*
X179594013Y-144569748D01*
X179594000Y-144569767D01*
X179593987Y-144569748D01*
X179366252Y-144342013D01*
X179098463Y-144163082D01*
X178800912Y-144039832D01*
X178485033Y-143977000D01*
X178162967Y-143977000D01*
X177847088Y-144039832D01*
X177549537Y-144163082D01*
X177281748Y-144342013D01*
X177054013Y-144569748D01*
X176875082Y-144837537D01*
X176751832Y-145135088D01*
X176689000Y-145450967D01*
X176689000Y-145773033D01*
X176751832Y-146088912D01*
X176875082Y-146386463D01*
X177054013Y-146654252D01*
X177281748Y-146881987D01*
X177549537Y-147060918D01*
X177847088Y-147184168D01*
X178162967Y-147247000D01*
X178485033Y-147247000D01*
X178800912Y-147184168D01*
X179098463Y-147060918D01*
X179366252Y-146881987D01*
X179593987Y-146654252D01*
X179594000Y-146654233D01*
X179594013Y-146654252D01*
X179821748Y-146881987D01*
X180089537Y-147060918D01*
X180387088Y-147184168D01*
X180702967Y-147247000D01*
X181025033Y-147247000D01*
X181340912Y-147184168D01*
X181638463Y-147060918D01*
X181906252Y-146881987D01*
X182133987Y-146654252D01*
X182134000Y-146654233D01*
X182134013Y-146654252D01*
X182361748Y-146881987D01*
X182629537Y-147060918D01*
X182927088Y-147184168D01*
X183242967Y-147247000D01*
X183565033Y-147247000D01*
X183576062Y-147244806D01*
X177560860Y-153260009D01*
X177517552Y-153295551D01*
X177375717Y-153468377D01*
X177374113Y-153471378D01*
X177270324Y-153665554D01*
X177246057Y-153745551D01*
X177205423Y-153879501D01*
X177201594Y-153918377D01*
X177183509Y-154102000D01*
X177189000Y-154157751D01*
X177189000Y-154434761D01*
X177054013Y-154569748D01*
X176981280Y-154678600D01*
X176919413Y-154656192D01*
X175963605Y-155612000D01*
X176919413Y-156567808D01*
X176981280Y-156545400D01*
X177054013Y-156654252D01*
X177189001Y-156789240D01*
X177189001Y-157155867D01*
X176379869Y-157965000D01*
X175114622Y-157965000D01*
X175189808Y-157757413D01*
X174234000Y-156801605D01*
X173278192Y-157757413D01*
X173353378Y-157965000D01*
X169760132Y-157965000D01*
X168479727Y-156684595D01*
X172592282Y-156684595D01*
X172636039Y-157003675D01*
X172741205Y-157308088D01*
X172834186Y-157482044D01*
X173098587Y-157577808D01*
X174054395Y-156622000D01*
X173098587Y-155666192D01*
X172834186Y-155761956D01*
X172693296Y-156051571D01*
X172611616Y-156363108D01*
X172592282Y-156684595D01*
X168479727Y-156684595D01*
X165430000Y-153634869D01*
X165430000Y-147395131D01*
X167768132Y-145057000D01*
X173056761Y-145057000D01*
X173191748Y-145191987D01*
X173191767Y-145192000D01*
X173191748Y-145192013D01*
X172964013Y-145419748D01*
X172785082Y-145687537D01*
X172661832Y-145985088D01*
X172599000Y-146300967D01*
X172599000Y-146623033D01*
X172661832Y-146938912D01*
X172785082Y-147236463D01*
X172964013Y-147504252D01*
X173191748Y-147731987D01*
X173191767Y-147732000D01*
X173191748Y-147732013D01*
X172964013Y-147959748D01*
X172785082Y-148227537D01*
X172661832Y-148525088D01*
X172599000Y-148840967D01*
X172599000Y-149163033D01*
X172661832Y-149478912D01*
X172785082Y-149776463D01*
X172964013Y-150044252D01*
X173191748Y-150271987D01*
X173191767Y-150272000D01*
X173191748Y-150272013D01*
X172964013Y-150499748D01*
X172785082Y-150767537D01*
X172661832Y-151065088D01*
X172599000Y-151380967D01*
X172599000Y-151703033D01*
X172661832Y-152018912D01*
X172785082Y-152316463D01*
X172964013Y-152584252D01*
X173191748Y-152811987D01*
X173236766Y-152842067D01*
X173223621Y-152850850D01*
X173002850Y-153071621D01*
X172829391Y-153331221D01*
X172709911Y-153619673D01*
X172649000Y-153925891D01*
X172649000Y-154238109D01*
X172709911Y-154544327D01*
X172829391Y-154832779D01*
X173002850Y-155092379D01*
X173223621Y-155313150D01*
X173318136Y-155376303D01*
X173278192Y-155486587D01*
X174234000Y-156442395D01*
X174248143Y-156428253D01*
X174427748Y-156607858D01*
X174413605Y-156622000D01*
X175369413Y-157577808D01*
X175633814Y-157482044D01*
X175747779Y-157247775D01*
X175846595Y-157253718D01*
X176165675Y-157209961D01*
X176470088Y-157104795D01*
X176644044Y-157011814D01*
X176739808Y-156747413D01*
X175784000Y-155791605D01*
X175769858Y-155805748D01*
X175590253Y-155626143D01*
X175604395Y-155612000D01*
X175590253Y-155597858D01*
X175769858Y-155418253D01*
X175784000Y-155432395D01*
X176739808Y-154476587D01*
X176644044Y-154212186D01*
X176354429Y-154071296D01*
X176042892Y-153989616D01*
X175819000Y-153976151D01*
X175819000Y-153925891D01*
X175758089Y-153619673D01*
X175638609Y-153331221D01*
X175465150Y-153071621D01*
X175244379Y-152850850D01*
X175231234Y-152842067D01*
X175276252Y-152811987D01*
X175503987Y-152584252D01*
X175682918Y-152316463D01*
X175806168Y-152018912D01*
X175869000Y-151703033D01*
X175869000Y-151380967D01*
X175806168Y-151065088D01*
X175682918Y-150767537D01*
X175503987Y-150499748D01*
X175276252Y-150272013D01*
X175276233Y-150272000D01*
X175276252Y-150271987D01*
X175503987Y-150044252D01*
X175682918Y-149776463D01*
X175806168Y-149478912D01*
X175869000Y-149163033D01*
X175869000Y-148840967D01*
X175806168Y-148525088D01*
X175682918Y-148227537D01*
X175503987Y-147959748D01*
X175276252Y-147732013D01*
X175276233Y-147732000D01*
X175276252Y-147731987D01*
X175503987Y-147504252D01*
X175682918Y-147236463D01*
X175806168Y-146938912D01*
X175869000Y-146623033D01*
X175869000Y-146300967D01*
X175857917Y-146245247D01*
X175969369Y-146223078D01*
X176085022Y-146175173D01*
X176189108Y-146105625D01*
X176277625Y-146017108D01*
X176347173Y-145913022D01*
X176395078Y-145797369D01*
X176419500Y-145674591D01*
X176419500Y-145549409D01*
X176395078Y-145426631D01*
X176347173Y-145310978D01*
X176277625Y-145206892D01*
X176189108Y-145118375D01*
X176085022Y-145048827D01*
X175969369Y-145000922D01*
X175846591Y-144976500D01*
X175721409Y-144976500D01*
X175598631Y-145000922D01*
X175482978Y-145048827D01*
X175378892Y-145118375D01*
X175290753Y-145206514D01*
X175276252Y-145192013D01*
X175276233Y-145192000D01*
X175276252Y-145191987D01*
X175503987Y-144964252D01*
X175682918Y-144696463D01*
X175806168Y-144398912D01*
X175869000Y-144083033D01*
X175869000Y-143760967D01*
X175806168Y-143445088D01*
X175682918Y-143147537D01*
X175503987Y-142879748D01*
X175276252Y-142652013D01*
X175276233Y-142652000D01*
X175276252Y-142651987D01*
X175503987Y-142424252D01*
X175682918Y-142156463D01*
X175806168Y-141858912D01*
X175869000Y-141543033D01*
X175869000Y-141220967D01*
X175806168Y-140905088D01*
X175682918Y-140607537D01*
X175503987Y-140339748D01*
X175369000Y-140204761D01*
X175369000Y-139752131D01*
X178637141Y-136483991D01*
X178680449Y-136448449D01*
X178822284Y-136275623D01*
X178927676Y-136078447D01*
X178992577Y-135864499D01*
X179009000Y-135697752D01*
X179009000Y-135697743D01*
X179014490Y-135642001D01*
X179009000Y-135586259D01*
X179009000Y-134929985D01*
X179069472Y-134816850D01*
X179120008Y-134650254D01*
X179137072Y-134477000D01*
X179137072Y-133227000D01*
X179120008Y-133053746D01*
X179069472Y-132887150D01*
X178987405Y-132733614D01*
X178876962Y-132599038D01*
X178742386Y-132488595D01*
X178588850Y-132406528D01*
X178422254Y-132355992D01*
X178249000Y-132338928D01*
X177499000Y-132338928D01*
X177325746Y-132355992D01*
X177159150Y-132406528D01*
X177005614Y-132488595D01*
X176909000Y-132567884D01*
X176909000Y-128429239D01*
X176950826Y-128387413D01*
X177358192Y-128387413D01*
X177453956Y-128651814D01*
X177743571Y-128792704D01*
X178055108Y-128874384D01*
X178376595Y-128893718D01*
X178695675Y-128849961D01*
X179000088Y-128744795D01*
X179174044Y-128651814D01*
X179269808Y-128387413D01*
X178314000Y-127431605D01*
X177358192Y-128387413D01*
X176950826Y-128387413D01*
X177043987Y-128294252D01*
X177116720Y-128185400D01*
X177178587Y-128207808D01*
X178134395Y-127252000D01*
X177178587Y-126296192D01*
X177116720Y-126318600D01*
X177043987Y-126209748D01*
X176950826Y-126116587D01*
X177358192Y-126116587D01*
X178314000Y-127072395D01*
X179269808Y-126116587D01*
X179174044Y-125852186D01*
X178884429Y-125711296D01*
X178572892Y-125629616D01*
X178251405Y-125610282D01*
X177932325Y-125654039D01*
X177627912Y-125759205D01*
X177453956Y-125852186D01*
X177358192Y-126116587D01*
X176950826Y-126116587D01*
X176909000Y-126074761D01*
X176909000Y-124676131D01*
X177857140Y-123727992D01*
X177900449Y-123692449D01*
X178042284Y-123519623D01*
X178147676Y-123322447D01*
X178206168Y-123129626D01*
X178234186Y-123182044D01*
X178498587Y-123277808D01*
X179454395Y-122322000D01*
X178498587Y-121366192D01*
X178234186Y-121461956D01*
X178229000Y-121472616D01*
X178229000Y-120959239D01*
X178363987Y-120824252D01*
X178542918Y-120556463D01*
X178666168Y-120258912D01*
X178729000Y-119943033D01*
X178729000Y-119620967D01*
X178666168Y-119305088D01*
X178542918Y-119007537D01*
X178363987Y-118739748D01*
X178136252Y-118512013D01*
X177868463Y-118333082D01*
X177570912Y-118209832D01*
X177255033Y-118147000D01*
X176932967Y-118147000D01*
X176617088Y-118209832D01*
X176319537Y-118333082D01*
X176051748Y-118512013D01*
X175916761Y-118647000D01*
X174932132Y-118647000D01*
X173425000Y-117139869D01*
X173425000Y-114251721D01*
X173969000Y-114251721D01*
X173969000Y-114672279D01*
X174051047Y-115084756D01*
X174211988Y-115473302D01*
X174445637Y-115822983D01*
X174743017Y-116120363D01*
X175092698Y-116354012D01*
X175481244Y-116514953D01*
X175893721Y-116597000D01*
X176314279Y-116597000D01*
X176726756Y-116514953D01*
X177115302Y-116354012D01*
X177464983Y-116120363D01*
X177762363Y-115822983D01*
X177996012Y-115473302D01*
X178156953Y-115084756D01*
X178239000Y-114672279D01*
X178239000Y-114251721D01*
X178156953Y-113839244D01*
X177996012Y-113450698D01*
X177762363Y-113101017D01*
X177464983Y-112803637D01*
X177115302Y-112569988D01*
X176726756Y-112409047D01*
X176314279Y-112327000D01*
X175893721Y-112327000D01*
X175481244Y-112409047D01*
X175092698Y-112569988D01*
X174743017Y-112803637D01*
X174445637Y-113101017D01*
X174211988Y-113450698D01*
X174051047Y-113839244D01*
X173969000Y-114251721D01*
X173425000Y-114251721D01*
X173425000Y-112696131D01*
X175334133Y-110787000D01*
X178506761Y-110787000D01*
X178641748Y-110921987D01*
G04 #@! TA.AperFunction,Conductor*
D18*
G36*
X178641748Y-110921987D02*
G01*
X178909537Y-111100918D01*
X179207088Y-111224168D01*
X179522967Y-111287000D01*
X179845033Y-111287000D01*
X180160912Y-111224168D01*
X180458463Y-111100918D01*
X180726252Y-110921987D01*
X180861239Y-110787000D01*
X186211869Y-110787000D01*
X189419000Y-113994132D01*
X189419000Y-115308249D01*
X189419001Y-130441867D01*
X187162262Y-132698607D01*
X187096962Y-132619038D01*
X186962386Y-132508595D01*
X186808850Y-132426528D01*
X186642254Y-132375992D01*
X186469000Y-132358928D01*
X185719000Y-132358928D01*
X185545746Y-132375992D01*
X185379150Y-132426528D01*
X185225614Y-132508595D01*
X185091038Y-132619038D01*
X184980595Y-132753614D01*
X184898528Y-132907150D01*
X184847992Y-133073746D01*
X184830928Y-133247000D01*
X184830928Y-134497000D01*
X184847992Y-134670254D01*
X184898528Y-134836850D01*
X184980595Y-134990386D01*
X185091038Y-135124962D01*
X185225614Y-135235405D01*
X185379150Y-135317472D01*
X185545746Y-135368008D01*
X185719000Y-135385072D01*
X186469000Y-135385072D01*
X186642254Y-135368008D01*
X186808850Y-135317472D01*
X186962386Y-135235405D01*
X187096962Y-135124962D01*
X187193770Y-135007000D01*
X187538249Y-135007000D01*
X187594000Y-135012491D01*
X187649751Y-135007000D01*
X187669752Y-135007000D01*
X187836499Y-134990577D01*
X188050447Y-134925676D01*
X188247623Y-134820284D01*
X188420449Y-134678449D01*
X188547529Y-134523602D01*
X189419001Y-133652131D01*
X189419000Y-148151868D01*
X183589085Y-153981784D01*
X183565033Y-153977000D01*
X183242967Y-153977000D01*
X182994760Y-154026371D01*
X188407141Y-148613991D01*
X188450449Y-148578449D01*
X188592284Y-148405623D01*
X188697676Y-148208447D01*
X188762577Y-147994499D01*
X188779000Y-147827752D01*
X188779000Y-147827751D01*
X188784491Y-147772000D01*
X188779000Y-147716249D01*
X188779000Y-140827752D01*
X188784491Y-140772000D01*
X188762577Y-140549501D01*
X188697676Y-140335553D01*
X188592284Y-140138377D01*
X188485989Y-140008856D01*
X188485987Y-140008854D01*
X188450449Y-139965551D01*
X188407146Y-139930013D01*
X184529000Y-136051869D01*
X184529000Y-134706543D01*
X184540008Y-134670254D01*
X184557072Y-134497000D01*
X184557072Y-133247000D01*
X184540008Y-133073746D01*
X184529000Y-133037457D01*
X184529000Y-128429239D01*
X184663987Y-128294252D01*
X184842918Y-128026463D01*
X184966168Y-127728912D01*
X185029000Y-127413033D01*
X185029000Y-127090967D01*
X184966168Y-126775088D01*
X184842918Y-126477537D01*
X184672557Y-126222574D01*
X186197146Y-124697987D01*
X186240449Y-124662449D01*
X186286572Y-124606249D01*
X186382284Y-124489623D01*
X186487676Y-124292447D01*
X186552577Y-124078499D01*
X186574491Y-123856000D01*
X186569000Y-123800248D01*
X186569000Y-119359741D01*
X186574490Y-119303999D01*
X186569000Y-119248257D01*
X186569000Y-119248248D01*
X186552577Y-119081501D01*
X186487676Y-118867553D01*
X186382284Y-118670377D01*
X186240449Y-118497551D01*
X186197141Y-118462009D01*
X184213996Y-116478865D01*
X184178449Y-116435551D01*
X184091239Y-116363979D01*
X184115302Y-116354012D01*
X184464983Y-116120363D01*
X184762363Y-115822983D01*
X184996012Y-115473302D01*
X185156953Y-115084756D01*
X185239000Y-114672279D01*
X185239000Y-114251721D01*
X185156953Y-113839244D01*
X184996012Y-113450698D01*
X184762363Y-113101017D01*
X184464983Y-112803637D01*
X184115302Y-112569988D01*
X183726756Y-112409047D01*
X183314279Y-112327000D01*
X182893721Y-112327000D01*
X182481244Y-112409047D01*
X182092698Y-112569988D01*
X181743017Y-112803637D01*
X181445637Y-113101017D01*
X181211988Y-113450698D01*
X181051047Y-113839244D01*
X180969000Y-114251721D01*
X180969000Y-114672279D01*
X181051047Y-115084756D01*
X181211988Y-115473302D01*
X181445637Y-115822983D01*
X181729654Y-116107000D01*
X180811239Y-116107000D01*
X180676252Y-115972013D01*
X180408463Y-115793082D01*
X180110912Y-115669832D01*
X179795033Y-115607000D01*
X179472967Y-115607000D01*
X179157088Y-115669832D01*
X178859537Y-115793082D01*
X178591748Y-115972013D01*
X178364013Y-116199748D01*
X178185082Y-116467537D01*
X178061832Y-116765088D01*
X177999000Y-117080967D01*
X177999000Y-117403033D01*
X178061832Y-117718912D01*
X178185082Y-118016463D01*
X178364013Y-118284252D01*
X178591748Y-118511987D01*
X178859537Y-118690918D01*
X179157088Y-118814168D01*
X179472967Y-118877000D01*
X179795033Y-118877000D01*
X180110912Y-118814168D01*
X180408463Y-118690918D01*
X180571001Y-118582313D01*
X180548188Y-118657518D01*
X180535928Y-118782000D01*
X180535928Y-120782000D01*
X180548188Y-120906482D01*
X180584498Y-121026180D01*
X180642221Y-121134171D01*
X180589807Y-121186585D01*
X180494044Y-120922186D01*
X180204429Y-120781296D01*
X179892892Y-120699616D01*
X179571405Y-120680282D01*
X179252325Y-120724039D01*
X178947912Y-120829205D01*
X178773956Y-120922186D01*
X178678192Y-121186587D01*
X179634000Y-122142395D01*
X179648143Y-122128253D01*
X179827748Y-122307858D01*
X179813605Y-122322000D01*
X179827748Y-122336143D01*
X179648143Y-122515748D01*
X179634000Y-122501605D01*
X178678192Y-123457413D01*
X178773956Y-123721814D01*
X179063571Y-123862704D01*
X179375108Y-123944384D01*
X179696595Y-123963718D01*
X179992030Y-123923204D01*
X179905716Y-124028377D01*
X179840575Y-124150249D01*
X179800324Y-124225554D01*
X179735423Y-124439502D01*
X179713509Y-124662000D01*
X179719000Y-124717752D01*
X179719001Y-126074760D01*
X179584013Y-126209748D01*
X179511280Y-126318600D01*
X179449413Y-126296192D01*
X178493605Y-127252000D01*
X179449413Y-128207808D01*
X179511280Y-128185400D01*
X179584013Y-128294252D01*
X179719000Y-128429239D01*
X179719001Y-131190940D01*
X179634813Y-131348447D01*
X179620324Y-131375554D01*
X179555423Y-131589502D01*
X179533509Y-131812000D01*
X179539000Y-131867752D01*
X179539000Y-132774014D01*
X179478528Y-132887150D01*
X179427992Y-133053746D01*
X179410928Y-133227000D01*
X179410928Y-134477000D01*
X179427992Y-134650254D01*
X179478528Y-134816850D01*
X179539001Y-134929986D01*
X179539000Y-136668248D01*
X179533509Y-136724000D01*
X179539000Y-136779751D01*
X179555423Y-136946498D01*
X179620324Y-137160446D01*
X179725716Y-137357623D01*
X179867551Y-137530449D01*
X179910865Y-137565996D01*
X184809001Y-142464133D01*
X184809000Y-144771810D01*
X184673987Y-144569748D01*
X184446252Y-144342013D01*
X184178463Y-144163082D01*
X183880912Y-144039832D01*
X183565033Y-143977000D01*
X183242967Y-143977000D01*
X182927088Y-144039832D01*
X182629537Y-144163082D01*
X182361748Y-144342013D01*
X182134013Y-144569748D01*
X182134000Y-144569767D01*
X182133987Y-144569748D01*
X181906252Y-144342013D01*
X181638463Y-144163082D01*
X181340912Y-144039832D01*
X181025033Y-143977000D01*
X180702967Y-143977000D01*
X180387088Y-144039832D01*
X180089537Y-144163082D01*
X179821748Y-144342013D01*
X179594013Y-144569748D01*
X179594000Y-144569767D01*
X179593987Y-144569748D01*
X179366252Y-144342013D01*
X179098463Y-144163082D01*
X178800912Y-144039832D01*
X178485033Y-143977000D01*
X178162967Y-143977000D01*
X177847088Y-144039832D01*
X177549537Y-144163082D01*
X177281748Y-144342013D01*
X177054013Y-144569748D01*
X176875082Y-144837537D01*
X176751832Y-145135088D01*
X176689000Y-145450967D01*
X176689000Y-145773033D01*
X176751832Y-146088912D01*
X176875082Y-146386463D01*
X177054013Y-146654252D01*
X177281748Y-146881987D01*
X177549537Y-147060918D01*
X177847088Y-147184168D01*
X178162967Y-147247000D01*
X178485033Y-147247000D01*
X178800912Y-147184168D01*
X179098463Y-147060918D01*
X179366252Y-146881987D01*
X179593987Y-146654252D01*
X179594000Y-146654233D01*
X179594013Y-146654252D01*
X179821748Y-146881987D01*
X180089537Y-147060918D01*
X180387088Y-147184168D01*
X180702967Y-147247000D01*
X181025033Y-147247000D01*
X181340912Y-147184168D01*
X181638463Y-147060918D01*
X181906252Y-146881987D01*
X182133987Y-146654252D01*
X182134000Y-146654233D01*
X182134013Y-146654252D01*
X182361748Y-146881987D01*
X182629537Y-147060918D01*
X182927088Y-147184168D01*
X183242967Y-147247000D01*
X183565033Y-147247000D01*
X183576062Y-147244806D01*
X177560860Y-153260009D01*
X177517552Y-153295551D01*
X177375717Y-153468377D01*
X177374113Y-153471378D01*
X177270324Y-153665554D01*
X177246057Y-153745551D01*
X177205423Y-153879501D01*
X177201594Y-153918377D01*
X177183509Y-154102000D01*
X177189000Y-154157751D01*
X177189000Y-154434761D01*
X177054013Y-154569748D01*
X176981280Y-154678600D01*
X176919413Y-154656192D01*
X175963605Y-155612000D01*
X176919413Y-156567808D01*
X176981280Y-156545400D01*
X177054013Y-156654252D01*
X177189001Y-156789240D01*
X177189001Y-157155867D01*
X176379869Y-157965000D01*
X175114622Y-157965000D01*
X175189808Y-157757413D01*
X174234000Y-156801605D01*
X173278192Y-157757413D01*
X173353378Y-157965000D01*
X169760132Y-157965000D01*
X168479727Y-156684595D01*
X172592282Y-156684595D01*
X172636039Y-157003675D01*
X172741205Y-157308088D01*
X172834186Y-157482044D01*
X173098587Y-157577808D01*
X174054395Y-156622000D01*
X173098587Y-155666192D01*
X172834186Y-155761956D01*
X172693296Y-156051571D01*
X172611616Y-156363108D01*
X172592282Y-156684595D01*
X168479727Y-156684595D01*
X165430000Y-153634869D01*
X165430000Y-147395131D01*
X167768132Y-145057000D01*
X173056761Y-145057000D01*
X173191748Y-145191987D01*
X173191767Y-145192000D01*
X173191748Y-145192013D01*
X172964013Y-145419748D01*
X172785082Y-145687537D01*
X172661832Y-145985088D01*
X172599000Y-146300967D01*
X172599000Y-146623033D01*
X172661832Y-146938912D01*
X172785082Y-147236463D01*
X172964013Y-147504252D01*
X173191748Y-147731987D01*
X173191767Y-147732000D01*
X173191748Y-147732013D01*
X172964013Y-147959748D01*
X172785082Y-148227537D01*
X172661832Y-148525088D01*
X172599000Y-148840967D01*
X172599000Y-149163033D01*
X172661832Y-149478912D01*
X172785082Y-149776463D01*
X172964013Y-150044252D01*
X173191748Y-150271987D01*
X173191767Y-150272000D01*
X173191748Y-150272013D01*
X172964013Y-150499748D01*
X172785082Y-150767537D01*
X172661832Y-151065088D01*
X172599000Y-151380967D01*
X172599000Y-151703033D01*
X172661832Y-152018912D01*
X172785082Y-152316463D01*
X172964013Y-152584252D01*
X173191748Y-152811987D01*
X173236766Y-152842067D01*
X173223621Y-152850850D01*
X173002850Y-153071621D01*
X172829391Y-153331221D01*
X172709911Y-153619673D01*
X172649000Y-153925891D01*
X172649000Y-154238109D01*
X172709911Y-154544327D01*
X172829391Y-154832779D01*
X173002850Y-155092379D01*
X173223621Y-155313150D01*
X173318136Y-155376303D01*
X173278192Y-155486587D01*
X174234000Y-156442395D01*
X174248143Y-156428253D01*
X174427748Y-156607858D01*
X174413605Y-156622000D01*
X175369413Y-157577808D01*
X175633814Y-157482044D01*
X175747779Y-157247775D01*
X175846595Y-157253718D01*
X176165675Y-157209961D01*
X176470088Y-157104795D01*
X176644044Y-157011814D01*
X176739808Y-156747413D01*
X175784000Y-155791605D01*
X175769858Y-155805748D01*
X175590253Y-155626143D01*
X175604395Y-155612000D01*
X175590253Y-155597858D01*
X175769858Y-155418253D01*
X175784000Y-155432395D01*
X176739808Y-154476587D01*
X176644044Y-154212186D01*
X176354429Y-154071296D01*
X176042892Y-153989616D01*
X175819000Y-153976151D01*
X175819000Y-153925891D01*
X175758089Y-153619673D01*
X175638609Y-153331221D01*
X175465150Y-153071621D01*
X175244379Y-152850850D01*
X175231234Y-152842067D01*
X175276252Y-152811987D01*
X175503987Y-152584252D01*
X175682918Y-152316463D01*
X175806168Y-152018912D01*
X175869000Y-151703033D01*
X175869000Y-151380967D01*
X175806168Y-151065088D01*
X175682918Y-150767537D01*
X175503987Y-150499748D01*
X175276252Y-150272013D01*
X175276233Y-150272000D01*
X175276252Y-150271987D01*
X175503987Y-150044252D01*
X175682918Y-149776463D01*
X175806168Y-149478912D01*
X175869000Y-149163033D01*
X175869000Y-148840967D01*
X175806168Y-148525088D01*
X175682918Y-148227537D01*
X175503987Y-147959748D01*
X175276252Y-147732013D01*
X175276233Y-147732000D01*
X175276252Y-147731987D01*
X175503987Y-147504252D01*
X175682918Y-147236463D01*
X175806168Y-146938912D01*
X175869000Y-146623033D01*
X175869000Y-146300967D01*
X175857917Y-146245247D01*
X175969369Y-146223078D01*
X176085022Y-146175173D01*
X176189108Y-146105625D01*
X176277625Y-146017108D01*
X176347173Y-145913022D01*
X176395078Y-145797369D01*
X176419500Y-145674591D01*
X176419500Y-145549409D01*
X176395078Y-145426631D01*
X176347173Y-145310978D01*
X176277625Y-145206892D01*
X176189108Y-145118375D01*
X176085022Y-145048827D01*
X175969369Y-145000922D01*
X175846591Y-144976500D01*
X175721409Y-144976500D01*
X175598631Y-145000922D01*
X175482978Y-145048827D01*
X175378892Y-145118375D01*
X175290753Y-145206514D01*
X175276252Y-145192013D01*
X175276233Y-145192000D01*
X175276252Y-145191987D01*
X175503987Y-144964252D01*
X175682918Y-144696463D01*
X175806168Y-144398912D01*
X175869000Y-144083033D01*
X175869000Y-143760967D01*
X175806168Y-143445088D01*
X175682918Y-143147537D01*
X175503987Y-142879748D01*
X175276252Y-142652013D01*
X175276233Y-142652000D01*
X175276252Y-142651987D01*
X175503987Y-142424252D01*
X175682918Y-142156463D01*
X175806168Y-141858912D01*
X175869000Y-141543033D01*
X175869000Y-141220967D01*
X175806168Y-140905088D01*
X175682918Y-140607537D01*
X175503987Y-140339748D01*
X175369000Y-140204761D01*
X175369000Y-139752131D01*
X178637141Y-136483991D01*
X178680449Y-136448449D01*
X178822284Y-136275623D01*
X178927676Y-136078447D01*
X178992577Y-135864499D01*
X179009000Y-135697752D01*
X179009000Y-135697743D01*
X179014490Y-135642001D01*
X179009000Y-135586259D01*
X179009000Y-134929985D01*
X179069472Y-134816850D01*
X179120008Y-134650254D01*
X179137072Y-134477000D01*
X179137072Y-133227000D01*
X179120008Y-133053746D01*
X179069472Y-132887150D01*
X178987405Y-132733614D01*
X178876962Y-132599038D01*
X178742386Y-132488595D01*
X178588850Y-132406528D01*
X178422254Y-132355992D01*
X178249000Y-132338928D01*
X177499000Y-132338928D01*
X177325746Y-132355992D01*
X177159150Y-132406528D01*
X177005614Y-132488595D01*
X176909000Y-132567884D01*
X176909000Y-128429239D01*
X176950826Y-128387413D01*
X177358192Y-128387413D01*
X177453956Y-128651814D01*
X177743571Y-128792704D01*
X178055108Y-128874384D01*
X178376595Y-128893718D01*
X178695675Y-128849961D01*
X179000088Y-128744795D01*
X179174044Y-128651814D01*
X179269808Y-128387413D01*
X178314000Y-127431605D01*
X177358192Y-128387413D01*
X176950826Y-128387413D01*
X177043987Y-128294252D01*
X177116720Y-128185400D01*
X177178587Y-128207808D01*
X178134395Y-127252000D01*
X177178587Y-126296192D01*
X177116720Y-126318600D01*
X177043987Y-126209748D01*
X176950826Y-126116587D01*
X177358192Y-126116587D01*
X178314000Y-127072395D01*
X179269808Y-126116587D01*
X179174044Y-125852186D01*
X178884429Y-125711296D01*
X178572892Y-125629616D01*
X178251405Y-125610282D01*
X177932325Y-125654039D01*
X177627912Y-125759205D01*
X177453956Y-125852186D01*
X177358192Y-126116587D01*
X176950826Y-126116587D01*
X176909000Y-126074761D01*
X176909000Y-124676131D01*
X177857140Y-123727992D01*
X177900449Y-123692449D01*
X178042284Y-123519623D01*
X178147676Y-123322447D01*
X178206168Y-123129626D01*
X178234186Y-123182044D01*
X178498587Y-123277808D01*
X179454395Y-122322000D01*
X178498587Y-121366192D01*
X178234186Y-121461956D01*
X178229000Y-121472616D01*
X178229000Y-120959239D01*
X178363987Y-120824252D01*
X178542918Y-120556463D01*
X178666168Y-120258912D01*
X178729000Y-119943033D01*
X178729000Y-119620967D01*
X178666168Y-119305088D01*
X178542918Y-119007537D01*
X178363987Y-118739748D01*
X178136252Y-118512013D01*
X177868463Y-118333082D01*
X177570912Y-118209832D01*
X177255033Y-118147000D01*
X176932967Y-118147000D01*
X176617088Y-118209832D01*
X176319537Y-118333082D01*
X176051748Y-118512013D01*
X175916761Y-118647000D01*
X174932132Y-118647000D01*
X173425000Y-117139869D01*
X173425000Y-114251721D01*
X173969000Y-114251721D01*
X173969000Y-114672279D01*
X174051047Y-115084756D01*
X174211988Y-115473302D01*
X174445637Y-115822983D01*
X174743017Y-116120363D01*
X175092698Y-116354012D01*
X175481244Y-116514953D01*
X175893721Y-116597000D01*
X176314279Y-116597000D01*
X176726756Y-116514953D01*
X177115302Y-116354012D01*
X177464983Y-116120363D01*
X177762363Y-115822983D01*
X177996012Y-115473302D01*
X178156953Y-115084756D01*
X178239000Y-114672279D01*
X178239000Y-114251721D01*
X178156953Y-113839244D01*
X177996012Y-113450698D01*
X177762363Y-113101017D01*
X177464983Y-112803637D01*
X177115302Y-112569988D01*
X176726756Y-112409047D01*
X176314279Y-112327000D01*
X175893721Y-112327000D01*
X175481244Y-112409047D01*
X175092698Y-112569988D01*
X174743017Y-112803637D01*
X174445637Y-113101017D01*
X174211988Y-113450698D01*
X174051047Y-113839244D01*
X173969000Y-114251721D01*
X173425000Y-114251721D01*
X173425000Y-112696131D01*
X175334133Y-110787000D01*
X178506761Y-110787000D01*
X178641748Y-110921987D01*
G37*
G04 #@! TD.AperFunction*
M02*
