G04 #@! TF.GenerationSoftware,KiCad,Pcbnew,5.1.8-db9833491~88~ubuntu18.04.1*
G04 #@! TF.CreationDate,2020-12-10T12:49:00+05:30*
G04 #@! TF.ProjectId,Permitme_main _sub_V1,5065726d-6974-46d6-955f-6d61696e205f,rev?*
G04 #@! TF.SameCoordinates,Original*
G04 #@! TF.FileFunction,Legend,Top*
G04 #@! TF.FilePolarity,Positive*
%FSLAX46Y46*%
G04 Gerber Fmt 4.6, Leading zero omitted, Abs format (unit mm)*
G04 Created by KiCad (PCBNEW 5.1.8-db9833491~88~ubuntu18.04.1) date 2020-12-10 12:49:00*
%MOMM*%
%LPD*%
G01*
G04 APERTURE LIST*
%ADD10C,0.150000*%
%ADD11C,0.120000*%
%ADD12C,0.200000*%
%ADD13C,0.127000*%
%ADD14C,0.015000*%
G04 APERTURE END LIST*
D10*
X184263987Y-119771889D02*
G75*
G03*
X184263987Y-119771889I-4640072J0D01*
G01*
X181412837Y-119771889D02*
G75*
G03*
X181412837Y-119771889I-1788922J0D01*
G01*
X185104000Y-112382000D02*
X185104000Y-128382000D01*
X174104000Y-128382000D02*
X185104000Y-128382000D01*
X174104000Y-112382000D02*
X174104000Y-128382000D01*
X174104000Y-112382000D02*
X185104000Y-112382000D01*
D11*
X182124000Y-101392000D02*
G75*
G03*
X182124000Y-101392000I-2500000J0D01*
G01*
X178079000Y-103952000D02*
X181169000Y-103952000D01*
X179623538Y-98402000D02*
G75*
G02*
X181168830Y-103952000I462J-2990000D01*
G01*
X179624462Y-98402000D02*
G75*
G03*
X178079170Y-103952000I-462J-2990000D01*
G01*
X157520000Y-133820000D02*
X158850000Y-133820000D01*
X157520000Y-135150000D02*
X157520000Y-133820000D01*
X157520000Y-136420000D02*
X160180000Y-136420000D01*
X160180000Y-136420000D02*
X160180000Y-146640000D01*
X157520000Y-136420000D02*
X157520000Y-146640000D01*
X157520000Y-146640000D02*
X160180000Y-146640000D01*
X173234000Y-140482000D02*
X173234000Y-157882000D01*
X186234000Y-140482000D02*
X173234000Y-140482000D01*
X186234000Y-157882000D02*
X173234000Y-157882000D01*
X186234000Y-140482000D02*
X186234000Y-157882000D01*
X181234000Y-147882000D02*
X181234000Y-153382000D01*
X181234000Y-147882000D02*
X178234000Y-147882000D01*
X178234000Y-153382000D02*
X178234000Y-147882000D01*
X178234000Y-153382000D02*
X181234000Y-153382000D01*
D10*
X180416000Y-107112000D02*
G75*
G03*
X180416000Y-107112000I-762000J0D01*
G01*
X180120470Y-102647189D02*
G75*
G03*
X180120470Y-102647189I-482600J0D01*
G01*
X180463370Y-102647189D02*
G75*
G03*
X180463370Y-102647189I-825500J0D01*
G01*
X180086600Y-100112000D02*
G75*
G03*
X180086600Y-100112000I-482600J0D01*
G01*
X180429500Y-100107188D02*
G75*
G03*
X180429500Y-100107188I-825500J0D01*
G01*
X180111200Y-107112000D02*
G75*
G03*
X180111200Y-107112000I-457200J0D01*
G01*
X180113739Y-109612377D02*
G75*
G03*
X180113739Y-109612377I-457200J0D01*
G01*
X178854000Y-108850377D02*
X180454000Y-108850377D01*
X151850270Y-98329189D02*
X182076270Y-98329189D01*
X182076270Y-98329189D02*
X182076270Y-111791189D01*
X151850270Y-98329189D02*
X151850270Y-111791189D01*
X151850270Y-111792000D02*
X182076270Y-111792000D01*
X180454000Y-110374376D02*
X180454000Y-108850377D01*
X178854000Y-108850377D02*
X178854000Y-110374376D01*
X180454000Y-110372000D02*
X178854000Y-110374376D01*
X178010602Y-106543059D02*
G75*
G02*
X177989692Y-106562045I1623398J-1808941D01*
G01*
X178000602Y-99553059D02*
G75*
G02*
X177979692Y-99572045I1623398J-1808941D01*
G01*
D12*
X185014000Y-119782000D02*
G75*
G03*
X185014000Y-119782000I-100000J0D01*
G01*
D13*
X182667490Y-123381170D02*
X183233170Y-123946860D01*
X183233170Y-123946860D02*
X183798860Y-123381170D01*
X183798860Y-123381170D02*
X183233170Y-122815490D01*
X183233170Y-122815490D02*
G75*
G03*
X182964470Y-116451530I-3603771J3035494D01*
G01*
X182964470Y-116451530D02*
G75*
G03*
X176303530Y-116451530I-3330470J-3330470D01*
G01*
X176303530Y-116451530D02*
G75*
G03*
X176303530Y-123112470I3330470J-3330470D01*
G01*
X176303530Y-123112471D02*
G75*
G03*
X182667490Y-123381170I3328445J3334573D01*
G01*
D10*
X177784000Y-153612000D02*
X177784000Y-147612000D01*
X181784000Y-153612000D02*
X177784000Y-153612000D01*
X181784000Y-147612000D02*
X181784000Y-153612000D01*
X177784000Y-147612000D02*
X181784000Y-147612000D01*
X187784000Y-145112000D02*
X187784000Y-156112000D01*
X188784000Y-145112000D02*
X188784000Y-156112000D01*
X171784000Y-145112000D02*
X171784000Y-156112000D01*
X170784000Y-145112000D02*
X170784000Y-156112000D01*
X169784000Y-157112000D02*
X169784000Y-144112000D01*
X188784000Y-158112000D02*
X170784000Y-158112000D01*
X189784000Y-144112000D02*
X189784000Y-157112000D01*
X170784000Y-143112000D02*
X188784000Y-143112000D01*
X169784000Y-144112000D02*
G75*
G02*
X170784000Y-143112000I1000000J0D01*
G01*
X170784000Y-158112000D02*
G75*
G02*
X169784000Y-157112000I0J1000000D01*
G01*
X188784000Y-143112000D02*
G75*
G02*
X189784000Y-144112000I0J-1000000D01*
G01*
X189784000Y-157112000D02*
G75*
G02*
X188784000Y-158112000I-1000000J0D01*
G01*
X170784000Y-145112000D02*
G75*
G02*
X171784000Y-145112000I500000J0D01*
G01*
X171784000Y-156112000D02*
G75*
G02*
X170784000Y-156112000I-500000J0D01*
G01*
X187784000Y-145112000D02*
G75*
G02*
X188784000Y-145112000I500000J0D01*
G01*
X188784000Y-156112000D02*
G75*
G02*
X187784000Y-156112000I-500000J0D01*
G01*
D11*
X184244000Y-103037000D02*
X184244000Y-106127000D01*
X189304000Y-104582000D02*
G75*
G03*
X189304000Y-104582000I-2500000J0D01*
G01*
X189794000Y-104582462D02*
G75*
G03*
X184244000Y-103037170I-2990000J462D01*
G01*
X189794000Y-104581538D02*
G75*
G02*
X184244000Y-106126830I-2990000J-462D01*
G01*
X178139000Y-110942000D02*
X181229000Y-110942000D01*
X182184000Y-108382000D02*
G75*
G03*
X182184000Y-108382000I-2500000J0D01*
G01*
X179684462Y-105392000D02*
G75*
G03*
X178139170Y-110942000I-462J-2990000D01*
G01*
X179683538Y-105392000D02*
G75*
G02*
X181228830Y-110942000I462J-2990000D01*
G01*
D10*
X179120666Y-119694380D02*
X179120666Y-120408666D01*
X179073047Y-120551523D01*
X178977809Y-120646761D01*
X178834952Y-120694380D01*
X178739714Y-120694380D01*
X180073047Y-119694380D02*
X179596857Y-119694380D01*
X179549238Y-120170571D01*
X179596857Y-120122952D01*
X179692095Y-120075333D01*
X179930190Y-120075333D01*
X180025428Y-120122952D01*
X180073047Y-120170571D01*
X180120666Y-120265809D01*
X180120666Y-120503904D01*
X180073047Y-120599142D01*
X180025428Y-120646761D01*
X179930190Y-120694380D01*
X179692095Y-120694380D01*
X179596857Y-120646761D01*
X179549238Y-120599142D01*
X176116380Y-102130095D02*
X175116380Y-102130095D01*
X175116380Y-101892000D01*
X175164000Y-101749142D01*
X175259238Y-101653904D01*
X175354476Y-101606285D01*
X175544952Y-101558666D01*
X175687809Y-101558666D01*
X175878285Y-101606285D01*
X175973523Y-101653904D01*
X176068761Y-101749142D01*
X176116380Y-101892000D01*
X176116380Y-102130095D01*
X176116380Y-100606285D02*
X176116380Y-101177714D01*
X176116380Y-100892000D02*
X175116380Y-100892000D01*
X175259238Y-100987238D01*
X175354476Y-101082476D01*
X175402095Y-101177714D01*
X158040476Y-132272380D02*
X158040476Y-132986666D01*
X157992857Y-133129523D01*
X157897619Y-133224761D01*
X157754761Y-133272380D01*
X157659523Y-133272380D01*
X159040476Y-133272380D02*
X158469047Y-133272380D01*
X158754761Y-133272380D02*
X158754761Y-132272380D01*
X158659523Y-132415238D01*
X158564285Y-132510476D01*
X158469047Y-132558095D01*
X159421428Y-132367619D02*
X159469047Y-132320000D01*
X159564285Y-132272380D01*
X159802380Y-132272380D01*
X159897619Y-132320000D01*
X159945238Y-132367619D01*
X159992857Y-132462857D01*
X159992857Y-132558095D01*
X159945238Y-132700952D01*
X159373809Y-133272380D01*
X159992857Y-133272380D01*
X157820476Y-83622380D02*
X157820476Y-82622380D01*
X158153809Y-83336666D01*
X158487142Y-82622380D01*
X158487142Y-83622380D01*
X158868095Y-82622380D02*
X159487142Y-82622380D01*
X159153809Y-83003333D01*
X159296666Y-83003333D01*
X159391904Y-83050952D01*
X159439523Y-83098571D01*
X159487142Y-83193809D01*
X159487142Y-83431904D01*
X159439523Y-83527142D01*
X159391904Y-83574761D01*
X159296666Y-83622380D01*
X159010952Y-83622380D01*
X158915714Y-83574761D01*
X158868095Y-83527142D01*
X185924476Y-136834380D02*
X185924476Y-137548666D01*
X185876857Y-137691523D01*
X185781619Y-137786761D01*
X185638761Y-137834380D01*
X185543523Y-137834380D01*
X186924476Y-137834380D02*
X186353047Y-137834380D01*
X186638761Y-137834380D02*
X186638761Y-136834380D01*
X186543523Y-136977238D01*
X186448285Y-137072476D01*
X186353047Y-137120095D01*
X187543523Y-136834380D02*
X187638761Y-136834380D01*
X187734000Y-136882000D01*
X187781619Y-136929619D01*
X187829238Y-137024857D01*
X187876857Y-137215333D01*
X187876857Y-137453428D01*
X187829238Y-137643904D01*
X187781619Y-137739142D01*
X187734000Y-137786761D01*
X187638761Y-137834380D01*
X187543523Y-137834380D01*
X187448285Y-137786761D01*
X187400666Y-137739142D01*
X187353047Y-137643904D01*
X187305428Y-137453428D01*
X187305428Y-137215333D01*
X187353047Y-137024857D01*
X187400666Y-136929619D01*
X187448285Y-136882000D01*
X187543523Y-136834380D01*
X153656666Y-98752380D02*
X153656666Y-99466666D01*
X153609047Y-99609523D01*
X153513809Y-99704761D01*
X153370952Y-99752380D01*
X153275714Y-99752380D01*
X154037619Y-98752380D02*
X154656666Y-98752380D01*
X154323333Y-99133333D01*
X154466190Y-99133333D01*
X154561428Y-99180952D01*
X154609047Y-99228571D01*
X154656666Y-99323809D01*
X154656666Y-99561904D01*
X154609047Y-99657142D01*
X154561428Y-99704761D01*
X154466190Y-99752380D01*
X154180476Y-99752380D01*
X154085238Y-99704761D01*
X154037619Y-99657142D01*
D14*
X178946380Y-126151904D02*
X178946380Y-125351904D01*
X179213047Y-125923333D01*
X179479714Y-125351904D01*
X179479714Y-126151904D01*
X180279714Y-126151904D02*
X179822571Y-126151904D01*
X180051142Y-126151904D02*
X180051142Y-125351904D01*
X179974952Y-125466190D01*
X179898761Y-125542380D01*
X179822571Y-125580476D01*
D10*
X190730476Y-161122380D02*
X190730476Y-160122380D01*
X191063809Y-160836666D01*
X191397142Y-160122380D01*
X191397142Y-161122380D01*
X191778095Y-160122380D02*
X192397142Y-160122380D01*
X192063809Y-160503333D01*
X192206666Y-160503333D01*
X192301904Y-160550952D01*
X192349523Y-160598571D01*
X192397142Y-160693809D01*
X192397142Y-160931904D01*
X192349523Y-161027142D01*
X192301904Y-161074761D01*
X192206666Y-161122380D01*
X191920952Y-161122380D01*
X191825714Y-161074761D01*
X191778095Y-161027142D01*
X157960476Y-161052380D02*
X157960476Y-160052380D01*
X158293809Y-160766666D01*
X158627142Y-160052380D01*
X158627142Y-161052380D01*
X159008095Y-160052380D02*
X159627142Y-160052380D01*
X159293809Y-160433333D01*
X159436666Y-160433333D01*
X159531904Y-160480952D01*
X159579523Y-160528571D01*
X159627142Y-160623809D01*
X159627142Y-160861904D01*
X159579523Y-160957142D01*
X159531904Y-161004761D01*
X159436666Y-161052380D01*
X159150952Y-161052380D01*
X159055714Y-161004761D01*
X159008095Y-160957142D01*
X179450666Y-150564380D02*
X179450666Y-151278666D01*
X179403047Y-151421523D01*
X179307809Y-151516761D01*
X179164952Y-151564380D01*
X179069714Y-151564380D01*
X179831619Y-150564380D02*
X180498285Y-150564380D01*
X180069714Y-151564380D01*
X186065904Y-101074380D02*
X186065904Y-100074380D01*
X186304000Y-100074380D01*
X186446857Y-100122000D01*
X186542095Y-100217238D01*
X186589714Y-100312476D01*
X186637333Y-100502952D01*
X186637333Y-100645809D01*
X186589714Y-100836285D01*
X186542095Y-100931523D01*
X186446857Y-101026761D01*
X186304000Y-101074380D01*
X186065904Y-101074380D01*
X187494476Y-100074380D02*
X187304000Y-100074380D01*
X187208761Y-100122000D01*
X187161142Y-100169619D01*
X187065904Y-100312476D01*
X187018285Y-100502952D01*
X187018285Y-100883904D01*
X187065904Y-100979142D01*
X187113523Y-101026761D01*
X187208761Y-101074380D01*
X187399238Y-101074380D01*
X187494476Y-101026761D01*
X187542095Y-100979142D01*
X187589714Y-100883904D01*
X187589714Y-100645809D01*
X187542095Y-100550571D01*
X187494476Y-100502952D01*
X187399238Y-100455333D01*
X187208761Y-100455333D01*
X187113523Y-100502952D01*
X187065904Y-100550571D01*
X187018285Y-100645809D01*
X190410476Y-83552380D02*
X190410476Y-82552380D01*
X190743809Y-83266666D01*
X191077142Y-82552380D01*
X191077142Y-83552380D01*
X191458095Y-82552380D02*
X192077142Y-82552380D01*
X191743809Y-82933333D01*
X191886666Y-82933333D01*
X191981904Y-82980952D01*
X192029523Y-83028571D01*
X192077142Y-83123809D01*
X192077142Y-83361904D01*
X192029523Y-83457142D01*
X191981904Y-83504761D01*
X191886666Y-83552380D01*
X191600952Y-83552380D01*
X191505714Y-83504761D01*
X191458095Y-83457142D01*
X176176380Y-109120095D02*
X175176380Y-109120095D01*
X175176380Y-108882000D01*
X175224000Y-108739142D01*
X175319238Y-108643904D01*
X175414476Y-108596285D01*
X175604952Y-108548666D01*
X175747809Y-108548666D01*
X175938285Y-108596285D01*
X176033523Y-108643904D01*
X176128761Y-108739142D01*
X176176380Y-108882000D01*
X176176380Y-109120095D01*
X175271619Y-108167714D02*
X175224000Y-108120095D01*
X175176380Y-108024857D01*
X175176380Y-107786761D01*
X175224000Y-107691523D01*
X175271619Y-107643904D01*
X175366857Y-107596285D01*
X175462095Y-107596285D01*
X175604952Y-107643904D01*
X176176380Y-108215333D01*
X176176380Y-107596285D01*
M02*
