M48
;DRILL file {KiCad 5.0.2+dfsg1-1} date Thu 14 Oct 2021 11:56:32 AM IST
;FORMAT={-:-/ absolute / inch / decimal}
FMAT,2
INCH,TZ
T1C0.0394
T2C0.0433
%
G90
G05
T1
X2.6374Y-1.5102
X3.2272Y-1.8165
X3.2756Y-1.5803
X3.4205Y-1.8559
X3.6508Y-1.822
X4.0268Y-1.7681
X3.4594Y-1.5807
X3.5594Y-1.5807
X3.6594Y-1.5807
X3.7594Y-1.5807
X3.8594Y-1.5807
X3.9594Y-1.5807
X4.0594Y-1.5807
X4.1594Y-1.5807
T2
X3.622Y-3.189
X3.622Y-3.3661
X3.878Y-3.189
X3.878Y-3.3661
X3.0315Y-1.9291
X3.0315Y-2.1063
X3.2874Y-1.9291
X3.2874Y-2.1063
X3.622Y-3.8189
X3.622Y-3.9961
X3.878Y-3.8189
X3.878Y-3.9961
X4.2126Y-3.8189
X4.2126Y-3.9961
X4.4685Y-3.8189
X4.4685Y-3.9961
X3.0315Y-3.8189
X3.0315Y-3.9961
X3.2874Y-3.8189
X3.2874Y-3.9961
X3.622Y-2.5591
X3.622Y-2.7362
X3.878Y-2.5591
X3.878Y-2.7362
X4.2126Y-3.189
X4.2126Y-3.3661
X4.4685Y-3.189
X4.4685Y-3.3661
X3.0315Y-2.5591
X3.0315Y-2.7362
X3.2874Y-2.5591
X3.2874Y-2.7362
X4.2126Y-1.9291
X4.2126Y-2.1063
X4.4685Y-1.9291
X4.4685Y-2.1063
X3.0315Y-3.189
X3.0315Y-3.3661
X3.2874Y-3.189
X3.2874Y-3.3661
X3.622Y-1.9291
X3.622Y-2.1063
X3.878Y-1.9291
X3.878Y-2.1063
X4.2126Y-2.5591
X4.2126Y-2.7362
X4.4685Y-2.5591
X4.4685Y-2.7362
T0
M30
