G04 #@! TF.GenerationSoftware,KiCad,Pcbnew,5.0.2+dfsg1-1*
G04 #@! TF.CreationDate,2021-10-14T11:56:24+05:30*
G04 #@! TF.ProjectId,KEYBORD_PCB_V1,4b455942-4f52-4445-9f50-43425f56312e,rev?*
G04 #@! TF.SameCoordinates,Original*
G04 #@! TF.FileFunction,Other,Fab,Bot*
%FSLAX46Y46*%
G04 Gerber Fmt 4.6, Leading zero omitted, Abs format (unit mm)*
G04 Created by KiCad (PCBNEW 5.0.2+dfsg1-1) date Thu 14 Oct 2021 11:56:24 AM IST*
%MOMM*%
%LPD*%
G01*
G04 APERTURE LIST*
%ADD10C,0.100000*%
%ADD11C,0.150000*%
%ADD12C,0.120000*%
G04 APERTURE END LIST*
D10*
G04 #@! TO.C,R2*
X108840000Y-41790000D02*
X108840000Y-43390000D01*
X108840000Y-43390000D02*
X112040000Y-43390000D01*
X112040000Y-43390000D02*
X112040000Y-41790000D01*
X112040000Y-41790000D02*
X108840000Y-41790000D01*
G04 #@! TO.C,R1*
X108790000Y-39880000D02*
X111990000Y-39880000D01*
X108790000Y-38280000D02*
X108790000Y-39880000D01*
X111990000Y-38280000D02*
X108790000Y-38280000D01*
X111990000Y-39880000D02*
X111990000Y-38280000D01*
D11*
G04 #@! TO.C,U1*
X80240000Y-44890000D02*
X80240000Y-38390000D01*
X80240000Y-38390000D02*
X67440000Y-38390000D01*
X67440000Y-38390000D02*
X67440000Y-45890000D01*
X67440000Y-45890000D02*
X79240000Y-45890000D01*
X79240000Y-45890000D02*
X80240000Y-44890000D01*
G04 #@! TD*
G04 #@! TO.C,R2*
X111368571Y-40555714D02*
X111368571Y-41222380D01*
X111606666Y-40174761D02*
X111844761Y-40889047D01*
X111225714Y-40889047D01*
X110844761Y-41127142D02*
X110797142Y-41174761D01*
X110844761Y-41222380D01*
X110892380Y-41174761D01*
X110844761Y-41127142D01*
X110844761Y-41222380D01*
X110463809Y-40222380D02*
X109797142Y-40222380D01*
X110225714Y-41222380D01*
X109416190Y-41222380D02*
X109416190Y-40222380D01*
X109320952Y-40841428D02*
X109035238Y-41222380D01*
X109035238Y-40555714D02*
X109416190Y-40936666D01*
D12*
X110573333Y-42951904D02*
X110840000Y-42570952D01*
X111030476Y-42951904D02*
X111030476Y-42151904D01*
X110725714Y-42151904D01*
X110649523Y-42190000D01*
X110611428Y-42228095D01*
X110573333Y-42304285D01*
X110573333Y-42418571D01*
X110611428Y-42494761D01*
X110649523Y-42532857D01*
X110725714Y-42570952D01*
X111030476Y-42570952D01*
X110268571Y-42228095D02*
X110230476Y-42190000D01*
X110154285Y-42151904D01*
X109963809Y-42151904D01*
X109887619Y-42190000D01*
X109849523Y-42228095D01*
X109811428Y-42304285D01*
X109811428Y-42380476D01*
X109849523Y-42494761D01*
X110306666Y-42951904D01*
X109811428Y-42951904D01*
G04 #@! TO.C,R1*
D11*
X111318571Y-40685714D02*
X111318571Y-41352380D01*
X111556666Y-40304761D02*
X111794761Y-41019047D01*
X111175714Y-41019047D01*
X110794761Y-41257142D02*
X110747142Y-41304761D01*
X110794761Y-41352380D01*
X110842380Y-41304761D01*
X110794761Y-41257142D01*
X110794761Y-41352380D01*
X110413809Y-40352380D02*
X109747142Y-40352380D01*
X110175714Y-41352380D01*
X109366190Y-41352380D02*
X109366190Y-40352380D01*
X109270952Y-40971428D02*
X108985238Y-41352380D01*
X108985238Y-40685714D02*
X109366190Y-41066666D01*
D12*
X110523333Y-39441904D02*
X110790000Y-39060952D01*
X110980476Y-39441904D02*
X110980476Y-38641904D01*
X110675714Y-38641904D01*
X110599523Y-38680000D01*
X110561428Y-38718095D01*
X110523333Y-38794285D01*
X110523333Y-38908571D01*
X110561428Y-38984761D01*
X110599523Y-39022857D01*
X110675714Y-39060952D01*
X110980476Y-39060952D01*
X109761428Y-39441904D02*
X110218571Y-39441904D01*
X109990000Y-39441904D02*
X109990000Y-38641904D01*
X110066190Y-38756190D01*
X110142380Y-38832380D01*
X110218571Y-38870476D01*
G04 #@! TO.C,U1*
D11*
X66792380Y-39044761D02*
X65792380Y-39044761D01*
X65792380Y-39425714D01*
X65840000Y-39520952D01*
X65887619Y-39568571D01*
X65982857Y-39616190D01*
X66125714Y-39616190D01*
X66220952Y-39568571D01*
X66268571Y-39520952D01*
X66316190Y-39425714D01*
X66316190Y-39044761D01*
X66697142Y-40616190D02*
X66744761Y-40568571D01*
X66792380Y-40425714D01*
X66792380Y-40330476D01*
X66744761Y-40187619D01*
X66649523Y-40092380D01*
X66554285Y-40044761D01*
X66363809Y-39997142D01*
X66220952Y-39997142D01*
X66030476Y-40044761D01*
X65935238Y-40092380D01*
X65840000Y-40187619D01*
X65792380Y-40330476D01*
X65792380Y-40425714D01*
X65840000Y-40568571D01*
X65887619Y-40616190D01*
X66268571Y-41378095D02*
X66268571Y-41044761D01*
X66792380Y-41044761D02*
X65792380Y-41044761D01*
X65792380Y-41520952D01*
X66220952Y-42044761D02*
X66173333Y-41949523D01*
X66125714Y-41901904D01*
X66030476Y-41854285D01*
X65982857Y-41854285D01*
X65887619Y-41901904D01*
X65840000Y-41949523D01*
X65792380Y-42044761D01*
X65792380Y-42235238D01*
X65840000Y-42330476D01*
X65887619Y-42378095D01*
X65982857Y-42425714D01*
X66030476Y-42425714D01*
X66125714Y-42378095D01*
X66173333Y-42330476D01*
X66220952Y-42235238D01*
X66220952Y-42044761D01*
X66268571Y-41949523D01*
X66316190Y-41901904D01*
X66411428Y-41854285D01*
X66601904Y-41854285D01*
X66697142Y-41901904D01*
X66744761Y-41949523D01*
X66792380Y-42044761D01*
X66792380Y-42235238D01*
X66744761Y-42330476D01*
X66697142Y-42378095D01*
X66601904Y-42425714D01*
X66411428Y-42425714D01*
X66316190Y-42378095D01*
X66268571Y-42330476D01*
X66220952Y-42235238D01*
X65792380Y-43330476D02*
X65792380Y-42854285D01*
X66268571Y-42806666D01*
X66220952Y-42854285D01*
X66173333Y-42949523D01*
X66173333Y-43187619D01*
X66220952Y-43282857D01*
X66268571Y-43330476D01*
X66363809Y-43378095D01*
X66601904Y-43378095D01*
X66697142Y-43330476D01*
X66744761Y-43282857D01*
X66792380Y-43187619D01*
X66792380Y-42949523D01*
X66744761Y-42854285D01*
X66697142Y-42806666D01*
X65792380Y-43711428D02*
X65792380Y-44378095D01*
X66792380Y-43949523D01*
X66125714Y-45187619D02*
X66792380Y-45187619D01*
X65744761Y-44949523D02*
X66459047Y-44711428D01*
X66459047Y-45330476D01*
X73292380Y-41378095D02*
X74101904Y-41378095D01*
X74197142Y-41425714D01*
X74244761Y-41473333D01*
X74292380Y-41568571D01*
X74292380Y-41759047D01*
X74244761Y-41854285D01*
X74197142Y-41901904D01*
X74101904Y-41949523D01*
X73292380Y-41949523D01*
X74292380Y-42949523D02*
X74292380Y-42378095D01*
X74292380Y-42663809D02*
X73292380Y-42663809D01*
X73435238Y-42568571D01*
X73530476Y-42473333D01*
X73578095Y-42378095D01*
G04 #@! TD*
M02*
