G04 #@! TF.GenerationSoftware,KiCad,Pcbnew,5.0.2+dfsg1-1*
G04 #@! TF.CreationDate,2021-10-14T11:56:24+05:30*
G04 #@! TF.ProjectId,KEYBORD_PCB_V1,4b455942-4f52-4445-9f50-43425f56312e,rev?*
G04 #@! TF.SameCoordinates,Original*
G04 #@! TF.FileFunction,Other,Fab,Top*
%FSLAX46Y46*%
G04 Gerber Fmt 4.6, Leading zero omitted, Abs format (unit mm)*
G04 Created by KiCad (PCBNEW 5.0.2+dfsg1-1) date Thu 14 Oct 2021 11:56:24 AM IST*
%MOMM*%
%LPD*%
G01*
G04 APERTURE LIST*
%ADD10C,0.100000*%
%ADD11C,0.150000*%
G04 APERTURE END LIST*
D10*
G04 #@! TO.C,J1*
X86600000Y-38880000D02*
X106920000Y-38880000D01*
X86600000Y-41420000D02*
X86600000Y-38880000D01*
X106285000Y-41420000D02*
X86600000Y-41420000D01*
X106920000Y-40785000D02*
X106285000Y-41420000D01*
X106920000Y-38880000D02*
X106920000Y-40785000D01*
G04 #@! TO.C,SW1*
X80250000Y-48250000D02*
X83250000Y-48250000D01*
X83250000Y-48250000D02*
X83250000Y-54250000D01*
X83250000Y-54250000D02*
X77250000Y-54250000D01*
X77250000Y-54250000D02*
X77250000Y-48250000D01*
X77250000Y-48250000D02*
X80250000Y-48250000D01*
X82265564Y-51250000D02*
G75*
G03X82265564Y-51250000I-2015564J0D01*
G01*
G04 #@! TO.C,SW2*
X82265564Y-67250000D02*
G75*
G03X82265564Y-67250000I-2015564J0D01*
G01*
X77250000Y-64250000D02*
X80250000Y-64250000D01*
X77250000Y-70250000D02*
X77250000Y-64250000D01*
X83250000Y-70250000D02*
X77250000Y-70250000D01*
X83250000Y-64250000D02*
X83250000Y-70250000D01*
X80250000Y-64250000D02*
X83250000Y-64250000D01*
G04 #@! TO.C,SW3*
X82265564Y-83250000D02*
G75*
G03X82265564Y-83250000I-2015564J0D01*
G01*
X77250000Y-80250000D02*
X80250000Y-80250000D01*
X77250000Y-86250000D02*
X77250000Y-80250000D01*
X83250000Y-86250000D02*
X77250000Y-86250000D01*
X83250000Y-80250000D02*
X83250000Y-86250000D01*
X80250000Y-80250000D02*
X83250000Y-80250000D01*
G04 #@! TO.C,SW4*
X80250000Y-96250000D02*
X83250000Y-96250000D01*
X83250000Y-96250000D02*
X83250000Y-102250000D01*
X83250000Y-102250000D02*
X77250000Y-102250000D01*
X77250000Y-102250000D02*
X77250000Y-96250000D01*
X77250000Y-96250000D02*
X80250000Y-96250000D01*
X82265564Y-99250000D02*
G75*
G03X82265564Y-99250000I-2015564J0D01*
G01*
G04 #@! TO.C,SW5*
X97265564Y-51250000D02*
G75*
G03X97265564Y-51250000I-2015564J0D01*
G01*
X92250000Y-48250000D02*
X95250000Y-48250000D01*
X92250000Y-54250000D02*
X92250000Y-48250000D01*
X98250000Y-54250000D02*
X92250000Y-54250000D01*
X98250000Y-48250000D02*
X98250000Y-54250000D01*
X95250000Y-48250000D02*
X98250000Y-48250000D01*
G04 #@! TO.C,SW6*
X97265564Y-67250000D02*
G75*
G03X97265564Y-67250000I-2015564J0D01*
G01*
X92250000Y-64250000D02*
X95250000Y-64250000D01*
X92250000Y-70250000D02*
X92250000Y-64250000D01*
X98250000Y-70250000D02*
X92250000Y-70250000D01*
X98250000Y-64250000D02*
X98250000Y-70250000D01*
X95250000Y-64250000D02*
X98250000Y-64250000D01*
G04 #@! TO.C,SW7*
X95250000Y-80250000D02*
X98250000Y-80250000D01*
X98250000Y-80250000D02*
X98250000Y-86250000D01*
X98250000Y-86250000D02*
X92250000Y-86250000D01*
X92250000Y-86250000D02*
X92250000Y-80250000D01*
X92250000Y-80250000D02*
X95250000Y-80250000D01*
X97265564Y-83250000D02*
G75*
G03X97265564Y-83250000I-2015564J0D01*
G01*
G04 #@! TO.C,SW8*
X97265564Y-99250000D02*
G75*
G03X97265564Y-99250000I-2015564J0D01*
G01*
X92250000Y-96250000D02*
X95250000Y-96250000D01*
X92250000Y-102250000D02*
X92250000Y-96250000D01*
X98250000Y-102250000D02*
X92250000Y-102250000D01*
X98250000Y-96250000D02*
X98250000Y-102250000D01*
X95250000Y-96250000D02*
X98250000Y-96250000D01*
G04 #@! TO.C,SW9*
X110250000Y-48250000D02*
X113250000Y-48250000D01*
X113250000Y-48250000D02*
X113250000Y-54250000D01*
X113250000Y-54250000D02*
X107250000Y-54250000D01*
X107250000Y-54250000D02*
X107250000Y-48250000D01*
X107250000Y-48250000D02*
X110250000Y-48250000D01*
X112265564Y-51250000D02*
G75*
G03X112265564Y-51250000I-2015564J0D01*
G01*
G04 #@! TO.C,SW10*
X110250000Y-64250000D02*
X113250000Y-64250000D01*
X113250000Y-64250000D02*
X113250000Y-70250000D01*
X113250000Y-70250000D02*
X107250000Y-70250000D01*
X107250000Y-70250000D02*
X107250000Y-64250000D01*
X107250000Y-64250000D02*
X110250000Y-64250000D01*
X112265564Y-67250000D02*
G75*
G03X112265564Y-67250000I-2015564J0D01*
G01*
G04 #@! TO.C,SW11*
X110250000Y-80250000D02*
X113250000Y-80250000D01*
X113250000Y-80250000D02*
X113250000Y-86250000D01*
X113250000Y-86250000D02*
X107250000Y-86250000D01*
X107250000Y-86250000D02*
X107250000Y-80250000D01*
X107250000Y-80250000D02*
X110250000Y-80250000D01*
X112265564Y-83250000D02*
G75*
G03X112265564Y-83250000I-2015564J0D01*
G01*
G04 #@! TO.C,SW12*
X112265564Y-99250000D02*
G75*
G03X112265564Y-99250000I-2015564J0D01*
G01*
X107250000Y-96250000D02*
X110250000Y-96250000D01*
X107250000Y-102250000D02*
X107250000Y-96250000D01*
X113250000Y-102250000D02*
X107250000Y-102250000D01*
X113250000Y-96250000D02*
X113250000Y-102250000D01*
X110250000Y-96250000D02*
X113250000Y-96250000D01*
G04 #@! TD*
G04 #@! TO.C,REF\002A\002A*
D11*
X74270952Y-95652380D02*
X74270952Y-94652380D01*
X74604285Y-95366666D01*
X74937619Y-94652380D01*
X74937619Y-95652380D01*
X75556666Y-95652380D02*
X75461428Y-95604761D01*
X75413809Y-95557142D01*
X75366190Y-95461904D01*
X75366190Y-95176190D01*
X75413809Y-95080952D01*
X75461428Y-95033333D01*
X75556666Y-94985714D01*
X75699523Y-94985714D01*
X75794761Y-95033333D01*
X75842380Y-95080952D01*
X75889999Y-95176190D01*
X75889999Y-95461904D01*
X75842380Y-95557142D01*
X75794761Y-95604761D01*
X75699523Y-95652380D01*
X75556666Y-95652380D01*
X76747142Y-94985714D02*
X76747142Y-95652380D01*
X76318571Y-94985714D02*
X76318571Y-95509523D01*
X76366190Y-95604761D01*
X76461428Y-95652380D01*
X76604285Y-95652380D01*
X76699523Y-95604761D01*
X76747142Y-95557142D01*
X77223333Y-94985714D02*
X77223333Y-95652380D01*
X77223333Y-95080952D02*
X77270952Y-95033333D01*
X77366190Y-94985714D01*
X77509047Y-94985714D01*
X77604285Y-95033333D01*
X77651904Y-95128571D01*
X77651904Y-95652380D01*
X77985238Y-94985714D02*
X78366190Y-94985714D01*
X78128095Y-94652380D02*
X78128095Y-95509523D01*
X78175714Y-95604761D01*
X78270952Y-95652380D01*
X78366190Y-95652380D01*
X78699523Y-95652380D02*
X78699523Y-94985714D01*
X78699523Y-94652380D02*
X78651904Y-94700000D01*
X78699523Y-94747619D01*
X78747142Y-94700000D01*
X78699523Y-94652380D01*
X78699523Y-94747619D01*
X79175714Y-94985714D02*
X79175714Y-95652380D01*
X79175714Y-95080952D02*
X79223333Y-95033333D01*
X79318571Y-94985714D01*
X79461428Y-94985714D01*
X79556666Y-95033333D01*
X79604285Y-95128571D01*
X79604285Y-95652380D01*
X80509047Y-94985714D02*
X80509047Y-95795238D01*
X80461428Y-95890476D01*
X80413809Y-95938095D01*
X80318571Y-95985714D01*
X80175714Y-95985714D01*
X80080476Y-95938095D01*
X80509047Y-95604761D02*
X80413809Y-95652380D01*
X80223333Y-95652380D01*
X80128095Y-95604761D01*
X80080476Y-95557142D01*
X80032857Y-95461904D01*
X80032857Y-95176190D01*
X80080476Y-95080952D01*
X80128095Y-95033333D01*
X80223333Y-94985714D01*
X80413809Y-94985714D01*
X80509047Y-95033333D01*
X80985238Y-95652380D02*
X80985238Y-94652380D01*
X80985238Y-95128571D02*
X81556666Y-95128571D01*
X81556666Y-95652380D02*
X81556666Y-94652380D01*
X82175714Y-95652380D02*
X82080476Y-95604761D01*
X82032857Y-95557142D01*
X81985238Y-95461904D01*
X81985238Y-95176190D01*
X82032857Y-95080952D01*
X82080476Y-95033333D01*
X82175714Y-94985714D01*
X82318571Y-94985714D01*
X82413809Y-95033333D01*
X82461428Y-95080952D01*
X82509047Y-95176190D01*
X82509047Y-95461904D01*
X82461428Y-95557142D01*
X82413809Y-95604761D01*
X82318571Y-95652380D01*
X82175714Y-95652380D01*
X83080476Y-95652380D02*
X82985238Y-95604761D01*
X82937619Y-95509523D01*
X82937619Y-94652380D01*
X83842380Y-95604761D02*
X83747142Y-95652380D01*
X83556666Y-95652380D01*
X83461428Y-95604761D01*
X83413809Y-95509523D01*
X83413809Y-95128571D01*
X83461428Y-95033333D01*
X83556666Y-94985714D01*
X83747142Y-94985714D01*
X83842380Y-95033333D01*
X83889999Y-95128571D01*
X83889999Y-95223809D01*
X83413809Y-95319047D01*
X84080476Y-95747619D02*
X84842380Y-95747619D01*
X84985238Y-94652380D02*
X85604285Y-94652380D01*
X85270952Y-95033333D01*
X85413809Y-95033333D01*
X85509047Y-95080952D01*
X85556666Y-95128571D01*
X85604285Y-95223809D01*
X85604285Y-95461904D01*
X85556666Y-95557142D01*
X85509047Y-95604761D01*
X85413809Y-95652380D01*
X85128095Y-95652380D01*
X85032857Y-95604761D01*
X84985238Y-95557142D01*
X86032857Y-95557142D02*
X86080476Y-95604761D01*
X86032857Y-95652380D01*
X85985238Y-95604761D01*
X86032857Y-95557142D01*
X86032857Y-95652380D01*
X86461428Y-94747619D02*
X86509047Y-94700000D01*
X86604285Y-94652380D01*
X86842380Y-94652380D01*
X86937619Y-94700000D01*
X86985238Y-94747619D01*
X87032857Y-94842857D01*
X87032857Y-94938095D01*
X86985238Y-95080952D01*
X86413809Y-95652380D01*
X87032857Y-95652380D01*
X87461428Y-95652380D02*
X87461428Y-94985714D01*
X87461428Y-95080952D02*
X87509047Y-95033333D01*
X87604285Y-94985714D01*
X87747142Y-94985714D01*
X87842380Y-95033333D01*
X87889999Y-95128571D01*
X87889999Y-95652380D01*
X87889999Y-95128571D02*
X87937619Y-95033333D01*
X88032857Y-94985714D01*
X88175714Y-94985714D01*
X88270952Y-95033333D01*
X88318571Y-95128571D01*
X88318571Y-95652380D01*
X88794761Y-95652380D02*
X88794761Y-94985714D01*
X88794761Y-95080952D02*
X88842380Y-95033333D01*
X88937619Y-94985714D01*
X89080476Y-94985714D01*
X89175714Y-95033333D01*
X89223333Y-95128571D01*
X89223333Y-95652380D01*
X89223333Y-95128571D02*
X89270952Y-95033333D01*
X89366190Y-94985714D01*
X89509047Y-94985714D01*
X89604285Y-95033333D01*
X89651904Y-95128571D01*
X89651904Y-95652380D01*
X89889999Y-95747619D02*
X90651904Y-95747619D01*
X90889999Y-95652380D02*
X90889999Y-94652380D01*
X91223333Y-95366666D01*
X91556666Y-94652380D01*
X91556666Y-95652380D01*
X91937619Y-94652380D02*
X92556666Y-94652380D01*
X92223333Y-95033333D01*
X92366190Y-95033333D01*
X92461428Y-95080952D01*
X92509047Y-95128571D01*
X92556666Y-95223809D01*
X92556666Y-95461904D01*
X92509047Y-95557142D01*
X92461428Y-95604761D01*
X92366190Y-95652380D01*
X92080476Y-95652380D01*
X91985238Y-95604761D01*
X91937619Y-95557142D01*
X82356666Y-91452380D02*
X82023333Y-90976190D01*
X81785238Y-91452380D02*
X81785238Y-90452380D01*
X82166190Y-90452380D01*
X82261428Y-90500000D01*
X82309047Y-90547619D01*
X82356666Y-90642857D01*
X82356666Y-90785714D01*
X82309047Y-90880952D01*
X82261428Y-90928571D01*
X82166190Y-90976190D01*
X81785238Y-90976190D01*
X82785238Y-90928571D02*
X83118571Y-90928571D01*
X83261428Y-91452380D02*
X82785238Y-91452380D01*
X82785238Y-90452380D01*
X83261428Y-90452380D01*
X84023333Y-90928571D02*
X83690000Y-90928571D01*
X83690000Y-91452380D02*
X83690000Y-90452380D01*
X84166190Y-90452380D01*
X84690000Y-90452380D02*
X84690000Y-90690476D01*
X84451904Y-90595238D02*
X84690000Y-90690476D01*
X84928095Y-90595238D01*
X84547142Y-90880952D02*
X84690000Y-90690476D01*
X84832857Y-90880952D01*
X85451904Y-90452380D02*
X85451904Y-90690476D01*
X85213809Y-90595238D02*
X85451904Y-90690476D01*
X85690000Y-90595238D01*
X85309047Y-90880952D02*
X85451904Y-90690476D01*
X85594761Y-90880952D01*
X99260952Y-95652380D02*
X99260952Y-94652380D01*
X99594285Y-95366666D01*
X99927619Y-94652380D01*
X99927619Y-95652380D01*
X100546666Y-95652380D02*
X100451428Y-95604761D01*
X100403809Y-95557142D01*
X100356190Y-95461904D01*
X100356190Y-95176190D01*
X100403809Y-95080952D01*
X100451428Y-95033333D01*
X100546666Y-94985714D01*
X100689523Y-94985714D01*
X100784761Y-95033333D01*
X100832380Y-95080952D01*
X100879999Y-95176190D01*
X100879999Y-95461904D01*
X100832380Y-95557142D01*
X100784761Y-95604761D01*
X100689523Y-95652380D01*
X100546666Y-95652380D01*
X101737142Y-94985714D02*
X101737142Y-95652380D01*
X101308571Y-94985714D02*
X101308571Y-95509523D01*
X101356190Y-95604761D01*
X101451428Y-95652380D01*
X101594285Y-95652380D01*
X101689523Y-95604761D01*
X101737142Y-95557142D01*
X102213333Y-94985714D02*
X102213333Y-95652380D01*
X102213333Y-95080952D02*
X102260952Y-95033333D01*
X102356190Y-94985714D01*
X102499047Y-94985714D01*
X102594285Y-95033333D01*
X102641904Y-95128571D01*
X102641904Y-95652380D01*
X102975238Y-94985714D02*
X103356190Y-94985714D01*
X103118095Y-94652380D02*
X103118095Y-95509523D01*
X103165714Y-95604761D01*
X103260952Y-95652380D01*
X103356190Y-95652380D01*
X103689523Y-95652380D02*
X103689523Y-94985714D01*
X103689523Y-94652380D02*
X103641904Y-94700000D01*
X103689523Y-94747619D01*
X103737142Y-94700000D01*
X103689523Y-94652380D01*
X103689523Y-94747619D01*
X104165714Y-94985714D02*
X104165714Y-95652380D01*
X104165714Y-95080952D02*
X104213333Y-95033333D01*
X104308571Y-94985714D01*
X104451428Y-94985714D01*
X104546666Y-95033333D01*
X104594285Y-95128571D01*
X104594285Y-95652380D01*
X105499047Y-94985714D02*
X105499047Y-95795238D01*
X105451428Y-95890476D01*
X105403809Y-95938095D01*
X105308571Y-95985714D01*
X105165714Y-95985714D01*
X105070476Y-95938095D01*
X105499047Y-95604761D02*
X105403809Y-95652380D01*
X105213333Y-95652380D01*
X105118095Y-95604761D01*
X105070476Y-95557142D01*
X105022857Y-95461904D01*
X105022857Y-95176190D01*
X105070476Y-95080952D01*
X105118095Y-95033333D01*
X105213333Y-94985714D01*
X105403809Y-94985714D01*
X105499047Y-95033333D01*
X105975238Y-95652380D02*
X105975238Y-94652380D01*
X105975238Y-95128571D02*
X106546666Y-95128571D01*
X106546666Y-95652380D02*
X106546666Y-94652380D01*
X107165714Y-95652380D02*
X107070476Y-95604761D01*
X107022857Y-95557142D01*
X106975238Y-95461904D01*
X106975238Y-95176190D01*
X107022857Y-95080952D01*
X107070476Y-95033333D01*
X107165714Y-94985714D01*
X107308571Y-94985714D01*
X107403809Y-95033333D01*
X107451428Y-95080952D01*
X107499047Y-95176190D01*
X107499047Y-95461904D01*
X107451428Y-95557142D01*
X107403809Y-95604761D01*
X107308571Y-95652380D01*
X107165714Y-95652380D01*
X108070476Y-95652380D02*
X107975238Y-95604761D01*
X107927619Y-95509523D01*
X107927619Y-94652380D01*
X108832380Y-95604761D02*
X108737142Y-95652380D01*
X108546666Y-95652380D01*
X108451428Y-95604761D01*
X108403809Y-95509523D01*
X108403809Y-95128571D01*
X108451428Y-95033333D01*
X108546666Y-94985714D01*
X108737142Y-94985714D01*
X108832380Y-95033333D01*
X108879999Y-95128571D01*
X108879999Y-95223809D01*
X108403809Y-95319047D01*
X109070476Y-95747619D02*
X109832380Y-95747619D01*
X109975238Y-94652380D02*
X110594285Y-94652380D01*
X110260952Y-95033333D01*
X110403809Y-95033333D01*
X110499047Y-95080952D01*
X110546666Y-95128571D01*
X110594285Y-95223809D01*
X110594285Y-95461904D01*
X110546666Y-95557142D01*
X110499047Y-95604761D01*
X110403809Y-95652380D01*
X110118095Y-95652380D01*
X110022857Y-95604761D01*
X109975238Y-95557142D01*
X111022857Y-95557142D02*
X111070476Y-95604761D01*
X111022857Y-95652380D01*
X110975238Y-95604761D01*
X111022857Y-95557142D01*
X111022857Y-95652380D01*
X111451428Y-94747619D02*
X111499047Y-94700000D01*
X111594285Y-94652380D01*
X111832380Y-94652380D01*
X111927619Y-94700000D01*
X111975238Y-94747619D01*
X112022857Y-94842857D01*
X112022857Y-94938095D01*
X111975238Y-95080952D01*
X111403809Y-95652380D01*
X112022857Y-95652380D01*
X112451428Y-95652380D02*
X112451428Y-94985714D01*
X112451428Y-95080952D02*
X112499047Y-95033333D01*
X112594285Y-94985714D01*
X112737142Y-94985714D01*
X112832380Y-95033333D01*
X112879999Y-95128571D01*
X112879999Y-95652380D01*
X112879999Y-95128571D02*
X112927619Y-95033333D01*
X113022857Y-94985714D01*
X113165714Y-94985714D01*
X113260952Y-95033333D01*
X113308571Y-95128571D01*
X113308571Y-95652380D01*
X113784761Y-95652380D02*
X113784761Y-94985714D01*
X113784761Y-95080952D02*
X113832380Y-95033333D01*
X113927619Y-94985714D01*
X114070476Y-94985714D01*
X114165714Y-95033333D01*
X114213333Y-95128571D01*
X114213333Y-95652380D01*
X114213333Y-95128571D02*
X114260952Y-95033333D01*
X114356190Y-94985714D01*
X114499047Y-94985714D01*
X114594285Y-95033333D01*
X114641904Y-95128571D01*
X114641904Y-95652380D01*
X114879999Y-95747619D02*
X115641904Y-95747619D01*
X115879999Y-95652380D02*
X115879999Y-94652380D01*
X116213333Y-95366666D01*
X116546666Y-94652380D01*
X116546666Y-95652380D01*
X116927619Y-94652380D02*
X117546666Y-94652380D01*
X117213333Y-95033333D01*
X117356190Y-95033333D01*
X117451428Y-95080952D01*
X117499047Y-95128571D01*
X117546666Y-95223809D01*
X117546666Y-95461904D01*
X117499047Y-95557142D01*
X117451428Y-95604761D01*
X117356190Y-95652380D01*
X117070476Y-95652380D01*
X116975238Y-95604761D01*
X116927619Y-95557142D01*
X107346666Y-91452380D02*
X107013333Y-90976190D01*
X106775238Y-91452380D02*
X106775238Y-90452380D01*
X107156190Y-90452380D01*
X107251428Y-90500000D01*
X107299047Y-90547619D01*
X107346666Y-90642857D01*
X107346666Y-90785714D01*
X107299047Y-90880952D01*
X107251428Y-90928571D01*
X107156190Y-90976190D01*
X106775238Y-90976190D01*
X107775238Y-90928571D02*
X108108571Y-90928571D01*
X108251428Y-91452380D02*
X107775238Y-91452380D01*
X107775238Y-90452380D01*
X108251428Y-90452380D01*
X109013333Y-90928571D02*
X108680000Y-90928571D01*
X108680000Y-91452380D02*
X108680000Y-90452380D01*
X109156190Y-90452380D01*
X109680000Y-90452380D02*
X109680000Y-90690476D01*
X109441904Y-90595238D02*
X109680000Y-90690476D01*
X109918095Y-90595238D01*
X109537142Y-90880952D02*
X109680000Y-90690476D01*
X109822857Y-90880952D01*
X110441904Y-90452380D02*
X110441904Y-90690476D01*
X110203809Y-90595238D02*
X110441904Y-90690476D01*
X110680000Y-90595238D01*
X110299047Y-90880952D02*
X110441904Y-90690476D01*
X110584761Y-90880952D01*
G04 #@! TO.C,J1*
X85457142Y-45983333D02*
X85504761Y-46030952D01*
X85552380Y-46173809D01*
X85552380Y-46269047D01*
X85504761Y-46411904D01*
X85409523Y-46507142D01*
X85314285Y-46554761D01*
X85123809Y-46602380D01*
X84980952Y-46602380D01*
X84790476Y-46554761D01*
X84695238Y-46507142D01*
X84600000Y-46411904D01*
X84552380Y-46269047D01*
X84552380Y-46173809D01*
X84600000Y-46030952D01*
X84647619Y-45983333D01*
X85552380Y-45411904D02*
X85504761Y-45507142D01*
X85457142Y-45554761D01*
X85361904Y-45602380D01*
X85076190Y-45602380D01*
X84980952Y-45554761D01*
X84933333Y-45507142D01*
X84885714Y-45411904D01*
X84885714Y-45269047D01*
X84933333Y-45173809D01*
X84980952Y-45126190D01*
X85076190Y-45078571D01*
X85361904Y-45078571D01*
X85457142Y-45126190D01*
X85504761Y-45173809D01*
X85552380Y-45269047D01*
X85552380Y-45411904D01*
X84885714Y-44650000D02*
X85552380Y-44650000D01*
X84980952Y-44650000D02*
X84933333Y-44602380D01*
X84885714Y-44507142D01*
X84885714Y-44364285D01*
X84933333Y-44269047D01*
X85028571Y-44221428D01*
X85552380Y-44221428D01*
X84885714Y-43745238D02*
X85552380Y-43745238D01*
X84980952Y-43745238D02*
X84933333Y-43697619D01*
X84885714Y-43602380D01*
X84885714Y-43459523D01*
X84933333Y-43364285D01*
X85028571Y-43316666D01*
X85552380Y-43316666D01*
X85647619Y-43078571D02*
X85647619Y-42316666D01*
X84552380Y-41888095D02*
X84552380Y-41792857D01*
X84600000Y-41697619D01*
X84647619Y-41650000D01*
X84742857Y-41602380D01*
X84933333Y-41554761D01*
X85171428Y-41554761D01*
X85361904Y-41602380D01*
X85457142Y-41650000D01*
X85504761Y-41697619D01*
X85552380Y-41792857D01*
X85552380Y-41888095D01*
X85504761Y-41983333D01*
X85457142Y-42030952D01*
X85361904Y-42078571D01*
X85171428Y-42126190D01*
X84933333Y-42126190D01*
X84742857Y-42078571D01*
X84647619Y-42030952D01*
X84600000Y-41983333D01*
X84552380Y-41888095D01*
X85552380Y-40602380D02*
X85552380Y-41173809D01*
X85552380Y-40888095D02*
X84552380Y-40888095D01*
X84695238Y-40983333D01*
X84790476Y-41078571D01*
X84838095Y-41173809D01*
X85552380Y-40269047D02*
X84885714Y-39745238D01*
X84885714Y-40269047D02*
X85552380Y-39745238D01*
X84552380Y-39173809D02*
X84552380Y-39078571D01*
X84600000Y-38983333D01*
X84647619Y-38935714D01*
X84742857Y-38888095D01*
X84933333Y-38840476D01*
X85171428Y-38840476D01*
X85361904Y-38888095D01*
X85457142Y-38935714D01*
X85504761Y-38983333D01*
X85552380Y-39078571D01*
X85552380Y-39173809D01*
X85504761Y-39269047D01*
X85457142Y-39316666D01*
X85361904Y-39364285D01*
X85171428Y-39411904D01*
X84933333Y-39411904D01*
X84742857Y-39364285D01*
X84647619Y-39316666D01*
X84600000Y-39269047D01*
X84552380Y-39173809D01*
X84980952Y-38269047D02*
X84933333Y-38364285D01*
X84885714Y-38411904D01*
X84790476Y-38459523D01*
X84742857Y-38459523D01*
X84647619Y-38411904D01*
X84600000Y-38364285D01*
X84552380Y-38269047D01*
X84552380Y-38078571D01*
X84600000Y-37983333D01*
X84647619Y-37935714D01*
X84742857Y-37888095D01*
X84790476Y-37888095D01*
X84885714Y-37935714D01*
X84933333Y-37983333D01*
X84980952Y-38078571D01*
X84980952Y-38269047D01*
X85028571Y-38364285D01*
X85076190Y-38411904D01*
X85171428Y-38459523D01*
X85361904Y-38459523D01*
X85457142Y-38411904D01*
X85504761Y-38364285D01*
X85552380Y-38269047D01*
X85552380Y-38078571D01*
X85504761Y-37983333D01*
X85457142Y-37935714D01*
X85361904Y-37888095D01*
X85171428Y-37888095D01*
X85076190Y-37935714D01*
X85028571Y-37983333D01*
X84980952Y-38078571D01*
X85647619Y-37697619D02*
X85647619Y-36935714D01*
X85552380Y-36697619D02*
X84552380Y-36697619D01*
X85266666Y-36364285D01*
X84552380Y-36030952D01*
X85552380Y-36030952D01*
X85552380Y-35126190D02*
X85028571Y-35126190D01*
X84933333Y-35173809D01*
X84885714Y-35269047D01*
X84885714Y-35459523D01*
X84933333Y-35554761D01*
X85504761Y-35126190D02*
X85552380Y-35221428D01*
X85552380Y-35459523D01*
X85504761Y-35554761D01*
X85409523Y-35602380D01*
X85314285Y-35602380D01*
X85219047Y-35554761D01*
X85171428Y-35459523D01*
X85171428Y-35221428D01*
X85123809Y-35126190D01*
X85552380Y-34507142D02*
X85504761Y-34602380D01*
X85409523Y-34650000D01*
X84552380Y-34650000D01*
X85504761Y-33745238D02*
X85552380Y-33840476D01*
X85552380Y-34030952D01*
X85504761Y-34126190D01*
X85409523Y-34173809D01*
X85028571Y-34173809D01*
X84933333Y-34126190D01*
X84885714Y-34030952D01*
X84885714Y-33840476D01*
X84933333Y-33745238D01*
X85028571Y-33697619D01*
X85123809Y-33697619D01*
X85219047Y-34173809D01*
X96426666Y-39602380D02*
X96426666Y-40316666D01*
X96379047Y-40459523D01*
X96283809Y-40554761D01*
X96140952Y-40602380D01*
X96045714Y-40602380D01*
X97426666Y-40602380D02*
X96855238Y-40602380D01*
X97140952Y-40602380D02*
X97140952Y-39602380D01*
X97045714Y-39745238D01*
X96950476Y-39840476D01*
X96855238Y-39888095D01*
G04 #@! TO.C,SW1*
X81035714Y-56152380D02*
X80464285Y-56152380D01*
X80750000Y-56152380D02*
X80750000Y-55152380D01*
X80654761Y-55295238D01*
X80559523Y-55390476D01*
X80464285Y-55438095D01*
X78916666Y-51654761D02*
X79059523Y-51702380D01*
X79297619Y-51702380D01*
X79392857Y-51654761D01*
X79440476Y-51607142D01*
X79488095Y-51511904D01*
X79488095Y-51416666D01*
X79440476Y-51321428D01*
X79392857Y-51273809D01*
X79297619Y-51226190D01*
X79107142Y-51178571D01*
X79011904Y-51130952D01*
X78964285Y-51083333D01*
X78916666Y-50988095D01*
X78916666Y-50892857D01*
X78964285Y-50797619D01*
X79011904Y-50750000D01*
X79107142Y-50702380D01*
X79345238Y-50702380D01*
X79488095Y-50750000D01*
X79821428Y-50702380D02*
X80059523Y-51702380D01*
X80250000Y-50988095D01*
X80440476Y-51702380D01*
X80678571Y-50702380D01*
X81583333Y-51702380D02*
X81011904Y-51702380D01*
X81297619Y-51702380D02*
X81297619Y-50702380D01*
X81202380Y-50845238D01*
X81107142Y-50940476D01*
X81011904Y-50988095D01*
G04 #@! TO.C,SW2*
X80940476Y-71485714D02*
X80940476Y-72152380D01*
X80702380Y-71104761D02*
X80464285Y-71819047D01*
X81083333Y-71819047D01*
X78916666Y-67654761D02*
X79059523Y-67702380D01*
X79297619Y-67702380D01*
X79392857Y-67654761D01*
X79440476Y-67607142D01*
X79488095Y-67511904D01*
X79488095Y-67416666D01*
X79440476Y-67321428D01*
X79392857Y-67273809D01*
X79297619Y-67226190D01*
X79107142Y-67178571D01*
X79011904Y-67130952D01*
X78964285Y-67083333D01*
X78916666Y-66988095D01*
X78916666Y-66892857D01*
X78964285Y-66797619D01*
X79011904Y-66750000D01*
X79107142Y-66702380D01*
X79345238Y-66702380D01*
X79488095Y-66750000D01*
X79821428Y-66702380D02*
X80059523Y-67702380D01*
X80250000Y-66988095D01*
X80440476Y-67702380D01*
X80678571Y-66702380D01*
X81011904Y-66797619D02*
X81059523Y-66750000D01*
X81154761Y-66702380D01*
X81392857Y-66702380D01*
X81488095Y-66750000D01*
X81535714Y-66797619D01*
X81583333Y-66892857D01*
X81583333Y-66988095D01*
X81535714Y-67130952D01*
X80964285Y-67702380D01*
X81583333Y-67702380D01*
G04 #@! TO.C,SW3*
X80416666Y-87152380D02*
X81083333Y-87152380D01*
X80654761Y-88152380D01*
X78916666Y-83654761D02*
X79059523Y-83702380D01*
X79297619Y-83702380D01*
X79392857Y-83654761D01*
X79440476Y-83607142D01*
X79488095Y-83511904D01*
X79488095Y-83416666D01*
X79440476Y-83321428D01*
X79392857Y-83273809D01*
X79297619Y-83226190D01*
X79107142Y-83178571D01*
X79011904Y-83130952D01*
X78964285Y-83083333D01*
X78916666Y-82988095D01*
X78916666Y-82892857D01*
X78964285Y-82797619D01*
X79011904Y-82750000D01*
X79107142Y-82702380D01*
X79345238Y-82702380D01*
X79488095Y-82750000D01*
X79821428Y-82702380D02*
X80059523Y-83702380D01*
X80250000Y-82988095D01*
X80440476Y-83702380D01*
X80678571Y-82702380D01*
X80964285Y-82702380D02*
X81583333Y-82702380D01*
X81250000Y-83083333D01*
X81392857Y-83083333D01*
X81488095Y-83130952D01*
X81535714Y-83178571D01*
X81583333Y-83273809D01*
X81583333Y-83511904D01*
X81535714Y-83607142D01*
X81488095Y-83654761D01*
X81392857Y-83702380D01*
X81107142Y-83702380D01*
X81011904Y-83654761D01*
X80964285Y-83607142D01*
G04 #@! TO.C,SW4*
X79273809Y-104057142D02*
X79226190Y-104104761D01*
X79083333Y-104152380D01*
X78988095Y-104152380D01*
X78845238Y-104104761D01*
X78750000Y-104009523D01*
X78702380Y-103914285D01*
X78654761Y-103723809D01*
X78654761Y-103580952D01*
X78702380Y-103390476D01*
X78750000Y-103295238D01*
X78845238Y-103200000D01*
X78988095Y-103152380D01*
X79083333Y-103152380D01*
X79226190Y-103200000D01*
X79273809Y-103247619D01*
X80178571Y-104152380D02*
X79702380Y-104152380D01*
X79702380Y-103152380D01*
X80511904Y-103628571D02*
X80845238Y-103628571D01*
X80988095Y-104152380D02*
X80511904Y-104152380D01*
X80511904Y-103152380D01*
X80988095Y-103152380D01*
X81369047Y-103866666D02*
X81845238Y-103866666D01*
X81273809Y-104152380D02*
X81607142Y-103152380D01*
X81940476Y-104152380D01*
X82845238Y-104152380D02*
X82511904Y-103676190D01*
X82273809Y-104152380D02*
X82273809Y-103152380D01*
X82654761Y-103152380D01*
X82750000Y-103200000D01*
X82797619Y-103247619D01*
X82845238Y-103342857D01*
X82845238Y-103485714D01*
X82797619Y-103580952D01*
X82750000Y-103628571D01*
X82654761Y-103676190D01*
X82273809Y-103676190D01*
X78916666Y-99654761D02*
X79059523Y-99702380D01*
X79297619Y-99702380D01*
X79392857Y-99654761D01*
X79440476Y-99607142D01*
X79488095Y-99511904D01*
X79488095Y-99416666D01*
X79440476Y-99321428D01*
X79392857Y-99273809D01*
X79297619Y-99226190D01*
X79107142Y-99178571D01*
X79011904Y-99130952D01*
X78964285Y-99083333D01*
X78916666Y-98988095D01*
X78916666Y-98892857D01*
X78964285Y-98797619D01*
X79011904Y-98750000D01*
X79107142Y-98702380D01*
X79345238Y-98702380D01*
X79488095Y-98750000D01*
X79821428Y-98702380D02*
X80059523Y-99702380D01*
X80250000Y-98988095D01*
X80440476Y-99702380D01*
X80678571Y-98702380D01*
X81488095Y-99035714D02*
X81488095Y-99702380D01*
X81250000Y-98654761D02*
X81011904Y-99369047D01*
X81630952Y-99369047D01*
G04 #@! TO.C,SW5*
X95464285Y-55247619D02*
X95511904Y-55200000D01*
X95607142Y-55152380D01*
X95845238Y-55152380D01*
X95940476Y-55200000D01*
X95988095Y-55247619D01*
X96035714Y-55342857D01*
X96035714Y-55438095D01*
X95988095Y-55580952D01*
X95416666Y-56152380D01*
X96035714Y-56152380D01*
X93916666Y-51654761D02*
X94059523Y-51702380D01*
X94297619Y-51702380D01*
X94392857Y-51654761D01*
X94440476Y-51607142D01*
X94488095Y-51511904D01*
X94488095Y-51416666D01*
X94440476Y-51321428D01*
X94392857Y-51273809D01*
X94297619Y-51226190D01*
X94107142Y-51178571D01*
X94011904Y-51130952D01*
X93964285Y-51083333D01*
X93916666Y-50988095D01*
X93916666Y-50892857D01*
X93964285Y-50797619D01*
X94011904Y-50750000D01*
X94107142Y-50702380D01*
X94345238Y-50702380D01*
X94488095Y-50750000D01*
X94821428Y-50702380D02*
X95059523Y-51702380D01*
X95250000Y-50988095D01*
X95440476Y-51702380D01*
X95678571Y-50702380D01*
X96535714Y-50702380D02*
X96059523Y-50702380D01*
X96011904Y-51178571D01*
X96059523Y-51130952D01*
X96154761Y-51083333D01*
X96392857Y-51083333D01*
X96488095Y-51130952D01*
X96535714Y-51178571D01*
X96583333Y-51273809D01*
X96583333Y-51511904D01*
X96535714Y-51607142D01*
X96488095Y-51654761D01*
X96392857Y-51702380D01*
X96154761Y-51702380D01*
X96059523Y-51654761D01*
X96011904Y-51607142D01*
G04 #@! TO.C,SW6*
X95988095Y-71152380D02*
X95511904Y-71152380D01*
X95464285Y-71628571D01*
X95511904Y-71580952D01*
X95607142Y-71533333D01*
X95845238Y-71533333D01*
X95940476Y-71580952D01*
X95988095Y-71628571D01*
X96035714Y-71723809D01*
X96035714Y-71961904D01*
X95988095Y-72057142D01*
X95940476Y-72104761D01*
X95845238Y-72152380D01*
X95607142Y-72152380D01*
X95511904Y-72104761D01*
X95464285Y-72057142D01*
X93916666Y-67654761D02*
X94059523Y-67702380D01*
X94297619Y-67702380D01*
X94392857Y-67654761D01*
X94440476Y-67607142D01*
X94488095Y-67511904D01*
X94488095Y-67416666D01*
X94440476Y-67321428D01*
X94392857Y-67273809D01*
X94297619Y-67226190D01*
X94107142Y-67178571D01*
X94011904Y-67130952D01*
X93964285Y-67083333D01*
X93916666Y-66988095D01*
X93916666Y-66892857D01*
X93964285Y-66797619D01*
X94011904Y-66750000D01*
X94107142Y-66702380D01*
X94345238Y-66702380D01*
X94488095Y-66750000D01*
X94821428Y-66702380D02*
X95059523Y-67702380D01*
X95250000Y-66988095D01*
X95440476Y-67702380D01*
X95678571Y-66702380D01*
X96488095Y-66702380D02*
X96297619Y-66702380D01*
X96202380Y-66750000D01*
X96154761Y-66797619D01*
X96059523Y-66940476D01*
X96011904Y-67130952D01*
X96011904Y-67511904D01*
X96059523Y-67607142D01*
X96107142Y-67654761D01*
X96202380Y-67702380D01*
X96392857Y-67702380D01*
X96488095Y-67654761D01*
X96535714Y-67607142D01*
X96583333Y-67511904D01*
X96583333Y-67273809D01*
X96535714Y-67178571D01*
X96488095Y-67130952D01*
X96392857Y-67083333D01*
X96202380Y-67083333D01*
X96107142Y-67130952D01*
X96059523Y-67178571D01*
X96011904Y-67273809D01*
G04 #@! TO.C,SW7*
X95654761Y-87580952D02*
X95559523Y-87533333D01*
X95511904Y-87485714D01*
X95464285Y-87390476D01*
X95464285Y-87342857D01*
X95511904Y-87247619D01*
X95559523Y-87200000D01*
X95654761Y-87152380D01*
X95845238Y-87152380D01*
X95940476Y-87200000D01*
X95988095Y-87247619D01*
X96035714Y-87342857D01*
X96035714Y-87390476D01*
X95988095Y-87485714D01*
X95940476Y-87533333D01*
X95845238Y-87580952D01*
X95654761Y-87580952D01*
X95559523Y-87628571D01*
X95511904Y-87676190D01*
X95464285Y-87771428D01*
X95464285Y-87961904D01*
X95511904Y-88057142D01*
X95559523Y-88104761D01*
X95654761Y-88152380D01*
X95845238Y-88152380D01*
X95940476Y-88104761D01*
X95988095Y-88057142D01*
X96035714Y-87961904D01*
X96035714Y-87771428D01*
X95988095Y-87676190D01*
X95940476Y-87628571D01*
X95845238Y-87580952D01*
X93916666Y-83654761D02*
X94059523Y-83702380D01*
X94297619Y-83702380D01*
X94392857Y-83654761D01*
X94440476Y-83607142D01*
X94488095Y-83511904D01*
X94488095Y-83416666D01*
X94440476Y-83321428D01*
X94392857Y-83273809D01*
X94297619Y-83226190D01*
X94107142Y-83178571D01*
X94011904Y-83130952D01*
X93964285Y-83083333D01*
X93916666Y-82988095D01*
X93916666Y-82892857D01*
X93964285Y-82797619D01*
X94011904Y-82750000D01*
X94107142Y-82702380D01*
X94345238Y-82702380D01*
X94488095Y-82750000D01*
X94821428Y-82702380D02*
X95059523Y-83702380D01*
X95250000Y-82988095D01*
X95440476Y-83702380D01*
X95678571Y-82702380D01*
X95964285Y-82702380D02*
X96630952Y-82702380D01*
X96202380Y-83702380D01*
G04 #@! TO.C,SW8*
X95702380Y-103152380D02*
X95797619Y-103152380D01*
X95892857Y-103200000D01*
X95940476Y-103247619D01*
X95988095Y-103342857D01*
X96035714Y-103533333D01*
X96035714Y-103771428D01*
X95988095Y-103961904D01*
X95940476Y-104057142D01*
X95892857Y-104104761D01*
X95797619Y-104152380D01*
X95702380Y-104152380D01*
X95607142Y-104104761D01*
X95559523Y-104057142D01*
X95511904Y-103961904D01*
X95464285Y-103771428D01*
X95464285Y-103533333D01*
X95511904Y-103342857D01*
X95559523Y-103247619D01*
X95607142Y-103200000D01*
X95702380Y-103152380D01*
X93916666Y-99654761D02*
X94059523Y-99702380D01*
X94297619Y-99702380D01*
X94392857Y-99654761D01*
X94440476Y-99607142D01*
X94488095Y-99511904D01*
X94488095Y-99416666D01*
X94440476Y-99321428D01*
X94392857Y-99273809D01*
X94297619Y-99226190D01*
X94107142Y-99178571D01*
X94011904Y-99130952D01*
X93964285Y-99083333D01*
X93916666Y-98988095D01*
X93916666Y-98892857D01*
X93964285Y-98797619D01*
X94011904Y-98750000D01*
X94107142Y-98702380D01*
X94345238Y-98702380D01*
X94488095Y-98750000D01*
X94821428Y-98702380D02*
X95059523Y-99702380D01*
X95250000Y-98988095D01*
X95440476Y-99702380D01*
X95678571Y-98702380D01*
X96202380Y-99130952D02*
X96107142Y-99083333D01*
X96059523Y-99035714D01*
X96011904Y-98940476D01*
X96011904Y-98892857D01*
X96059523Y-98797619D01*
X96107142Y-98750000D01*
X96202380Y-98702380D01*
X96392857Y-98702380D01*
X96488095Y-98750000D01*
X96535714Y-98797619D01*
X96583333Y-98892857D01*
X96583333Y-98940476D01*
X96535714Y-99035714D01*
X96488095Y-99083333D01*
X96392857Y-99130952D01*
X96202380Y-99130952D01*
X96107142Y-99178571D01*
X96059523Y-99226190D01*
X96011904Y-99321428D01*
X96011904Y-99511904D01*
X96059523Y-99607142D01*
X96107142Y-99654761D01*
X96202380Y-99702380D01*
X96392857Y-99702380D01*
X96488095Y-99654761D01*
X96535714Y-99607142D01*
X96583333Y-99511904D01*
X96583333Y-99321428D01*
X96535714Y-99226190D01*
X96488095Y-99178571D01*
X96392857Y-99130952D01*
G04 #@! TO.C,SW9*
X110416666Y-55152380D02*
X111035714Y-55152380D01*
X110702380Y-55533333D01*
X110845238Y-55533333D01*
X110940476Y-55580952D01*
X110988095Y-55628571D01*
X111035714Y-55723809D01*
X111035714Y-55961904D01*
X110988095Y-56057142D01*
X110940476Y-56104761D01*
X110845238Y-56152380D01*
X110559523Y-56152380D01*
X110464285Y-56104761D01*
X110416666Y-56057142D01*
X108916666Y-51654761D02*
X109059523Y-51702380D01*
X109297619Y-51702380D01*
X109392857Y-51654761D01*
X109440476Y-51607142D01*
X109488095Y-51511904D01*
X109488095Y-51416666D01*
X109440476Y-51321428D01*
X109392857Y-51273809D01*
X109297619Y-51226190D01*
X109107142Y-51178571D01*
X109011904Y-51130952D01*
X108964285Y-51083333D01*
X108916666Y-50988095D01*
X108916666Y-50892857D01*
X108964285Y-50797619D01*
X109011904Y-50750000D01*
X109107142Y-50702380D01*
X109345238Y-50702380D01*
X109488095Y-50750000D01*
X109821428Y-50702380D02*
X110059523Y-51702380D01*
X110250000Y-50988095D01*
X110440476Y-51702380D01*
X110678571Y-50702380D01*
X111107142Y-51702380D02*
X111297619Y-51702380D01*
X111392857Y-51654761D01*
X111440476Y-51607142D01*
X111535714Y-51464285D01*
X111583333Y-51273809D01*
X111583333Y-50892857D01*
X111535714Y-50797619D01*
X111488095Y-50750000D01*
X111392857Y-50702380D01*
X111202380Y-50702380D01*
X111107142Y-50750000D01*
X111059523Y-50797619D01*
X111011904Y-50892857D01*
X111011904Y-51130952D01*
X111059523Y-51226190D01*
X111107142Y-51273809D01*
X111202380Y-51321428D01*
X111392857Y-51321428D01*
X111488095Y-51273809D01*
X111535714Y-51226190D01*
X111583333Y-51130952D01*
G04 #@! TO.C,SW10*
X110940476Y-71152380D02*
X110750000Y-71152380D01*
X110654761Y-71200000D01*
X110607142Y-71247619D01*
X110511904Y-71390476D01*
X110464285Y-71580952D01*
X110464285Y-71961904D01*
X110511904Y-72057142D01*
X110559523Y-72104761D01*
X110654761Y-72152380D01*
X110845238Y-72152380D01*
X110940476Y-72104761D01*
X110988095Y-72057142D01*
X111035714Y-71961904D01*
X111035714Y-71723809D01*
X110988095Y-71628571D01*
X110940476Y-71580952D01*
X110845238Y-71533333D01*
X110654761Y-71533333D01*
X110559523Y-71580952D01*
X110511904Y-71628571D01*
X110464285Y-71723809D01*
X108440476Y-67654761D02*
X108583333Y-67702380D01*
X108821428Y-67702380D01*
X108916666Y-67654761D01*
X108964285Y-67607142D01*
X109011904Y-67511904D01*
X109011904Y-67416666D01*
X108964285Y-67321428D01*
X108916666Y-67273809D01*
X108821428Y-67226190D01*
X108630952Y-67178571D01*
X108535714Y-67130952D01*
X108488095Y-67083333D01*
X108440476Y-66988095D01*
X108440476Y-66892857D01*
X108488095Y-66797619D01*
X108535714Y-66750000D01*
X108630952Y-66702380D01*
X108869047Y-66702380D01*
X109011904Y-66750000D01*
X109345238Y-66702380D02*
X109583333Y-67702380D01*
X109773809Y-66988095D01*
X109964285Y-67702380D01*
X110202380Y-66702380D01*
X111107142Y-67702380D02*
X110535714Y-67702380D01*
X110821428Y-67702380D02*
X110821428Y-66702380D01*
X110726190Y-66845238D01*
X110630952Y-66940476D01*
X110535714Y-66988095D01*
X111726190Y-66702380D02*
X111821428Y-66702380D01*
X111916666Y-66750000D01*
X111964285Y-66797619D01*
X112011904Y-66892857D01*
X112059523Y-67083333D01*
X112059523Y-67321428D01*
X112011904Y-67511904D01*
X111964285Y-67607142D01*
X111916666Y-67654761D01*
X111821428Y-67702380D01*
X111726190Y-67702380D01*
X111630952Y-67654761D01*
X111583333Y-67607142D01*
X111535714Y-67511904D01*
X111488095Y-67321428D01*
X111488095Y-67083333D01*
X111535714Y-66892857D01*
X111583333Y-66797619D01*
X111630952Y-66750000D01*
X111726190Y-66702380D01*
G04 #@! TO.C,SW11*
X110559523Y-88152380D02*
X110750000Y-88152380D01*
X110845238Y-88104761D01*
X110892857Y-88057142D01*
X110988095Y-87914285D01*
X111035714Y-87723809D01*
X111035714Y-87342857D01*
X110988095Y-87247619D01*
X110940476Y-87200000D01*
X110845238Y-87152380D01*
X110654761Y-87152380D01*
X110559523Y-87200000D01*
X110511904Y-87247619D01*
X110464285Y-87342857D01*
X110464285Y-87580952D01*
X110511904Y-87676190D01*
X110559523Y-87723809D01*
X110654761Y-87771428D01*
X110845238Y-87771428D01*
X110940476Y-87723809D01*
X110988095Y-87676190D01*
X111035714Y-87580952D01*
X108440476Y-83654761D02*
X108583333Y-83702380D01*
X108821428Y-83702380D01*
X108916666Y-83654761D01*
X108964285Y-83607142D01*
X109011904Y-83511904D01*
X109011904Y-83416666D01*
X108964285Y-83321428D01*
X108916666Y-83273809D01*
X108821428Y-83226190D01*
X108630952Y-83178571D01*
X108535714Y-83130952D01*
X108488095Y-83083333D01*
X108440476Y-82988095D01*
X108440476Y-82892857D01*
X108488095Y-82797619D01*
X108535714Y-82750000D01*
X108630952Y-82702380D01*
X108869047Y-82702380D01*
X109011904Y-82750000D01*
X109345238Y-82702380D02*
X109583333Y-83702380D01*
X109773809Y-82988095D01*
X109964285Y-83702380D01*
X110202380Y-82702380D01*
X111107142Y-83702380D02*
X110535714Y-83702380D01*
X110821428Y-83702380D02*
X110821428Y-82702380D01*
X110726190Y-82845238D01*
X110630952Y-82940476D01*
X110535714Y-82988095D01*
X112059523Y-83702380D02*
X111488095Y-83702380D01*
X111773809Y-83702380D02*
X111773809Y-82702380D01*
X111678571Y-82845238D01*
X111583333Y-82940476D01*
X111488095Y-82988095D01*
G04 #@! TO.C,SW12*
X108678571Y-103628571D02*
X109011904Y-103628571D01*
X109154761Y-104152380D02*
X108678571Y-104152380D01*
X108678571Y-103152380D01*
X109154761Y-103152380D01*
X109583333Y-104152380D02*
X109583333Y-103152380D01*
X110154761Y-104152380D01*
X110154761Y-103152380D01*
X110488095Y-103152380D02*
X111059523Y-103152380D01*
X110773809Y-104152380D02*
X110773809Y-103152380D01*
X111392857Y-103628571D02*
X111726190Y-103628571D01*
X111869047Y-104152380D02*
X111392857Y-104152380D01*
X111392857Y-103152380D01*
X111869047Y-103152380D01*
X112869047Y-104152380D02*
X112535714Y-103676190D01*
X112297619Y-104152380D02*
X112297619Y-103152380D01*
X112678571Y-103152380D01*
X112773809Y-103200000D01*
X112821428Y-103247619D01*
X112869047Y-103342857D01*
X112869047Y-103485714D01*
X112821428Y-103580952D01*
X112773809Y-103628571D01*
X112678571Y-103676190D01*
X112297619Y-103676190D01*
X108440476Y-99654761D02*
X108583333Y-99702380D01*
X108821428Y-99702380D01*
X108916666Y-99654761D01*
X108964285Y-99607142D01*
X109011904Y-99511904D01*
X109011904Y-99416666D01*
X108964285Y-99321428D01*
X108916666Y-99273809D01*
X108821428Y-99226190D01*
X108630952Y-99178571D01*
X108535714Y-99130952D01*
X108488095Y-99083333D01*
X108440476Y-98988095D01*
X108440476Y-98892857D01*
X108488095Y-98797619D01*
X108535714Y-98750000D01*
X108630952Y-98702380D01*
X108869047Y-98702380D01*
X109011904Y-98750000D01*
X109345238Y-98702380D02*
X109583333Y-99702380D01*
X109773809Y-98988095D01*
X109964285Y-99702380D01*
X110202380Y-98702380D01*
X111107142Y-99702380D02*
X110535714Y-99702380D01*
X110821428Y-99702380D02*
X110821428Y-98702380D01*
X110726190Y-98845238D01*
X110630952Y-98940476D01*
X110535714Y-98988095D01*
X111488095Y-98797619D02*
X111535714Y-98750000D01*
X111630952Y-98702380D01*
X111869047Y-98702380D01*
X111964285Y-98750000D01*
X112011904Y-98797619D01*
X112059523Y-98892857D01*
X112059523Y-98988095D01*
X112011904Y-99130952D01*
X111440476Y-99702380D01*
X112059523Y-99702380D01*
G04 #@! TD*
M02*
