G04 #@! TF.GenerationSoftware,KiCad,Pcbnew,5.0.2+dfsg1-1*
G04 #@! TF.CreationDate,2021-09-16T10:52:53+05:30*
G04 #@! TF.ProjectId,KEYBORD_PCB_V1,4b455942-4f52-4445-9f50-43425f56312e,rev?*
G04 #@! TF.SameCoordinates,Original*
G04 #@! TF.FileFunction,Copper,L2,Bot*
G04 #@! TF.FilePolarity,Positive*
%FSLAX46Y46*%
G04 Gerber Fmt 4.6, Leading zero omitted, Abs format (unit mm)*
G04 Created by KiCad (PCBNEW 5.0.2+dfsg1-1) date Thu 16 Sep 2021 10:52:53 AM IST*
%MOMM*%
%LPD*%
G01*
G04 APERTURE LIST*
G04 #@! TA.AperFunction,NonConductor*
%ADD10C,0.300000*%
G04 #@! TD*
G04 #@! TA.AperFunction,Conductor*
%ADD11C,0.100000*%
G04 #@! TD*
G04 #@! TA.AperFunction,SMDPad,CuDef*
%ADD12C,1.250000*%
G04 #@! TD*
G04 #@! TA.AperFunction,ComponentPad*
%ADD13O,2.000000X2.000000*%
G04 #@! TD*
G04 #@! TA.AperFunction,ComponentPad*
%ADD14R,2.000000X2.000000*%
G04 #@! TD*
G04 #@! TA.AperFunction,SMDPad,CuDef*
%ADD15R,0.600000X1.500000*%
G04 #@! TD*
G04 #@! TA.AperFunction,ComponentPad*
%ADD16C,2.000000*%
G04 #@! TD*
G04 #@! TA.AperFunction,ViaPad*
%ADD17C,2.000000*%
G04 #@! TD*
G04 #@! TA.AperFunction,Conductor*
%ADD18C,0.700000*%
G04 #@! TD*
G04 #@! TA.AperFunction,Conductor*
%ADD19C,0.254000*%
G04 #@! TD*
G04 APERTURE END LIST*
D10*
X106178571Y-103668571D02*
X106178571Y-102168571D01*
X105321428Y-103668571D02*
X105964285Y-102811428D01*
X105321428Y-102168571D02*
X106178571Y-103025714D01*
X104392857Y-102168571D02*
X104107142Y-102168571D01*
X103964285Y-102240000D01*
X103821428Y-102382857D01*
X103750000Y-102668571D01*
X103750000Y-103168571D01*
X103821428Y-103454285D01*
X103964285Y-103597142D01*
X104107142Y-103668571D01*
X104392857Y-103668571D01*
X104535714Y-103597142D01*
X104678571Y-103454285D01*
X104750000Y-103168571D01*
X104750000Y-102668571D01*
X104678571Y-102382857D01*
X104535714Y-102240000D01*
X104392857Y-102168571D01*
X103107142Y-103097142D02*
X101964285Y-103097142D01*
X101321428Y-103240000D02*
X100607142Y-103240000D01*
X101464285Y-103668571D02*
X100964285Y-102168571D01*
X100464285Y-103668571D01*
X100035714Y-103240000D02*
X99321428Y-103240000D01*
X100178571Y-103668571D02*
X99678571Y-102168571D01*
X99178571Y-103668571D01*
X98678571Y-103668571D02*
X98678571Y-102168571D01*
X98678571Y-102882857D02*
X97821428Y-102882857D01*
X97821428Y-103668571D02*
X97821428Y-102168571D01*
X97178571Y-103240000D02*
X96464285Y-103240000D01*
X97321428Y-103668571D02*
X96821428Y-102168571D01*
X96321428Y-103668571D01*
X95821428Y-103668571D02*
X95821428Y-102168571D01*
X95321428Y-103240000D01*
X94821428Y-102168571D01*
X94821428Y-103668571D01*
X94464285Y-103811428D02*
X93321428Y-103811428D01*
X92964285Y-103668571D02*
X92964285Y-102168571D01*
X92107142Y-103668571D02*
X92750000Y-102811428D01*
X92107142Y-102168571D02*
X92964285Y-103025714D01*
X90964285Y-102882857D02*
X90750000Y-102954285D01*
X90678571Y-103025714D01*
X90607142Y-103168571D01*
X90607142Y-103382857D01*
X90678571Y-103525714D01*
X90750000Y-103597142D01*
X90892857Y-103668571D01*
X91464285Y-103668571D01*
X91464285Y-102168571D01*
X90964285Y-102168571D01*
X90821428Y-102240000D01*
X90750000Y-102311428D01*
X90678571Y-102454285D01*
X90678571Y-102597142D01*
X90750000Y-102740000D01*
X90821428Y-102811428D01*
X90964285Y-102882857D01*
X91464285Y-102882857D01*
X89107142Y-103668571D02*
X89607142Y-102954285D01*
X89964285Y-103668571D02*
X89964285Y-102168571D01*
X89392857Y-102168571D01*
X89250000Y-102240000D01*
X89178571Y-102311428D01*
X89107142Y-102454285D01*
X89107142Y-102668571D01*
X89178571Y-102811428D01*
X89250000Y-102882857D01*
X89392857Y-102954285D01*
X89964285Y-102954285D01*
X88464285Y-103668571D02*
X88464285Y-102168571D01*
X88107142Y-102168571D01*
X87892857Y-102240000D01*
X87750000Y-102382857D01*
X87678571Y-102525714D01*
X87607142Y-102811428D01*
X87607142Y-103025714D01*
X87678571Y-103311428D01*
X87750000Y-103454285D01*
X87892857Y-103597142D01*
X88107142Y-103668571D01*
X88464285Y-103668571D01*
X87321428Y-103811428D02*
X86178571Y-103811428D01*
X86035714Y-102168571D02*
X85535714Y-103668571D01*
X85035714Y-102168571D01*
X83750000Y-103668571D02*
X84607142Y-103668571D01*
X84178571Y-103668571D02*
X84178571Y-102168571D01*
X84321428Y-102382857D01*
X84464285Y-102525714D01*
X84607142Y-102597142D01*
D11*
G04 #@! TO.N,SDA*
G04 #@! TO.C,R2*
G36*
X109439504Y-41716204D02*
X109463773Y-41719804D01*
X109487571Y-41725765D01*
X109510671Y-41734030D01*
X109532849Y-41744520D01*
X109553893Y-41757133D01*
X109573598Y-41771747D01*
X109591777Y-41788223D01*
X109608253Y-41806402D01*
X109622867Y-41826107D01*
X109635480Y-41847151D01*
X109645970Y-41869329D01*
X109654235Y-41892429D01*
X109660196Y-41916227D01*
X109663796Y-41940496D01*
X109665000Y-41965000D01*
X109665000Y-43215000D01*
X109663796Y-43239504D01*
X109660196Y-43263773D01*
X109654235Y-43287571D01*
X109645970Y-43310671D01*
X109635480Y-43332849D01*
X109622867Y-43353893D01*
X109608253Y-43373598D01*
X109591777Y-43391777D01*
X109573598Y-43408253D01*
X109553893Y-43422867D01*
X109532849Y-43435480D01*
X109510671Y-43445970D01*
X109487571Y-43454235D01*
X109463773Y-43460196D01*
X109439504Y-43463796D01*
X109415000Y-43465000D01*
X108665000Y-43465000D01*
X108640496Y-43463796D01*
X108616227Y-43460196D01*
X108592429Y-43454235D01*
X108569329Y-43445970D01*
X108547151Y-43435480D01*
X108526107Y-43422867D01*
X108506402Y-43408253D01*
X108488223Y-43391777D01*
X108471747Y-43373598D01*
X108457133Y-43353893D01*
X108444520Y-43332849D01*
X108434030Y-43310671D01*
X108425765Y-43287571D01*
X108419804Y-43263773D01*
X108416204Y-43239504D01*
X108415000Y-43215000D01*
X108415000Y-41965000D01*
X108416204Y-41940496D01*
X108419804Y-41916227D01*
X108425765Y-41892429D01*
X108434030Y-41869329D01*
X108444520Y-41847151D01*
X108457133Y-41826107D01*
X108471747Y-41806402D01*
X108488223Y-41788223D01*
X108506402Y-41771747D01*
X108526107Y-41757133D01*
X108547151Y-41744520D01*
X108569329Y-41734030D01*
X108592429Y-41725765D01*
X108616227Y-41719804D01*
X108640496Y-41716204D01*
X108665000Y-41715000D01*
X109415000Y-41715000D01*
X109439504Y-41716204D01*
X109439504Y-41716204D01*
G37*
D12*
G04 #@! TD*
G04 #@! TO.P,R2,1*
G04 #@! TO.N,SDA*
X109040000Y-42590000D03*
D11*
G04 #@! TO.N,+3V3*
G04 #@! TO.C,R2*
G36*
X112239504Y-41716204D02*
X112263773Y-41719804D01*
X112287571Y-41725765D01*
X112310671Y-41734030D01*
X112332849Y-41744520D01*
X112353893Y-41757133D01*
X112373598Y-41771747D01*
X112391777Y-41788223D01*
X112408253Y-41806402D01*
X112422867Y-41826107D01*
X112435480Y-41847151D01*
X112445970Y-41869329D01*
X112454235Y-41892429D01*
X112460196Y-41916227D01*
X112463796Y-41940496D01*
X112465000Y-41965000D01*
X112465000Y-43215000D01*
X112463796Y-43239504D01*
X112460196Y-43263773D01*
X112454235Y-43287571D01*
X112445970Y-43310671D01*
X112435480Y-43332849D01*
X112422867Y-43353893D01*
X112408253Y-43373598D01*
X112391777Y-43391777D01*
X112373598Y-43408253D01*
X112353893Y-43422867D01*
X112332849Y-43435480D01*
X112310671Y-43445970D01*
X112287571Y-43454235D01*
X112263773Y-43460196D01*
X112239504Y-43463796D01*
X112215000Y-43465000D01*
X111465000Y-43465000D01*
X111440496Y-43463796D01*
X111416227Y-43460196D01*
X111392429Y-43454235D01*
X111369329Y-43445970D01*
X111347151Y-43435480D01*
X111326107Y-43422867D01*
X111306402Y-43408253D01*
X111288223Y-43391777D01*
X111271747Y-43373598D01*
X111257133Y-43353893D01*
X111244520Y-43332849D01*
X111234030Y-43310671D01*
X111225765Y-43287571D01*
X111219804Y-43263773D01*
X111216204Y-43239504D01*
X111215000Y-43215000D01*
X111215000Y-41965000D01*
X111216204Y-41940496D01*
X111219804Y-41916227D01*
X111225765Y-41892429D01*
X111234030Y-41869329D01*
X111244520Y-41847151D01*
X111257133Y-41826107D01*
X111271747Y-41806402D01*
X111288223Y-41788223D01*
X111306402Y-41771747D01*
X111326107Y-41757133D01*
X111347151Y-41744520D01*
X111369329Y-41734030D01*
X111392429Y-41725765D01*
X111416227Y-41719804D01*
X111440496Y-41716204D01*
X111465000Y-41715000D01*
X112215000Y-41715000D01*
X112239504Y-41716204D01*
X112239504Y-41716204D01*
G37*
D12*
G04 #@! TD*
G04 #@! TO.P,R2,2*
G04 #@! TO.N,+3V3*
X111840000Y-42590000D03*
D13*
G04 #@! TO.P,J1,8*
G04 #@! TO.N,+3V3*
X87870000Y-40150000D03*
G04 #@! TO.P,J1,7*
G04 #@! TO.N,Net-(J1-Pad7)*
X90410000Y-40150000D03*
G04 #@! TO.P,J1,6*
G04 #@! TO.N,GND*
X92950000Y-40150000D03*
G04 #@! TO.P,J1,5*
G04 #@! TO.N,Net-(J1-Pad5)*
X95490000Y-40150000D03*
G04 #@! TO.P,J1,4*
G04 #@! TO.N,Net-(J1-Pad4)*
X98030000Y-40150000D03*
G04 #@! TO.P,J1,3*
G04 #@! TO.N,Net-(J1-Pad3)*
X100570000Y-40150000D03*
G04 #@! TO.P,J1,2*
G04 #@! TO.N,SDA*
X103110000Y-40150000D03*
D14*
G04 #@! TO.P,J1,1*
G04 #@! TO.N,SCL*
X105650000Y-40150000D03*
G04 #@! TD*
D11*
G04 #@! TO.N,SCL*
G04 #@! TO.C,R1*
G36*
X109389504Y-38206204D02*
X109413773Y-38209804D01*
X109437571Y-38215765D01*
X109460671Y-38224030D01*
X109482849Y-38234520D01*
X109503893Y-38247133D01*
X109523598Y-38261747D01*
X109541777Y-38278223D01*
X109558253Y-38296402D01*
X109572867Y-38316107D01*
X109585480Y-38337151D01*
X109595970Y-38359329D01*
X109604235Y-38382429D01*
X109610196Y-38406227D01*
X109613796Y-38430496D01*
X109615000Y-38455000D01*
X109615000Y-39705000D01*
X109613796Y-39729504D01*
X109610196Y-39753773D01*
X109604235Y-39777571D01*
X109595970Y-39800671D01*
X109585480Y-39822849D01*
X109572867Y-39843893D01*
X109558253Y-39863598D01*
X109541777Y-39881777D01*
X109523598Y-39898253D01*
X109503893Y-39912867D01*
X109482849Y-39925480D01*
X109460671Y-39935970D01*
X109437571Y-39944235D01*
X109413773Y-39950196D01*
X109389504Y-39953796D01*
X109365000Y-39955000D01*
X108615000Y-39955000D01*
X108590496Y-39953796D01*
X108566227Y-39950196D01*
X108542429Y-39944235D01*
X108519329Y-39935970D01*
X108497151Y-39925480D01*
X108476107Y-39912867D01*
X108456402Y-39898253D01*
X108438223Y-39881777D01*
X108421747Y-39863598D01*
X108407133Y-39843893D01*
X108394520Y-39822849D01*
X108384030Y-39800671D01*
X108375765Y-39777571D01*
X108369804Y-39753773D01*
X108366204Y-39729504D01*
X108365000Y-39705000D01*
X108365000Y-38455000D01*
X108366204Y-38430496D01*
X108369804Y-38406227D01*
X108375765Y-38382429D01*
X108384030Y-38359329D01*
X108394520Y-38337151D01*
X108407133Y-38316107D01*
X108421747Y-38296402D01*
X108438223Y-38278223D01*
X108456402Y-38261747D01*
X108476107Y-38247133D01*
X108497151Y-38234520D01*
X108519329Y-38224030D01*
X108542429Y-38215765D01*
X108566227Y-38209804D01*
X108590496Y-38206204D01*
X108615000Y-38205000D01*
X109365000Y-38205000D01*
X109389504Y-38206204D01*
X109389504Y-38206204D01*
G37*
D12*
G04 #@! TD*
G04 #@! TO.P,R1,2*
G04 #@! TO.N,SCL*
X108990000Y-39080000D03*
D11*
G04 #@! TO.N,+3V3*
G04 #@! TO.C,R1*
G36*
X112189504Y-38206204D02*
X112213773Y-38209804D01*
X112237571Y-38215765D01*
X112260671Y-38224030D01*
X112282849Y-38234520D01*
X112303893Y-38247133D01*
X112323598Y-38261747D01*
X112341777Y-38278223D01*
X112358253Y-38296402D01*
X112372867Y-38316107D01*
X112385480Y-38337151D01*
X112395970Y-38359329D01*
X112404235Y-38382429D01*
X112410196Y-38406227D01*
X112413796Y-38430496D01*
X112415000Y-38455000D01*
X112415000Y-39705000D01*
X112413796Y-39729504D01*
X112410196Y-39753773D01*
X112404235Y-39777571D01*
X112395970Y-39800671D01*
X112385480Y-39822849D01*
X112372867Y-39843893D01*
X112358253Y-39863598D01*
X112341777Y-39881777D01*
X112323598Y-39898253D01*
X112303893Y-39912867D01*
X112282849Y-39925480D01*
X112260671Y-39935970D01*
X112237571Y-39944235D01*
X112213773Y-39950196D01*
X112189504Y-39953796D01*
X112165000Y-39955000D01*
X111415000Y-39955000D01*
X111390496Y-39953796D01*
X111366227Y-39950196D01*
X111342429Y-39944235D01*
X111319329Y-39935970D01*
X111297151Y-39925480D01*
X111276107Y-39912867D01*
X111256402Y-39898253D01*
X111238223Y-39881777D01*
X111221747Y-39863598D01*
X111207133Y-39843893D01*
X111194520Y-39822849D01*
X111184030Y-39800671D01*
X111175765Y-39777571D01*
X111169804Y-39753773D01*
X111166204Y-39729504D01*
X111165000Y-39705000D01*
X111165000Y-38455000D01*
X111166204Y-38430496D01*
X111169804Y-38406227D01*
X111175765Y-38382429D01*
X111184030Y-38359329D01*
X111194520Y-38337151D01*
X111207133Y-38316107D01*
X111221747Y-38296402D01*
X111238223Y-38278223D01*
X111256402Y-38261747D01*
X111276107Y-38247133D01*
X111297151Y-38234520D01*
X111319329Y-38224030D01*
X111342429Y-38215765D01*
X111366227Y-38209804D01*
X111390496Y-38206204D01*
X111415000Y-38205000D01*
X112165000Y-38205000D01*
X112189504Y-38206204D01*
X112189504Y-38206204D01*
G37*
D12*
G04 #@! TD*
G04 #@! TO.P,R1,1*
G04 #@! TO.N,+3V3*
X111790000Y-39080000D03*
D15*
G04 #@! TO.P,U1,1*
G04 #@! TO.N,GND*
X78285000Y-46790000D03*
G04 #@! TO.P,U1,2*
X77015000Y-46790000D03*
G04 #@! TO.P,U1,3*
X75745000Y-46790000D03*
G04 #@! TO.P,U1,4*
G04 #@! TO.N,R1*
X74475000Y-46790000D03*
G04 #@! TO.P,U1,5*
G04 #@! TO.N,R2*
X73205000Y-46790000D03*
G04 #@! TO.P,U1,6*
G04 #@! TO.N,R3*
X71935000Y-46790000D03*
G04 #@! TO.P,U1,7*
G04 #@! TO.N,R4*
X70665000Y-46790000D03*
G04 #@! TO.P,U1,8*
G04 #@! TO.N,GND*
X69395000Y-46790000D03*
G04 #@! TO.P,U1,9*
G04 #@! TO.N,C1*
X69395000Y-37490000D03*
G04 #@! TO.P,U1,10*
G04 #@! TO.N,C2*
X70665000Y-37490000D03*
G04 #@! TO.P,U1,11*
G04 #@! TO.N,C3*
X71935000Y-37490000D03*
G04 #@! TO.P,U1,12*
G04 #@! TO.N,Net-(U1-Pad12)*
X73205000Y-37490000D03*
G04 #@! TO.P,U1,13*
G04 #@! TO.N,Net-(U1-Pad13)*
X74475000Y-37490000D03*
G04 #@! TO.P,U1,14*
G04 #@! TO.N,SCL*
X75745000Y-37490000D03*
G04 #@! TO.P,U1,15*
G04 #@! TO.N,SDA*
X77015000Y-37490000D03*
G04 #@! TO.P,U1,16*
G04 #@! TO.N,+3V3*
X78285000Y-37490000D03*
G04 #@! TD*
D16*
G04 #@! TO.P,SW1,2*
G04 #@! TO.N,C1*
X77000000Y-53500000D03*
G04 #@! TO.P,SW1,1*
G04 #@! TO.N,R1*
X77000000Y-49000000D03*
G04 #@! TO.P,SW1,2*
G04 #@! TO.N,C1*
X83500000Y-53500000D03*
G04 #@! TO.P,SW1,1*
G04 #@! TO.N,R1*
X83500000Y-49000000D03*
G04 #@! TD*
G04 #@! TO.P,SW2,1*
G04 #@! TO.N,R2*
X83500000Y-64000000D03*
G04 #@! TO.P,SW2,2*
G04 #@! TO.N,C1*
X83500000Y-68500000D03*
G04 #@! TO.P,SW2,1*
G04 #@! TO.N,R2*
X77000000Y-64000000D03*
G04 #@! TO.P,SW2,2*
G04 #@! TO.N,C1*
X77000000Y-68500000D03*
G04 #@! TD*
G04 #@! TO.P,SW3,1*
G04 #@! TO.N,R3*
X83500000Y-80000000D03*
G04 #@! TO.P,SW3,2*
G04 #@! TO.N,C1*
X83500000Y-84500000D03*
G04 #@! TO.P,SW3,1*
G04 #@! TO.N,R3*
X77000000Y-80000000D03*
G04 #@! TO.P,SW3,2*
G04 #@! TO.N,C1*
X77000000Y-84500000D03*
G04 #@! TD*
G04 #@! TO.P,SW4,2*
G04 #@! TO.N,C1*
X77000000Y-100500000D03*
G04 #@! TO.P,SW4,1*
G04 #@! TO.N,R4*
X77000000Y-96000000D03*
G04 #@! TO.P,SW4,2*
G04 #@! TO.N,C1*
X83500000Y-100500000D03*
G04 #@! TO.P,SW4,1*
G04 #@! TO.N,R4*
X83500000Y-96000000D03*
G04 #@! TD*
G04 #@! TO.P,SW5,1*
G04 #@! TO.N,R1*
X98500000Y-49000000D03*
G04 #@! TO.P,SW5,2*
G04 #@! TO.N,C2*
X98500000Y-53500000D03*
G04 #@! TO.P,SW5,1*
G04 #@! TO.N,R1*
X92000000Y-49000000D03*
G04 #@! TO.P,SW5,2*
G04 #@! TO.N,C2*
X92000000Y-53500000D03*
G04 #@! TD*
G04 #@! TO.P,SW6,1*
G04 #@! TO.N,R2*
X98500000Y-64000000D03*
G04 #@! TO.P,SW6,2*
G04 #@! TO.N,C2*
X98500000Y-68500000D03*
G04 #@! TO.P,SW6,1*
G04 #@! TO.N,R2*
X92000000Y-64000000D03*
G04 #@! TO.P,SW6,2*
G04 #@! TO.N,C2*
X92000000Y-68500000D03*
G04 #@! TD*
G04 #@! TO.P,SW7,2*
G04 #@! TO.N,C2*
X92000000Y-84500000D03*
G04 #@! TO.P,SW7,1*
G04 #@! TO.N,R3*
X92000000Y-80000000D03*
G04 #@! TO.P,SW7,2*
G04 #@! TO.N,C2*
X98500000Y-84500000D03*
G04 #@! TO.P,SW7,1*
G04 #@! TO.N,R3*
X98500000Y-80000000D03*
G04 #@! TD*
G04 #@! TO.P,SW8,1*
G04 #@! TO.N,R4*
X98500000Y-96000000D03*
G04 #@! TO.P,SW8,2*
G04 #@! TO.N,C2*
X98500000Y-100500000D03*
G04 #@! TO.P,SW8,1*
G04 #@! TO.N,R4*
X92000000Y-96000000D03*
G04 #@! TO.P,SW8,2*
G04 #@! TO.N,C2*
X92000000Y-100500000D03*
G04 #@! TD*
G04 #@! TO.P,SW9,2*
G04 #@! TO.N,C3*
X106000000Y-53500000D03*
G04 #@! TO.P,SW9,1*
G04 #@! TO.N,R1*
X106000000Y-49000000D03*
G04 #@! TO.P,SW9,2*
G04 #@! TO.N,C3*
X112500000Y-53500000D03*
G04 #@! TO.P,SW9,1*
G04 #@! TO.N,R1*
X112500000Y-49000000D03*
G04 #@! TD*
G04 #@! TO.P,SW10,2*
G04 #@! TO.N,C3*
X106500000Y-68500000D03*
G04 #@! TO.P,SW10,1*
G04 #@! TO.N,R2*
X106500000Y-64000000D03*
G04 #@! TO.P,SW10,2*
G04 #@! TO.N,C3*
X113000000Y-68500000D03*
G04 #@! TO.P,SW10,1*
G04 #@! TO.N,R2*
X113000000Y-64000000D03*
G04 #@! TD*
G04 #@! TO.P,SW11,2*
G04 #@! TO.N,C3*
X106500000Y-84500000D03*
G04 #@! TO.P,SW11,1*
G04 #@! TO.N,R3*
X106500000Y-80000000D03*
G04 #@! TO.P,SW11,2*
G04 #@! TO.N,C3*
X113000000Y-84500000D03*
G04 #@! TO.P,SW11,1*
G04 #@! TO.N,R3*
X113000000Y-80000000D03*
G04 #@! TD*
G04 #@! TO.P,SW12,1*
G04 #@! TO.N,R4*
X113000000Y-96000000D03*
G04 #@! TO.P,SW12,2*
G04 #@! TO.N,C3*
X113000000Y-100500000D03*
G04 #@! TO.P,SW12,1*
G04 #@! TO.N,R4*
X106500000Y-96000000D03*
G04 #@! TO.P,SW12,2*
G04 #@! TO.N,C3*
X106500000Y-100500000D03*
G04 #@! TD*
D17*
G04 #@! TO.N,GND*
X66990010Y-38360000D03*
X81970000Y-46140000D03*
G04 #@! TO.N,C1*
X86880003Y-47140000D03*
G04 #@! TO.N,C2*
X92730000Y-46280000D03*
G04 #@! TO.N,C3*
X102280000Y-44910000D03*
G04 #@! TO.N,SCL*
X83200024Y-40140000D03*
G04 #@! TD*
D18*
G04 #@! TO.N,R4*
X70665000Y-46790000D02*
X70665000Y-48715000D01*
X73340010Y-51390010D02*
X73340010Y-90210010D01*
X70665000Y-48715000D02*
X73340010Y-51390010D01*
X77000000Y-93870000D02*
X77000000Y-96000000D01*
X73340010Y-90210010D02*
X77000000Y-93870000D01*
X77000000Y-96000000D02*
X113000000Y-96000000D01*
G04 #@! TO.N,R3*
X77000000Y-80000000D02*
X113000000Y-80000000D01*
X74300000Y-77300000D02*
X76000001Y-79000001D01*
X76000001Y-79000001D02*
X77000000Y-80000000D01*
X71935000Y-46790000D02*
X71935000Y-48487806D01*
X74300000Y-50852806D02*
X74300000Y-77300000D01*
X71935000Y-48487806D02*
X74300000Y-50852806D01*
G04 #@! TO.N,R2*
X113000000Y-64000000D02*
X77000000Y-64000000D01*
X77000000Y-62090000D02*
X77000000Y-64000000D01*
X75300000Y-60390000D02*
X77000000Y-62090000D01*
X75300000Y-50580000D02*
X75300000Y-60390000D01*
X73205000Y-46790000D02*
X73205000Y-48485000D01*
X73205000Y-48485000D02*
X75300000Y-50580000D01*
G04 #@! TO.N,R1*
X75235000Y-49000000D02*
X75585787Y-49000000D01*
X74475000Y-48240000D02*
X75235000Y-49000000D01*
X75585787Y-49000000D02*
X77000000Y-49000000D01*
X74475000Y-46790000D02*
X74475000Y-48240000D01*
X112500000Y-49000000D02*
X83500000Y-49000000D01*
G04 #@! TO.N,+3V3*
X87870000Y-38190000D02*
X87870000Y-40150000D01*
X111790000Y-42540000D02*
X111840000Y-42590000D01*
X111790000Y-39080000D02*
X111790000Y-42540000D01*
X88680000Y-37380000D02*
X87870000Y-38190000D01*
X111065000Y-37380000D02*
X88680000Y-37380000D01*
X111790000Y-39080000D02*
X111790000Y-38105000D01*
X111790000Y-38105000D02*
X111065000Y-37380000D01*
X87010000Y-37330000D02*
X87870000Y-38190000D01*
X79480000Y-37330000D02*
X87010000Y-37330000D01*
X79320000Y-37490000D02*
X79480000Y-37330000D01*
X78285000Y-37490000D02*
X79320000Y-37490000D01*
G04 #@! TO.N,GND*
X78285000Y-46790000D02*
X75745000Y-46790000D01*
X81862501Y-46032501D02*
X81970000Y-46140000D01*
X79895787Y-46800000D02*
X80555787Y-46140000D01*
X80555787Y-46140000D02*
X81970000Y-46140000D01*
X75740000Y-46810000D02*
X75750000Y-46800000D01*
X75750000Y-46800000D02*
X79895787Y-46800000D01*
X66990010Y-39774213D02*
X66990010Y-38360000D01*
X66990010Y-43590010D02*
X66990010Y-39774213D01*
X67270000Y-43870000D02*
X66990010Y-43590010D01*
X67925000Y-43870000D02*
X67270000Y-43870000D01*
X69395000Y-46790000D02*
X69395000Y-45340000D01*
X69395000Y-45340000D02*
X67925000Y-43870000D01*
G04 #@! TO.N,C1*
X77000000Y-53500000D02*
X83500000Y-53500000D01*
X77000000Y-68500000D02*
X83500000Y-68500000D01*
X77000000Y-84500000D02*
X83500000Y-84500000D01*
X77000000Y-100500000D02*
X83500000Y-100500000D01*
X69395000Y-40027806D02*
X69400000Y-40032806D01*
X69395000Y-37490000D02*
X69395000Y-40027806D01*
X69400000Y-40032806D02*
X69400000Y-40670000D01*
X69400000Y-40670000D02*
X72430000Y-43700000D01*
X72430000Y-43700000D02*
X80010000Y-43700000D01*
X80010000Y-43700000D02*
X80620000Y-44310000D01*
X80620000Y-44310000D02*
X84070000Y-44310000D01*
X84070000Y-44310000D02*
X86950000Y-47190000D01*
G04 #@! TO.N,C2*
X72990000Y-42350000D02*
X70660000Y-40020000D01*
X81330000Y-42860000D02*
X80820000Y-42350000D01*
X84950000Y-42860000D02*
X81330000Y-42860000D01*
X80820000Y-42350000D02*
X72990000Y-42350000D01*
X88380000Y-46290000D02*
X84950000Y-42860000D01*
X92680000Y-46290000D02*
X88380000Y-46290000D01*
X70665000Y-40015000D02*
X70660000Y-40020000D01*
X70665000Y-37490000D02*
X70665000Y-40015000D01*
X92000000Y-100500000D02*
X98500000Y-100500000D01*
X92000000Y-84500000D02*
X98500000Y-84500000D01*
X92000000Y-68500000D02*
X98500000Y-68500000D01*
X92000000Y-53500000D02*
X98500000Y-53500000D01*
G04 #@! TO.N,C3*
X106500000Y-100500000D02*
X113000000Y-100500000D01*
X106500000Y-84500000D02*
X113000000Y-84500000D01*
X106500000Y-68500000D02*
X113000000Y-68500000D01*
X106000000Y-53500000D02*
X112500000Y-53500000D01*
X101610000Y-44200000D02*
X102320000Y-44910000D01*
X85340002Y-41690002D02*
X87850000Y-44200000D01*
X81860002Y-41690002D02*
X85340002Y-41690002D01*
X71935000Y-38940000D02*
X71940000Y-38945000D01*
X71935000Y-37490000D02*
X71935000Y-38940000D01*
X71940000Y-38945000D02*
X71940000Y-39330000D01*
X87850000Y-44200000D02*
X101610000Y-44200000D01*
X71940000Y-39330000D02*
X73830000Y-41220000D01*
X81390000Y-41220000D02*
X81860002Y-41690002D01*
X73830000Y-41220000D02*
X81390000Y-41220000D01*
G04 #@! TO.N,SDA*
X104135787Y-42590000D02*
X109040000Y-42590000D01*
X104045787Y-42500000D02*
X104135787Y-42590000D01*
X103110000Y-41564213D02*
X104045787Y-42500000D01*
X103110000Y-40150000D02*
X103110000Y-41564213D01*
X103955787Y-42590000D02*
X104045787Y-42500000D01*
X87944003Y-42590000D02*
X103955787Y-42590000D01*
X77015000Y-38375000D02*
X77669998Y-39029998D01*
X77015000Y-37490000D02*
X77015000Y-38375000D01*
X85780002Y-40425999D02*
X87944003Y-42590000D01*
X85780002Y-39725998D02*
X85780002Y-40425999D01*
X77669998Y-39029998D02*
X82015997Y-39029998D01*
X82015997Y-39029998D02*
X82455997Y-38589998D01*
X82455997Y-38589998D02*
X84644002Y-38589998D01*
X84644002Y-38589998D02*
X85780002Y-39725998D01*
G04 #@! TO.N,SCL*
X105650000Y-40150000D02*
X106830000Y-40150000D01*
X107900000Y-39080000D02*
X108990000Y-39080000D01*
X106830000Y-40150000D02*
X107900000Y-39080000D01*
X81785811Y-40140000D02*
X83200024Y-40140000D01*
X76945000Y-40140000D02*
X81785811Y-40140000D01*
X75745000Y-37490000D02*
X75745000Y-38940000D01*
X75745000Y-38940000D02*
X76945000Y-40140000D01*
G04 #@! TD*
D19*
G04 #@! TO.N,GND*
G36*
X68447560Y-37204163D02*
X68410000Y-37392989D01*
X68410001Y-39930793D01*
X68390704Y-40027806D01*
X68415000Y-40149951D01*
X68415000Y-40572992D01*
X68395704Y-40670000D01*
X68415000Y-40767008D01*
X68415000Y-40767012D01*
X68428658Y-40835672D01*
X68472151Y-41054327D01*
X68634902Y-41297902D01*
X68634905Y-41297905D01*
X68689856Y-41380145D01*
X68772096Y-41435096D01*
X71664902Y-44327902D01*
X71719855Y-44410145D01*
X72045672Y-44627849D01*
X72332988Y-44685000D01*
X72332991Y-44685000D01*
X72429999Y-44704296D01*
X72527007Y-44685000D01*
X79602000Y-44685000D01*
X79854900Y-44937899D01*
X79909855Y-45020145D01*
X80235672Y-45237849D01*
X80522988Y-45295000D01*
X80522991Y-45295000D01*
X80619999Y-45314296D01*
X80717007Y-45295000D01*
X83662000Y-45295000D01*
X85245003Y-46878003D01*
X85245003Y-47465222D01*
X85472729Y-48015000D01*
X84827239Y-48015000D01*
X84426153Y-47613914D01*
X83825222Y-47365000D01*
X83174778Y-47365000D01*
X82573847Y-47613914D01*
X82113914Y-48073847D01*
X81865000Y-48674778D01*
X81865000Y-49325222D01*
X82113914Y-49926153D01*
X82573847Y-50386086D01*
X83174778Y-50635000D01*
X83825222Y-50635000D01*
X84426153Y-50386086D01*
X84827239Y-49985000D01*
X90672761Y-49985000D01*
X91073847Y-50386086D01*
X91674778Y-50635000D01*
X92325222Y-50635000D01*
X92926153Y-50386086D01*
X93327239Y-49985000D01*
X97172761Y-49985000D01*
X97573847Y-50386086D01*
X98174778Y-50635000D01*
X98825222Y-50635000D01*
X99426153Y-50386086D01*
X99827239Y-49985000D01*
X104672761Y-49985000D01*
X105073847Y-50386086D01*
X105674778Y-50635000D01*
X106325222Y-50635000D01*
X106926153Y-50386086D01*
X107327239Y-49985000D01*
X111172761Y-49985000D01*
X111573847Y-50386086D01*
X112174778Y-50635000D01*
X112825222Y-50635000D01*
X113426153Y-50386086D01*
X113886086Y-49926153D01*
X114135000Y-49325222D01*
X114135000Y-48674778D01*
X113886086Y-48073847D01*
X113426153Y-47613914D01*
X112825222Y-47365000D01*
X112174778Y-47365000D01*
X111573847Y-47613914D01*
X111172761Y-48015000D01*
X107327239Y-48015000D01*
X106926153Y-47613914D01*
X106325222Y-47365000D01*
X105674778Y-47365000D01*
X105073847Y-47613914D01*
X104672761Y-48015000D01*
X99827239Y-48015000D01*
X99426153Y-47613914D01*
X98825222Y-47365000D01*
X98174778Y-47365000D01*
X97573847Y-47613914D01*
X97172761Y-48015000D01*
X93327239Y-48015000D01*
X93176856Y-47864617D01*
X93656153Y-47666086D01*
X94116086Y-47206153D01*
X94365000Y-46605222D01*
X94365000Y-45954778D01*
X94116086Y-45353847D01*
X93947239Y-45185000D01*
X100645000Y-45185000D01*
X100645000Y-45235222D01*
X100893914Y-45836153D01*
X101353847Y-46296086D01*
X101954778Y-46545000D01*
X102605222Y-46545000D01*
X103206153Y-46296086D01*
X103666086Y-45836153D01*
X103915000Y-45235222D01*
X103915000Y-44584778D01*
X103666086Y-43983847D01*
X103257239Y-43575000D01*
X103858779Y-43575000D01*
X103955787Y-43594296D01*
X104045787Y-43576394D01*
X104135786Y-43594296D01*
X104232794Y-43575000D01*
X107846942Y-43575000D01*
X108030414Y-43849586D01*
X108321565Y-44044126D01*
X108665000Y-44112440D01*
X109415000Y-44112440D01*
X109758435Y-44044126D01*
X110049586Y-43849586D01*
X110244126Y-43558435D01*
X110312440Y-43215000D01*
X110312440Y-41965000D01*
X110244126Y-41621565D01*
X110049586Y-41330414D01*
X109758435Y-41135874D01*
X109415000Y-41067560D01*
X108665000Y-41067560D01*
X108321565Y-41135874D01*
X108030414Y-41330414D01*
X107846942Y-41605000D01*
X107109686Y-41605000D01*
X107248157Y-41397765D01*
X107297440Y-41150000D01*
X107297440Y-41022315D01*
X107540145Y-40860145D01*
X107595098Y-40777902D01*
X108012185Y-40360815D01*
X108271565Y-40534126D01*
X108615000Y-40602440D01*
X109365000Y-40602440D01*
X109708435Y-40534126D01*
X109999586Y-40339586D01*
X110194126Y-40048435D01*
X110262440Y-39705000D01*
X110262440Y-38455000D01*
X110244538Y-38365000D01*
X110535462Y-38365000D01*
X110517560Y-38455000D01*
X110517560Y-39705000D01*
X110585874Y-40048435D01*
X110780414Y-40339586D01*
X110805000Y-40356014D01*
X110805001Y-41368448D01*
X110635874Y-41621565D01*
X110567560Y-41965000D01*
X110567560Y-43215000D01*
X110635874Y-43558435D01*
X110830414Y-43849586D01*
X111121565Y-44044126D01*
X111465000Y-44112440D01*
X112215000Y-44112440D01*
X112558435Y-44044126D01*
X112849586Y-43849586D01*
X113044126Y-43558435D01*
X113112440Y-43215000D01*
X113112440Y-41965000D01*
X113044126Y-41621565D01*
X112849586Y-41330414D01*
X112775000Y-41280577D01*
X112775000Y-40356014D01*
X112799586Y-40339586D01*
X112994126Y-40048435D01*
X113062440Y-39705000D01*
X113062440Y-38455000D01*
X112994126Y-38111565D01*
X112799586Y-37820414D01*
X112728201Y-37772717D01*
X112717849Y-37720672D01*
X112627665Y-37585702D01*
X112555098Y-37477097D01*
X112555096Y-37477095D01*
X112500145Y-37394855D01*
X112417904Y-37339904D01*
X112153001Y-37075000D01*
X114955000Y-37075000D01*
X114955001Y-103605000D01*
X107320715Y-103605000D01*
X107320715Y-101929760D01*
X107426153Y-101886086D01*
X107827239Y-101485000D01*
X111672761Y-101485000D01*
X112073847Y-101886086D01*
X112674778Y-102135000D01*
X113325222Y-102135000D01*
X113926153Y-101886086D01*
X114386086Y-101426153D01*
X114635000Y-100825222D01*
X114635000Y-100174778D01*
X114386086Y-99573847D01*
X113926153Y-99113914D01*
X113325222Y-98865000D01*
X112674778Y-98865000D01*
X112073847Y-99113914D01*
X111672761Y-99515000D01*
X107827239Y-99515000D01*
X107426153Y-99113914D01*
X106825222Y-98865000D01*
X106174778Y-98865000D01*
X105573847Y-99113914D01*
X105113914Y-99573847D01*
X104865000Y-100174778D01*
X104865000Y-100825222D01*
X105020238Y-101200000D01*
X99979762Y-101200000D01*
X100135000Y-100825222D01*
X100135000Y-100174778D01*
X99886086Y-99573847D01*
X99426153Y-99113914D01*
X98825222Y-98865000D01*
X98174778Y-98865000D01*
X97573847Y-99113914D01*
X97172761Y-99515000D01*
X93327239Y-99515000D01*
X92926153Y-99113914D01*
X92325222Y-98865000D01*
X91674778Y-98865000D01*
X91073847Y-99113914D01*
X90613914Y-99573847D01*
X90365000Y-100174778D01*
X90365000Y-100825222D01*
X90520238Y-101200000D01*
X84979762Y-101200000D01*
X85135000Y-100825222D01*
X85135000Y-100174778D01*
X84886086Y-99573847D01*
X84426153Y-99113914D01*
X83825222Y-98865000D01*
X83174778Y-98865000D01*
X82573847Y-99113914D01*
X82172761Y-99515000D01*
X78327239Y-99515000D01*
X77926153Y-99113914D01*
X77325222Y-98865000D01*
X76674778Y-98865000D01*
X76073847Y-99113914D01*
X75613914Y-99573847D01*
X75365000Y-100174778D01*
X75365000Y-100825222D01*
X75613914Y-101426153D01*
X76073847Y-101886086D01*
X76674778Y-102135000D01*
X77325222Y-102135000D01*
X77926153Y-101886086D01*
X78327239Y-101485000D01*
X82172761Y-101485000D01*
X82573847Y-101886086D01*
X82679286Y-101929760D01*
X82679286Y-103605000D01*
X73425000Y-103605000D01*
X73425000Y-91688000D01*
X76015000Y-94278000D01*
X76015000Y-94672761D01*
X75613914Y-95073847D01*
X75365000Y-95674778D01*
X75365000Y-96325222D01*
X75613914Y-96926153D01*
X76073847Y-97386086D01*
X76674778Y-97635000D01*
X77325222Y-97635000D01*
X77926153Y-97386086D01*
X78327239Y-96985000D01*
X82172761Y-96985000D01*
X82573847Y-97386086D01*
X83174778Y-97635000D01*
X83825222Y-97635000D01*
X84426153Y-97386086D01*
X84827239Y-96985000D01*
X90672761Y-96985000D01*
X91073847Y-97386086D01*
X91674778Y-97635000D01*
X92325222Y-97635000D01*
X92926153Y-97386086D01*
X93327239Y-96985000D01*
X97172761Y-96985000D01*
X97573847Y-97386086D01*
X98174778Y-97635000D01*
X98825222Y-97635000D01*
X99426153Y-97386086D01*
X99827239Y-96985000D01*
X105172761Y-96985000D01*
X105573847Y-97386086D01*
X106174778Y-97635000D01*
X106825222Y-97635000D01*
X107426153Y-97386086D01*
X107827239Y-96985000D01*
X111672761Y-96985000D01*
X112073847Y-97386086D01*
X112674778Y-97635000D01*
X113325222Y-97635000D01*
X113926153Y-97386086D01*
X114386086Y-96926153D01*
X114635000Y-96325222D01*
X114635000Y-95674778D01*
X114386086Y-95073847D01*
X113926153Y-94613914D01*
X113325222Y-94365000D01*
X112674778Y-94365000D01*
X112073847Y-94613914D01*
X111672761Y-95015000D01*
X107827239Y-95015000D01*
X107426153Y-94613914D01*
X106825222Y-94365000D01*
X106174778Y-94365000D01*
X105573847Y-94613914D01*
X105172761Y-95015000D01*
X99827239Y-95015000D01*
X99426153Y-94613914D01*
X98825222Y-94365000D01*
X98174778Y-94365000D01*
X97573847Y-94613914D01*
X97172761Y-95015000D01*
X93327239Y-95015000D01*
X92926153Y-94613914D01*
X92325222Y-94365000D01*
X91674778Y-94365000D01*
X91073847Y-94613914D01*
X90672761Y-95015000D01*
X84827239Y-95015000D01*
X84426153Y-94613914D01*
X83825222Y-94365000D01*
X83174778Y-94365000D01*
X82573847Y-94613914D01*
X82172761Y-95015000D01*
X78327239Y-95015000D01*
X77985000Y-94672761D01*
X77985000Y-93967006D01*
X78004296Y-93869999D01*
X77985000Y-93772992D01*
X77985000Y-93772988D01*
X77927849Y-93485672D01*
X77710145Y-93159855D01*
X77627902Y-93104902D01*
X74918431Y-90395431D01*
X81155000Y-90395431D01*
X81155000Y-91284569D01*
X81495259Y-92106026D01*
X82123974Y-92734741D01*
X82945431Y-93075000D01*
X83834569Y-93075000D01*
X84656026Y-92734741D01*
X85284741Y-92106026D01*
X85625000Y-91284569D01*
X85625000Y-90395431D01*
X106145000Y-90395431D01*
X106145000Y-91284569D01*
X106485259Y-92106026D01*
X107113974Y-92734741D01*
X107935431Y-93075000D01*
X108824569Y-93075000D01*
X109646026Y-92734741D01*
X110274741Y-92106026D01*
X110615000Y-91284569D01*
X110615000Y-90395431D01*
X110274741Y-89573974D01*
X109646026Y-88945259D01*
X108824569Y-88605000D01*
X107935431Y-88605000D01*
X107113974Y-88945259D01*
X106485259Y-89573974D01*
X106145000Y-90395431D01*
X85625000Y-90395431D01*
X85284741Y-89573974D01*
X84656026Y-88945259D01*
X83834569Y-88605000D01*
X82945431Y-88605000D01*
X82123974Y-88945259D01*
X81495259Y-89573974D01*
X81155000Y-90395431D01*
X74918431Y-90395431D01*
X74325010Y-89802010D01*
X74325010Y-84174778D01*
X75365000Y-84174778D01*
X75365000Y-84825222D01*
X75613914Y-85426153D01*
X76073847Y-85886086D01*
X76674778Y-86135000D01*
X77325222Y-86135000D01*
X77926153Y-85886086D01*
X78327239Y-85485000D01*
X82172761Y-85485000D01*
X82573847Y-85886086D01*
X83174778Y-86135000D01*
X83825222Y-86135000D01*
X84426153Y-85886086D01*
X84886086Y-85426153D01*
X85135000Y-84825222D01*
X85135000Y-84174778D01*
X90365000Y-84174778D01*
X90365000Y-84825222D01*
X90613914Y-85426153D01*
X91073847Y-85886086D01*
X91674778Y-86135000D01*
X92325222Y-86135000D01*
X92926153Y-85886086D01*
X93327239Y-85485000D01*
X97172761Y-85485000D01*
X97573847Y-85886086D01*
X98174778Y-86135000D01*
X98825222Y-86135000D01*
X99426153Y-85886086D01*
X99886086Y-85426153D01*
X100135000Y-84825222D01*
X100135000Y-84174778D01*
X104865000Y-84174778D01*
X104865000Y-84825222D01*
X105113914Y-85426153D01*
X105573847Y-85886086D01*
X106174778Y-86135000D01*
X106825222Y-86135000D01*
X107426153Y-85886086D01*
X107827239Y-85485000D01*
X111672761Y-85485000D01*
X112073847Y-85886086D01*
X112674778Y-86135000D01*
X113325222Y-86135000D01*
X113926153Y-85886086D01*
X114386086Y-85426153D01*
X114635000Y-84825222D01*
X114635000Y-84174778D01*
X114386086Y-83573847D01*
X113926153Y-83113914D01*
X113325222Y-82865000D01*
X112674778Y-82865000D01*
X112073847Y-83113914D01*
X111672761Y-83515000D01*
X107827239Y-83515000D01*
X107426153Y-83113914D01*
X106825222Y-82865000D01*
X106174778Y-82865000D01*
X105573847Y-83113914D01*
X105113914Y-83573847D01*
X104865000Y-84174778D01*
X100135000Y-84174778D01*
X99886086Y-83573847D01*
X99426153Y-83113914D01*
X98825222Y-82865000D01*
X98174778Y-82865000D01*
X97573847Y-83113914D01*
X97172761Y-83515000D01*
X93327239Y-83515000D01*
X92926153Y-83113914D01*
X92325222Y-82865000D01*
X91674778Y-82865000D01*
X91073847Y-83113914D01*
X90613914Y-83573847D01*
X90365000Y-84174778D01*
X85135000Y-84174778D01*
X84886086Y-83573847D01*
X84426153Y-83113914D01*
X83825222Y-82865000D01*
X83174778Y-82865000D01*
X82573847Y-83113914D01*
X82172761Y-83515000D01*
X78327239Y-83515000D01*
X77926153Y-83113914D01*
X77325222Y-82865000D01*
X76674778Y-82865000D01*
X76073847Y-83113914D01*
X75613914Y-83573847D01*
X75365000Y-84174778D01*
X74325010Y-84174778D01*
X74325010Y-78718010D01*
X75365000Y-79758000D01*
X75365000Y-80325222D01*
X75613914Y-80926153D01*
X76073847Y-81386086D01*
X76674778Y-81635000D01*
X77325222Y-81635000D01*
X77926153Y-81386086D01*
X78327239Y-80985000D01*
X82172761Y-80985000D01*
X82573847Y-81386086D01*
X83174778Y-81635000D01*
X83825222Y-81635000D01*
X84426153Y-81386086D01*
X84827239Y-80985000D01*
X90672761Y-80985000D01*
X91073847Y-81386086D01*
X91674778Y-81635000D01*
X92325222Y-81635000D01*
X92926153Y-81386086D01*
X93327239Y-80985000D01*
X97172761Y-80985000D01*
X97573847Y-81386086D01*
X98174778Y-81635000D01*
X98825222Y-81635000D01*
X99426153Y-81386086D01*
X99827239Y-80985000D01*
X105172761Y-80985000D01*
X105573847Y-81386086D01*
X106174778Y-81635000D01*
X106825222Y-81635000D01*
X107426153Y-81386086D01*
X107827239Y-80985000D01*
X111672761Y-80985000D01*
X112073847Y-81386086D01*
X112674778Y-81635000D01*
X113325222Y-81635000D01*
X113926153Y-81386086D01*
X114386086Y-80926153D01*
X114635000Y-80325222D01*
X114635000Y-79674778D01*
X114386086Y-79073847D01*
X113926153Y-78613914D01*
X113325222Y-78365000D01*
X112674778Y-78365000D01*
X112073847Y-78613914D01*
X111672761Y-79015000D01*
X107827239Y-79015000D01*
X107426153Y-78613914D01*
X106825222Y-78365000D01*
X106174778Y-78365000D01*
X105573847Y-78613914D01*
X105172761Y-79015000D01*
X99827239Y-79015000D01*
X99426153Y-78613914D01*
X98825222Y-78365000D01*
X98174778Y-78365000D01*
X97573847Y-78613914D01*
X97172761Y-79015000D01*
X93327239Y-79015000D01*
X92926153Y-78613914D01*
X92325222Y-78365000D01*
X91674778Y-78365000D01*
X91073847Y-78613914D01*
X90672761Y-79015000D01*
X84827239Y-79015000D01*
X84426153Y-78613914D01*
X83825222Y-78365000D01*
X83174778Y-78365000D01*
X82573847Y-78613914D01*
X82172761Y-79015000D01*
X78327239Y-79015000D01*
X77926153Y-78613914D01*
X77325222Y-78365000D01*
X76758000Y-78365000D01*
X75285000Y-76892000D01*
X75285000Y-68174778D01*
X75365000Y-68174778D01*
X75365000Y-68825222D01*
X75613914Y-69426153D01*
X76073847Y-69886086D01*
X76674778Y-70135000D01*
X77325222Y-70135000D01*
X77926153Y-69886086D01*
X78327239Y-69485000D01*
X82172761Y-69485000D01*
X82573847Y-69886086D01*
X83174778Y-70135000D01*
X83825222Y-70135000D01*
X84426153Y-69886086D01*
X84886086Y-69426153D01*
X85135000Y-68825222D01*
X85135000Y-68174778D01*
X90365000Y-68174778D01*
X90365000Y-68825222D01*
X90613914Y-69426153D01*
X91073847Y-69886086D01*
X91674778Y-70135000D01*
X92325222Y-70135000D01*
X92926153Y-69886086D01*
X93327239Y-69485000D01*
X97172761Y-69485000D01*
X97573847Y-69886086D01*
X98174778Y-70135000D01*
X98825222Y-70135000D01*
X99426153Y-69886086D01*
X99886086Y-69426153D01*
X100135000Y-68825222D01*
X100135000Y-68174778D01*
X104865000Y-68174778D01*
X104865000Y-68825222D01*
X105113914Y-69426153D01*
X105573847Y-69886086D01*
X106174778Y-70135000D01*
X106825222Y-70135000D01*
X107426153Y-69886086D01*
X107827239Y-69485000D01*
X111672761Y-69485000D01*
X112073847Y-69886086D01*
X112674778Y-70135000D01*
X113325222Y-70135000D01*
X113926153Y-69886086D01*
X114386086Y-69426153D01*
X114635000Y-68825222D01*
X114635000Y-68174778D01*
X114386086Y-67573847D01*
X113926153Y-67113914D01*
X113325222Y-66865000D01*
X112674778Y-66865000D01*
X112073847Y-67113914D01*
X111672761Y-67515000D01*
X107827239Y-67515000D01*
X107426153Y-67113914D01*
X106825222Y-66865000D01*
X106174778Y-66865000D01*
X105573847Y-67113914D01*
X105113914Y-67573847D01*
X104865000Y-68174778D01*
X100135000Y-68174778D01*
X99886086Y-67573847D01*
X99426153Y-67113914D01*
X98825222Y-66865000D01*
X98174778Y-66865000D01*
X97573847Y-67113914D01*
X97172761Y-67515000D01*
X93327239Y-67515000D01*
X92926153Y-67113914D01*
X92325222Y-66865000D01*
X91674778Y-66865000D01*
X91073847Y-67113914D01*
X90613914Y-67573847D01*
X90365000Y-68174778D01*
X85135000Y-68174778D01*
X84886086Y-67573847D01*
X84426153Y-67113914D01*
X83825222Y-66865000D01*
X83174778Y-66865000D01*
X82573847Y-67113914D01*
X82172761Y-67515000D01*
X78327239Y-67515000D01*
X77926153Y-67113914D01*
X77325222Y-66865000D01*
X76674778Y-66865000D01*
X76073847Y-67113914D01*
X75613914Y-67573847D01*
X75365000Y-68174778D01*
X75285000Y-68174778D01*
X75285000Y-61768000D01*
X76015000Y-62498000D01*
X76015000Y-62672761D01*
X75613914Y-63073847D01*
X75365000Y-63674778D01*
X75365000Y-64325222D01*
X75613914Y-64926153D01*
X76073847Y-65386086D01*
X76674778Y-65635000D01*
X77325222Y-65635000D01*
X77926153Y-65386086D01*
X78327239Y-64985000D01*
X82172761Y-64985000D01*
X82573847Y-65386086D01*
X83174778Y-65635000D01*
X83825222Y-65635000D01*
X84426153Y-65386086D01*
X84827239Y-64985000D01*
X90672761Y-64985000D01*
X91073847Y-65386086D01*
X91674778Y-65635000D01*
X92325222Y-65635000D01*
X92926153Y-65386086D01*
X93327239Y-64985000D01*
X97172761Y-64985000D01*
X97573847Y-65386086D01*
X98174778Y-65635000D01*
X98825222Y-65635000D01*
X99426153Y-65386086D01*
X99827239Y-64985000D01*
X105172761Y-64985000D01*
X105573847Y-65386086D01*
X106174778Y-65635000D01*
X106825222Y-65635000D01*
X107426153Y-65386086D01*
X107827239Y-64985000D01*
X111672761Y-64985000D01*
X112073847Y-65386086D01*
X112674778Y-65635000D01*
X113325222Y-65635000D01*
X113926153Y-65386086D01*
X114386086Y-64926153D01*
X114635000Y-64325222D01*
X114635000Y-63674778D01*
X114386086Y-63073847D01*
X113926153Y-62613914D01*
X113325222Y-62365000D01*
X112674778Y-62365000D01*
X112073847Y-62613914D01*
X111672761Y-63015000D01*
X107827239Y-63015000D01*
X107426153Y-62613914D01*
X106825222Y-62365000D01*
X106174778Y-62365000D01*
X105573847Y-62613914D01*
X105172761Y-63015000D01*
X99827239Y-63015000D01*
X99426153Y-62613914D01*
X98825222Y-62365000D01*
X98174778Y-62365000D01*
X97573847Y-62613914D01*
X97172761Y-63015000D01*
X93327239Y-63015000D01*
X92926153Y-62613914D01*
X92325222Y-62365000D01*
X91674778Y-62365000D01*
X91073847Y-62613914D01*
X90672761Y-63015000D01*
X84827239Y-63015000D01*
X84426153Y-62613914D01*
X83825222Y-62365000D01*
X83174778Y-62365000D01*
X82573847Y-62613914D01*
X82172761Y-63015000D01*
X78327239Y-63015000D01*
X77985000Y-62672761D01*
X77985000Y-62187007D01*
X78004296Y-62089999D01*
X77985000Y-61992989D01*
X77985000Y-61992988D01*
X77927849Y-61705672D01*
X77710145Y-61379855D01*
X77627902Y-61324902D01*
X76285000Y-59982000D01*
X76285000Y-57805431D01*
X81155000Y-57805431D01*
X81155000Y-58694569D01*
X81495259Y-59516026D01*
X82123974Y-60144741D01*
X82945431Y-60485000D01*
X83834569Y-60485000D01*
X84656026Y-60144741D01*
X85284741Y-59516026D01*
X85625000Y-58694569D01*
X85625000Y-57885431D01*
X106145000Y-57885431D01*
X106145000Y-58774569D01*
X106485259Y-59596026D01*
X107113974Y-60224741D01*
X107935431Y-60565000D01*
X108824569Y-60565000D01*
X109646026Y-60224741D01*
X110274741Y-59596026D01*
X110615000Y-58774569D01*
X110615000Y-57885431D01*
X110274741Y-57063974D01*
X109646026Y-56435259D01*
X108824569Y-56095000D01*
X107935431Y-56095000D01*
X107113974Y-56435259D01*
X106485259Y-57063974D01*
X106145000Y-57885431D01*
X85625000Y-57885431D01*
X85625000Y-57805431D01*
X85284741Y-56983974D01*
X84656026Y-56355259D01*
X83834569Y-56015000D01*
X82945431Y-56015000D01*
X82123974Y-56355259D01*
X81495259Y-56983974D01*
X81155000Y-57805431D01*
X76285000Y-57805431D01*
X76285000Y-54973549D01*
X76674778Y-55135000D01*
X77325222Y-55135000D01*
X77926153Y-54886086D01*
X78327239Y-54485000D01*
X82172761Y-54485000D01*
X82573847Y-54886086D01*
X83174778Y-55135000D01*
X83825222Y-55135000D01*
X84426153Y-54886086D01*
X84886086Y-54426153D01*
X85135000Y-53825222D01*
X85135000Y-53174778D01*
X90365000Y-53174778D01*
X90365000Y-53825222D01*
X90613914Y-54426153D01*
X91073847Y-54886086D01*
X91674778Y-55135000D01*
X92325222Y-55135000D01*
X92926153Y-54886086D01*
X93327239Y-54485000D01*
X97172761Y-54485000D01*
X97573847Y-54886086D01*
X98174778Y-55135000D01*
X98825222Y-55135000D01*
X99426153Y-54886086D01*
X99886086Y-54426153D01*
X100135000Y-53825222D01*
X100135000Y-53174778D01*
X104365000Y-53174778D01*
X104365000Y-53825222D01*
X104613914Y-54426153D01*
X105073847Y-54886086D01*
X105674778Y-55135000D01*
X106325222Y-55135000D01*
X106926153Y-54886086D01*
X107327239Y-54485000D01*
X111172761Y-54485000D01*
X111573847Y-54886086D01*
X112174778Y-55135000D01*
X112825222Y-55135000D01*
X113426153Y-54886086D01*
X113886086Y-54426153D01*
X114135000Y-53825222D01*
X114135000Y-53174778D01*
X113886086Y-52573847D01*
X113426153Y-52113914D01*
X112825222Y-51865000D01*
X112174778Y-51865000D01*
X111573847Y-52113914D01*
X111172761Y-52515000D01*
X107327239Y-52515000D01*
X106926153Y-52113914D01*
X106325222Y-51865000D01*
X105674778Y-51865000D01*
X105073847Y-52113914D01*
X104613914Y-52573847D01*
X104365000Y-53174778D01*
X100135000Y-53174778D01*
X99886086Y-52573847D01*
X99426153Y-52113914D01*
X98825222Y-51865000D01*
X98174778Y-51865000D01*
X97573847Y-52113914D01*
X97172761Y-52515000D01*
X93327239Y-52515000D01*
X92926153Y-52113914D01*
X92325222Y-51865000D01*
X91674778Y-51865000D01*
X91073847Y-52113914D01*
X90613914Y-52573847D01*
X90365000Y-53174778D01*
X85135000Y-53174778D01*
X84886086Y-52573847D01*
X84426153Y-52113914D01*
X83825222Y-51865000D01*
X83174778Y-51865000D01*
X82573847Y-52113914D01*
X82172761Y-52515000D01*
X78327239Y-52515000D01*
X77926153Y-52113914D01*
X77325222Y-51865000D01*
X76674778Y-51865000D01*
X76285000Y-52026451D01*
X76285000Y-50677006D01*
X76304296Y-50579999D01*
X76285000Y-50482992D01*
X76285000Y-50482988D01*
X76282954Y-50472701D01*
X76674778Y-50635000D01*
X77325222Y-50635000D01*
X77926153Y-50386086D01*
X78386086Y-49926153D01*
X78635000Y-49325222D01*
X78635000Y-48674778D01*
X78412002Y-48136414D01*
X78412002Y-48016252D01*
X78570750Y-48175000D01*
X78711310Y-48175000D01*
X78944699Y-48078327D01*
X79123327Y-47899698D01*
X79220000Y-47666309D01*
X79220000Y-47075750D01*
X79061250Y-46917000D01*
X78412000Y-46917000D01*
X78412000Y-46937000D01*
X78158000Y-46937000D01*
X78158000Y-46917000D01*
X77142000Y-46917000D01*
X77142000Y-46937000D01*
X76888000Y-46937000D01*
X76888000Y-46917000D01*
X75872000Y-46917000D01*
X75872000Y-46937000D01*
X75618000Y-46937000D01*
X75618000Y-46917000D01*
X75598000Y-46917000D01*
X75598000Y-46663000D01*
X75618000Y-46663000D01*
X75618000Y-45563750D01*
X75872000Y-45563750D01*
X75872000Y-46663000D01*
X76888000Y-46663000D01*
X76888000Y-45563750D01*
X77142000Y-45563750D01*
X77142000Y-46663000D01*
X78158000Y-46663000D01*
X78158000Y-45563750D01*
X78412000Y-45563750D01*
X78412000Y-46663000D01*
X79061250Y-46663000D01*
X79220000Y-46504250D01*
X79220000Y-45913691D01*
X79123327Y-45680302D01*
X78944699Y-45501673D01*
X78711310Y-45405000D01*
X78570750Y-45405000D01*
X78412000Y-45563750D01*
X78158000Y-45563750D01*
X77999250Y-45405000D01*
X77858690Y-45405000D01*
X77650000Y-45491442D01*
X77441310Y-45405000D01*
X77300750Y-45405000D01*
X77142000Y-45563750D01*
X76888000Y-45563750D01*
X76729250Y-45405000D01*
X76588690Y-45405000D01*
X76380000Y-45491442D01*
X76171310Y-45405000D01*
X76030750Y-45405000D01*
X75872000Y-45563750D01*
X75618000Y-45563750D01*
X75459250Y-45405000D01*
X75318690Y-45405000D01*
X75101972Y-45494768D01*
X75022765Y-45441843D01*
X74775000Y-45392560D01*
X74175000Y-45392560D01*
X73927235Y-45441843D01*
X73840000Y-45500132D01*
X73752765Y-45441843D01*
X73505000Y-45392560D01*
X72905000Y-45392560D01*
X72657235Y-45441843D01*
X72570000Y-45500132D01*
X72482765Y-45441843D01*
X72235000Y-45392560D01*
X71635000Y-45392560D01*
X71387235Y-45441843D01*
X71300000Y-45500132D01*
X71212765Y-45441843D01*
X70965000Y-45392560D01*
X70365000Y-45392560D01*
X70117235Y-45441843D01*
X70038028Y-45494768D01*
X69821310Y-45405000D01*
X69680750Y-45405000D01*
X69522000Y-45563750D01*
X69522000Y-46663000D01*
X69542000Y-46663000D01*
X69542000Y-46917000D01*
X69522000Y-46917000D01*
X69522000Y-48016250D01*
X69680001Y-48174251D01*
X69680001Y-48617987D01*
X69660704Y-48715000D01*
X69737151Y-49099327D01*
X69899902Y-49342902D01*
X69899905Y-49342905D01*
X69954856Y-49425145D01*
X70037096Y-49480096D01*
X72355010Y-51798010D01*
X72355010Y-53335000D01*
X66425000Y-53335000D01*
X66425000Y-47075750D01*
X68460000Y-47075750D01*
X68460000Y-47666309D01*
X68556673Y-47899698D01*
X68735301Y-48078327D01*
X68968690Y-48175000D01*
X69109250Y-48175000D01*
X69268000Y-48016250D01*
X69268000Y-46917000D01*
X68618750Y-46917000D01*
X68460000Y-47075750D01*
X66425000Y-47075750D01*
X66425000Y-45913691D01*
X68460000Y-45913691D01*
X68460000Y-46504250D01*
X68618750Y-46663000D01*
X69268000Y-46663000D01*
X69268000Y-45563750D01*
X69109250Y-45405000D01*
X68968690Y-45405000D01*
X68735301Y-45501673D01*
X68556673Y-45680302D01*
X68460000Y-45913691D01*
X66425000Y-45913691D01*
X66425000Y-37075000D01*
X68447560Y-37075000D01*
X68447560Y-37204163D01*
X68447560Y-37204163D01*
G37*
X68447560Y-37204163D02*
X68410000Y-37392989D01*
X68410001Y-39930793D01*
X68390704Y-40027806D01*
X68415000Y-40149951D01*
X68415000Y-40572992D01*
X68395704Y-40670000D01*
X68415000Y-40767008D01*
X68415000Y-40767012D01*
X68428658Y-40835672D01*
X68472151Y-41054327D01*
X68634902Y-41297902D01*
X68634905Y-41297905D01*
X68689856Y-41380145D01*
X68772096Y-41435096D01*
X71664902Y-44327902D01*
X71719855Y-44410145D01*
X72045672Y-44627849D01*
X72332988Y-44685000D01*
X72332991Y-44685000D01*
X72429999Y-44704296D01*
X72527007Y-44685000D01*
X79602000Y-44685000D01*
X79854900Y-44937899D01*
X79909855Y-45020145D01*
X80235672Y-45237849D01*
X80522988Y-45295000D01*
X80522991Y-45295000D01*
X80619999Y-45314296D01*
X80717007Y-45295000D01*
X83662000Y-45295000D01*
X85245003Y-46878003D01*
X85245003Y-47465222D01*
X85472729Y-48015000D01*
X84827239Y-48015000D01*
X84426153Y-47613914D01*
X83825222Y-47365000D01*
X83174778Y-47365000D01*
X82573847Y-47613914D01*
X82113914Y-48073847D01*
X81865000Y-48674778D01*
X81865000Y-49325222D01*
X82113914Y-49926153D01*
X82573847Y-50386086D01*
X83174778Y-50635000D01*
X83825222Y-50635000D01*
X84426153Y-50386086D01*
X84827239Y-49985000D01*
X90672761Y-49985000D01*
X91073847Y-50386086D01*
X91674778Y-50635000D01*
X92325222Y-50635000D01*
X92926153Y-50386086D01*
X93327239Y-49985000D01*
X97172761Y-49985000D01*
X97573847Y-50386086D01*
X98174778Y-50635000D01*
X98825222Y-50635000D01*
X99426153Y-50386086D01*
X99827239Y-49985000D01*
X104672761Y-49985000D01*
X105073847Y-50386086D01*
X105674778Y-50635000D01*
X106325222Y-50635000D01*
X106926153Y-50386086D01*
X107327239Y-49985000D01*
X111172761Y-49985000D01*
X111573847Y-50386086D01*
X112174778Y-50635000D01*
X112825222Y-50635000D01*
X113426153Y-50386086D01*
X113886086Y-49926153D01*
X114135000Y-49325222D01*
X114135000Y-48674778D01*
X113886086Y-48073847D01*
X113426153Y-47613914D01*
X112825222Y-47365000D01*
X112174778Y-47365000D01*
X111573847Y-47613914D01*
X111172761Y-48015000D01*
X107327239Y-48015000D01*
X106926153Y-47613914D01*
X106325222Y-47365000D01*
X105674778Y-47365000D01*
X105073847Y-47613914D01*
X104672761Y-48015000D01*
X99827239Y-48015000D01*
X99426153Y-47613914D01*
X98825222Y-47365000D01*
X98174778Y-47365000D01*
X97573847Y-47613914D01*
X97172761Y-48015000D01*
X93327239Y-48015000D01*
X93176856Y-47864617D01*
X93656153Y-47666086D01*
X94116086Y-47206153D01*
X94365000Y-46605222D01*
X94365000Y-45954778D01*
X94116086Y-45353847D01*
X93947239Y-45185000D01*
X100645000Y-45185000D01*
X100645000Y-45235222D01*
X100893914Y-45836153D01*
X101353847Y-46296086D01*
X101954778Y-46545000D01*
X102605222Y-46545000D01*
X103206153Y-46296086D01*
X103666086Y-45836153D01*
X103915000Y-45235222D01*
X103915000Y-44584778D01*
X103666086Y-43983847D01*
X103257239Y-43575000D01*
X103858779Y-43575000D01*
X103955787Y-43594296D01*
X104045787Y-43576394D01*
X104135786Y-43594296D01*
X104232794Y-43575000D01*
X107846942Y-43575000D01*
X108030414Y-43849586D01*
X108321565Y-44044126D01*
X108665000Y-44112440D01*
X109415000Y-44112440D01*
X109758435Y-44044126D01*
X110049586Y-43849586D01*
X110244126Y-43558435D01*
X110312440Y-43215000D01*
X110312440Y-41965000D01*
X110244126Y-41621565D01*
X110049586Y-41330414D01*
X109758435Y-41135874D01*
X109415000Y-41067560D01*
X108665000Y-41067560D01*
X108321565Y-41135874D01*
X108030414Y-41330414D01*
X107846942Y-41605000D01*
X107109686Y-41605000D01*
X107248157Y-41397765D01*
X107297440Y-41150000D01*
X107297440Y-41022315D01*
X107540145Y-40860145D01*
X107595098Y-40777902D01*
X108012185Y-40360815D01*
X108271565Y-40534126D01*
X108615000Y-40602440D01*
X109365000Y-40602440D01*
X109708435Y-40534126D01*
X109999586Y-40339586D01*
X110194126Y-40048435D01*
X110262440Y-39705000D01*
X110262440Y-38455000D01*
X110244538Y-38365000D01*
X110535462Y-38365000D01*
X110517560Y-38455000D01*
X110517560Y-39705000D01*
X110585874Y-40048435D01*
X110780414Y-40339586D01*
X110805000Y-40356014D01*
X110805001Y-41368448D01*
X110635874Y-41621565D01*
X110567560Y-41965000D01*
X110567560Y-43215000D01*
X110635874Y-43558435D01*
X110830414Y-43849586D01*
X111121565Y-44044126D01*
X111465000Y-44112440D01*
X112215000Y-44112440D01*
X112558435Y-44044126D01*
X112849586Y-43849586D01*
X113044126Y-43558435D01*
X113112440Y-43215000D01*
X113112440Y-41965000D01*
X113044126Y-41621565D01*
X112849586Y-41330414D01*
X112775000Y-41280577D01*
X112775000Y-40356014D01*
X112799586Y-40339586D01*
X112994126Y-40048435D01*
X113062440Y-39705000D01*
X113062440Y-38455000D01*
X112994126Y-38111565D01*
X112799586Y-37820414D01*
X112728201Y-37772717D01*
X112717849Y-37720672D01*
X112627665Y-37585702D01*
X112555098Y-37477097D01*
X112555096Y-37477095D01*
X112500145Y-37394855D01*
X112417904Y-37339904D01*
X112153001Y-37075000D01*
X114955000Y-37075000D01*
X114955001Y-103605000D01*
X107320715Y-103605000D01*
X107320715Y-101929760D01*
X107426153Y-101886086D01*
X107827239Y-101485000D01*
X111672761Y-101485000D01*
X112073847Y-101886086D01*
X112674778Y-102135000D01*
X113325222Y-102135000D01*
X113926153Y-101886086D01*
X114386086Y-101426153D01*
X114635000Y-100825222D01*
X114635000Y-100174778D01*
X114386086Y-99573847D01*
X113926153Y-99113914D01*
X113325222Y-98865000D01*
X112674778Y-98865000D01*
X112073847Y-99113914D01*
X111672761Y-99515000D01*
X107827239Y-99515000D01*
X107426153Y-99113914D01*
X106825222Y-98865000D01*
X106174778Y-98865000D01*
X105573847Y-99113914D01*
X105113914Y-99573847D01*
X104865000Y-100174778D01*
X104865000Y-100825222D01*
X105020238Y-101200000D01*
X99979762Y-101200000D01*
X100135000Y-100825222D01*
X100135000Y-100174778D01*
X99886086Y-99573847D01*
X99426153Y-99113914D01*
X98825222Y-98865000D01*
X98174778Y-98865000D01*
X97573847Y-99113914D01*
X97172761Y-99515000D01*
X93327239Y-99515000D01*
X92926153Y-99113914D01*
X92325222Y-98865000D01*
X91674778Y-98865000D01*
X91073847Y-99113914D01*
X90613914Y-99573847D01*
X90365000Y-100174778D01*
X90365000Y-100825222D01*
X90520238Y-101200000D01*
X84979762Y-101200000D01*
X85135000Y-100825222D01*
X85135000Y-100174778D01*
X84886086Y-99573847D01*
X84426153Y-99113914D01*
X83825222Y-98865000D01*
X83174778Y-98865000D01*
X82573847Y-99113914D01*
X82172761Y-99515000D01*
X78327239Y-99515000D01*
X77926153Y-99113914D01*
X77325222Y-98865000D01*
X76674778Y-98865000D01*
X76073847Y-99113914D01*
X75613914Y-99573847D01*
X75365000Y-100174778D01*
X75365000Y-100825222D01*
X75613914Y-101426153D01*
X76073847Y-101886086D01*
X76674778Y-102135000D01*
X77325222Y-102135000D01*
X77926153Y-101886086D01*
X78327239Y-101485000D01*
X82172761Y-101485000D01*
X82573847Y-101886086D01*
X82679286Y-101929760D01*
X82679286Y-103605000D01*
X73425000Y-103605000D01*
X73425000Y-91688000D01*
X76015000Y-94278000D01*
X76015000Y-94672761D01*
X75613914Y-95073847D01*
X75365000Y-95674778D01*
X75365000Y-96325222D01*
X75613914Y-96926153D01*
X76073847Y-97386086D01*
X76674778Y-97635000D01*
X77325222Y-97635000D01*
X77926153Y-97386086D01*
X78327239Y-96985000D01*
X82172761Y-96985000D01*
X82573847Y-97386086D01*
X83174778Y-97635000D01*
X83825222Y-97635000D01*
X84426153Y-97386086D01*
X84827239Y-96985000D01*
X90672761Y-96985000D01*
X91073847Y-97386086D01*
X91674778Y-97635000D01*
X92325222Y-97635000D01*
X92926153Y-97386086D01*
X93327239Y-96985000D01*
X97172761Y-96985000D01*
X97573847Y-97386086D01*
X98174778Y-97635000D01*
X98825222Y-97635000D01*
X99426153Y-97386086D01*
X99827239Y-96985000D01*
X105172761Y-96985000D01*
X105573847Y-97386086D01*
X106174778Y-97635000D01*
X106825222Y-97635000D01*
X107426153Y-97386086D01*
X107827239Y-96985000D01*
X111672761Y-96985000D01*
X112073847Y-97386086D01*
X112674778Y-97635000D01*
X113325222Y-97635000D01*
X113926153Y-97386086D01*
X114386086Y-96926153D01*
X114635000Y-96325222D01*
X114635000Y-95674778D01*
X114386086Y-95073847D01*
X113926153Y-94613914D01*
X113325222Y-94365000D01*
X112674778Y-94365000D01*
X112073847Y-94613914D01*
X111672761Y-95015000D01*
X107827239Y-95015000D01*
X107426153Y-94613914D01*
X106825222Y-94365000D01*
X106174778Y-94365000D01*
X105573847Y-94613914D01*
X105172761Y-95015000D01*
X99827239Y-95015000D01*
X99426153Y-94613914D01*
X98825222Y-94365000D01*
X98174778Y-94365000D01*
X97573847Y-94613914D01*
X97172761Y-95015000D01*
X93327239Y-95015000D01*
X92926153Y-94613914D01*
X92325222Y-94365000D01*
X91674778Y-94365000D01*
X91073847Y-94613914D01*
X90672761Y-95015000D01*
X84827239Y-95015000D01*
X84426153Y-94613914D01*
X83825222Y-94365000D01*
X83174778Y-94365000D01*
X82573847Y-94613914D01*
X82172761Y-95015000D01*
X78327239Y-95015000D01*
X77985000Y-94672761D01*
X77985000Y-93967006D01*
X78004296Y-93869999D01*
X77985000Y-93772992D01*
X77985000Y-93772988D01*
X77927849Y-93485672D01*
X77710145Y-93159855D01*
X77627902Y-93104902D01*
X74918431Y-90395431D01*
X81155000Y-90395431D01*
X81155000Y-91284569D01*
X81495259Y-92106026D01*
X82123974Y-92734741D01*
X82945431Y-93075000D01*
X83834569Y-93075000D01*
X84656026Y-92734741D01*
X85284741Y-92106026D01*
X85625000Y-91284569D01*
X85625000Y-90395431D01*
X106145000Y-90395431D01*
X106145000Y-91284569D01*
X106485259Y-92106026D01*
X107113974Y-92734741D01*
X107935431Y-93075000D01*
X108824569Y-93075000D01*
X109646026Y-92734741D01*
X110274741Y-92106026D01*
X110615000Y-91284569D01*
X110615000Y-90395431D01*
X110274741Y-89573974D01*
X109646026Y-88945259D01*
X108824569Y-88605000D01*
X107935431Y-88605000D01*
X107113974Y-88945259D01*
X106485259Y-89573974D01*
X106145000Y-90395431D01*
X85625000Y-90395431D01*
X85284741Y-89573974D01*
X84656026Y-88945259D01*
X83834569Y-88605000D01*
X82945431Y-88605000D01*
X82123974Y-88945259D01*
X81495259Y-89573974D01*
X81155000Y-90395431D01*
X74918431Y-90395431D01*
X74325010Y-89802010D01*
X74325010Y-84174778D01*
X75365000Y-84174778D01*
X75365000Y-84825222D01*
X75613914Y-85426153D01*
X76073847Y-85886086D01*
X76674778Y-86135000D01*
X77325222Y-86135000D01*
X77926153Y-85886086D01*
X78327239Y-85485000D01*
X82172761Y-85485000D01*
X82573847Y-85886086D01*
X83174778Y-86135000D01*
X83825222Y-86135000D01*
X84426153Y-85886086D01*
X84886086Y-85426153D01*
X85135000Y-84825222D01*
X85135000Y-84174778D01*
X90365000Y-84174778D01*
X90365000Y-84825222D01*
X90613914Y-85426153D01*
X91073847Y-85886086D01*
X91674778Y-86135000D01*
X92325222Y-86135000D01*
X92926153Y-85886086D01*
X93327239Y-85485000D01*
X97172761Y-85485000D01*
X97573847Y-85886086D01*
X98174778Y-86135000D01*
X98825222Y-86135000D01*
X99426153Y-85886086D01*
X99886086Y-85426153D01*
X100135000Y-84825222D01*
X100135000Y-84174778D01*
X104865000Y-84174778D01*
X104865000Y-84825222D01*
X105113914Y-85426153D01*
X105573847Y-85886086D01*
X106174778Y-86135000D01*
X106825222Y-86135000D01*
X107426153Y-85886086D01*
X107827239Y-85485000D01*
X111672761Y-85485000D01*
X112073847Y-85886086D01*
X112674778Y-86135000D01*
X113325222Y-86135000D01*
X113926153Y-85886086D01*
X114386086Y-85426153D01*
X114635000Y-84825222D01*
X114635000Y-84174778D01*
X114386086Y-83573847D01*
X113926153Y-83113914D01*
X113325222Y-82865000D01*
X112674778Y-82865000D01*
X112073847Y-83113914D01*
X111672761Y-83515000D01*
X107827239Y-83515000D01*
X107426153Y-83113914D01*
X106825222Y-82865000D01*
X106174778Y-82865000D01*
X105573847Y-83113914D01*
X105113914Y-83573847D01*
X104865000Y-84174778D01*
X100135000Y-84174778D01*
X99886086Y-83573847D01*
X99426153Y-83113914D01*
X98825222Y-82865000D01*
X98174778Y-82865000D01*
X97573847Y-83113914D01*
X97172761Y-83515000D01*
X93327239Y-83515000D01*
X92926153Y-83113914D01*
X92325222Y-82865000D01*
X91674778Y-82865000D01*
X91073847Y-83113914D01*
X90613914Y-83573847D01*
X90365000Y-84174778D01*
X85135000Y-84174778D01*
X84886086Y-83573847D01*
X84426153Y-83113914D01*
X83825222Y-82865000D01*
X83174778Y-82865000D01*
X82573847Y-83113914D01*
X82172761Y-83515000D01*
X78327239Y-83515000D01*
X77926153Y-83113914D01*
X77325222Y-82865000D01*
X76674778Y-82865000D01*
X76073847Y-83113914D01*
X75613914Y-83573847D01*
X75365000Y-84174778D01*
X74325010Y-84174778D01*
X74325010Y-78718010D01*
X75365000Y-79758000D01*
X75365000Y-80325222D01*
X75613914Y-80926153D01*
X76073847Y-81386086D01*
X76674778Y-81635000D01*
X77325222Y-81635000D01*
X77926153Y-81386086D01*
X78327239Y-80985000D01*
X82172761Y-80985000D01*
X82573847Y-81386086D01*
X83174778Y-81635000D01*
X83825222Y-81635000D01*
X84426153Y-81386086D01*
X84827239Y-80985000D01*
X90672761Y-80985000D01*
X91073847Y-81386086D01*
X91674778Y-81635000D01*
X92325222Y-81635000D01*
X92926153Y-81386086D01*
X93327239Y-80985000D01*
X97172761Y-80985000D01*
X97573847Y-81386086D01*
X98174778Y-81635000D01*
X98825222Y-81635000D01*
X99426153Y-81386086D01*
X99827239Y-80985000D01*
X105172761Y-80985000D01*
X105573847Y-81386086D01*
X106174778Y-81635000D01*
X106825222Y-81635000D01*
X107426153Y-81386086D01*
X107827239Y-80985000D01*
X111672761Y-80985000D01*
X112073847Y-81386086D01*
X112674778Y-81635000D01*
X113325222Y-81635000D01*
X113926153Y-81386086D01*
X114386086Y-80926153D01*
X114635000Y-80325222D01*
X114635000Y-79674778D01*
X114386086Y-79073847D01*
X113926153Y-78613914D01*
X113325222Y-78365000D01*
X112674778Y-78365000D01*
X112073847Y-78613914D01*
X111672761Y-79015000D01*
X107827239Y-79015000D01*
X107426153Y-78613914D01*
X106825222Y-78365000D01*
X106174778Y-78365000D01*
X105573847Y-78613914D01*
X105172761Y-79015000D01*
X99827239Y-79015000D01*
X99426153Y-78613914D01*
X98825222Y-78365000D01*
X98174778Y-78365000D01*
X97573847Y-78613914D01*
X97172761Y-79015000D01*
X93327239Y-79015000D01*
X92926153Y-78613914D01*
X92325222Y-78365000D01*
X91674778Y-78365000D01*
X91073847Y-78613914D01*
X90672761Y-79015000D01*
X84827239Y-79015000D01*
X84426153Y-78613914D01*
X83825222Y-78365000D01*
X83174778Y-78365000D01*
X82573847Y-78613914D01*
X82172761Y-79015000D01*
X78327239Y-79015000D01*
X77926153Y-78613914D01*
X77325222Y-78365000D01*
X76758000Y-78365000D01*
X75285000Y-76892000D01*
X75285000Y-68174778D01*
X75365000Y-68174778D01*
X75365000Y-68825222D01*
X75613914Y-69426153D01*
X76073847Y-69886086D01*
X76674778Y-70135000D01*
X77325222Y-70135000D01*
X77926153Y-69886086D01*
X78327239Y-69485000D01*
X82172761Y-69485000D01*
X82573847Y-69886086D01*
X83174778Y-70135000D01*
X83825222Y-70135000D01*
X84426153Y-69886086D01*
X84886086Y-69426153D01*
X85135000Y-68825222D01*
X85135000Y-68174778D01*
X90365000Y-68174778D01*
X90365000Y-68825222D01*
X90613914Y-69426153D01*
X91073847Y-69886086D01*
X91674778Y-70135000D01*
X92325222Y-70135000D01*
X92926153Y-69886086D01*
X93327239Y-69485000D01*
X97172761Y-69485000D01*
X97573847Y-69886086D01*
X98174778Y-70135000D01*
X98825222Y-70135000D01*
X99426153Y-69886086D01*
X99886086Y-69426153D01*
X100135000Y-68825222D01*
X100135000Y-68174778D01*
X104865000Y-68174778D01*
X104865000Y-68825222D01*
X105113914Y-69426153D01*
X105573847Y-69886086D01*
X106174778Y-70135000D01*
X106825222Y-70135000D01*
X107426153Y-69886086D01*
X107827239Y-69485000D01*
X111672761Y-69485000D01*
X112073847Y-69886086D01*
X112674778Y-70135000D01*
X113325222Y-70135000D01*
X113926153Y-69886086D01*
X114386086Y-69426153D01*
X114635000Y-68825222D01*
X114635000Y-68174778D01*
X114386086Y-67573847D01*
X113926153Y-67113914D01*
X113325222Y-66865000D01*
X112674778Y-66865000D01*
X112073847Y-67113914D01*
X111672761Y-67515000D01*
X107827239Y-67515000D01*
X107426153Y-67113914D01*
X106825222Y-66865000D01*
X106174778Y-66865000D01*
X105573847Y-67113914D01*
X105113914Y-67573847D01*
X104865000Y-68174778D01*
X100135000Y-68174778D01*
X99886086Y-67573847D01*
X99426153Y-67113914D01*
X98825222Y-66865000D01*
X98174778Y-66865000D01*
X97573847Y-67113914D01*
X97172761Y-67515000D01*
X93327239Y-67515000D01*
X92926153Y-67113914D01*
X92325222Y-66865000D01*
X91674778Y-66865000D01*
X91073847Y-67113914D01*
X90613914Y-67573847D01*
X90365000Y-68174778D01*
X85135000Y-68174778D01*
X84886086Y-67573847D01*
X84426153Y-67113914D01*
X83825222Y-66865000D01*
X83174778Y-66865000D01*
X82573847Y-67113914D01*
X82172761Y-67515000D01*
X78327239Y-67515000D01*
X77926153Y-67113914D01*
X77325222Y-66865000D01*
X76674778Y-66865000D01*
X76073847Y-67113914D01*
X75613914Y-67573847D01*
X75365000Y-68174778D01*
X75285000Y-68174778D01*
X75285000Y-61768000D01*
X76015000Y-62498000D01*
X76015000Y-62672761D01*
X75613914Y-63073847D01*
X75365000Y-63674778D01*
X75365000Y-64325222D01*
X75613914Y-64926153D01*
X76073847Y-65386086D01*
X76674778Y-65635000D01*
X77325222Y-65635000D01*
X77926153Y-65386086D01*
X78327239Y-64985000D01*
X82172761Y-64985000D01*
X82573847Y-65386086D01*
X83174778Y-65635000D01*
X83825222Y-65635000D01*
X84426153Y-65386086D01*
X84827239Y-64985000D01*
X90672761Y-64985000D01*
X91073847Y-65386086D01*
X91674778Y-65635000D01*
X92325222Y-65635000D01*
X92926153Y-65386086D01*
X93327239Y-64985000D01*
X97172761Y-64985000D01*
X97573847Y-65386086D01*
X98174778Y-65635000D01*
X98825222Y-65635000D01*
X99426153Y-65386086D01*
X99827239Y-64985000D01*
X105172761Y-64985000D01*
X105573847Y-65386086D01*
X106174778Y-65635000D01*
X106825222Y-65635000D01*
X107426153Y-65386086D01*
X107827239Y-64985000D01*
X111672761Y-64985000D01*
X112073847Y-65386086D01*
X112674778Y-65635000D01*
X113325222Y-65635000D01*
X113926153Y-65386086D01*
X114386086Y-64926153D01*
X114635000Y-64325222D01*
X114635000Y-63674778D01*
X114386086Y-63073847D01*
X113926153Y-62613914D01*
X113325222Y-62365000D01*
X112674778Y-62365000D01*
X112073847Y-62613914D01*
X111672761Y-63015000D01*
X107827239Y-63015000D01*
X107426153Y-62613914D01*
X106825222Y-62365000D01*
X106174778Y-62365000D01*
X105573847Y-62613914D01*
X105172761Y-63015000D01*
X99827239Y-63015000D01*
X99426153Y-62613914D01*
X98825222Y-62365000D01*
X98174778Y-62365000D01*
X97573847Y-62613914D01*
X97172761Y-63015000D01*
X93327239Y-63015000D01*
X92926153Y-62613914D01*
X92325222Y-62365000D01*
X91674778Y-62365000D01*
X91073847Y-62613914D01*
X90672761Y-63015000D01*
X84827239Y-63015000D01*
X84426153Y-62613914D01*
X83825222Y-62365000D01*
X83174778Y-62365000D01*
X82573847Y-62613914D01*
X82172761Y-63015000D01*
X78327239Y-63015000D01*
X77985000Y-62672761D01*
X77985000Y-62187007D01*
X78004296Y-62089999D01*
X77985000Y-61992989D01*
X77985000Y-61992988D01*
X77927849Y-61705672D01*
X77710145Y-61379855D01*
X77627902Y-61324902D01*
X76285000Y-59982000D01*
X76285000Y-57805431D01*
X81155000Y-57805431D01*
X81155000Y-58694569D01*
X81495259Y-59516026D01*
X82123974Y-60144741D01*
X82945431Y-60485000D01*
X83834569Y-60485000D01*
X84656026Y-60144741D01*
X85284741Y-59516026D01*
X85625000Y-58694569D01*
X85625000Y-57885431D01*
X106145000Y-57885431D01*
X106145000Y-58774569D01*
X106485259Y-59596026D01*
X107113974Y-60224741D01*
X107935431Y-60565000D01*
X108824569Y-60565000D01*
X109646026Y-60224741D01*
X110274741Y-59596026D01*
X110615000Y-58774569D01*
X110615000Y-57885431D01*
X110274741Y-57063974D01*
X109646026Y-56435259D01*
X108824569Y-56095000D01*
X107935431Y-56095000D01*
X107113974Y-56435259D01*
X106485259Y-57063974D01*
X106145000Y-57885431D01*
X85625000Y-57885431D01*
X85625000Y-57805431D01*
X85284741Y-56983974D01*
X84656026Y-56355259D01*
X83834569Y-56015000D01*
X82945431Y-56015000D01*
X82123974Y-56355259D01*
X81495259Y-56983974D01*
X81155000Y-57805431D01*
X76285000Y-57805431D01*
X76285000Y-54973549D01*
X76674778Y-55135000D01*
X77325222Y-55135000D01*
X77926153Y-54886086D01*
X78327239Y-54485000D01*
X82172761Y-54485000D01*
X82573847Y-54886086D01*
X83174778Y-55135000D01*
X83825222Y-55135000D01*
X84426153Y-54886086D01*
X84886086Y-54426153D01*
X85135000Y-53825222D01*
X85135000Y-53174778D01*
X90365000Y-53174778D01*
X90365000Y-53825222D01*
X90613914Y-54426153D01*
X91073847Y-54886086D01*
X91674778Y-55135000D01*
X92325222Y-55135000D01*
X92926153Y-54886086D01*
X93327239Y-54485000D01*
X97172761Y-54485000D01*
X97573847Y-54886086D01*
X98174778Y-55135000D01*
X98825222Y-55135000D01*
X99426153Y-54886086D01*
X99886086Y-54426153D01*
X100135000Y-53825222D01*
X100135000Y-53174778D01*
X104365000Y-53174778D01*
X104365000Y-53825222D01*
X104613914Y-54426153D01*
X105073847Y-54886086D01*
X105674778Y-55135000D01*
X106325222Y-55135000D01*
X106926153Y-54886086D01*
X107327239Y-54485000D01*
X111172761Y-54485000D01*
X111573847Y-54886086D01*
X112174778Y-55135000D01*
X112825222Y-55135000D01*
X113426153Y-54886086D01*
X113886086Y-54426153D01*
X114135000Y-53825222D01*
X114135000Y-53174778D01*
X113886086Y-52573847D01*
X113426153Y-52113914D01*
X112825222Y-51865000D01*
X112174778Y-51865000D01*
X111573847Y-52113914D01*
X111172761Y-52515000D01*
X107327239Y-52515000D01*
X106926153Y-52113914D01*
X106325222Y-51865000D01*
X105674778Y-51865000D01*
X105073847Y-52113914D01*
X104613914Y-52573847D01*
X104365000Y-53174778D01*
X100135000Y-53174778D01*
X99886086Y-52573847D01*
X99426153Y-52113914D01*
X98825222Y-51865000D01*
X98174778Y-51865000D01*
X97573847Y-52113914D01*
X97172761Y-52515000D01*
X93327239Y-52515000D01*
X92926153Y-52113914D01*
X92325222Y-51865000D01*
X91674778Y-51865000D01*
X91073847Y-52113914D01*
X90613914Y-52573847D01*
X90365000Y-53174778D01*
X85135000Y-53174778D01*
X84886086Y-52573847D01*
X84426153Y-52113914D01*
X83825222Y-51865000D01*
X83174778Y-51865000D01*
X82573847Y-52113914D01*
X82172761Y-52515000D01*
X78327239Y-52515000D01*
X77926153Y-52113914D01*
X77325222Y-51865000D01*
X76674778Y-51865000D01*
X76285000Y-52026451D01*
X76285000Y-50677006D01*
X76304296Y-50579999D01*
X76285000Y-50482992D01*
X76285000Y-50482988D01*
X76282954Y-50472701D01*
X76674778Y-50635000D01*
X77325222Y-50635000D01*
X77926153Y-50386086D01*
X78386086Y-49926153D01*
X78635000Y-49325222D01*
X78635000Y-48674778D01*
X78412002Y-48136414D01*
X78412002Y-48016252D01*
X78570750Y-48175000D01*
X78711310Y-48175000D01*
X78944699Y-48078327D01*
X79123327Y-47899698D01*
X79220000Y-47666309D01*
X79220000Y-47075750D01*
X79061250Y-46917000D01*
X78412000Y-46917000D01*
X78412000Y-46937000D01*
X78158000Y-46937000D01*
X78158000Y-46917000D01*
X77142000Y-46917000D01*
X77142000Y-46937000D01*
X76888000Y-46937000D01*
X76888000Y-46917000D01*
X75872000Y-46917000D01*
X75872000Y-46937000D01*
X75618000Y-46937000D01*
X75618000Y-46917000D01*
X75598000Y-46917000D01*
X75598000Y-46663000D01*
X75618000Y-46663000D01*
X75618000Y-45563750D01*
X75872000Y-45563750D01*
X75872000Y-46663000D01*
X76888000Y-46663000D01*
X76888000Y-45563750D01*
X77142000Y-45563750D01*
X77142000Y-46663000D01*
X78158000Y-46663000D01*
X78158000Y-45563750D01*
X78412000Y-45563750D01*
X78412000Y-46663000D01*
X79061250Y-46663000D01*
X79220000Y-46504250D01*
X79220000Y-45913691D01*
X79123327Y-45680302D01*
X78944699Y-45501673D01*
X78711310Y-45405000D01*
X78570750Y-45405000D01*
X78412000Y-45563750D01*
X78158000Y-45563750D01*
X77999250Y-45405000D01*
X77858690Y-45405000D01*
X77650000Y-45491442D01*
X77441310Y-45405000D01*
X77300750Y-45405000D01*
X77142000Y-45563750D01*
X76888000Y-45563750D01*
X76729250Y-45405000D01*
X76588690Y-45405000D01*
X76380000Y-45491442D01*
X76171310Y-45405000D01*
X76030750Y-45405000D01*
X75872000Y-45563750D01*
X75618000Y-45563750D01*
X75459250Y-45405000D01*
X75318690Y-45405000D01*
X75101972Y-45494768D01*
X75022765Y-45441843D01*
X74775000Y-45392560D01*
X74175000Y-45392560D01*
X73927235Y-45441843D01*
X73840000Y-45500132D01*
X73752765Y-45441843D01*
X73505000Y-45392560D01*
X72905000Y-45392560D01*
X72657235Y-45441843D01*
X72570000Y-45500132D01*
X72482765Y-45441843D01*
X72235000Y-45392560D01*
X71635000Y-45392560D01*
X71387235Y-45441843D01*
X71300000Y-45500132D01*
X71212765Y-45441843D01*
X70965000Y-45392560D01*
X70365000Y-45392560D01*
X70117235Y-45441843D01*
X70038028Y-45494768D01*
X69821310Y-45405000D01*
X69680750Y-45405000D01*
X69522000Y-45563750D01*
X69522000Y-46663000D01*
X69542000Y-46663000D01*
X69542000Y-46917000D01*
X69522000Y-46917000D01*
X69522000Y-48016250D01*
X69680001Y-48174251D01*
X69680001Y-48617987D01*
X69660704Y-48715000D01*
X69737151Y-49099327D01*
X69899902Y-49342902D01*
X69899905Y-49342905D01*
X69954856Y-49425145D01*
X70037096Y-49480096D01*
X72355010Y-51798010D01*
X72355010Y-53335000D01*
X66425000Y-53335000D01*
X66425000Y-47075750D01*
X68460000Y-47075750D01*
X68460000Y-47666309D01*
X68556673Y-47899698D01*
X68735301Y-48078327D01*
X68968690Y-48175000D01*
X69109250Y-48175000D01*
X69268000Y-48016250D01*
X69268000Y-46917000D01*
X68618750Y-46917000D01*
X68460000Y-47075750D01*
X66425000Y-47075750D01*
X66425000Y-45913691D01*
X68460000Y-45913691D01*
X68460000Y-46504250D01*
X68618750Y-46663000D01*
X69268000Y-46663000D01*
X69268000Y-45563750D01*
X69109250Y-45405000D01*
X68968690Y-45405000D01*
X68735301Y-45501673D01*
X68556673Y-45680302D01*
X68460000Y-45913691D01*
X66425000Y-45913691D01*
X66425000Y-37075000D01*
X68447560Y-37075000D01*
X68447560Y-37204163D01*
G36*
X107189855Y-38369855D02*
X107134902Y-38452098D01*
X106980125Y-38606875D01*
X106897765Y-38551843D01*
X106650000Y-38502560D01*
X104650000Y-38502560D01*
X104402235Y-38551843D01*
X104192191Y-38692191D01*
X104093100Y-38840489D01*
X103747945Y-38609864D01*
X103271031Y-38515000D01*
X102948969Y-38515000D01*
X102472055Y-38609864D01*
X101931231Y-38971231D01*
X101840000Y-39107768D01*
X101748769Y-38971231D01*
X101207945Y-38609864D01*
X100731031Y-38515000D01*
X100408969Y-38515000D01*
X99932055Y-38609864D01*
X99391231Y-38971231D01*
X99300000Y-39107768D01*
X99208769Y-38971231D01*
X98667945Y-38609864D01*
X98191031Y-38515000D01*
X97868969Y-38515000D01*
X97392055Y-38609864D01*
X96851231Y-38971231D01*
X96760000Y-39107768D01*
X96668769Y-38971231D01*
X96127945Y-38609864D01*
X95651031Y-38515000D01*
X95328969Y-38515000D01*
X94852055Y-38609864D01*
X94311231Y-38971231D01*
X94206501Y-39127971D01*
X93805385Y-38756598D01*
X93330434Y-38559876D01*
X93077000Y-38679223D01*
X93077000Y-40023000D01*
X93097000Y-40023000D01*
X93097000Y-40277000D01*
X93077000Y-40277000D01*
X93077000Y-40297000D01*
X92823000Y-40297000D01*
X92823000Y-40277000D01*
X92803000Y-40277000D01*
X92803000Y-40023000D01*
X92823000Y-40023000D01*
X92823000Y-38679223D01*
X92569566Y-38559876D01*
X92094615Y-38756598D01*
X91693499Y-39127971D01*
X91588769Y-38971231D01*
X91047945Y-38609864D01*
X90571031Y-38515000D01*
X90248969Y-38515000D01*
X89772055Y-38609864D01*
X89231231Y-38971231D01*
X89140000Y-39107768D01*
X89048769Y-38971231D01*
X88855000Y-38841759D01*
X88855000Y-38598000D01*
X89088001Y-38365000D01*
X107197121Y-38365000D01*
X107189855Y-38369855D01*
X107189855Y-38369855D01*
G37*
X107189855Y-38369855D02*
X107134902Y-38452098D01*
X106980125Y-38606875D01*
X106897765Y-38551843D01*
X106650000Y-38502560D01*
X104650000Y-38502560D01*
X104402235Y-38551843D01*
X104192191Y-38692191D01*
X104093100Y-38840489D01*
X103747945Y-38609864D01*
X103271031Y-38515000D01*
X102948969Y-38515000D01*
X102472055Y-38609864D01*
X101931231Y-38971231D01*
X101840000Y-39107768D01*
X101748769Y-38971231D01*
X101207945Y-38609864D01*
X100731031Y-38515000D01*
X100408969Y-38515000D01*
X99932055Y-38609864D01*
X99391231Y-38971231D01*
X99300000Y-39107768D01*
X99208769Y-38971231D01*
X98667945Y-38609864D01*
X98191031Y-38515000D01*
X97868969Y-38515000D01*
X97392055Y-38609864D01*
X96851231Y-38971231D01*
X96760000Y-39107768D01*
X96668769Y-38971231D01*
X96127945Y-38609864D01*
X95651031Y-38515000D01*
X95328969Y-38515000D01*
X94852055Y-38609864D01*
X94311231Y-38971231D01*
X94206501Y-39127971D01*
X93805385Y-38756598D01*
X93330434Y-38559876D01*
X93077000Y-38679223D01*
X93077000Y-40023000D01*
X93097000Y-40023000D01*
X93097000Y-40277000D01*
X93077000Y-40277000D01*
X93077000Y-40297000D01*
X92823000Y-40297000D01*
X92823000Y-40277000D01*
X92803000Y-40277000D01*
X92803000Y-40023000D01*
X92823000Y-40023000D01*
X92823000Y-38679223D01*
X92569566Y-38559876D01*
X92094615Y-38756598D01*
X91693499Y-39127971D01*
X91588769Y-38971231D01*
X91047945Y-38609864D01*
X90571031Y-38515000D01*
X90248969Y-38515000D01*
X89772055Y-38609864D01*
X89231231Y-38971231D01*
X89140000Y-39107768D01*
X89048769Y-38971231D01*
X88855000Y-38841759D01*
X88855000Y-38598000D01*
X89088001Y-38365000D01*
X107197121Y-38365000D01*
X107189855Y-38369855D01*
G04 #@! TD*
M02*
