G04 #@! TF.GenerationSoftware,KiCad,Pcbnew,5.0.2+dfsg1-1*
G04 #@! TF.CreationDate,2021-09-16T10:52:53+05:30*
G04 #@! TF.ProjectId,KEYBORD_PCB_V1,4b455942-4f52-4445-9f50-43425f56312e,rev?*
G04 #@! TF.SameCoordinates,Original*
G04 #@! TF.FileFunction,Paste,Bot*
G04 #@! TF.FilePolarity,Positive*
%FSLAX46Y46*%
G04 Gerber Fmt 4.6, Leading zero omitted, Abs format (unit mm)*
G04 Created by KiCad (PCBNEW 5.0.2+dfsg1-1) date Thu 16 Sep 2021 10:52:53 AM IST*
%MOMM*%
%LPD*%
G01*
G04 APERTURE LIST*
%ADD10C,0.300000*%
%ADD11C,0.100000*%
%ADD12C,1.250000*%
%ADD13R,0.600000X1.500000*%
G04 APERTURE END LIST*
D10*
X120605487Y-64841547D02*
X120605487Y-64555832D01*
X120534059Y-64412975D01*
X120462630Y-64341547D01*
X120248344Y-64198689D01*
X119962630Y-64127261D01*
X119391201Y-64127261D01*
X119248344Y-64198689D01*
X119176916Y-64270118D01*
X119105487Y-64412975D01*
X119105487Y-64698689D01*
X119176916Y-64841547D01*
X119248344Y-64912975D01*
X119391201Y-64984404D01*
X119748344Y-64984404D01*
X119891201Y-64912975D01*
X119962630Y-64841547D01*
X120034059Y-64698689D01*
X120034059Y-64412975D01*
X119962630Y-64270118D01*
X119891201Y-64198689D01*
X119748344Y-64127261D01*
X119962630Y-65841547D02*
X120034059Y-65698689D01*
X120105487Y-65627261D01*
X120248344Y-65555832D01*
X120319773Y-65555832D01*
X120462630Y-65627261D01*
X120534059Y-65698689D01*
X120605487Y-65841547D01*
X120605487Y-66127261D01*
X120534059Y-66270118D01*
X120462630Y-66341547D01*
X120319773Y-66412975D01*
X120248344Y-66412975D01*
X120105487Y-66341547D01*
X120034059Y-66270118D01*
X119962630Y-66127261D01*
X119962630Y-65841547D01*
X119891201Y-65698689D01*
X119819773Y-65627261D01*
X119676916Y-65555832D01*
X119391201Y-65555832D01*
X119248344Y-65627261D01*
X119176916Y-65698689D01*
X119105487Y-65841547D01*
X119105487Y-66127261D01*
X119176916Y-66270118D01*
X119248344Y-66341547D01*
X119391201Y-66412975D01*
X119676916Y-66412975D01*
X119819773Y-66341547D01*
X119891201Y-66270118D01*
X119962630Y-66127261D01*
X119248344Y-67055832D02*
X119176916Y-67127261D01*
X119105487Y-67055832D01*
X119176916Y-66984404D01*
X119248344Y-67055832D01*
X119105487Y-67055832D01*
X120605487Y-68055832D02*
X120605487Y-68198689D01*
X120534059Y-68341547D01*
X120462630Y-68412975D01*
X120319773Y-68484404D01*
X120034059Y-68555832D01*
X119676916Y-68555832D01*
X119391201Y-68484404D01*
X119248344Y-68412975D01*
X119176916Y-68341547D01*
X119105487Y-68198689D01*
X119105487Y-68055832D01*
X119176916Y-67912975D01*
X119248344Y-67841547D01*
X119391201Y-67770118D01*
X119676916Y-67698689D01*
X120034059Y-67698689D01*
X120319773Y-67770118D01*
X120462630Y-67841547D01*
X120534059Y-67912975D01*
X120605487Y-68055832D01*
X120605487Y-69484404D02*
X120605487Y-69627261D01*
X120534059Y-69770118D01*
X120462630Y-69841547D01*
X120319773Y-69912975D01*
X120034059Y-69984404D01*
X119676916Y-69984404D01*
X119391201Y-69912975D01*
X119248344Y-69841547D01*
X119176916Y-69770118D01*
X119105487Y-69627261D01*
X119105487Y-69484404D01*
X119176916Y-69341547D01*
X119248344Y-69270118D01*
X119391201Y-69198689D01*
X119676916Y-69127261D01*
X120034059Y-69127261D01*
X120319773Y-69198689D01*
X120462630Y-69270118D01*
X120534059Y-69341547D01*
X120605487Y-69484404D01*
X120605487Y-70912975D02*
X120605487Y-71055832D01*
X120534059Y-71198689D01*
X120462630Y-71270118D01*
X120319773Y-71341547D01*
X120034059Y-71412975D01*
X119676916Y-71412975D01*
X119391201Y-71341547D01*
X119248344Y-71270118D01*
X119176916Y-71198689D01*
X119105487Y-71055832D01*
X119105487Y-70912975D01*
X119176916Y-70770118D01*
X119248344Y-70698689D01*
X119391201Y-70627261D01*
X119676916Y-70555832D01*
X120034059Y-70555832D01*
X120319773Y-70627261D01*
X120462630Y-70698689D01*
X120534059Y-70770118D01*
X120605487Y-70912975D01*
X119105487Y-73198689D02*
X120105487Y-73198689D01*
X119962630Y-73198689D02*
X120034059Y-73270118D01*
X120105487Y-73412975D01*
X120105487Y-73627261D01*
X120034059Y-73770118D01*
X119891201Y-73841547D01*
X119105487Y-73841547D01*
X119891201Y-73841547D02*
X120034059Y-73912975D01*
X120105487Y-74055832D01*
X120105487Y-74270118D01*
X120034059Y-74412975D01*
X119891201Y-74484404D01*
X119105487Y-74484404D01*
X119105487Y-75198689D02*
X120105487Y-75198689D01*
X119962630Y-75198689D02*
X120034059Y-75270118D01*
X120105487Y-75412975D01*
X120105487Y-75627261D01*
X120034059Y-75770118D01*
X119891201Y-75841547D01*
X119105487Y-75841547D01*
X119891201Y-75841547D02*
X120034059Y-75912975D01*
X120105487Y-76055832D01*
X120105487Y-76270118D01*
X120034059Y-76412975D01*
X119891201Y-76484404D01*
X119105487Y-76484404D01*
X117684059Y-36341547D02*
X117684059Y-104341547D01*
X115684059Y-36341547D02*
X118270480Y-36341547D01*
X115684059Y-104341547D02*
X118270480Y-104341547D01*
X117684059Y-104341547D02*
X117097638Y-103215043D01*
X117684059Y-104341547D02*
X118270480Y-103215043D01*
X117684059Y-36341547D02*
X117097638Y-37468051D01*
X117684059Y-36341547D02*
X118270480Y-37468051D01*
X85261428Y-31418571D02*
X84547142Y-31418571D01*
X84475714Y-32132857D01*
X84547142Y-32061428D01*
X84690000Y-31990000D01*
X85047142Y-31990000D01*
X85190000Y-32061428D01*
X85261428Y-32132857D01*
X85332857Y-32275714D01*
X85332857Y-32632857D01*
X85261428Y-32775714D01*
X85190000Y-32847142D01*
X85047142Y-32918571D01*
X84690000Y-32918571D01*
X84547142Y-32847142D01*
X84475714Y-32775714D01*
X86261428Y-31418571D02*
X86404285Y-31418571D01*
X86547142Y-31490000D01*
X86618571Y-31561428D01*
X86690000Y-31704285D01*
X86761428Y-31990000D01*
X86761428Y-32347142D01*
X86690000Y-32632857D01*
X86618571Y-32775714D01*
X86547142Y-32847142D01*
X86404285Y-32918571D01*
X86261428Y-32918571D01*
X86118571Y-32847142D01*
X86047142Y-32775714D01*
X85975714Y-32632857D01*
X85904285Y-32347142D01*
X85904285Y-31990000D01*
X85975714Y-31704285D01*
X86047142Y-31561428D01*
X86118571Y-31490000D01*
X86261428Y-31418571D01*
X87404285Y-32775714D02*
X87475714Y-32847142D01*
X87404285Y-32918571D01*
X87332857Y-32847142D01*
X87404285Y-32775714D01*
X87404285Y-32918571D01*
X88404285Y-31418571D02*
X88547142Y-31418571D01*
X88690000Y-31490000D01*
X88761428Y-31561428D01*
X88832857Y-31704285D01*
X88904285Y-31990000D01*
X88904285Y-32347142D01*
X88832857Y-32632857D01*
X88761428Y-32775714D01*
X88690000Y-32847142D01*
X88547142Y-32918571D01*
X88404285Y-32918571D01*
X88261428Y-32847142D01*
X88190000Y-32775714D01*
X88118571Y-32632857D01*
X88047142Y-32347142D01*
X88047142Y-31990000D01*
X88118571Y-31704285D01*
X88190000Y-31561428D01*
X88261428Y-31490000D01*
X88404285Y-31418571D01*
X89832857Y-31418571D02*
X89975714Y-31418571D01*
X90118571Y-31490000D01*
X90190000Y-31561428D01*
X90261428Y-31704285D01*
X90332857Y-31990000D01*
X90332857Y-32347142D01*
X90261428Y-32632857D01*
X90190000Y-32775714D01*
X90118571Y-32847142D01*
X89975714Y-32918571D01*
X89832857Y-32918571D01*
X89690000Y-32847142D01*
X89618571Y-32775714D01*
X89547142Y-32632857D01*
X89475714Y-32347142D01*
X89475714Y-31990000D01*
X89547142Y-31704285D01*
X89618571Y-31561428D01*
X89690000Y-31490000D01*
X89832857Y-31418571D01*
X91261428Y-31418571D02*
X91404285Y-31418571D01*
X91547142Y-31490000D01*
X91618571Y-31561428D01*
X91690000Y-31704285D01*
X91761428Y-31990000D01*
X91761428Y-32347142D01*
X91690000Y-32632857D01*
X91618571Y-32775714D01*
X91547142Y-32847142D01*
X91404285Y-32918571D01*
X91261428Y-32918571D01*
X91118571Y-32847142D01*
X91047142Y-32775714D01*
X90975714Y-32632857D01*
X90904285Y-32347142D01*
X90904285Y-31990000D01*
X90975714Y-31704285D01*
X91047142Y-31561428D01*
X91118571Y-31490000D01*
X91261428Y-31418571D01*
X93547142Y-32918571D02*
X93547142Y-31918571D01*
X93547142Y-32061428D02*
X93618571Y-31990000D01*
X93761428Y-31918571D01*
X93975714Y-31918571D01*
X94118571Y-31990000D01*
X94190000Y-32132857D01*
X94190000Y-32918571D01*
X94190000Y-32132857D02*
X94261428Y-31990000D01*
X94404285Y-31918571D01*
X94618571Y-31918571D01*
X94761428Y-31990000D01*
X94832857Y-32132857D01*
X94832857Y-32918571D01*
X95547142Y-32918571D02*
X95547142Y-31918571D01*
X95547142Y-32061428D02*
X95618571Y-31990000D01*
X95761428Y-31918571D01*
X95975714Y-31918571D01*
X96118571Y-31990000D01*
X96190000Y-32132857D01*
X96190000Y-32918571D01*
X96190000Y-32132857D02*
X96261428Y-31990000D01*
X96404285Y-31918571D01*
X96618571Y-31918571D01*
X96761428Y-31990000D01*
X96832857Y-32132857D01*
X96832857Y-32918571D01*
X65690000Y-34340000D02*
X115690000Y-34340000D01*
X65690000Y-36340000D02*
X65690000Y-33753579D01*
X115690000Y-36340000D02*
X115690000Y-33753579D01*
X115690000Y-34340000D02*
X114563496Y-34926421D01*
X115690000Y-34340000D02*
X114563496Y-33753579D01*
X65690000Y-34340000D02*
X66816504Y-34926421D01*
X65690000Y-34340000D02*
X66816504Y-33753579D01*
D11*
G04 #@! TO.C,R2*
G36*
X109439504Y-41716204D02*
X109463773Y-41719804D01*
X109487571Y-41725765D01*
X109510671Y-41734030D01*
X109532849Y-41744520D01*
X109553893Y-41757133D01*
X109573598Y-41771747D01*
X109591777Y-41788223D01*
X109608253Y-41806402D01*
X109622867Y-41826107D01*
X109635480Y-41847151D01*
X109645970Y-41869329D01*
X109654235Y-41892429D01*
X109660196Y-41916227D01*
X109663796Y-41940496D01*
X109665000Y-41965000D01*
X109665000Y-43215000D01*
X109663796Y-43239504D01*
X109660196Y-43263773D01*
X109654235Y-43287571D01*
X109645970Y-43310671D01*
X109635480Y-43332849D01*
X109622867Y-43353893D01*
X109608253Y-43373598D01*
X109591777Y-43391777D01*
X109573598Y-43408253D01*
X109553893Y-43422867D01*
X109532849Y-43435480D01*
X109510671Y-43445970D01*
X109487571Y-43454235D01*
X109463773Y-43460196D01*
X109439504Y-43463796D01*
X109415000Y-43465000D01*
X108665000Y-43465000D01*
X108640496Y-43463796D01*
X108616227Y-43460196D01*
X108592429Y-43454235D01*
X108569329Y-43445970D01*
X108547151Y-43435480D01*
X108526107Y-43422867D01*
X108506402Y-43408253D01*
X108488223Y-43391777D01*
X108471747Y-43373598D01*
X108457133Y-43353893D01*
X108444520Y-43332849D01*
X108434030Y-43310671D01*
X108425765Y-43287571D01*
X108419804Y-43263773D01*
X108416204Y-43239504D01*
X108415000Y-43215000D01*
X108415000Y-41965000D01*
X108416204Y-41940496D01*
X108419804Y-41916227D01*
X108425765Y-41892429D01*
X108434030Y-41869329D01*
X108444520Y-41847151D01*
X108457133Y-41826107D01*
X108471747Y-41806402D01*
X108488223Y-41788223D01*
X108506402Y-41771747D01*
X108526107Y-41757133D01*
X108547151Y-41744520D01*
X108569329Y-41734030D01*
X108592429Y-41725765D01*
X108616227Y-41719804D01*
X108640496Y-41716204D01*
X108665000Y-41715000D01*
X109415000Y-41715000D01*
X109439504Y-41716204D01*
X109439504Y-41716204D01*
G37*
D12*
X109040000Y-42590000D03*
D11*
G36*
X112239504Y-41716204D02*
X112263773Y-41719804D01*
X112287571Y-41725765D01*
X112310671Y-41734030D01*
X112332849Y-41744520D01*
X112353893Y-41757133D01*
X112373598Y-41771747D01*
X112391777Y-41788223D01*
X112408253Y-41806402D01*
X112422867Y-41826107D01*
X112435480Y-41847151D01*
X112445970Y-41869329D01*
X112454235Y-41892429D01*
X112460196Y-41916227D01*
X112463796Y-41940496D01*
X112465000Y-41965000D01*
X112465000Y-43215000D01*
X112463796Y-43239504D01*
X112460196Y-43263773D01*
X112454235Y-43287571D01*
X112445970Y-43310671D01*
X112435480Y-43332849D01*
X112422867Y-43353893D01*
X112408253Y-43373598D01*
X112391777Y-43391777D01*
X112373598Y-43408253D01*
X112353893Y-43422867D01*
X112332849Y-43435480D01*
X112310671Y-43445970D01*
X112287571Y-43454235D01*
X112263773Y-43460196D01*
X112239504Y-43463796D01*
X112215000Y-43465000D01*
X111465000Y-43465000D01*
X111440496Y-43463796D01*
X111416227Y-43460196D01*
X111392429Y-43454235D01*
X111369329Y-43445970D01*
X111347151Y-43435480D01*
X111326107Y-43422867D01*
X111306402Y-43408253D01*
X111288223Y-43391777D01*
X111271747Y-43373598D01*
X111257133Y-43353893D01*
X111244520Y-43332849D01*
X111234030Y-43310671D01*
X111225765Y-43287571D01*
X111219804Y-43263773D01*
X111216204Y-43239504D01*
X111215000Y-43215000D01*
X111215000Y-41965000D01*
X111216204Y-41940496D01*
X111219804Y-41916227D01*
X111225765Y-41892429D01*
X111234030Y-41869329D01*
X111244520Y-41847151D01*
X111257133Y-41826107D01*
X111271747Y-41806402D01*
X111288223Y-41788223D01*
X111306402Y-41771747D01*
X111326107Y-41757133D01*
X111347151Y-41744520D01*
X111369329Y-41734030D01*
X111392429Y-41725765D01*
X111416227Y-41719804D01*
X111440496Y-41716204D01*
X111465000Y-41715000D01*
X112215000Y-41715000D01*
X112239504Y-41716204D01*
X112239504Y-41716204D01*
G37*
D12*
X111840000Y-42590000D03*
G04 #@! TD*
D11*
G04 #@! TO.C,R1*
G36*
X109389504Y-38206204D02*
X109413773Y-38209804D01*
X109437571Y-38215765D01*
X109460671Y-38224030D01*
X109482849Y-38234520D01*
X109503893Y-38247133D01*
X109523598Y-38261747D01*
X109541777Y-38278223D01*
X109558253Y-38296402D01*
X109572867Y-38316107D01*
X109585480Y-38337151D01*
X109595970Y-38359329D01*
X109604235Y-38382429D01*
X109610196Y-38406227D01*
X109613796Y-38430496D01*
X109615000Y-38455000D01*
X109615000Y-39705000D01*
X109613796Y-39729504D01*
X109610196Y-39753773D01*
X109604235Y-39777571D01*
X109595970Y-39800671D01*
X109585480Y-39822849D01*
X109572867Y-39843893D01*
X109558253Y-39863598D01*
X109541777Y-39881777D01*
X109523598Y-39898253D01*
X109503893Y-39912867D01*
X109482849Y-39925480D01*
X109460671Y-39935970D01*
X109437571Y-39944235D01*
X109413773Y-39950196D01*
X109389504Y-39953796D01*
X109365000Y-39955000D01*
X108615000Y-39955000D01*
X108590496Y-39953796D01*
X108566227Y-39950196D01*
X108542429Y-39944235D01*
X108519329Y-39935970D01*
X108497151Y-39925480D01*
X108476107Y-39912867D01*
X108456402Y-39898253D01*
X108438223Y-39881777D01*
X108421747Y-39863598D01*
X108407133Y-39843893D01*
X108394520Y-39822849D01*
X108384030Y-39800671D01*
X108375765Y-39777571D01*
X108369804Y-39753773D01*
X108366204Y-39729504D01*
X108365000Y-39705000D01*
X108365000Y-38455000D01*
X108366204Y-38430496D01*
X108369804Y-38406227D01*
X108375765Y-38382429D01*
X108384030Y-38359329D01*
X108394520Y-38337151D01*
X108407133Y-38316107D01*
X108421747Y-38296402D01*
X108438223Y-38278223D01*
X108456402Y-38261747D01*
X108476107Y-38247133D01*
X108497151Y-38234520D01*
X108519329Y-38224030D01*
X108542429Y-38215765D01*
X108566227Y-38209804D01*
X108590496Y-38206204D01*
X108615000Y-38205000D01*
X109365000Y-38205000D01*
X109389504Y-38206204D01*
X109389504Y-38206204D01*
G37*
D12*
X108990000Y-39080000D03*
D11*
G36*
X112189504Y-38206204D02*
X112213773Y-38209804D01*
X112237571Y-38215765D01*
X112260671Y-38224030D01*
X112282849Y-38234520D01*
X112303893Y-38247133D01*
X112323598Y-38261747D01*
X112341777Y-38278223D01*
X112358253Y-38296402D01*
X112372867Y-38316107D01*
X112385480Y-38337151D01*
X112395970Y-38359329D01*
X112404235Y-38382429D01*
X112410196Y-38406227D01*
X112413796Y-38430496D01*
X112415000Y-38455000D01*
X112415000Y-39705000D01*
X112413796Y-39729504D01*
X112410196Y-39753773D01*
X112404235Y-39777571D01*
X112395970Y-39800671D01*
X112385480Y-39822849D01*
X112372867Y-39843893D01*
X112358253Y-39863598D01*
X112341777Y-39881777D01*
X112323598Y-39898253D01*
X112303893Y-39912867D01*
X112282849Y-39925480D01*
X112260671Y-39935970D01*
X112237571Y-39944235D01*
X112213773Y-39950196D01*
X112189504Y-39953796D01*
X112165000Y-39955000D01*
X111415000Y-39955000D01*
X111390496Y-39953796D01*
X111366227Y-39950196D01*
X111342429Y-39944235D01*
X111319329Y-39935970D01*
X111297151Y-39925480D01*
X111276107Y-39912867D01*
X111256402Y-39898253D01*
X111238223Y-39881777D01*
X111221747Y-39863598D01*
X111207133Y-39843893D01*
X111194520Y-39822849D01*
X111184030Y-39800671D01*
X111175765Y-39777571D01*
X111169804Y-39753773D01*
X111166204Y-39729504D01*
X111165000Y-39705000D01*
X111165000Y-38455000D01*
X111166204Y-38430496D01*
X111169804Y-38406227D01*
X111175765Y-38382429D01*
X111184030Y-38359329D01*
X111194520Y-38337151D01*
X111207133Y-38316107D01*
X111221747Y-38296402D01*
X111238223Y-38278223D01*
X111256402Y-38261747D01*
X111276107Y-38247133D01*
X111297151Y-38234520D01*
X111319329Y-38224030D01*
X111342429Y-38215765D01*
X111366227Y-38209804D01*
X111390496Y-38206204D01*
X111415000Y-38205000D01*
X112165000Y-38205000D01*
X112189504Y-38206204D01*
X112189504Y-38206204D01*
G37*
D12*
X111790000Y-39080000D03*
G04 #@! TD*
D13*
G04 #@! TO.C,U1*
X78285000Y-46790000D03*
X77015000Y-46790000D03*
X75745000Y-46790000D03*
X74475000Y-46790000D03*
X73205000Y-46790000D03*
X71935000Y-46790000D03*
X70665000Y-46790000D03*
X69395000Y-46790000D03*
X69395000Y-37490000D03*
X70665000Y-37490000D03*
X71935000Y-37490000D03*
X73205000Y-37490000D03*
X74475000Y-37490000D03*
X75745000Y-37490000D03*
X77015000Y-37490000D03*
X78285000Y-37490000D03*
G04 #@! TD*
M02*
