G04 #@! TF.GenerationSoftware,KiCad,Pcbnew,5.0.2+dfsg1-1*
G04 #@! TF.CreationDate,2021-09-16T10:52:53+05:30*
G04 #@! TF.ProjectId,KEYBORD_PCB_V1,4b455942-4f52-4445-9f50-43425f56312e,rev?*
G04 #@! TF.SameCoordinates,Original*
G04 #@! TF.FileFunction,Copper,L1,Top*
G04 #@! TF.FilePolarity,Positive*
%FSLAX46Y46*%
G04 Gerber Fmt 4.6, Leading zero omitted, Abs format (unit mm)*
G04 Created by KiCad (PCBNEW 5.0.2+dfsg1-1) date Thu 16 Sep 2021 10:52:53 AM IST*
%MOMM*%
%LPD*%
G01*
G04 APERTURE LIST*
G04 #@! TA.AperFunction,NonConductor*
%ADD10C,0.300000*%
G04 #@! TD*
G04 #@! TA.AperFunction,ComponentPad*
%ADD11O,2.000000X2.000000*%
G04 #@! TD*
G04 #@! TA.AperFunction,ComponentPad*
%ADD12R,2.000000X2.000000*%
G04 #@! TD*
G04 #@! TA.AperFunction,ComponentPad*
%ADD13C,2.000000*%
G04 #@! TD*
G04 #@! TA.AperFunction,ViaPad*
%ADD14C,2.000000*%
G04 #@! TD*
G04 #@! TA.AperFunction,Conductor*
%ADD15C,0.700000*%
G04 #@! TD*
G04 #@! TA.AperFunction,Conductor*
%ADD16C,0.254000*%
G04 #@! TD*
G04 APERTURE END LIST*
D10*
X83821428Y-103678571D02*
X83821428Y-102178571D01*
X84678571Y-103678571D02*
X84035714Y-102821428D01*
X84678571Y-102178571D02*
X83821428Y-103035714D01*
X85607142Y-102178571D02*
X85892857Y-102178571D01*
X86035714Y-102250000D01*
X86178571Y-102392857D01*
X86250000Y-102678571D01*
X86250000Y-103178571D01*
X86178571Y-103464285D01*
X86035714Y-103607142D01*
X85892857Y-103678571D01*
X85607142Y-103678571D01*
X85464285Y-103607142D01*
X85321428Y-103464285D01*
X85250000Y-103178571D01*
X85250000Y-102678571D01*
X85321428Y-102392857D01*
X85464285Y-102250000D01*
X85607142Y-102178571D01*
X86892857Y-103107142D02*
X88035714Y-103107142D01*
X88678571Y-103250000D02*
X89392857Y-103250000D01*
X88535714Y-103678571D02*
X89035714Y-102178571D01*
X89535714Y-103678571D01*
X89964285Y-103250000D02*
X90678571Y-103250000D01*
X89821428Y-103678571D02*
X90321428Y-102178571D01*
X90821428Y-103678571D01*
X91321428Y-103678571D02*
X91321428Y-102178571D01*
X91321428Y-102892857D02*
X92178571Y-102892857D01*
X92178571Y-103678571D02*
X92178571Y-102178571D01*
X92821428Y-103250000D02*
X93535714Y-103250000D01*
X92678571Y-103678571D02*
X93178571Y-102178571D01*
X93678571Y-103678571D01*
X94178571Y-103678571D02*
X94178571Y-102178571D01*
X94678571Y-103250000D01*
X95178571Y-102178571D01*
X95178571Y-103678571D01*
X95535714Y-103821428D02*
X96678571Y-103821428D01*
X97035714Y-103678571D02*
X97035714Y-102178571D01*
X97892857Y-103678571D02*
X97250000Y-102821428D01*
X97892857Y-102178571D02*
X97035714Y-103035714D01*
X99035714Y-102892857D02*
X99250000Y-102964285D01*
X99321428Y-103035714D01*
X99392857Y-103178571D01*
X99392857Y-103392857D01*
X99321428Y-103535714D01*
X99250000Y-103607142D01*
X99107142Y-103678571D01*
X98535714Y-103678571D01*
X98535714Y-102178571D01*
X99035714Y-102178571D01*
X99178571Y-102250000D01*
X99250000Y-102321428D01*
X99321428Y-102464285D01*
X99321428Y-102607142D01*
X99250000Y-102750000D01*
X99178571Y-102821428D01*
X99035714Y-102892857D01*
X98535714Y-102892857D01*
X100892857Y-103678571D02*
X100392857Y-102964285D01*
X100035714Y-103678571D02*
X100035714Y-102178571D01*
X100607142Y-102178571D01*
X100750000Y-102250000D01*
X100821428Y-102321428D01*
X100892857Y-102464285D01*
X100892857Y-102678571D01*
X100821428Y-102821428D01*
X100750000Y-102892857D01*
X100607142Y-102964285D01*
X100035714Y-102964285D01*
X101535714Y-103678571D02*
X101535714Y-102178571D01*
X101892857Y-102178571D01*
X102107142Y-102250000D01*
X102250000Y-102392857D01*
X102321428Y-102535714D01*
X102392857Y-102821428D01*
X102392857Y-103035714D01*
X102321428Y-103321428D01*
X102250000Y-103464285D01*
X102107142Y-103607142D01*
X101892857Y-103678571D01*
X101535714Y-103678571D01*
X102678571Y-103821428D02*
X103821428Y-103821428D01*
X103964285Y-102178571D02*
X104464285Y-103678571D01*
X104964285Y-102178571D01*
X106250000Y-103678571D02*
X105392857Y-103678571D01*
X105821428Y-103678571D02*
X105821428Y-102178571D01*
X105678571Y-102392857D01*
X105535714Y-102535714D01*
X105392857Y-102607142D01*
D11*
G04 #@! TO.P,J1,8*
G04 #@! TO.N,+3V3*
X87870000Y-40150000D03*
G04 #@! TO.P,J1,7*
G04 #@! TO.N,Net-(J1-Pad7)*
X90410000Y-40150000D03*
G04 #@! TO.P,J1,6*
G04 #@! TO.N,GND*
X92950000Y-40150000D03*
G04 #@! TO.P,J1,5*
G04 #@! TO.N,Net-(J1-Pad5)*
X95490000Y-40150000D03*
G04 #@! TO.P,J1,4*
G04 #@! TO.N,Net-(J1-Pad4)*
X98030000Y-40150000D03*
G04 #@! TO.P,J1,3*
G04 #@! TO.N,Net-(J1-Pad3)*
X100570000Y-40150000D03*
G04 #@! TO.P,J1,2*
G04 #@! TO.N,SDA*
X103110000Y-40150000D03*
D12*
G04 #@! TO.P,J1,1*
G04 #@! TO.N,SCL*
X105650000Y-40150000D03*
G04 #@! TD*
D13*
G04 #@! TO.P,SW1,2*
G04 #@! TO.N,C1*
X77000000Y-53500000D03*
G04 #@! TO.P,SW1,1*
G04 #@! TO.N,R1*
X77000000Y-49000000D03*
G04 #@! TO.P,SW1,2*
G04 #@! TO.N,C1*
X83500000Y-53500000D03*
G04 #@! TO.P,SW1,1*
G04 #@! TO.N,R1*
X83500000Y-49000000D03*
G04 #@! TD*
G04 #@! TO.P,SW2,1*
G04 #@! TO.N,R2*
X83500000Y-64000000D03*
G04 #@! TO.P,SW2,2*
G04 #@! TO.N,C1*
X83500000Y-68500000D03*
G04 #@! TO.P,SW2,1*
G04 #@! TO.N,R2*
X77000000Y-64000000D03*
G04 #@! TO.P,SW2,2*
G04 #@! TO.N,C1*
X77000000Y-68500000D03*
G04 #@! TD*
G04 #@! TO.P,SW3,1*
G04 #@! TO.N,R3*
X83500000Y-80000000D03*
G04 #@! TO.P,SW3,2*
G04 #@! TO.N,C1*
X83500000Y-84500000D03*
G04 #@! TO.P,SW3,1*
G04 #@! TO.N,R3*
X77000000Y-80000000D03*
G04 #@! TO.P,SW3,2*
G04 #@! TO.N,C1*
X77000000Y-84500000D03*
G04 #@! TD*
G04 #@! TO.P,SW4,2*
G04 #@! TO.N,C1*
X77000000Y-100500000D03*
G04 #@! TO.P,SW4,1*
G04 #@! TO.N,R4*
X77000000Y-96000000D03*
G04 #@! TO.P,SW4,2*
G04 #@! TO.N,C1*
X83500000Y-100500000D03*
G04 #@! TO.P,SW4,1*
G04 #@! TO.N,R4*
X83500000Y-96000000D03*
G04 #@! TD*
G04 #@! TO.P,SW5,1*
G04 #@! TO.N,R1*
X98500000Y-49000000D03*
G04 #@! TO.P,SW5,2*
G04 #@! TO.N,C2*
X98500000Y-53500000D03*
G04 #@! TO.P,SW5,1*
G04 #@! TO.N,R1*
X92000000Y-49000000D03*
G04 #@! TO.P,SW5,2*
G04 #@! TO.N,C2*
X92000000Y-53500000D03*
G04 #@! TD*
G04 #@! TO.P,SW6,1*
G04 #@! TO.N,R2*
X98500000Y-64000000D03*
G04 #@! TO.P,SW6,2*
G04 #@! TO.N,C2*
X98500000Y-68500000D03*
G04 #@! TO.P,SW6,1*
G04 #@! TO.N,R2*
X92000000Y-64000000D03*
G04 #@! TO.P,SW6,2*
G04 #@! TO.N,C2*
X92000000Y-68500000D03*
G04 #@! TD*
G04 #@! TO.P,SW7,2*
G04 #@! TO.N,C2*
X92000000Y-84500000D03*
G04 #@! TO.P,SW7,1*
G04 #@! TO.N,R3*
X92000000Y-80000000D03*
G04 #@! TO.P,SW7,2*
G04 #@! TO.N,C2*
X98500000Y-84500000D03*
G04 #@! TO.P,SW7,1*
G04 #@! TO.N,R3*
X98500000Y-80000000D03*
G04 #@! TD*
G04 #@! TO.P,SW8,1*
G04 #@! TO.N,R4*
X98500000Y-96000000D03*
G04 #@! TO.P,SW8,2*
G04 #@! TO.N,C2*
X98500000Y-100500000D03*
G04 #@! TO.P,SW8,1*
G04 #@! TO.N,R4*
X92000000Y-96000000D03*
G04 #@! TO.P,SW8,2*
G04 #@! TO.N,C2*
X92000000Y-100500000D03*
G04 #@! TD*
G04 #@! TO.P,SW9,2*
G04 #@! TO.N,C3*
X106000000Y-53500000D03*
G04 #@! TO.P,SW9,1*
G04 #@! TO.N,R1*
X106000000Y-49000000D03*
G04 #@! TO.P,SW9,2*
G04 #@! TO.N,C3*
X112500000Y-53500000D03*
G04 #@! TO.P,SW9,1*
G04 #@! TO.N,R1*
X112500000Y-49000000D03*
G04 #@! TD*
G04 #@! TO.P,SW10,2*
G04 #@! TO.N,C3*
X106500000Y-68500000D03*
G04 #@! TO.P,SW10,1*
G04 #@! TO.N,R2*
X106500000Y-64000000D03*
G04 #@! TO.P,SW10,2*
G04 #@! TO.N,C3*
X113000000Y-68500000D03*
G04 #@! TO.P,SW10,1*
G04 #@! TO.N,R2*
X113000000Y-64000000D03*
G04 #@! TD*
G04 #@! TO.P,SW11,2*
G04 #@! TO.N,C3*
X106500000Y-84500000D03*
G04 #@! TO.P,SW11,1*
G04 #@! TO.N,R3*
X106500000Y-80000000D03*
G04 #@! TO.P,SW11,2*
G04 #@! TO.N,C3*
X113000000Y-84500000D03*
G04 #@! TO.P,SW11,1*
G04 #@! TO.N,R3*
X113000000Y-80000000D03*
G04 #@! TD*
G04 #@! TO.P,SW12,1*
G04 #@! TO.N,R4*
X113000000Y-96000000D03*
G04 #@! TO.P,SW12,2*
G04 #@! TO.N,C3*
X113000000Y-100500000D03*
G04 #@! TO.P,SW12,1*
G04 #@! TO.N,R4*
X106500000Y-96000000D03*
G04 #@! TO.P,SW12,2*
G04 #@! TO.N,C3*
X106500000Y-100500000D03*
G04 #@! TD*
D14*
G04 #@! TO.N,GND*
X66990010Y-38360000D03*
X81970000Y-46140000D03*
G04 #@! TO.N,C1*
X86880003Y-47140000D03*
G04 #@! TO.N,C2*
X92730000Y-46280000D03*
G04 #@! TO.N,C3*
X102280000Y-44910000D03*
G04 #@! TO.N,SCL*
X83200024Y-40140000D03*
G04 #@! TD*
D15*
G04 #@! TO.N,R1*
X83500000Y-49000000D02*
X77000000Y-49000000D01*
G04 #@! TO.N,GND*
X66990010Y-38360000D02*
X74190000Y-38360000D01*
X74190000Y-38360000D02*
X80970001Y-45140001D01*
X80970001Y-45140001D02*
X81970000Y-46140000D01*
X85454213Y-44070000D02*
X83384213Y-46140000D01*
X91110000Y-44070000D02*
X85454213Y-44070000D01*
X83384213Y-46140000D02*
X81970000Y-46140000D01*
X92950000Y-40150000D02*
X92950000Y-42230000D01*
X92950000Y-42230000D02*
X91110000Y-44070000D01*
G04 #@! TO.N,C1*
X87040000Y-52530000D02*
X86070000Y-53500000D01*
X86880003Y-47140000D02*
X87040000Y-47299997D01*
X86070000Y-53500000D02*
X83500000Y-53500000D01*
X87040000Y-47299997D02*
X87040000Y-52530000D01*
X77999999Y-67500001D02*
X77000000Y-68500000D01*
X78680000Y-66820000D02*
X77999999Y-67500001D01*
X78680000Y-55180000D02*
X78680000Y-66820000D01*
X77000000Y-53500000D02*
X78680000Y-55180000D01*
X78720000Y-82780000D02*
X77000000Y-84500000D01*
X78720000Y-70190000D02*
X78720000Y-82780000D01*
X77040000Y-68510000D02*
X78720000Y-70190000D01*
X78730000Y-86160000D02*
X78730000Y-98750000D01*
X78730000Y-98750000D02*
X77010000Y-100470000D01*
X77050000Y-84480000D02*
X78730000Y-86160000D01*
G04 #@! TO.N,C2*
X93710000Y-55180000D02*
X93710000Y-66820000D01*
X93029999Y-67500001D02*
X92030000Y-68500000D01*
X93710000Y-66820000D02*
X93029999Y-67500001D01*
X92030000Y-53500000D02*
X93710000Y-55180000D01*
X93750000Y-86180000D02*
X93750000Y-98770000D01*
X92070000Y-84500000D02*
X93750000Y-86180000D01*
X93750000Y-98770000D02*
X92030000Y-100490000D01*
X94144213Y-46280000D02*
X95450000Y-47585787D01*
X92730000Y-46280000D02*
X94144213Y-46280000D01*
X95450000Y-47585787D02*
X95450000Y-51820000D01*
X93770000Y-53500000D02*
X92000000Y-53500000D01*
X95450000Y-51820000D02*
X93770000Y-53500000D01*
X93720000Y-82800000D02*
X92000000Y-84520000D01*
X93720000Y-70210000D02*
X93720000Y-82800000D01*
X92040000Y-68530000D02*
X93720000Y-70210000D01*
G04 #@! TO.N,C3*
X104680000Y-86250000D02*
X106400000Y-84530000D01*
X106360000Y-100520000D02*
X104680000Y-98840000D01*
X104680000Y-98840000D02*
X104680000Y-86250000D01*
X104730000Y-70250000D02*
X106450000Y-68530000D01*
X104730000Y-82840000D02*
X104730000Y-70250000D01*
X106410000Y-84520000D02*
X104730000Y-82840000D01*
X106450000Y-68450000D02*
X104770000Y-66770000D01*
X105450001Y-54449999D02*
X106450000Y-53450000D01*
X104770000Y-66770000D02*
X104770000Y-55130000D01*
X104770000Y-55130000D02*
X105450001Y-54449999D01*
X104330000Y-53500000D02*
X106000000Y-53500000D01*
X102270000Y-51440000D02*
X104330000Y-53500000D01*
X102270000Y-46334213D02*
X102270000Y-51440000D01*
X102280000Y-44910000D02*
X102280000Y-46324213D01*
X102280000Y-46324213D02*
X102270000Y-46334213D01*
G04 #@! TO.N,SCL*
X105650000Y-40150000D02*
X105650000Y-38450000D01*
X86130024Y-37210000D02*
X84200023Y-39140001D01*
X105650000Y-38450000D02*
X104410000Y-37210000D01*
X104410000Y-37210000D02*
X86130024Y-37210000D01*
X84200023Y-39140001D02*
X83200024Y-40140000D01*
G04 #@! TD*
D16*
G04 #@! TO.N,GND*
G36*
X83572120Y-38374904D02*
X83442024Y-38505000D01*
X82874802Y-38505000D01*
X82273871Y-38753914D01*
X81813938Y-39213847D01*
X81565024Y-39814778D01*
X81565024Y-40465222D01*
X81813938Y-41066153D01*
X82273871Y-41526086D01*
X82874802Y-41775000D01*
X83525246Y-41775000D01*
X84126177Y-41526086D01*
X84586110Y-41066153D01*
X84835024Y-40465222D01*
X84835024Y-40150000D01*
X86202969Y-40150000D01*
X86329864Y-40787945D01*
X86691231Y-41328769D01*
X87232055Y-41690136D01*
X87708969Y-41785000D01*
X88031031Y-41785000D01*
X88507945Y-41690136D01*
X89048769Y-41328769D01*
X89140000Y-41192232D01*
X89231231Y-41328769D01*
X89772055Y-41690136D01*
X90248969Y-41785000D01*
X90571031Y-41785000D01*
X91047945Y-41690136D01*
X91588769Y-41328769D01*
X91693499Y-41172029D01*
X92094615Y-41543402D01*
X92569566Y-41740124D01*
X92823000Y-41620777D01*
X92823000Y-40277000D01*
X92803000Y-40277000D01*
X92803000Y-40023000D01*
X92823000Y-40023000D01*
X92823000Y-38679223D01*
X92569566Y-38559876D01*
X92094615Y-38756598D01*
X91693499Y-39127971D01*
X91588769Y-38971231D01*
X91047945Y-38609864D01*
X90571031Y-38515000D01*
X90248969Y-38515000D01*
X89772055Y-38609864D01*
X89231231Y-38971231D01*
X89140000Y-39107768D01*
X89048769Y-38971231D01*
X88507945Y-38609864D01*
X88031031Y-38515000D01*
X87708969Y-38515000D01*
X87232055Y-38609864D01*
X86691231Y-38971231D01*
X86329864Y-39512055D01*
X86202969Y-40150000D01*
X84835024Y-40150000D01*
X84835024Y-39898000D01*
X84965120Y-39767904D01*
X86538025Y-38195000D01*
X104002000Y-38195000D01*
X104376223Y-38569224D01*
X104192191Y-38692191D01*
X104093100Y-38840489D01*
X103747945Y-38609864D01*
X103271031Y-38515000D01*
X102948969Y-38515000D01*
X102472055Y-38609864D01*
X101931231Y-38971231D01*
X101840000Y-39107768D01*
X101748769Y-38971231D01*
X101207945Y-38609864D01*
X100731031Y-38515000D01*
X100408969Y-38515000D01*
X99932055Y-38609864D01*
X99391231Y-38971231D01*
X99300000Y-39107768D01*
X99208769Y-38971231D01*
X98667945Y-38609864D01*
X98191031Y-38515000D01*
X97868969Y-38515000D01*
X97392055Y-38609864D01*
X96851231Y-38971231D01*
X96760000Y-39107768D01*
X96668769Y-38971231D01*
X96127945Y-38609864D01*
X95651031Y-38515000D01*
X95328969Y-38515000D01*
X94852055Y-38609864D01*
X94311231Y-38971231D01*
X94206501Y-39127971D01*
X93805385Y-38756598D01*
X93330434Y-38559876D01*
X93077000Y-38679223D01*
X93077000Y-40023000D01*
X93097000Y-40023000D01*
X93097000Y-40277000D01*
X93077000Y-40277000D01*
X93077000Y-41620777D01*
X93330434Y-41740124D01*
X93805385Y-41543402D01*
X94206501Y-41172029D01*
X94311231Y-41328769D01*
X94852055Y-41690136D01*
X95328969Y-41785000D01*
X95651031Y-41785000D01*
X96127945Y-41690136D01*
X96668769Y-41328769D01*
X96760000Y-41192232D01*
X96851231Y-41328769D01*
X97392055Y-41690136D01*
X97868969Y-41785000D01*
X98191031Y-41785000D01*
X98667945Y-41690136D01*
X99208769Y-41328769D01*
X99300000Y-41192232D01*
X99391231Y-41328769D01*
X99932055Y-41690136D01*
X100408969Y-41785000D01*
X100731031Y-41785000D01*
X101207945Y-41690136D01*
X101748769Y-41328769D01*
X101840000Y-41192232D01*
X101931231Y-41328769D01*
X102472055Y-41690136D01*
X102948969Y-41785000D01*
X103271031Y-41785000D01*
X103747945Y-41690136D01*
X104093100Y-41459511D01*
X104192191Y-41607809D01*
X104402235Y-41748157D01*
X104650000Y-41797440D01*
X106650000Y-41797440D01*
X106897765Y-41748157D01*
X107107809Y-41607809D01*
X107248157Y-41397765D01*
X107297440Y-41150000D01*
X107297440Y-39150000D01*
X107248157Y-38902235D01*
X107107809Y-38692191D01*
X106897765Y-38551843D01*
X106650000Y-38502560D01*
X106643841Y-38502560D01*
X106654296Y-38450000D01*
X106635000Y-38352992D01*
X106635000Y-38352988D01*
X106577849Y-38065672D01*
X106425659Y-37837903D01*
X106415098Y-37822097D01*
X106415096Y-37822095D01*
X106360145Y-37739855D01*
X106277905Y-37684904D01*
X105668000Y-37075000D01*
X114955000Y-37075000D01*
X114955001Y-103605000D01*
X107320715Y-103605000D01*
X107320715Y-101929760D01*
X107426153Y-101886086D01*
X107886086Y-101426153D01*
X108135000Y-100825222D01*
X108135000Y-100174778D01*
X111365000Y-100174778D01*
X111365000Y-100825222D01*
X111613914Y-101426153D01*
X112073847Y-101886086D01*
X112674778Y-102135000D01*
X113325222Y-102135000D01*
X113926153Y-101886086D01*
X114386086Y-101426153D01*
X114635000Y-100825222D01*
X114635000Y-100174778D01*
X114386086Y-99573847D01*
X113926153Y-99113914D01*
X113325222Y-98865000D01*
X112674778Y-98865000D01*
X112073847Y-99113914D01*
X111613914Y-99573847D01*
X111365000Y-100174778D01*
X108135000Y-100174778D01*
X107886086Y-99573847D01*
X107426153Y-99113914D01*
X106825222Y-98865000D01*
X106174778Y-98865000D01*
X106120488Y-98887488D01*
X105665000Y-98432000D01*
X105665000Y-97423843D01*
X106174778Y-97635000D01*
X106825222Y-97635000D01*
X107426153Y-97386086D01*
X107886086Y-96926153D01*
X108135000Y-96325222D01*
X108135000Y-95674778D01*
X111365000Y-95674778D01*
X111365000Y-96325222D01*
X111613914Y-96926153D01*
X112073847Y-97386086D01*
X112674778Y-97635000D01*
X113325222Y-97635000D01*
X113926153Y-97386086D01*
X114386086Y-96926153D01*
X114635000Y-96325222D01*
X114635000Y-95674778D01*
X114386086Y-95073847D01*
X113926153Y-94613914D01*
X113325222Y-94365000D01*
X112674778Y-94365000D01*
X112073847Y-94613914D01*
X111613914Y-95073847D01*
X111365000Y-95674778D01*
X108135000Y-95674778D01*
X107886086Y-95073847D01*
X107426153Y-94613914D01*
X106825222Y-94365000D01*
X106174778Y-94365000D01*
X105665000Y-94576157D01*
X105665000Y-90395431D01*
X106145000Y-90395431D01*
X106145000Y-91284569D01*
X106485259Y-92106026D01*
X107113974Y-92734741D01*
X107935431Y-93075000D01*
X108824569Y-93075000D01*
X109646026Y-92734741D01*
X110274741Y-92106026D01*
X110615000Y-91284569D01*
X110615000Y-90395431D01*
X110274741Y-89573974D01*
X109646026Y-88945259D01*
X108824569Y-88605000D01*
X107935431Y-88605000D01*
X107113974Y-88945259D01*
X106485259Y-89573974D01*
X106145000Y-90395431D01*
X105665000Y-90395431D01*
X105665000Y-86658000D01*
X106188000Y-86135000D01*
X106825222Y-86135000D01*
X107426153Y-85886086D01*
X107886086Y-85426153D01*
X108135000Y-84825222D01*
X108135000Y-84174778D01*
X111365000Y-84174778D01*
X111365000Y-84825222D01*
X111613914Y-85426153D01*
X112073847Y-85886086D01*
X112674778Y-86135000D01*
X113325222Y-86135000D01*
X113926153Y-85886086D01*
X114386086Y-85426153D01*
X114635000Y-84825222D01*
X114635000Y-84174778D01*
X114386086Y-83573847D01*
X113926153Y-83113914D01*
X113325222Y-82865000D01*
X112674778Y-82865000D01*
X112073847Y-83113914D01*
X111613914Y-83573847D01*
X111365000Y-84174778D01*
X108135000Y-84174778D01*
X107886086Y-83573847D01*
X107426153Y-83113914D01*
X106825222Y-82865000D01*
X106174778Y-82865000D01*
X106155843Y-82872843D01*
X105715000Y-82432000D01*
X105715000Y-81444554D01*
X106174778Y-81635000D01*
X106825222Y-81635000D01*
X107426153Y-81386086D01*
X107886086Y-80926153D01*
X108135000Y-80325222D01*
X108135000Y-79674778D01*
X111365000Y-79674778D01*
X111365000Y-80325222D01*
X111613914Y-80926153D01*
X112073847Y-81386086D01*
X112674778Y-81635000D01*
X113325222Y-81635000D01*
X113926153Y-81386086D01*
X114386086Y-80926153D01*
X114635000Y-80325222D01*
X114635000Y-79674778D01*
X114386086Y-79073847D01*
X113926153Y-78613914D01*
X113325222Y-78365000D01*
X112674778Y-78365000D01*
X112073847Y-78613914D01*
X111613914Y-79073847D01*
X111365000Y-79674778D01*
X108135000Y-79674778D01*
X107886086Y-79073847D01*
X107426153Y-78613914D01*
X106825222Y-78365000D01*
X106174778Y-78365000D01*
X105715000Y-78555446D01*
X105715000Y-70658000D01*
X106238000Y-70135000D01*
X106825222Y-70135000D01*
X107426153Y-69886086D01*
X107886086Y-69426153D01*
X108135000Y-68825222D01*
X108135000Y-68174778D01*
X111365000Y-68174778D01*
X111365000Y-68825222D01*
X111613914Y-69426153D01*
X112073847Y-69886086D01*
X112674778Y-70135000D01*
X113325222Y-70135000D01*
X113926153Y-69886086D01*
X114386086Y-69426153D01*
X114635000Y-68825222D01*
X114635000Y-68174778D01*
X114386086Y-67573847D01*
X113926153Y-67113914D01*
X113325222Y-66865000D01*
X112674778Y-66865000D01*
X112073847Y-67113914D01*
X111613914Y-67573847D01*
X111365000Y-68174778D01*
X108135000Y-68174778D01*
X107886086Y-67573847D01*
X107426153Y-67113914D01*
X106825222Y-66865000D01*
X106258000Y-66865000D01*
X105755000Y-66362000D01*
X105755000Y-65461122D01*
X106174778Y-65635000D01*
X106825222Y-65635000D01*
X107426153Y-65386086D01*
X107886086Y-64926153D01*
X108135000Y-64325222D01*
X108135000Y-63674778D01*
X111365000Y-63674778D01*
X111365000Y-64325222D01*
X111613914Y-64926153D01*
X112073847Y-65386086D01*
X112674778Y-65635000D01*
X113325222Y-65635000D01*
X113926153Y-65386086D01*
X114386086Y-64926153D01*
X114635000Y-64325222D01*
X114635000Y-63674778D01*
X114386086Y-63073847D01*
X113926153Y-62613914D01*
X113325222Y-62365000D01*
X112674778Y-62365000D01*
X112073847Y-62613914D01*
X111613914Y-63073847D01*
X111365000Y-63674778D01*
X108135000Y-63674778D01*
X107886086Y-63073847D01*
X107426153Y-62613914D01*
X106825222Y-62365000D01*
X106174778Y-62365000D01*
X105755000Y-62538878D01*
X105755000Y-57885431D01*
X106145000Y-57885431D01*
X106145000Y-58774569D01*
X106485259Y-59596026D01*
X107113974Y-60224741D01*
X107935431Y-60565000D01*
X108824569Y-60565000D01*
X109646026Y-60224741D01*
X110274741Y-59596026D01*
X110615000Y-58774569D01*
X110615000Y-57885431D01*
X110274741Y-57063974D01*
X109646026Y-56435259D01*
X108824569Y-56095000D01*
X107935431Y-56095000D01*
X107113974Y-56435259D01*
X106485259Y-57063974D01*
X106145000Y-57885431D01*
X105755000Y-57885431D01*
X105755000Y-55538000D01*
X106158001Y-55135000D01*
X106325222Y-55135000D01*
X106926153Y-54886086D01*
X107386086Y-54426153D01*
X107635000Y-53825222D01*
X107635000Y-53174778D01*
X110865000Y-53174778D01*
X110865000Y-53825222D01*
X111113914Y-54426153D01*
X111573847Y-54886086D01*
X112174778Y-55135000D01*
X112825222Y-55135000D01*
X113426153Y-54886086D01*
X113886086Y-54426153D01*
X114135000Y-53825222D01*
X114135000Y-53174778D01*
X113886086Y-52573847D01*
X113426153Y-52113914D01*
X112825222Y-51865000D01*
X112174778Y-51865000D01*
X111573847Y-52113914D01*
X111113914Y-52573847D01*
X110865000Y-53174778D01*
X107635000Y-53174778D01*
X107386086Y-52573847D01*
X106926153Y-52113914D01*
X106325222Y-51865000D01*
X105674778Y-51865000D01*
X105073847Y-52113914D01*
X104705381Y-52482380D01*
X103255000Y-51032000D01*
X103255000Y-48674778D01*
X104365000Y-48674778D01*
X104365000Y-49325222D01*
X104613914Y-49926153D01*
X105073847Y-50386086D01*
X105674778Y-50635000D01*
X106325222Y-50635000D01*
X106926153Y-50386086D01*
X107386086Y-49926153D01*
X107635000Y-49325222D01*
X107635000Y-48674778D01*
X110865000Y-48674778D01*
X110865000Y-49325222D01*
X111113914Y-49926153D01*
X111573847Y-50386086D01*
X112174778Y-50635000D01*
X112825222Y-50635000D01*
X113426153Y-50386086D01*
X113886086Y-49926153D01*
X114135000Y-49325222D01*
X114135000Y-48674778D01*
X113886086Y-48073847D01*
X113426153Y-47613914D01*
X112825222Y-47365000D01*
X112174778Y-47365000D01*
X111573847Y-47613914D01*
X111113914Y-48073847D01*
X110865000Y-48674778D01*
X107635000Y-48674778D01*
X107386086Y-48073847D01*
X106926153Y-47613914D01*
X106325222Y-47365000D01*
X105674778Y-47365000D01*
X105073847Y-47613914D01*
X104613914Y-48073847D01*
X104365000Y-48674778D01*
X103255000Y-48674778D01*
X103255000Y-46471498D01*
X103265000Y-46421225D01*
X103265000Y-46421222D01*
X103284296Y-46324214D01*
X103266665Y-46235574D01*
X103666086Y-45836153D01*
X103915000Y-45235222D01*
X103915000Y-44584778D01*
X103666086Y-43983847D01*
X103206153Y-43523914D01*
X102605222Y-43275000D01*
X101954778Y-43275000D01*
X101353847Y-43523914D01*
X100893914Y-43983847D01*
X100645000Y-44584778D01*
X100645000Y-45235222D01*
X100893914Y-45836153D01*
X101286653Y-46228892D01*
X101285000Y-46237202D01*
X101285000Y-46237205D01*
X101265704Y-46334213D01*
X101285000Y-46431221D01*
X101285001Y-51342987D01*
X101265704Y-51440000D01*
X101342151Y-51824327D01*
X101504902Y-52067902D01*
X101504905Y-52067905D01*
X101559856Y-52150145D01*
X101642096Y-52205096D01*
X103564904Y-54127905D01*
X103619855Y-54210145D01*
X103702095Y-54265096D01*
X103702097Y-54265098D01*
X103839314Y-54356783D01*
X103945672Y-54427849D01*
X104041745Y-54446959D01*
X104004905Y-54502095D01*
X104004902Y-54502098D01*
X103842151Y-54745673D01*
X103765704Y-55130000D01*
X103785001Y-55227013D01*
X103785000Y-66672992D01*
X103765704Y-66770000D01*
X103785000Y-66867008D01*
X103785000Y-66867011D01*
X103794946Y-66917012D01*
X103842151Y-67154327D01*
X103875561Y-67204328D01*
X104059855Y-67480145D01*
X104142098Y-67535098D01*
X104865000Y-68258000D01*
X104865000Y-68722000D01*
X104102096Y-69484904D01*
X104019856Y-69539855D01*
X103964905Y-69622095D01*
X103964902Y-69622098D01*
X103802151Y-69865673D01*
X103725704Y-70250000D01*
X103745001Y-70347013D01*
X103745000Y-82742992D01*
X103725704Y-82840000D01*
X103745000Y-82937008D01*
X103745000Y-82937011D01*
X103802151Y-83224327D01*
X104019855Y-83550145D01*
X104102098Y-83605098D01*
X104865000Y-84368000D01*
X104865000Y-84672000D01*
X104052096Y-85484904D01*
X103969856Y-85539855D01*
X103914905Y-85622095D01*
X103914902Y-85622098D01*
X103752151Y-85865673D01*
X103675704Y-86250000D01*
X103695001Y-86347013D01*
X103695000Y-98742992D01*
X103675704Y-98840000D01*
X103695000Y-98937008D01*
X103695000Y-98937011D01*
X103752151Y-99224327D01*
X103969855Y-99550145D01*
X104052098Y-99605098D01*
X104865000Y-100418001D01*
X104865000Y-100825222D01*
X105024380Y-101210000D01*
X99975620Y-101210000D01*
X100135000Y-100825222D01*
X100135000Y-100174778D01*
X99886086Y-99573847D01*
X99426153Y-99113914D01*
X98825222Y-98865000D01*
X98174778Y-98865000D01*
X97573847Y-99113914D01*
X97113914Y-99573847D01*
X96865000Y-100174778D01*
X96865000Y-100825222D01*
X97024380Y-101210000D01*
X93475620Y-101210000D01*
X93635000Y-100825222D01*
X93635000Y-100278000D01*
X94377902Y-99535098D01*
X94460145Y-99480145D01*
X94677849Y-99154328D01*
X94735000Y-98867012D01*
X94735000Y-98867009D01*
X94754296Y-98770001D01*
X94735000Y-98672993D01*
X94735000Y-95674778D01*
X96865000Y-95674778D01*
X96865000Y-96325222D01*
X97113914Y-96926153D01*
X97573847Y-97386086D01*
X98174778Y-97635000D01*
X98825222Y-97635000D01*
X99426153Y-97386086D01*
X99886086Y-96926153D01*
X100135000Y-96325222D01*
X100135000Y-95674778D01*
X99886086Y-95073847D01*
X99426153Y-94613914D01*
X98825222Y-94365000D01*
X98174778Y-94365000D01*
X97573847Y-94613914D01*
X97113914Y-95073847D01*
X96865000Y-95674778D01*
X94735000Y-95674778D01*
X94735000Y-86277008D01*
X94754296Y-86180000D01*
X94735000Y-86082992D01*
X94735000Y-86082988D01*
X94677849Y-85795672D01*
X94561871Y-85622098D01*
X94515098Y-85552097D01*
X94515096Y-85552095D01*
X94460145Y-85469855D01*
X94377905Y-85414904D01*
X93635000Y-84671999D01*
X93635000Y-84278000D01*
X93738222Y-84174778D01*
X96865000Y-84174778D01*
X96865000Y-84825222D01*
X97113914Y-85426153D01*
X97573847Y-85886086D01*
X98174778Y-86135000D01*
X98825222Y-86135000D01*
X99426153Y-85886086D01*
X99886086Y-85426153D01*
X100135000Y-84825222D01*
X100135000Y-84174778D01*
X99886086Y-83573847D01*
X99426153Y-83113914D01*
X98825222Y-82865000D01*
X98174778Y-82865000D01*
X97573847Y-83113914D01*
X97113914Y-83573847D01*
X96865000Y-84174778D01*
X93738222Y-84174778D01*
X94347902Y-83565098D01*
X94430145Y-83510145D01*
X94647849Y-83184328D01*
X94705000Y-82897012D01*
X94705000Y-82897009D01*
X94724296Y-82800001D01*
X94705000Y-82702993D01*
X94705000Y-79674778D01*
X96865000Y-79674778D01*
X96865000Y-80325222D01*
X97113914Y-80926153D01*
X97573847Y-81386086D01*
X98174778Y-81635000D01*
X98825222Y-81635000D01*
X99426153Y-81386086D01*
X99886086Y-80926153D01*
X100135000Y-80325222D01*
X100135000Y-79674778D01*
X99886086Y-79073847D01*
X99426153Y-78613914D01*
X98825222Y-78365000D01*
X98174778Y-78365000D01*
X97573847Y-78613914D01*
X97113914Y-79073847D01*
X96865000Y-79674778D01*
X94705000Y-79674778D01*
X94705000Y-70307008D01*
X94724296Y-70210000D01*
X94705000Y-70112992D01*
X94705000Y-70112988D01*
X94647849Y-69825672D01*
X94634485Y-69805672D01*
X94485098Y-69582097D01*
X94485096Y-69582095D01*
X94430145Y-69499855D01*
X94347905Y-69444904D01*
X93635000Y-68731999D01*
X93635000Y-68288000D01*
X93748222Y-68174778D01*
X96865000Y-68174778D01*
X96865000Y-68825222D01*
X97113914Y-69426153D01*
X97573847Y-69886086D01*
X98174778Y-70135000D01*
X98825222Y-70135000D01*
X99426153Y-69886086D01*
X99886086Y-69426153D01*
X100135000Y-68825222D01*
X100135000Y-68174778D01*
X99886086Y-67573847D01*
X99426153Y-67113914D01*
X98825222Y-66865000D01*
X98174778Y-66865000D01*
X97573847Y-67113914D01*
X97113914Y-67573847D01*
X96865000Y-68174778D01*
X93748222Y-68174778D01*
X94337904Y-67585096D01*
X94420145Y-67530145D01*
X94475096Y-67447905D01*
X94475098Y-67447903D01*
X94637849Y-67204328D01*
X94655483Y-67115674D01*
X94695000Y-66917012D01*
X94695000Y-66917008D01*
X94714296Y-66820000D01*
X94695000Y-66722992D01*
X94695000Y-63674778D01*
X96865000Y-63674778D01*
X96865000Y-64325222D01*
X97113914Y-64926153D01*
X97573847Y-65386086D01*
X98174778Y-65635000D01*
X98825222Y-65635000D01*
X99426153Y-65386086D01*
X99886086Y-64926153D01*
X100135000Y-64325222D01*
X100135000Y-63674778D01*
X99886086Y-63073847D01*
X99426153Y-62613914D01*
X98825222Y-62365000D01*
X98174778Y-62365000D01*
X97573847Y-62613914D01*
X97113914Y-63073847D01*
X96865000Y-63674778D01*
X94695000Y-63674778D01*
X94695000Y-55277008D01*
X94714296Y-55180000D01*
X94695000Y-55082992D01*
X94695000Y-55082988D01*
X94637849Y-54795672D01*
X94507042Y-54599905D01*
X94475098Y-54552097D01*
X94475096Y-54552095D01*
X94420145Y-54469855D01*
X94337905Y-54414904D01*
X94272134Y-54349133D01*
X94480145Y-54210145D01*
X94535098Y-54127902D01*
X95488222Y-53174778D01*
X96865000Y-53174778D01*
X96865000Y-53825222D01*
X97113914Y-54426153D01*
X97573847Y-54886086D01*
X98174778Y-55135000D01*
X98825222Y-55135000D01*
X99426153Y-54886086D01*
X99886086Y-54426153D01*
X100135000Y-53825222D01*
X100135000Y-53174778D01*
X99886086Y-52573847D01*
X99426153Y-52113914D01*
X98825222Y-51865000D01*
X98174778Y-51865000D01*
X97573847Y-52113914D01*
X97113914Y-52573847D01*
X96865000Y-53174778D01*
X95488222Y-53174778D01*
X96077905Y-52585096D01*
X96160145Y-52530145D01*
X96215096Y-52447905D01*
X96215098Y-52447903D01*
X96377849Y-52204328D01*
X96389516Y-52145673D01*
X96435000Y-51917012D01*
X96435000Y-51917008D01*
X96454296Y-51820000D01*
X96435000Y-51722992D01*
X96435000Y-48674778D01*
X96865000Y-48674778D01*
X96865000Y-49325222D01*
X97113914Y-49926153D01*
X97573847Y-50386086D01*
X98174778Y-50635000D01*
X98825222Y-50635000D01*
X99426153Y-50386086D01*
X99886086Y-49926153D01*
X100135000Y-49325222D01*
X100135000Y-48674778D01*
X99886086Y-48073847D01*
X99426153Y-47613914D01*
X98825222Y-47365000D01*
X98174778Y-47365000D01*
X97573847Y-47613914D01*
X97113914Y-48073847D01*
X96865000Y-48674778D01*
X96435000Y-48674778D01*
X96435000Y-47682795D01*
X96454296Y-47585787D01*
X96435000Y-47488779D01*
X96435000Y-47488775D01*
X96377849Y-47201459D01*
X96215098Y-46957884D01*
X96215096Y-46957882D01*
X96160145Y-46875642D01*
X96077905Y-46820691D01*
X94909311Y-45652098D01*
X94854358Y-45569855D01*
X94528541Y-45352151D01*
X94241225Y-45295000D01*
X94241221Y-45295000D01*
X94144213Y-45275704D01*
X94055574Y-45293335D01*
X93656153Y-44893914D01*
X93055222Y-44645000D01*
X92404778Y-44645000D01*
X91803847Y-44893914D01*
X91343914Y-45353847D01*
X91095000Y-45954778D01*
X91095000Y-46605222D01*
X91343914Y-47206153D01*
X91553144Y-47415383D01*
X91073847Y-47613914D01*
X90613914Y-48073847D01*
X90365000Y-48674778D01*
X90365000Y-49325222D01*
X90613914Y-49926153D01*
X91073847Y-50386086D01*
X91674778Y-50635000D01*
X92325222Y-50635000D01*
X92926153Y-50386086D01*
X93386086Y-49926153D01*
X93635000Y-49325222D01*
X93635000Y-48674778D01*
X93386086Y-48073847D01*
X93176856Y-47864617D01*
X93656153Y-47666086D01*
X93896726Y-47425513D01*
X94465000Y-47993788D01*
X94465001Y-51411998D01*
X93362000Y-52515000D01*
X93327239Y-52515000D01*
X92926153Y-52113914D01*
X92325222Y-51865000D01*
X91674778Y-51865000D01*
X91073847Y-52113914D01*
X90613914Y-52573847D01*
X90365000Y-53174778D01*
X90365000Y-53825222D01*
X90613914Y-54426153D01*
X91073847Y-54886086D01*
X91674778Y-55135000D01*
X92271999Y-55135000D01*
X92725000Y-55588001D01*
X92725001Y-62530594D01*
X92325222Y-62365000D01*
X91674778Y-62365000D01*
X91073847Y-62613914D01*
X90613914Y-63073847D01*
X90365000Y-63674778D01*
X90365000Y-64325222D01*
X90613914Y-64926153D01*
X91073847Y-65386086D01*
X91674778Y-65635000D01*
X92325222Y-65635000D01*
X92725001Y-65469406D01*
X92725001Y-66411998D01*
X92402095Y-66734904D01*
X92402096Y-66734904D01*
X92272000Y-66865000D01*
X91674778Y-66865000D01*
X91073847Y-67113914D01*
X90613914Y-67573847D01*
X90365000Y-68174778D01*
X90365000Y-68825222D01*
X90613914Y-69426153D01*
X91073847Y-69886086D01*
X91674778Y-70135000D01*
X92251999Y-70135000D01*
X92735000Y-70618001D01*
X92735001Y-78534736D01*
X92325222Y-78365000D01*
X91674778Y-78365000D01*
X91073847Y-78613914D01*
X90613914Y-79073847D01*
X90365000Y-79674778D01*
X90365000Y-80325222D01*
X90613914Y-80926153D01*
X91073847Y-81386086D01*
X91674778Y-81635000D01*
X92325222Y-81635000D01*
X92735001Y-81465264D01*
X92735001Y-82391999D01*
X92262000Y-82865000D01*
X91674778Y-82865000D01*
X91073847Y-83113914D01*
X90613914Y-83573847D01*
X90365000Y-84174778D01*
X90365000Y-84825222D01*
X90613914Y-85426153D01*
X91073847Y-85886086D01*
X91674778Y-86135000D01*
X92311999Y-86135000D01*
X92765000Y-86588001D01*
X92765001Y-94547162D01*
X92325222Y-94365000D01*
X91674778Y-94365000D01*
X91073847Y-94613914D01*
X90613914Y-95073847D01*
X90365000Y-95674778D01*
X90365000Y-96325222D01*
X90613914Y-96926153D01*
X91073847Y-97386086D01*
X91674778Y-97635000D01*
X92325222Y-97635000D01*
X92765001Y-97452837D01*
X92765001Y-98361999D01*
X92262000Y-98865000D01*
X91674778Y-98865000D01*
X91073847Y-99113914D01*
X90613914Y-99573847D01*
X90365000Y-100174778D01*
X90365000Y-100825222D01*
X90524380Y-101210000D01*
X84975620Y-101210000D01*
X85135000Y-100825222D01*
X85135000Y-100174778D01*
X84886086Y-99573847D01*
X84426153Y-99113914D01*
X83825222Y-98865000D01*
X83174778Y-98865000D01*
X82573847Y-99113914D01*
X82113914Y-99573847D01*
X81865000Y-100174778D01*
X81865000Y-100825222D01*
X82113914Y-101426153D01*
X82573847Y-101886086D01*
X82679286Y-101929760D01*
X82679286Y-103605000D01*
X73425000Y-103605000D01*
X73425000Y-54142387D01*
X73439399Y-54070000D01*
X73382354Y-53783217D01*
X73219905Y-53540095D01*
X72976783Y-53377646D01*
X72762388Y-53335000D01*
X72690000Y-53320601D01*
X72617612Y-53335000D01*
X66425000Y-53335000D01*
X66425000Y-53174778D01*
X75365000Y-53174778D01*
X75365000Y-53825222D01*
X75613914Y-54426153D01*
X76073847Y-54886086D01*
X76674778Y-55135000D01*
X77241999Y-55135000D01*
X77695000Y-55588001D01*
X77695001Y-62518167D01*
X77325222Y-62365000D01*
X76674778Y-62365000D01*
X76073847Y-62613914D01*
X75613914Y-63073847D01*
X75365000Y-63674778D01*
X75365000Y-64325222D01*
X75613914Y-64926153D01*
X76073847Y-65386086D01*
X76674778Y-65635000D01*
X77325222Y-65635000D01*
X77695001Y-65481832D01*
X77695001Y-66411998D01*
X77372095Y-66734904D01*
X77372096Y-66734904D01*
X77242000Y-66865000D01*
X76674778Y-66865000D01*
X76073847Y-67113914D01*
X75613914Y-67573847D01*
X75365000Y-68174778D01*
X75365000Y-68825222D01*
X75613914Y-69426153D01*
X76073847Y-69886086D01*
X76674778Y-70135000D01*
X77271999Y-70135000D01*
X77735000Y-70598001D01*
X77735001Y-78534736D01*
X77325222Y-78365000D01*
X76674778Y-78365000D01*
X76073847Y-78613914D01*
X75613914Y-79073847D01*
X75365000Y-79674778D01*
X75365000Y-80325222D01*
X75613914Y-80926153D01*
X76073847Y-81386086D01*
X76674778Y-81635000D01*
X77325222Y-81635000D01*
X77735001Y-81465264D01*
X77735001Y-82371999D01*
X77242000Y-82865000D01*
X76674778Y-82865000D01*
X76073847Y-83113914D01*
X75613914Y-83573847D01*
X75365000Y-84174778D01*
X75365000Y-84825222D01*
X75613914Y-85426153D01*
X76073847Y-85886086D01*
X76674778Y-86135000D01*
X77311999Y-86135000D01*
X77745000Y-86568001D01*
X77745001Y-94538878D01*
X77325222Y-94365000D01*
X76674778Y-94365000D01*
X76073847Y-94613914D01*
X75613914Y-95073847D01*
X75365000Y-95674778D01*
X75365000Y-96325222D01*
X75613914Y-96926153D01*
X76073847Y-97386086D01*
X76674778Y-97635000D01*
X77325222Y-97635000D01*
X77745001Y-97461122D01*
X77745001Y-98341999D01*
X77222000Y-98865000D01*
X76674778Y-98865000D01*
X76073847Y-99113914D01*
X75613914Y-99573847D01*
X75365000Y-100174778D01*
X75365000Y-100825222D01*
X75613914Y-101426153D01*
X76073847Y-101886086D01*
X76674778Y-102135000D01*
X77325222Y-102135000D01*
X77926153Y-101886086D01*
X78386086Y-101426153D01*
X78635000Y-100825222D01*
X78635000Y-100238000D01*
X79357902Y-99515098D01*
X79440145Y-99460145D01*
X79657849Y-99134328D01*
X79715000Y-98847012D01*
X79715000Y-98847009D01*
X79734296Y-98750001D01*
X79715000Y-98652993D01*
X79715000Y-95674778D01*
X81865000Y-95674778D01*
X81865000Y-96325222D01*
X82113914Y-96926153D01*
X82573847Y-97386086D01*
X83174778Y-97635000D01*
X83825222Y-97635000D01*
X84426153Y-97386086D01*
X84886086Y-96926153D01*
X85135000Y-96325222D01*
X85135000Y-95674778D01*
X84886086Y-95073847D01*
X84426153Y-94613914D01*
X83825222Y-94365000D01*
X83174778Y-94365000D01*
X82573847Y-94613914D01*
X82113914Y-95073847D01*
X81865000Y-95674778D01*
X79715000Y-95674778D01*
X79715000Y-90395431D01*
X81155000Y-90395431D01*
X81155000Y-91284569D01*
X81495259Y-92106026D01*
X82123974Y-92734741D01*
X82945431Y-93075000D01*
X83834569Y-93075000D01*
X84656026Y-92734741D01*
X85284741Y-92106026D01*
X85625000Y-91284569D01*
X85625000Y-90395431D01*
X85284741Y-89573974D01*
X84656026Y-88945259D01*
X83834569Y-88605000D01*
X82945431Y-88605000D01*
X82123974Y-88945259D01*
X81495259Y-89573974D01*
X81155000Y-90395431D01*
X79715000Y-90395431D01*
X79715000Y-86257008D01*
X79734296Y-86160000D01*
X79715000Y-86062992D01*
X79715000Y-86062988D01*
X79657849Y-85775672D01*
X79495098Y-85532097D01*
X79495096Y-85532095D01*
X79440145Y-85449855D01*
X79357905Y-85394904D01*
X78635000Y-84671999D01*
X78635000Y-84258000D01*
X78718222Y-84174778D01*
X81865000Y-84174778D01*
X81865000Y-84825222D01*
X82113914Y-85426153D01*
X82573847Y-85886086D01*
X83174778Y-86135000D01*
X83825222Y-86135000D01*
X84426153Y-85886086D01*
X84886086Y-85426153D01*
X85135000Y-84825222D01*
X85135000Y-84174778D01*
X84886086Y-83573847D01*
X84426153Y-83113914D01*
X83825222Y-82865000D01*
X83174778Y-82865000D01*
X82573847Y-83113914D01*
X82113914Y-83573847D01*
X81865000Y-84174778D01*
X78718222Y-84174778D01*
X79347902Y-83545098D01*
X79430145Y-83490145D01*
X79647849Y-83164328D01*
X79705000Y-82877012D01*
X79705000Y-82877009D01*
X79724296Y-82780001D01*
X79705000Y-82682993D01*
X79705000Y-79674778D01*
X81865000Y-79674778D01*
X81865000Y-80325222D01*
X82113914Y-80926153D01*
X82573847Y-81386086D01*
X83174778Y-81635000D01*
X83825222Y-81635000D01*
X84426153Y-81386086D01*
X84886086Y-80926153D01*
X85135000Y-80325222D01*
X85135000Y-79674778D01*
X84886086Y-79073847D01*
X84426153Y-78613914D01*
X83825222Y-78365000D01*
X83174778Y-78365000D01*
X82573847Y-78613914D01*
X82113914Y-79073847D01*
X81865000Y-79674778D01*
X79705000Y-79674778D01*
X79705000Y-70287008D01*
X79724296Y-70190000D01*
X79705000Y-70092992D01*
X79705000Y-70092988D01*
X79647849Y-69805672D01*
X79525189Y-69622098D01*
X79485098Y-69562097D01*
X79485096Y-69562095D01*
X79430145Y-69479855D01*
X79347905Y-69424904D01*
X78635000Y-68711999D01*
X78635000Y-68258000D01*
X78718222Y-68174778D01*
X81865000Y-68174778D01*
X81865000Y-68825222D01*
X82113914Y-69426153D01*
X82573847Y-69886086D01*
X83174778Y-70135000D01*
X83825222Y-70135000D01*
X84426153Y-69886086D01*
X84886086Y-69426153D01*
X85135000Y-68825222D01*
X85135000Y-68174778D01*
X84886086Y-67573847D01*
X84426153Y-67113914D01*
X83825222Y-66865000D01*
X83174778Y-66865000D01*
X82573847Y-67113914D01*
X82113914Y-67573847D01*
X81865000Y-68174778D01*
X78718222Y-68174778D01*
X79307904Y-67585096D01*
X79390145Y-67530145D01*
X79445096Y-67447905D01*
X79445098Y-67447903D01*
X79607849Y-67204328D01*
X79625483Y-67115674D01*
X79665000Y-66917012D01*
X79665000Y-66917008D01*
X79684296Y-66820000D01*
X79665000Y-66722992D01*
X79665000Y-63674778D01*
X81865000Y-63674778D01*
X81865000Y-64325222D01*
X82113914Y-64926153D01*
X82573847Y-65386086D01*
X83174778Y-65635000D01*
X83825222Y-65635000D01*
X84426153Y-65386086D01*
X84886086Y-64926153D01*
X85135000Y-64325222D01*
X85135000Y-63674778D01*
X84886086Y-63073847D01*
X84426153Y-62613914D01*
X83825222Y-62365000D01*
X83174778Y-62365000D01*
X82573847Y-62613914D01*
X82113914Y-63073847D01*
X81865000Y-63674778D01*
X79665000Y-63674778D01*
X79665000Y-57805431D01*
X81155000Y-57805431D01*
X81155000Y-58694569D01*
X81495259Y-59516026D01*
X82123974Y-60144741D01*
X82945431Y-60485000D01*
X83834569Y-60485000D01*
X84656026Y-60144741D01*
X85284741Y-59516026D01*
X85625000Y-58694569D01*
X85625000Y-57805431D01*
X85284741Y-56983974D01*
X84656026Y-56355259D01*
X83834569Y-56015000D01*
X82945431Y-56015000D01*
X82123974Y-56355259D01*
X81495259Y-56983974D01*
X81155000Y-57805431D01*
X79665000Y-57805431D01*
X79665000Y-55277008D01*
X79684296Y-55180000D01*
X79665000Y-55082992D01*
X79665000Y-55082988D01*
X79607849Y-54795672D01*
X79477042Y-54599905D01*
X79445098Y-54552097D01*
X79445096Y-54552095D01*
X79390145Y-54469855D01*
X79307905Y-54414904D01*
X78635000Y-53741999D01*
X78635000Y-53174778D01*
X81865000Y-53174778D01*
X81865000Y-53825222D01*
X82113914Y-54426153D01*
X82573847Y-54886086D01*
X83174778Y-55135000D01*
X83825222Y-55135000D01*
X84426153Y-54886086D01*
X84827239Y-54485000D01*
X85972992Y-54485000D01*
X86070000Y-54504296D01*
X86167008Y-54485000D01*
X86167012Y-54485000D01*
X86454328Y-54427849D01*
X86780145Y-54210145D01*
X86835098Y-54127902D01*
X87667902Y-53295098D01*
X87750145Y-53240145D01*
X87967849Y-52914328D01*
X88025000Y-52627012D01*
X88025000Y-52627009D01*
X88044296Y-52530001D01*
X88025000Y-52432993D01*
X88025000Y-48307242D01*
X88266089Y-48066153D01*
X88515003Y-47465222D01*
X88515003Y-46814778D01*
X88266089Y-46213847D01*
X87806156Y-45753914D01*
X87205225Y-45505000D01*
X86554781Y-45505000D01*
X85953850Y-45753914D01*
X85493917Y-46213847D01*
X85245003Y-46814778D01*
X85245003Y-47465222D01*
X85493917Y-48066153D01*
X85953850Y-48526086D01*
X86055000Y-48567984D01*
X86055001Y-52121999D01*
X85662000Y-52515000D01*
X84827239Y-52515000D01*
X84426153Y-52113914D01*
X83825222Y-51865000D01*
X83174778Y-51865000D01*
X82573847Y-52113914D01*
X82113914Y-52573847D01*
X81865000Y-53174778D01*
X78635000Y-53174778D01*
X78386086Y-52573847D01*
X77926153Y-52113914D01*
X77325222Y-51865000D01*
X76674778Y-51865000D01*
X76073847Y-52113914D01*
X75613914Y-52573847D01*
X75365000Y-53174778D01*
X66425000Y-53174778D01*
X66425000Y-48674778D01*
X75365000Y-48674778D01*
X75365000Y-49325222D01*
X75613914Y-49926153D01*
X76073847Y-50386086D01*
X76674778Y-50635000D01*
X77325222Y-50635000D01*
X77926153Y-50386086D01*
X78327239Y-49985000D01*
X82172761Y-49985000D01*
X82573847Y-50386086D01*
X83174778Y-50635000D01*
X83825222Y-50635000D01*
X84426153Y-50386086D01*
X84886086Y-49926153D01*
X85135000Y-49325222D01*
X85135000Y-48674778D01*
X84886086Y-48073847D01*
X84426153Y-47613914D01*
X83825222Y-47365000D01*
X83174778Y-47365000D01*
X82573847Y-47613914D01*
X82172761Y-48015000D01*
X78327239Y-48015000D01*
X77926153Y-47613914D01*
X77325222Y-47365000D01*
X76674778Y-47365000D01*
X76073847Y-47613914D01*
X75613914Y-48073847D01*
X75365000Y-48674778D01*
X66425000Y-48674778D01*
X66425000Y-37075000D01*
X84872023Y-37075000D01*
X83572120Y-38374904D01*
X83572120Y-38374904D01*
G37*
X83572120Y-38374904D02*
X83442024Y-38505000D01*
X82874802Y-38505000D01*
X82273871Y-38753914D01*
X81813938Y-39213847D01*
X81565024Y-39814778D01*
X81565024Y-40465222D01*
X81813938Y-41066153D01*
X82273871Y-41526086D01*
X82874802Y-41775000D01*
X83525246Y-41775000D01*
X84126177Y-41526086D01*
X84586110Y-41066153D01*
X84835024Y-40465222D01*
X84835024Y-40150000D01*
X86202969Y-40150000D01*
X86329864Y-40787945D01*
X86691231Y-41328769D01*
X87232055Y-41690136D01*
X87708969Y-41785000D01*
X88031031Y-41785000D01*
X88507945Y-41690136D01*
X89048769Y-41328769D01*
X89140000Y-41192232D01*
X89231231Y-41328769D01*
X89772055Y-41690136D01*
X90248969Y-41785000D01*
X90571031Y-41785000D01*
X91047945Y-41690136D01*
X91588769Y-41328769D01*
X91693499Y-41172029D01*
X92094615Y-41543402D01*
X92569566Y-41740124D01*
X92823000Y-41620777D01*
X92823000Y-40277000D01*
X92803000Y-40277000D01*
X92803000Y-40023000D01*
X92823000Y-40023000D01*
X92823000Y-38679223D01*
X92569566Y-38559876D01*
X92094615Y-38756598D01*
X91693499Y-39127971D01*
X91588769Y-38971231D01*
X91047945Y-38609864D01*
X90571031Y-38515000D01*
X90248969Y-38515000D01*
X89772055Y-38609864D01*
X89231231Y-38971231D01*
X89140000Y-39107768D01*
X89048769Y-38971231D01*
X88507945Y-38609864D01*
X88031031Y-38515000D01*
X87708969Y-38515000D01*
X87232055Y-38609864D01*
X86691231Y-38971231D01*
X86329864Y-39512055D01*
X86202969Y-40150000D01*
X84835024Y-40150000D01*
X84835024Y-39898000D01*
X84965120Y-39767904D01*
X86538025Y-38195000D01*
X104002000Y-38195000D01*
X104376223Y-38569224D01*
X104192191Y-38692191D01*
X104093100Y-38840489D01*
X103747945Y-38609864D01*
X103271031Y-38515000D01*
X102948969Y-38515000D01*
X102472055Y-38609864D01*
X101931231Y-38971231D01*
X101840000Y-39107768D01*
X101748769Y-38971231D01*
X101207945Y-38609864D01*
X100731031Y-38515000D01*
X100408969Y-38515000D01*
X99932055Y-38609864D01*
X99391231Y-38971231D01*
X99300000Y-39107768D01*
X99208769Y-38971231D01*
X98667945Y-38609864D01*
X98191031Y-38515000D01*
X97868969Y-38515000D01*
X97392055Y-38609864D01*
X96851231Y-38971231D01*
X96760000Y-39107768D01*
X96668769Y-38971231D01*
X96127945Y-38609864D01*
X95651031Y-38515000D01*
X95328969Y-38515000D01*
X94852055Y-38609864D01*
X94311231Y-38971231D01*
X94206501Y-39127971D01*
X93805385Y-38756598D01*
X93330434Y-38559876D01*
X93077000Y-38679223D01*
X93077000Y-40023000D01*
X93097000Y-40023000D01*
X93097000Y-40277000D01*
X93077000Y-40277000D01*
X93077000Y-41620777D01*
X93330434Y-41740124D01*
X93805385Y-41543402D01*
X94206501Y-41172029D01*
X94311231Y-41328769D01*
X94852055Y-41690136D01*
X95328969Y-41785000D01*
X95651031Y-41785000D01*
X96127945Y-41690136D01*
X96668769Y-41328769D01*
X96760000Y-41192232D01*
X96851231Y-41328769D01*
X97392055Y-41690136D01*
X97868969Y-41785000D01*
X98191031Y-41785000D01*
X98667945Y-41690136D01*
X99208769Y-41328769D01*
X99300000Y-41192232D01*
X99391231Y-41328769D01*
X99932055Y-41690136D01*
X100408969Y-41785000D01*
X100731031Y-41785000D01*
X101207945Y-41690136D01*
X101748769Y-41328769D01*
X101840000Y-41192232D01*
X101931231Y-41328769D01*
X102472055Y-41690136D01*
X102948969Y-41785000D01*
X103271031Y-41785000D01*
X103747945Y-41690136D01*
X104093100Y-41459511D01*
X104192191Y-41607809D01*
X104402235Y-41748157D01*
X104650000Y-41797440D01*
X106650000Y-41797440D01*
X106897765Y-41748157D01*
X107107809Y-41607809D01*
X107248157Y-41397765D01*
X107297440Y-41150000D01*
X107297440Y-39150000D01*
X107248157Y-38902235D01*
X107107809Y-38692191D01*
X106897765Y-38551843D01*
X106650000Y-38502560D01*
X106643841Y-38502560D01*
X106654296Y-38450000D01*
X106635000Y-38352992D01*
X106635000Y-38352988D01*
X106577849Y-38065672D01*
X106425659Y-37837903D01*
X106415098Y-37822097D01*
X106415096Y-37822095D01*
X106360145Y-37739855D01*
X106277905Y-37684904D01*
X105668000Y-37075000D01*
X114955000Y-37075000D01*
X114955001Y-103605000D01*
X107320715Y-103605000D01*
X107320715Y-101929760D01*
X107426153Y-101886086D01*
X107886086Y-101426153D01*
X108135000Y-100825222D01*
X108135000Y-100174778D01*
X111365000Y-100174778D01*
X111365000Y-100825222D01*
X111613914Y-101426153D01*
X112073847Y-101886086D01*
X112674778Y-102135000D01*
X113325222Y-102135000D01*
X113926153Y-101886086D01*
X114386086Y-101426153D01*
X114635000Y-100825222D01*
X114635000Y-100174778D01*
X114386086Y-99573847D01*
X113926153Y-99113914D01*
X113325222Y-98865000D01*
X112674778Y-98865000D01*
X112073847Y-99113914D01*
X111613914Y-99573847D01*
X111365000Y-100174778D01*
X108135000Y-100174778D01*
X107886086Y-99573847D01*
X107426153Y-99113914D01*
X106825222Y-98865000D01*
X106174778Y-98865000D01*
X106120488Y-98887488D01*
X105665000Y-98432000D01*
X105665000Y-97423843D01*
X106174778Y-97635000D01*
X106825222Y-97635000D01*
X107426153Y-97386086D01*
X107886086Y-96926153D01*
X108135000Y-96325222D01*
X108135000Y-95674778D01*
X111365000Y-95674778D01*
X111365000Y-96325222D01*
X111613914Y-96926153D01*
X112073847Y-97386086D01*
X112674778Y-97635000D01*
X113325222Y-97635000D01*
X113926153Y-97386086D01*
X114386086Y-96926153D01*
X114635000Y-96325222D01*
X114635000Y-95674778D01*
X114386086Y-95073847D01*
X113926153Y-94613914D01*
X113325222Y-94365000D01*
X112674778Y-94365000D01*
X112073847Y-94613914D01*
X111613914Y-95073847D01*
X111365000Y-95674778D01*
X108135000Y-95674778D01*
X107886086Y-95073847D01*
X107426153Y-94613914D01*
X106825222Y-94365000D01*
X106174778Y-94365000D01*
X105665000Y-94576157D01*
X105665000Y-90395431D01*
X106145000Y-90395431D01*
X106145000Y-91284569D01*
X106485259Y-92106026D01*
X107113974Y-92734741D01*
X107935431Y-93075000D01*
X108824569Y-93075000D01*
X109646026Y-92734741D01*
X110274741Y-92106026D01*
X110615000Y-91284569D01*
X110615000Y-90395431D01*
X110274741Y-89573974D01*
X109646026Y-88945259D01*
X108824569Y-88605000D01*
X107935431Y-88605000D01*
X107113974Y-88945259D01*
X106485259Y-89573974D01*
X106145000Y-90395431D01*
X105665000Y-90395431D01*
X105665000Y-86658000D01*
X106188000Y-86135000D01*
X106825222Y-86135000D01*
X107426153Y-85886086D01*
X107886086Y-85426153D01*
X108135000Y-84825222D01*
X108135000Y-84174778D01*
X111365000Y-84174778D01*
X111365000Y-84825222D01*
X111613914Y-85426153D01*
X112073847Y-85886086D01*
X112674778Y-86135000D01*
X113325222Y-86135000D01*
X113926153Y-85886086D01*
X114386086Y-85426153D01*
X114635000Y-84825222D01*
X114635000Y-84174778D01*
X114386086Y-83573847D01*
X113926153Y-83113914D01*
X113325222Y-82865000D01*
X112674778Y-82865000D01*
X112073847Y-83113914D01*
X111613914Y-83573847D01*
X111365000Y-84174778D01*
X108135000Y-84174778D01*
X107886086Y-83573847D01*
X107426153Y-83113914D01*
X106825222Y-82865000D01*
X106174778Y-82865000D01*
X106155843Y-82872843D01*
X105715000Y-82432000D01*
X105715000Y-81444554D01*
X106174778Y-81635000D01*
X106825222Y-81635000D01*
X107426153Y-81386086D01*
X107886086Y-80926153D01*
X108135000Y-80325222D01*
X108135000Y-79674778D01*
X111365000Y-79674778D01*
X111365000Y-80325222D01*
X111613914Y-80926153D01*
X112073847Y-81386086D01*
X112674778Y-81635000D01*
X113325222Y-81635000D01*
X113926153Y-81386086D01*
X114386086Y-80926153D01*
X114635000Y-80325222D01*
X114635000Y-79674778D01*
X114386086Y-79073847D01*
X113926153Y-78613914D01*
X113325222Y-78365000D01*
X112674778Y-78365000D01*
X112073847Y-78613914D01*
X111613914Y-79073847D01*
X111365000Y-79674778D01*
X108135000Y-79674778D01*
X107886086Y-79073847D01*
X107426153Y-78613914D01*
X106825222Y-78365000D01*
X106174778Y-78365000D01*
X105715000Y-78555446D01*
X105715000Y-70658000D01*
X106238000Y-70135000D01*
X106825222Y-70135000D01*
X107426153Y-69886086D01*
X107886086Y-69426153D01*
X108135000Y-68825222D01*
X108135000Y-68174778D01*
X111365000Y-68174778D01*
X111365000Y-68825222D01*
X111613914Y-69426153D01*
X112073847Y-69886086D01*
X112674778Y-70135000D01*
X113325222Y-70135000D01*
X113926153Y-69886086D01*
X114386086Y-69426153D01*
X114635000Y-68825222D01*
X114635000Y-68174778D01*
X114386086Y-67573847D01*
X113926153Y-67113914D01*
X113325222Y-66865000D01*
X112674778Y-66865000D01*
X112073847Y-67113914D01*
X111613914Y-67573847D01*
X111365000Y-68174778D01*
X108135000Y-68174778D01*
X107886086Y-67573847D01*
X107426153Y-67113914D01*
X106825222Y-66865000D01*
X106258000Y-66865000D01*
X105755000Y-66362000D01*
X105755000Y-65461122D01*
X106174778Y-65635000D01*
X106825222Y-65635000D01*
X107426153Y-65386086D01*
X107886086Y-64926153D01*
X108135000Y-64325222D01*
X108135000Y-63674778D01*
X111365000Y-63674778D01*
X111365000Y-64325222D01*
X111613914Y-64926153D01*
X112073847Y-65386086D01*
X112674778Y-65635000D01*
X113325222Y-65635000D01*
X113926153Y-65386086D01*
X114386086Y-64926153D01*
X114635000Y-64325222D01*
X114635000Y-63674778D01*
X114386086Y-63073847D01*
X113926153Y-62613914D01*
X113325222Y-62365000D01*
X112674778Y-62365000D01*
X112073847Y-62613914D01*
X111613914Y-63073847D01*
X111365000Y-63674778D01*
X108135000Y-63674778D01*
X107886086Y-63073847D01*
X107426153Y-62613914D01*
X106825222Y-62365000D01*
X106174778Y-62365000D01*
X105755000Y-62538878D01*
X105755000Y-57885431D01*
X106145000Y-57885431D01*
X106145000Y-58774569D01*
X106485259Y-59596026D01*
X107113974Y-60224741D01*
X107935431Y-60565000D01*
X108824569Y-60565000D01*
X109646026Y-60224741D01*
X110274741Y-59596026D01*
X110615000Y-58774569D01*
X110615000Y-57885431D01*
X110274741Y-57063974D01*
X109646026Y-56435259D01*
X108824569Y-56095000D01*
X107935431Y-56095000D01*
X107113974Y-56435259D01*
X106485259Y-57063974D01*
X106145000Y-57885431D01*
X105755000Y-57885431D01*
X105755000Y-55538000D01*
X106158001Y-55135000D01*
X106325222Y-55135000D01*
X106926153Y-54886086D01*
X107386086Y-54426153D01*
X107635000Y-53825222D01*
X107635000Y-53174778D01*
X110865000Y-53174778D01*
X110865000Y-53825222D01*
X111113914Y-54426153D01*
X111573847Y-54886086D01*
X112174778Y-55135000D01*
X112825222Y-55135000D01*
X113426153Y-54886086D01*
X113886086Y-54426153D01*
X114135000Y-53825222D01*
X114135000Y-53174778D01*
X113886086Y-52573847D01*
X113426153Y-52113914D01*
X112825222Y-51865000D01*
X112174778Y-51865000D01*
X111573847Y-52113914D01*
X111113914Y-52573847D01*
X110865000Y-53174778D01*
X107635000Y-53174778D01*
X107386086Y-52573847D01*
X106926153Y-52113914D01*
X106325222Y-51865000D01*
X105674778Y-51865000D01*
X105073847Y-52113914D01*
X104705381Y-52482380D01*
X103255000Y-51032000D01*
X103255000Y-48674778D01*
X104365000Y-48674778D01*
X104365000Y-49325222D01*
X104613914Y-49926153D01*
X105073847Y-50386086D01*
X105674778Y-50635000D01*
X106325222Y-50635000D01*
X106926153Y-50386086D01*
X107386086Y-49926153D01*
X107635000Y-49325222D01*
X107635000Y-48674778D01*
X110865000Y-48674778D01*
X110865000Y-49325222D01*
X111113914Y-49926153D01*
X111573847Y-50386086D01*
X112174778Y-50635000D01*
X112825222Y-50635000D01*
X113426153Y-50386086D01*
X113886086Y-49926153D01*
X114135000Y-49325222D01*
X114135000Y-48674778D01*
X113886086Y-48073847D01*
X113426153Y-47613914D01*
X112825222Y-47365000D01*
X112174778Y-47365000D01*
X111573847Y-47613914D01*
X111113914Y-48073847D01*
X110865000Y-48674778D01*
X107635000Y-48674778D01*
X107386086Y-48073847D01*
X106926153Y-47613914D01*
X106325222Y-47365000D01*
X105674778Y-47365000D01*
X105073847Y-47613914D01*
X104613914Y-48073847D01*
X104365000Y-48674778D01*
X103255000Y-48674778D01*
X103255000Y-46471498D01*
X103265000Y-46421225D01*
X103265000Y-46421222D01*
X103284296Y-46324214D01*
X103266665Y-46235574D01*
X103666086Y-45836153D01*
X103915000Y-45235222D01*
X103915000Y-44584778D01*
X103666086Y-43983847D01*
X103206153Y-43523914D01*
X102605222Y-43275000D01*
X101954778Y-43275000D01*
X101353847Y-43523914D01*
X100893914Y-43983847D01*
X100645000Y-44584778D01*
X100645000Y-45235222D01*
X100893914Y-45836153D01*
X101286653Y-46228892D01*
X101285000Y-46237202D01*
X101285000Y-46237205D01*
X101265704Y-46334213D01*
X101285000Y-46431221D01*
X101285001Y-51342987D01*
X101265704Y-51440000D01*
X101342151Y-51824327D01*
X101504902Y-52067902D01*
X101504905Y-52067905D01*
X101559856Y-52150145D01*
X101642096Y-52205096D01*
X103564904Y-54127905D01*
X103619855Y-54210145D01*
X103702095Y-54265096D01*
X103702097Y-54265098D01*
X103839314Y-54356783D01*
X103945672Y-54427849D01*
X104041745Y-54446959D01*
X104004905Y-54502095D01*
X104004902Y-54502098D01*
X103842151Y-54745673D01*
X103765704Y-55130000D01*
X103785001Y-55227013D01*
X103785000Y-66672992D01*
X103765704Y-66770000D01*
X103785000Y-66867008D01*
X103785000Y-66867011D01*
X103794946Y-66917012D01*
X103842151Y-67154327D01*
X103875561Y-67204328D01*
X104059855Y-67480145D01*
X104142098Y-67535098D01*
X104865000Y-68258000D01*
X104865000Y-68722000D01*
X104102096Y-69484904D01*
X104019856Y-69539855D01*
X103964905Y-69622095D01*
X103964902Y-69622098D01*
X103802151Y-69865673D01*
X103725704Y-70250000D01*
X103745001Y-70347013D01*
X103745000Y-82742992D01*
X103725704Y-82840000D01*
X103745000Y-82937008D01*
X103745000Y-82937011D01*
X103802151Y-83224327D01*
X104019855Y-83550145D01*
X104102098Y-83605098D01*
X104865000Y-84368000D01*
X104865000Y-84672000D01*
X104052096Y-85484904D01*
X103969856Y-85539855D01*
X103914905Y-85622095D01*
X103914902Y-85622098D01*
X103752151Y-85865673D01*
X103675704Y-86250000D01*
X103695001Y-86347013D01*
X103695000Y-98742992D01*
X103675704Y-98840000D01*
X103695000Y-98937008D01*
X103695000Y-98937011D01*
X103752151Y-99224327D01*
X103969855Y-99550145D01*
X104052098Y-99605098D01*
X104865000Y-100418001D01*
X104865000Y-100825222D01*
X105024380Y-101210000D01*
X99975620Y-101210000D01*
X100135000Y-100825222D01*
X100135000Y-100174778D01*
X99886086Y-99573847D01*
X99426153Y-99113914D01*
X98825222Y-98865000D01*
X98174778Y-98865000D01*
X97573847Y-99113914D01*
X97113914Y-99573847D01*
X96865000Y-100174778D01*
X96865000Y-100825222D01*
X97024380Y-101210000D01*
X93475620Y-101210000D01*
X93635000Y-100825222D01*
X93635000Y-100278000D01*
X94377902Y-99535098D01*
X94460145Y-99480145D01*
X94677849Y-99154328D01*
X94735000Y-98867012D01*
X94735000Y-98867009D01*
X94754296Y-98770001D01*
X94735000Y-98672993D01*
X94735000Y-95674778D01*
X96865000Y-95674778D01*
X96865000Y-96325222D01*
X97113914Y-96926153D01*
X97573847Y-97386086D01*
X98174778Y-97635000D01*
X98825222Y-97635000D01*
X99426153Y-97386086D01*
X99886086Y-96926153D01*
X100135000Y-96325222D01*
X100135000Y-95674778D01*
X99886086Y-95073847D01*
X99426153Y-94613914D01*
X98825222Y-94365000D01*
X98174778Y-94365000D01*
X97573847Y-94613914D01*
X97113914Y-95073847D01*
X96865000Y-95674778D01*
X94735000Y-95674778D01*
X94735000Y-86277008D01*
X94754296Y-86180000D01*
X94735000Y-86082992D01*
X94735000Y-86082988D01*
X94677849Y-85795672D01*
X94561871Y-85622098D01*
X94515098Y-85552097D01*
X94515096Y-85552095D01*
X94460145Y-85469855D01*
X94377905Y-85414904D01*
X93635000Y-84671999D01*
X93635000Y-84278000D01*
X93738222Y-84174778D01*
X96865000Y-84174778D01*
X96865000Y-84825222D01*
X97113914Y-85426153D01*
X97573847Y-85886086D01*
X98174778Y-86135000D01*
X98825222Y-86135000D01*
X99426153Y-85886086D01*
X99886086Y-85426153D01*
X100135000Y-84825222D01*
X100135000Y-84174778D01*
X99886086Y-83573847D01*
X99426153Y-83113914D01*
X98825222Y-82865000D01*
X98174778Y-82865000D01*
X97573847Y-83113914D01*
X97113914Y-83573847D01*
X96865000Y-84174778D01*
X93738222Y-84174778D01*
X94347902Y-83565098D01*
X94430145Y-83510145D01*
X94647849Y-83184328D01*
X94705000Y-82897012D01*
X94705000Y-82897009D01*
X94724296Y-82800001D01*
X94705000Y-82702993D01*
X94705000Y-79674778D01*
X96865000Y-79674778D01*
X96865000Y-80325222D01*
X97113914Y-80926153D01*
X97573847Y-81386086D01*
X98174778Y-81635000D01*
X98825222Y-81635000D01*
X99426153Y-81386086D01*
X99886086Y-80926153D01*
X100135000Y-80325222D01*
X100135000Y-79674778D01*
X99886086Y-79073847D01*
X99426153Y-78613914D01*
X98825222Y-78365000D01*
X98174778Y-78365000D01*
X97573847Y-78613914D01*
X97113914Y-79073847D01*
X96865000Y-79674778D01*
X94705000Y-79674778D01*
X94705000Y-70307008D01*
X94724296Y-70210000D01*
X94705000Y-70112992D01*
X94705000Y-70112988D01*
X94647849Y-69825672D01*
X94634485Y-69805672D01*
X94485098Y-69582097D01*
X94485096Y-69582095D01*
X94430145Y-69499855D01*
X94347905Y-69444904D01*
X93635000Y-68731999D01*
X93635000Y-68288000D01*
X93748222Y-68174778D01*
X96865000Y-68174778D01*
X96865000Y-68825222D01*
X97113914Y-69426153D01*
X97573847Y-69886086D01*
X98174778Y-70135000D01*
X98825222Y-70135000D01*
X99426153Y-69886086D01*
X99886086Y-69426153D01*
X100135000Y-68825222D01*
X100135000Y-68174778D01*
X99886086Y-67573847D01*
X99426153Y-67113914D01*
X98825222Y-66865000D01*
X98174778Y-66865000D01*
X97573847Y-67113914D01*
X97113914Y-67573847D01*
X96865000Y-68174778D01*
X93748222Y-68174778D01*
X94337904Y-67585096D01*
X94420145Y-67530145D01*
X94475096Y-67447905D01*
X94475098Y-67447903D01*
X94637849Y-67204328D01*
X94655483Y-67115674D01*
X94695000Y-66917012D01*
X94695000Y-66917008D01*
X94714296Y-66820000D01*
X94695000Y-66722992D01*
X94695000Y-63674778D01*
X96865000Y-63674778D01*
X96865000Y-64325222D01*
X97113914Y-64926153D01*
X97573847Y-65386086D01*
X98174778Y-65635000D01*
X98825222Y-65635000D01*
X99426153Y-65386086D01*
X99886086Y-64926153D01*
X100135000Y-64325222D01*
X100135000Y-63674778D01*
X99886086Y-63073847D01*
X99426153Y-62613914D01*
X98825222Y-62365000D01*
X98174778Y-62365000D01*
X97573847Y-62613914D01*
X97113914Y-63073847D01*
X96865000Y-63674778D01*
X94695000Y-63674778D01*
X94695000Y-55277008D01*
X94714296Y-55180000D01*
X94695000Y-55082992D01*
X94695000Y-55082988D01*
X94637849Y-54795672D01*
X94507042Y-54599905D01*
X94475098Y-54552097D01*
X94475096Y-54552095D01*
X94420145Y-54469855D01*
X94337905Y-54414904D01*
X94272134Y-54349133D01*
X94480145Y-54210145D01*
X94535098Y-54127902D01*
X95488222Y-53174778D01*
X96865000Y-53174778D01*
X96865000Y-53825222D01*
X97113914Y-54426153D01*
X97573847Y-54886086D01*
X98174778Y-55135000D01*
X98825222Y-55135000D01*
X99426153Y-54886086D01*
X99886086Y-54426153D01*
X100135000Y-53825222D01*
X100135000Y-53174778D01*
X99886086Y-52573847D01*
X99426153Y-52113914D01*
X98825222Y-51865000D01*
X98174778Y-51865000D01*
X97573847Y-52113914D01*
X97113914Y-52573847D01*
X96865000Y-53174778D01*
X95488222Y-53174778D01*
X96077905Y-52585096D01*
X96160145Y-52530145D01*
X96215096Y-52447905D01*
X96215098Y-52447903D01*
X96377849Y-52204328D01*
X96389516Y-52145673D01*
X96435000Y-51917012D01*
X96435000Y-51917008D01*
X96454296Y-51820000D01*
X96435000Y-51722992D01*
X96435000Y-48674778D01*
X96865000Y-48674778D01*
X96865000Y-49325222D01*
X97113914Y-49926153D01*
X97573847Y-50386086D01*
X98174778Y-50635000D01*
X98825222Y-50635000D01*
X99426153Y-50386086D01*
X99886086Y-49926153D01*
X100135000Y-49325222D01*
X100135000Y-48674778D01*
X99886086Y-48073847D01*
X99426153Y-47613914D01*
X98825222Y-47365000D01*
X98174778Y-47365000D01*
X97573847Y-47613914D01*
X97113914Y-48073847D01*
X96865000Y-48674778D01*
X96435000Y-48674778D01*
X96435000Y-47682795D01*
X96454296Y-47585787D01*
X96435000Y-47488779D01*
X96435000Y-47488775D01*
X96377849Y-47201459D01*
X96215098Y-46957884D01*
X96215096Y-46957882D01*
X96160145Y-46875642D01*
X96077905Y-46820691D01*
X94909311Y-45652098D01*
X94854358Y-45569855D01*
X94528541Y-45352151D01*
X94241225Y-45295000D01*
X94241221Y-45295000D01*
X94144213Y-45275704D01*
X94055574Y-45293335D01*
X93656153Y-44893914D01*
X93055222Y-44645000D01*
X92404778Y-44645000D01*
X91803847Y-44893914D01*
X91343914Y-45353847D01*
X91095000Y-45954778D01*
X91095000Y-46605222D01*
X91343914Y-47206153D01*
X91553144Y-47415383D01*
X91073847Y-47613914D01*
X90613914Y-48073847D01*
X90365000Y-48674778D01*
X90365000Y-49325222D01*
X90613914Y-49926153D01*
X91073847Y-50386086D01*
X91674778Y-50635000D01*
X92325222Y-50635000D01*
X92926153Y-50386086D01*
X93386086Y-49926153D01*
X93635000Y-49325222D01*
X93635000Y-48674778D01*
X93386086Y-48073847D01*
X93176856Y-47864617D01*
X93656153Y-47666086D01*
X93896726Y-47425513D01*
X94465000Y-47993788D01*
X94465001Y-51411998D01*
X93362000Y-52515000D01*
X93327239Y-52515000D01*
X92926153Y-52113914D01*
X92325222Y-51865000D01*
X91674778Y-51865000D01*
X91073847Y-52113914D01*
X90613914Y-52573847D01*
X90365000Y-53174778D01*
X90365000Y-53825222D01*
X90613914Y-54426153D01*
X91073847Y-54886086D01*
X91674778Y-55135000D01*
X92271999Y-55135000D01*
X92725000Y-55588001D01*
X92725001Y-62530594D01*
X92325222Y-62365000D01*
X91674778Y-62365000D01*
X91073847Y-62613914D01*
X90613914Y-63073847D01*
X90365000Y-63674778D01*
X90365000Y-64325222D01*
X90613914Y-64926153D01*
X91073847Y-65386086D01*
X91674778Y-65635000D01*
X92325222Y-65635000D01*
X92725001Y-65469406D01*
X92725001Y-66411998D01*
X92402095Y-66734904D01*
X92402096Y-66734904D01*
X92272000Y-66865000D01*
X91674778Y-66865000D01*
X91073847Y-67113914D01*
X90613914Y-67573847D01*
X90365000Y-68174778D01*
X90365000Y-68825222D01*
X90613914Y-69426153D01*
X91073847Y-69886086D01*
X91674778Y-70135000D01*
X92251999Y-70135000D01*
X92735000Y-70618001D01*
X92735001Y-78534736D01*
X92325222Y-78365000D01*
X91674778Y-78365000D01*
X91073847Y-78613914D01*
X90613914Y-79073847D01*
X90365000Y-79674778D01*
X90365000Y-80325222D01*
X90613914Y-80926153D01*
X91073847Y-81386086D01*
X91674778Y-81635000D01*
X92325222Y-81635000D01*
X92735001Y-81465264D01*
X92735001Y-82391999D01*
X92262000Y-82865000D01*
X91674778Y-82865000D01*
X91073847Y-83113914D01*
X90613914Y-83573847D01*
X90365000Y-84174778D01*
X90365000Y-84825222D01*
X90613914Y-85426153D01*
X91073847Y-85886086D01*
X91674778Y-86135000D01*
X92311999Y-86135000D01*
X92765000Y-86588001D01*
X92765001Y-94547162D01*
X92325222Y-94365000D01*
X91674778Y-94365000D01*
X91073847Y-94613914D01*
X90613914Y-95073847D01*
X90365000Y-95674778D01*
X90365000Y-96325222D01*
X90613914Y-96926153D01*
X91073847Y-97386086D01*
X91674778Y-97635000D01*
X92325222Y-97635000D01*
X92765001Y-97452837D01*
X92765001Y-98361999D01*
X92262000Y-98865000D01*
X91674778Y-98865000D01*
X91073847Y-99113914D01*
X90613914Y-99573847D01*
X90365000Y-100174778D01*
X90365000Y-100825222D01*
X90524380Y-101210000D01*
X84975620Y-101210000D01*
X85135000Y-100825222D01*
X85135000Y-100174778D01*
X84886086Y-99573847D01*
X84426153Y-99113914D01*
X83825222Y-98865000D01*
X83174778Y-98865000D01*
X82573847Y-99113914D01*
X82113914Y-99573847D01*
X81865000Y-100174778D01*
X81865000Y-100825222D01*
X82113914Y-101426153D01*
X82573847Y-101886086D01*
X82679286Y-101929760D01*
X82679286Y-103605000D01*
X73425000Y-103605000D01*
X73425000Y-54142387D01*
X73439399Y-54070000D01*
X73382354Y-53783217D01*
X73219905Y-53540095D01*
X72976783Y-53377646D01*
X72762388Y-53335000D01*
X72690000Y-53320601D01*
X72617612Y-53335000D01*
X66425000Y-53335000D01*
X66425000Y-53174778D01*
X75365000Y-53174778D01*
X75365000Y-53825222D01*
X75613914Y-54426153D01*
X76073847Y-54886086D01*
X76674778Y-55135000D01*
X77241999Y-55135000D01*
X77695000Y-55588001D01*
X77695001Y-62518167D01*
X77325222Y-62365000D01*
X76674778Y-62365000D01*
X76073847Y-62613914D01*
X75613914Y-63073847D01*
X75365000Y-63674778D01*
X75365000Y-64325222D01*
X75613914Y-64926153D01*
X76073847Y-65386086D01*
X76674778Y-65635000D01*
X77325222Y-65635000D01*
X77695001Y-65481832D01*
X77695001Y-66411998D01*
X77372095Y-66734904D01*
X77372096Y-66734904D01*
X77242000Y-66865000D01*
X76674778Y-66865000D01*
X76073847Y-67113914D01*
X75613914Y-67573847D01*
X75365000Y-68174778D01*
X75365000Y-68825222D01*
X75613914Y-69426153D01*
X76073847Y-69886086D01*
X76674778Y-70135000D01*
X77271999Y-70135000D01*
X77735000Y-70598001D01*
X77735001Y-78534736D01*
X77325222Y-78365000D01*
X76674778Y-78365000D01*
X76073847Y-78613914D01*
X75613914Y-79073847D01*
X75365000Y-79674778D01*
X75365000Y-80325222D01*
X75613914Y-80926153D01*
X76073847Y-81386086D01*
X76674778Y-81635000D01*
X77325222Y-81635000D01*
X77735001Y-81465264D01*
X77735001Y-82371999D01*
X77242000Y-82865000D01*
X76674778Y-82865000D01*
X76073847Y-83113914D01*
X75613914Y-83573847D01*
X75365000Y-84174778D01*
X75365000Y-84825222D01*
X75613914Y-85426153D01*
X76073847Y-85886086D01*
X76674778Y-86135000D01*
X77311999Y-86135000D01*
X77745000Y-86568001D01*
X77745001Y-94538878D01*
X77325222Y-94365000D01*
X76674778Y-94365000D01*
X76073847Y-94613914D01*
X75613914Y-95073847D01*
X75365000Y-95674778D01*
X75365000Y-96325222D01*
X75613914Y-96926153D01*
X76073847Y-97386086D01*
X76674778Y-97635000D01*
X77325222Y-97635000D01*
X77745001Y-97461122D01*
X77745001Y-98341999D01*
X77222000Y-98865000D01*
X76674778Y-98865000D01*
X76073847Y-99113914D01*
X75613914Y-99573847D01*
X75365000Y-100174778D01*
X75365000Y-100825222D01*
X75613914Y-101426153D01*
X76073847Y-101886086D01*
X76674778Y-102135000D01*
X77325222Y-102135000D01*
X77926153Y-101886086D01*
X78386086Y-101426153D01*
X78635000Y-100825222D01*
X78635000Y-100238000D01*
X79357902Y-99515098D01*
X79440145Y-99460145D01*
X79657849Y-99134328D01*
X79715000Y-98847012D01*
X79715000Y-98847009D01*
X79734296Y-98750001D01*
X79715000Y-98652993D01*
X79715000Y-95674778D01*
X81865000Y-95674778D01*
X81865000Y-96325222D01*
X82113914Y-96926153D01*
X82573847Y-97386086D01*
X83174778Y-97635000D01*
X83825222Y-97635000D01*
X84426153Y-97386086D01*
X84886086Y-96926153D01*
X85135000Y-96325222D01*
X85135000Y-95674778D01*
X84886086Y-95073847D01*
X84426153Y-94613914D01*
X83825222Y-94365000D01*
X83174778Y-94365000D01*
X82573847Y-94613914D01*
X82113914Y-95073847D01*
X81865000Y-95674778D01*
X79715000Y-95674778D01*
X79715000Y-90395431D01*
X81155000Y-90395431D01*
X81155000Y-91284569D01*
X81495259Y-92106026D01*
X82123974Y-92734741D01*
X82945431Y-93075000D01*
X83834569Y-93075000D01*
X84656026Y-92734741D01*
X85284741Y-92106026D01*
X85625000Y-91284569D01*
X85625000Y-90395431D01*
X85284741Y-89573974D01*
X84656026Y-88945259D01*
X83834569Y-88605000D01*
X82945431Y-88605000D01*
X82123974Y-88945259D01*
X81495259Y-89573974D01*
X81155000Y-90395431D01*
X79715000Y-90395431D01*
X79715000Y-86257008D01*
X79734296Y-86160000D01*
X79715000Y-86062992D01*
X79715000Y-86062988D01*
X79657849Y-85775672D01*
X79495098Y-85532097D01*
X79495096Y-85532095D01*
X79440145Y-85449855D01*
X79357905Y-85394904D01*
X78635000Y-84671999D01*
X78635000Y-84258000D01*
X78718222Y-84174778D01*
X81865000Y-84174778D01*
X81865000Y-84825222D01*
X82113914Y-85426153D01*
X82573847Y-85886086D01*
X83174778Y-86135000D01*
X83825222Y-86135000D01*
X84426153Y-85886086D01*
X84886086Y-85426153D01*
X85135000Y-84825222D01*
X85135000Y-84174778D01*
X84886086Y-83573847D01*
X84426153Y-83113914D01*
X83825222Y-82865000D01*
X83174778Y-82865000D01*
X82573847Y-83113914D01*
X82113914Y-83573847D01*
X81865000Y-84174778D01*
X78718222Y-84174778D01*
X79347902Y-83545098D01*
X79430145Y-83490145D01*
X79647849Y-83164328D01*
X79705000Y-82877012D01*
X79705000Y-82877009D01*
X79724296Y-82780001D01*
X79705000Y-82682993D01*
X79705000Y-79674778D01*
X81865000Y-79674778D01*
X81865000Y-80325222D01*
X82113914Y-80926153D01*
X82573847Y-81386086D01*
X83174778Y-81635000D01*
X83825222Y-81635000D01*
X84426153Y-81386086D01*
X84886086Y-80926153D01*
X85135000Y-80325222D01*
X85135000Y-79674778D01*
X84886086Y-79073847D01*
X84426153Y-78613914D01*
X83825222Y-78365000D01*
X83174778Y-78365000D01*
X82573847Y-78613914D01*
X82113914Y-79073847D01*
X81865000Y-79674778D01*
X79705000Y-79674778D01*
X79705000Y-70287008D01*
X79724296Y-70190000D01*
X79705000Y-70092992D01*
X79705000Y-70092988D01*
X79647849Y-69805672D01*
X79525189Y-69622098D01*
X79485098Y-69562097D01*
X79485096Y-69562095D01*
X79430145Y-69479855D01*
X79347905Y-69424904D01*
X78635000Y-68711999D01*
X78635000Y-68258000D01*
X78718222Y-68174778D01*
X81865000Y-68174778D01*
X81865000Y-68825222D01*
X82113914Y-69426153D01*
X82573847Y-69886086D01*
X83174778Y-70135000D01*
X83825222Y-70135000D01*
X84426153Y-69886086D01*
X84886086Y-69426153D01*
X85135000Y-68825222D01*
X85135000Y-68174778D01*
X84886086Y-67573847D01*
X84426153Y-67113914D01*
X83825222Y-66865000D01*
X83174778Y-66865000D01*
X82573847Y-67113914D01*
X82113914Y-67573847D01*
X81865000Y-68174778D01*
X78718222Y-68174778D01*
X79307904Y-67585096D01*
X79390145Y-67530145D01*
X79445096Y-67447905D01*
X79445098Y-67447903D01*
X79607849Y-67204328D01*
X79625483Y-67115674D01*
X79665000Y-66917012D01*
X79665000Y-66917008D01*
X79684296Y-66820000D01*
X79665000Y-66722992D01*
X79665000Y-63674778D01*
X81865000Y-63674778D01*
X81865000Y-64325222D01*
X82113914Y-64926153D01*
X82573847Y-65386086D01*
X83174778Y-65635000D01*
X83825222Y-65635000D01*
X84426153Y-65386086D01*
X84886086Y-64926153D01*
X85135000Y-64325222D01*
X85135000Y-63674778D01*
X84886086Y-63073847D01*
X84426153Y-62613914D01*
X83825222Y-62365000D01*
X83174778Y-62365000D01*
X82573847Y-62613914D01*
X82113914Y-63073847D01*
X81865000Y-63674778D01*
X79665000Y-63674778D01*
X79665000Y-57805431D01*
X81155000Y-57805431D01*
X81155000Y-58694569D01*
X81495259Y-59516026D01*
X82123974Y-60144741D01*
X82945431Y-60485000D01*
X83834569Y-60485000D01*
X84656026Y-60144741D01*
X85284741Y-59516026D01*
X85625000Y-58694569D01*
X85625000Y-57805431D01*
X85284741Y-56983974D01*
X84656026Y-56355259D01*
X83834569Y-56015000D01*
X82945431Y-56015000D01*
X82123974Y-56355259D01*
X81495259Y-56983974D01*
X81155000Y-57805431D01*
X79665000Y-57805431D01*
X79665000Y-55277008D01*
X79684296Y-55180000D01*
X79665000Y-55082992D01*
X79665000Y-55082988D01*
X79607849Y-54795672D01*
X79477042Y-54599905D01*
X79445098Y-54552097D01*
X79445096Y-54552095D01*
X79390145Y-54469855D01*
X79307905Y-54414904D01*
X78635000Y-53741999D01*
X78635000Y-53174778D01*
X81865000Y-53174778D01*
X81865000Y-53825222D01*
X82113914Y-54426153D01*
X82573847Y-54886086D01*
X83174778Y-55135000D01*
X83825222Y-55135000D01*
X84426153Y-54886086D01*
X84827239Y-54485000D01*
X85972992Y-54485000D01*
X86070000Y-54504296D01*
X86167008Y-54485000D01*
X86167012Y-54485000D01*
X86454328Y-54427849D01*
X86780145Y-54210145D01*
X86835098Y-54127902D01*
X87667902Y-53295098D01*
X87750145Y-53240145D01*
X87967849Y-52914328D01*
X88025000Y-52627012D01*
X88025000Y-52627009D01*
X88044296Y-52530001D01*
X88025000Y-52432993D01*
X88025000Y-48307242D01*
X88266089Y-48066153D01*
X88515003Y-47465222D01*
X88515003Y-46814778D01*
X88266089Y-46213847D01*
X87806156Y-45753914D01*
X87205225Y-45505000D01*
X86554781Y-45505000D01*
X85953850Y-45753914D01*
X85493917Y-46213847D01*
X85245003Y-46814778D01*
X85245003Y-47465222D01*
X85493917Y-48066153D01*
X85953850Y-48526086D01*
X86055000Y-48567984D01*
X86055001Y-52121999D01*
X85662000Y-52515000D01*
X84827239Y-52515000D01*
X84426153Y-52113914D01*
X83825222Y-51865000D01*
X83174778Y-51865000D01*
X82573847Y-52113914D01*
X82113914Y-52573847D01*
X81865000Y-53174778D01*
X78635000Y-53174778D01*
X78386086Y-52573847D01*
X77926153Y-52113914D01*
X77325222Y-51865000D01*
X76674778Y-51865000D01*
X76073847Y-52113914D01*
X75613914Y-52573847D01*
X75365000Y-53174778D01*
X66425000Y-53174778D01*
X66425000Y-48674778D01*
X75365000Y-48674778D01*
X75365000Y-49325222D01*
X75613914Y-49926153D01*
X76073847Y-50386086D01*
X76674778Y-50635000D01*
X77325222Y-50635000D01*
X77926153Y-50386086D01*
X78327239Y-49985000D01*
X82172761Y-49985000D01*
X82573847Y-50386086D01*
X83174778Y-50635000D01*
X83825222Y-50635000D01*
X84426153Y-50386086D01*
X84886086Y-49926153D01*
X85135000Y-49325222D01*
X85135000Y-48674778D01*
X84886086Y-48073847D01*
X84426153Y-47613914D01*
X83825222Y-47365000D01*
X83174778Y-47365000D01*
X82573847Y-47613914D01*
X82172761Y-48015000D01*
X78327239Y-48015000D01*
X77926153Y-47613914D01*
X77325222Y-47365000D01*
X76674778Y-47365000D01*
X76073847Y-47613914D01*
X75613914Y-48073847D01*
X75365000Y-48674778D01*
X66425000Y-48674778D01*
X66425000Y-37075000D01*
X84872023Y-37075000D01*
X83572120Y-38374904D01*
G04 #@! TD*
M02*
